M48
;Layer_Color=9474304
;FILE_FORMAT=4:3
METRIC,LZ
;TYPE=PLATED
T1F00S00C0.300
T2F00S00C0.500
T3F00S00C0.700
T4F00S00C1.200
T5F00S00C1.800
T6F00S00C2.000
T7F00S00C2.600
T8F00S00C3.500
T9F00S00C4.500
;TYPE=NON_PLATED
T10F00S00C3.500
%
T01
X-0020683Y-0028763
X-0019958Y-002797
X-000264Y-0027748
X-0003532Y-0033277
X-000042Y-0034113
X0000228Y-0039393
X-0002584Y-0041432
X-0006776Y-0042815
X0005682Y-003643
X000747Y-0036405
X0011147Y-0034088
X0012113Y-0034362
X0012922Y-0039393
X0004913Y-0029319
X0036229Y-00347
X0027325Y-0019163
Y-0017863
Y-0016563
Y-0015263
Y-0013963
Y-0012663
Y-0011363
X0031165Y0003142
X0033178Y0003132
X0014051Y0002918
X0012Y0002681
X000636Y-0001275
X000502Y-000125
X-0000817
X-0004385Y-0005016
X-0006293Y-0007267
X-0008152Y-0007699
X-0009104
X0000493Y-0008254
X0001704Y-0007452
X0011942Y-0007167
Y-0008167
X0015919Y-0013841
X0015819Y-0014941
Y-0015941
X-0013586Y-0015897
X-0014686
Y-0014797
Y-0013797
X-001463Y-0017525
X-0013193Y-00011
X-000786Y000314
X-0005847Y000313
X-0004327Y000379
X-001603Y0000768
X-0019509Y-00011
X-0026598Y-0000296
X-002427Y0003056
X-0020799Y000769
X-0022481Y-0007063
X-0020207Y-0011505
X-001805
X-001678Y-0017525
X-001558
X-0025984Y-0017863
Y-0019163
Y-0016563
Y-0015263
Y-0013963
Y-0012663
Y-0011363
X-0028901Y-0005016
T02
X-003053Y-0048413
X-002923
X-002793
X-003573Y-0040613
X-003703
X-003833Y-0039313
Y-0038013
Y-0036713
Y-0035413
X-003703
X-003573
Y-0034113
X-003703
X-003833
Y-0032813
X-001883
Y-0034113
X-001753
X-001623
X-001883Y-0031513
X-001493
Y-0032813
Y-0034113
X0001035Y-0026734
X001627Y-0027613
X001757
X001887
X002017
X002147
X001757Y-0028913
X0004291Y-0049114
X003187Y-0041913
X003317Y-0040613
X003447
X003577
X003707
X003837
Y-0039313
Y-0038013
Y-0036713
Y-0035413
X003707
X003837Y-0034113
Y-0030213
Y-0028913
Y-0027613
X003707Y-0028913
X003317Y-0038013
X003187
Y-0019813
X003317
X003447
X003577
X0038564
Y-0018513
Y-0017213
Y-0015913
Y-0014613
Y-0013313
X003837Y-0009413
Y-0008113
Y-0006813
Y-0005513
Y-0002913
Y-0001613
Y-0000313
Y0000987
Y0002287
Y0003587
Y0004887
Y0007487
Y0008787
X0038141Y001066
X003837Y0012687
X0030961Y0012699
X0030768Y0007914
X003174Y000701
X0032655Y0007892
X0034614Y0007914
X0028751Y000601
X002667Y0007487
X002537
Y0006187
Y0004887
Y0003587
Y0002287
Y0000987
Y-0000313
Y-0001613
X003057Y-0006813
X002927Y-0012013
X002797
Y-0013313
X002927
X003057
X002927Y-0014613
Y-0015913
Y-0017213
Y-0018513
X002797
X002667
Y-0019813
X002797
X002927
X003057
Y-0018513
X003187
X003057Y-0017213
X002797
X002667
Y-0015913
Y-0014613
Y-0013313
Y-0012013
X002797Y-0010713
Y-0014613
Y-0015913
X003837Y-0022413
Y-0026313
X003447Y-0004213
X002407Y-0001613
Y-0000313
Y0000987
Y0002287
Y0003587
Y0004887
Y0006187
Y0007487
X002277
Y0008787
X002017Y0007487
X001887
Y0008787
X0018684Y0010649
X001887Y0012687
X0011469Y0012699
X0011276Y0007913
X0012249Y0007009
X0013163Y0007891
X0015122Y0007913
X002017Y0006187
X002147
Y0004887
Y0003587
Y0002287
Y0000987
Y-0000313
Y-0001613
X001887
Y-0000313
Y0000987
Y0002287
Y0003587
Y0004887
X0009368Y0006093
X0007676Y0008138
X0005426
X000327Y0008787
X-000063
X-0000895Y0010678
X-000063Y0012687
X-0008025Y0012704
X-0008262Y0007913
X-0007289Y0007009
X-0006375Y0007891
X-0009677Y0006515
X-0012419Y000791
X-0014635
X-001363Y0002287
Y0000987
X-0013955Y-0010488
Y-0011638
X-0015255
Y-0010488
X-0012655
X-000843Y-0010713
X-000713
X-000583
X-000453
X-000323
X-000193
Y-0012013
Y-0013313
Y-0014613
Y-0015913
Y-0017213
Y-0018513
Y-0019813
Y-0021113
X-000323
Y-0019813
Y-0018513
Y-0017213
Y-0015913
Y-0014613
Y-0013313
Y-0012013
X-000453
Y-0013313
Y-0014613
Y-0015913
Y-0017213
Y-0018513
Y-0019813
Y-0021113
Y-0022413
X-000323
X-000453Y-0023713
Y-0025013
Y-0026313
X-000323
X-000583
Y-0025013
Y-0023713
Y-0022413
Y-0021113
Y-0019813
Y-0018513
Y-0017213
Y-0015913
Y-0014613
Y-0013313
Y-0012013
X-000713
Y-0013313
Y-0014613
Y-0015913
Y-0017213
Y-0018513
Y-0019813
Y-0021113
Y-0022413
Y-0023713
Y-0025013
Y-0026313
X-000843
X-001103
X-001233
Y-0025013
Y-0023713
Y-0022413
X-001103
Y-0021113
X-000973
X-000843
Y-0019813
Y-0018513
Y-0017213
Y-0015913
Y-0014613
Y-0013313
Y-0012013
X-000973
Y-0013313
Y-0014613
Y-0015913
Y-0017213
Y-0018513
Y-0019813
X-001103
Y-0018513
Y-0017213
Y-0015913
Y-0014613
Y-0013313
X-001233Y-0014613
X-001363
X-001233Y-0015913
Y-0017213
Y-0018513
Y-0019813
Y-0021113
X-001363
Y-0019813
Y-0018513
Y-0017213
X-001493Y-0018513
Y-0019813
Y-0021113
Y-0022413
X-001363
Y-0023713
Y-0025013
Y-0026313
X-001493
Y-0025013
Y-0023713
X000327Y-0021113
X000457
X000587
X000717
X000847
X000977
X001107
X001237
X001367
X001497
X001627
X001757
X001887
X002017
X002147
Y-0022413
Y-0023713
Y-0025013
Y-0026313
X002017
Y-0025013
Y-0023713
Y-0022413
X001887
Y-0023713
Y-0025013
Y-0026313
X001757Y-0023713
Y-0022413
X001627
Y-0023713
X001497
Y-0022413
X001367
Y-0023713
Y-0025013
Y-0026313
X001237
X000977
X000847
Y-0025013
Y-0023713
Y-0022413
X000977
Y-0019813
X001107
X001237
X001367
X001497
X001627
X001757
X001887
X002017
X002147
Y-0018513
X002017
X001887
X001757
X001627
X001497
Y-0017213
X001367
Y-0015913
Y-0014613
Y-0013313
Y-0012013
Y-0010713
X001237
Y-0012013
Y-0013313
Y-0014613
Y-0015913
Y-0017213
Y-0018513
X001367
X001107
Y-0017213
Y-0015913
Y-0014613
Y-0013313
Y-0012013
Y-0010713
X000977
Y-0012013
Y-0013313
Y-0014613
Y-0015913
Y-0017213
Y-0018513
X000847
Y-0017213
Y-0015913
Y-0014613
Y-0013313
Y-0012013
Y-0010713
X000717
Y-0012013
Y-0013313
Y-0014613
Y-0015913
Y-0017213
Y-0018513
Y-0019813
X000847
X000587
Y-0018513
Y-0017213
Y-0015913
Y-0014613
Y-0013313
Y-0012013
Y-0010713
X000457
X000327
Y-0012013
X000457
Y-0013313
Y-0014613
Y-0015913
Y-0017213
Y-0018513
Y-0019813
X000327
Y-0018513
Y-0017213
Y-0015913
Y-0014613
Y-0013313
X0001789Y-001125
X000457Y0000987
X000587Y-0000313
Y0003587
Y-0022413
X000717
Y-0023713
Y-0025013
Y-0026313
X000587
X001897Y-0016988
X002022
X002147
Y-0015688
X002022
X001897
Y-0014388
X002022
X002147
Y-0013088
Y-0011913
X002022
Y-0013088
X001897
Y-0011913
X-0017805Y-0012738
X-0019017
X-002023
Y-0014038
X-0019017
X-0017805
Y-0015338
X-0019017
X-002023
Y-0016638
X-0019017
X-0017805
X-001783Y-0017813
X-001898
X-002013
Y-0018963
X-001883
X-001753
Y-0020263
Y-0021563
Y-0022863
Y-0024163
Y-0025463
X-001623Y-0025013
Y-0023713
Y-0022413
Y-0021113
Y-0019813
X-001623Y-0018513
X-001883Y-0020263
Y-0021563
Y-0022863
Y-0024163
X-002013Y-0022863
Y-0021563
Y-0020263
X-002533Y-0018513
Y-0017213
Y-0015913
Y-0014613
Y-0013313
Y-0012013
X-002663
Y-0010713
X-002793
Y-0012013
Y-0013313
X-002663
Y-0014613
Y-0015913
Y-0017213
Y-0018513
X-002793
Y-0017213
Y-0015913
Y-0014613
X-002923
Y-0013313
Y-0012013
X-003053Y-0013313
Y-0014613
X-002923Y-0015913
Y-0017213
Y-0018513
X-003053
Y-0017213
X-003703Y-0012013
Y-0005513
X-003833Y-0002913
Y-0001613
Y-0000313
Y0000987
X-003703
Y0002287
Y0003587
X-003573
Y0004887
Y0006187
X-003703
Y0007487
X-003833
Y0006187
Y0004887
X-003703
X-003443
Y0003587
Y0002287
Y0000987
X-003313
Y-0000313
X-003443
Y-0001613
X-003573
X-003703
Y-0000313
X-003573
Y0000987
Y0002287
X-003313
Y0003587
Y0004887
Y0006187
X-003443
Y0007487
X-003573
Y0008787
X-003313Y0007487
X-003183
X-0029676Y000601
X-0026686Y0007009
X-0027431Y0007894
X-0025772Y0007891
X-0024129Y0008078
X-0020275Y0010678
X-002013Y0012687
X-0027466Y0012704
X-001623Y0008787
X-003833Y0003587
Y0002287
X-003313Y-0001613
X-0031373Y-000506
X-001623Y-0026313
X-0016675Y0013318
X-0017987
X-001753Y0015287
Y0016587
Y0017887
Y0019187
Y0020487
Y0021787
X-001623
Y0023087
X-001753
Y0024387
X-001623
X-001753Y0025687
Y0026987
Y0028287
X-001883Y0029587
Y0030887
Y0032187
Y0033487
Y0034787
Y0036087
Y0037387
Y0038687
Y0039987
Y0042587
X-001753
Y0043887
X-001623
Y0042587
Y0045187
Y0046487
X-001753
Y0047787
X-001883
X-002013
X-002143
X-002013Y0046487
X-001623Y0047787
X-002403Y0037387
Y0036087
Y0034787
Y0033487
Y0032187
Y0030887
Y0029587
Y0028287
Y0026987
Y0025687
Y0024387
X-002533
Y0023087
Y0021787
X-002663
Y0023087
X-002793
X-002923
Y0021787
Y0020487
X-003053
X-003183
Y0021787
Y0023087
X-003313
X-003443
Y0021787
Y0020487
X-003313
Y0021787
X-003573
X-003703
Y0020487
X-003833
Y0021787
Y0023087
X-003703
X-003573
Y0024387
X-003703
Y0025687
Y0026987
X-003833
Y0028287
Y0029587
Y0030887
Y0032187
Y0033487
Y0034787
Y0036087
Y0037387
Y0038687
Y0039987
X-003703Y0028287
X-003833Y0025687
Y0024387
Y0019187
X-003703
X-003573
Y0020487
X-003703Y0017887
Y0016587
Y0015287
X-003833
Y0013987
X-003703
X-003833Y0016587
Y0017887
X-003053Y0021787
Y0023087
X-002793Y0021787
Y0020487
X-002663
X-002533
X-002403
Y0019187
Y0017887
Y0016587
Y0015287
X-002533
Y0016587
Y0017887
Y0019187
X-002663
X-002403Y0021787
Y0023087
X-002533Y0025687
Y0026987
Y0028287
X-002013
X-001623Y0020487
Y0019187
X-002013Y0015287
Y0013987
X-0029676Y0013336
X-0010279
X-000583Y0015287
Y0016587
Y0017887
Y0019187
X-000453
Y0020487
X-000583
X-000713
X-000843
Y0021787
X-000973
Y0023087
X-001103
X-001233
X-001363
X-001493
Y0021787
Y0020487
X-001363
Y0021787
X-001233
Y0020487
X-001103
Y0021787
X-000973Y0020487
X-000843Y0023087
X-000713
Y0021787
X-000583
Y0023087
X-000453
Y0021787
Y0024387
X-000583
Y0025687
X-000453
Y0026987
Y0028287
Y0029587
Y0030887
Y0032187
Y0033487
Y0034787
Y0036087
Y0037387
Y0038687
X000067
Y0037387
Y0036087
Y0034787
Y0033487
Y0032187
Y0030887
Y0029587
X-000063Y0028287
X000197
Y0026987
Y0025687
Y0024387
Y0023087
X000327
Y0021787
X000197
Y0020487
Y0019187
Y0017887
Y0016587
Y0015287
X0001552Y0013318
X0002863
X-000063Y0013987
Y0015287
X-000453
Y0016587
Y0017887
X-000713Y0019187
X-000583Y0026987
Y0028287
X000327Y0024387
X000457Y0023087
Y0021787
Y0020487
X000327
Y0019187
X000587Y0020487
X000717
Y0021787
Y0023087
X000847
Y0021787
Y0020487
X000977
X001107
X001237
Y0021787
Y0023087
X001107
Y0021787
X000977
Y0023087
X001367
X001497
Y0021787
X001367
Y0020487
X001497
Y0019187
Y0017887
Y0016587
Y0015287
X001367
Y0016587
Y0017887
Y0019187
X001237
X001367Y0024387
Y0025687
Y0026987
X001497
Y0028287
Y0029587
Y0030887
Y0032187
Y0033487
Y0034787
Y0036087
Y0037387
Y0038687
Y0039987
Y0043887
Y0045187
Y0046487
X001367
Y0047787
X001237
X001107
X000977
X000847
X001497
X001367Y0045187
Y0043887
X002017Y0037387
Y0036087
Y0034787
Y0033487
Y0032187
Y0030887
Y0029587
X002147Y0028287
Y0026987
Y0025687
Y0024387
Y0023087
X002277
Y0021787
X002407
Y0023087
Y0020487
X002277
X002147
Y0019187
Y0017887
Y0016587
Y0015287
X0021043Y0013319
X0022355
X001887Y0013987
Y0015287
X002277Y0019187
X002147Y0021787
X002277Y0024387
X001887Y0028287
X001367
X001497Y0025687
Y0024387
X000587Y0023087
Y0021787
X0009459Y0013336
X-000063Y0041287
Y0042587
X-000193
Y0043887
Y0045187
Y0046487
X-000063
Y0047787
X-000193
X-000323
X-000453
X-000583
X-000063Y0045187
Y0043887
X003447Y0039987
Y0038687
Y0037387
Y0036087
Y0034787
Y0033487
Y0032187
Y0030887
Y0029587
Y0028287
X003317
Y0026987
Y0025687
Y0024387
Y0023087
Y0021787
X003447
Y0023087
Y0024387
Y0025687
Y0026987
X003837Y0028287
Y0029587
Y0030887
Y0032187
Y0033487
Y0034787
Y0036087
Y0037387
Y0038687
Y0039987
X003187Y0023087
Y0021787
Y0020487
X003317
X003447
Y0019187
Y0017887
Y0016587
Y0015287
X003317
Y0016587
Y0017887
Y0019187
X003187
X003057Y0020487
X002927
X002797
X002667
Y0021787
Y0023087
X002797
Y0021787
X002927
Y0023087
X003057
Y0021787
X002537
Y0020487
Y0023087
X0028751Y0013336
X003837Y0013987
Y0015287
T03
X-003605Y-0038953
Y-0036953
Y-0032475
Y-0030475
X-0011Y-00461
X-0009
X-000437
X-000237
X0002261
X0004261
X0008891
X0010891
X0036229Y-0038953
Y-0036953
Y-0032475
Y-0030475
T04
X-0026363Y0045248
X-0023863
X-0021363
X-0018863
X-0011303
X-0008803
X-0006303
X-0003803
X0003857
X0006357
X0008857
X0011357
X0018817
X0021317
X0023817
X0026317
T05
X-00094Y-00242
X-00018
X0003762Y-00242
X0011362
T06
X0028762Y-00242
X0036362
X-00288Y-00242
X-00364
T07
X0019Y-00083
X-0019
T08
X-0035Y-0045
X0035
T09
X-0025495Y-0045
X-0018295
X0018198
X0025398
X0034262Y-001535
Y-000815
X-00343Y-00084
Y-00156
T10
X-0035Y0045
X0035Y0045
M30
