M48
;Layer_Color=9474304
;FILE_FORMAT=4:3
METRIC,LZ
;TYPE=PLATED
T1F00S00C0.300
T2F00S00C0.500
T3F00S00C0.700
T4F00S00C1.200
T5F00S00C1.800
T6F00S00C2.000
T7F00S00C4.500
;TYPE=NON_PLATED
T8F00S00C3.500
%
T01
X-0023076Y-0049121
X-003525Y-00354
X-0012283Y-0046985
X0000928Y-0029928
X0000468Y-0028681
X0000208Y-00274
X0002651Y-0027929
X0007822Y-00278
X0007361Y-0030253
X000859Y-0030199
X0010267Y-0030558
X0011147Y-0034088
X0012013Y-0034162
X0036229Y-0035364
X0033178Y0003132
X0031165Y0003142
X0013684Y0003102
X0011671Y0003112
X001168Y-0012054
X001327Y-0012997
X0013152Y-0016282
X0013225Y-0017493
X0013183Y-0018392
X0012793Y-001943
X0012275Y-001559
X0017672Y-0013827
X0018987Y-0023135
X-0000453Y-0020152
X-0006935Y-0020173
X-000815
X-0006098Y-0022824
X-0005083
X-0011005Y-001828
X-00112Y-0016785
X-0010979Y-0015912
X-0008678Y-0012301
X-0008651Y-0010239
X-0004922Y-00097
X-0005847Y000313
X-000786Y000314
X-0025253Y0003111
X-0027266Y0003121
X-0023698Y-0021146
X-0020767Y-0022066
T02
X-0019206Y-0037167
Y-0035819
Y-0034471
X-0017858
X-001651
X-0019206Y-0033123
Y-0031775
Y-0030427
Y-0029079
Y-002773
X-0017858
X-001651
X-0015162
Y-0029079
Y-0030427
Y-0031775
Y-0033123
Y-0034471
Y-0035819
Y-0037167
X-0007647Y-0040474
Y-0041839
X-0009012
Y-0043204
X-0007647
Y-004457
X-0009012
X-0010378
Y-0043204
X-0002003Y-0042251
X-0000638
Y-0040886
Y-0039521
X0000728
Y-0040886
Y-0042251
Y-0043617
X-0000638
X0003494Y-0044017
X0004659
X0005825
Y-0042651
X0004659
X0003494
X0005825Y-0041286
Y-0039921
Y-0038555
Y-003719
Y-0035825
Y-0034459
X0004459
X0003094
X0001729
X0000363
X-0001002
X-0002236Y-0029781
X-0003602
X000719Y-0034459
X0008555
X000719Y-0035825
Y-003719
Y-0038555
Y-0039921
Y-0041286
Y-0042651
X0008555
X000719Y-0044017
X0011526Y-0043704
X0012891
X0014257
Y-004507
Y-0046435
X0012891
Y-004507
Y-0042339
X0014257
Y-0040974
X0015622
X0016987
X0017887
Y-0039608
Y-0038243
Y-0037127
Y-0035761
Y-0034396
X0019253Y-0034296
X0020618
Y-0032931
X0019253
Y-0038243
X0020618
Y-0039608
X0019253
Y-0040974
X0020618
X0012891
Y-0039608
X0004291Y-0049114
X0024757Y-0009477
X0025879
X0027002
X0028125
X0029247
Y-0008354
X003047
Y-0007232
Y-0009477
Y-00106
X0038566Y-0009354
Y-0007439
Y-0005523
Y-0003608
Y-0001692
Y0000223
Y0002146
Y0004069
Y0005491
X0034614Y0007914
X0032655Y0007892
X003174Y000701
X0030768Y0007914
X0028751Y000601
X00252Y0005991
Y0004069
Y0002146
Y0000223
Y-0001692
Y-0003608
X0036513
X0026823Y0007914
X00252
X0030961Y0012699
X0023577Y0007914
X0021955
X0023577Y0005991
Y0004069
Y0002146
Y0000223
Y-0001692
Y-0003608
X0019075Y-0003608
Y-0001693
Y0000223
Y0002145
Y0004068
Y0005491
X0015122Y0007913
X0013163Y0007891
X0012249Y0007009
X0011276Y0007913
X0009259Y000601
X0005708Y0005991
X0004085
Y0004068
X0005708
Y0002145
X0004085
Y0000223
X0005708
Y-0001693
X0004085
Y-0003608
X0005708
X0007262
X-0000463
Y-0001693
Y0000223
Y0002145
Y0004068
Y0005491
X0002463Y0007913
X0004085
X0005708
X0007331
X0011469Y0012699
X-0008025Y0012704
X-0008262Y0007913
X-0007289Y0007009
X-0006375Y0007891
X-0004416Y0007913
X-0010279Y000601
X-001383Y0005991
Y0004068
Y0002145
Y0000223
Y-0001693
Y-0003608
X-0012276
X-0012482Y-0009625
X-0011134
Y-0010973
X-0012482
X-001383
X-0015178
Y-0009625
X-001383
X-0005195Y-0014235
X-0005192Y-0015481
X-0004188Y-0014808
Y-0016344
X0000052Y-0013891
X000002Y-0012657
X000214Y-001465
Y-0015854
X000224Y-0017001
X0012268Y-0009564
X001802Y-0009477
X0019143
X0020266
X0021388
X0022511
X0023634
X0019585Y-0011435
X0018752Y-0012157
X0017875Y-0011439
X0017021Y-0003608
X-0002517
X-0012207Y0007913
X-001383
X-0015162Y-0022338
Y-0023686
Y-0025034
Y-0026382
X0021472Y-0024047
X0020749Y-0023003
X0020058Y-0022036
X0021472Y-0022029
X-001651Y-0022338
X-0017858
Y-0023686
Y-0025034
Y-0026382
X-001651
Y-0025034
Y-0023686
X-0019206
Y-0025034
Y-0026382
X-0016526Y-0010973
Y-0009625
X-0022166Y-0009445
X-0023466
X-001986Y-0003608
Y-0001693
Y0000223
Y0002145
Y0004068
Y0005491
X-0015453Y0005991
Y0007913
X-0017075
X-0015453Y0004068
Y0002145
Y0000223
Y-0001693
Y-0003608
X-0031373Y-000506
X-0032927Y-0002909
X-0034849
X-0036772
X-0038695
Y-000506
X-0036772
X-0038695Y-0007211
Y-0009362
Y-0000759
X-0036772
X-0034849
X-0032927
Y0001392
X-0034849
X-0036772
X-0038695
Y0003543
X-0036772
X-0034849
X-0032927
Y0005694
X-0034849
X-0036772
X-0038695
Y0007845
X-0037041
X-0035388
X-0033734
X-0032081
X-0029676Y000601
X-0026686Y0007009
X-0027431Y0007894
X-0025467Y0007845
X-0023813
X-0027466Y0012704
X-0029676Y0013336
X-0025486Y0015127
X-0023899Y0015087
Y0016873
X-0025486Y0016809
Y0018491
X-0023899Y0018658
X-0023899Y0020172
X-0023899Y0021695
X-0023899Y0023149
X-0025749
X-0026013Y0021695
X-0025749Y0020172
X-0027598
X-0029448
X-0031297
X-0033147
X-0034996
X-0036845
X-0036772Y0018525
X-0038695Y0018599
Y0016448
X-0036772Y0016513
Y0014501
X-0038695Y0014297
Y002075
Y0022901
X-0036845Y0023149
X-0036772Y0024561
Y0026574
Y0028586
X-0038695Y0029353
Y0027202
Y0025052
X-0036581Y0021695
X-0034468
X-0034996Y0023149
X-0033147
X-0031297
X-0029448
X-0027598
X-0028127Y0021695
X-003024
X-0032354
X-0025486Y0025221
Y0026903
Y0028586
X-0023899Y002937
Y0027585
Y00258
Y0031156
Y0032941
Y0034726
Y0036512
X-0019298Y0036262
Y0034339
Y0032417
Y0030494
X-0017987Y0028914
X-0016675Y0028926
Y0027181
X-0017987Y002717
Y0025426
X-0016675Y0025435
X-0016301Y002339
X-0017987
Y0021655
Y0020094
Y001845
X-0016675
Y0016706
X-0017987
Y001493
X-0016675
Y0013318
X-0017987
X-0016301Y0020094
Y0021655
X-0019298Y0038185
X-0038695Y0037957
Y0040107
Y0035806
Y0033655
Y0031504
X-0014616Y002339
X-001293
X-0011244
X-0009559
X-0007873
X-0006188
X-0006089Y002474
X-0004502Y0024701
X-0004502Y002339
Y0021655
Y0020094
X-0004502Y001845
X-0006089
X-0006188Y0020094
Y0021655
X-0007873
Y0020094
X-0009559
Y0021655
X-0011244
Y0020094
X-001293
Y0021655
X-0014616
Y0020094
X-0010279Y0013336
X-0006089Y001493
X-0004502
Y0016706
X-0006089
X0001552
X0002863
Y001845
X0001552
Y0020094
Y0021655
X0003237
Y0020094
X0004923
Y0021655
X0006608
Y0020094
X0008294
Y0021655
X0009979
Y0020094
X0011665
Y0021655
X001335
Y0020094
X0015036
Y0021655
Y002339
X0015036Y0024701
X0013449Y002474
X001335Y002339
X0011665
X0009979
X0008294
X0006608
X0004923
X0003237
X0001552
Y0025426
X0002863Y0025435
Y0027181
X0001552Y002717
Y0028914
X0002863Y0028926
X000024Y0030494
Y0032417
Y0034339
Y0036262
Y0038185
X-0004502Y003816
Y0036237
Y0034314
Y0032392
Y0030469
Y0028546
X-0006089Y0028586
Y0026663
X-0004502Y0026623
X0001552Y001493
X0002863
Y0013318
X0001552
X0009259Y0013336
X0013449Y001493
X0015036
Y0016706
X0013449
Y001845
X0015036
X0021043Y0018451
X0022355
Y0016707
X0021043
Y0014931
X0022355
Y0013319
X0021043
Y0020095
Y0021656
X0022729
Y0020095
Y0023391
X0021043
Y0025427
X0022355Y0025436
Y0027181
X0021043Y0027171
Y0028915
X0022355Y0028927
X0019732Y0030495
Y0032417
Y003434
Y0036263
X0015036Y0036237
Y0034314
Y0032392
Y0030469
Y0028546
X0013449Y0028586
Y0026663
X0015036Y0026623
Y003816
Y0040082
X0034527Y0040083
Y003816
Y0036238
Y0034315
Y0032392
Y003047
Y0028547
X0032941Y0028586
Y0026664
X0034527Y0026624
Y0024702
X0034527Y0023391
X0032842
X0032941Y0024741
X0031156Y0023391
X0029471
X0027785
X00261
X0024414
Y0021656
Y0020095
X00261
Y0021656
X0027785
Y0020095
X0029471
Y0021656
X0031156
Y0020095
X0032842
Y0021656
X0034527
Y0020095
X0034527Y0018451
X0032941
Y0016707
X0034527
Y0014931
X0032941
X0028751Y0013336
T03
X-003605Y-0038953
Y-0036953
Y-0032475
Y-0030475
X-0011Y-00461
X-0009
X-000437
X-000237
X0002261
X0004261
X0008891
X0010891
X0036229Y-0038953
Y-0036953
Y-0032475
Y-0030475
T04
X-0026363Y0045248
X-0023863
X-0021363
X-0018863
X-0011303
X-0008803
X-0006303
X-0003803
X0003857
X0006357
X0008857
X0011357
X0018817
X0021317
X0023817
X0026317
T05
X-00094Y-00242
X-00018
X0003762Y-00242
X0011362
T06
X0028762Y-00242
X0036362
X-00288Y-00242
X-00364
T07
X-0025495Y-0045
X-0018295
X0018198
X0025398
X0034262Y-001535
Y-000815
X-00343Y-00084
Y-00156
T08
X-0035Y-0045
X0035
X-0035Y0045
X0035Y0045
M30
