G04*
G04 #@! TF.GenerationSoftware,Altium Limited,Altium Designer,23.3.1 (30)*
G04*
G04 Layer_Color=16711935*
%FSLAX43Y43*%
%MOMM*%
G71*
G04*
G04 #@! TF.SameCoordinates,24EB4D33-B09A-4438-942F-29D14A2A9395*
G04*
G04*
G04 #@! TF.FilePolarity,Negative*
G04*
G01*
G75*
G04:AMPARAMS|DCode=18|XSize=3.24mm|YSize=1.64mm|CornerRadius=0.242mm|HoleSize=0mm|Usage=FLASHONLY|Rotation=0.000|XOffset=0mm|YOffset=0mm|HoleType=Round|Shape=RoundedRectangle|*
%AMROUNDEDRECTD18*
21,1,3.240,1.155,0,0,0.0*
21,1,2.755,1.640,0,0,0.0*
1,1,0.485,1.378,-0.578*
1,1,0.485,-1.378,-0.578*
1,1,0.485,-1.378,0.578*
1,1,0.485,1.378,0.578*
%
%ADD18ROUNDEDRECTD18*%
G04:AMPARAMS|DCode=24|XSize=1.31mm|YSize=1.56mm|CornerRadius=0.201mm|HoleSize=0mm|Usage=FLASHONLY|Rotation=90.000|XOffset=0mm|YOffset=0mm|HoleType=Round|Shape=RoundedRectangle|*
%AMROUNDEDRECTD24*
21,1,1.310,1.158,0,0,90.0*
21,1,0.907,1.560,0,0,90.0*
1,1,0.403,0.579,0.454*
1,1,0.403,0.579,-0.454*
1,1,0.403,-0.579,-0.454*
1,1,0.403,-0.579,0.454*
%
%ADD24ROUNDEDRECTD24*%
G04:AMPARAMS|DCode=25|XSize=1.31mm|YSize=1.56mm|CornerRadius=0.201mm|HoleSize=0mm|Usage=FLASHONLY|Rotation=180.000|XOffset=0mm|YOffset=0mm|HoleType=Round|Shape=RoundedRectangle|*
%AMROUNDEDRECTD25*
21,1,1.310,1.158,0,0,180.0*
21,1,0.907,1.560,0,0,180.0*
1,1,0.403,-0.454,0.579*
1,1,0.403,0.454,0.579*
1,1,0.403,0.454,-0.579*
1,1,0.403,-0.454,-0.579*
%
%ADD25ROUNDEDRECTD25*%
G04:AMPARAMS|DCode=26|XSize=1.63mm|YSize=1.12mm|CornerRadius=0.178mm|HoleSize=0mm|Usage=FLASHONLY|Rotation=270.000|XOffset=0mm|YOffset=0mm|HoleType=Round|Shape=RoundedRectangle|*
%AMROUNDEDRECTD26*
21,1,1.630,0.765,0,0,270.0*
21,1,1.275,1.120,0,0,270.0*
1,1,0.355,-0.383,-0.638*
1,1,0.355,-0.383,0.638*
1,1,0.355,0.383,0.638*
1,1,0.355,0.383,-0.638*
%
%ADD26ROUNDEDRECTD26*%
G04:AMPARAMS|DCode=27|XSize=1.63mm|YSize=1.12mm|CornerRadius=0.178mm|HoleSize=0mm|Usage=FLASHONLY|Rotation=0.000|XOffset=0mm|YOffset=0mm|HoleType=Round|Shape=RoundedRectangle|*
%AMROUNDEDRECTD27*
21,1,1.630,0.765,0,0,0.0*
21,1,1.275,1.120,0,0,0.0*
1,1,0.355,0.638,-0.383*
1,1,0.355,-0.638,-0.383*
1,1,0.355,-0.638,0.383*
1,1,0.355,0.638,0.383*
%
%ADD27ROUNDEDRECTD27*%
G04:AMPARAMS|DCode=30|XSize=1.84mm|YSize=2.27mm|CornerRadius=0.268mm|HoleSize=0mm|Usage=FLASHONLY|Rotation=0.000|XOffset=0mm|YOffset=0mm|HoleType=Round|Shape=RoundedRectangle|*
%AMROUNDEDRECTD30*
21,1,1.840,1.735,0,0,0.0*
21,1,1.305,2.270,0,0,0.0*
1,1,0.535,0.653,-0.868*
1,1,0.535,-0.653,-0.868*
1,1,0.535,-0.653,0.868*
1,1,0.535,0.653,0.868*
%
%ADD30ROUNDEDRECTD30*%
%ADD32C,6.600*%
%ADD33C,1.300*%
%ADD34R,1.300X1.300*%
%ADD35C,3.300*%
%ADD36C,3.600*%
%ADD37C,2.100*%
%ADD38R,1.300X1.300*%
%ADD39C,4.100*%
%ADD40C,0.900*%
%ADD41C,1.200*%
%ADD44C,1.100*%
G04:AMPARAMS|DCode=86|XSize=0.8mm|YSize=1.97mm|CornerRadius=0.138mm|HoleSize=0mm|Usage=FLASHONLY|Rotation=180.000|XOffset=0mm|YOffset=0mm|HoleType=Round|Shape=RoundedRectangle|*
%AMROUNDEDRECTD86*
21,1,0.800,1.695,0,0,180.0*
21,1,0.525,1.970,0,0,180.0*
1,1,0.275,-0.263,0.848*
1,1,0.275,0.263,0.848*
1,1,0.275,0.263,-0.848*
1,1,0.275,-0.263,-0.848*
%
%ADD86ROUNDEDRECTD86*%
G04:AMPARAMS|DCode=87|XSize=2.1mm|YSize=2.6mm|CornerRadius=0.3mm|HoleSize=0mm|Usage=FLASHONLY|Rotation=180.000|XOffset=0mm|YOffset=0mm|HoleType=Round|Shape=RoundedRectangle|*
%AMROUNDEDRECTD87*
21,1,2.100,2.000,0,0,180.0*
21,1,1.500,2.600,0,0,180.0*
1,1,0.600,-0.750,1.000*
1,1,0.600,0.750,1.000*
1,1,0.600,0.750,-1.000*
1,1,0.600,-0.750,-1.000*
%
%ADD87ROUNDEDRECTD87*%
G04:AMPARAMS|DCode=88|XSize=0.5mm|YSize=1.2mm|CornerRadius=0.1mm|HoleSize=0mm|Usage=FLASHONLY|Rotation=90.000|XOffset=0mm|YOffset=0mm|HoleType=Round|Shape=RoundedRectangle|*
%AMROUNDEDRECTD88*
21,1,0.500,1.000,0,0,90.0*
21,1,0.300,1.200,0,0,90.0*
1,1,0.200,0.500,0.150*
1,1,0.200,0.500,-0.150*
1,1,0.200,-0.500,-0.150*
1,1,0.200,-0.500,0.150*
%
%ADD88ROUNDEDRECTD88*%
G04:AMPARAMS|DCode=89|XSize=1.1mm|YSize=1.5mm|CornerRadius=0.175mm|HoleSize=0mm|Usage=FLASHONLY|Rotation=180.000|XOffset=0mm|YOffset=0mm|HoleType=Round|Shape=RoundedRectangle|*
%AMROUNDEDRECTD89*
21,1,1.100,1.150,0,0,180.0*
21,1,0.750,1.500,0,0,180.0*
1,1,0.350,-0.375,0.575*
1,1,0.350,0.375,0.575*
1,1,0.350,0.375,-0.575*
1,1,0.350,-0.375,-0.575*
%
%ADD89ROUNDEDRECTD89*%
G04:AMPARAMS|DCode=90|XSize=1.36mm|YSize=0.68mm|CornerRadius=0.123mm|HoleSize=0mm|Usage=FLASHONLY|Rotation=90.000|XOffset=0mm|YOffset=0mm|HoleType=Round|Shape=RoundedRectangle|*
%AMROUNDEDRECTD90*
21,1,1.360,0.435,0,0,90.0*
21,1,1.115,0.680,0,0,90.0*
1,1,0.245,0.217,0.558*
1,1,0.245,0.217,-0.558*
1,1,0.245,-0.217,-0.558*
1,1,0.245,-0.217,0.558*
%
%ADD90ROUNDEDRECTD90*%
G04:AMPARAMS|DCode=91|XSize=0.78mm|YSize=2.27mm|CornerRadius=0.135mm|HoleSize=0mm|Usage=FLASHONLY|Rotation=0.000|XOffset=0mm|YOffset=0mm|HoleType=Round|Shape=RoundedRectangle|*
%AMROUNDEDRECTD91*
21,1,0.780,2.000,0,0,0.0*
21,1,0.510,2.270,0,0,0.0*
1,1,0.270,0.255,-1.000*
1,1,0.270,-0.255,-1.000*
1,1,0.270,-0.255,1.000*
1,1,0.270,0.255,1.000*
%
%ADD91ROUNDEDRECTD91*%
G04:AMPARAMS|DCode=92|XSize=2.843mm|YSize=2.259mm|CornerRadius=0.32mm|HoleSize=0mm|Usage=FLASHONLY|Rotation=270.000|XOffset=0mm|YOffset=0mm|HoleType=Round|Shape=RoundedRectangle|*
%AMROUNDEDRECTD92*
21,1,2.843,1.619,0,0,270.0*
21,1,2.203,2.259,0,0,270.0*
1,1,0.640,-0.810,-1.102*
1,1,0.640,-0.810,1.102*
1,1,0.640,0.810,1.102*
1,1,0.640,0.810,-1.102*
%
%ADD92ROUNDEDRECTD92*%
G04:AMPARAMS|DCode=93|XSize=2.05mm|YSize=3.5mm|CornerRadius=0.294mm|HoleSize=0mm|Usage=FLASHONLY|Rotation=270.000|XOffset=0mm|YOffset=0mm|HoleType=Round|Shape=RoundedRectangle|*
%AMROUNDEDRECTD93*
21,1,2.050,2.913,0,0,270.0*
21,1,1.463,3.500,0,0,270.0*
1,1,0.588,-1.456,-0.731*
1,1,0.588,-1.456,0.731*
1,1,0.588,1.456,0.731*
1,1,0.588,1.456,-0.731*
%
%ADD93ROUNDEDRECTD93*%
G36*
X-1309Y-9418D02*
X-1182Y-9471D01*
X-1067Y-9548D01*
X-970Y-9645D01*
X-893Y-9759D01*
X-841Y-9887D01*
X-823Y-9973D01*
X-814Y-10090D01*
Y-10090D01*
X-814Y-10090D01*
X-814Y-10090D01*
X-814Y-25903D01*
X-1385Y-26475D01*
X-1492Y-26581D01*
X-1742Y-26749D01*
X-2020Y-26864D01*
X-2316Y-26923D01*
X-2466Y-26923D01*
X-2466Y-26923D01*
X-2466Y-26923D01*
Y-26923D01*
X-9000Y-26923D01*
X-20139Y-26923D01*
X-20204Y-26923D01*
X-20332Y-26897D01*
X-20452Y-26848D01*
X-20560Y-26775D01*
X-20652Y-26683D01*
X-20724Y-26575D01*
X-20774Y-26455D01*
X-20799Y-26328D01*
X-20799Y-26263D01*
X-20799Y-26262D01*
Y-12605D01*
Y-12499D01*
X-20718Y-12304D01*
X-20569Y-12155D01*
X-20374Y-12074D01*
X-20268D01*
X-20268Y-12074D01*
X-18270D01*
X-18162Y-12068D01*
X-17949Y-12026D01*
X-17749Y-11943D01*
X-17570Y-11823D01*
X-17489Y-11750D01*
X-17489D01*
X-15613Y-9875D01*
X-15499Y-9760D01*
X-15228Y-9579D01*
X-14928Y-9455D01*
X-14610Y-9392D01*
X-14447Y-9392D01*
X-14447Y-9392D01*
X-1513Y-9392D01*
X-1444Y-9391D01*
X-1309Y-9418D01*
D02*
G37*
G36*
X-4332Y-27430D02*
X-4332Y-27430D01*
X-4272Y-27430D01*
X-4263Y-27431D01*
X-4258Y-27433D01*
X-4253Y-27434D01*
X-4143Y-27480D01*
X-4139Y-27482D01*
X-4134Y-27484D01*
X-4127Y-27490D01*
X-4042Y-27575D01*
D01*
D01*
X-4042Y-27575D01*
X-4036Y-27582D01*
X-4033Y-27588D01*
X-4031Y-27591D01*
X-3986Y-27701D01*
X-3984Y-27706D01*
X-3983Y-27711D01*
X-3982Y-27721D01*
X-3982Y-27780D01*
Y-27780D01*
Y-27780D01*
X-3982Y-29739D01*
X-3982Y-29739D01*
X-3982Y-29739D01*
X-3982Y-29796D01*
Y-29796D01*
Y-29796D01*
X-3982Y-29798D01*
X-3983Y-29806D01*
X-3983Y-29806D01*
X-4005Y-29919D01*
Y-29919D01*
X-4007Y-29924D01*
X-4008Y-29928D01*
X-4008Y-29928D01*
D01*
X-4052Y-30034D01*
X-4052Y-30034D01*
X-4055Y-30040D01*
X-4057Y-30043D01*
X-4057Y-30043D01*
X-4120Y-30138D01*
X-4127Y-30146D01*
X-4127D01*
Y-30146D01*
X-4167Y-30186D01*
X-4167D01*
Y-30186D01*
X-4697Y-30716D01*
X-4697Y-30716D01*
X-4701Y-30719D01*
X-4704Y-30722D01*
X-4713Y-30727D01*
D01*
X-4713Y-30727D01*
X-4718Y-30728D01*
X-4722Y-30730D01*
X-4732Y-30730D01*
X-4732Y-30730D01*
X-5332Y-30730D01*
X-5342Y-30729D01*
X-5349Y-30727D01*
X-5351Y-30727D01*
X-5360Y-30722D01*
X-5361Y-30721D01*
X-5368Y-30716D01*
X-5368Y-30716D01*
X-5897Y-30186D01*
X-5897Y-30186D01*
X-5938Y-30146D01*
X-5944Y-30138D01*
X-5944Y-30138D01*
X-6008Y-30043D01*
X-6010Y-30039D01*
X-6012Y-30034D01*
X-6056Y-29928D01*
X-6057Y-29924D01*
X-6059Y-29919D01*
X-6081Y-29806D01*
X-6082Y-29798D01*
X-6082Y-29796D01*
X-6082Y-29739D01*
Y-29739D01*
Y-29739D01*
X-6082Y-27780D01*
X-6082Y-27780D01*
X-6082Y-27720D01*
X-6081Y-27711D01*
X-6079Y-27701D01*
X-6033Y-27591D01*
X-6030Y-27586D01*
X-6028Y-27582D01*
X-6022Y-27575D01*
X-5938Y-27490D01*
X-5930Y-27484D01*
X-5921Y-27479D01*
X-5811Y-27434D01*
X-5802Y-27431D01*
X-5792Y-27430D01*
X-5732Y-27430D01*
X-5732D01*
X-5732D01*
X-4332Y-27430D01*
D02*
G37*
G36*
X3424Y-9995D02*
X15507Y-9995D01*
X15507Y-9995D01*
X15507Y-9995D01*
X15642Y-9995D01*
X15907Y-10048D01*
X16156Y-10151D01*
X16381Y-10302D01*
X16477Y-10397D01*
X17170Y-11091D01*
X17170Y-11091D01*
X17170D01*
X17279Y-11189D01*
X17522Y-11352D01*
X17792Y-11464D01*
X18079Y-11521D01*
X18226Y-11528D01*
X21550Y-11528D01*
Y-11528D01*
X21640Y-11528D01*
X21805Y-11597D01*
X21931Y-11723D01*
X22000Y-11888D01*
Y-11978D01*
X22000Y-27289D01*
X22000Y-29517D01*
X22000Y-29517D01*
X22000Y-29603D01*
X21966Y-29772D01*
X21901Y-29930D01*
X21805Y-30073D01*
X21684Y-30195D01*
X21541Y-30290D01*
X21383Y-30356D01*
X21214Y-30389D01*
X18564D01*
X18380Y-30389D01*
X18020Y-30318D01*
X17682Y-30177D01*
X17377Y-29973D01*
X17247Y-29844D01*
X15557Y-28154D01*
X15557Y-28153D01*
X15556Y-28154D01*
X15421Y-28025D01*
X15132Y-27788D01*
X14821Y-27580D01*
X14492Y-27404D01*
X14146Y-27260D01*
X13789Y-27152D01*
X13422Y-27079D01*
X13050Y-27042D01*
X12863Y-27038D01*
X3714Y-27038D01*
X3615Y-27038D01*
X3420Y-26999D01*
X3236Y-26923D01*
X3070Y-26812D01*
X2930Y-26671D01*
X2819Y-26506D01*
X2743Y-26322D01*
X2705Y-26127D01*
X2705Y-26028D01*
X2705Y-10715D01*
X2715Y-10592D01*
X2732Y-10505D01*
X2787Y-10374D01*
X2865Y-10256D01*
X2966Y-10156D01*
X3083Y-10077D01*
X3214Y-10023D01*
X3353Y-9995D01*
X3424Y-9995D01*
D02*
G37*
D18*
X16520Y-31992D02*
D03*
Y-25342D02*
D03*
D24*
X-20799Y6374D02*
D03*
Y4684D02*
D03*
X5426Y6602D02*
D03*
Y4912D02*
D03*
X7676Y6602D02*
D03*
Y4912D02*
D03*
X-12419Y4684D02*
D03*
Y6374D02*
D03*
X-14635Y4684D02*
D03*
Y6374D02*
D03*
D25*
X-14520Y-1100D02*
D03*
X-16210D02*
D03*
X-22402D02*
D03*
X-20712D02*
D03*
X34915Y10660D02*
D03*
X36605D02*
D03*
X15458Y10649D02*
D03*
X17148D02*
D03*
X-4121Y10678D02*
D03*
X-2431D02*
D03*
X-23501D02*
D03*
X-21811D02*
D03*
X-8620Y-29107D02*
D03*
X-10310D02*
D03*
X-8620Y-31521D02*
D03*
X-10310D02*
D03*
X267D02*
D03*
X-1423D02*
D03*
X267Y-29107D02*
D03*
X-1423D02*
D03*
D26*
X-10435Y-5844D02*
D03*
X-8420D02*
D03*
Y-1088D02*
D03*
X-10435D02*
D03*
Y-3491D02*
D03*
X-8420D02*
D03*
X7677Y1129D02*
D03*
X9692D02*
D03*
X7752Y-3716D02*
D03*
X9767D02*
D03*
X7677Y-1275D02*
D03*
X9692D02*
D03*
X-14478Y-3491D02*
D03*
X-16493D02*
D03*
X-22602D02*
D03*
X-20587D02*
D03*
X32976Y10648D02*
D03*
X30961D02*
D03*
X11469D02*
D03*
X13484D02*
D03*
X-8025Y10653D02*
D03*
X-6010D02*
D03*
X-25451D02*
D03*
X-27466D02*
D03*
X1688Y-1250D02*
D03*
X3703D02*
D03*
X-2134D02*
D03*
X-4149D02*
D03*
X-16727Y4824D02*
D03*
X-18742D02*
D03*
Y7125D02*
D03*
X-16727D02*
D03*
X30965Y1337D02*
D03*
X32980D02*
D03*
X14086Y1107D02*
D03*
X12071D02*
D03*
X-8060Y1335D02*
D03*
X-6045D02*
D03*
X-24045Y1265D02*
D03*
X-26060D02*
D03*
D27*
X-14660Y-5720D02*
D03*
Y-7735D02*
D03*
X-24776Y-3333D02*
D03*
Y-5348D02*
D03*
D30*
X33556Y-36186D02*
D03*
Y-32426D02*
D03*
X-33429D02*
D03*
Y-36186D02*
D03*
D32*
X25398Y-45000D02*
D03*
X18198D02*
D03*
X34262Y-8150D02*
D03*
Y-15350D02*
D03*
X35000Y45000D02*
D03*
X-18295Y-45000D02*
D03*
X-25495D02*
D03*
X-34300Y-15600D02*
D03*
Y-8400D02*
D03*
X35000Y-45000D02*
D03*
X-35000D02*
D03*
Y45000D02*
D03*
D33*
X36229Y-32475D02*
D03*
X-36050Y-30475D02*
D03*
X2261Y-46100D02*
D03*
X36229Y-38953D02*
D03*
X8891Y-46100D02*
D03*
X-36050Y-36953D02*
D03*
X-11000Y-46100D02*
D03*
X-4370D02*
D03*
D34*
X36229Y-30475D02*
D03*
X-36050Y-32475D02*
D03*
X36229Y-36953D02*
D03*
X-36050Y-38953D02*
D03*
D35*
X-1800Y-24200D02*
D03*
X-9400D02*
D03*
X11362Y-24200D02*
D03*
X3762D02*
D03*
D36*
X-36400D02*
D03*
X-28800D02*
D03*
X28762Y-24200D02*
D03*
X36362D02*
D03*
D37*
X-26363Y45248D02*
D03*
X-21363D02*
D03*
X-23863D02*
D03*
X-18863D02*
D03*
X26317D02*
D03*
X21317D02*
D03*
X23817D02*
D03*
X18817D02*
D03*
X11357D02*
D03*
X6357D02*
D03*
X8857D02*
D03*
X3857D02*
D03*
X-11303D02*
D03*
X-6303D02*
D03*
X-8803D02*
D03*
X-3803D02*
D03*
D38*
X4261Y-46100D02*
D03*
X10891D02*
D03*
X-9000D02*
D03*
X-2370D02*
D03*
D39*
X-19000Y-8300D02*
D03*
X19000D02*
D03*
D40*
X-14686Y-13797D02*
D03*
X-14630Y-17525D02*
D03*
X-15580D02*
D03*
X-13586Y-15897D02*
D03*
X-16780Y-17525D02*
D03*
X-14686Y-15897D02*
D03*
Y-14797D02*
D03*
X15919Y-13841D02*
D03*
X15819Y-15941D02*
D03*
Y-14941D02*
D03*
D41*
X-13630Y-14613D02*
D03*
X-18980Y-17813D02*
D03*
X-20130D02*
D03*
X-17830D02*
D03*
X-1930Y-10713D02*
D03*
Y-12013D02*
D03*
Y-13313D02*
D03*
Y-14613D02*
D03*
Y-15913D02*
D03*
Y-17213D02*
D03*
Y-18513D02*
D03*
Y-19813D02*
D03*
Y-21113D02*
D03*
X-3230Y-10713D02*
D03*
Y-12013D02*
D03*
Y-13313D02*
D03*
Y-14613D02*
D03*
Y-15913D02*
D03*
Y-17213D02*
D03*
Y-18513D02*
D03*
Y-19813D02*
D03*
Y-21113D02*
D03*
Y-22413D02*
D03*
Y-26313D02*
D03*
X-4530Y-10713D02*
D03*
Y-12013D02*
D03*
Y-13313D02*
D03*
Y-14613D02*
D03*
Y-15913D02*
D03*
Y-17213D02*
D03*
Y-18513D02*
D03*
Y-19813D02*
D03*
Y-21113D02*
D03*
Y-22413D02*
D03*
Y-23713D02*
D03*
Y-25013D02*
D03*
Y-26313D02*
D03*
X-5830Y-10713D02*
D03*
Y-12013D02*
D03*
Y-13313D02*
D03*
Y-14613D02*
D03*
Y-15913D02*
D03*
Y-17213D02*
D03*
Y-18513D02*
D03*
Y-19813D02*
D03*
Y-21113D02*
D03*
Y-22413D02*
D03*
Y-23713D02*
D03*
Y-25013D02*
D03*
Y-26313D02*
D03*
X-7130Y-10713D02*
D03*
Y-12013D02*
D03*
Y-13313D02*
D03*
Y-14613D02*
D03*
Y-15913D02*
D03*
Y-17213D02*
D03*
Y-18513D02*
D03*
Y-19813D02*
D03*
Y-21113D02*
D03*
Y-22413D02*
D03*
Y-23713D02*
D03*
Y-25013D02*
D03*
Y-26313D02*
D03*
X-8430Y-10713D02*
D03*
Y-12013D02*
D03*
Y-13313D02*
D03*
Y-14613D02*
D03*
Y-15913D02*
D03*
Y-17213D02*
D03*
Y-18513D02*
D03*
Y-19813D02*
D03*
Y-21113D02*
D03*
Y-26313D02*
D03*
X-9730Y-12013D02*
D03*
Y-13313D02*
D03*
Y-14613D02*
D03*
Y-15913D02*
D03*
Y-17213D02*
D03*
Y-18513D02*
D03*
Y-19813D02*
D03*
Y-21113D02*
D03*
X-11030Y-13313D02*
D03*
Y-14613D02*
D03*
Y-15913D02*
D03*
Y-17213D02*
D03*
Y-18513D02*
D03*
Y-19813D02*
D03*
Y-21113D02*
D03*
Y-22413D02*
D03*
Y-26313D02*
D03*
X-12655Y-10488D02*
D03*
X-12330Y-14613D02*
D03*
Y-15913D02*
D03*
Y-17213D02*
D03*
Y-18513D02*
D03*
Y-19813D02*
D03*
Y-21113D02*
D03*
Y-22413D02*
D03*
Y-23713D02*
D03*
Y-25013D02*
D03*
Y-26313D02*
D03*
X-13955Y-10488D02*
D03*
Y-11638D02*
D03*
X-13630Y-17213D02*
D03*
Y-18513D02*
D03*
Y-19813D02*
D03*
Y-21113D02*
D03*
Y-22413D02*
D03*
Y-23713D02*
D03*
Y-25013D02*
D03*
Y-26313D02*
D03*
X-15255Y-10488D02*
D03*
Y-11638D02*
D03*
X-14930Y-18513D02*
D03*
Y-19813D02*
D03*
Y-21113D02*
D03*
Y-22413D02*
D03*
Y-23713D02*
D03*
Y-25013D02*
D03*
Y-26313D02*
D03*
X-16230Y-18513D02*
D03*
X-16230Y-19813D02*
D03*
Y-21113D02*
D03*
Y-22413D02*
D03*
Y-23713D02*
D03*
Y-25013D02*
D03*
Y-26313D02*
D03*
X-17530Y-18963D02*
D03*
Y-20263D02*
D03*
Y-21563D02*
D03*
Y-22863D02*
D03*
Y-24163D02*
D03*
Y-25463D02*
D03*
X-18830Y-18963D02*
D03*
Y-20263D02*
D03*
Y-21563D02*
D03*
Y-22863D02*
D03*
Y-24163D02*
D03*
X-20130Y-18963D02*
D03*
Y-20263D02*
D03*
Y-21563D02*
D03*
Y-22863D02*
D03*
X3270Y-10713D02*
D03*
X21395Y-27613D02*
D03*
Y-26313D02*
D03*
Y-25013D02*
D03*
Y-23713D02*
D03*
Y-22413D02*
D03*
Y-21113D02*
D03*
Y-19813D02*
D03*
Y-18513D02*
D03*
X13670Y-14613D02*
D03*
Y-13313D02*
D03*
X20170Y-18513D02*
D03*
Y-19813D02*
D03*
Y-21113D02*
D03*
Y-22413D02*
D03*
Y-23713D02*
D03*
Y-25013D02*
D03*
Y-26313D02*
D03*
Y-27613D02*
D03*
X18870Y-18513D02*
D03*
Y-19813D02*
D03*
Y-21113D02*
D03*
Y-22413D02*
D03*
Y-23713D02*
D03*
Y-25013D02*
D03*
Y-26313D02*
D03*
Y-27613D02*
D03*
X17570Y-18513D02*
D03*
Y-19813D02*
D03*
Y-21113D02*
D03*
Y-22413D02*
D03*
Y-23713D02*
D03*
Y-27613D02*
D03*
Y-28913D02*
D03*
X16270Y-18513D02*
D03*
Y-19813D02*
D03*
Y-21113D02*
D03*
Y-22413D02*
D03*
Y-23713D02*
D03*
Y-27613D02*
D03*
X14970Y-17213D02*
D03*
Y-18513D02*
D03*
Y-19813D02*
D03*
Y-21113D02*
D03*
Y-22413D02*
D03*
Y-23713D02*
D03*
X13670Y-10713D02*
D03*
Y-12013D02*
D03*
Y-15913D02*
D03*
Y-17213D02*
D03*
Y-18513D02*
D03*
Y-19813D02*
D03*
Y-21113D02*
D03*
Y-22413D02*
D03*
Y-23713D02*
D03*
Y-25013D02*
D03*
Y-26313D02*
D03*
X12370Y-10713D02*
D03*
Y-12013D02*
D03*
Y-13313D02*
D03*
Y-14613D02*
D03*
Y-15913D02*
D03*
Y-17213D02*
D03*
Y-18513D02*
D03*
Y-19813D02*
D03*
Y-21113D02*
D03*
Y-26313D02*
D03*
X11070Y-10713D02*
D03*
Y-12013D02*
D03*
Y-13313D02*
D03*
Y-14613D02*
D03*
Y-15913D02*
D03*
Y-17213D02*
D03*
Y-18513D02*
D03*
Y-19813D02*
D03*
Y-21113D02*
D03*
X9770Y-10713D02*
D03*
Y-12013D02*
D03*
Y-13313D02*
D03*
Y-14613D02*
D03*
Y-15913D02*
D03*
Y-17213D02*
D03*
Y-18513D02*
D03*
Y-19813D02*
D03*
Y-21113D02*
D03*
Y-22413D02*
D03*
Y-26313D02*
D03*
X8470Y-10713D02*
D03*
Y-12013D02*
D03*
Y-13313D02*
D03*
Y-14613D02*
D03*
Y-15913D02*
D03*
Y-17213D02*
D03*
Y-18513D02*
D03*
Y-19813D02*
D03*
Y-21113D02*
D03*
Y-22413D02*
D03*
Y-23713D02*
D03*
Y-25013D02*
D03*
Y-26313D02*
D03*
X7170Y-10713D02*
D03*
Y-12013D02*
D03*
Y-13313D02*
D03*
Y-14613D02*
D03*
Y-15913D02*
D03*
Y-17213D02*
D03*
Y-18513D02*
D03*
Y-19813D02*
D03*
Y-21113D02*
D03*
Y-22413D02*
D03*
Y-23713D02*
D03*
Y-25013D02*
D03*
Y-26313D02*
D03*
X5870Y-10713D02*
D03*
Y-12013D02*
D03*
Y-13313D02*
D03*
Y-14613D02*
D03*
Y-15913D02*
D03*
Y-17213D02*
D03*
Y-18513D02*
D03*
Y-19813D02*
D03*
Y-21113D02*
D03*
Y-22413D02*
D03*
Y-26313D02*
D03*
X4570Y-10713D02*
D03*
Y-12013D02*
D03*
Y-13313D02*
D03*
Y-14613D02*
D03*
Y-15913D02*
D03*
Y-17213D02*
D03*
Y-18513D02*
D03*
Y-19813D02*
D03*
Y-21113D02*
D03*
X3270Y-12013D02*
D03*
Y-13313D02*
D03*
Y-14613D02*
D03*
Y-15913D02*
D03*
Y-17213D02*
D03*
Y-18513D02*
D03*
Y-19813D02*
D03*
Y-21113D02*
D03*
D44*
X-20230Y-12738D02*
D03*
X-17805Y-16638D02*
D03*
Y-14038D02*
D03*
Y-12738D02*
D03*
Y-15338D02*
D03*
X-19017D02*
D03*
X-20230Y-14038D02*
D03*
Y-15338D02*
D03*
Y-16638D02*
D03*
X-19017Y-12738D02*
D03*
Y-14038D02*
D03*
Y-16638D02*
D03*
X21395Y-17163D02*
D03*
Y-15863D02*
D03*
Y-12088D02*
D03*
Y-13263D02*
D03*
Y-14563D02*
D03*
X20145Y-12088D02*
D03*
X18895D02*
D03*
Y-17163D02*
D03*
X20145D02*
D03*
X18895Y-15863D02*
D03*
Y-13263D02*
D03*
Y-14563D02*
D03*
X20145Y-13263D02*
D03*
Y-14563D02*
D03*
Y-15863D02*
D03*
D86*
X-3532Y-31480D02*
D03*
X-5032D02*
D03*
X-6532D02*
D03*
D87*
X-5032Y-28759D02*
D03*
D88*
X-17204Y768D02*
D03*
X-19804D02*
D03*
Y2718D02*
D03*
Y1418D02*
D03*
X-17204D02*
D03*
Y2068D02*
D03*
Y2718D02*
D03*
X-19804Y2068D02*
D03*
D89*
X-3119Y-5648D02*
D03*
X-2169Y-3448D02*
D03*
X-4069Y-3448D02*
D03*
X1768D02*
D03*
X3668Y-3448D02*
D03*
X2718Y-5648D02*
D03*
D90*
X-6525Y-47360D02*
D03*
Y-45300D02*
D03*
X74D02*
D03*
Y-47360D02*
D03*
D91*
X-4327Y6652D02*
D03*
X-3057D02*
D03*
X-1787D02*
D03*
X-517D02*
D03*
X753D02*
D03*
X2023D02*
D03*
X3293D02*
D03*
X-4327Y1802D02*
D03*
X-3057D02*
D03*
X-1787D02*
D03*
X-517D02*
D03*
X753D02*
D03*
X2023D02*
D03*
X3293D02*
D03*
D92*
X-24493Y41922D02*
D03*
X-20733D02*
D03*
X24190D02*
D03*
X20430D02*
D03*
X9130D02*
D03*
X5370D02*
D03*
X-5673D02*
D03*
X-9433D02*
D03*
D93*
X-29700Y-39728D02*
D03*
Y-35528D02*
D03*
X29862D02*
D03*
Y-39728D02*
D03*
M02*
