G04*
G04 #@! TF.GenerationSoftware,Altium Limited,Altium Designer,23.3.1 (30)*
G04*
G04 Layer_Color=16711935*
%FSLAX43Y43*%
%MOMM*%
G71*
G04*
G04 #@! TF.SameCoordinates,78DDFD1D-995E-4759-9E5F-92B015DE0EB1*
G04*
G04*
G04 #@! TF.FilePolarity,Negative*
G04*
G01*
G75*
G04:AMPARAMS|DCode=17|XSize=3.24mm|YSize=1.64mm|CornerRadius=0.242mm|HoleSize=0mm|Usage=FLASHONLY|Rotation=0.000|XOffset=0mm|YOffset=0mm|HoleType=Round|Shape=RoundedRectangle|*
%AMROUNDEDRECTD17*
21,1,3.240,1.155,0,0,0.0*
21,1,2.755,1.640,0,0,0.0*
1,1,0.485,1.378,-0.578*
1,1,0.485,-1.378,-0.578*
1,1,0.485,-1.378,0.578*
1,1,0.485,1.378,0.578*
%
%ADD17ROUNDEDRECTD17*%
G04:AMPARAMS|DCode=25|XSize=1.31mm|YSize=1.56mm|CornerRadius=0.201mm|HoleSize=0mm|Usage=FLASHONLY|Rotation=90.000|XOffset=0mm|YOffset=0mm|HoleType=Round|Shape=RoundedRectangle|*
%AMROUNDEDRECTD25*
21,1,1.310,1.158,0,0,90.0*
21,1,0.907,1.560,0,0,90.0*
1,1,0.403,0.579,0.454*
1,1,0.403,0.579,-0.454*
1,1,0.403,-0.579,-0.454*
1,1,0.403,-0.579,0.454*
%
%ADD25ROUNDEDRECTD25*%
G04:AMPARAMS|DCode=26|XSize=1.31mm|YSize=1.56mm|CornerRadius=0.201mm|HoleSize=0mm|Usage=FLASHONLY|Rotation=180.000|XOffset=0mm|YOffset=0mm|HoleType=Round|Shape=RoundedRectangle|*
%AMROUNDEDRECTD26*
21,1,1.310,1.158,0,0,180.0*
21,1,0.907,1.560,0,0,180.0*
1,1,0.403,-0.454,0.579*
1,1,0.403,0.454,0.579*
1,1,0.403,0.454,-0.579*
1,1,0.403,-0.454,-0.579*
%
%ADD26ROUNDEDRECTD26*%
G04:AMPARAMS|DCode=27|XSize=1.63mm|YSize=1.12mm|CornerRadius=0.178mm|HoleSize=0mm|Usage=FLASHONLY|Rotation=270.000|XOffset=0mm|YOffset=0mm|HoleType=Round|Shape=RoundedRectangle|*
%AMROUNDEDRECTD27*
21,1,1.630,0.765,0,0,270.0*
21,1,1.275,1.120,0,0,270.0*
1,1,0.355,-0.383,-0.638*
1,1,0.355,-0.383,0.638*
1,1,0.355,0.383,0.638*
1,1,0.355,0.383,-0.638*
%
%ADD27ROUNDEDRECTD27*%
G04:AMPARAMS|DCode=28|XSize=1.63mm|YSize=1.12mm|CornerRadius=0.178mm|HoleSize=0mm|Usage=FLASHONLY|Rotation=0.000|XOffset=0mm|YOffset=0mm|HoleType=Round|Shape=RoundedRectangle|*
%AMROUNDEDRECTD28*
21,1,1.630,0.765,0,0,0.0*
21,1,1.275,1.120,0,0,0.0*
1,1,0.355,0.638,-0.383*
1,1,0.355,-0.638,-0.383*
1,1,0.355,-0.638,0.383*
1,1,0.355,0.638,0.383*
%
%ADD28ROUNDEDRECTD28*%
G04:AMPARAMS|DCode=31|XSize=1.84mm|YSize=2.27mm|CornerRadius=0.268mm|HoleSize=0mm|Usage=FLASHONLY|Rotation=0.000|XOffset=0mm|YOffset=0mm|HoleType=Round|Shape=RoundedRectangle|*
%AMROUNDEDRECTD31*
21,1,1.840,1.735,0,0,0.0*
21,1,1.305,2.270,0,0,0.0*
1,1,0.535,0.653,-0.868*
1,1,0.535,-0.653,-0.868*
1,1,0.535,-0.653,0.868*
1,1,0.535,0.653,0.868*
%
%ADD31ROUNDEDRECTD31*%
%ADD33C,6.600*%
%ADD34R,1.300X1.300*%
%ADD35C,1.300*%
%ADD36C,3.600*%
%ADD37C,3.300*%
%ADD38C,2.100*%
%ADD39R,1.300X1.300*%
%ADD40C,4.100*%
%ADD41C,3.700*%
%ADD42C,1.050*%
%ADD43C,1.100*%
G04:AMPARAMS|DCode=88|XSize=2.1mm|YSize=2.6mm|CornerRadius=0.3mm|HoleSize=0mm|Usage=FLASHONLY|Rotation=180.000|XOffset=0mm|YOffset=0mm|HoleType=Round|Shape=RoundedRectangle|*
%AMROUNDEDRECTD88*
21,1,2.100,2.000,0,0,180.0*
21,1,1.500,2.600,0,0,180.0*
1,1,0.600,-0.750,1.000*
1,1,0.600,0.750,1.000*
1,1,0.600,0.750,-1.000*
1,1,0.600,-0.750,-1.000*
%
%ADD88ROUNDEDRECTD88*%
G04:AMPARAMS|DCode=89|XSize=0.8mm|YSize=1.97mm|CornerRadius=0.138mm|HoleSize=0mm|Usage=FLASHONLY|Rotation=180.000|XOffset=0mm|YOffset=0mm|HoleType=Round|Shape=RoundedRectangle|*
%AMROUNDEDRECTD89*
21,1,0.800,1.695,0,0,180.0*
21,1,0.525,1.970,0,0,180.0*
1,1,0.275,-0.263,0.848*
1,1,0.275,0.263,0.848*
1,1,0.275,0.263,-0.848*
1,1,0.275,-0.263,-0.848*
%
%ADD89ROUNDEDRECTD89*%
G04:AMPARAMS|DCode=90|XSize=0.5mm|YSize=1.2mm|CornerRadius=0.1mm|HoleSize=0mm|Usage=FLASHONLY|Rotation=90.000|XOffset=0mm|YOffset=0mm|HoleType=Round|Shape=RoundedRectangle|*
%AMROUNDEDRECTD90*
21,1,0.500,1.000,0,0,90.0*
21,1,0.300,1.200,0,0,90.0*
1,1,0.200,0.500,0.150*
1,1,0.200,0.500,-0.150*
1,1,0.200,-0.500,-0.150*
1,1,0.200,-0.500,0.150*
%
%ADD90ROUNDEDRECTD90*%
G04:AMPARAMS|DCode=91|XSize=1.1mm|YSize=1.5mm|CornerRadius=0.175mm|HoleSize=0mm|Usage=FLASHONLY|Rotation=180.000|XOffset=0mm|YOffset=0mm|HoleType=Round|Shape=RoundedRectangle|*
%AMROUNDEDRECTD91*
21,1,1.100,1.150,0,0,180.0*
21,1,0.750,1.500,0,0,180.0*
1,1,0.350,-0.375,0.575*
1,1,0.350,0.375,0.575*
1,1,0.350,0.375,-0.575*
1,1,0.350,-0.375,-0.575*
%
%ADD91ROUNDEDRECTD91*%
G04:AMPARAMS|DCode=92|XSize=1.36mm|YSize=0.68mm|CornerRadius=0.123mm|HoleSize=0mm|Usage=FLASHONLY|Rotation=90.000|XOffset=0mm|YOffset=0mm|HoleType=Round|Shape=RoundedRectangle|*
%AMROUNDEDRECTD92*
21,1,1.360,0.435,0,0,90.0*
21,1,1.115,0.680,0,0,90.0*
1,1,0.245,0.217,0.558*
1,1,0.245,0.217,-0.558*
1,1,0.245,-0.217,-0.558*
1,1,0.245,-0.217,0.558*
%
%ADD92ROUNDEDRECTD92*%
G04:AMPARAMS|DCode=93|XSize=0.78mm|YSize=2.27mm|CornerRadius=0.135mm|HoleSize=0mm|Usage=FLASHONLY|Rotation=0.000|XOffset=0mm|YOffset=0mm|HoleType=Round|Shape=RoundedRectangle|*
%AMROUNDEDRECTD93*
21,1,0.780,2.000,0,0,0.0*
21,1,0.510,2.270,0,0,0.0*
1,1,0.270,0.255,-1.000*
1,1,0.270,-0.255,-1.000*
1,1,0.270,-0.255,1.000*
1,1,0.270,0.255,1.000*
%
%ADD93ROUNDEDRECTD93*%
G04:AMPARAMS|DCode=94|XSize=2.843mm|YSize=2.259mm|CornerRadius=0.32mm|HoleSize=0mm|Usage=FLASHONLY|Rotation=270.000|XOffset=0mm|YOffset=0mm|HoleType=Round|Shape=RoundedRectangle|*
%AMROUNDEDRECTD94*
21,1,2.843,1.619,0,0,270.0*
21,1,2.203,2.259,0,0,270.0*
1,1,0.640,-0.810,-1.102*
1,1,0.640,-0.810,1.102*
1,1,0.640,0.810,1.102*
1,1,0.640,0.810,-1.102*
%
%ADD94ROUNDEDRECTD94*%
G04:AMPARAMS|DCode=95|XSize=2.05mm|YSize=3.5mm|CornerRadius=0.294mm|HoleSize=0mm|Usage=FLASHONLY|Rotation=270.000|XOffset=0mm|YOffset=0mm|HoleType=Round|Shape=RoundedRectangle|*
%AMROUNDEDRECTD95*
21,1,2.050,2.913,0,0,270.0*
21,1,1.463,3.500,0,0,270.0*
1,1,0.588,-1.456,-0.731*
1,1,0.588,-1.456,0.731*
1,1,0.588,1.456,0.731*
1,1,0.588,1.456,-0.731*
%
%ADD95ROUNDEDRECTD95*%
G36*
X-4332Y-27430D02*
X-4332Y-27430D01*
X-4272Y-27430D01*
X-4263Y-27431D01*
X-4258Y-27433D01*
X-4253Y-27434D01*
X-4143Y-27480D01*
X-4139Y-27482D01*
X-4134Y-27484D01*
X-4127Y-27490D01*
X-4042Y-27575D01*
D01*
D01*
X-4042Y-27575D01*
X-4036Y-27582D01*
X-4033Y-27588D01*
X-4031Y-27591D01*
X-3986Y-27701D01*
X-3984Y-27706D01*
X-3983Y-27711D01*
X-3982Y-27721D01*
X-3982Y-27780D01*
Y-27780D01*
Y-27780D01*
X-3982Y-29739D01*
X-3982Y-29739D01*
X-3982Y-29739D01*
X-3982Y-29796D01*
Y-29796D01*
Y-29796D01*
X-3982Y-29798D01*
X-3983Y-29806D01*
X-3983Y-29806D01*
X-4005Y-29919D01*
Y-29919D01*
X-4007Y-29924D01*
X-4008Y-29928D01*
X-4008Y-29928D01*
D01*
X-4052Y-30034D01*
X-4052Y-30034D01*
X-4055Y-30040D01*
X-4057Y-30043D01*
X-4057Y-30043D01*
X-4120Y-30138D01*
X-4127Y-30146D01*
X-4127D01*
Y-30146D01*
X-4167Y-30186D01*
X-4167D01*
Y-30186D01*
X-4697Y-30716D01*
X-4697Y-30716D01*
X-4701Y-30719D01*
X-4704Y-30722D01*
X-4713Y-30727D01*
D01*
X-4713Y-30727D01*
X-4718Y-30728D01*
X-4722Y-30730D01*
X-4732Y-30730D01*
X-4732Y-30730D01*
X-5332Y-30730D01*
X-5342Y-30729D01*
X-5349Y-30727D01*
X-5351Y-30727D01*
X-5360Y-30722D01*
X-5361Y-30721D01*
X-5368Y-30716D01*
X-5368Y-30716D01*
X-5897Y-30186D01*
X-5897Y-30186D01*
X-5938Y-30146D01*
X-5944Y-30138D01*
X-5944Y-30138D01*
X-6008Y-30043D01*
X-6010Y-30039D01*
X-6012Y-30034D01*
X-6056Y-29928D01*
X-6057Y-29924D01*
X-6059Y-29919D01*
X-6081Y-29806D01*
X-6082Y-29798D01*
X-6082Y-29796D01*
X-6082Y-29739D01*
Y-29739D01*
Y-29739D01*
X-6082Y-27780D01*
X-6082Y-27780D01*
X-6082Y-27720D01*
X-6081Y-27711D01*
X-6079Y-27701D01*
X-6033Y-27591D01*
X-6030Y-27586D01*
X-6028Y-27582D01*
X-6022Y-27575D01*
X-5938Y-27490D01*
X-5930Y-27484D01*
X-5921Y-27479D01*
X-5811Y-27434D01*
X-5802Y-27431D01*
X-5792Y-27430D01*
X-5732Y-27430D01*
X-5732D01*
X-5732D01*
X-4332Y-27430D01*
D02*
G37*
D17*
X16520Y-25342D02*
D03*
Y-31992D02*
D03*
D25*
X-20799Y4684D02*
D03*
Y6374D02*
D03*
X5426Y4912D02*
D03*
Y6602D02*
D03*
X7676Y4912D02*
D03*
Y6602D02*
D03*
X-12419Y6374D02*
D03*
Y4684D02*
D03*
X-14635Y6374D02*
D03*
Y4684D02*
D03*
D26*
X-16210Y-1100D02*
D03*
X-14520D02*
D03*
X-20712D02*
D03*
X-22402D02*
D03*
X36605Y10660D02*
D03*
X34915D02*
D03*
X17148Y10649D02*
D03*
X15458D02*
D03*
X-2431Y10678D02*
D03*
X-4121D02*
D03*
X-21811D02*
D03*
X-23501D02*
D03*
X-10310Y-29107D02*
D03*
X-8620D02*
D03*
X-10310Y-31521D02*
D03*
X-8620D02*
D03*
X-1423D02*
D03*
X267D02*
D03*
X-1423Y-29107D02*
D03*
X267D02*
D03*
D27*
X-8420Y-5844D02*
D03*
X-10435D02*
D03*
Y-1088D02*
D03*
X-8420D02*
D03*
Y-3491D02*
D03*
X-10435D02*
D03*
X9692Y1129D02*
D03*
X7677D02*
D03*
X9767Y-3716D02*
D03*
X7752D02*
D03*
X9692Y-1275D02*
D03*
X7677D02*
D03*
X-16493Y-3491D02*
D03*
X-14478D02*
D03*
X-20587D02*
D03*
X-22602D02*
D03*
X30961Y10648D02*
D03*
X32976D02*
D03*
X13484D02*
D03*
X11469D02*
D03*
X-6010Y10653D02*
D03*
X-8025D02*
D03*
X-27466D02*
D03*
X-25451D02*
D03*
X3703Y-1250D02*
D03*
X1688D02*
D03*
X-4149D02*
D03*
X-2134D02*
D03*
X-18742Y4824D02*
D03*
X-16727D02*
D03*
Y7125D02*
D03*
X-18742D02*
D03*
X32980Y1337D02*
D03*
X30965D02*
D03*
X12071Y1107D02*
D03*
X14086D02*
D03*
X-6045Y1335D02*
D03*
X-8060D02*
D03*
X-26060Y1265D02*
D03*
X-24045D02*
D03*
D28*
X-14660Y-7735D02*
D03*
Y-5720D02*
D03*
X-24776Y-5348D02*
D03*
Y-3333D02*
D03*
D31*
X33556Y-32426D02*
D03*
Y-36186D02*
D03*
X-33429D02*
D03*
Y-32426D02*
D03*
D33*
X25398Y-45000D02*
D03*
X18198D02*
D03*
X34262Y-8150D02*
D03*
Y-15350D02*
D03*
X-35000Y-45000D02*
D03*
X-18295Y-45000D02*
D03*
X-25495D02*
D03*
X-34300Y-8400D02*
D03*
Y-15600D02*
D03*
X35000Y-45000D02*
D03*
D34*
X36229Y-30475D02*
D03*
X-36050Y-32475D02*
D03*
X36229Y-36953D02*
D03*
X-36050Y-38953D02*
D03*
D35*
X36229Y-32475D02*
D03*
X-36050Y-30475D02*
D03*
X2261Y-46100D02*
D03*
X36229Y-38953D02*
D03*
X8891Y-46100D02*
D03*
X-36050Y-36953D02*
D03*
X-11000Y-46100D02*
D03*
X-4370D02*
D03*
D36*
X-28800Y-24200D02*
D03*
X-36400D02*
D03*
X28762Y-24200D02*
D03*
X36362D02*
D03*
D37*
X-9400D02*
D03*
X-1800D02*
D03*
X11362Y-24200D02*
D03*
X3762D02*
D03*
D38*
X-18863Y45248D02*
D03*
X-23863D02*
D03*
X-21363D02*
D03*
X-26363D02*
D03*
X18817D02*
D03*
X23817D02*
D03*
X21317D02*
D03*
X26317D02*
D03*
X3857D02*
D03*
X8857D02*
D03*
X6357D02*
D03*
X11357D02*
D03*
X-3803D02*
D03*
X-8803D02*
D03*
X-6303D02*
D03*
X-11303D02*
D03*
D39*
X4261Y-46100D02*
D03*
X10891D02*
D03*
X-9000D02*
D03*
X-2370D02*
D03*
D40*
X-19000Y-8300D02*
D03*
X19000D02*
D03*
D41*
X-35000Y45000D02*
D03*
X35000Y45000D02*
D03*
D42*
X-20230Y-12738D02*
D03*
X-17805Y-16638D02*
D03*
Y-14038D02*
D03*
Y-12738D02*
D03*
Y-15338D02*
D03*
X-19017D02*
D03*
X-20230Y-14038D02*
D03*
Y-15338D02*
D03*
Y-16638D02*
D03*
X-19017Y-12738D02*
D03*
Y-14038D02*
D03*
Y-16638D02*
D03*
D43*
X21470Y-16988D02*
D03*
Y-15688D02*
D03*
Y-13088D02*
D03*
Y-14388D02*
D03*
X18970Y-16988D02*
D03*
X20220D02*
D03*
X18970Y-15688D02*
D03*
Y-13088D02*
D03*
Y-14388D02*
D03*
X20220Y-13088D02*
D03*
Y-14388D02*
D03*
Y-15688D02*
D03*
D88*
X-5032Y-28759D02*
D03*
D89*
X-6532Y-31480D02*
D03*
X-5032D02*
D03*
X-3532D02*
D03*
D90*
X-19804Y2068D02*
D03*
X-17204Y2718D02*
D03*
Y2068D02*
D03*
Y1418D02*
D03*
X-19804D02*
D03*
Y2718D02*
D03*
Y768D02*
D03*
X-17204D02*
D03*
D91*
X-4069Y-3448D02*
D03*
X-2169Y-3448D02*
D03*
X-3119Y-5648D02*
D03*
X2718D02*
D03*
X3668Y-3448D02*
D03*
X1768Y-3448D02*
D03*
D92*
X-6525Y-45300D02*
D03*
Y-47360D02*
D03*
X74D02*
D03*
Y-45300D02*
D03*
D93*
X3293Y1802D02*
D03*
X2023D02*
D03*
X753D02*
D03*
X-517D02*
D03*
X-1787D02*
D03*
X-3057D02*
D03*
X-4327D02*
D03*
X3293Y6652D02*
D03*
X2023D02*
D03*
X753D02*
D03*
X-517D02*
D03*
X-1787D02*
D03*
X-3057D02*
D03*
X-4327D02*
D03*
D94*
X-20733Y41922D02*
D03*
X-24493D02*
D03*
X20430D02*
D03*
X24190D02*
D03*
X5370D02*
D03*
X9130D02*
D03*
X-9433D02*
D03*
X-5673D02*
D03*
D95*
X-29700Y-35528D02*
D03*
Y-39728D02*
D03*
X29862D02*
D03*
Y-35528D02*
D03*
M02*
