G04*
G04 #@! TF.GenerationSoftware,Altium Limited,Altium Designer,23.3.1 (30)*
G04*
G04 Layer_Physical_Order=4*
G04 Layer_Color=16711680*
%FSLAX43Y43*%
%MOMM*%
G71*
G04*
G04 #@! TF.SameCoordinates,24EB4D33-B09A-4438-942F-29D14A2A9395*
G04*
G04*
G04 #@! TF.FilePolarity,Positive*
G04*
G01*
G75*
%ADD10C,0.200*%
%ADD13C,0.400*%
%ADD40C,0.900*%
%ADD41C,1.200*%
%ADD43C,1.000*%
%ADD45C,0.750*%
%ADD46C,0.500*%
%ADD47C,0.300*%
G04:AMPARAMS|DCode=52|XSize=3.14mm|YSize=1.54mm|CornerRadius=0.193mm|HoleSize=0mm|Usage=FLASHONLY|Rotation=0.000|XOffset=0mm|YOffset=0mm|HoleType=Round|Shape=RoundedRectangle|*
%AMROUNDEDRECTD52*
21,1,3.140,1.155,0,0,0.0*
21,1,2.755,1.540,0,0,0.0*
1,1,0.385,1.378,-0.578*
1,1,0.385,-1.378,-0.578*
1,1,0.385,-1.378,0.578*
1,1,0.385,1.378,0.578*
%
%ADD52ROUNDEDRECTD52*%
G04:AMPARAMS|DCode=58|XSize=1.21mm|YSize=1.46mm|CornerRadius=0.151mm|HoleSize=0mm|Usage=FLASHONLY|Rotation=90.000|XOffset=0mm|YOffset=0mm|HoleType=Round|Shape=RoundedRectangle|*
%AMROUNDEDRECTD58*
21,1,1.210,1.158,0,0,90.0*
21,1,0.907,1.460,0,0,90.0*
1,1,0.303,0.579,0.454*
1,1,0.303,0.579,-0.454*
1,1,0.303,-0.579,-0.454*
1,1,0.303,-0.579,0.454*
%
%ADD58ROUNDEDRECTD58*%
G04:AMPARAMS|DCode=59|XSize=1.21mm|YSize=1.46mm|CornerRadius=0.151mm|HoleSize=0mm|Usage=FLASHONLY|Rotation=180.000|XOffset=0mm|YOffset=0mm|HoleType=Round|Shape=RoundedRectangle|*
%AMROUNDEDRECTD59*
21,1,1.210,1.158,0,0,180.0*
21,1,0.907,1.460,0,0,180.0*
1,1,0.303,-0.454,0.579*
1,1,0.303,0.454,0.579*
1,1,0.303,0.454,-0.579*
1,1,0.303,-0.454,-0.579*
%
%ADD59ROUNDEDRECTD59*%
G04:AMPARAMS|DCode=60|XSize=1.53mm|YSize=1.02mm|CornerRadius=0.127mm|HoleSize=0mm|Usage=FLASHONLY|Rotation=270.000|XOffset=0mm|YOffset=0mm|HoleType=Round|Shape=RoundedRectangle|*
%AMROUNDEDRECTD60*
21,1,1.530,0.765,0,0,270.0*
21,1,1.275,1.020,0,0,270.0*
1,1,0.255,-0.383,-0.638*
1,1,0.255,-0.383,0.638*
1,1,0.255,0.383,0.638*
1,1,0.255,0.383,-0.638*
%
%ADD60ROUNDEDRECTD60*%
G04:AMPARAMS|DCode=61|XSize=1.53mm|YSize=1.02mm|CornerRadius=0.127mm|HoleSize=0mm|Usage=FLASHONLY|Rotation=0.000|XOffset=0mm|YOffset=0mm|HoleType=Round|Shape=RoundedRectangle|*
%AMROUNDEDRECTD61*
21,1,1.530,0.765,0,0,0.0*
21,1,1.275,1.020,0,0,0.0*
1,1,0.255,0.638,-0.383*
1,1,0.255,-0.638,-0.383*
1,1,0.255,-0.638,0.383*
1,1,0.255,0.638,0.383*
%
%ADD61ROUNDEDRECTD61*%
G04:AMPARAMS|DCode=64|XSize=1.74mm|YSize=2.17mm|CornerRadius=0.217mm|HoleSize=0mm|Usage=FLASHONLY|Rotation=0.000|XOffset=0mm|YOffset=0mm|HoleType=Round|Shape=RoundedRectangle|*
%AMROUNDEDRECTD64*
21,1,1.740,1.735,0,0,0.0*
21,1,1.305,2.170,0,0,0.0*
1,1,0.435,0.653,-0.868*
1,1,0.435,-0.653,-0.868*
1,1,0.435,-0.653,0.868*
1,1,0.435,0.653,0.868*
%
%ADD64ROUNDEDRECTD64*%
%ADD67C,6.500*%
%ADD68R,1.200X1.200*%
%ADD69C,3.200*%
%ADD70C,3.500*%
%ADD71C,2.000*%
%ADD72R,1.200X1.200*%
%ADD73C,4.000*%
%ADD74C,0.700*%
%ADD75C,0.600*%
%ADD76C,0.800*%
G04:AMPARAMS|DCode=77|XSize=0.7mm|YSize=1.87mm|CornerRadius=0.088mm|HoleSize=0mm|Usage=FLASHONLY|Rotation=180.000|XOffset=0mm|YOffset=0mm|HoleType=Round|Shape=RoundedRectangle|*
%AMROUNDEDRECTD77*
21,1,0.700,1.695,0,0,180.0*
21,1,0.525,1.870,0,0,180.0*
1,1,0.175,-0.263,0.848*
1,1,0.175,0.263,0.848*
1,1,0.175,0.263,-0.848*
1,1,0.175,-0.263,-0.848*
%
%ADD77ROUNDEDRECTD77*%
G04:AMPARAMS|DCode=78|XSize=2mm|YSize=2.5mm|CornerRadius=0.25mm|HoleSize=0mm|Usage=FLASHONLY|Rotation=180.000|XOffset=0mm|YOffset=0mm|HoleType=Round|Shape=RoundedRectangle|*
%AMROUNDEDRECTD78*
21,1,2.000,2.000,0,0,180.0*
21,1,1.500,2.500,0,0,180.0*
1,1,0.500,-0.750,1.000*
1,1,0.500,0.750,1.000*
1,1,0.500,0.750,-1.000*
1,1,0.500,-0.750,-1.000*
%
%ADD78ROUNDEDRECTD78*%
G04:AMPARAMS|DCode=79|XSize=0.4mm|YSize=1.1mm|CornerRadius=0.05mm|HoleSize=0mm|Usage=FLASHONLY|Rotation=90.000|XOffset=0mm|YOffset=0mm|HoleType=Round|Shape=RoundedRectangle|*
%AMROUNDEDRECTD79*
21,1,0.400,1.000,0,0,90.0*
21,1,0.300,1.100,0,0,90.0*
1,1,0.100,0.500,0.150*
1,1,0.100,0.500,-0.150*
1,1,0.100,-0.500,-0.150*
1,1,0.100,-0.500,0.150*
%
%ADD79ROUNDEDRECTD79*%
G04:AMPARAMS|DCode=80|XSize=1mm|YSize=1.4mm|CornerRadius=0.125mm|HoleSize=0mm|Usage=FLASHONLY|Rotation=180.000|XOffset=0mm|YOffset=0mm|HoleType=Round|Shape=RoundedRectangle|*
%AMROUNDEDRECTD80*
21,1,1.000,1.150,0,0,180.0*
21,1,0.750,1.400,0,0,180.0*
1,1,0.250,-0.375,0.575*
1,1,0.250,0.375,0.575*
1,1,0.250,0.375,-0.575*
1,1,0.250,-0.375,-0.575*
%
%ADD80ROUNDEDRECTD80*%
G04:AMPARAMS|DCode=81|XSize=1.26mm|YSize=0.58mm|CornerRadius=0.072mm|HoleSize=0mm|Usage=FLASHONLY|Rotation=90.000|XOffset=0mm|YOffset=0mm|HoleType=Round|Shape=RoundedRectangle|*
%AMROUNDEDRECTD81*
21,1,1.260,0.435,0,0,90.0*
21,1,1.115,0.580,0,0,90.0*
1,1,0.145,0.217,0.558*
1,1,0.145,0.217,-0.558*
1,1,0.145,-0.217,-0.558*
1,1,0.145,-0.217,0.558*
%
%ADD81ROUNDEDRECTD81*%
G04:AMPARAMS|DCode=82|XSize=0.68mm|YSize=2.17mm|CornerRadius=0.085mm|HoleSize=0mm|Usage=FLASHONLY|Rotation=0.000|XOffset=0mm|YOffset=0mm|HoleType=Round|Shape=RoundedRectangle|*
%AMROUNDEDRECTD82*
21,1,0.680,2.000,0,0,0.0*
21,1,0.510,2.170,0,0,0.0*
1,1,0.170,0.255,-1.000*
1,1,0.170,-0.255,-1.000*
1,1,0.170,-0.255,1.000*
1,1,0.170,0.255,1.000*
%
%ADD82ROUNDEDRECTD82*%
G04:AMPARAMS|DCode=83|XSize=2.743mm|YSize=2.159mm|CornerRadius=0.27mm|HoleSize=0mm|Usage=FLASHONLY|Rotation=270.000|XOffset=0mm|YOffset=0mm|HoleType=Round|Shape=RoundedRectangle|*
%AMROUNDEDRECTD83*
21,1,2.743,1.619,0,0,270.0*
21,1,2.203,2.159,0,0,270.0*
1,1,0.540,-0.810,-1.102*
1,1,0.540,-0.810,1.102*
1,1,0.540,0.810,1.102*
1,1,0.540,0.810,-1.102*
%
%ADD83ROUNDEDRECTD83*%
G04:AMPARAMS|DCode=84|XSize=1.95mm|YSize=3.4mm|CornerRadius=0.244mm|HoleSize=0mm|Usage=FLASHONLY|Rotation=270.000|XOffset=0mm|YOffset=0mm|HoleType=Round|Shape=RoundedRectangle|*
%AMROUNDEDRECTD84*
21,1,1.950,2.913,0,0,270.0*
21,1,1.463,3.400,0,0,270.0*
1,1,0.488,-1.456,-0.731*
1,1,0.488,-1.456,0.731*
1,1,0.488,1.456,0.731*
1,1,0.488,1.456,-0.731*
%
%ADD84ROUNDEDRECTD84*%
%ADD85C,0.700*%
G36*
X-19364Y8065D02*
X-19368Y8006D01*
X-19442Y7894D01*
X-19468Y7762D01*
Y7296D01*
X-19536Y7245D01*
X-19931Y7117D01*
X-20064Y7205D01*
X-20221Y7236D01*
X-20499D01*
Y6374D01*
X-20799D01*
Y6074D01*
X-21787D01*
Y5920D01*
X-21762Y5796D01*
X-21756Y5763D01*
X-21695Y5572D01*
X-21716Y5303D01*
X-21725Y5242D01*
X-21746Y5137D01*
Y4230D01*
X-21718Y4089D01*
X-21638Y3969D01*
X-21519Y3889D01*
X-21378Y3861D01*
X-21079D01*
Y3037D01*
X-21075Y3019D01*
X-21054Y2859D01*
X-20986Y2694D01*
X-20877Y2552D01*
X-20734Y2443D01*
X-20569Y2333D01*
X-20569Y2218D01*
Y1918D01*
X-20549Y1817D01*
X-20500Y1743D01*
X-20549Y1670D01*
X-20569Y1568D01*
Y1268D01*
X-20938Y1084D01*
X-22342D01*
Y7955D01*
X-21833Y8464D01*
X-19727D01*
X-19364Y8065D01*
D02*
G37*
G36*
X-833Y488D02*
X-809Y367D01*
X-740Y265D01*
X-351Y-124D01*
Y-4104D01*
X-2033Y-5785D01*
X-2403Y-5632D01*
Y-5073D01*
X-2429Y-4943D01*
X-2503Y-4832D01*
X-2542Y-4806D01*
X-2496Y-4460D01*
X-2475Y-4406D01*
X-2469D01*
Y-3748D01*
X-2926D01*
Y-4023D01*
X-2897Y-4170D01*
X-2814Y-4294D01*
X-2757Y-4332D01*
X-2789Y-4640D01*
X-2824Y-4732D01*
X-3494D01*
X-3569Y-4340D01*
X-3563Y-4339D01*
X-3453Y-4265D01*
X-3379Y-4154D01*
X-3353Y-4023D01*
Y-2873D01*
X-3379Y-2743D01*
X-3453Y-2632D01*
X-3530Y-2580D01*
X-3561Y-2469D01*
X-3562Y-2468D01*
X-3555Y-2152D01*
X-3523Y-2131D01*
X-3449Y-2019D01*
X-3423Y-1887D01*
Y-612D01*
X-3168Y-434D01*
X-3162Y-438D01*
X-2902Y-763D01*
Y-950D01*
X-2134D01*
X-1367D01*
Y-612D01*
X-1396Y-465D01*
X-1479Y-340D01*
X-1530Y-307D01*
X-1616Y10D01*
X-1623Y155D01*
X-1563Y214D01*
X-1495Y317D01*
X-1489Y345D01*
X-1183Y529D01*
X-1089Y559D01*
X-833Y488D01*
D02*
G37*
G36*
X35084Y49700D02*
X35390Y49700D01*
X35997Y49620D01*
X36589Y49462D01*
X37154Y49227D01*
X37684Y48921D01*
X38170Y48549D01*
X38603Y48116D01*
X38975Y47630D01*
X39281Y47100D01*
X39516Y46535D01*
X39674Y45943D01*
X39745Y45401D01*
X39754Y45031D01*
Y45030D01*
X39754D01*
X39754Y45030D01*
X39754Y-44928D01*
X39754Y-45240D01*
X39673Y-45858D01*
X39511Y-46460D01*
X39273Y-47036D01*
X38961Y-47576D01*
X38582Y-48070D01*
X38141Y-48511D01*
X37646Y-48891D01*
X37106Y-49202D01*
X36530Y-49441D01*
X35928Y-49602D01*
X35310Y-49684D01*
X34999Y-49684D01*
X5348D01*
X5260Y-49610D01*
X5074Y-49284D01*
X5091Y-49219D01*
Y-49009D01*
X5036Y-48805D01*
X4931Y-48623D01*
X4822Y-48513D01*
Y-47100D01*
X5261D01*
Y-45100D01*
X3261D01*
Y-45120D01*
X2926Y-45276D01*
X2861Y-45292D01*
X2647Y-45168D01*
X2393Y-45100D01*
X2129D01*
X1875Y-45168D01*
X1647Y-45300D01*
X1461Y-45486D01*
X1329Y-45714D01*
X1261Y-45968D01*
Y-46232D01*
X1329Y-46486D01*
X1461Y-46714D01*
X1647Y-46900D01*
X1875Y-47032D01*
X2129Y-47100D01*
X2393D01*
X2647Y-47032D01*
X2861Y-46908D01*
X2926Y-46924D01*
X3261Y-47080D01*
Y-47100D01*
X3700D01*
Y-48573D01*
X3651Y-48623D01*
X3546Y-48805D01*
X3491Y-49009D01*
Y-49219D01*
X3508Y-49284D01*
X3322Y-49610D01*
X3234Y-49684D01*
X-35052D01*
X-35360Y-49684D01*
X-35970Y-49603D01*
X-36564Y-49444D01*
X-37133Y-49209D01*
X-37666Y-48901D01*
X-38154Y-48526D01*
X-38589Y-48091D01*
X-38964Y-47603D01*
X-39272Y-47070D01*
X-39507Y-46501D01*
X-39666Y-45907D01*
X-39747Y-45296D01*
X-39747Y-44989D01*
Y-41400D01*
Y-31366D01*
X-39347Y-31201D01*
X-38347Y-32200D01*
X-38244Y-32269D01*
X-38124Y-32293D01*
X-37050D01*
Y-33475D01*
X-35221D01*
Y-34495D01*
X-35197Y-34615D01*
X-35129Y-34718D01*
X-34517Y-35329D01*
Y-37053D01*
X-34484Y-37220D01*
X-34390Y-37362D01*
X-34248Y-37456D01*
X-34082Y-37489D01*
X-32777D01*
X-32610Y-37456D01*
X-32468Y-37362D01*
X-32374Y-37220D01*
X-32341Y-37053D01*
Y-36105D01*
X-31619D01*
Y-36260D01*
X-31584Y-36437D01*
X-31483Y-36587D01*
X-31333Y-36687D01*
X-31156Y-36722D01*
X-28244D01*
X-28067Y-36687D01*
X-27917Y-36587D01*
X-27816Y-36437D01*
X-27781Y-36260D01*
Y-34797D01*
X-27816Y-34620D01*
X-27917Y-34470D01*
X-28067Y-34370D01*
X-28244Y-34335D01*
X-31156D01*
X-31333Y-34370D01*
X-31483Y-34470D01*
X-31584Y-34620D01*
X-31619Y-34797D01*
Y-35473D01*
X-32341D01*
Y-35318D01*
X-32374Y-35152D01*
X-32468Y-35010D01*
X-32610Y-34916D01*
X-32777Y-34882D01*
X-34070D01*
X-34574Y-34378D01*
X-34562Y-33975D01*
X-34458Y-33891D01*
X-34189Y-33749D01*
X-34082Y-33770D01*
X-33729D01*
Y-32426D01*
Y-31082D01*
X-34082D01*
X-34264Y-31118D01*
X-34419Y-31221D01*
X-34438Y-31250D01*
X-34829Y-31342D01*
X-34921Y-31332D01*
X-35035Y-31218D01*
X-35138Y-31149D01*
X-35235Y-30775D01*
X-36050D01*
X-36888D01*
X-36983Y-30967D01*
X-37118Y-31125D01*
X-37803D01*
X-38572Y-30355D01*
Y-25539D01*
X-38172Y-25417D01*
X-38070Y-25571D01*
X-37771Y-25870D01*
X-37418Y-26105D01*
X-37027Y-26267D01*
X-36612Y-26350D01*
X-36188D01*
X-35773Y-26267D01*
X-35382Y-26105D01*
X-35029Y-25870D01*
X-34730Y-25571D01*
X-34495Y-25218D01*
X-34333Y-24827D01*
X-34250Y-24412D01*
Y-23988D01*
X-34333Y-23573D01*
X-34495Y-23182D01*
X-34730Y-22829D01*
X-35029Y-22530D01*
X-35382Y-22295D01*
X-35773Y-22133D01*
X-36188Y-22050D01*
X-36612D01*
X-37027Y-22133D01*
X-37418Y-22295D01*
X-37771Y-22530D01*
X-38070Y-22829D01*
X-38172Y-22983D01*
X-38572Y-22861D01*
Y-5938D01*
X-36571Y-3937D01*
X-30427D01*
X-29461Y-4904D01*
X-29461Y-4905D01*
Y-5128D01*
X-29376Y-5334D01*
X-29218Y-5491D01*
X-29013Y-5576D01*
X-28790D01*
X-28584Y-5491D01*
X-28426Y-5334D01*
X-28341Y-5128D01*
Y-4905D01*
X-28426Y-4699D01*
X-28584Y-4542D01*
X-28790Y-4456D01*
X-29013D01*
X-29014Y-4457D01*
X-29684Y-3787D01*
X-29531Y-3417D01*
X-26528D01*
X-26407Y-3393D01*
X-26304Y-3325D01*
X-26157Y-3178D01*
X-25757Y-3344D01*
Y-3716D01*
X-25731Y-3848D01*
X-25657Y-3959D01*
X-25545Y-4034D01*
X-25413Y-4060D01*
X-24138D01*
X-24007Y-4034D01*
X-23895Y-3959D01*
X-23820Y-3848D01*
X-23794Y-3716D01*
Y-3624D01*
X-23328D01*
Y-4128D01*
X-23302Y-4260D01*
X-23227Y-4372D01*
X-23116Y-4446D01*
X-22984Y-4472D01*
X-22882D01*
Y-4491D01*
X-22857Y-4612D01*
X-22789Y-4714D01*
X-22506Y-4997D01*
X-22404Y-5066D01*
X-22283Y-5090D01*
X-20136D01*
X-20056Y-5490D01*
X-20330Y-5603D01*
X-20671Y-5800D01*
X-20982Y-6039D01*
X-21260Y-6316D01*
X-21500Y-6628D01*
X-21571Y-6752D01*
X-22006Y-6746D01*
X-22164Y-6589D01*
X-22165Y-6588D01*
Y-6259D01*
X-22189Y-6138D01*
X-22257Y-6035D01*
X-23193Y-5100D01*
X-23296Y-5031D01*
X-23417Y-5007D01*
X-23794D01*
Y-4966D01*
X-23820Y-4834D01*
X-23895Y-4723D01*
X-24007Y-4648D01*
X-24138Y-4622D01*
X-25413D01*
X-25545Y-4648D01*
X-25657Y-4723D01*
X-25731Y-4834D01*
X-25757Y-4966D01*
Y-5731D01*
X-25731Y-5863D01*
X-25657Y-5974D01*
X-25545Y-6049D01*
X-25413Y-6075D01*
X-24138D01*
X-24007Y-6049D01*
X-23895Y-5974D01*
X-23842Y-5895D01*
X-23753Y-5849D01*
X-23408Y-5779D01*
X-22960Y-6227D01*
X-22798Y-6589D01*
X-22956Y-6746D01*
X-23041Y-6952D01*
Y-7175D01*
X-22956Y-7381D01*
X-22798Y-7538D01*
X-22592Y-7623D01*
X-22370D01*
X-22335Y-7609D01*
X-22281Y-7623D01*
X-21969Y-7866D01*
X-22000Y-8100D01*
X-22000Y-8297D01*
X-22001Y-8493D01*
X-21950Y-8883D01*
X-21848Y-9264D01*
X-21698Y-9627D01*
X-21501Y-9968D01*
X-21262Y-10280D01*
X-20984Y-10559D01*
X-20763Y-10729D01*
X-20681Y-11151D01*
X-20681Y-11187D01*
X-20767Y-11393D01*
Y-11616D01*
X-20686Y-11811D01*
X-20694Y-11816D01*
X-20793Y-11915D01*
X-20804Y-11932D01*
X-20819Y-11947D01*
X-20897Y-12063D01*
X-20905Y-12083D01*
X-20917Y-12100D01*
X-20970Y-12229D01*
X-20974Y-12250D01*
X-20982Y-12269D01*
X-21009Y-12406D01*
Y-12427D01*
X-21013Y-12448D01*
Y-12517D01*
Y-26262D01*
X-21013Y-26262D01*
Y-26327D01*
X-21009Y-26348D01*
Y-26369D01*
X-20984Y-26497D01*
X-20976Y-26516D01*
X-20972Y-26537D01*
X-20922Y-26657D01*
X-20910Y-26675D01*
X-20902Y-26694D01*
X-20830Y-26802D01*
X-20815Y-26817D01*
X-20803Y-26835D01*
X-20711Y-26927D01*
X-20694Y-26938D01*
X-20679Y-26953D01*
X-20571Y-27026D01*
X-20551Y-27034D01*
X-20534Y-27045D01*
X-20413Y-27095D01*
X-20393Y-27099D01*
X-20379Y-27105D01*
X-20366Y-27138D01*
X-20311Y-27353D01*
X-20301Y-27509D01*
X-20304Y-27524D01*
X-20433Y-27653D01*
X-20518Y-27859D01*
X-20555Y-28098D01*
X-20794Y-28203D01*
X-21000Y-28288D01*
X-21158Y-28445D01*
X-21243Y-28651D01*
Y-28874D01*
X-21158Y-29080D01*
X-21000Y-29237D01*
X-20794Y-29323D01*
X-20571D01*
X-20366Y-29237D01*
X-20208Y-29080D01*
X-20123Y-28874D01*
X-20086Y-28635D01*
X-19846Y-28530D01*
X-19641Y-28445D01*
X-19483Y-28287D01*
X-19398Y-28081D01*
Y-27859D01*
X-19483Y-27653D01*
X-19599Y-27537D01*
X-19570Y-27342D01*
X-19476Y-27137D01*
X-9217Y-27137D01*
Y-28043D01*
X-9423Y-28158D01*
X-9554Y-28197D01*
X-9700Y-28150D01*
X-9733Y-28144D01*
X-9857Y-28119D01*
X-10010D01*
Y-29107D01*
Y-30095D01*
X-9857D01*
X-9827Y-30089D01*
X-9531Y-30286D01*
X-9510Y-30314D01*
X-9531Y-30343D01*
X-9827Y-30539D01*
X-9857Y-30533D01*
X-10010D01*
Y-31521D01*
Y-32509D01*
X-9857D01*
X-9733Y-32485D01*
X-9700Y-32478D01*
X-9509Y-32417D01*
X-9240Y-32438D01*
X-9179Y-32448D01*
X-9074Y-32468D01*
X-8167D01*
X-8026Y-32440D01*
X-7906Y-32361D01*
X-7826Y-32241D01*
X-7802Y-32118D01*
X-7098D01*
Y-32328D01*
X-7075Y-32444D01*
X-7009Y-32542D01*
X-6911Y-32608D01*
X-6795Y-32631D01*
X-6270D01*
X-6154Y-32608D01*
X-6055Y-32542D01*
X-6016Y-32483D01*
X-6016Y-32483D01*
X-5989Y-32444D01*
X-5966Y-32328D01*
Y-31550D01*
X-5961Y-31521D01*
X-5966Y-31493D01*
Y-31480D01*
X-4099D01*
X-4103Y-31501D01*
X-4098Y-31527D01*
Y-32328D01*
X-4075Y-32444D01*
X-4032Y-32508D01*
Y-32730D01*
X-4008Y-32747D01*
X-4007Y-32950D01*
X-4016Y-32982D01*
X-4092Y-33166D01*
Y-33389D01*
X-4007Y-33595D01*
X-3849Y-33752D01*
X-3644Y-33837D01*
X-3421D01*
X-3215Y-33752D01*
X-3057Y-33595D01*
X-2972Y-33389D01*
Y-33166D01*
X-3048Y-32982D01*
X-3057Y-32950D01*
X-3055Y-32542D01*
X-2989Y-32444D01*
X-2966Y-32328D01*
Y-32072D01*
X-2245D01*
Y-32100D01*
X-2217Y-32241D01*
X-2137Y-32361D01*
X-2018Y-32440D01*
X-1877Y-32468D01*
X-969D01*
X-865Y-32448D01*
X-803Y-32438D01*
X-535Y-32417D01*
X-344Y-32478D01*
X-311Y-32485D01*
X-187Y-32509D01*
X-33D01*
Y-31521D01*
Y-30533D01*
X-187D01*
X-311Y-30558D01*
X-344Y-30565D01*
X-502Y-30615D01*
X-619Y-30546D01*
X-620Y-30083D01*
X-502Y-30013D01*
X-344Y-30064D01*
X-187Y-30095D01*
X-33D01*
Y-29107D01*
X267D01*
Y-28807D01*
X1130D01*
Y-28528D01*
X1099Y-28372D01*
X1010Y-28239D01*
X1220Y-27898D01*
X1326Y-27793D01*
X1428Y-27641D01*
X1463Y-27461D01*
Y-27306D01*
X1471Y-27302D01*
X1603Y-27170D01*
X1696Y-27008D01*
X1745Y-26827D01*
Y-26640D01*
X1696Y-26460D01*
X1603Y-26298D01*
X1471Y-26166D01*
X1309Y-26072D01*
X1128Y-26024D01*
X941D01*
X761Y-26072D01*
X599Y-26166D01*
X467Y-26298D01*
X373Y-26460D01*
X325Y-26640D01*
Y-26827D01*
X340Y-26885D01*
X170Y-27195D01*
X71Y-27285D01*
X-571D01*
X-751Y-27321D01*
X-903Y-27422D01*
X-1400Y-27920D01*
X-1502Y-28072D01*
X-1519Y-28160D01*
X-1877D01*
X-2018Y-28188D01*
X-2137Y-28268D01*
X-2217Y-28387D01*
X-2245Y-28528D01*
Y-29686D01*
X-2217Y-29827D01*
X-2137Y-29946D01*
X-2018Y-30026D01*
X-1994Y-30031D01*
Y-30598D01*
X-2018Y-30602D01*
X-2137Y-30682D01*
X-2217Y-30802D01*
X-2243Y-30930D01*
X-2966D01*
Y-30633D01*
X-2989Y-30517D01*
X-3055Y-30418D01*
X-3154Y-30352D01*
X-3270Y-30329D01*
X-3581D01*
X-3811Y-29955D01*
X-3772Y-29759D01*
X-4032D01*
X-4032Y-29796D01*
X-4055Y-29909D01*
X-4098Y-30015D01*
X-4162Y-30110D01*
X-4203Y-30151D01*
X-4732Y-30680D01*
X-5332Y-30680D01*
X-5861Y-30151D01*
X-5861Y-30151D01*
X-5902Y-30110D01*
X-5966Y-30015D01*
X-6010Y-29909D01*
X-6032Y-29796D01*
X-6032Y-29759D01*
X-6292D01*
X-6253Y-29955D01*
X-6484Y-30329D01*
X-6795D01*
X-6911Y-30352D01*
X-7009Y-30418D01*
X-7075Y-30517D01*
X-7098Y-30633D01*
Y-30925D01*
X-7802D01*
X-7826Y-30802D01*
X-7906Y-30682D01*
X-8026Y-30602D01*
X-8065Y-30594D01*
Y-30034D01*
X-8026Y-30026D01*
X-7906Y-29946D01*
X-7826Y-29827D01*
X-7798Y-29686D01*
Y-28528D01*
X-7826Y-28387D01*
X-7906Y-28268D01*
X-8024Y-28189D01*
Y-27137D01*
X-6416D01*
X-6235Y-27537D01*
X-6253Y-27564D01*
X-6292Y-27759D01*
Y-27759D01*
X-6032D01*
X-6032Y-27720D01*
X-5986Y-27610D01*
X-5902Y-27526D01*
X-5792Y-27480D01*
X-5732Y-27480D01*
X-4332Y-27480D01*
X-4332Y-27480D01*
X-4272Y-27480D01*
X-4162Y-27526D01*
X-4078Y-27610D01*
X-4032Y-27721D01*
X-4032Y-27759D01*
X-3772D01*
Y-27759D01*
X-3811Y-27564D01*
X-3830Y-27537D01*
X-3649Y-27137D01*
X-2466D01*
X-2316Y-27137D01*
X-2295Y-27133D01*
X-2274Y-27133D01*
X-1979Y-27074D01*
X-1959Y-27066D01*
X-1938Y-27062D01*
X-1660Y-26947D01*
X-1643Y-26935D01*
X-1623Y-26927D01*
X-1373Y-26759D01*
X-1358Y-26745D01*
X-1340Y-26733D01*
X-1234Y-26626D01*
X-1234Y-26626D01*
X-662Y-26055D01*
X-616Y-25985D01*
X-600Y-25903D01*
Y-25803D01*
X-525Y-25753D01*
X-247Y-25475D01*
X-28Y-25147D01*
X123Y-24783D01*
X200Y-24397D01*
Y-24003D01*
X123Y-23617D01*
X-28Y-23253D01*
X-247Y-22925D01*
X-525Y-22646D01*
X-600Y-22597D01*
X-600Y-10090D01*
X-600Y-10090D01*
Y-10090D01*
X-601Y-10082D01*
X-600Y-10073D01*
X-610Y-9955D01*
X-613Y-9943D01*
Y-9931D01*
X-631Y-9845D01*
X-639Y-9825D01*
X-643Y-9805D01*
X-695Y-9677D01*
X-707Y-9660D01*
X-715Y-9640D01*
X-792Y-9526D01*
X-807Y-9511D01*
X-818Y-9493D01*
X-916Y-9396D01*
X-933Y-9384D01*
X-948Y-9370D01*
X-1063Y-9293D01*
X-1082Y-9285D01*
X-1100Y-9273D01*
X-1227Y-9221D01*
X-1248Y-9216D01*
X-1267Y-9208D01*
X-1402Y-9182D01*
X-1423D01*
X-1444Y-9177D01*
X-1513Y-9177D01*
X-3316Y-9177D01*
X-3469Y-8808D01*
X717Y-4622D01*
X785Y-4519D01*
X1164Y-4401D01*
X1452Y-4583D01*
Y-5276D01*
X270Y-6458D01*
X201Y-6561D01*
X177Y-6682D01*
Y-7779D01*
X176Y-7779D01*
X18Y-7937D01*
X-67Y-8143D01*
Y-8365D01*
X18Y-8571D01*
X176Y-8729D01*
X382Y-8814D01*
X604D01*
X810Y-8729D01*
X968Y-8571D01*
X1053Y-8365D01*
Y-8159D01*
X1114Y-8103D01*
X1330Y-7963D01*
X1399Y-7932D01*
X1592Y-8012D01*
X1815D01*
X2021Y-7927D01*
X2178Y-7769D01*
X2264Y-7564D01*
Y-7341D01*
X2178Y-7135D01*
X2232Y-6665D01*
X2343Y-6565D01*
X3093D01*
X3224Y-6539D01*
X3335Y-6465D01*
X3409Y-6354D01*
X3435Y-6223D01*
Y-5073D01*
X3409Y-4943D01*
X3335Y-4832D01*
X3297Y-4799D01*
X3341Y-4460D01*
X3362Y-4406D01*
X3368D01*
Y-3748D01*
X2911D01*
Y-4023D01*
X2940Y-4170D01*
X3023Y-4294D01*
X3023Y-4294D01*
X3080Y-4336D01*
X3048Y-4640D01*
X3013Y-4732D01*
X2902Y-4732D01*
X2343D01*
X2268Y-4340D01*
X2274Y-4339D01*
X2385Y-4265D01*
X2459Y-4154D01*
X2485Y-4023D01*
Y-2873D01*
X2459Y-2743D01*
X2385Y-2632D01*
X2307Y-2580D01*
X2276Y-2469D01*
X2276Y-2468D01*
X2283Y-2152D01*
X2314Y-2131D01*
X2389Y-2019D01*
X2415Y-1887D01*
Y-612D01*
X2389Y-481D01*
X2314Y-369D01*
X2313Y-368D01*
Y508D01*
X2393Y524D01*
X2415Y539D01*
X2533Y589D01*
X2783D01*
X2902Y539D01*
X2923Y524D01*
X3038Y501D01*
X3548D01*
X3663Y524D01*
X3761Y589D01*
X3826Y687D01*
X3849Y802D01*
Y2438D01*
X4249Y2604D01*
X5948Y905D01*
X6050Y837D01*
X6171Y813D01*
X6951D01*
Y491D01*
X6977Y360D01*
X7051Y248D01*
X7163Y173D01*
X7295Y147D01*
Y-253D01*
X7147Y-282D01*
X7023Y-365D01*
X6939Y-490D01*
X6910Y-637D01*
Y-975D01*
X7677D01*
X8445D01*
Y-637D01*
X8415Y-490D01*
X8332Y-365D01*
X8207Y-282D01*
X8060Y-253D01*
Y147D01*
X8191Y173D01*
X8303Y248D01*
X8378Y360D01*
X8404Y491D01*
Y1766D01*
X8378Y1898D01*
X8303Y2010D01*
X8191Y2084D01*
X8060Y2110D01*
X7295D01*
X7163Y2084D01*
X7051Y2010D01*
X6977Y1898D01*
X6951Y1766D01*
Y1445D01*
X6302D01*
X3808Y3939D01*
X3706Y4007D01*
X3585Y4031D01*
X-2669D01*
X-2790Y4007D01*
X-2892Y3939D01*
X-3280Y3551D01*
X-3349Y3448D01*
X-3369Y3343D01*
X-3389Y3317D01*
X-3764Y3071D01*
X-3928Y3109D01*
X-3941Y3118D01*
X-4027Y3135D01*
Y1802D01*
X-4627D01*
Y3135D01*
X-4712Y3118D01*
X-4823Y3044D01*
X-4897Y2933D01*
X-4923Y2802D01*
Y2273D01*
X-5323Y2124D01*
X-5480Y2305D01*
Y2706D01*
X-5372Y2813D01*
X-5287Y3019D01*
Y3242D01*
X-5372Y3448D01*
X-5529Y3605D01*
X-5735Y3690D01*
X-5958D01*
X-6164Y3605D01*
X-6321Y3448D01*
X-6407Y3242D01*
Y3019D01*
X-6321Y2813D01*
X-6224Y2716D01*
X-6240Y2316D01*
X-6427D01*
X-6559Y2290D01*
X-6670Y2216D01*
X-6745Y2104D01*
X-6771Y1972D01*
Y697D01*
X-6745Y566D01*
X-6670Y454D01*
X-6559Y379D01*
X-6427Y353D01*
X-5662D01*
X-5530Y379D01*
X-5419Y454D01*
X-5344Y566D01*
X-5318Y697D01*
Y789D01*
X-4923Y802D01*
X-4897Y671D01*
X-4823Y561D01*
X-4712Y486D01*
X-4644Y473D01*
X-4572Y400D01*
X-4525Y318D01*
X-4451Y129D01*
X-4532Y-268D01*
X-4663Y-295D01*
X-4775Y-369D01*
X-4850Y-481D01*
X-4876Y-612D01*
Y-1887D01*
X-4850Y-2019D01*
X-4775Y-2131D01*
X-4688Y-2189D01*
X-4663Y-2271D01*
X-4659Y-2614D01*
X-4686Y-2632D01*
X-4760Y-2743D01*
X-4786Y-2873D01*
Y-3107D01*
X-4945D01*
X-5066Y-3131D01*
X-5168Y-3200D01*
X-5463Y-3495D01*
X-5531Y-3597D01*
X-5555Y-3718D01*
Y-6083D01*
X-6096Y-6624D01*
X-6517Y-6556D01*
X-6651Y-6377D01*
Y-1409D01*
X-6675Y-1288D01*
X-6744Y-1186D01*
X-7065Y-864D01*
X-7168Y-796D01*
X-7289Y-772D01*
X-7693D01*
Y-450D01*
X-7720Y-319D01*
X-7794Y-207D01*
X-7906Y-132D01*
X-8037Y-106D01*
X-8802D01*
X-8934Y-132D01*
X-9046Y-207D01*
X-9120Y-319D01*
X-9147Y-450D01*
Y-1725D01*
X-9120Y-1857D01*
X-9046Y-1969D01*
X-8934Y-2043D01*
X-8802Y-2069D01*
X-8037D01*
X-7906Y-2043D01*
X-7794Y-1969D01*
X-7396Y-1917D01*
X-7326Y-1930D01*
X-7283Y-1959D01*
Y-5964D01*
X-7293Y-5971D01*
X-7693Y-5757D01*
Y-5206D01*
X-7720Y-5075D01*
X-7794Y-4963D01*
X-7906Y-4888D01*
X-8037Y-4862D01*
Y-4472D01*
X-7906Y-4446D01*
X-7794Y-4372D01*
X-7720Y-4260D01*
X-7693Y-4128D01*
Y-2853D01*
X-7720Y-2722D01*
X-7794Y-2610D01*
X-7906Y-2535D01*
X-8037Y-2509D01*
X-8802D01*
X-8934Y-2535D01*
X-9046Y-2610D01*
X-9120Y-2722D01*
X-9147Y-2853D01*
Y-4128D01*
X-9120Y-4260D01*
X-9073Y-4331D01*
X-9055Y-4436D01*
X-9107Y-4789D01*
X-9202Y-4834D01*
X-9343Y-4717D01*
X-9628Y-4433D01*
X-9730Y-4365D01*
X-9730Y-4365D01*
X-9713Y-4300D01*
X-9697Y-4276D01*
X-9668Y-4128D01*
Y-3791D01*
X-10435D01*
X-11202D01*
Y-4128D01*
X-11304Y-4365D01*
X-11407Y-4433D01*
X-13364Y-6391D01*
X-13366Y-6390D01*
X-13679Y-6102D01*
Y-5337D01*
X-13705Y-5205D01*
X-13779Y-5094D01*
X-13891Y-5019D01*
X-14023Y-4993D01*
X-15298D01*
X-15429Y-5019D01*
X-15464Y-5042D01*
X-15892Y-4954D01*
X-15961Y-4845D01*
X-15979Y-4446D01*
X-15867Y-4372D01*
X-15792Y-4260D01*
X-15766Y-4128D01*
Y-2853D01*
X-15792Y-2722D01*
X-15867Y-2610D01*
X-15979Y-2535D01*
X-16110Y-2509D01*
X-16126D01*
Y-2047D01*
X-15757D01*
X-15652Y-2026D01*
X-15590Y-2017D01*
X-15322Y-1996D01*
X-15131Y-2057D01*
X-15098Y-2063D01*
X-14974Y-2088D01*
X-14820D01*
Y-1100D01*
Y-59D01*
X-14892Y39D01*
X-14971Y288D01*
X-14952Y317D01*
X-14928Y438D01*
Y1696D01*
X-14952Y1817D01*
X-15020Y1920D01*
X-15392Y2292D01*
X-15495Y2360D01*
X-15616Y2384D01*
X-16070D01*
X-16439Y2568D01*
Y2868D01*
X-16459Y2970D01*
X-16517Y3056D01*
X-16538Y3183D01*
X-16441Y3309D01*
X-16413Y3377D01*
X-16397Y3401D01*
X-16391Y3429D01*
X-16302Y3644D01*
X-16274Y3856D01*
X-16213Y3868D01*
X-16101Y3943D01*
X-16026Y4054D01*
X-16000Y4186D01*
Y4334D01*
X-15582D01*
Y4230D01*
X-15554Y4089D01*
X-15474Y3969D01*
X-15355Y3889D01*
X-15214Y3861D01*
X-14057D01*
X-13916Y3889D01*
X-13796Y3969D01*
X-13739Y4055D01*
X-13527Y4075D01*
X-13315Y4055D01*
X-13258Y3969D01*
X-13138Y3889D01*
X-12998Y3861D01*
X-12888D01*
Y2749D01*
X-12852Y2570D01*
X-12750Y2417D01*
X-10904Y571D01*
Y-123D01*
X-10949Y-132D01*
X-11061Y-207D01*
X-11135Y-319D01*
X-11162Y-450D01*
Y-661D01*
X-11402D01*
X-11582Y-696D01*
X-11734Y-798D01*
X-13443Y-2508D01*
X-13852Y-2610D01*
X-13964Y-2535D01*
X-14095Y-2509D01*
X-14860D01*
X-14992Y-2535D01*
X-15104Y-2610D01*
X-15178Y-2722D01*
X-15204Y-2853D01*
Y-4128D01*
X-15178Y-4260D01*
X-15104Y-4372D01*
X-14992Y-4446D01*
X-14860Y-4472D01*
X-14095D01*
X-13964Y-4446D01*
X-13852Y-4372D01*
X-13777Y-4260D01*
X-13751Y-4128D01*
Y-3707D01*
X-13511D01*
X-13331Y-3672D01*
X-13179Y-3570D01*
X-11530Y-1921D01*
X-11438Y-1906D01*
X-11061Y-1969D01*
X-10949Y-2043D01*
X-10817Y-2069D01*
Y-2468D01*
X-10965Y-2498D01*
X-11090Y-2581D01*
X-11173Y-2706D01*
X-11202Y-2853D01*
Y-3191D01*
X-10435D01*
X-9668D01*
Y-2853D01*
X-9697Y-2706D01*
X-9780Y-2581D01*
X-9905Y-2498D01*
X-10052Y-2468D01*
Y-2069D01*
X-9921Y-2043D01*
X-9809Y-1969D01*
X-9735Y-1857D01*
X-9708Y-1725D01*
Y-450D01*
X-9735Y-319D01*
X-9809Y-207D01*
X-9921Y-132D01*
X-9966Y-123D01*
Y765D01*
X-10002Y945D01*
X-10103Y1097D01*
X-11950Y2943D01*
Y3861D01*
X-11840D01*
X-11699Y3889D01*
X-11580Y3969D01*
X-11500Y4089D01*
X-11472Y4230D01*
Y4512D01*
X4479D01*
Y4458D01*
X4507Y4317D01*
X4587Y4198D01*
X4706Y4118D01*
X4847Y4090D01*
X6005D01*
X6146Y4118D01*
X6265Y4198D01*
X6345Y4317D01*
X6347Y4328D01*
X6755D01*
X6757Y4317D01*
X6837Y4198D01*
X6956Y4118D01*
X7097Y4090D01*
X8255D01*
X8396Y4118D01*
X8515Y4198D01*
X8595Y4317D01*
X8620Y4443D01*
X9035D01*
X10430Y3048D01*
Y2416D01*
X10380Y2341D01*
X10075Y2110D01*
X9310D01*
X9178Y2084D01*
X9066Y2010D01*
X8992Y1898D01*
X8966Y1766D01*
Y491D01*
X8992Y360D01*
X9066Y248D01*
X9178Y173D01*
X9310Y147D01*
X9376D01*
Y-293D01*
X9310D01*
X9178Y-320D01*
X9066Y-394D01*
X8992Y-506D01*
X8966Y-637D01*
Y-1727D01*
X8718Y-1875D01*
X8445Y-1713D01*
Y-1575D01*
X7677D01*
X6910D01*
Y-1912D01*
X6939Y-2060D01*
X6929Y-2263D01*
X6620Y-2571D01*
X6551Y-2674D01*
X6527Y-2795D01*
Y-4501D01*
X6551Y-4622D01*
X6620Y-4725D01*
X10286Y-8391D01*
X10389Y-8459D01*
X10510Y-8483D01*
X11272D01*
X11338Y-8525D01*
X11414Y-8629D01*
X11210Y-9029D01*
X2853D01*
X2673Y-9065D01*
X2521Y-9167D01*
X1498Y-10190D01*
X1396Y-10342D01*
X1360Y-10522D01*
Y-10677D01*
X1353Y-10682D01*
X1221Y-10814D01*
X1128Y-10976D01*
X1079Y-11156D01*
Y-11343D01*
X1128Y-11524D01*
X1221Y-11686D01*
X1353Y-11818D01*
X1515Y-11911D01*
X1696Y-11960D01*
X1883D01*
X2063Y-11911D01*
X2091Y-11895D01*
X2445Y-12058D01*
X2491Y-12108D01*
X2491Y-22644D01*
X2487Y-22646D01*
X2208Y-22925D01*
X1989Y-23253D01*
X1838Y-23617D01*
X1762Y-24003D01*
Y-24397D01*
X1838Y-24783D01*
X1989Y-25147D01*
X2208Y-25475D01*
X2487Y-25753D01*
X2491Y-25756D01*
Y-26028D01*
X2491Y-26127D01*
X2495Y-26148D01*
X2495Y-26169D01*
X2533Y-26364D01*
X2541Y-26383D01*
X2546Y-26404D01*
X2622Y-26588D01*
X2633Y-26605D01*
X2641Y-26625D01*
X2752Y-26790D01*
X2767Y-26805D01*
X2778Y-26823D01*
X2919Y-26964D01*
X2937Y-26975D01*
X2951Y-26990D01*
X3117Y-27101D01*
X3136Y-27109D01*
X3154Y-27121D01*
X3338Y-27197D01*
X3358Y-27201D01*
X3378Y-27209D01*
X3573Y-27248D01*
X3594Y-27248D01*
X3615Y-27252D01*
X3714Y-27252D01*
X12860Y-27252D01*
X13037Y-27256D01*
X13390Y-27291D01*
X13736Y-27360D01*
X14074Y-27462D01*
X14400Y-27597D01*
X14711Y-27764D01*
X15004Y-27960D01*
X15279Y-28186D01*
X15408Y-28309D01*
X15411Y-28310D01*
X17096Y-29995D01*
X17225Y-30125D01*
X17243Y-30137D01*
X17258Y-30151D01*
X17563Y-30355D01*
X17582Y-30363D01*
X17600Y-30375D01*
X17939Y-30515D01*
X17959Y-30520D01*
X17979Y-30528D01*
X18338Y-30599D01*
X18360D01*
X18380Y-30603D01*
X18564Y-30603D01*
X21214Y-30603D01*
X21235Y-30599D01*
X21256D01*
X21424Y-30566D01*
X21444Y-30558D01*
X21465Y-30553D01*
X21623Y-30488D01*
X21641Y-30476D01*
X21660Y-30468D01*
X21803Y-30373D01*
X21818Y-30358D01*
X21835Y-30346D01*
X21957Y-30225D01*
X21969Y-30207D01*
X21983Y-30192D01*
X22079Y-30049D01*
X22087Y-30030D01*
X22099Y-30012D01*
X22164Y-29854D01*
X22168Y-29833D01*
X22176Y-29814D01*
X22210Y-29645D01*
Y-29624D01*
X22214Y-29603D01*
X22214Y-29518D01*
X22214Y-29517D01*
X22214Y-27289D01*
X22214Y-11961D01*
X22214Y-11853D01*
X22198Y-11771D01*
X22115Y-11573D01*
X22069Y-11503D01*
X21917Y-11351D01*
X21847Y-11305D01*
X21658Y-11226D01*
X21621Y-11219D01*
X21584Y-11210D01*
X21467Y-11206D01*
X21463Y-11207D01*
X21460Y-11206D01*
X21459D01*
X21459Y-11206D01*
X20768D01*
X20661Y-10806D01*
X20670Y-10801D01*
X20982Y-10561D01*
X21260Y-10283D01*
X21500Y-9971D01*
X21696Y-9630D01*
X21847Y-9267D01*
X21949Y-8887D01*
X22000Y-8497D01*
Y-8300D01*
X22000Y-8300D01*
X22000Y-8103D01*
X21949Y-7714D01*
X21847Y-7334D01*
X21696Y-6970D01*
X21500Y-6630D01*
X21260Y-6318D01*
X20982Y-6040D01*
X20670Y-5800D01*
X20330Y-5604D01*
X19966Y-5453D01*
X19587Y-5351D01*
X19369Y-5323D01*
X19197Y-5300D01*
X19000Y-5300D01*
X19000Y-5300D01*
Y-5300D01*
X18999Y-5300D01*
X18829D01*
X18802Y-5300D01*
X18628Y-5323D01*
X18413Y-5351D01*
X18033Y-5453D01*
X17670Y-5603D01*
X17330Y-5800D01*
X17018Y-6039D01*
X16740Y-6316D01*
X16501Y-6628D01*
X16304Y-6968D01*
X16154Y-7331D01*
X16052Y-7711D01*
X16000Y-8100D01*
X16000Y-8297D01*
X16000Y-8493D01*
X16051Y-8883D01*
X16152Y-9264D01*
X16228Y-9447D01*
X15954Y-9799D01*
X15953Y-9800D01*
X15879Y-9785D01*
X15858Y-9785D01*
X15838Y-9781D01*
X15672Y-9781D01*
X15672Y-9781D01*
X13114Y-9781D01*
X12961Y-9412D01*
X13288Y-9085D01*
X13390Y-8932D01*
X13426Y-8753D01*
Y-6839D01*
X13390Y-6660D01*
X13288Y-6507D01*
X12693Y-5912D01*
X12541Y-5811D01*
X12362Y-5775D01*
X11255D01*
X10487Y-5007D01*
X10393Y-4597D01*
X10468Y-4485D01*
X10494Y-4353D01*
Y-4147D01*
X10535D01*
X10714Y-4112D01*
X10866Y-4010D01*
X11231Y-3646D01*
X11332Y-3494D01*
X11368Y-3314D01*
Y-229D01*
X11381Y-203D01*
X11688Y84D01*
X11771D01*
Y1107D01*
Y2129D01*
X11688D01*
X11381Y2416D01*
X11368Y2442D01*
Y3243D01*
X11332Y3422D01*
X11231Y3574D01*
X9754Y5051D01*
X9739Y5102D01*
X9803Y5518D01*
X9817Y5538D01*
X9936Y5657D01*
X10030Y5819D01*
X10078Y6000D01*
Y6187D01*
X10030Y6367D01*
X9936Y6529D01*
X9882Y6583D01*
Y12761D01*
X9895Y12768D01*
X10027Y12900D01*
X10120Y13062D01*
X10169Y13242D01*
Y13429D01*
X10120Y13610D01*
X10027Y13772D01*
X9895Y13904D01*
X9733Y13998D01*
X9552Y14046D01*
X9365D01*
X9185Y13998D01*
X9023Y13904D01*
X8891Y13772D01*
X8797Y13610D01*
X8749Y13429D01*
Y13242D01*
X8797Y13062D01*
X8891Y12900D01*
X8944Y12846D01*
Y7466D01*
X8544Y7344D01*
X8544Y7345D01*
X8411Y7434D01*
X8255Y7465D01*
X7976D01*
Y6602D01*
X7376D01*
Y7465D01*
X7097D01*
X6941Y7434D01*
X6808Y7345D01*
X6773Y7293D01*
X6607Y7259D01*
X6495D01*
X6329Y7293D01*
X6294Y7345D01*
X6161Y7434D01*
X6005Y7465D01*
X5726D01*
Y6602D01*
X5426D01*
Y6302D01*
X4438D01*
Y6148D01*
X4463Y6024D01*
X4469Y5992D01*
X4517Y5841D01*
X4445Y5678D01*
X4112Y5566D01*
X4099Y5573D01*
X3849Y5788D01*
Y7652D01*
X3826Y7767D01*
X3761Y7865D01*
X3663Y7930D01*
X3548Y7953D01*
X3038D01*
X2923Y7930D01*
X2902Y7915D01*
X2783Y7865D01*
X2533D01*
X2415Y7915D01*
X2393Y7930D01*
X2278Y7953D01*
X1768D01*
X1653Y7930D01*
X1632Y7915D01*
X1513Y7865D01*
X1263D01*
X1145Y7915D01*
X1123Y7930D01*
X1008Y7953D01*
X498D01*
X383Y7930D01*
X362Y7915D01*
X243Y7865D01*
X-7D01*
X-125Y7915D01*
X-147Y7930D01*
X-262Y7953D01*
X-772D01*
X-887Y7930D01*
X-908Y7915D01*
X-1027Y7865D01*
X-1277D01*
X-1395Y7915D01*
X-1417Y7930D01*
X-1532Y7953D01*
X-2042D01*
X-2157Y7930D01*
X-2178Y7915D01*
X-2297Y7865D01*
X-2547D01*
X-2665Y7915D01*
X-2687Y7930D01*
X-2802Y7953D01*
X-3312D01*
X-3427Y7930D01*
X-3448Y7915D01*
X-3567Y7865D01*
X-3817D01*
X-3935Y7915D01*
X-3957Y7930D01*
X-4072Y7953D01*
X-4582D01*
X-4697Y7930D01*
X-4794Y7865D01*
X-4860Y7767D01*
X-4882Y7652D01*
Y5652D01*
X-5246Y5450D01*
X-9362D01*
X-9414Y5850D01*
X-9403Y5853D01*
X-9241Y5946D01*
X-9109Y6079D01*
X-9016Y6241D01*
X-8967Y6421D01*
Y6608D01*
X-9016Y6789D01*
X-9109Y6951D01*
X-9241Y7083D01*
X-9403Y7176D01*
X-9584Y7225D01*
X-9724D01*
X-9810Y7311D01*
Y12801D01*
X-9711Y12900D01*
X-9618Y13062D01*
X-9569Y13242D01*
Y13429D01*
X-9618Y13610D01*
X-9711Y13772D01*
X-9843Y13904D01*
X-10005Y13998D01*
X-10186Y14046D01*
X-10373D01*
X-10553Y13998D01*
X-10715Y13904D01*
X-10847Y13772D01*
X-10941Y13610D01*
X-10989Y13429D01*
Y13242D01*
X-10941Y13062D01*
X-10847Y12900D01*
X-10748Y12801D01*
Y7116D01*
X-10712Y6937D01*
X-10611Y6785D01*
X-10387Y6561D01*
Y6421D01*
X-10339Y6241D01*
X-10245Y6079D01*
X-10113Y5946D01*
X-9951Y5853D01*
X-9940Y5850D01*
X-9993Y5450D01*
X-11190D01*
X-11289Y5563D01*
X-11445Y5850D01*
X-11431Y5920D01*
Y6074D01*
X-12419D01*
Y6374D01*
X-12719D01*
Y7236D01*
X-12998D01*
X-13154Y7205D01*
X-13287Y7117D01*
X-13305Y7090D01*
X-13378Y7069D01*
X-13676D01*
X-13749Y7090D01*
X-13767Y7117D01*
X-13900Y7205D01*
X-14057Y7236D01*
X-14335D01*
Y6374D01*
X-14935D01*
Y7236D01*
X-15214D01*
X-15371Y7205D01*
X-15503Y7117D01*
X-15592Y6984D01*
X-15600Y6942D01*
X-16000Y6982D01*
Y7762D01*
X-16026Y7894D01*
X-16101Y8006D01*
X-16213Y8080D01*
X-16344Y8107D01*
X-17109D01*
X-17241Y8080D01*
X-17353Y8006D01*
X-17427Y7894D01*
X-17453Y7762D01*
Y6487D01*
X-17427Y6356D01*
X-17353Y6244D01*
X-17261Y6183D01*
X-17241Y6038D01*
Y5910D01*
X-17261Y5766D01*
X-17353Y5704D01*
X-17427Y5593D01*
X-17453Y5461D01*
Y4186D01*
X-17427Y4054D01*
X-17424Y4049D01*
X-17373Y3857D01*
X-17448Y3533D01*
X-17541Y3412D01*
X-17554Y3381D01*
X-17656Y3133D01*
X-17704D01*
X-17806Y3113D01*
X-17892Y3056D01*
X-17897Y3048D01*
X-18058D01*
X-18198Y3020D01*
X-18317Y2940D01*
X-18510Y2748D01*
X-18589Y2629D01*
X-18617Y2489D01*
Y2374D01*
X-18620Y2365D01*
X-18951Y2181D01*
X-19059Y2467D01*
X-19039Y2568D01*
Y2868D01*
X-19059Y2970D01*
X-19117Y3056D01*
X-19203Y3113D01*
X-19304Y3133D01*
X-20304D01*
X-20345Y3166D01*
Y3861D01*
X-20221D01*
X-20080Y3889D01*
X-19960Y3969D01*
X-19880Y4089D01*
X-19863Y4174D01*
X-19468Y4186D01*
X-19442Y4054D01*
X-19368Y3943D01*
X-19256Y3868D01*
X-19124Y3842D01*
X-18359D01*
X-18228Y3868D01*
X-18116Y3943D01*
X-18041Y4054D01*
X-18015Y4186D01*
Y5461D01*
X-18041Y5593D01*
X-18116Y5704D01*
X-18208Y5766D01*
X-18228Y5910D01*
Y6038D01*
X-18208Y6183D01*
X-18116Y6244D01*
X-18041Y6356D01*
X-18015Y6487D01*
Y7762D01*
X-18041Y7894D01*
X-18116Y8006D01*
X-18228Y8080D01*
X-18359Y8107D01*
X-18426D01*
Y8286D01*
X-18450Y8407D01*
X-18518Y8509D01*
X-19013Y9004D01*
X-19115Y9072D01*
X-19236Y9096D01*
X-21964D01*
X-22085Y9072D01*
X-22188Y9004D01*
X-22882Y8309D01*
X-22950Y8207D01*
X-22974Y8086D01*
Y2373D01*
X-23050Y2314D01*
X-23419Y2146D01*
X-23531Y2221D01*
X-23662Y2247D01*
X-23864D01*
X-23887Y2647D01*
X-23795Y2738D01*
X-23710Y2944D01*
Y3167D01*
X-23795Y3373D01*
X-23953Y3530D01*
X-24159Y3616D01*
X-24381D01*
X-24587Y3530D01*
X-24745Y3373D01*
X-24830Y3167D01*
Y2944D01*
X-24745Y2738D01*
X-24637Y2631D01*
Y2169D01*
X-24671Y2146D01*
X-24745Y2034D01*
X-24772Y1903D01*
Y628D01*
X-24745Y496D01*
X-24671Y384D01*
X-24559Y310D01*
X-24427Y284D01*
X-24155D01*
X-23990Y-116D01*
X-26658Y-2785D01*
X-36941D01*
X-37062Y-2809D01*
X-37164Y-2878D01*
X-39347Y-5060D01*
X-39747Y-4895D01*
Y44996D01*
Y45304D01*
X-39666Y45916D01*
X-39507Y46511D01*
X-39271Y47081D01*
X-38962Y47615D01*
X-38587Y48104D01*
X-38151Y48540D01*
X-37662Y48916D01*
X-37128Y49224D01*
X-36558Y49460D01*
X-35963Y49619D01*
X-35351Y49700D01*
X-35043D01*
X-35043Y49700D01*
X35084Y49700D01*
D02*
G37*
G36*
X-18617Y-256D02*
Y-2711D01*
X-19018Y-3111D01*
X-19860D01*
Y-2853D01*
X-19886Y-2722D01*
X-19961Y-2610D01*
X-20072Y-2535D01*
X-20204Y-2509D01*
X-20969D01*
X-21101Y-2535D01*
X-21212Y-2610D01*
X-21287Y-2722D01*
X-21313Y-2853D01*
Y-4128D01*
X-21329Y-4147D01*
X-21483D01*
X-21875Y-3753D01*
Y-2853D01*
X-21901Y-2722D01*
X-21976Y-2610D01*
X-22087Y-2535D01*
X-22219Y-2509D01*
X-22221D01*
Y-2047D01*
X-21948D01*
X-21807Y-2019D01*
X-21687Y-1939D01*
X-21322Y-2057D01*
X-21165Y-2088D01*
X-21012D01*
Y-1100D01*
X-20712D01*
Y-800D01*
X-19849D01*
Y-522D01*
X-19563Y-204D01*
X-19538Y-191D01*
X-19180D01*
X-19059Y-167D01*
X-19017Y-139D01*
X-18617Y-256D01*
D02*
G37*
G36*
X-15560Y1566D02*
Y569D01*
X-16093Y36D01*
X-16161Y-66D01*
X-16178Y-153D01*
X-16664D01*
X-16805Y-181D01*
X-16924Y-261D01*
X-17004Y-381D01*
X-17032Y-522D01*
Y-1679D01*
X-17004Y-1820D01*
X-16924Y-1939D01*
X-16860Y-1983D01*
Y-2509D01*
X-16875D01*
X-17007Y-2535D01*
X-17119Y-2610D01*
X-17193Y-2722D01*
X-17219Y-2853D01*
Y-4088D01*
X-17256Y-4182D01*
X-17477Y-4426D01*
X-17531Y-4458D01*
X-19449D01*
X-19710Y-4124D01*
X-19599Y-3845D01*
X-18866D01*
X-18725Y-3817D01*
X-18606Y-3738D01*
X-17991Y-3122D01*
X-17911Y-3003D01*
X-17883Y-2863D01*
Y-60D01*
X-17704Y312D01*
X-17404D01*
Y768D01*
X-17204D01*
Y968D01*
X-16408D01*
X-16422Y1035D01*
X-16484Y1129D01*
X-16459Y1167D01*
X-16439Y1268D01*
Y1568D01*
X-16070Y1752D01*
X-15747D01*
X-15560Y1566D01*
D02*
G37*
G36*
X-1309Y-9418D02*
X-1182Y-9471D01*
X-1067Y-9548D01*
X-970Y-9645D01*
X-893Y-9759D01*
X-841Y-9887D01*
X-823Y-9973D01*
X-814Y-10090D01*
Y-10090D01*
X-814Y-10090D01*
X-814Y-10090D01*
X-814Y-25903D01*
X-1385Y-26475D01*
X-1492Y-26581D01*
X-1742Y-26749D01*
X-2020Y-26864D01*
X-2316Y-26923D01*
X-2466Y-26923D01*
X-9000Y-26923D01*
X-20139Y-26923D01*
X-20204D01*
X-20332Y-26897D01*
X-20452Y-26848D01*
X-20560Y-26775D01*
X-20652Y-26683D01*
X-20724Y-26575D01*
X-20774Y-26455D01*
X-20799Y-26327D01*
Y-26262D01*
X-20799D01*
Y-12517D01*
Y-12448D01*
X-20772Y-12311D01*
X-20719Y-12182D01*
X-20641Y-12066D01*
X-20543Y-11968D01*
X-20538Y-11965D01*
X-20524Y-11979D01*
X-20318Y-12065D01*
X-20095D01*
X-19889Y-11979D01*
X-19732Y-11822D01*
X-19727Y-11810D01*
X-18530D01*
X-18525Y-11822D01*
X-18367Y-11979D01*
X-18162Y-12065D01*
X-17939D01*
X-17733Y-11979D01*
X-17576Y-11822D01*
X-17498Y-11635D01*
X-17494Y-11633D01*
X-15566Y-9704D01*
X-15393Y-9589D01*
X-15078Y-9458D01*
X-14743Y-9392D01*
X-14573Y-9392D01*
X-14573Y-9392D01*
X-1513Y-9392D01*
X-1444Y-9392D01*
X-1309Y-9418D01*
D02*
G37*
G36*
X15672Y-9995D02*
X15672Y-9995D01*
X15838Y-9995D01*
X16162Y-10060D01*
X16468Y-10187D01*
X16743Y-10370D01*
X16860Y-10487D01*
X17298Y-10926D01*
X17298Y-10926D01*
X17298Y-10926D01*
X17421Y-11037D01*
X17696Y-11221D01*
X18002Y-11348D01*
X18327Y-11412D01*
X18492Y-11420D01*
X21459Y-11420D01*
X21459Y-11420D01*
X21459Y-11420D01*
X21460D01*
X21577Y-11424D01*
X21765Y-11503D01*
X21918Y-11655D01*
X22000Y-11853D01*
X22000Y-11961D01*
X22000Y-27289D01*
X22000Y-29517D01*
X22000Y-29517D01*
X22000Y-29603D01*
X21966Y-29772D01*
X21901Y-29930D01*
X21805Y-30073D01*
X21684Y-30195D01*
X21541Y-30290D01*
X21383Y-30356D01*
X21214Y-30389D01*
X18564Y-30389D01*
X18380Y-30389D01*
X18020Y-30318D01*
X17682Y-30177D01*
X17377Y-29973D01*
X17247Y-29844D01*
X15557Y-28154D01*
X15557Y-28153D01*
X15556Y-28154D01*
X15421Y-28025D01*
X15132Y-27788D01*
X14821Y-27580D01*
X14492Y-27404D01*
X14146Y-27260D01*
X13789Y-27152D01*
X13422Y-27079D01*
X13050Y-27042D01*
X12863Y-27038D01*
X3714Y-27038D01*
X3615Y-27038D01*
X3420Y-26999D01*
X3236Y-26923D01*
X3070Y-26812D01*
X2930Y-26671D01*
X2819Y-26506D01*
X2743Y-26322D01*
X2705Y-26127D01*
X2705Y-26028D01*
X2705Y-10715D01*
X2705Y-10715D01*
X2715Y-10592D01*
X2733Y-10505D01*
X2787Y-10374D01*
X2865Y-10256D01*
X2966Y-10156D01*
X3083Y-10077D01*
X3214Y-10023D01*
X3353Y-9995D01*
X3424Y-9995D01*
X15672Y-9995D01*
X15672Y-9995D01*
D02*
G37*
%LPC*%
G36*
X-21099Y7236D02*
X-21378D01*
X-21535Y7205D01*
X-21667Y7117D01*
X-21756Y6984D01*
X-21787Y6827D01*
Y6674D01*
X-21099D01*
Y7236D01*
D02*
G37*
G36*
X-1367Y-1550D02*
X-2134D01*
X-2902D01*
Y-1887D01*
X-2872Y-2035D01*
X-2789Y-2160D01*
X-2785Y-2173D01*
X-2799Y-2587D01*
X-2802Y-2595D01*
X-2814Y-2603D01*
X-2897Y-2727D01*
X-2926Y-2873D01*
Y-3148D01*
X-2169D01*
X-1412D01*
Y-2873D01*
X-1441Y-2727D01*
X-1510Y-2624D01*
X-1522Y-2574D01*
X-1499Y-2173D01*
X-1479Y-2160D01*
X-1396Y-2035D01*
X-1367Y-1887D01*
Y-1550D01*
D02*
G37*
G36*
X-1412Y-3748D02*
X-1869D01*
Y-4406D01*
X-1794D01*
X-1648Y-4377D01*
X-1524Y-4294D01*
X-1441Y-4170D01*
X-1412Y-4023D01*
Y-3748D01*
D02*
G37*
G36*
X11057Y46461D02*
X10875Y46413D01*
X10589Y46248D01*
X10357Y46015D01*
X10338Y45983D01*
X9876D01*
X9857Y46015D01*
X9625Y46248D01*
X9339Y46413D01*
X9157Y46461D01*
Y45248D01*
Y44034D01*
X9339Y44083D01*
X9625Y44247D01*
X9857Y44480D01*
X9876Y44513D01*
X10338D01*
X10357Y44480D01*
X10589Y44247D01*
X10875Y44083D01*
X11057Y44034D01*
Y45248D01*
Y46461D01*
D02*
G37*
G36*
X-4103D02*
X-4286Y46413D01*
X-4571Y46248D01*
X-4803Y46015D01*
X-4822Y45983D01*
X-5284D01*
X-5303Y46015D01*
X-5536Y46248D01*
X-5821Y46413D01*
X-6003Y46461D01*
Y45248D01*
Y44034D01*
X-5821Y44083D01*
X-5536Y44247D01*
X-5303Y44480D01*
X-5284Y44513D01*
X-4822D01*
X-4803Y44480D01*
X-4571Y44247D01*
X-4286Y44083D01*
X-4103Y44034D01*
Y45248D01*
Y46461D01*
D02*
G37*
G36*
X-19163D02*
X-19346Y46413D01*
X-19631Y46248D01*
X-19863Y46015D01*
X-19882Y45983D01*
X-20344D01*
X-20363Y46015D01*
X-20595Y46248D01*
X-20881Y46413D01*
X-21063Y46461D01*
Y45248D01*
Y44034D01*
X-20881Y44083D01*
X-20595Y44247D01*
X-20363Y44480D01*
X-20344Y44513D01*
X-19882D01*
X-19863Y44480D01*
X-19631Y44247D01*
X-19346Y44083D01*
X-19163Y44034D01*
Y45248D01*
Y46461D01*
D02*
G37*
G36*
X26017Y46461D02*
X25835Y46413D01*
X25550Y46248D01*
X25317Y46015D01*
X25152Y45730D01*
X25131Y45649D01*
X25004D01*
X24982Y45730D01*
X24817Y46015D01*
X24585Y46248D01*
X24300Y46413D01*
X24117Y46461D01*
Y45304D01*
Y45248D01*
Y44034D01*
X24300Y44083D01*
X24585Y44247D01*
X24817Y44480D01*
X24836Y44513D01*
X24982Y44765D01*
X25004Y44846D01*
X25131D01*
X25152Y44765D01*
X25317Y44480D01*
X25550Y44247D01*
X25835Y44083D01*
X26017Y44034D01*
Y45248D01*
Y46461D01*
D02*
G37*
G36*
X26617Y46461D02*
Y45548D01*
X27531D01*
X27504Y45649D01*
X27482Y45730D01*
X27317Y46015D01*
X27085Y46248D01*
X26800Y46413D01*
X26617Y46461D01*
D02*
G37*
G36*
X11657Y46461D02*
Y45548D01*
X12571D01*
X12522Y45730D01*
X12357Y46015D01*
X12125Y46248D01*
X11839Y46413D01*
X11657Y46461D01*
D02*
G37*
G36*
X-18563D02*
Y45548D01*
X-17649D01*
X-17698Y45730D01*
X-17863Y46015D01*
X-18095Y46248D01*
X-18381Y46413D01*
X-18563Y46461D01*
D02*
G37*
G36*
X-3503D02*
Y45548D01*
X-2590D01*
X-2638Y45730D01*
X-2803Y46015D01*
X-3036Y46248D01*
X-3321Y46413D01*
X-3503Y46461D01*
D02*
G37*
G36*
X27531Y44948D02*
X26617D01*
Y44034D01*
X26800Y44083D01*
X27085Y44247D01*
X27317Y44480D01*
X27482Y44765D01*
X27531Y44948D01*
D02*
G37*
G36*
X12571Y44948D02*
X11657D01*
Y44034D01*
X11839Y44083D01*
X12125Y44247D01*
X12357Y44480D01*
X12522Y44765D01*
X12571Y44948D01*
D02*
G37*
G36*
X-17649D02*
X-18563D01*
Y44034D01*
X-18381Y44083D01*
X-18095Y44247D01*
X-17863Y44480D01*
X-17698Y44765D01*
X-17649Y44948D01*
D02*
G37*
G36*
X-2590Y44948D02*
X-3503D01*
Y44034D01*
X-3321Y44083D01*
X-3036Y44247D01*
X-2803Y44480D01*
X-2638Y44765D01*
X-2590Y44948D01*
D02*
G37*
G36*
X17313Y48406D02*
X17313Y48406D01*
X17190D01*
X17160Y48400D01*
X17130D01*
X16889Y48352D01*
X16861Y48340D01*
X16831Y48335D01*
X16604Y48240D01*
X16579Y48224D01*
X16551Y48212D01*
X16346Y48075D01*
X16325Y48054D01*
X16300Y48037D01*
X16126Y47863D01*
X16109Y47838D01*
X16088Y47817D01*
X15951Y47612D01*
X15939Y47584D01*
X15923Y47559D01*
X15828Y47332D01*
X15823Y47302D01*
X15811Y47274D01*
X15763Y47033D01*
Y47003D01*
X15757Y46973D01*
Y46850D01*
Y40100D01*
X15757Y40100D01*
X15757Y39977D01*
X15763Y39947D01*
Y39917D01*
X15811Y39676D01*
X15823Y39648D01*
X15828Y39618D01*
X15923Y39391D01*
X15939Y39366D01*
X15951Y39338D01*
X16088Y39133D01*
X16109Y39112D01*
X16126Y39087D01*
X16300Y38913D01*
X16325Y38896D01*
X16346Y38875D01*
X16551Y38738D01*
X16579Y38726D01*
X16604Y38710D01*
X16831Y38615D01*
X16861Y38610D01*
X16889Y38598D01*
X17130Y38550D01*
X17160D01*
X17190Y38544D01*
X17313Y38544D01*
X20825D01*
X20825Y38544D01*
X20947Y38544D01*
X20976Y38550D01*
X21006D01*
X21246Y38598D01*
X21273Y38609D01*
X21303Y38615D01*
X21528Y38708D01*
X21553Y38725D01*
X21581Y38737D01*
X21784Y38872D01*
X21805Y38893D01*
X21830Y38910D01*
X22003Y39083D01*
X22020Y39108D01*
X22041Y39129D01*
X22176Y39332D01*
X22188Y39360D01*
X22205Y39385D01*
X22298Y39610D01*
X22304Y39640D01*
X22315Y39667D01*
X22363Y39907D01*
Y39937D01*
X22369Y39966D01*
X22369Y40088D01*
X22369Y44060D01*
X22545Y44293D01*
X22949Y44348D01*
X23004Y44293D01*
X23050Y44247D01*
X23335Y44083D01*
X23517Y44034D01*
Y45248D01*
Y46461D01*
X23335Y46413D01*
X23050Y46248D01*
X22949Y46148D01*
X22545Y46202D01*
X22369Y46435D01*
Y47100D01*
X22369Y47100D01*
Y47100D01*
X22368Y47105D01*
X22369Y47110D01*
X22365Y47228D01*
X22359Y47252D01*
Y47278D01*
X22325Y47451D01*
X22313Y47479D01*
X22307Y47509D01*
X22232Y47691D01*
X22215Y47716D01*
X22203Y47744D01*
X22094Y47907D01*
X22073Y47929D01*
X22056Y47954D01*
X21917Y48093D01*
X21892Y48110D01*
X21870Y48131D01*
X21707Y48241D01*
X21679Y48252D01*
X21654Y48269D01*
X21472Y48344D01*
X21442Y48350D01*
X21414Y48362D01*
X21221Y48400D01*
X21191D01*
X21161Y48406D01*
X21063Y48406D01*
X17313Y48406D01*
D02*
G37*
G36*
X-12550D02*
X-12550Y48406D01*
X-12673D01*
X-12703Y48400D01*
X-12733D01*
X-12974Y48352D01*
X-13002Y48340D01*
X-13032Y48335D01*
X-13259Y48240D01*
X-13284Y48224D01*
X-13312Y48212D01*
X-13517Y48075D01*
X-13538Y48054D01*
X-13563Y48037D01*
X-13737Y47863D01*
X-13754Y47838D01*
X-13775Y47817D01*
X-13912Y47612D01*
X-13924Y47584D01*
X-13940Y47559D01*
X-14035Y47332D01*
X-14040Y47302D01*
X-14052Y47274D01*
X-14100Y47033D01*
Y47003D01*
X-14106Y46973D01*
Y46850D01*
Y40100D01*
X-14106Y40100D01*
X-14106Y39977D01*
X-14100Y39947D01*
Y39917D01*
X-14052Y39676D01*
X-14040Y39648D01*
X-14035Y39618D01*
X-13940Y39391D01*
X-13924Y39366D01*
X-13912Y39338D01*
X-13775Y39133D01*
X-13754Y39112D01*
X-13737Y39087D01*
X-13563Y38913D01*
X-13538Y38896D01*
X-13517Y38875D01*
X-13312Y38738D01*
X-13284Y38726D01*
X-13259Y38710D01*
X-13032Y38615D01*
X-13002Y38610D01*
X-12974Y38598D01*
X-12733Y38550D01*
X-12703D01*
X-12673Y38544D01*
X-12550Y38544D01*
X-9038D01*
X-9038Y38544D01*
X-8916Y38544D01*
X-8887Y38550D01*
X-8857D01*
X-8617Y38598D01*
X-8590Y38609D01*
X-8560Y38615D01*
X-8335Y38708D01*
X-8310Y38725D01*
X-8282Y38737D01*
X-8079Y38872D01*
X-8058Y38893D01*
X-8033Y38910D01*
X-7860Y39083D01*
X-7843Y39108D01*
X-7822Y39129D01*
X-7687Y39332D01*
X-7675Y39360D01*
X-7658Y39385D01*
X-7565Y39610D01*
X-7559Y39640D01*
X-7548Y39667D01*
X-7500Y39907D01*
Y39937D01*
X-7494Y39966D01*
X-7494Y40088D01*
X-7494Y44105D01*
X-7094Y44271D01*
X-7071Y44247D01*
X-6786Y44083D01*
X-6603Y44034D01*
Y45248D01*
Y46461D01*
X-6786Y46413D01*
X-7071Y46248D01*
X-7094Y46225D01*
X-7494Y46390D01*
Y47100D01*
X-7494Y47100D01*
Y47100D01*
X-7495Y47105D01*
X-7494Y47110D01*
X-7498Y47228D01*
X-7504Y47252D01*
Y47278D01*
X-7538Y47451D01*
X-7550Y47479D01*
X-7556Y47509D01*
X-7631Y47691D01*
X-7648Y47716D01*
X-7659Y47744D01*
X-7769Y47907D01*
X-7790Y47929D01*
X-7807Y47954D01*
X-7946Y48093D01*
X-7971Y48110D01*
X-7993Y48131D01*
X-8156Y48241D01*
X-8184Y48252D01*
X-8209Y48269D01*
X-8391Y48344D01*
X-8421Y48350D01*
X-8449Y48362D01*
X-8642Y48400D01*
X-8672D01*
X-8702Y48406D01*
X-8800Y48406D01*
X-12550Y48406D01*
D02*
G37*
G36*
X2253D02*
X2253Y48406D01*
X2130D01*
X2100Y48400D01*
X2070D01*
X1828Y48352D01*
X1801Y48340D01*
X1771Y48335D01*
X1544Y48240D01*
X1519Y48224D01*
X1491Y48212D01*
X1286Y48075D01*
X1265Y48054D01*
X1240Y48037D01*
X1066Y47863D01*
X1049Y47838D01*
X1027Y47817D01*
X891Y47612D01*
X879Y47584D01*
X862Y47559D01*
X768Y47332D01*
X762Y47302D01*
X751Y47274D01*
X703Y47033D01*
Y47003D01*
X697Y46973D01*
Y46850D01*
Y40100D01*
X697Y40100D01*
X697Y39977D01*
X703Y39947D01*
Y39917D01*
X751Y39676D01*
X762Y39648D01*
X768Y39618D01*
X862Y39391D01*
X879Y39366D01*
X891Y39338D01*
X1027Y39133D01*
X1049Y39112D01*
X1066Y39087D01*
X1240Y38913D01*
X1265Y38896D01*
X1286Y38875D01*
X1491Y38738D01*
X1519Y38726D01*
X1544Y38710D01*
X1771Y38615D01*
X1801Y38610D01*
X1828Y38598D01*
X2070Y38550D01*
X2100D01*
X2130Y38544D01*
X2253Y38544D01*
X5765D01*
X5765Y38544D01*
X5886Y38544D01*
X5916Y38550D01*
X5946D01*
X6185Y38598D01*
X6213Y38609D01*
X6243Y38615D01*
X6468Y38708D01*
X6493Y38725D01*
X6521Y38737D01*
X6724Y38872D01*
X6745Y38893D01*
X6770Y38910D01*
X6943Y39083D01*
X6959Y39108D01*
X6981Y39129D01*
X7116Y39332D01*
X7128Y39360D01*
X7144Y39385D01*
X7238Y39610D01*
X7244Y39640D01*
X7255Y39667D01*
X7303Y39907D01*
Y39937D01*
X7309Y39966D01*
X7309Y40088D01*
X7309Y44050D01*
X7301Y44089D01*
X7300Y44109D01*
X7500Y44323D01*
X7609Y44403D01*
X7943Y44394D01*
X8089Y44247D01*
X8375Y44083D01*
X8557Y44034D01*
Y45248D01*
Y46461D01*
X8375Y46413D01*
X8089Y46248D01*
X7943Y46101D01*
X7609Y46093D01*
X7500Y46172D01*
X7300Y46387D01*
X7301Y46406D01*
X7309Y46445D01*
Y47100D01*
X7309Y47100D01*
Y47100D01*
X7308Y47105D01*
X7308Y47110D01*
X7305Y47228D01*
X7299Y47252D01*
Y47278D01*
X7264Y47451D01*
X7253Y47479D01*
X7247Y47509D01*
X7172Y47691D01*
X7155Y47716D01*
X7143Y47744D01*
X7034Y47907D01*
X7013Y47929D01*
X6996Y47954D01*
X6856Y48093D01*
X6831Y48110D01*
X6810Y48131D01*
X6646Y48241D01*
X6619Y48252D01*
X6593Y48269D01*
X6411Y48344D01*
X6382Y48350D01*
X6354Y48362D01*
X6161Y48400D01*
X6131D01*
X6101Y48406D01*
X6003Y48406D01*
X2253Y48406D01*
D02*
G37*
G36*
X-27610D02*
X-27610Y48406D01*
X-27733D01*
X-27763Y48400D01*
X-27793D01*
X-28034Y48352D01*
X-28062Y48340D01*
X-28092Y48335D01*
X-28319Y48240D01*
X-28344Y48224D01*
X-28372Y48212D01*
X-28577Y48075D01*
X-28598Y48054D01*
X-28623Y48037D01*
X-28797Y47863D01*
X-28814Y47838D01*
X-28835Y47817D01*
X-28972Y47612D01*
X-28984Y47584D01*
X-29000Y47559D01*
X-29095Y47332D01*
X-29100Y47302D01*
X-29112Y47274D01*
X-29160Y47033D01*
Y47003D01*
X-29166Y46973D01*
Y46850D01*
Y40100D01*
X-29166Y40100D01*
X-29166Y39977D01*
X-29160Y39947D01*
Y39917D01*
X-29112Y39676D01*
X-29100Y39648D01*
X-29095Y39618D01*
X-29000Y39391D01*
X-28984Y39366D01*
X-28972Y39338D01*
X-28835Y39133D01*
X-28814Y39112D01*
X-28797Y39087D01*
X-28623Y38913D01*
X-28598Y38896D01*
X-28577Y38875D01*
X-28372Y38738D01*
X-28344Y38726D01*
X-28319Y38710D01*
X-28092Y38615D01*
X-28062Y38610D01*
X-28034Y38598D01*
X-27793Y38550D01*
X-27763D01*
X-27733Y38544D01*
X-27610Y38544D01*
X-24098D01*
X-24098Y38544D01*
X-23976Y38544D01*
X-23947Y38550D01*
X-23917D01*
X-23677Y38598D01*
X-23650Y38609D01*
X-23620Y38615D01*
X-23395Y38708D01*
X-23370Y38725D01*
X-23342Y38737D01*
X-23139Y38872D01*
X-23118Y38893D01*
X-23093Y38910D01*
X-22920Y39083D01*
X-22903Y39108D01*
X-22882Y39129D01*
X-22747Y39332D01*
X-22735Y39360D01*
X-22718Y39385D01*
X-22625Y39610D01*
X-22619Y39640D01*
X-22608Y39667D01*
X-22560Y39907D01*
Y39937D01*
X-22554Y39966D01*
X-22554Y40088D01*
X-22554Y44105D01*
X-22154Y44271D01*
X-22131Y44247D01*
X-21846Y44083D01*
X-21663Y44034D01*
Y45248D01*
Y46461D01*
X-21846Y46413D01*
X-22131Y46248D01*
X-22154Y46224D01*
X-22554Y46390D01*
Y47100D01*
X-22554Y47100D01*
Y47100D01*
X-22555Y47105D01*
X-22554Y47110D01*
X-22558Y47228D01*
X-22564Y47252D01*
Y47278D01*
X-22598Y47451D01*
X-22610Y47479D01*
X-22616Y47509D01*
X-22691Y47691D01*
X-22708Y47716D01*
X-22719Y47744D01*
X-22829Y47907D01*
X-22850Y47929D01*
X-22867Y47954D01*
X-23006Y48093D01*
X-23031Y48110D01*
X-23053Y48131D01*
X-23216Y48241D01*
X-23244Y48252D01*
X-23269Y48269D01*
X-23451Y48344D01*
X-23481Y48350D01*
X-23509Y48362D01*
X-23702Y48400D01*
X-23732D01*
X-23762Y48406D01*
X-23860Y48406D01*
X-27610Y48406D01*
D02*
G37*
G36*
X9939Y43553D02*
X9430D01*
Y42222D01*
X10469D01*
Y43023D01*
X10429Y43226D01*
X10314Y43398D01*
X10142Y43513D01*
X9939Y43553D01*
D02*
G37*
G36*
X8830D02*
X8320D01*
X8117Y43513D01*
X7945Y43398D01*
X7830Y43226D01*
X7790Y43023D01*
Y42222D01*
X8830D01*
Y43553D01*
D02*
G37*
G36*
X-4863D02*
X-5373D01*
Y42222D01*
X-4333D01*
Y43023D01*
X-4374Y43226D01*
X-4489Y43398D01*
X-4661Y43513D01*
X-4863Y43553D01*
D02*
G37*
G36*
X-5973D02*
X-6483D01*
X-6685Y43513D01*
X-6857Y43398D01*
X-6972Y43226D01*
X-7013Y43023D01*
Y42222D01*
X-5973D01*
Y43553D01*
D02*
G37*
G36*
X-19923D02*
X-20433D01*
Y42222D01*
X-19393D01*
Y43023D01*
X-19434Y43226D01*
X-19549Y43398D01*
X-19721Y43513D01*
X-19923Y43553D01*
D02*
G37*
G36*
X-21033D02*
X-21543D01*
X-21745Y43513D01*
X-21917Y43398D01*
X-22032Y43226D01*
X-22073Y43023D01*
Y42222D01*
X-21033D01*
Y43553D01*
D02*
G37*
G36*
X25000D02*
X24490D01*
Y42222D01*
X25530D01*
Y43023D01*
X25489Y43226D01*
X25374Y43398D01*
X25202Y43513D01*
X25000Y43553D01*
D02*
G37*
G36*
X23890D02*
X23380D01*
X23177Y43513D01*
X23006Y43398D01*
D01*
X23006D01*
X22891Y43226D01*
X22850Y43023D01*
Y42222D01*
X23890D01*
Y42222D01*
Y43553D01*
D02*
G37*
G36*
X35287Y48650D02*
X34713D01*
X34145Y48560D01*
X33599Y48383D01*
X33087Y48122D01*
X32622Y47784D01*
X32216Y47378D01*
X31878Y46913D01*
X31617Y46401D01*
X31440Y45855D01*
X31350Y45287D01*
Y44713D01*
X31440Y44145D01*
X31617Y43599D01*
X31878Y43087D01*
X32216Y42622D01*
X32622Y42216D01*
X33087Y41878D01*
X33599Y41617D01*
X34145Y41440D01*
X34713Y41350D01*
X35287D01*
X35855Y41440D01*
X36401Y41617D01*
X36913Y41878D01*
X37378Y42216D01*
X37784Y42622D01*
X38122Y43087D01*
X38383Y43599D01*
X38560Y44145D01*
X38650Y44713D01*
Y45287D01*
X38560Y45855D01*
X38383Y46401D01*
X38122Y46913D01*
X37784Y47378D01*
X37378Y47784D01*
X36913Y48122D01*
X36401Y48383D01*
X35855Y48560D01*
X35287Y48650D01*
D02*
G37*
G36*
X-34713Y48650D02*
X-35287D01*
X-35855Y48560D01*
X-36401Y48383D01*
X-36913Y48122D01*
X-37378Y47784D01*
X-37784Y47378D01*
X-38122Y46913D01*
X-38383Y46401D01*
X-38560Y45855D01*
X-38650Y45287D01*
Y44713D01*
X-38560Y44145D01*
X-38383Y43599D01*
X-38122Y43087D01*
X-37784Y42622D01*
X-37378Y42216D01*
X-36913Y41878D01*
X-36401Y41617D01*
X-35855Y41440D01*
X-35287Y41350D01*
X-34713D01*
X-34145Y41440D01*
X-33599Y41617D01*
X-33087Y41878D01*
X-32622Y42216D01*
X-32216Y42622D01*
X-31878Y43087D01*
X-31617Y43599D01*
X-31440Y44145D01*
X-31350Y44713D01*
Y45287D01*
X-31440Y45855D01*
X-31617Y46401D01*
X-31878Y46913D01*
X-32216Y47378D01*
X-32622Y47784D01*
X-33087Y48122D01*
X-33599Y48383D01*
X-34145Y48560D01*
X-34713Y48650D01*
D02*
G37*
G36*
X25530Y41622D02*
X24490D01*
Y40290D01*
X25000D01*
X25202Y40330D01*
X25374Y40445D01*
X25489Y40617D01*
X25530Y40820D01*
Y41622D01*
D02*
G37*
G36*
X23890D02*
X22850D01*
Y40820D01*
X22891Y40617D01*
X23006Y40445D01*
X23006D01*
X23177Y40330D01*
X23380Y40290D01*
X23890D01*
Y41622D01*
D02*
G37*
G36*
X10469Y41622D02*
X9430D01*
Y40290D01*
X9939D01*
X10142Y40330D01*
X10314Y40445D01*
X10429Y40617D01*
X10469Y40820D01*
Y41622D01*
D02*
G37*
G36*
X8830D02*
X7790D01*
Y40820D01*
X7830Y40617D01*
X7945Y40445D01*
X8117Y40330D01*
X8320Y40290D01*
X8830D01*
Y41622D01*
D02*
G37*
G36*
X-4333Y41622D02*
X-5373D01*
Y40290D01*
X-4863D01*
X-4661Y40330D01*
X-4489Y40445D01*
X-4374Y40617D01*
X-4333Y40820D01*
Y41622D01*
D02*
G37*
G36*
X-5973D02*
X-7013D01*
Y40820D01*
X-6972Y40617D01*
X-6857Y40445D01*
X-6685Y40330D01*
X-6483Y40290D01*
X-5973D01*
Y41622D01*
D02*
G37*
G36*
X-19393Y41622D02*
X-20433D01*
Y40290D01*
X-19923D01*
X-19721Y40330D01*
X-19549Y40445D01*
X-19434Y40617D01*
X-19393Y40820D01*
Y41622D01*
D02*
G37*
G36*
X-21033D02*
X-22073D01*
Y40820D01*
X-22032Y40617D01*
X-21917Y40445D01*
X-21745Y40330D01*
X-21543Y40290D01*
X-21033D01*
Y41622D01*
D02*
G37*
G36*
X-22111Y11666D02*
X-22265D01*
X-22389Y11641D01*
X-22422Y11635D01*
X-22613Y11574D01*
X-22881Y11595D01*
X-22943Y11604D01*
X-23048Y11625D01*
X-23955D01*
X-24096Y11597D01*
X-24216Y11517D01*
X-24295Y11398D01*
X-24323Y11257D01*
Y11122D01*
X-24724D01*
Y11290D01*
X-24751Y11422D01*
X-24825Y11534D01*
X-24937Y11608D01*
X-25069Y11635D01*
X-25833D01*
X-25965Y11608D01*
X-26077Y11534D01*
X-26151Y11422D01*
X-26178Y11290D01*
Y10015D01*
X-26151Y9884D01*
X-26077Y9772D01*
X-25965Y9698D01*
X-25833Y9671D01*
X-25069D01*
X-24937Y9698D01*
X-24825Y9772D01*
X-24751Y9884D01*
X-24724Y10015D01*
Y10184D01*
X-24323D01*
Y10099D01*
X-24295Y9958D01*
X-24216Y9839D01*
X-24096Y9759D01*
X-23955Y9731D01*
X-23048D01*
X-22943Y9752D01*
X-22881Y9761D01*
X-22613Y9782D01*
X-22422Y9721D01*
X-22389Y9715D01*
X-22265Y9690D01*
X-22111D01*
Y10678D01*
Y11666D01*
D02*
G37*
G36*
X-2731D02*
X-2885D01*
X-3009Y11641D01*
X-3041Y11635D01*
X-3233Y11574D01*
X-3501Y11595D01*
X-3562Y11604D01*
X-3667Y11625D01*
X-4575D01*
X-4716Y11597D01*
X-4835Y11517D01*
X-4901Y11418D01*
X-5010Y11404D01*
X-5232Y11417D01*
X-5316Y11432D01*
X-5384Y11534D01*
X-5496Y11608D01*
X-5628Y11635D01*
X-6393D01*
X-6524Y11608D01*
X-6636Y11534D01*
X-6711Y11422D01*
X-6737Y11290D01*
Y10015D01*
X-6711Y9884D01*
X-6636Y9772D01*
X-6524Y9698D01*
X-6393Y9671D01*
X-5628D01*
X-5496Y9698D01*
X-5384Y9772D01*
X-5310Y9884D01*
X-5309Y9888D01*
X-5023Y9939D01*
X-4894Y9926D01*
X-4835Y9839D01*
X-4716Y9759D01*
X-4575Y9731D01*
X-3667D01*
X-3562Y9752D01*
X-3501Y9761D01*
X-3233Y9782D01*
X-3041Y9721D01*
X-3009Y9715D01*
X-2885Y9690D01*
X-2731D01*
Y10678D01*
Y11666D01*
D02*
G37*
G36*
X36305Y11648D02*
X36151D01*
X36027Y11624D01*
X35994Y11617D01*
X35803Y11556D01*
X35535Y11577D01*
X35473Y11587D01*
X35368Y11607D01*
X34461D01*
X34320Y11579D01*
X34201Y11500D01*
X34121Y11380D01*
X34093Y11239D01*
X33702Y11262D01*
Y11285D01*
X33676Y11417D01*
X33602Y11529D01*
X33490Y11603D01*
X33358Y11629D01*
X32593D01*
X32462Y11603D01*
X32350Y11529D01*
X32275Y11417D01*
X32249Y11285D01*
Y10010D01*
X32275Y9879D01*
X32350Y9767D01*
X32462Y9692D01*
X32593Y9666D01*
X33358D01*
X33490Y9692D01*
X33602Y9767D01*
X33676Y9879D01*
X33702Y10010D01*
X34102Y10033D01*
X34121Y9941D01*
X34201Y9821D01*
X34320Y9741D01*
X34461Y9713D01*
X35368D01*
X35473Y9734D01*
X35535Y9743D01*
X35803Y9765D01*
X35994Y9704D01*
X36027Y9697D01*
X36151Y9672D01*
X36305D01*
Y10660D01*
Y11648D01*
D02*
G37*
G36*
X16848Y11637D02*
X16695D01*
X16571Y11612D01*
X16538Y11606D01*
X16347Y11545D01*
X16078Y11566D01*
X16017Y11575D01*
X15912Y11596D01*
X15005D01*
X14864Y11568D01*
X14744Y11488D01*
X14664Y11369D01*
X14636Y11228D01*
Y11117D01*
X14210D01*
Y11285D01*
X14184Y11417D01*
X14110Y11529D01*
X13998Y11603D01*
X13866Y11629D01*
X13101D01*
X12970Y11603D01*
X12858Y11529D01*
X12783Y11417D01*
X12757Y11285D01*
Y10010D01*
X12783Y9879D01*
X12858Y9767D01*
X12970Y9692D01*
X13101Y9666D01*
X13866D01*
X13998Y9692D01*
X14110Y9767D01*
X14184Y9879D01*
X14210Y10010D01*
Y10179D01*
X14636D01*
Y10070D01*
X14664Y9929D01*
X14744Y9810D01*
X14864Y9730D01*
X15005Y9702D01*
X15912D01*
X16017Y9723D01*
X16078Y9732D01*
X16347Y9753D01*
X16538Y9692D01*
X16571Y9686D01*
X16695Y9661D01*
X16848D01*
Y10649D01*
Y11637D01*
D02*
G37*
G36*
X-21358Y11666D02*
X-21511D01*
Y10978D01*
X-20949D01*
Y11257D01*
X-20980Y11413D01*
X-21068Y11546D01*
X-21201Y11635D01*
X-21358Y11666D01*
D02*
G37*
G36*
X-1977D02*
X-2131D01*
Y10978D01*
X-1568D01*
Y11257D01*
X-1599Y11413D01*
X-1688Y11546D01*
X-1821Y11635D01*
X-1977Y11666D01*
D02*
G37*
G36*
X37058Y11648D02*
X36905D01*
Y10960D01*
X37468D01*
Y11239D01*
X37436Y11396D01*
X37348Y11528D01*
X37215Y11617D01*
X37058Y11648D01*
D02*
G37*
G36*
X17602Y11637D02*
X17448D01*
Y10949D01*
X18011D01*
Y11228D01*
X17980Y11384D01*
X17891Y11517D01*
X17759Y11606D01*
X17602Y11637D01*
D02*
G37*
G36*
X-1568Y10378D02*
X-2131D01*
Y9690D01*
X-1977D01*
X-1821Y9721D01*
X-1688Y9810D01*
X-1599Y9943D01*
X-1568Y10099D01*
Y10378D01*
D02*
G37*
G36*
X-20949D02*
X-21511D01*
Y9690D01*
X-21358D01*
X-21201Y9721D01*
X-21068Y9810D01*
X-20980Y9943D01*
X-20949Y10099D01*
Y10378D01*
D02*
G37*
G36*
X37468Y10360D02*
X36905D01*
Y9672D01*
X37058D01*
X37215Y9704D01*
X37348Y9792D01*
X37436Y9925D01*
X37468Y10082D01*
Y10360D01*
D02*
G37*
G36*
X-7932Y13414D02*
X-8119D01*
X-8299Y13366D01*
X-8461Y13272D01*
X-8593Y13140D01*
X-8687Y12978D01*
X-8735Y12797D01*
Y12611D01*
X-8687Y12430D01*
X-8593Y12268D01*
X-8494Y12169D01*
Y11617D01*
X-8539Y11608D01*
X-8651Y11534D01*
X-8726Y11422D01*
X-8752Y11290D01*
Y10015D01*
X-8726Y9884D01*
X-8651Y9772D01*
X-8539Y9698D01*
X-8408Y9671D01*
X-7643D01*
X-7511Y9698D01*
X-7399Y9772D01*
X-7325Y9884D01*
X-7299Y10015D01*
Y11290D01*
X-7325Y11422D01*
X-7399Y11534D01*
X-7511Y11608D01*
X-7556Y11617D01*
Y12169D01*
X-7457Y12268D01*
X-7364Y12430D01*
X-7315Y12611D01*
Y12797D01*
X-7364Y12978D01*
X-7457Y13140D01*
X-7589Y13272D01*
X-7751Y13366D01*
X-7932Y13414D01*
D02*
G37*
G36*
X-27373D02*
X-27559D01*
X-27740Y13366D01*
X-27902Y13272D01*
X-28034Y13140D01*
X-28128Y12978D01*
X-28176Y12797D01*
Y12611D01*
X-28128Y12430D01*
X-28034Y12268D01*
X-27935Y12169D01*
Y11617D01*
X-27980Y11608D01*
X-28092Y11534D01*
X-28166Y11422D01*
X-28193Y11290D01*
Y10015D01*
X-28166Y9884D01*
X-28092Y9772D01*
X-27980Y9698D01*
X-27848Y9671D01*
X-27083D01*
X-26952Y9698D01*
X-26840Y9772D01*
X-26766Y9884D01*
X-26739Y10015D01*
Y11290D01*
X-26766Y11422D01*
X-26840Y11534D01*
X-26952Y11608D01*
X-26997Y11617D01*
Y12169D01*
X-26898Y12268D01*
X-26804Y12430D01*
X-26756Y12611D01*
Y12797D01*
X-26804Y12978D01*
X-26898Y13140D01*
X-27030Y13272D01*
X-27192Y13366D01*
X-27373Y13414D01*
D02*
G37*
G36*
X31054Y13409D02*
X30867D01*
X30687Y13360D01*
X30525Y13267D01*
X30393Y13135D01*
X30299Y12973D01*
X30251Y12792D01*
Y12605D01*
X30299Y12425D01*
X30393Y12263D01*
X30492Y12164D01*
Y11612D01*
X30447Y11603D01*
X30335Y11529D01*
X30260Y11417D01*
X30234Y11285D01*
Y10010D01*
X30260Y9879D01*
X30335Y9767D01*
X30447Y9692D01*
X30578Y9666D01*
X31343D01*
X31475Y9692D01*
X31587Y9767D01*
X31661Y9879D01*
X31687Y10010D01*
Y11285D01*
X31661Y11417D01*
X31587Y11529D01*
X31475Y11603D01*
X31430Y11612D01*
Y12164D01*
X31529Y12263D01*
X31622Y12425D01*
X31671Y12605D01*
Y12792D01*
X31622Y12973D01*
X31529Y13135D01*
X31397Y13267D01*
X31235Y13360D01*
X31054Y13409D01*
D02*
G37*
G36*
X11562D02*
X11375D01*
X11195Y13360D01*
X11033Y13267D01*
X10901Y13135D01*
X10807Y12973D01*
X10759Y12792D01*
Y12605D01*
X10807Y12425D01*
X10901Y12263D01*
X11000Y12164D01*
Y11612D01*
X10955Y11603D01*
X10843Y11529D01*
X10768Y11417D01*
X10742Y11285D01*
Y10010D01*
X10768Y9879D01*
X10843Y9767D01*
X10955Y9692D01*
X11086Y9666D01*
X11851D01*
X11983Y9692D01*
X12095Y9767D01*
X12169Y9879D01*
X12195Y10010D01*
Y11285D01*
X12169Y11417D01*
X12095Y11529D01*
X11983Y11603D01*
X11938Y11612D01*
Y12164D01*
X12037Y12263D01*
X12130Y12425D01*
X12179Y12605D01*
Y12792D01*
X12130Y12973D01*
X12037Y13135D01*
X11905Y13267D01*
X11743Y13360D01*
X11562Y13409D01*
D02*
G37*
G36*
X18011Y10349D02*
X17448D01*
Y9661D01*
X17602D01*
X17759Y9692D01*
X17891Y9781D01*
X17980Y9914D01*
X18011Y10070D01*
Y10349D01*
D02*
G37*
G36*
X5126Y7465D02*
X4847D01*
X4691Y7434D01*
X4558Y7345D01*
X4469Y7212D01*
X4438Y7056D01*
Y6902D01*
X5126D01*
Y7465D01*
D02*
G37*
G36*
X-11840Y7236D02*
X-12119D01*
Y6674D01*
X-11431D01*
Y6827D01*
X-11462Y6984D01*
X-11551Y7117D01*
X-11683Y7205D01*
X-11840Y7236D01*
D02*
G37*
G36*
X28844Y14046D02*
X28657D01*
X28477Y13998D01*
X28315Y13904D01*
X28183Y13772D01*
X28089Y13610D01*
X28041Y13429D01*
Y13242D01*
X28089Y13062D01*
X28183Y12900D01*
X28282Y12801D01*
Y6546D01*
X28183Y6446D01*
X28089Y6284D01*
X28041Y6104D01*
Y5917D01*
X28089Y5736D01*
X28183Y5574D01*
X28315Y5442D01*
X28477Y5349D01*
X28657Y5300D01*
X28844D01*
X29025Y5349D01*
X29187Y5442D01*
X29319Y5574D01*
X29412Y5736D01*
X29461Y5917D01*
Y6104D01*
X29412Y6284D01*
X29319Y6446D01*
X29220Y6546D01*
Y12801D01*
X29319Y12900D01*
X29412Y13062D01*
X29461Y13242D01*
Y13429D01*
X29412Y13610D01*
X29319Y13772D01*
X29187Y13904D01*
X29025Y13998D01*
X28844Y14046D01*
D02*
G37*
G36*
X-29583D02*
X-29769D01*
X-29950Y13998D01*
X-30112Y13904D01*
X-30244Y13772D01*
X-30338Y13610D01*
X-30386Y13429D01*
Y13242D01*
X-30338Y13062D01*
X-30244Y12900D01*
X-30145Y12801D01*
Y6546D01*
X-30244Y6446D01*
X-30338Y6284D01*
X-30386Y6104D01*
Y5917D01*
X-30338Y5736D01*
X-30244Y5574D01*
X-30112Y5442D01*
X-29950Y5349D01*
X-29769Y5300D01*
X-29583D01*
X-29402Y5349D01*
X-29240Y5442D01*
X-29108Y5574D01*
X-29014Y5736D01*
X-28966Y5917D01*
Y6104D01*
X-29014Y6284D01*
X-29108Y6446D01*
X-29207Y6546D01*
Y12801D01*
X-29108Y12900D01*
X-29014Y13062D01*
X-28966Y13242D01*
Y13429D01*
X-29014Y13610D01*
X-29108Y13772D01*
X-29240Y13904D01*
X-29402Y13998D01*
X-29583Y14046D01*
D02*
G37*
G36*
X31348Y2359D02*
X31265D01*
Y1637D01*
X31733D01*
Y1974D01*
X31703Y2121D01*
X31620Y2246D01*
X31495Y2330D01*
X31348Y2359D01*
D02*
G37*
G36*
X30665D02*
X30583D01*
X30435Y2330D01*
X30311Y2246D01*
X30227Y2121D01*
X30198Y1974D01*
Y1637D01*
X30665D01*
Y2359D01*
D02*
G37*
G36*
X-7677Y2357D02*
X-7760D01*
Y1635D01*
X-7292D01*
Y1972D01*
X-7321Y2120D01*
X-7405Y2244D01*
X-7530Y2328D01*
X-7677Y2357D01*
D02*
G37*
G36*
X-8360D02*
X-8442D01*
X-8589Y2328D01*
X-8714Y2244D01*
X-8798Y2120D01*
X-8827Y1972D01*
Y1635D01*
X-8360D01*
Y2357D01*
D02*
G37*
G36*
X-25677Y2288D02*
X-25760D01*
Y1565D01*
X-25293D01*
Y1903D01*
X-25322Y2050D01*
X-25405Y2175D01*
X-25530Y2258D01*
X-25677Y2288D01*
D02*
G37*
G36*
X-26360D02*
X-26442D01*
X-26590Y2258D01*
X-26715Y2175D01*
X-26798Y2050D01*
X-26827Y1903D01*
Y1565D01*
X-26360D01*
Y2288D01*
D02*
G37*
G36*
X12453Y2129D02*
X12371D01*
Y1407D01*
X12838D01*
Y1744D01*
X12809Y1892D01*
X12726Y2016D01*
X12601Y2100D01*
X12453Y2129D01*
D02*
G37*
G36*
X33290Y3692D02*
X33067D01*
X32861Y3607D01*
X32704Y3450D01*
X32618Y3244D01*
Y3021D01*
X32704Y2815D01*
X32800Y2718D01*
X32785Y2318D01*
X32598D01*
X32466Y2292D01*
X32354Y2218D01*
X32280Y2106D01*
X32254Y1974D01*
Y699D01*
X32280Y567D01*
X32354Y456D01*
X32466Y381D01*
X32598Y355D01*
X33363D01*
X33494Y381D01*
X33606Y456D01*
X33681Y567D01*
X33707Y699D01*
Y1974D01*
X33681Y2106D01*
X33606Y2218D01*
X33545Y2258D01*
Y2708D01*
X33653Y2815D01*
X33738Y3021D01*
Y3244D01*
X33653Y3450D01*
X33495Y3607D01*
X33290Y3692D01*
D02*
G37*
G36*
X31733Y1037D02*
X31265D01*
Y314D01*
X31348D01*
X31495Y344D01*
X31620Y427D01*
X31703Y552D01*
X31733Y699D01*
Y1037D01*
D02*
G37*
G36*
X30665D02*
X30198D01*
Y699D01*
X30227Y552D01*
X30311Y427D01*
X30435Y344D01*
X30583Y314D01*
X30665D01*
Y1037D01*
D02*
G37*
G36*
X-7292Y1035D02*
X-7760D01*
Y312D01*
X-7677D01*
X-7530Y342D01*
X-7405Y425D01*
X-7321Y550D01*
X-7292Y697D01*
Y1035D01*
D02*
G37*
G36*
X-8360D02*
X-8827D01*
Y697D01*
X-8798Y550D01*
X-8714Y425D01*
X-8589Y342D01*
X-8442Y312D01*
X-8360D01*
Y1035D01*
D02*
G37*
G36*
X-25293Y965D02*
X-25760D01*
Y243D01*
X-25677D01*
X-25530Y272D01*
X-25405Y356D01*
X-25322Y481D01*
X-25293Y628D01*
Y965D01*
D02*
G37*
G36*
X-26360D02*
X-26827D01*
Y628D01*
X-26798Y481D01*
X-26715Y356D01*
X-26590Y272D01*
X-26442Y243D01*
X-26360D01*
Y965D01*
D02*
G37*
G36*
X14162Y3478D02*
X13939D01*
X13734Y3392D01*
X13576Y3235D01*
X13491Y3029D01*
Y2806D01*
X13576Y2600D01*
X13701Y2475D01*
Y2088D01*
X13572Y2062D01*
X13460Y1988D01*
X13385Y1876D01*
X13359Y1744D01*
Y469D01*
X13385Y338D01*
X13460Y226D01*
X13572Y151D01*
X13703Y125D01*
X14468D01*
X14600Y151D01*
X14712Y226D01*
X14786Y338D01*
X14813Y469D01*
Y1744D01*
X14786Y1876D01*
X14712Y1988D01*
X14600Y2062D01*
X14468Y2088D01*
X14435D01*
Y2510D01*
X14526Y2600D01*
X14611Y2806D01*
Y3029D01*
X14526Y3235D01*
X14368Y3392D01*
X14162Y3478D01*
D02*
G37*
G36*
X12838Y807D02*
X12371D01*
Y84D01*
X12453D01*
X12601Y114D01*
X12726Y197D01*
X12809Y322D01*
X12838Y469D01*
Y807D01*
D02*
G37*
G36*
X-14067Y-112D02*
X-14220D01*
Y-800D01*
X-13657D01*
Y-522D01*
X-13689Y-365D01*
X-13777Y-232D01*
X-13910Y-144D01*
X-14067Y-112D01*
D02*
G37*
G36*
X4086Y-228D02*
X4003D01*
Y-950D01*
X4471D01*
Y-612D01*
X4441Y-465D01*
X4358Y-340D01*
X4233Y-257D01*
X4086Y-228D01*
D02*
G37*
G36*
X3403D02*
X3321D01*
X3174Y-257D01*
X3049Y-340D01*
X2965Y-465D01*
X2936Y-612D01*
Y-950D01*
X3403D01*
Y-228D01*
D02*
G37*
G36*
X-13657Y-1400D02*
X-14220D01*
Y-2088D01*
X-14067D01*
X-13910Y-2057D01*
X-13777Y-1968D01*
X-13689Y-1836D01*
X-13657Y-1679D01*
Y-1400D01*
D02*
G37*
G36*
X4471Y-1550D02*
X3703D01*
X2936D01*
Y-1887D01*
X2965Y-2035D01*
X3049Y-2160D01*
X3052Y-2173D01*
X3038Y-2587D01*
X3035Y-2595D01*
X3023Y-2603D01*
X2940Y-2727D01*
X2911Y-2873D01*
Y-3148D01*
X3668D01*
X4426D01*
Y-2873D01*
X4397Y-2727D01*
X4328Y-2624D01*
X4315Y-2574D01*
X4338Y-2173D01*
X4358Y-2160D01*
X4441Y-2035D01*
X4471Y-1887D01*
Y-1550D01*
D02*
G37*
G36*
X4426Y-3748D02*
X3968D01*
Y-4406D01*
X4043D01*
X4190Y-4377D01*
X4314Y-4294D01*
X4397Y-4170D01*
X4426Y-4023D01*
Y-3748D01*
D02*
G37*
G36*
X28453Y-9689D02*
X28378Y-9689D01*
X27819D01*
X27819Y-9689D01*
X27709Y-9689D01*
X27680Y-9695D01*
X27649D01*
X27435Y-9738D01*
X27407Y-9750D01*
X27377Y-9755D01*
X27175Y-9839D01*
X27150Y-9856D01*
X27122Y-9868D01*
X26940Y-9989D01*
X26919Y-10010D01*
X26894Y-10027D01*
X26024Y-10897D01*
X26024Y-10897D01*
X25932Y-10989D01*
X25915Y-11014D01*
X25894Y-11035D01*
X25750Y-11251D01*
X25738Y-11279D01*
X25721Y-11304D01*
X25622Y-11544D01*
X25616Y-11573D01*
X25605Y-11601D01*
X25554Y-11856D01*
Y-11886D01*
X25548Y-11915D01*
X25548Y-12045D01*
X25548Y-20002D01*
X25548Y-20079D01*
X25554Y-20109D01*
Y-20139D01*
X25584Y-20291D01*
X25596Y-20319D01*
X25602Y-20348D01*
X25661Y-20492D01*
X25678Y-20517D01*
X25689Y-20544D01*
X25776Y-20673D01*
X25797Y-20695D01*
X25814Y-20720D01*
X25923Y-20829D01*
X25948Y-20846D01*
X25970Y-20868D01*
X26099Y-20954D01*
X26127Y-20965D01*
X26152Y-20982D01*
X26295Y-21041D01*
X26324Y-21047D01*
X26352Y-21059D01*
X26504Y-21089D01*
X26535Y-21089D01*
X26564Y-21095D01*
X26642Y-21095D01*
X35368Y-21095D01*
X35373Y-21094D01*
X35378Y-21095D01*
X35503Y-21091D01*
X35528Y-21085D01*
X35553Y-21085D01*
X35739Y-21048D01*
X35766Y-21036D01*
X35796Y-21031D01*
X35990Y-20950D01*
X36015Y-20934D01*
X36043Y-20922D01*
X36217Y-20805D01*
X36239Y-20784D01*
X36264Y-20767D01*
X36412Y-20619D01*
X36429Y-20594D01*
X36450Y-20573D01*
X36567Y-20398D01*
X36578Y-20370D01*
X36595Y-20345D01*
X36675Y-20151D01*
X36681Y-20122D01*
X36693Y-20094D01*
X36734Y-19888D01*
X36734Y-19858D01*
X36740Y-19828D01*
X36740Y-19723D01*
X36740Y-18034D01*
X37046Y-17728D01*
X37383Y-17263D01*
X37644Y-16751D01*
X37822Y-16205D01*
X37912Y-15637D01*
Y-15063D01*
X37822Y-14495D01*
X37644Y-13949D01*
X37383Y-13437D01*
X37046Y-12972D01*
X36639Y-12566D01*
X36175Y-12228D01*
X35663Y-11967D01*
X35116Y-11790D01*
X34549Y-11700D01*
X33974D01*
X33407Y-11790D01*
X32860Y-11967D01*
X32349Y-12228D01*
X31884Y-12566D01*
X31789Y-12660D01*
X29129Y-10001D01*
X29119Y-9994D01*
X29112Y-9984D01*
X29018Y-9904D01*
X29002Y-9895D01*
X28989Y-9882D01*
X28906Y-9827D01*
X28879Y-9816D01*
X28854Y-9799D01*
X28716Y-9742D01*
X28686Y-9736D01*
X28659Y-9724D01*
X28512Y-9695D01*
X28482D01*
X28453Y-9689D01*
D02*
G37*
G36*
X-27735Y-9781D02*
X-27756Y-9785D01*
X-27777Y-9785D01*
X-28233Y-9876D01*
X-28252Y-9884D01*
X-28273Y-9888D01*
X-28702Y-10066D01*
X-28720Y-10078D01*
X-28739Y-10086D01*
X-29126Y-10344D01*
X-29141Y-10359D01*
X-29158Y-10371D01*
X-29322Y-10535D01*
X-29322Y-10535D01*
X-31763Y-12975D01*
X-31922Y-12816D01*
X-32387Y-12478D01*
X-32899Y-12217D01*
X-33445Y-12040D01*
X-34013Y-11950D01*
X-34587D01*
X-35155Y-12040D01*
X-35701Y-12217D01*
X-36213Y-12478D01*
X-36678Y-12816D01*
X-37084Y-13222D01*
X-37422Y-13687D01*
X-37683Y-14199D01*
X-37860Y-14745D01*
X-37950Y-15313D01*
Y-15887D01*
X-37860Y-16455D01*
X-37683Y-17001D01*
X-37422Y-17513D01*
X-37084Y-17978D01*
X-36678Y-18384D01*
X-36461Y-18541D01*
Y-19024D01*
X-36461Y-19139D01*
X-36457Y-19159D01*
X-36457Y-19180D01*
X-36412Y-19406D01*
X-36404Y-19425D01*
X-36400Y-19446D01*
X-36312Y-19658D01*
X-36300Y-19676D01*
X-36292Y-19696D01*
X-36164Y-19887D01*
X-36150Y-19902D01*
X-36138Y-19919D01*
X-35975Y-20082D01*
X-35958Y-20093D01*
X-35943Y-20108D01*
X-35752Y-20236D01*
X-35732Y-20244D01*
X-35715Y-20256D01*
X-35502Y-20344D01*
X-35481Y-20348D01*
X-35462Y-20356D01*
X-35236Y-20401D01*
X-35215Y-20401D01*
X-35195Y-20405D01*
X-35080Y-20405D01*
X-26468Y-20405D01*
X-26339Y-20405D01*
X-26319Y-20401D01*
X-26298D01*
X-26045Y-20351D01*
X-26026Y-20343D01*
X-26005Y-20339D01*
X-25768Y-20240D01*
X-25750Y-20229D01*
X-25731Y-20220D01*
X-25517Y-20078D01*
X-25502Y-20063D01*
X-25485Y-20051D01*
X-25394Y-19960D01*
X-25394Y-19960D01*
X-24676Y-19242D01*
X-24664Y-19225D01*
X-24649Y-19210D01*
X-24529Y-19030D01*
X-24521Y-19010D01*
X-24509Y-18993D01*
X-24426Y-18792D01*
X-24422Y-18772D01*
X-24414Y-18752D01*
X-24371Y-18539D01*
Y-18518D01*
X-24367Y-18498D01*
Y-18389D01*
X-24367Y-18389D01*
X-24367Y-12517D01*
X-24367Y-12337D01*
X-24371Y-12316D01*
Y-12295D01*
X-24442Y-11942D01*
X-24450Y-11922D01*
X-24454Y-11901D01*
X-24592Y-11569D01*
X-24603Y-11551D01*
X-24611Y-11532D01*
X-24812Y-11232D01*
X-24827Y-11217D01*
X-24838Y-11200D01*
X-24966Y-11072D01*
X-24966Y-11072D01*
X-25720Y-10318D01*
X-25833Y-10205D01*
X-25850Y-10194D01*
X-25865Y-10179D01*
X-26130Y-10001D01*
X-26150Y-9993D01*
X-26167Y-9982D01*
X-26462Y-9860D01*
X-26482Y-9856D01*
X-26502Y-9848D01*
X-26815Y-9785D01*
X-26836Y-9785D01*
X-26856Y-9781D01*
X-27016Y-9781D01*
X-27016Y-9781D01*
X-27503Y-9781D01*
X-27735Y-9781D01*
D02*
G37*
G36*
X36573Y-22050D02*
X36150D01*
X35734Y-22133D01*
X35343Y-22295D01*
X34991Y-22530D01*
X34692Y-22829D01*
X34456Y-23182D01*
X34294Y-23573D01*
X34212Y-23988D01*
Y-24412D01*
X34294Y-24827D01*
X34456Y-25218D01*
X34692Y-25571D01*
X34991Y-25870D01*
X35343Y-26105D01*
X35734Y-26267D01*
X36150Y-26350D01*
X36573D01*
X36989Y-26267D01*
X37380Y-26105D01*
X37732Y-25870D01*
X38032Y-25571D01*
X38267Y-25218D01*
X38429Y-24827D01*
X38512Y-24412D01*
Y-23988D01*
X38429Y-23573D01*
X38267Y-23182D01*
X38032Y-22829D01*
X37732Y-22530D01*
X37380Y-22295D01*
X36989Y-22133D01*
X36573Y-22050D01*
D02*
G37*
G36*
X28973D02*
X28550D01*
X28134Y-22133D01*
X27743Y-22295D01*
X27391Y-22530D01*
X27092Y-22829D01*
X26856Y-23182D01*
X26694Y-23573D01*
X26612Y-23988D01*
Y-24412D01*
X26694Y-24827D01*
X26856Y-25218D01*
X27092Y-25571D01*
X27391Y-25870D01*
X27743Y-26105D01*
X28134Y-26267D01*
X28550Y-26350D01*
X28973D01*
X29389Y-26267D01*
X29780Y-26105D01*
X30132Y-25870D01*
X30432Y-25571D01*
X30667Y-25218D01*
X30829Y-24827D01*
X30912Y-24412D01*
Y-23988D01*
X30829Y-23573D01*
X30667Y-23182D01*
X30432Y-22829D01*
X30132Y-22530D01*
X29780Y-22295D01*
X29389Y-22133D01*
X28973Y-22050D01*
D02*
G37*
G36*
X-28588Y-22050D02*
X-29012D01*
X-29427Y-22133D01*
X-29818Y-22295D01*
X-30171Y-22530D01*
X-30470Y-22829D01*
X-30705Y-23182D01*
X-30867Y-23573D01*
X-30950Y-23988D01*
Y-24412D01*
X-30867Y-24827D01*
X-30705Y-25218D01*
X-30470Y-25571D01*
X-30171Y-25870D01*
X-29818Y-26105D01*
X-29427Y-26267D01*
X-29012Y-26350D01*
X-28588D01*
X-28173Y-26267D01*
X-27782Y-26105D01*
X-27429Y-25870D01*
X-27130Y-25571D01*
X-26895Y-25218D01*
X-26733Y-24827D01*
X-26650Y-24412D01*
Y-23988D01*
X-26733Y-23573D01*
X-26895Y-23182D01*
X-27130Y-22829D01*
X-27429Y-22530D01*
X-27782Y-22295D01*
X-28173Y-22133D01*
X-28588Y-22050D01*
D02*
G37*
G36*
X-10610Y-28119D02*
X-10764D01*
X-10921Y-28150D01*
X-11053Y-28239D01*
X-11142Y-28372D01*
X-11173Y-28528D01*
Y-28807D01*
X-10610D01*
Y-28119D01*
D02*
G37*
G36*
X1130Y-29407D02*
X567D01*
Y-30095D01*
X721D01*
X877Y-30064D01*
X1010Y-29975D01*
X1099Y-29842D01*
X1130Y-29686D01*
Y-29407D01*
D02*
G37*
G36*
X-10610D02*
X-11173D01*
Y-29686D01*
X-11142Y-29842D01*
X-11053Y-29975D01*
X-10921Y-30064D01*
X-10764Y-30095D01*
X-10610D01*
Y-29407D01*
D02*
G37*
G36*
X-35750Y-29675D02*
Y-30175D01*
X-35250D01*
X-35258Y-30147D01*
X-35370Y-29953D01*
X-35528Y-29795D01*
X-35722Y-29683D01*
X-35750Y-29675D01*
D02*
G37*
G36*
X-36350Y-29675D02*
X-36378Y-29683D01*
X-36572Y-29795D01*
X-36730Y-29953D01*
X-36842Y-30147D01*
X-36850Y-30175D01*
X-36350D01*
Y-29675D01*
D02*
G37*
G36*
X721Y-30533D02*
X567D01*
Y-31221D01*
X1130D01*
Y-30943D01*
X1099Y-30786D01*
X1010Y-30653D01*
X877Y-30565D01*
X721Y-30533D01*
D02*
G37*
G36*
X-10610D02*
X-10764D01*
X-10921Y-30565D01*
X-11053Y-30653D01*
X-11142Y-30786D01*
X-11173Y-30943D01*
Y-31221D01*
X-10610D01*
Y-30533D01*
D02*
G37*
G36*
X17898Y-30964D02*
X16820D01*
Y-31692D01*
X18349D01*
Y-31415D01*
X18315Y-31242D01*
X18217Y-31096D01*
X18071Y-30998D01*
X17898Y-30964D01*
D02*
G37*
G36*
X16220D02*
X15143D01*
X14970Y-30998D01*
X14824Y-31096D01*
X14726Y-31242D01*
X14692Y-31415D01*
Y-31692D01*
X16220D01*
Y-30964D01*
D02*
G37*
G36*
X34208Y-31082D02*
X33856D01*
Y-32126D01*
X34685D01*
Y-31558D01*
X34649Y-31376D01*
X34546Y-31221D01*
X34391Y-31118D01*
X34208Y-31082D01*
D02*
G37*
G36*
X33256D02*
X32903D01*
X32721Y-31118D01*
X32566Y-31221D01*
X32463Y-31376D01*
X32427Y-31558D01*
Y-32126D01*
X33256D01*
Y-31082D01*
D02*
G37*
G36*
X-32777D02*
X-33129D01*
Y-32126D01*
X-32300D01*
Y-31558D01*
X-32336Y-31376D01*
X-32439Y-31221D01*
X-32594Y-31118D01*
X-32777Y-31082D01*
D02*
G37*
G36*
X37229Y-29475D02*
X35229D01*
Y-31475D01*
X35487D01*
X35533Y-31541D01*
X35627Y-31875D01*
X35549Y-31953D01*
X35437Y-32147D01*
X35430Y-32175D01*
X36229D01*
X37029D01*
X37021Y-32147D01*
X36909Y-31953D01*
X36831Y-31875D01*
X36926Y-31541D01*
X36972Y-31475D01*
X37229D01*
Y-29475D01*
D02*
G37*
G36*
X1130Y-31821D02*
X567D01*
Y-32509D01*
X721D01*
X877Y-32478D01*
X1010Y-32389D01*
X1099Y-32257D01*
X1130Y-32100D01*
Y-31821D01*
D02*
G37*
G36*
X-10610D02*
X-11173D01*
Y-32100D01*
X-11142Y-32257D01*
X-11053Y-32389D01*
X-10921Y-32478D01*
X-10764Y-32509D01*
X-10610D01*
Y-31821D01*
D02*
G37*
G36*
X18349Y-32292D02*
X16820D01*
Y-33021D01*
X17898D01*
X18071Y-32987D01*
X18217Y-32889D01*
X18315Y-32742D01*
X18349Y-32570D01*
Y-32292D01*
D02*
G37*
G36*
X16220D02*
X14692D01*
Y-32570D01*
X14726Y-32742D01*
X14824Y-32889D01*
X14970Y-32987D01*
X15143Y-33021D01*
X16220D01*
Y-32292D01*
D02*
G37*
G36*
X37029Y-32775D02*
X36529D01*
Y-33275D01*
X36557Y-33267D01*
X36751Y-33155D01*
X36909Y-32997D01*
X37021Y-32803D01*
X37029Y-32775D01*
D02*
G37*
G36*
X35929D02*
X35430D01*
X35437Y-32803D01*
X35549Y-32997D01*
X35707Y-33155D01*
X35901Y-33267D01*
X35929Y-33275D01*
Y-32775D01*
D02*
G37*
G36*
X34685Y-32726D02*
X33856D01*
Y-33770D01*
X34208D01*
X34391Y-33734D01*
X34546Y-33630D01*
X34649Y-33476D01*
X34685Y-33293D01*
Y-32726D01*
D02*
G37*
G36*
X33256D02*
X32427D01*
Y-33293D01*
X32463Y-33476D01*
X32566Y-33630D01*
X32721Y-33734D01*
X32903Y-33770D01*
X33256D01*
Y-32726D01*
D02*
G37*
G36*
X-32300D02*
X-33129D01*
Y-33770D01*
X-32777D01*
X-32594Y-33734D01*
X-32439Y-33630D01*
X-32336Y-33476D01*
X-32300Y-33293D01*
Y-32726D01*
D02*
G37*
G36*
X36341Y-34140D02*
X36118D01*
X35912Y-34225D01*
X35754Y-34383D01*
X35669Y-34589D01*
Y-34811D01*
X35670Y-34813D01*
X35078Y-35404D01*
X34644D01*
Y-35318D01*
X34611Y-35152D01*
X34517Y-35010D01*
X34375Y-34916D01*
X34208Y-34882D01*
X32903D01*
X32737Y-34916D01*
X32595Y-35010D01*
X32501Y-35152D01*
X32468Y-35318D01*
Y-35473D01*
X31780D01*
Y-34797D01*
X31745Y-34620D01*
X31645Y-34470D01*
X31495Y-34370D01*
X31318Y-34335D01*
X28405D01*
X28228Y-34370D01*
X28078Y-34470D01*
X27978Y-34620D01*
X27943Y-34797D01*
Y-36260D01*
X27978Y-36437D01*
X28078Y-36587D01*
X28228Y-36687D01*
X28405Y-36722D01*
X31318D01*
X31495Y-36687D01*
X31645Y-36587D01*
X31745Y-36437D01*
X31780Y-36260D01*
Y-36105D01*
X32468D01*
Y-37053D01*
X32501Y-37220D01*
X32595Y-37362D01*
X32737Y-37456D01*
X32903Y-37489D01*
X34208D01*
X34375Y-37456D01*
X34517Y-37362D01*
X34611Y-37220D01*
X34644Y-37053D01*
Y-36036D01*
X35052D01*
X35209Y-36036D01*
X35229Y-36053D01*
X35229Y-37506D01*
X33323Y-39412D01*
X31780D01*
Y-38997D01*
X31745Y-38820D01*
X31645Y-38670D01*
X31495Y-38570D01*
X31318Y-38535D01*
X28405D01*
X28228Y-38570D01*
X28078Y-38670D01*
X27978Y-38820D01*
X27943Y-38997D01*
Y-40460D01*
X27978Y-40637D01*
X28078Y-40787D01*
X28228Y-40887D01*
X28405Y-40922D01*
X31318D01*
X31495Y-40887D01*
X31645Y-40787D01*
X31745Y-40637D01*
X31780Y-40460D01*
Y-40045D01*
X33454D01*
X33575Y-40020D01*
X33678Y-39952D01*
X35030Y-38600D01*
X35123Y-38653D01*
X36229D01*
X37029D01*
X37021Y-38625D01*
X36909Y-38432D01*
X36831Y-38353D01*
X36926Y-38020D01*
X36972Y-37953D01*
X37229D01*
Y-35953D01*
X35988D01*
X35823Y-35553D01*
X36117Y-35260D01*
X36118Y-35260D01*
X36341D01*
X36546Y-35175D01*
X36704Y-35017D01*
X36789Y-34811D01*
Y-34589D01*
X36704Y-34383D01*
X36546Y-34225D01*
X36341Y-34140D01*
D02*
G37*
G36*
X-35750Y-36154D02*
Y-36653D01*
X-35250D01*
X-35258Y-36625D01*
X-35370Y-36432D01*
X-35528Y-36273D01*
X-35722Y-36161D01*
X-35750Y-36154D01*
D02*
G37*
G36*
X-36350Y-36154D02*
X-36378Y-36161D01*
X-36572Y-36273D01*
X-36730Y-36432D01*
X-36842Y-36625D01*
X-36850Y-36653D01*
X-36350D01*
Y-36154D01*
D02*
G37*
G36*
X35929Y-39253D02*
X35430D01*
X35437Y-39282D01*
X35549Y-39475D01*
X35707Y-39634D01*
X35901Y-39746D01*
X35929Y-39753D01*
Y-39253D01*
D02*
G37*
G36*
X37029D02*
X36529D01*
Y-39753D01*
X36557Y-39746D01*
X36751Y-39634D01*
X36909Y-39475D01*
X37021Y-39282D01*
X37029Y-39253D01*
D02*
G37*
G36*
X-35250Y-37253D02*
X-36050D01*
X-36850D01*
X-36842Y-37282D01*
X-36730Y-37475D01*
X-36652Y-37553D01*
X-36747Y-37887D01*
X-36792Y-37953D01*
X-37050D01*
Y-39953D01*
X-35050D01*
Y-39771D01*
X-31619D01*
Y-40460D01*
X-31584Y-40637D01*
X-31483Y-40787D01*
X-31333Y-40887D01*
X-31156Y-40922D01*
X-28244D01*
X-28067Y-40887D01*
X-27917Y-40787D01*
X-27816Y-40637D01*
X-27781Y-40460D01*
Y-38997D01*
X-27816Y-38820D01*
X-27917Y-38670D01*
X-28067Y-38570D01*
X-28244Y-38535D01*
X-31156D01*
X-31333Y-38570D01*
X-31483Y-38670D01*
X-31584Y-38820D01*
X-31619Y-38997D01*
Y-39036D01*
X-35050D01*
Y-37953D01*
X-35308D01*
X-35353Y-37887D01*
X-35448Y-37553D01*
X-35370Y-37475D01*
X-35258Y-37282D01*
X-35250Y-37253D01*
D02*
G37*
G36*
X291Y-44454D02*
X-144D01*
X-254Y-44476D01*
X-347Y-44539D01*
X-410Y-44632D01*
X-432Y-44742D01*
Y-44984D01*
X-566D01*
X-687Y-45008D01*
X-790Y-45076D01*
X-1000Y-45287D01*
X-1370Y-45134D01*
Y-45100D01*
X-3369D01*
Y-45358D01*
X-3436Y-45403D01*
X-3770Y-45498D01*
X-3848Y-45420D01*
X-4041Y-45308D01*
X-4070Y-45300D01*
Y-46100D01*
Y-46900D01*
X-4041Y-46892D01*
X-3848Y-46780D01*
X-3770Y-46702D01*
X-3436Y-46797D01*
X-3369Y-46842D01*
Y-47100D01*
X-1370D01*
Y-46416D01*
X-1366D01*
X-1245Y-46392D01*
X-1143Y-46323D01*
X-813Y-45993D01*
X-699Y-45986D01*
X-347Y-46061D01*
X-295Y-46096D01*
X-279Y-46322D01*
X-304Y-46522D01*
X-376Y-46570D01*
X-447Y-46677D01*
X-472Y-46802D01*
Y-47060D01*
X74D01*
X620D01*
Y-46802D01*
X595Y-46677D01*
X524Y-46570D01*
X451Y-46522D01*
X426Y-46322D01*
X443Y-46096D01*
X495Y-46061D01*
X557Y-45968D01*
X579Y-45857D01*
Y-44742D01*
X557Y-44632D01*
X495Y-44539D01*
X402Y-44476D01*
X291Y-44454D01*
D02*
G37*
G36*
X11891Y-45100D02*
X9891D01*
Y-45120D01*
X9556Y-45276D01*
X9491Y-45292D01*
X9277Y-45168D01*
X9023Y-45100D01*
X8760D01*
X8505Y-45168D01*
X8277Y-45300D01*
X8091Y-45486D01*
X7960Y-45714D01*
X7891Y-45968D01*
Y-46232D01*
X7960Y-46486D01*
X8091Y-46714D01*
X8277Y-46900D01*
X8505Y-47032D01*
X8760Y-47100D01*
X9023D01*
X9277Y-47032D01*
X9491Y-46908D01*
X9556Y-46924D01*
X9891Y-47080D01*
Y-47100D01*
X11891D01*
Y-45100D01*
D02*
G37*
G36*
X-6307Y-44454D02*
X-6742D01*
X-6853Y-44476D01*
X-6946Y-44539D01*
X-7009Y-44632D01*
X-7030Y-44742D01*
Y-44984D01*
X-8200D01*
X-8321Y-45008D01*
X-8424Y-45076D01*
X-8447Y-45100D01*
X-10000D01*
Y-45358D01*
X-10066Y-45403D01*
X-10400Y-45498D01*
X-10478Y-45420D01*
X-10672Y-45308D01*
X-10700Y-45300D01*
Y-46100D01*
Y-46900D01*
X-10672Y-46892D01*
X-10478Y-46780D01*
X-10400Y-46702D01*
X-10066Y-46797D01*
X-10000Y-46842D01*
Y-47100D01*
X-8000D01*
Y-45616D01*
X-7030D01*
Y-45857D01*
X-7009Y-45968D01*
X-6946Y-46061D01*
X-6894Y-46096D01*
X-6878Y-46322D01*
X-6902Y-46522D01*
X-6975Y-46570D01*
X-7046Y-46677D01*
X-7071Y-46802D01*
Y-47060D01*
X-6525D01*
X-5979D01*
Y-46802D01*
X-6004Y-46677D01*
X-6075Y-46570D01*
X-6147Y-46522D01*
X-6172Y-46322D01*
X-6156Y-46096D01*
X-6104Y-46061D01*
X-6041Y-45968D01*
X-6019Y-45857D01*
Y-44742D01*
X-6041Y-44632D01*
X-6104Y-44539D01*
X-6197Y-44476D01*
X-6307Y-44454D01*
D02*
G37*
G36*
X-4670Y-45300D02*
X-4698Y-45308D01*
X-4891Y-45420D01*
X-5050Y-45578D01*
X-5162Y-45772D01*
X-5169Y-45800D01*
X-4670D01*
Y-45300D01*
D02*
G37*
G36*
X-11300D02*
X-11328Y-45308D01*
X-11522Y-45420D01*
X-11680Y-45578D01*
X-11792Y-45772D01*
X-11800Y-45800D01*
X-11300D01*
Y-45300D01*
D02*
G37*
G36*
X-4670Y-46400D02*
X-5169D01*
X-5162Y-46428D01*
X-5050Y-46622D01*
X-4891Y-46780D01*
X-4698Y-46892D01*
X-4670Y-46900D01*
Y-46400D01*
D02*
G37*
G36*
X-11300D02*
X-11800D01*
X-11792Y-46428D01*
X-11680Y-46622D01*
X-11522Y-46780D01*
X-11328Y-46892D01*
X-11300Y-46900D01*
Y-46400D01*
D02*
G37*
G36*
X-5979Y-47660D02*
X-6225D01*
Y-48230D01*
X-6182Y-48221D01*
X-6075Y-48150D01*
X-6004Y-48043D01*
X-5979Y-47917D01*
Y-47660D01*
D02*
G37*
G36*
X620D02*
X374D01*
Y-48230D01*
X417Y-48221D01*
X524Y-48150D01*
X595Y-48043D01*
X620Y-47917D01*
Y-47660D01*
D02*
G37*
G36*
X-226D02*
X-472D01*
Y-47917D01*
X-447Y-48043D01*
X-376Y-48150D01*
X-269Y-48221D01*
X-226Y-48230D01*
Y-47660D01*
D02*
G37*
G36*
X-6825D02*
X-7071D01*
Y-47917D01*
X-7046Y-48043D01*
X-6975Y-48150D01*
X-6868Y-48221D01*
X-6825Y-48230D01*
Y-47660D01*
D02*
G37*
G36*
X25685Y-41350D02*
X25111D01*
X24543Y-41440D01*
X23997Y-41617D01*
X23485Y-41878D01*
X23020Y-42216D01*
X22614Y-42622D01*
X22276Y-43087D01*
X22015Y-43599D01*
X21838Y-44145D01*
X21748Y-44713D01*
Y-45287D01*
X21838Y-45855D01*
X22015Y-46401D01*
X22276Y-46913D01*
X22614Y-47378D01*
X23020Y-47784D01*
X23485Y-48122D01*
X23997Y-48383D01*
X24543Y-48560D01*
X25111Y-48650D01*
X25685D01*
X26253Y-48560D01*
X26799Y-48383D01*
X27311Y-48122D01*
X27776Y-47784D01*
X28182Y-47378D01*
X28520Y-46913D01*
X28781Y-46401D01*
X28958Y-45855D01*
X29048Y-45287D01*
Y-44713D01*
X28958Y-44145D01*
X28781Y-43599D01*
X28520Y-43087D01*
X28182Y-42622D01*
X27776Y-42216D01*
X27311Y-41878D01*
X26799Y-41617D01*
X26253Y-41440D01*
X25685Y-41350D01*
D02*
G37*
G36*
X-25208D02*
X-25782D01*
X-26350Y-41440D01*
X-26896Y-41617D01*
X-27408Y-41878D01*
X-27873Y-42216D01*
X-28279Y-42622D01*
X-28617Y-43087D01*
X-28878Y-43599D01*
X-29055Y-44145D01*
X-29145Y-44713D01*
Y-45287D01*
X-29055Y-45855D01*
X-28878Y-46401D01*
X-28617Y-46913D01*
X-28279Y-47378D01*
X-27873Y-47784D01*
X-27408Y-48122D01*
X-26896Y-48383D01*
X-26350Y-48560D01*
X-25782Y-48650D01*
X-25208D01*
X-24640Y-48560D01*
X-24094Y-48383D01*
X-23582Y-48122D01*
X-23117Y-47784D01*
X-22711Y-47378D01*
X-22373Y-46913D01*
X-22112Y-46401D01*
X-21935Y-45855D01*
X-21845Y-45287D01*
Y-44713D01*
X-21935Y-44145D01*
X-22112Y-43599D01*
X-22373Y-43087D01*
X-22711Y-42622D01*
X-23117Y-42216D01*
X-23582Y-41878D01*
X-24094Y-41617D01*
X-24640Y-41440D01*
X-25208Y-41350D01*
D02*
G37*
G36*
X35287Y-41350D02*
X34713D01*
X34145Y-41440D01*
X33599Y-41617D01*
X33087Y-41878D01*
X32622Y-42216D01*
X32216Y-42622D01*
X31878Y-43087D01*
X31617Y-43599D01*
X31440Y-44145D01*
X31350Y-44713D01*
Y-45287D01*
X31440Y-45855D01*
X31617Y-46401D01*
X31878Y-46913D01*
X32216Y-47378D01*
X32622Y-47784D01*
X33087Y-48122D01*
X33599Y-48383D01*
X34145Y-48560D01*
X34713Y-48650D01*
X35287D01*
X35855Y-48560D01*
X36401Y-48383D01*
X36913Y-48122D01*
X37378Y-47784D01*
X37784Y-47378D01*
X38122Y-46913D01*
X38383Y-46401D01*
X38560Y-45855D01*
X38650Y-45287D01*
Y-44713D01*
X38560Y-44145D01*
X38383Y-43599D01*
X38122Y-43087D01*
X37784Y-42622D01*
X37378Y-42216D01*
X36913Y-41878D01*
X36401Y-41617D01*
X35855Y-41440D01*
X35287Y-41350D01*
D02*
G37*
G36*
X-34713D02*
X-35287D01*
X-35855Y-41440D01*
X-36401Y-41617D01*
X-36913Y-41878D01*
X-37378Y-42216D01*
X-37784Y-42622D01*
X-38122Y-43087D01*
X-38383Y-43599D01*
X-38560Y-44145D01*
X-38650Y-44713D01*
Y-45287D01*
X-38560Y-45855D01*
X-38383Y-46401D01*
X-38122Y-46913D01*
X-37784Y-47378D01*
X-37378Y-47784D01*
X-36913Y-48122D01*
X-36401Y-48383D01*
X-35855Y-48560D01*
X-35287Y-48650D01*
X-34713D01*
X-34145Y-48560D01*
X-33599Y-48383D01*
X-33087Y-48122D01*
X-32622Y-47784D01*
X-32216Y-47378D01*
X-31878Y-46913D01*
X-31617Y-46401D01*
X-31440Y-45855D01*
X-31350Y-45287D01*
Y-44713D01*
X-31440Y-44145D01*
X-31617Y-43599D01*
X-31878Y-43087D01*
X-32216Y-42622D01*
X-32622Y-42216D01*
X-33087Y-41878D01*
X-33599Y-41617D01*
X-34145Y-41440D01*
X-34713Y-41350D01*
D02*
G37*
%LPD*%
G36*
X21063Y48100D02*
X21161Y48100D01*
X21355Y48062D01*
X21537Y47986D01*
X21700Y47877D01*
X21840Y47737D01*
X21949Y47574D01*
X22025Y47392D01*
X22059Y47218D01*
X22063Y47100D01*
Y47100D01*
X22063D01*
X22063Y47100D01*
Y46388D01*
X21953Y46324D01*
X21800Y46413D01*
X21617Y46461D01*
Y45248D01*
Y44034D01*
X21800Y44083D01*
X21953Y44171D01*
X22063Y44108D01*
X22063Y40088D01*
X22063Y39966D01*
X22015Y39727D01*
X21922Y39502D01*
X21787Y39299D01*
X21614Y39126D01*
X21411Y38991D01*
X21186Y38898D01*
X20947Y38850D01*
X20825Y38850D01*
X20825Y38850D01*
Y38850D01*
X17313D01*
X17190Y38850D01*
X16948Y38898D01*
X16721Y38992D01*
X16516Y39129D01*
X16342Y39303D01*
X16205Y39508D01*
X16111Y39735D01*
X16063Y39977D01*
X16063Y40100D01*
X16063Y40100D01*
Y46850D01*
Y46973D01*
X16111Y47215D01*
X16205Y47442D01*
X16342Y47647D01*
X16516Y47821D01*
X16721Y47958D01*
X16948Y48052D01*
X17190Y48100D01*
X17313D01*
X17313Y48100D01*
X21063Y48100D01*
D02*
G37*
%LPC*%
G36*
X21017Y46461D02*
X20835Y46413D01*
X20550Y46248D01*
X20317Y46015D01*
X20152Y45730D01*
X20131Y45649D01*
X20004D01*
X19982Y45730D01*
X19817Y46015D01*
X19585Y46248D01*
X19300Y46413D01*
X19117Y46461D01*
Y45248D01*
Y44034D01*
X19300Y44083D01*
X19585Y44247D01*
X19817Y44480D01*
X19982Y44765D01*
X20004Y44846D01*
X20131D01*
X20152Y44765D01*
X20317Y44480D01*
X20550Y44247D01*
X20835Y44083D01*
X21017Y44034D01*
Y45248D01*
Y46461D01*
D02*
G37*
G36*
X18517Y46461D02*
X18335Y46413D01*
X18050Y46248D01*
X17817Y46015D01*
X17652Y45730D01*
X17604Y45548D01*
X18517D01*
Y46461D01*
D02*
G37*
G36*
Y44948D02*
X17604D01*
X17652Y44765D01*
X17817Y44480D01*
X18050Y44247D01*
X18335Y44083D01*
X18517Y44034D01*
Y44948D01*
D02*
G37*
G36*
X21240Y43553D02*
X20730D01*
Y42222D01*
X21770D01*
Y43023D01*
X21729Y43226D01*
X21614Y43398D01*
X21442Y43513D01*
X21240Y43553D01*
D02*
G37*
G36*
X20130D02*
X19620D01*
X19417Y43513D01*
X19246Y43398D01*
X19131Y43226D01*
X19090Y43023D01*
Y42222D01*
X20130D01*
Y43553D01*
D02*
G37*
G36*
X21770Y41622D02*
X20730D01*
Y40290D01*
X21240D01*
X21442Y40330D01*
X21614Y40445D01*
X21729Y40617D01*
X21770Y40820D01*
Y41622D01*
D02*
G37*
G36*
X20130D02*
X19090D01*
Y40820D01*
X19131Y40617D01*
X19246Y40445D01*
X19417Y40330D01*
X19620Y40290D01*
X20130D01*
Y41622D01*
D02*
G37*
%LPD*%
G36*
X-8800Y48100D02*
X-8702Y48100D01*
X-8508Y48062D01*
X-8326Y47986D01*
X-8163Y47877D01*
X-8023Y47737D01*
X-7914Y47574D01*
X-7838Y47392D01*
X-7804Y47218D01*
X-7800Y47100D01*
Y47100D01*
X-7800D01*
X-7800Y47100D01*
Y46192D01*
X-7927Y46139D01*
X-8036Y46248D01*
X-8321Y46413D01*
X-8503Y46461D01*
Y45248D01*
Y44034D01*
X-8321Y44083D01*
X-8036Y44247D01*
X-7927Y44356D01*
X-7800Y44304D01*
X-7800Y40088D01*
X-7800Y39966D01*
X-7848Y39727D01*
X-7941Y39502D01*
X-8076Y39299D01*
X-8249Y39126D01*
X-8452Y38991D01*
X-8677Y38898D01*
X-8916Y38850D01*
X-9038Y38850D01*
X-9038Y38850D01*
Y38850D01*
X-12550D01*
X-12673Y38850D01*
X-12915Y38898D01*
X-13142Y38992D01*
X-13347Y39129D01*
X-13521Y39303D01*
X-13658Y39508D01*
X-13752Y39735D01*
X-13800Y39977D01*
X-13800Y40100D01*
X-13800Y40100D01*
Y46850D01*
Y46973D01*
X-13752Y47215D01*
X-13658Y47442D01*
X-13521Y47647D01*
X-13347Y47821D01*
X-13142Y47958D01*
X-12915Y48052D01*
X-12673Y48100D01*
X-12550D01*
X-12550Y48100D01*
X-8800Y48100D01*
D02*
G37*
%LPC*%
G36*
X-9103Y46461D02*
X-9286Y46413D01*
X-9571Y46248D01*
X-9803Y46015D01*
X-9968Y45730D01*
X-9990Y45649D01*
X-10117D01*
X-10138Y45730D01*
X-10303Y46015D01*
X-10536Y46248D01*
X-10821Y46413D01*
X-11003Y46461D01*
Y45248D01*
Y44034D01*
X-10821Y44083D01*
X-10536Y44247D01*
X-10303Y44480D01*
X-10138Y44765D01*
X-10117Y44846D01*
X-9990D01*
X-9968Y44765D01*
X-9803Y44480D01*
X-9571Y44247D01*
X-9286Y44083D01*
X-9103Y44034D01*
Y45248D01*
Y46461D01*
D02*
G37*
G36*
X-11603Y46461D02*
X-11786Y46413D01*
X-12071Y46248D01*
X-12303Y46015D01*
X-12468Y45730D01*
X-12517Y45548D01*
X-11603D01*
Y46461D01*
D02*
G37*
G36*
Y44948D02*
X-12517D01*
X-12468Y44765D01*
X-12303Y44480D01*
X-12071Y44247D01*
X-11786Y44083D01*
X-11603Y44034D01*
Y44948D01*
D02*
G37*
G36*
X-8623Y43553D02*
X-9133D01*
Y42222D01*
X-8093D01*
Y43023D01*
X-8134Y43226D01*
X-8249Y43398D01*
X-8421Y43513D01*
X-8623Y43553D01*
D02*
G37*
G36*
X-9733D02*
X-10243D01*
X-10445Y43513D01*
X-10617Y43398D01*
X-10732Y43226D01*
X-10773Y43023D01*
Y42222D01*
X-9733D01*
Y43553D01*
D02*
G37*
G36*
X-8093Y41622D02*
X-9133D01*
Y40290D01*
X-8623D01*
X-8421Y40330D01*
X-8249Y40445D01*
X-8134Y40617D01*
X-8093Y40820D01*
Y41622D01*
D02*
G37*
G36*
X-9733D02*
X-10773D01*
Y40820D01*
X-10732Y40617D01*
X-10617Y40445D01*
X-10445Y40330D01*
X-10243Y40290D01*
X-9733D01*
Y41622D01*
D02*
G37*
%LPD*%
G36*
X6003Y48100D02*
X6101Y48100D01*
X6294Y48062D01*
X6476Y47986D01*
X6640Y47877D01*
X6779Y47737D01*
X6889Y47574D01*
X6964Y47392D01*
X6999Y47218D01*
X7003Y47100D01*
Y47100D01*
X7003D01*
X7003Y47100D01*
Y46445D01*
X6893Y46382D01*
X6839Y46413D01*
X6657Y46461D01*
Y45248D01*
Y44034D01*
X6839Y44083D01*
X6893Y44114D01*
X7003Y44050D01*
X7003Y40088D01*
X7003Y39966D01*
X6955Y39727D01*
X6862Y39502D01*
X6726Y39299D01*
X6554Y39126D01*
X6351Y38991D01*
X6126Y38898D01*
X5886Y38850D01*
X5765Y38850D01*
X5765Y38850D01*
Y38850D01*
X2253D01*
X2130Y38850D01*
X1888Y38898D01*
X1661Y38992D01*
X1456Y39129D01*
X1282Y39303D01*
X1145Y39508D01*
X1051Y39735D01*
X1003Y39977D01*
X1003Y40100D01*
X1003Y40100D01*
Y46850D01*
Y46973D01*
X1051Y47215D01*
X1145Y47442D01*
X1282Y47647D01*
X1456Y47821D01*
X1661Y47958D01*
X1888Y48052D01*
X2130Y48100D01*
X2253D01*
X2253Y48100D01*
X6003Y48100D01*
D02*
G37*
%LPC*%
G36*
X6057Y46461D02*
X5875Y46413D01*
X5589Y46248D01*
X5357Y46015D01*
X5192Y45730D01*
X5170Y45649D01*
X5043D01*
X5022Y45730D01*
X4857Y46015D01*
X4625Y46248D01*
X4339Y46413D01*
X4157Y46461D01*
Y45248D01*
Y44034D01*
X4339Y44083D01*
X4625Y44247D01*
X4857Y44480D01*
X5022Y44765D01*
X5043Y44846D01*
X5170D01*
X5192Y44765D01*
X5357Y44480D01*
X5589Y44247D01*
X5875Y44083D01*
X6057Y44034D01*
Y45248D01*
Y46461D01*
D02*
G37*
G36*
X3557Y46461D02*
X3375Y46413D01*
X3089Y46248D01*
X2857Y46015D01*
X2692Y45730D01*
X2643Y45548D01*
X3557D01*
Y46461D01*
D02*
G37*
G36*
Y44948D02*
X2643D01*
X2692Y44765D01*
X2857Y44480D01*
X3089Y44247D01*
X3375Y44083D01*
X3557Y44034D01*
Y44948D01*
D02*
G37*
G36*
X6179Y43553D02*
X5670D01*
Y42222D01*
X6709D01*
Y43023D01*
X6669Y43226D01*
X6554Y43398D01*
X6382Y43513D01*
X6179Y43553D01*
D02*
G37*
G36*
X5070D02*
X4560D01*
X4357Y43513D01*
X4185Y43398D01*
X4070Y43226D01*
X4030Y43023D01*
Y42222D01*
X5070D01*
Y43553D01*
D02*
G37*
G36*
X6709Y41622D02*
X5670D01*
Y40290D01*
X6179D01*
X6382Y40330D01*
X6554Y40445D01*
X6669Y40617D01*
X6709Y40820D01*
Y41622D01*
D02*
G37*
G36*
X5070D02*
X4030D01*
Y40820D01*
X4070Y40617D01*
X4185Y40445D01*
X4357Y40330D01*
X4560Y40290D01*
X5070D01*
Y41622D01*
D02*
G37*
%LPD*%
G36*
X-23860Y48100D02*
X-23762Y48100D01*
X-23568Y48062D01*
X-23386Y47986D01*
X-23223Y47877D01*
X-23083Y47737D01*
X-22974Y47574D01*
X-22898Y47392D01*
X-22864Y47218D01*
X-22860Y47100D01*
Y47100D01*
X-22860D01*
X-22860Y47100D01*
Y46192D01*
X-22987Y46139D01*
X-23095Y46248D01*
X-23381Y46413D01*
X-23563Y46461D01*
Y45248D01*
Y44034D01*
X-23381Y44083D01*
X-23095Y44247D01*
X-22987Y44356D01*
X-22860Y44303D01*
X-22860Y40088D01*
X-22860Y39966D01*
X-22908Y39727D01*
X-23001Y39502D01*
X-23136Y39299D01*
X-23309Y39126D01*
X-23512Y38991D01*
X-23737Y38898D01*
X-23976Y38850D01*
X-24098Y38850D01*
X-24098Y38850D01*
Y38850D01*
X-27610D01*
X-27733Y38850D01*
X-27975Y38898D01*
X-28202Y38992D01*
X-28407Y39129D01*
X-28581Y39303D01*
X-28718Y39508D01*
X-28812Y39735D01*
X-28860Y39977D01*
X-28860Y40100D01*
X-28860Y40100D01*
Y46850D01*
Y46973D01*
X-28812Y47215D01*
X-28718Y47442D01*
X-28581Y47647D01*
X-28407Y47821D01*
X-28202Y47958D01*
X-27975Y48052D01*
X-27733Y48100D01*
X-27610D01*
X-27610Y48100D01*
X-23860Y48100D01*
D02*
G37*
%LPC*%
G36*
X-24163Y46461D02*
X-24346Y46413D01*
X-24631Y46248D01*
X-24863Y46015D01*
X-25028Y45730D01*
X-25050Y45649D01*
X-25177D01*
X-25198Y45730D01*
X-25363Y46015D01*
X-25595Y46248D01*
X-25881Y46413D01*
X-26063Y46461D01*
Y45248D01*
Y44034D01*
X-25881Y44083D01*
X-25595Y44247D01*
X-25363Y44480D01*
X-25198Y44765D01*
X-25177Y44846D01*
X-25050D01*
X-25028Y44765D01*
X-24863Y44480D01*
X-24631Y44247D01*
X-24346Y44083D01*
X-24163Y44034D01*
Y45248D01*
Y46461D01*
D02*
G37*
G36*
X-26663Y46461D02*
X-26846Y46413D01*
X-27131Y46248D01*
X-27363Y46015D01*
X-27528Y45730D01*
X-27577Y45548D01*
X-26663D01*
Y46461D01*
D02*
G37*
G36*
Y44948D02*
X-27577D01*
X-27528Y44765D01*
X-27363Y44480D01*
X-27131Y44247D01*
X-26846Y44083D01*
X-26663Y44034D01*
Y44948D01*
D02*
G37*
G36*
X-23683Y43553D02*
X-24193D01*
Y42222D01*
X-23153D01*
Y43023D01*
X-23194Y43226D01*
X-23309Y43398D01*
X-23481Y43513D01*
X-23683Y43553D01*
D02*
G37*
G36*
X-24793D02*
X-25303D01*
X-25505Y43513D01*
X-25677Y43398D01*
X-25792Y43226D01*
X-25833Y43023D01*
Y42222D01*
X-24793D01*
Y43553D01*
D02*
G37*
G36*
X-23153Y41622D02*
X-24193D01*
Y40290D01*
X-23683D01*
X-23481Y40330D01*
X-23309Y40445D01*
X-23194Y40617D01*
X-23153Y40820D01*
Y41622D01*
D02*
G37*
G36*
X-24793D02*
X-25833D01*
Y40820D01*
X-25792Y40617D01*
X-25677Y40445D01*
X-25505Y40330D01*
X-25303Y40290D01*
X-24793D01*
Y41622D01*
D02*
G37*
%LPD*%
G36*
X28599Y-10024D02*
X28737Y-10081D01*
X28819Y-10137D01*
X28913Y-10217D01*
X28913Y-10217D01*
X31696Y-13000D01*
X36434Y-13000D01*
X36434Y-19723D01*
X36434Y-19828D01*
X36393Y-20034D01*
X36312Y-20228D01*
X36196Y-20403D01*
X36047Y-20551D01*
X35873Y-20668D01*
X35679Y-20748D01*
X35493Y-20785D01*
X35368Y-20789D01*
Y-20789D01*
X26642Y-20789D01*
X26564Y-20789D01*
X26412Y-20759D01*
X26269Y-20699D01*
X26140Y-20613D01*
X26030Y-20503D01*
X25944Y-20375D01*
X25884Y-20231D01*
X25854Y-20079D01*
X25854Y-20002D01*
X25854Y-12045D01*
X25854Y-11915D01*
X25905Y-11661D01*
X26004Y-11421D01*
X26148Y-11205D01*
X26240Y-11114D01*
Y-11114D01*
X27110Y-10243D01*
X27292Y-10122D01*
X27494Y-10038D01*
X27709Y-9995D01*
X27819Y-9995D01*
X27819Y-9995D01*
X28378D01*
X28453Y-9995D01*
X28599Y-10024D01*
D02*
G37*
G36*
X-27503Y-9995D02*
X-27016Y-9995D01*
X-27016Y-9995D01*
X-27016Y-9995D01*
X-26856Y-9995D01*
X-26544Y-10058D01*
X-26249Y-10180D01*
X-25984Y-10357D01*
X-25871Y-10469D01*
X-25117Y-11224D01*
X-25117Y-11224D01*
X-25117Y-11224D01*
X-24990Y-11351D01*
X-24789Y-11651D01*
X-24652Y-11983D01*
X-24581Y-12337D01*
X-24581Y-12517D01*
X-24581Y-18389D01*
X-24581Y-18389D01*
Y-18498D01*
X-24624Y-18710D01*
X-24707Y-18911D01*
X-24827Y-19091D01*
X-25545Y-19809D01*
X-25545Y-19809D01*
X-25636Y-19900D01*
X-25850Y-20042D01*
X-26087Y-20141D01*
X-26339Y-20191D01*
X-26468Y-20191D01*
X-35080Y-20191D01*
X-35195Y-20191D01*
X-35420Y-20146D01*
X-35633Y-20058D01*
X-35824Y-19930D01*
X-35986Y-19768D01*
X-36114Y-19577D01*
X-36202Y-19364D01*
X-36247Y-19139D01*
X-36247Y-19024D01*
Y-13250D01*
X-31735Y-13250D01*
X-29171Y-10686D01*
X-29171Y-10686D01*
X-29171Y-10686D01*
X-29007Y-10522D01*
X-28620Y-10264D01*
X-28191Y-10086D01*
X-27735Y-9995D01*
X-27503Y-9995D01*
D02*
G37*
%LPC*%
G36*
X-19849Y-1400D02*
X-20412D01*
Y-2088D01*
X-20258D01*
X-20101Y-2057D01*
X-19969Y-1968D01*
X-19880Y-1836D01*
X-19849Y-1679D01*
Y-1400D01*
D02*
G37*
G36*
X-16408Y568D02*
X-17004D01*
Y312D01*
X-16704D01*
X-16587Y336D01*
X-16488Y402D01*
X-16422Y501D01*
X-16408Y568D01*
D02*
G37*
G36*
X-14574Y-13237D02*
X-14797D01*
X-15003Y-13322D01*
X-15160Y-13479D01*
X-15246Y-13685D01*
Y-13908D01*
X-15160Y-14114D01*
X-15060Y-14214D01*
X-15016Y-14297D01*
X-15060Y-14380D01*
X-15160Y-14479D01*
X-15246Y-14685D01*
Y-14908D01*
X-15160Y-15114D01*
X-15003Y-15271D01*
X-14974Y-15283D01*
Y-15410D01*
X-15003Y-15422D01*
X-15160Y-15579D01*
X-15246Y-15785D01*
Y-16008D01*
X-15160Y-16214D01*
X-15003Y-16371D01*
X-14797Y-16457D01*
X-14574D01*
X-14368Y-16371D01*
X-14211Y-16214D01*
X-14126Y-16008D01*
Y-15785D01*
X-14211Y-15579D01*
X-14368Y-15422D01*
X-14397Y-15410D01*
Y-15283D01*
X-14368Y-15271D01*
X-14211Y-15114D01*
X-14126Y-14908D01*
Y-14685D01*
X-14211Y-14479D01*
X-14311Y-14380D01*
X-14355Y-14297D01*
X-14311Y-14214D01*
X-14211Y-14114D01*
X-14126Y-13908D01*
Y-13685D01*
X-14211Y-13479D01*
X-14368Y-13322D01*
X-14574Y-13237D01*
D02*
G37*
G36*
X16030Y-13281D02*
X15807D01*
X15601Y-13366D01*
X15444Y-13523D01*
X15359Y-13729D01*
Y-13952D01*
X15444Y-14158D01*
X15581Y-14295D01*
X15580Y-14392D01*
X15567Y-14439D01*
X15501Y-14466D01*
X15344Y-14623D01*
X15259Y-14829D01*
Y-15052D01*
X15344Y-15258D01*
X15444Y-15358D01*
X15488Y-15441D01*
X15444Y-15524D01*
X15344Y-15623D01*
X15259Y-15829D01*
Y-16052D01*
X15344Y-16258D01*
X15501Y-16415D01*
X15707Y-16501D01*
X15930D01*
X16136Y-16415D01*
X16293Y-16258D01*
X16379Y-16052D01*
Y-15829D01*
X16293Y-15623D01*
X16194Y-15524D01*
X16149Y-15441D01*
X16194Y-15358D01*
X16293Y-15258D01*
X16379Y-15052D01*
Y-14829D01*
X16293Y-14623D01*
X16156Y-14486D01*
X16157Y-14390D01*
X16170Y-14343D01*
X16236Y-14315D01*
X16393Y-14158D01*
X16479Y-13952D01*
Y-13729D01*
X16393Y-13523D01*
X16236Y-13366D01*
X16030Y-13281D01*
D02*
G37*
G36*
X17898Y-24314D02*
X16820D01*
Y-25042D01*
X18349D01*
Y-24765D01*
X18315Y-24592D01*
X18217Y-24446D01*
X18071Y-24348D01*
X17898Y-24314D01*
D02*
G37*
G36*
X16220D02*
X15143D01*
X14970Y-24348D01*
X14824Y-24446D01*
X14726Y-24592D01*
X14692Y-24765D01*
Y-25042D01*
X16220D01*
Y-24314D01*
D02*
G37*
G36*
X18349Y-25642D02*
X16820D01*
Y-26371D01*
X17898D01*
X18071Y-26337D01*
X18217Y-26239D01*
X18315Y-26092D01*
X18349Y-25920D01*
Y-25642D01*
D02*
G37*
G36*
X16220D02*
X14692D01*
Y-25920D01*
X14726Y-26092D01*
X14824Y-26239D01*
X14970Y-26337D01*
X15143Y-26371D01*
X16220D01*
Y-25642D01*
D02*
G37*
%LPD*%
D10*
X3585Y3715D02*
X6171Y1129D01*
X-3057Y3327D02*
X-2669Y3715D01*
X3585D01*
X10910Y-7167D02*
X11942D01*
X8145Y-4403D02*
X10910Y-7167D01*
X-4416Y-8616D02*
X-35Y-4234D01*
Y7D01*
X-9393Y-8616D02*
X-4416D01*
X-4173Y-9064D02*
X493Y-4398D01*
Y-45D01*
X-9617Y-9064D02*
X-4173D01*
X1732Y-1294D02*
X1997Y-1029D01*
X493Y-8254D02*
Y-6682D01*
X-22481Y-7063D02*
Y-6259D01*
X-17955Y-11409D02*
X-17718D01*
X-14898Y-8589D02*
Y-7972D01*
X-17718Y-11409D02*
X-14898Y-8589D01*
X-18050Y-11505D02*
X-17955Y-11409D01*
X-14898Y-7972D02*
X-14660Y-7735D01*
X-23417Y-5323D02*
X-22481Y-6259D01*
X-24776Y-5323D02*
X-23417D01*
X-36702Y-3621D02*
X-30296D01*
X-28901Y-5016D01*
X-3329Y-5599D02*
X-3212Y-5716D01*
X-17414Y-4774D02*
X-15481Y-6707D01*
X-22283Y-4774D02*
X-17414D01*
X-22565Y-4491D02*
X-22283Y-4774D01*
X-22537Y-3401D02*
Y-1236D01*
X-22759Y-3308D02*
X-22602Y-3466D01*
X-22565Y-3502D01*
Y-4491D02*
Y-3502D01*
X-15481Y-6707D02*
X-13233D01*
X-16493Y-4923D02*
X-15695Y-5721D01*
X-16493Y-4923D02*
Y-3466D01*
X-15695Y-5721D02*
X-14661D01*
X-13233Y-6707D02*
X-11183Y-4657D01*
X-9851D02*
X-9400Y-5108D01*
X-11183Y-4657D02*
X-9851D01*
X-3802Y-5599D02*
X-3329D01*
X-4385Y-5016D02*
X-3802Y-5599D01*
X-5239Y-3718D02*
X-4945Y-3423D01*
X-6293Y-7267D02*
X-5239Y-6214D01*
Y-3718D01*
X-4945Y-3423D02*
X-4069D01*
X-24776Y-3308D02*
X-22759D01*
X-3212Y-5716D02*
X-3119Y-5623D01*
X10510Y-8167D02*
X11942D01*
X6843Y-4501D02*
X10510Y-8167D01*
X2449Y-5893D02*
X2718Y-5623D01*
X1704Y-6225D02*
X2036Y-5893D01*
X1704Y-7452D02*
Y-6225D01*
X2036Y-5893D02*
X2449D01*
X493Y-6682D02*
X1768Y-5407D01*
Y-3423D01*
X-14661Y-5721D02*
X-14660Y-5720D01*
X-8152Y-7699D02*
X-6967Y-6514D01*
X-8468Y-7063D02*
Y-5892D01*
X-9104Y-7699D02*
X-8468Y-7063D01*
X6843Y-2795D02*
X7152Y-2486D01*
X6843Y-4501D02*
Y-2795D01*
X7152Y-2486D02*
X9506D01*
X7752Y-3691D02*
X8145Y-4084D01*
Y-4403D02*
Y-4084D01*
X-10435Y-8246D02*
Y-5844D01*
Y-8246D02*
X-9617Y-9064D01*
X-9977Y-8031D02*
X-9393Y-8616D01*
X493Y-45D02*
X753Y215D01*
X-8468Y-5892D02*
X-8420Y-5844D01*
X-9400Y-6684D02*
Y-5108D01*
X-9977Y-7262D02*
X-9400Y-6684D01*
X-9977Y-8031D02*
Y-7262D01*
X-18827Y478D02*
Y1248D01*
X-19759Y1418D02*
X-19734Y1393D01*
X-18971D02*
X-18827Y1248D01*
X-19734Y1393D02*
X-18971D01*
X-19180Y125D02*
X-18827Y478D01*
X-22177Y125D02*
X-19180D01*
X9506Y-2486D02*
X9692Y-2300D01*
Y-1275D02*
Y1129D01*
Y-2300D02*
Y-1275D01*
X-6967Y-6514D02*
Y-1409D01*
X-7289Y-1088D02*
X-6967Y-1409D01*
X-8420Y-1088D02*
X-7289D01*
X-8420Y-5844D02*
Y-3466D01*
X-38889Y-5807D02*
X-36702Y-3621D01*
X-38889Y-30486D02*
Y-5807D01*
X-36941Y-3101D02*
X-26528D01*
X-39421Y-5582D02*
X-36941Y-3101D01*
X-39421Y-30679D02*
Y-5582D01*
Y-30679D02*
X-38124Y-31977D01*
X-36548D01*
X-36050Y-32475D01*
X-26528Y-3101D02*
X-22658Y768D01*
X-38889Y-30486D02*
X-37934Y-31441D01*
X-35259D01*
X-34905Y-31795D01*
Y-34495D02*
Y-31795D01*
X-33429Y-36186D02*
Y-35971D01*
X-34905Y-34495D02*
X-33429Y-35971D01*
X-22658Y768D02*
Y8086D01*
X-21964Y8780D02*
X-19236D01*
X-22658Y8086D02*
X-21964Y8780D01*
X-18742Y7125D02*
Y8286D01*
X-19236Y8780D02*
X-18742Y8286D01*
X-22658Y768D02*
X-19759D01*
X-22402Y-100D02*
X-22177Y125D01*
X-22402Y-1100D02*
Y-100D01*
X-22537Y-1236D02*
X-22402Y-1100D01*
X-29961Y-35789D02*
X-29700Y-35528D01*
X-33032Y-35789D02*
X-29961D01*
X6171Y1129D02*
X7677D01*
X-3057Y1802D02*
Y3327D01*
X-15869Y-187D02*
X-15244Y438D01*
Y1696D01*
X-15616Y2068D02*
X-15244Y1696D01*
X34022Y-35720D02*
X35209D01*
X36229Y-34700D01*
X33556Y-36186D02*
X34022Y-35720D01*
X30122Y-35789D02*
X33159D01*
X29862Y-35528D02*
X30122Y-35789D01*
X33454Y-39728D02*
X36229Y-36953D01*
X29862Y-39728D02*
X33454D01*
X3063Y3296D02*
X3265Y3094D01*
X-327Y3296D02*
X3063D01*
X-517Y3106D02*
X-327Y3296D01*
X753Y215D02*
Y1802D01*
X1997Y1776D02*
X2023Y1802D01*
X1997Y-1029D02*
Y1776D01*
X1732Y-3387D02*
Y-1294D01*
Y-3387D02*
X1768Y-3423D01*
X-517Y488D02*
X-35Y7D01*
X-517Y488D02*
Y1057D01*
X-517Y1057D02*
X-517Y1057D01*
X-517Y1802D02*
Y3106D01*
Y1057D02*
Y1802D01*
X-4105Y-3387D02*
Y-1294D01*
Y-3387D02*
X-4069Y-3423D01*
X-4149Y-1250D02*
X-4105Y-1294D01*
X-4141Y-1242D02*
Y-37D01*
X-4149Y-1250D02*
X-4141Y-1242D01*
Y-37D02*
X-3896Y207D01*
X-2017D01*
X-1787Y438D01*
Y1802D01*
X3265Y1830D02*
X3293Y1802D01*
X3265Y1830D02*
Y3094D01*
X-17249Y2068D02*
X-15616D01*
X-16210Y-1100D02*
X-15869Y-759D01*
Y-187D01*
X-566Y-45300D02*
X74D01*
X-2370Y-46100D02*
X-1366D01*
X-566Y-45300D01*
X-8200D02*
X-6525D01*
X-9000Y-46100D02*
X-8200Y-45300D01*
D13*
X-16727Y4824D02*
Y7125D01*
D40*
X-20230Y-12738D02*
D03*
X-17805Y-16638D02*
D03*
Y-14038D02*
D03*
Y-12738D02*
D03*
Y-15338D02*
D03*
X-19017D02*
D03*
X-20230Y-14038D02*
D03*
Y-15338D02*
D03*
Y-16638D02*
D03*
X-19017Y-12738D02*
D03*
Y-14038D02*
D03*
Y-16638D02*
D03*
X21395Y-17163D02*
D03*
Y-15863D02*
D03*
Y-12088D02*
D03*
Y-13263D02*
D03*
Y-14563D02*
D03*
X20145Y-12088D02*
D03*
X18895D02*
D03*
Y-17163D02*
D03*
X20145D02*
D03*
X18895Y-15863D02*
D03*
Y-13263D02*
D03*
Y-14563D02*
D03*
X20145Y-13263D02*
D03*
Y-14563D02*
D03*
Y-15863D02*
D03*
D41*
X36229Y-32475D02*
D03*
X-36050Y-30475D02*
D03*
X2261Y-46100D02*
D03*
X36229Y-38953D02*
D03*
X8891Y-46100D02*
D03*
X-36050Y-36953D02*
D03*
X-11000Y-46100D02*
D03*
X-4370D02*
D03*
D43*
X-25772Y7891D02*
D03*
X-13630Y-14613D02*
D03*
X38370Y7487D02*
D03*
X18870D02*
D03*
X20170Y6187D02*
D03*
X1035Y-26734D02*
D03*
X-27930Y-10713D02*
D03*
X38564Y-13313D02*
D03*
Y-14613D02*
D03*
Y-15913D02*
D03*
Y-17213D02*
D03*
Y-18513D02*
D03*
X35770Y-19813D02*
D03*
X38564D02*
D03*
X29270Y-17213D02*
D03*
Y-13313D02*
D03*
X34470Y-19813D02*
D03*
X29270Y-12013D02*
D03*
Y-15913D02*
D03*
X33170Y-19813D02*
D03*
X30570Y-18513D02*
D03*
X29270Y-19813D02*
D03*
X30570D02*
D03*
Y-13313D02*
D03*
X31870Y-18513D02*
D03*
Y-19813D02*
D03*
X29270Y-14613D02*
D03*
Y-18513D02*
D03*
X30570Y-17213D02*
D03*
X-18980Y-17813D02*
D03*
X-20130D02*
D03*
X-17830D02*
D03*
X-1930Y-10713D02*
D03*
Y-12013D02*
D03*
Y-13313D02*
D03*
Y-14613D02*
D03*
Y-15913D02*
D03*
Y-17213D02*
D03*
Y-18513D02*
D03*
Y-19813D02*
D03*
Y-21113D02*
D03*
X-3230Y-10713D02*
D03*
Y-12013D02*
D03*
Y-13313D02*
D03*
Y-14613D02*
D03*
Y-15913D02*
D03*
Y-17213D02*
D03*
Y-18513D02*
D03*
Y-19813D02*
D03*
Y-21113D02*
D03*
Y-22413D02*
D03*
Y-26313D02*
D03*
X-4530Y-10713D02*
D03*
Y-12013D02*
D03*
Y-13313D02*
D03*
Y-14613D02*
D03*
Y-15913D02*
D03*
Y-17213D02*
D03*
Y-18513D02*
D03*
Y-19813D02*
D03*
Y-21113D02*
D03*
Y-22413D02*
D03*
Y-23713D02*
D03*
Y-25013D02*
D03*
Y-26313D02*
D03*
X-5830Y-10713D02*
D03*
Y-12013D02*
D03*
Y-13313D02*
D03*
Y-14613D02*
D03*
Y-15913D02*
D03*
Y-17213D02*
D03*
Y-18513D02*
D03*
Y-19813D02*
D03*
Y-21113D02*
D03*
Y-22413D02*
D03*
Y-23713D02*
D03*
Y-25013D02*
D03*
Y-26313D02*
D03*
X-7130Y-10713D02*
D03*
Y-12013D02*
D03*
Y-13313D02*
D03*
Y-14613D02*
D03*
Y-15913D02*
D03*
Y-17213D02*
D03*
Y-18513D02*
D03*
Y-19813D02*
D03*
Y-21113D02*
D03*
Y-22413D02*
D03*
Y-23713D02*
D03*
Y-25013D02*
D03*
Y-26313D02*
D03*
X-8430Y-10713D02*
D03*
Y-12013D02*
D03*
Y-13313D02*
D03*
Y-14613D02*
D03*
Y-15913D02*
D03*
Y-17213D02*
D03*
Y-18513D02*
D03*
Y-19813D02*
D03*
Y-21113D02*
D03*
Y-26313D02*
D03*
X-9730Y-12013D02*
D03*
Y-13313D02*
D03*
Y-14613D02*
D03*
Y-15913D02*
D03*
Y-17213D02*
D03*
Y-18513D02*
D03*
Y-19813D02*
D03*
Y-21113D02*
D03*
X-11030Y-13313D02*
D03*
Y-14613D02*
D03*
Y-15913D02*
D03*
Y-17213D02*
D03*
Y-18513D02*
D03*
Y-19813D02*
D03*
Y-21113D02*
D03*
Y-22413D02*
D03*
Y-26313D02*
D03*
X-12655Y-10488D02*
D03*
X-12330Y-14613D02*
D03*
Y-15913D02*
D03*
Y-17213D02*
D03*
Y-18513D02*
D03*
Y-19813D02*
D03*
Y-21113D02*
D03*
Y-22413D02*
D03*
Y-23713D02*
D03*
Y-25013D02*
D03*
Y-26313D02*
D03*
X-13955Y-10488D02*
D03*
Y-11638D02*
D03*
X-13630Y-17213D02*
D03*
Y-18513D02*
D03*
Y-19813D02*
D03*
Y-21113D02*
D03*
Y-22413D02*
D03*
Y-23713D02*
D03*
Y-25013D02*
D03*
Y-26313D02*
D03*
X-15255Y-10488D02*
D03*
Y-11638D02*
D03*
X-14930Y-18513D02*
D03*
Y-19813D02*
D03*
Y-21113D02*
D03*
Y-22413D02*
D03*
Y-23713D02*
D03*
Y-25013D02*
D03*
Y-26313D02*
D03*
X-16230Y-18513D02*
D03*
X-16230Y-19813D02*
D03*
Y-21113D02*
D03*
Y-22413D02*
D03*
Y-23713D02*
D03*
Y-25013D02*
D03*
Y-26313D02*
D03*
X-17530Y-18963D02*
D03*
Y-20263D02*
D03*
Y-21563D02*
D03*
Y-22863D02*
D03*
Y-24163D02*
D03*
Y-25463D02*
D03*
X-18830Y-18963D02*
D03*
Y-20263D02*
D03*
Y-21563D02*
D03*
Y-22863D02*
D03*
Y-24163D02*
D03*
X-20130Y-18963D02*
D03*
Y-20263D02*
D03*
Y-21563D02*
D03*
Y-22863D02*
D03*
X-14930Y23087D02*
D03*
X-38330Y-313D02*
D03*
X-20130Y15287D02*
D03*
X24070Y2287D02*
D03*
X-38330Y13987D02*
D03*
X38370Y-27613D02*
D03*
X-34430Y-1613D02*
D03*
X38370Y-5513D02*
D03*
X33170Y21787D02*
D03*
X-31830Y20487D02*
D03*
X-630Y46487D02*
D03*
X38370Y29587D02*
D03*
X34470Y21787D02*
D03*
X-18830Y29587D02*
D03*
X-37030Y2287D02*
D03*
X-35730Y4887D02*
D03*
X-7130Y20487D02*
D03*
X-4530Y29587D02*
D03*
Y33487D02*
D03*
X21470Y23087D02*
D03*
X-4530Y26987D02*
D03*
X7170Y23087D02*
D03*
X20170Y29587D02*
D03*
X-24030Y26987D02*
D03*
X14970Y32187D02*
D03*
X4570Y987D02*
D03*
X34470Y33487D02*
D03*
X37070Y-40613D02*
D03*
X-37030Y20487D02*
D03*
X670Y34787D02*
D03*
X-17530Y24387D02*
D03*
X21470Y987D02*
D03*
X-33130D02*
D03*
X-8430Y20487D02*
D03*
X-35730Y-40613D02*
D03*
X-4530Y19187D02*
D03*
X-34430Y20487D02*
D03*
X22770Y23087D02*
D03*
X-38330Y32187D02*
D03*
X33170Y20487D02*
D03*
X38370Y-40613D02*
D03*
X-24030Y24387D02*
D03*
X1970Y19187D02*
D03*
X3270Y21787D02*
D03*
X-37030Y-40613D02*
D03*
X-38330Y20487D02*
D03*
X13670Y26987D02*
D03*
X14970Y46487D02*
D03*
X-34430Y987D02*
D03*
X-16230Y46487D02*
D03*
X-18830Y30887D02*
D03*
X24070Y4887D02*
D03*
X26670Y7487D02*
D03*
X-38330Y-36713D02*
D03*
X-24030Y28287D02*
D03*
X-38330Y23087D02*
D03*
X-4530Y38687D02*
D03*
X14970Y36087D02*
D03*
X-38330Y26987D02*
D03*
X14970Y23087D02*
D03*
X-37030Y15287D02*
D03*
X38370Y-30213D02*
D03*
X-11030Y23087D02*
D03*
X-31830D02*
D03*
X-5830Y20487D02*
D03*
X26670Y23087D02*
D03*
X1970D02*
D03*
X12370Y47787D02*
D03*
X-24030Y34787D02*
D03*
X-630Y15287D02*
D03*
X-24030Y20487D02*
D03*
X-5830Y16587D02*
D03*
X21470Y25687D02*
D03*
X-34430Y21787D02*
D03*
X-3230Y47787D02*
D03*
X-16230Y43887D02*
D03*
X-18830Y37387D02*
D03*
X14970Y21787D02*
D03*
X21470Y4887D02*
D03*
X-27930Y-48413D02*
D03*
X-37030Y25687D02*
D03*
X-5830Y21787D02*
D03*
X38370Y32187D02*
D03*
X4570Y20487D02*
D03*
X14970Y28287D02*
D03*
X-4530D02*
D03*
X-29230Y21787D02*
D03*
X22770Y8787D02*
D03*
X38370Y-313D02*
D03*
X21470Y28287D02*
D03*
X34470Y15287D02*
D03*
X-38330Y39987D02*
D03*
X25370Y3587D02*
D03*
X-7130Y23087D02*
D03*
X14970Y17887D02*
D03*
X24070Y987D02*
D03*
X-34430Y23087D02*
D03*
X38370Y38687D02*
D03*
X-14930Y-32813D02*
D03*
X-26630Y21787D02*
D03*
X-31830D02*
D03*
X12370D02*
D03*
X34470Y-4213D02*
D03*
X-4530Y23087D02*
D03*
X37070Y-35413D02*
D03*
X22770Y21787D02*
D03*
X-1930Y42587D02*
D03*
X-14930Y20487D02*
D03*
X-17530Y26987D02*
D03*
X-37030Y3587D02*
D03*
X27970Y23087D02*
D03*
X670Y33487D02*
D03*
X34470Y23087D02*
D03*
X-33130Y21787D02*
D03*
X-38330Y28287D02*
D03*
X-24030Y32187D02*
D03*
X34470Y16587D02*
D03*
X-24030Y29587D02*
D03*
X7170Y21787D02*
D03*
X34470Y32187D02*
D03*
X-17530Y21787D02*
D03*
X-5830Y17887D02*
D03*
X33170Y23087D02*
D03*
X-9730Y21787D02*
D03*
X21470Y20487D02*
D03*
X14970Y39987D02*
D03*
X-35730Y-35413D02*
D03*
X-25330Y23087D02*
D03*
X-14930Y-31513D02*
D03*
X20170Y34787D02*
D03*
X12370Y20487D02*
D03*
X14970Y16587D02*
D03*
X38370Y39987D02*
D03*
X-24030Y30887D02*
D03*
X-16230Y21787D02*
D03*
X-17530Y20487D02*
D03*
X3270Y8787D02*
D03*
X-33130Y-313D02*
D03*
X1970Y20487D02*
D03*
X-16230Y23087D02*
D03*
X20170Y7487D02*
D03*
X-37030Y6187D02*
D03*
X38370Y-9413D02*
D03*
X-29230Y20487D02*
D03*
X3270Y23087D02*
D03*
X-25330Y24387D02*
D03*
X-24030Y37387D02*
D03*
X31870Y23087D02*
D03*
X14970Y34787D02*
D03*
X-18830Y-34113D02*
D03*
X-29230Y-48413D02*
D03*
X26670Y21787D02*
D03*
X-38330Y36087D02*
D03*
Y-35413D02*
D03*
X-630Y13987D02*
D03*
X38370Y15287D02*
D03*
Y-8113D02*
D03*
X24070Y23087D02*
D03*
X12370Y19187D02*
D03*
X38370Y37387D02*
D03*
X670Y36087D02*
D03*
X-38330Y-2913D02*
D03*
X-25330Y21787D02*
D03*
X38370Y-26313D02*
D03*
X1970Y26987D02*
D03*
X14970Y38687D02*
D03*
X34470Y36087D02*
D03*
X-5830Y25687D02*
D03*
X-35730Y-34113D02*
D03*
X-33130Y23087D02*
D03*
X34470Y19187D02*
D03*
X-38330Y29587D02*
D03*
Y987D02*
D03*
X35770Y-40613D02*
D03*
X-17530Y23087D02*
D03*
X31870Y20487D02*
D03*
X38370Y4887D02*
D03*
X18870Y28287D02*
D03*
X-5830Y47787D02*
D03*
X-24030Y25687D02*
D03*
X18870Y4887D02*
D03*
X13670Y24387D02*
D03*
X-35730Y987D02*
D03*
X18870Y3587D02*
D03*
X38370Y-34113D02*
D03*
X-24030Y36087D02*
D03*
X-8430Y23087D02*
D03*
X-38330Y-32813D02*
D03*
X-17530Y46487D02*
D03*
Y47787D02*
D03*
X18870Y12687D02*
D03*
X38370Y-1613D02*
D03*
X-24030Y23087D02*
D03*
X24070Y6187D02*
D03*
X-13630Y21787D02*
D03*
X-38330D02*
D03*
Y-1613D02*
D03*
X-630Y28287D02*
D03*
X13670Y25687D02*
D03*
X-38330Y7487D02*
D03*
X21470Y26987D02*
D03*
X8470Y21787D02*
D03*
X-35730Y-1613D02*
D03*
X-33130Y20487D02*
D03*
X31870Y19187D02*
D03*
X-16230Y20487D02*
D03*
X-38330Y30887D02*
D03*
X38370Y987D02*
D03*
X-29230Y23087D02*
D03*
X-24030Y19187D02*
D03*
X38370Y-6813D02*
D03*
X21470Y17887D02*
D03*
X-17530D02*
D03*
X-38330Y-38013D02*
D03*
X-35730Y21787D02*
D03*
X-17530Y28287D02*
D03*
X12370Y23087D02*
D03*
X-4530Y36087D02*
D03*
X24070Y21787D02*
D03*
X-8430D02*
D03*
X-30530Y23087D02*
D03*
X1970Y17887D02*
D03*
X21470Y19187D02*
D03*
X-34430Y2287D02*
D03*
X29270Y20487D02*
D03*
X-24030Y21787D02*
D03*
X25370Y987D02*
D03*
X38370Y-39313D02*
D03*
X-34430Y3587D02*
D03*
X-17530Y15287D02*
D03*
X-24030Y16587D02*
D03*
X-35730Y6187D02*
D03*
X11070Y23087D02*
D03*
X-13630D02*
D03*
X14970Y45187D02*
D03*
X25370Y-1613D02*
D03*
X-35730Y3587D02*
D03*
X-18830Y-32813D02*
D03*
X670Y29587D02*
D03*
X13670Y23087D02*
D03*
X33170Y25687D02*
D03*
X-34430Y4887D02*
D03*
X13670Y21787D02*
D03*
X-37030Y-5513D02*
D03*
Y7487D02*
D03*
X-33130Y2287D02*
D03*
Y4887D02*
D03*
X-24030Y17887D02*
D03*
X-13630Y2287D02*
D03*
X-7130Y19187D02*
D03*
X-4530Y34787D02*
D03*
X-630Y47787D02*
D03*
X14970Y37387D02*
D03*
X22770Y19187D02*
D03*
X38370Y-28913D02*
D03*
X-37030Y23087D02*
D03*
X-16230Y24387D02*
D03*
X1970Y21787D02*
D03*
X34470Y20487D02*
D03*
X-21430Y47787D02*
D03*
X670Y32187D02*
D03*
X31870Y21787D02*
D03*
X-37030Y16587D02*
D03*
X-24030Y33487D02*
D03*
X21470Y2287D02*
D03*
X-5830Y24387D02*
D03*
X13670Y15287D02*
D03*
X-30530Y-48413D02*
D03*
X-4530Y25687D02*
D03*
X14970Y19187D02*
D03*
Y26987D02*
D03*
X-20130Y12687D02*
D03*
X-18830Y-31513D02*
D03*
X38370Y-2913D02*
D03*
Y-22413D02*
D03*
X-20130Y28287D02*
D03*
X-25330Y26987D02*
D03*
X8470Y20487D02*
D03*
X3270Y19187D02*
D03*
X11070Y20487D02*
D03*
X33170Y-40613D02*
D03*
X-34430Y-313D02*
D03*
X-16230Y19187D02*
D03*
X30570Y23087D02*
D03*
X-30530Y20487D02*
D03*
X-38330Y33487D02*
D03*
X-25330Y28287D02*
D03*
X-4530Y32187D02*
D03*
Y16587D02*
D03*
X-25330Y25687D02*
D03*
X11070Y21787D02*
D03*
X13670Y47787D02*
D03*
X24070Y3587D02*
D03*
X26670Y20487D02*
D03*
X33170Y24387D02*
D03*
X38370Y13987D02*
D03*
X-27930Y20487D02*
D03*
X24070Y-313D02*
D03*
X34470Y29587D02*
D03*
X670Y37387D02*
D03*
X-38330Y19187D02*
D03*
X-35730D02*
D03*
Y24387D02*
D03*
X-11030Y20487D02*
D03*
X38370Y28287D02*
D03*
X33170Y15287D02*
D03*
X-5830D02*
D03*
X-1930Y45187D02*
D03*
X9770Y23087D02*
D03*
X-37030Y21787D02*
D03*
X-35730Y2287D02*
D03*
X-20130Y46487D02*
D03*
X-9730Y23087D02*
D03*
X-37030Y26987D02*
D03*
X7170Y20487D02*
D03*
X14970Y43887D02*
D03*
X27970Y21787D02*
D03*
X31870Y-41913D02*
D03*
X-25330Y19187D02*
D03*
X-26630Y23087D02*
D03*
X-34430Y6187D02*
D03*
X34470Y25687D02*
D03*
X-7130Y21787D02*
D03*
X34470Y24387D02*
D03*
X-14930Y21787D02*
D03*
X-13630Y987D02*
D03*
X33170Y16587D02*
D03*
X38370Y-36713D02*
D03*
X-38330Y-39313D02*
D03*
X-18830Y34787D02*
D03*
X-24030Y15287D02*
D03*
X-17530Y-34113D02*
D03*
X25370Y21787D02*
D03*
X24070Y-1613D02*
D03*
X20170Y37387D02*
D03*
X33170Y-38013D02*
D03*
X-38330Y25687D02*
D03*
X8470Y47787D02*
D03*
X38370Y8787D02*
D03*
X-4530Y15287D02*
D03*
X21470Y6187D02*
D03*
X-25330Y16587D02*
D03*
X-16230Y-34113D02*
D03*
X-38330Y38687D02*
D03*
X-17530Y43887D02*
D03*
X21470Y-1613D02*
D03*
X31870Y-38013D02*
D03*
X37070Y-28913D02*
D03*
X670Y38687D02*
D03*
X-630Y42587D02*
D03*
X20170Y32187D02*
D03*
X38370Y30887D02*
D03*
X18870Y-313D02*
D03*
X-37030Y987D02*
D03*
X-13630Y20487D02*
D03*
X-33130Y6187D02*
D03*
X-18830Y38687D02*
D03*
X18870Y8787D02*
D03*
X34470Y34787D02*
D03*
X-25330Y20487D02*
D03*
X5870Y-313D02*
D03*
X-630Y12687D02*
D03*
X-5830Y19187D02*
D03*
X-4530Y47787D02*
D03*
X4570Y23087D02*
D03*
X-26630Y20487D02*
D03*
X34470Y17887D02*
D03*
X-35730Y23087D02*
D03*
X9770Y47787D02*
D03*
X34470Y30887D02*
D03*
X-37030Y-34113D02*
D03*
X3270Y24387D02*
D03*
X-25330Y17887D02*
D03*
X-5830Y23087D02*
D03*
X-16230Y42587D02*
D03*
X21470Y15287D02*
D03*
X-1930Y43887D02*
D03*
X33170Y28287D02*
D03*
X-37030Y19187D02*
D03*
X670Y30887D02*
D03*
X1970Y16587D02*
D03*
X13670Y45187D02*
D03*
X-12330Y20487D02*
D03*
X34470Y37387D02*
D03*
X14970Y25687D02*
D03*
X-17530D02*
D03*
X-18830Y33487D02*
D03*
X18870Y-1613D02*
D03*
X-17530Y16587D02*
D03*
X14970Y29587D02*
D03*
X-20130Y47787D02*
D03*
X-38330Y15287D02*
D03*
Y34787D02*
D03*
X8470Y23087D02*
D03*
X33170Y19187D02*
D03*
X-17530D02*
D03*
X14970Y15287D02*
D03*
X-20130Y13987D02*
D03*
X18870D02*
D03*
X-12330Y23087D02*
D03*
X-37030Y24387D02*
D03*
X-38330Y16587D02*
D03*
X18870Y15287D02*
D03*
X-37030Y28287D02*
D03*
X-16230Y45187D02*
D03*
Y8787D02*
D03*
X21470Y-313D02*
D03*
X33170Y26987D02*
D03*
X38370Y34787D02*
D03*
X-1930Y47787D02*
D03*
X5870Y21787D02*
D03*
X-37030Y-1613D02*
D03*
X20170Y30887D02*
D03*
X1970Y25687D02*
D03*
Y15287D02*
D03*
X4570Y21787D02*
D03*
X25370Y20487D02*
D03*
Y4887D02*
D03*
X-4530Y30887D02*
D03*
X24070Y20487D02*
D03*
X-37030Y-35413D02*
D03*
X30570Y-6813D02*
D03*
X-630Y41287D02*
D03*
X3270Y20487D02*
D03*
X5870Y23087D02*
D03*
X30570Y20487D02*
D03*
X-18830Y39987D02*
D03*
X-4530Y37387D02*
D03*
X21470Y21787D02*
D03*
X5870Y3587D02*
D03*
X-37030Y17887D02*
D03*
X-11030Y21787D02*
D03*
X-9730Y20487D02*
D03*
X-1930Y46487D02*
D03*
X-37030Y4887D02*
D03*
X14970Y24387D02*
D03*
X-35730Y7487D02*
D03*
Y20487D02*
D03*
X-630Y45187D02*
D03*
X34470Y-40613D02*
D03*
X-4530Y21787D02*
D03*
X29270Y23087D02*
D03*
X38370Y-35413D02*
D03*
X1970Y24387D02*
D03*
X13670Y46487D02*
D03*
X34470Y26987D02*
D03*
Y28287D02*
D03*
X-12330Y21787D02*
D03*
X-14930Y-34113D02*
D03*
X25370Y2287D02*
D03*
X-38330Y-34113D02*
D03*
Y2287D02*
D03*
X24070Y7487D02*
D03*
X20170Y33487D02*
D03*
X-33130Y3587D02*
D03*
Y7487D02*
D03*
X-18830Y32187D02*
D03*
X25370Y6187D02*
D03*
X14970Y47787D02*
D03*
X-38330Y3587D02*
D03*
Y4887D02*
D03*
X27970Y20487D02*
D03*
X-18830Y47787D02*
D03*
X14970Y33487D02*
D03*
X25370Y-313D02*
D03*
X38370Y33487D02*
D03*
X-37030Y13987D02*
D03*
X22770Y7487D02*
D03*
X-38330Y24387D02*
D03*
X-35730Y-313D02*
D03*
X-630Y43887D02*
D03*
X-4530Y20487D02*
D03*
X29270Y21787D02*
D03*
X-38330Y6187D02*
D03*
X5870Y20487D02*
D03*
X21470Y24387D02*
D03*
X-630Y8787D02*
D03*
X-26630Y19187D02*
D03*
X1970Y28287D02*
D03*
X-30530Y21787D02*
D03*
X9770D02*
D03*
X38370Y-38013D02*
D03*
X13670Y43887D02*
D03*
Y20487D02*
D03*
X30570Y21787D02*
D03*
X22770Y20487D02*
D03*
X25370Y23087D02*
D03*
X13670Y17887D02*
D03*
X21470Y3587D02*
D03*
X-27930Y21787D02*
D03*
X-34430Y7487D02*
D03*
X18870Y987D02*
D03*
X-16230Y47787D02*
D03*
X-25330Y15287D02*
D03*
X14970Y20487D02*
D03*
X9770D02*
D03*
X14970Y30887D02*
D03*
X38370Y3587D02*
D03*
X-5830Y28287D02*
D03*
X38370Y12687D02*
D03*
X-38330Y37387D02*
D03*
X-37030Y-313D02*
D03*
X18870Y2287D02*
D03*
X33170Y17887D02*
D03*
X-18830Y36087D02*
D03*
X-17530Y42587D02*
D03*
X13670Y19187D02*
D03*
X-5830Y26987D02*
D03*
X21470Y16587D02*
D03*
X13670Y28287D02*
D03*
X22770Y24387D02*
D03*
X38370Y2287D02*
D03*
X-4530Y24387D02*
D03*
X13670Y16587D02*
D03*
X-38330Y17887D02*
D03*
X20170Y36087D02*
D03*
X-4530Y17887D02*
D03*
X25370Y7487D02*
D03*
X38370Y36087D02*
D03*
X-35730Y8787D02*
D03*
X-33130Y-1613D02*
D03*
X-31830Y7487D02*
D03*
X-18830Y42587D02*
D03*
X11070Y47787D02*
D03*
X-27930Y23087D02*
D03*
X1789Y-11250D02*
D03*
X3270Y-10713D02*
D03*
X-27930Y-12013D02*
D03*
Y-13313D02*
D03*
Y-14613D02*
D03*
Y-15913D02*
D03*
Y-17213D02*
D03*
Y-18513D02*
D03*
X-29230Y-12013D02*
D03*
Y-13313D02*
D03*
Y-14613D02*
D03*
Y-15913D02*
D03*
Y-17213D02*
D03*
Y-18513D02*
D03*
X-30530Y-13313D02*
D03*
Y-14613D02*
D03*
Y-17213D02*
D03*
Y-18513D02*
D03*
X21395Y-27613D02*
D03*
Y-26313D02*
D03*
Y-25013D02*
D03*
Y-23713D02*
D03*
Y-22413D02*
D03*
Y-21113D02*
D03*
Y-19813D02*
D03*
Y-18513D02*
D03*
X13670Y-14613D02*
D03*
Y-13313D02*
D03*
X20170Y-18513D02*
D03*
Y-19813D02*
D03*
Y-21113D02*
D03*
Y-22413D02*
D03*
Y-23713D02*
D03*
Y-25013D02*
D03*
Y-26313D02*
D03*
Y-27613D02*
D03*
X18870Y-18513D02*
D03*
Y-19813D02*
D03*
Y-21113D02*
D03*
Y-22413D02*
D03*
Y-23713D02*
D03*
Y-25013D02*
D03*
Y-26313D02*
D03*
Y-27613D02*
D03*
X17570Y-18513D02*
D03*
Y-19813D02*
D03*
Y-21113D02*
D03*
Y-22413D02*
D03*
Y-23713D02*
D03*
Y-27613D02*
D03*
Y-28913D02*
D03*
X16270Y-18513D02*
D03*
Y-19813D02*
D03*
Y-21113D02*
D03*
Y-22413D02*
D03*
Y-23713D02*
D03*
Y-27613D02*
D03*
X14970Y-17213D02*
D03*
Y-18513D02*
D03*
Y-19813D02*
D03*
Y-21113D02*
D03*
Y-22413D02*
D03*
Y-23713D02*
D03*
X13670Y-10713D02*
D03*
Y-12013D02*
D03*
Y-15913D02*
D03*
Y-17213D02*
D03*
Y-18513D02*
D03*
Y-19813D02*
D03*
Y-21113D02*
D03*
Y-22413D02*
D03*
Y-23713D02*
D03*
Y-25013D02*
D03*
Y-26313D02*
D03*
X12370Y-10713D02*
D03*
Y-12013D02*
D03*
Y-13313D02*
D03*
Y-14613D02*
D03*
Y-15913D02*
D03*
Y-17213D02*
D03*
Y-18513D02*
D03*
Y-19813D02*
D03*
Y-21113D02*
D03*
Y-26313D02*
D03*
X11070Y-10713D02*
D03*
Y-12013D02*
D03*
Y-13313D02*
D03*
Y-14613D02*
D03*
Y-15913D02*
D03*
Y-17213D02*
D03*
Y-18513D02*
D03*
Y-19813D02*
D03*
Y-21113D02*
D03*
X9770Y-10713D02*
D03*
Y-12013D02*
D03*
Y-13313D02*
D03*
Y-14613D02*
D03*
Y-15913D02*
D03*
Y-17213D02*
D03*
Y-18513D02*
D03*
Y-19813D02*
D03*
Y-21113D02*
D03*
Y-22413D02*
D03*
Y-26313D02*
D03*
X8470Y-10713D02*
D03*
Y-12013D02*
D03*
Y-13313D02*
D03*
Y-14613D02*
D03*
Y-15913D02*
D03*
Y-17213D02*
D03*
Y-18513D02*
D03*
Y-19813D02*
D03*
Y-21113D02*
D03*
Y-22413D02*
D03*
Y-23713D02*
D03*
Y-25013D02*
D03*
Y-26313D02*
D03*
X7170Y-10713D02*
D03*
Y-12013D02*
D03*
Y-13313D02*
D03*
Y-14613D02*
D03*
Y-15913D02*
D03*
Y-17213D02*
D03*
Y-18513D02*
D03*
Y-19813D02*
D03*
Y-21113D02*
D03*
Y-22413D02*
D03*
Y-23713D02*
D03*
Y-25013D02*
D03*
Y-26313D02*
D03*
X5870Y-10713D02*
D03*
Y-12013D02*
D03*
Y-13313D02*
D03*
Y-14613D02*
D03*
Y-15913D02*
D03*
Y-17213D02*
D03*
Y-18513D02*
D03*
Y-19813D02*
D03*
Y-21113D02*
D03*
Y-22413D02*
D03*
Y-26313D02*
D03*
X4570Y-10713D02*
D03*
Y-12013D02*
D03*
Y-13313D02*
D03*
Y-14613D02*
D03*
Y-15913D02*
D03*
Y-17213D02*
D03*
Y-18513D02*
D03*
Y-19813D02*
D03*
Y-21113D02*
D03*
X3270Y-12013D02*
D03*
Y-13313D02*
D03*
Y-14613D02*
D03*
Y-15913D02*
D03*
Y-17213D02*
D03*
Y-18513D02*
D03*
Y-19813D02*
D03*
Y-21113D02*
D03*
X9368Y6093D02*
D03*
X38141Y10660D02*
D03*
X18684Y10649D02*
D03*
X-895Y10678D02*
D03*
X-20275D02*
D03*
X7676Y8138D02*
D03*
X5426D02*
D03*
X-12419Y7910D02*
D03*
X-14635D02*
D03*
X-9677Y6515D02*
D03*
X4291Y-49114D02*
D03*
X30961Y12699D02*
D03*
X11469D02*
D03*
X-8025Y12704D02*
D03*
X-27466D02*
D03*
X28751Y13336D02*
D03*
X9459D02*
D03*
X30768Y7914D02*
D03*
X34614D02*
D03*
X31740Y7010D02*
D03*
X32655Y7892D02*
D03*
X21043Y13319D02*
D03*
X22355D02*
D03*
X-10279Y13336D02*
D03*
X-29676D02*
D03*
X2863Y13318D02*
D03*
X1552D02*
D03*
X13163Y7891D02*
D03*
X12249Y7009D02*
D03*
X15122Y7913D02*
D03*
X11276D02*
D03*
X-27431Y7894D02*
D03*
X-8262Y7913D02*
D03*
X-7289Y7009D02*
D03*
X-6375Y7891D02*
D03*
X-17987Y13318D02*
D03*
X-16675D02*
D03*
X-29676Y6010D02*
D03*
X28751D02*
D03*
X-26686Y7009D02*
D03*
X-24129Y8078D02*
D03*
X-31373Y-5060D02*
D03*
D45*
X-8620Y-31521D02*
X-6557D01*
X-8620Y-29107D02*
Y-26585D01*
X-8661Y-31480D02*
Y-29148D01*
D46*
X-16995Y3356D02*
G03*
X-16830Y3580I-647J647D01*
G01*
X-16995Y3356D02*
G03*
X-17249Y2742I614J-614D01*
G01*
X-16830Y3580D02*
G03*
X-16727Y4003I-812J422D01*
G01*
X4261Y-49041D02*
G03*
X4291Y-49114I102J0D01*
G01*
X-23562Y10653D02*
G03*
X-23501Y10678I0J85D01*
G01*
X3277Y5031D02*
Y6385D01*
X-12419Y4684D02*
X-12121Y4981D01*
X5357D01*
X5392Y4946D02*
X5426Y4912D01*
Y4940D02*
X7648D01*
X-10279Y7116D02*
X-9677Y6515D01*
X-10279Y7116D02*
Y13336D01*
X12362Y-6244D02*
X12957Y-6839D01*
X9780Y-4963D02*
X11061Y-6244D01*
X12362D01*
X994Y-27461D02*
Y-26774D01*
X701Y-27754D02*
X994Y-27461D01*
Y-26774D02*
X1035Y-26734D01*
X-571Y-27754D02*
X701D01*
X-1068Y-28251D02*
X-571Y-27754D01*
X-1068Y-28752D02*
Y-28251D01*
X9780Y-4963D02*
Y-3703D01*
X9767Y-3691D02*
X9780Y-3703D01*
X12211Y-9498D02*
X12957Y-8753D01*
X2853Y-9498D02*
X12211D01*
X1829Y-10522D02*
X2853Y-9498D01*
X12957Y-8753D02*
Y-6839D01*
X1829Y-11210D02*
Y-10522D01*
X1789Y-11250D02*
X1829Y-11210D01*
X-1423Y-29107D02*
X-1068Y-28752D01*
X9767Y-3691D02*
X9780Y-3678D01*
X10535D01*
X10899Y-3314D01*
Y3243D01*
X9229Y4912D02*
X10899Y3243D01*
X7676Y4912D02*
X9229D01*
X9368Y6093D02*
X9413Y6139D01*
Y13182D01*
X9271Y13324D02*
X9413Y13182D01*
X36605Y10660D02*
X38141D01*
X17148Y10649D02*
X18684D01*
X-2431Y10678D02*
X-895D01*
X-21811D02*
X-20275D01*
X-14250Y-3238D02*
X-13511D01*
X-14478Y-3466D02*
X-14250Y-3238D01*
X-13511D02*
X-11402Y-1130D01*
X-10477D02*
X-10435Y-1088D01*
X-11402Y-1130D02*
X-10477D01*
X-12419Y2749D02*
X-10435Y765D01*
Y-1088D02*
Y765D01*
X-12419Y2749D02*
Y4684D01*
X7676Y6602D02*
Y8138D01*
X5426Y6602D02*
Y8138D01*
X-12419Y6374D02*
Y7910D01*
X-14635Y6374D02*
Y7910D01*
X-16706Y4803D02*
X-14754D01*
X-14635Y4684D01*
X-16727Y4824D02*
X-16706Y4803D01*
X-14635Y4684D02*
X-12419D01*
X-16727Y4003D02*
Y4824D01*
X4261Y-49041D02*
Y-46100D01*
X32976Y10648D02*
X34865D01*
X30961D02*
Y12699D01*
X13484Y10648D02*
X15373D01*
X11469D02*
Y12699D01*
X-8025Y10653D02*
Y12704D01*
X-27466Y10653D02*
Y12704D01*
X28751Y6010D02*
Y13336D01*
X-6010Y10653D02*
X-4121D01*
X-25451D02*
X-23562D01*
X-29676Y6010D02*
Y13336D01*
D47*
X-20712Y3037D02*
G03*
X-20391Y2717I320J0D01*
G01*
X-20799Y6374D02*
Y7690D01*
Y4684D02*
X-20712D01*
X-18882D01*
X-19759Y2717D02*
Y2718D01*
X-20712Y3037D02*
Y4684D01*
X-20391Y2717D02*
X-19759D01*
X-17310Y2681D02*
X-17249Y2742D01*
X-3532Y-31501D02*
Y-31480D01*
Y-33277D02*
Y-31501D01*
X-2169Y-3423D02*
X-852D01*
X-4327Y1802D02*
Y3790D01*
X-18250Y-2863D02*
Y2489D01*
X-18866Y-3478D02*
X-18250Y-2863D01*
X-20574Y-3478D02*
X-18866D01*
X-18058Y2681D02*
X-17310D01*
X-18250Y2489D02*
X-18058Y2681D01*
X-20587Y-3466D02*
X-20574Y-3478D01*
X14068Y1124D02*
X14086Y1107D01*
X14051Y2918D02*
X14068Y2900D01*
Y1124D02*
Y2900D01*
X6360Y-1275D02*
X7677D01*
X-18882Y4684D02*
X-18742Y4824D01*
X-24270Y1490D02*
X-24045Y1265D01*
X-24270Y1490D02*
Y3056D01*
X-36050Y-38953D02*
X-35600Y-39403D01*
X-30025D01*
X-29700Y-39728D01*
X3703Y-1250D02*
X5020D01*
X3668Y-3423D02*
X4985D01*
X-2134Y-1250D02*
X-817D01*
X-17249Y768D02*
X-16030D01*
X-14520Y-1100D02*
X-13193D01*
X-14747Y-5520D02*
X-14710Y-5482D01*
X-20712Y-1100D02*
X-19509D01*
X-16493Y-3255D02*
Y-1292D01*
X32980Y1337D02*
X33178Y1535D01*
Y3132D01*
X-6045Y1335D02*
X-5847Y1533D01*
Y3130D01*
D52*
X16520Y-31992D02*
D03*
Y-25342D02*
D03*
D58*
X-20799Y6374D02*
D03*
Y4684D02*
D03*
X5426Y6602D02*
D03*
Y4912D02*
D03*
X7676Y6602D02*
D03*
Y4912D02*
D03*
X-12419Y4684D02*
D03*
Y6374D02*
D03*
X-14635Y4684D02*
D03*
Y6374D02*
D03*
D59*
X-14520Y-1100D02*
D03*
X-16210D02*
D03*
X-22402D02*
D03*
X-20712D02*
D03*
X34915Y10660D02*
D03*
X36605D02*
D03*
X15458Y10649D02*
D03*
X17148D02*
D03*
X-4121Y10678D02*
D03*
X-2431D02*
D03*
X-23501D02*
D03*
X-21811D02*
D03*
X-8620Y-29107D02*
D03*
X-10310D02*
D03*
X-8620Y-31521D02*
D03*
X-10310D02*
D03*
X267D02*
D03*
X-1423D02*
D03*
X267Y-29107D02*
D03*
X-1423D02*
D03*
D60*
X-10435Y-5844D02*
D03*
X-8420D02*
D03*
Y-1088D02*
D03*
X-10435D02*
D03*
Y-3491D02*
D03*
X-8420D02*
D03*
X7677Y1129D02*
D03*
X9692D02*
D03*
X7752Y-3716D02*
D03*
X9767D02*
D03*
X7677Y-1275D02*
D03*
X9692D02*
D03*
X-14478Y-3491D02*
D03*
X-16493D02*
D03*
X-22602D02*
D03*
X-20587D02*
D03*
X32976Y10648D02*
D03*
X30961D02*
D03*
X11469D02*
D03*
X13484D02*
D03*
X-8025Y10653D02*
D03*
X-6010D02*
D03*
X-25451D02*
D03*
X-27466D02*
D03*
X1688Y-1250D02*
D03*
X3703D02*
D03*
X-2134D02*
D03*
X-4149D02*
D03*
X-16727Y4824D02*
D03*
X-18742D02*
D03*
Y7125D02*
D03*
X-16727D02*
D03*
X30965Y1337D02*
D03*
X32980D02*
D03*
X14086Y1107D02*
D03*
X12071D02*
D03*
X-8060Y1335D02*
D03*
X-6045D02*
D03*
X-24045Y1265D02*
D03*
X-26060D02*
D03*
D61*
X-14660Y-5720D02*
D03*
Y-7735D02*
D03*
X-24776Y-3333D02*
D03*
Y-5348D02*
D03*
D64*
X33556Y-36186D02*
D03*
Y-32426D02*
D03*
X-33429D02*
D03*
Y-36186D02*
D03*
D67*
X25398Y-45000D02*
D03*
X18198D02*
D03*
X34262Y-8150D02*
D03*
Y-15350D02*
D03*
X35000Y45000D02*
D03*
X-18295Y-45000D02*
D03*
X-25495D02*
D03*
X-34300Y-15600D02*
D03*
Y-8400D02*
D03*
X35000Y-45000D02*
D03*
X-35000D02*
D03*
Y45000D02*
D03*
D68*
X36229Y-30475D02*
D03*
X-36050Y-32475D02*
D03*
X36229Y-36953D02*
D03*
X-36050Y-38953D02*
D03*
D69*
X-1800Y-24200D02*
D03*
X-9400D02*
D03*
X11362Y-24200D02*
D03*
X3762D02*
D03*
D70*
X-36400D02*
D03*
X-28800D02*
D03*
X28762Y-24200D02*
D03*
X36362D02*
D03*
D71*
X-26363Y45248D02*
D03*
X-21363D02*
D03*
X-23863D02*
D03*
X-18863D02*
D03*
X26317D02*
D03*
X21317D02*
D03*
X23817D02*
D03*
X18817D02*
D03*
X11357D02*
D03*
X6357D02*
D03*
X8857D02*
D03*
X3857D02*
D03*
X-11303D02*
D03*
X-6303D02*
D03*
X-8803D02*
D03*
X-3803D02*
D03*
D72*
X4261Y-46100D02*
D03*
X10891D02*
D03*
X-9000D02*
D03*
X-2370D02*
D03*
D73*
X-19000Y-8300D02*
D03*
X19000D02*
D03*
D74*
X-14686Y-13797D02*
D03*
X-20799Y7690D02*
D03*
X-22481Y-7063D02*
D03*
X-20207Y-11505D02*
D03*
X-20683Y-28763D02*
D03*
X-14630Y-17525D02*
D03*
X-15580D02*
D03*
X-13586Y-15897D02*
D03*
X-16780Y-17525D02*
D03*
X-19958Y-27970D02*
D03*
X-18050Y-11505D02*
D03*
X-28901Y-5016D02*
D03*
X-4385D02*
D03*
X-6293Y-7267D02*
D03*
X11942Y-7167D02*
D03*
Y-8167D02*
D03*
X1704Y-7452D02*
D03*
X-14686Y-15897D02*
D03*
Y-14797D02*
D03*
X-2640Y-27748D02*
D03*
X-420Y-34113D02*
D03*
X12922Y-39393D02*
D03*
X7470Y-36405D02*
D03*
X5682Y-36430D02*
D03*
X-2584Y-41432D02*
D03*
X228Y-39393D02*
D03*
X-6776Y-42815D02*
D03*
X-9104Y-7699D02*
D03*
X-8152D02*
D03*
X4913Y-29319D02*
D03*
X-3532Y-33277D02*
D03*
X15919Y-13841D02*
D03*
X493Y-8254D02*
D03*
X-4327Y3790D02*
D03*
X14051Y2918D02*
D03*
X6360Y-1275D02*
D03*
X15819Y-15941D02*
D03*
X-24270Y3056D02*
D03*
X15819Y-14941D02*
D03*
X36229Y-34700D02*
D03*
X5020Y-1250D02*
D03*
X-817D02*
D03*
X-16030Y768D02*
D03*
X-13193Y-1100D02*
D03*
X-19509D02*
D03*
X33178Y3132D02*
D03*
X-5847Y3130D02*
D03*
X12113Y-34362D02*
D03*
X11147Y-34088D02*
D03*
D75*
X27325Y-15263D02*
D03*
Y-13963D02*
D03*
Y-12663D02*
D03*
Y-16563D02*
D03*
Y-17863D02*
D03*
Y-11363D02*
D03*
Y-19163D02*
D03*
X-25984D02*
D03*
Y-11363D02*
D03*
Y-17863D02*
D03*
Y-16563D02*
D03*
Y-12663D02*
D03*
Y-13963D02*
D03*
Y-15263D02*
D03*
D76*
X-26630Y-10713D02*
D03*
X26670Y-14613D02*
D03*
X27970Y-12013D02*
D03*
X26670Y-15913D02*
D03*
X27970Y-18513D02*
D03*
X26670D02*
D03*
Y-19813D02*
D03*
Y-13313D02*
D03*
X27970D02*
D03*
X26670Y-12013D02*
D03*
Y-17213D02*
D03*
X27970Y-10713D02*
D03*
Y-17213D02*
D03*
Y-19813D02*
D03*
Y-14613D02*
D03*
Y-15913D02*
D03*
X-25330Y-12013D02*
D03*
Y-13313D02*
D03*
Y-14613D02*
D03*
Y-15913D02*
D03*
Y-17213D02*
D03*
Y-18513D02*
D03*
X-26630Y-12013D02*
D03*
Y-13313D02*
D03*
Y-14613D02*
D03*
Y-15913D02*
D03*
Y-17213D02*
D03*
Y-18513D02*
D03*
D77*
X-3532Y-31480D02*
D03*
X-5032D02*
D03*
X-6532D02*
D03*
D78*
X-5032Y-28759D02*
D03*
D79*
X-17204Y768D02*
D03*
X-19804D02*
D03*
Y2718D02*
D03*
Y1418D02*
D03*
X-17204D02*
D03*
Y2068D02*
D03*
Y2718D02*
D03*
X-19804Y2068D02*
D03*
D80*
X-3119Y-5648D02*
D03*
X-2169Y-3448D02*
D03*
X-4069Y-3448D02*
D03*
X1768D02*
D03*
X3668Y-3448D02*
D03*
X2718Y-5648D02*
D03*
D81*
X-6525Y-47360D02*
D03*
Y-45300D02*
D03*
X74D02*
D03*
Y-47360D02*
D03*
D82*
X-4327Y6652D02*
D03*
X-3057D02*
D03*
X-1787D02*
D03*
X-517D02*
D03*
X753D02*
D03*
X2023D02*
D03*
X3293D02*
D03*
X-4327Y1802D02*
D03*
X-3057D02*
D03*
X-1787D02*
D03*
X-517D02*
D03*
X753D02*
D03*
X2023D02*
D03*
X3293D02*
D03*
D83*
X-24493Y41922D02*
D03*
X-20733D02*
D03*
X24190D02*
D03*
X20430D02*
D03*
X9130D02*
D03*
X5370D02*
D03*
X-5673D02*
D03*
X-9433D02*
D03*
D84*
X-29700Y-39728D02*
D03*
Y-35528D02*
D03*
X29862D02*
D03*
Y-39728D02*
D03*
D85*
X-3532Y-31501D02*
X-1444D01*
X-1423Y-31521D02*
Y-29107D01*
X-1444Y-31501D02*
X-1423Y-31521D01*
X-8430Y-26394D02*
Y-26313D01*
X-8620Y-26585D02*
X-8430Y-26394D01*
M02*
