G04*
G04 #@! TF.GenerationSoftware,Altium Limited,Altium Designer,23.3.1 (30)*
G04*
G04 Layer_Physical_Order=2*
G04 Layer_Color=1265191*
%FSLAX43Y43*%
%MOMM*%
G71*
G04*
G04 #@! TF.SameCoordinates,78DDFD1D-995E-4759-9E5F-92B015DE0EB1*
G04*
G04*
G04 #@! TF.FilePolarity,Positive*
G04*
G01*
G75*
%ADD11C,0.200*%
%ADD66C,6.500*%
%ADD67R,1.200X1.200*%
%ADD68C,1.200*%
%ADD69C,3.500*%
%ADD70C,3.200*%
%ADD71C,2.000*%
%ADD72R,1.200X1.200*%
%ADD73C,4.000*%
%ADD74C,1.000*%
%ADD75C,0.700*%
%ADD76C,0.600*%
%ADD77C,0.800*%
%ADD78C,0.900*%
G36*
X30233Y49548D02*
X30480Y49446D01*
X30703Y49297D01*
X30892Y49108D01*
X31041Y48885D01*
X31143Y48638D01*
X31149Y48609D01*
X31195Y48241D01*
Y48241D01*
X31195D01*
X31195Y48241D01*
X31195Y44769D01*
X31203Y44535D01*
X31264Y44073D01*
X31385Y43622D01*
X31563Y43190D01*
X31797Y42786D01*
X32081Y42416D01*
X32411Y42086D01*
X32781Y41801D01*
X33186Y41568D01*
X33617Y41389D01*
X34068Y41269D01*
X34531Y41208D01*
X34764Y41200D01*
X38237Y41200D01*
X38381Y41200D01*
X38663Y41144D01*
X38930Y41034D01*
X39170Y40874D01*
X39373Y40670D01*
X39534Y40430D01*
X39644Y40164D01*
X39656Y40104D01*
X39700Y39737D01*
Y39737D01*
X39700D01*
X39700Y39737D01*
Y-4500D01*
X39700Y-10500D01*
X36612Y-10500D01*
X31676Y-5564D01*
X-3606D01*
X-3627Y-5548D01*
X-3840Y-5165D01*
X-3825Y-5128D01*
Y-4905D01*
X-3910Y-4699D01*
X-4067Y-4542D01*
X-4273Y-4456D01*
X-4496D01*
X-4702Y-4542D01*
X-4859Y-4699D01*
X-4860Y-4700D01*
X-28426D01*
X-28426Y-4699D01*
X-28584Y-4542D01*
X-28790Y-4456D01*
X-29013D01*
X-29218Y-4542D01*
X-29376Y-4699D01*
X-29461Y-4905D01*
Y-5128D01*
X-29446Y-5165D01*
X-29658Y-5548D01*
X-29680Y-5564D01*
X-31465D01*
X-36613Y-10713D01*
X-39715Y-10713D01*
X-39715Y39901D01*
X-39715Y40029D01*
X-39665Y40280D01*
X-39567Y40517D01*
X-39425Y40729D01*
X-39244Y40910D01*
X-39031Y41052D01*
X-38795Y41150D01*
X-38544Y41200D01*
X-38416Y41200D01*
X-38416Y41200D01*
X-34800Y41200D01*
X-34562Y41208D01*
X-34089Y41270D01*
X-33628Y41393D01*
X-33188Y41576D01*
X-32775Y41814D01*
X-32397Y42105D01*
X-32059Y42442D01*
X-31769Y42820D01*
X-31531Y43233D01*
X-31348Y43674D01*
X-31225Y44134D01*
X-31163Y44607D01*
X-31155Y44845D01*
X-31155Y44845D01*
Y48245D01*
X-31155Y48379D01*
X-31103Y48640D01*
X-31001Y48887D01*
X-30852Y49109D01*
X-30664Y49298D01*
X-30442Y49446D01*
X-30195Y49548D01*
X-29933Y49600D01*
X-29800Y49600D01*
X-29800Y49600D01*
X29837Y49600D01*
X29970Y49600D01*
X30233Y49548D01*
D02*
G37*
G36*
X-3660Y-5772D02*
X-3633Y-5773D01*
X-3606Y-5779D01*
X31333D01*
X31391Y-5892D01*
X31156Y-6215D01*
X31032Y-6249D01*
X30996Y-6239D01*
X30845Y-6152D01*
X30664Y-6103D01*
X30477D01*
X30296Y-6152D01*
X30135Y-6245D01*
X30002Y-6377D01*
X29909Y-6539D01*
X29860Y-6720D01*
Y-6907D01*
X29909Y-7087D01*
X30002Y-7249D01*
X30135Y-7381D01*
X30296Y-7475D01*
X30477Y-7523D01*
X30537D01*
X30645Y-7650D01*
X30612Y-7863D01*
Y-8437D01*
X30701Y-9005D01*
X30879Y-9551D01*
X31140Y-10063D01*
X31477Y-10528D01*
X31884Y-10934D01*
X32349Y-11272D01*
X32860Y-11533D01*
X33324Y-11683D01*
Y-11817D01*
X33024Y-11914D01*
X31989D01*
X31862Y-11911D01*
X31607Y-11886D01*
X31357Y-11836D01*
X31114Y-11763D01*
X30879Y-11665D01*
X30655Y-11545D01*
X30443Y-11404D01*
X30245Y-11241D01*
X30152Y-11153D01*
X28891Y-9892D01*
X28890Y-9892D01*
X28723Y-9724D01*
X28706Y-9713D01*
X28691Y-9698D01*
X28297Y-9435D01*
X28278Y-9427D01*
X28260Y-9415D01*
X27823Y-9234D01*
X27802Y-9230D01*
X27783Y-9222D01*
X27319Y-9129D01*
X27297D01*
X27277Y-9125D01*
X27040Y-9125D01*
X26684Y-9125D01*
X26565Y-9125D01*
X26556Y-9127D01*
X26547Y-9126D01*
X26425Y-9136D01*
X26413Y-9140D01*
X26401D01*
X26316Y-9157D01*
X26296Y-9165D01*
X26275Y-9169D01*
X26146Y-9222D01*
X26129Y-9234D01*
X26109Y-9242D01*
X25993Y-9320D01*
X25978Y-9335D01*
X25960Y-9346D01*
X25861Y-9445D01*
X25850Y-9463D01*
X25835Y-9478D01*
X25757Y-9594D01*
X25749Y-9614D01*
X25737Y-9631D01*
X25684Y-9761D01*
X25680Y-9781D01*
X25671Y-9801D01*
X25644Y-9938D01*
Y-9959D01*
X25640Y-9980D01*
Y-10050D01*
X25640Y-20002D01*
X25640Y-20079D01*
X25644Y-20100D01*
Y-20121D01*
X25674Y-20273D01*
X25682Y-20292D01*
X25687Y-20313D01*
X25746Y-20456D01*
X25758Y-20474D01*
X25766Y-20493D01*
X25852Y-20622D01*
X25867Y-20637D01*
X25879Y-20655D01*
X25988Y-20765D01*
X26006Y-20776D01*
X26021Y-20791D01*
X26150Y-20877D01*
X26169Y-20885D01*
X26187Y-20897D01*
X26330Y-20957D01*
X26351Y-20961D01*
X26370Y-20969D01*
X26522Y-20999D01*
X26543Y-20999D01*
X26564Y-21003D01*
X26642Y-21003D01*
X36400Y-21003D01*
X36400Y-21003D01*
X36509D01*
X36529Y-20999D01*
X36550D01*
X36763Y-20957D01*
X36782Y-20949D01*
X36803Y-20944D01*
X37003Y-20862D01*
X37021Y-20850D01*
X37040Y-20842D01*
X37220Y-20721D01*
X37235Y-20706D01*
X37253Y-20695D01*
X37406Y-20542D01*
X37418Y-20524D01*
X37433Y-20509D01*
X37553Y-20329D01*
X37561Y-20309D01*
X37573Y-20292D01*
X37656Y-20092D01*
X37660Y-20071D01*
X37668Y-20052D01*
X37710Y-19839D01*
Y-19818D01*
X37714Y-19797D01*
X37714Y-16535D01*
X37802Y-16266D01*
X37940Y-16252D01*
X37996Y-16349D01*
X38128Y-16481D01*
X38160Y-16500D01*
Y-16627D01*
X38128Y-16645D01*
X37996Y-16777D01*
X37903Y-16939D01*
X37854Y-17120D01*
Y-17307D01*
X37903Y-17487D01*
X37996Y-17649D01*
X38128Y-17781D01*
X38160Y-17800D01*
Y-17927D01*
X38128Y-17945D01*
X37996Y-18077D01*
X37903Y-18239D01*
X37854Y-18420D01*
Y-18607D01*
X37903Y-18787D01*
X37996Y-18949D01*
X38128Y-19081D01*
X38160Y-19100D01*
Y-19227D01*
X38128Y-19245D01*
X37996Y-19377D01*
X37903Y-19539D01*
X37854Y-19720D01*
Y-19907D01*
X37903Y-20087D01*
X37996Y-20249D01*
X38128Y-20381D01*
X38290Y-20475D01*
X38471Y-20523D01*
X38658D01*
X38838Y-20475D01*
X39000Y-20381D01*
X39133Y-20249D01*
X39226Y-20087D01*
X39274Y-19907D01*
Y-19720D01*
X39226Y-19539D01*
X39133Y-19377D01*
X39000Y-19245D01*
X38969Y-19227D01*
Y-19100D01*
X39000Y-19081D01*
X39133Y-18949D01*
X39226Y-18787D01*
X39274Y-18607D01*
Y-18420D01*
X39226Y-18239D01*
X39133Y-18077D01*
X39000Y-17945D01*
X38969Y-17927D01*
Y-17800D01*
X39000Y-17781D01*
X39133Y-17649D01*
X39226Y-17487D01*
X39274Y-17307D01*
Y-17120D01*
X39226Y-16939D01*
X39133Y-16777D01*
X39000Y-16645D01*
X38969Y-16627D01*
Y-16500D01*
X39000Y-16481D01*
X39133Y-16349D01*
X39226Y-16187D01*
X39274Y-16007D01*
Y-15820D01*
X39226Y-15639D01*
X39133Y-15477D01*
X39000Y-15345D01*
X38969Y-15327D01*
Y-15200D01*
X39000Y-15181D01*
X39133Y-15049D01*
X39226Y-14887D01*
X39274Y-14707D01*
Y-14520D01*
X39226Y-14339D01*
X39133Y-14177D01*
X39000Y-14045D01*
X38969Y-14027D01*
Y-13900D01*
X39000Y-13881D01*
X39133Y-13749D01*
X39226Y-13587D01*
X39274Y-13407D01*
Y-13220D01*
X39226Y-13039D01*
X39133Y-12877D01*
X39000Y-12745D01*
X38838Y-12652D01*
X38658Y-12603D01*
X38471D01*
X38290Y-12652D01*
X38128Y-12745D01*
X37996Y-12877D01*
X37903Y-13039D01*
X37854Y-13220D01*
Y-13407D01*
X37903Y-13587D01*
X37996Y-13749D01*
X38128Y-13881D01*
X38160Y-13900D01*
Y-14027D01*
X38128Y-14045D01*
X37996Y-14177D01*
X37904Y-14337D01*
X37896Y-14339D01*
X37771Y-14340D01*
X37714Y-14165D01*
X37714Y-13000D01*
X37714Y-13000D01*
Y-13000D01*
X37713Y-12994D01*
X37714Y-12988D01*
X37707Y-12868D01*
X37704Y-12854D01*
Y-12839D01*
X37677Y-12704D01*
X37669Y-12684D01*
X37665Y-12664D01*
X37599Y-12505D01*
X37587Y-12488D01*
X37579Y-12468D01*
X37484Y-12325D01*
X37469Y-12310D01*
X37457Y-12293D01*
X37336Y-12172D01*
X37318Y-12160D01*
X37303Y-12145D01*
X37161Y-12050D01*
X37141Y-12041D01*
X37124Y-12030D01*
X36965Y-11964D01*
X36944Y-11960D01*
X36925Y-11952D01*
X36756Y-11918D01*
X36735D01*
X36715Y-11914D01*
X36629Y-11914D01*
X35499D01*
X35199Y-11817D01*
Y-11683D01*
X35663Y-11533D01*
X36175Y-11272D01*
X36639Y-10934D01*
X36859Y-10714D01*
X39573Y-10714D01*
X39700Y-10841D01*
Y-44835D01*
Y-45154D01*
X39617Y-45786D01*
X39452Y-46402D01*
X39208Y-46991D01*
X38889Y-47543D01*
X38500Y-48049D01*
X38049Y-48500D01*
X37543Y-48889D01*
X36991Y-49208D01*
X36402Y-49452D01*
X35786Y-49617D01*
X35153Y-49700D01*
X4889D01*
X4836Y-49573D01*
X4859Y-49550D01*
X4953Y-49388D01*
X5001Y-49207D01*
Y-49020D01*
X4953Y-48840D01*
X4859Y-48678D01*
X4727Y-48546D01*
X4565Y-48452D01*
X4384Y-48404D01*
X4198D01*
X4017Y-48452D01*
X3855Y-48546D01*
X3723Y-48678D01*
X3629Y-48840D01*
X3581Y-49020D01*
Y-49207D01*
X3629Y-49388D01*
X3723Y-49550D01*
X3746Y-49573D01*
X3693Y-49700D01*
X-34850D01*
X-35164Y-49700D01*
X-35787Y-49618D01*
X-36394Y-49455D01*
X-36974Y-49215D01*
X-37518Y-48901D01*
X-38016Y-48519D01*
X-38460Y-48075D01*
X-38843Y-47576D01*
X-39157Y-47032D01*
X-39397Y-46452D01*
X-39560Y-45845D01*
X-39642Y-45223D01*
X-39642Y-44908D01*
Y-10927D01*
X-36934Y-10927D01*
X-36678Y-11184D01*
X-36213Y-11522D01*
X-35701Y-11783D01*
X-35364Y-11892D01*
X-35330Y-12037D01*
X-35363Y-12069D01*
X-36184D01*
X-36193Y-12071D01*
X-36237Y-12064D01*
X-36320Y-11996D01*
Y-11920D01*
X-36368Y-11739D01*
X-36461Y-11577D01*
X-36594Y-11445D01*
X-36755Y-11352D01*
X-36936Y-11303D01*
X-37123D01*
X-37304Y-11352D01*
X-37465Y-11445D01*
X-37598Y-11577D01*
X-37691Y-11739D01*
X-37740Y-11920D01*
Y-12107D01*
X-37691Y-12287D01*
X-37598Y-12449D01*
X-37465Y-12581D01*
X-37449Y-12707D01*
X-37494Y-12752D01*
X-37506Y-12769D01*
X-37521Y-12784D01*
X-37708Y-13064D01*
X-37716Y-13083D01*
X-37727Y-13101D01*
X-37856Y-13412D01*
X-37860Y-13432D01*
X-37868Y-13452D01*
X-37934Y-13782D01*
Y-13803D01*
X-37938Y-13824D01*
Y-13992D01*
X-37938Y-13992D01*
Y-15237D01*
X-37950Y-15313D01*
Y-15887D01*
X-37938Y-15963D01*
Y-18497D01*
Y-18664D01*
X-37934Y-18685D01*
Y-18706D01*
X-37869Y-19033D01*
X-37861Y-19052D01*
X-37857Y-19073D01*
X-37729Y-19381D01*
X-37717Y-19399D01*
X-37709Y-19418D01*
X-37524Y-19696D01*
X-37509Y-19711D01*
X-37497Y-19728D01*
X-37261Y-19964D01*
X-37244Y-19976D01*
X-37229Y-19991D01*
X-36951Y-20176D01*
X-36932Y-20184D01*
X-36914Y-20196D01*
X-36606Y-20324D01*
X-36585Y-20328D01*
X-36566Y-20336D01*
X-36239Y-20401D01*
X-36218D01*
X-36197Y-20405D01*
X-36030D01*
X-25340Y-20405D01*
X-25265Y-20405D01*
X-25244Y-20401D01*
X-25223D01*
X-25077Y-20372D01*
X-25057Y-20364D01*
X-25037Y-20360D01*
X-24899Y-20302D01*
X-24881Y-20291D01*
X-24862Y-20283D01*
X-24737Y-20200D01*
X-24722Y-20185D01*
X-24705Y-20173D01*
X-24599Y-20068D01*
X-24588Y-20050D01*
X-24573Y-20035D01*
X-24490Y-19911D01*
X-24482Y-19891D01*
X-24470Y-19874D01*
X-24413Y-19736D01*
X-24409Y-19715D01*
X-24401Y-19696D01*
X-24371Y-19549D01*
Y-19528D01*
X-24367Y-19508D01*
X-24367Y-19433D01*
X-24367Y-19433D01*
X-24367Y-9762D01*
X-24367Y-9682D01*
X-24371Y-9661D01*
Y-9640D01*
X-24403Y-9483D01*
X-24411Y-9463D01*
X-24415Y-9443D01*
X-24476Y-9295D01*
X-24488Y-9277D01*
X-24496Y-9258D01*
X-24585Y-9124D01*
X-24600Y-9109D01*
X-24612Y-9092D01*
X-24725Y-8979D01*
X-24742Y-8967D01*
X-24757Y-8952D01*
X-24891Y-8863D01*
X-24910Y-8855D01*
X-24928Y-8843D01*
X-25076Y-8782D01*
X-25096Y-8778D01*
X-25116Y-8770D01*
X-25235Y-8746D01*
X-25249D01*
X-25263Y-8742D01*
X-25381Y-8735D01*
X-25388Y-8736D01*
X-25394Y-8734D01*
X-25395D01*
X-25395Y-8734D01*
X-26214Y-8734D01*
X-26359Y-8734D01*
X-26369Y-8736D01*
X-26380Y-8735D01*
X-26668Y-8764D01*
X-26678Y-8767D01*
X-26688D01*
X-26972Y-8823D01*
X-26982Y-8827D01*
X-26992Y-8828D01*
X-27269Y-8912D01*
X-27278Y-8917D01*
X-27289Y-8919D01*
X-27556Y-9030D01*
X-27565Y-9036D01*
X-27575Y-9039D01*
X-27830Y-9175D01*
X-27838Y-9182D01*
X-27848Y-9186D01*
X-28088Y-9347D01*
X-28096Y-9354D01*
X-28105Y-9359D01*
X-28329Y-9543D01*
X-28335Y-9551D01*
X-28344Y-9557D01*
X-28446Y-9659D01*
X-28446Y-9659D01*
X-30857Y-12069D01*
X-33354D01*
X-33363Y-12067D01*
Y-11933D01*
X-32899Y-11783D01*
X-32387Y-11522D01*
X-31922Y-11184D01*
X-31516Y-10778D01*
X-31178Y-10313D01*
X-30917Y-9801D01*
X-30740Y-9255D01*
X-30650Y-8687D01*
Y-8113D01*
X-30740Y-7545D01*
X-30917Y-6999D01*
X-31178Y-6487D01*
X-31516Y-6022D01*
X-31568Y-5970D01*
X-31376Y-5779D01*
X-29680D01*
X-29653Y-5773D01*
X-29626Y-5772D01*
X-29619Y-5768D01*
X-3666D01*
X-3660Y-5772D01*
D02*
G37*
G36*
X27741Y-9432D02*
X28178Y-9613D01*
X28572Y-9876D01*
X28739Y-10043D01*
X28739Y-10043D01*
X28739Y-10043D01*
X30003Y-11307D01*
X30103Y-11402D01*
X30315Y-11576D01*
X30544Y-11729D01*
X30787Y-11859D01*
X31042Y-11964D01*
X31305Y-12044D01*
X31575Y-12098D01*
X31849Y-12125D01*
X31987Y-12128D01*
X31987Y-12128D01*
X36629Y-12128D01*
X36715Y-12128D01*
X36883Y-12162D01*
X37042Y-12228D01*
X37184Y-12323D01*
X37306Y-12444D01*
X37401Y-12587D01*
X37467Y-12746D01*
X37494Y-12880D01*
X37500Y-13000D01*
Y-13000D01*
X37500Y-13000D01*
X37500Y-13000D01*
X37500Y-19689D01*
Y-19797D01*
X37458Y-20010D01*
X37375Y-20210D01*
X37255Y-20390D01*
X37102Y-20543D01*
X36921Y-20664D01*
X36721Y-20747D01*
X36509Y-20789D01*
X36400D01*
Y-20789D01*
X26642Y-20789D01*
X26564Y-20789D01*
X26412Y-20759D01*
X26269Y-20699D01*
X26140Y-20613D01*
X26030Y-20503D01*
X25944Y-20375D01*
X25884Y-20231D01*
X25854Y-20079D01*
X25854Y-20002D01*
X25854Y-10050D01*
Y-9980D01*
X25881Y-9842D01*
X25935Y-9713D01*
X26013Y-9597D01*
X26112Y-9498D01*
X26228Y-9420D01*
X26357Y-9367D01*
X26443Y-9350D01*
X26565Y-9339D01*
D01*
X26684Y-9339D01*
X27040Y-9339D01*
X27277Y-9339D01*
X27741Y-9432D01*
D02*
G37*
G36*
X-26214Y-8948D02*
X-25395Y-8948D01*
X-25395Y-8948D01*
X-25395Y-8948D01*
X-25394D01*
X-25277Y-8956D01*
X-25158Y-8980D01*
X-25010Y-9041D01*
X-24876Y-9130D01*
X-24763Y-9243D01*
X-24674Y-9377D01*
X-24613Y-9525D01*
X-24581Y-9682D01*
X-24581Y-9762D01*
X-24581Y-19433D01*
X-24581Y-19433D01*
X-24581Y-19508D01*
X-24611Y-19654D01*
X-24668Y-19792D01*
X-24751Y-19916D01*
X-24856Y-20022D01*
X-24980Y-20105D01*
X-25118Y-20162D01*
X-25265Y-20191D01*
X-25340Y-20191D01*
X-36030Y-20191D01*
X-36197D01*
X-36524Y-20126D01*
X-36832Y-19998D01*
X-37110Y-19813D01*
X-37346Y-19577D01*
X-37531Y-19299D01*
X-37659Y-18991D01*
X-37724Y-18664D01*
Y-18497D01*
Y-13992D01*
X-37724D01*
Y-13824D01*
X-37658Y-13494D01*
X-37529Y-13183D01*
X-37343Y-12903D01*
X-37154Y-12715D01*
X-37123Y-12723D01*
X-36936D01*
X-36755Y-12675D01*
X-36594Y-12581D01*
X-36461Y-12449D01*
X-36389Y-12324D01*
X-36184Y-12283D01*
X-30768D01*
X-28295Y-9810D01*
X-28295Y-9810D01*
X-28295Y-9810D01*
X-28193Y-9708D01*
X-27969Y-9525D01*
X-27729Y-9364D01*
X-27474Y-9228D01*
X-27207Y-9117D01*
X-26930Y-9033D01*
X-26647Y-8977D01*
X-26359Y-8948D01*
X-26214Y-8948D01*
D02*
G37*
%LPC*%
G36*
X21502Y46648D02*
X21133D01*
X20777Y46552D01*
X20458Y46368D01*
X20325Y46236D01*
X20067Y46150D01*
X19809Y46236D01*
X19677Y46368D01*
X19358Y46552D01*
X19002Y46648D01*
X18633D01*
X18277Y46552D01*
X17958Y46368D01*
X17697Y46107D01*
X17513Y45788D01*
X17417Y45432D01*
Y45063D01*
X17513Y44707D01*
X17697Y44388D01*
X17958Y44127D01*
X18277Y43943D01*
X18633Y43848D01*
X19002D01*
X19358Y43943D01*
X19677Y44127D01*
X19809Y44260D01*
X20067Y44345D01*
X20325Y44260D01*
X20458Y44127D01*
X20777Y43943D01*
X21133Y43848D01*
X21502D01*
X21858Y43943D01*
X22177Y44127D01*
X22419Y44370D01*
X22453Y44392D01*
X22505Y44404D01*
X22903Y44394D01*
X23050Y44247D01*
X23335Y44083D01*
X23517Y44034D01*
Y45248D01*
Y46461D01*
X23335Y46413D01*
X23050Y46248D01*
X22903Y46101D01*
X22505Y46091D01*
X22453Y46103D01*
X22419Y46126D01*
X22177Y46368D01*
X21858Y46552D01*
X21502Y46648D01*
D02*
G37*
G36*
X6541D02*
X6173D01*
X5817Y46552D01*
X5497Y46368D01*
X5365Y46236D01*
X5107Y46150D01*
X4849Y46236D01*
X4717Y46368D01*
X4397Y46552D01*
X4041Y46648D01*
X3673D01*
X3317Y46552D01*
X2997Y46368D01*
X2737Y46107D01*
X2552Y45788D01*
X2457Y45432D01*
Y45063D01*
X2552Y44707D01*
X2737Y44388D01*
X2997Y44127D01*
X3317Y43943D01*
X3673Y43848D01*
X4041D01*
X4397Y43943D01*
X4717Y44127D01*
X4849Y44260D01*
X5107Y44345D01*
X5365Y44260D01*
X5497Y44127D01*
X5817Y43943D01*
X6173Y43848D01*
X6541D01*
X6897Y43943D01*
X7217Y44127D01*
X7459Y44370D01*
X7493Y44392D01*
X7544Y44404D01*
X7943Y44394D01*
X8089Y44247D01*
X8375Y44083D01*
X8557Y44034D01*
Y45248D01*
Y46461D01*
X8375Y46413D01*
X8089Y46248D01*
X7943Y46101D01*
X7544Y46091D01*
X7493Y46103D01*
X7459Y46126D01*
X7217Y46368D01*
X6897Y46552D01*
X6541Y46648D01*
D02*
G37*
G36*
X-8619D02*
X-8988D01*
X-9344Y46552D01*
X-9663Y46368D01*
X-9795Y46236D01*
X-10053Y46150D01*
X-10311Y46236D01*
X-10444Y46368D01*
X-10763Y46552D01*
X-11119Y46648D01*
X-11488D01*
X-11844Y46552D01*
X-12163Y46368D01*
X-12424Y46107D01*
X-12608Y45788D01*
X-12703Y45432D01*
Y45063D01*
X-12608Y44707D01*
X-12424Y44388D01*
X-12163Y44127D01*
X-11844Y43943D01*
X-11488Y43848D01*
X-11119D01*
X-10763Y43943D01*
X-10444Y44127D01*
X-10311Y44260D01*
X-10053Y44345D01*
X-9795Y44260D01*
X-9663Y44127D01*
X-9344Y43943D01*
X-8988Y43848D01*
X-8619D01*
X-8263Y43943D01*
X-7944Y44127D01*
X-7701Y44370D01*
X-7667Y44392D01*
X-7616Y44404D01*
X-7218Y44394D01*
X-7071Y44247D01*
X-6786Y44083D01*
X-6603Y44034D01*
Y45248D01*
Y46461D01*
X-6786Y46413D01*
X-7071Y46248D01*
X-7218Y46101D01*
X-7616Y46091D01*
X-7667Y46103D01*
X-7701Y46126D01*
X-7944Y46368D01*
X-8263Y46552D01*
X-8619Y46648D01*
D02*
G37*
G36*
X-23679D02*
X-24047D01*
X-24403Y46552D01*
X-24723Y46368D01*
X-24855Y46236D01*
X-25113Y46150D01*
X-25371Y46236D01*
X-25503Y46368D01*
X-25823Y46552D01*
X-26179Y46648D01*
X-26547D01*
X-26903Y46552D01*
X-27223Y46368D01*
X-27483Y46107D01*
X-27668Y45788D01*
X-27763Y45432D01*
Y45063D01*
X-27668Y44707D01*
X-27483Y44388D01*
X-27223Y44127D01*
X-26903Y43943D01*
X-26547Y43848D01*
X-26179D01*
X-25823Y43943D01*
X-25503Y44127D01*
X-25371Y44260D01*
X-25113Y44345D01*
X-24855Y44260D01*
X-24723Y44127D01*
X-24403Y43943D01*
X-24047Y43848D01*
X-23679D01*
X-23323Y43943D01*
X-23003Y44127D01*
X-22761Y44370D01*
X-22727Y44392D01*
X-22676Y44404D01*
X-22277Y44394D01*
X-22131Y44247D01*
X-21846Y44083D01*
X-21663Y44034D01*
Y45248D01*
Y46461D01*
X-21846Y46413D01*
X-22131Y46248D01*
X-22277Y46101D01*
X-22676Y46091D01*
X-22727Y46103D01*
X-22761Y46126D01*
X-23003Y46368D01*
X-23323Y46552D01*
X-23679Y46648D01*
D02*
G37*
G36*
X26017Y46461D02*
X25835Y46413D01*
X25550Y46248D01*
X25317Y46015D01*
X25298Y45983D01*
X24836D01*
X24817Y46015D01*
X24585Y46248D01*
X24300Y46413D01*
X24117Y46461D01*
Y45248D01*
Y44034D01*
X24300Y44083D01*
X24585Y44247D01*
X24817Y44480D01*
X24836Y44513D01*
X25298D01*
X25317Y44480D01*
X25550Y44247D01*
X25835Y44083D01*
X26017Y44034D01*
Y45248D01*
Y46461D01*
D02*
G37*
G36*
X11057Y46461D02*
X10875Y46413D01*
X10589Y46248D01*
X10357Y46015D01*
X10338Y45983D01*
X9876D01*
X9857Y46015D01*
X9625Y46248D01*
X9339Y46413D01*
X9157Y46461D01*
Y45248D01*
Y44034D01*
X9339Y44083D01*
X9625Y44247D01*
X9857Y44480D01*
X9876Y44513D01*
X10338D01*
X10357Y44480D01*
X10589Y44247D01*
X10875Y44083D01*
X11057Y44034D01*
Y45248D01*
Y46461D01*
D02*
G37*
G36*
X-4103D02*
X-4286Y46413D01*
X-4571Y46248D01*
X-4803Y46015D01*
X-4822Y45983D01*
X-5284D01*
X-5303Y46015D01*
X-5536Y46248D01*
X-5821Y46413D01*
X-6003Y46461D01*
Y45248D01*
Y44034D01*
X-5821Y44083D01*
X-5536Y44247D01*
X-5303Y44480D01*
X-5284Y44513D01*
X-4822D01*
X-4803Y44480D01*
X-4571Y44247D01*
X-4286Y44083D01*
X-4103Y44034D01*
Y45248D01*
Y46461D01*
D02*
G37*
G36*
X-19163D02*
X-19346Y46413D01*
X-19631Y46248D01*
X-19863Y46015D01*
X-19882Y45983D01*
X-20344D01*
X-20363Y46015D01*
X-20595Y46248D01*
X-20881Y46413D01*
X-21063Y46461D01*
Y45248D01*
Y44034D01*
X-20881Y44083D01*
X-20595Y44247D01*
X-20363Y44480D01*
X-20344Y44513D01*
X-19882D01*
X-19863Y44480D01*
X-19631Y44247D01*
X-19346Y44083D01*
X-19163Y44034D01*
Y45248D01*
Y46461D01*
D02*
G37*
G36*
X26617Y46461D02*
Y45548D01*
X27531D01*
X27482Y45730D01*
X27317Y46015D01*
X27085Y46248D01*
X26800Y46413D01*
X26617Y46461D01*
D02*
G37*
G36*
X11657Y46461D02*
Y45548D01*
X12571D01*
X12522Y45730D01*
X12357Y46015D01*
X12125Y46248D01*
X11839Y46413D01*
X11657Y46461D01*
D02*
G37*
G36*
X-18563D02*
Y45548D01*
X-17649D01*
X-17698Y45730D01*
X-17863Y46015D01*
X-18095Y46248D01*
X-18381Y46413D01*
X-18563Y46461D01*
D02*
G37*
G36*
X-3503D02*
Y45548D01*
X-2590D01*
X-2638Y45730D01*
X-2803Y46015D01*
X-3036Y46248D01*
X-3321Y46413D01*
X-3503Y46461D01*
D02*
G37*
G36*
X27531Y44948D02*
X26617D01*
Y44034D01*
X26800Y44083D01*
X27085Y44247D01*
X27317Y44480D01*
X27482Y44765D01*
X27531Y44948D01*
D02*
G37*
G36*
X12571Y44948D02*
X11657D01*
Y44034D01*
X11839Y44083D01*
X12125Y44247D01*
X12357Y44480D01*
X12522Y44765D01*
X12571Y44948D01*
D02*
G37*
G36*
X-17649D02*
X-18563D01*
Y44034D01*
X-18381Y44083D01*
X-18095Y44247D01*
X-17863Y44480D01*
X-17698Y44765D01*
X-17649Y44948D01*
D02*
G37*
G36*
X-2590Y44948D02*
X-3503D01*
Y44034D01*
X-3321Y44083D01*
X-3036Y44247D01*
X-2803Y44480D01*
X-2638Y44765D01*
X-2590Y44948D01*
D02*
G37*
G36*
X28844Y14046D02*
X28657D01*
X28477Y13998D01*
X28315Y13904D01*
X28183Y13772D01*
X28089Y13610D01*
X28041Y13429D01*
Y13242D01*
X28089Y13062D01*
X28183Y12900D01*
X28315Y12768D01*
X28477Y12674D01*
X28657Y12626D01*
X28844D01*
X29025Y12674D01*
X29187Y12768D01*
X29319Y12900D01*
X29412Y13062D01*
X29461Y13242D01*
Y13429D01*
X29412Y13610D01*
X29319Y13772D01*
X29187Y13904D01*
X29025Y13998D01*
X28844Y14046D01*
D02*
G37*
G36*
X9552D02*
X9365D01*
X9185Y13998D01*
X9023Y13904D01*
X8891Y13772D01*
X8797Y13610D01*
X8749Y13429D01*
Y13242D01*
X8797Y13062D01*
X8891Y12900D01*
X9023Y12768D01*
X9185Y12674D01*
X9365Y12626D01*
X9552D01*
X9733Y12674D01*
X9895Y12768D01*
X10027Y12900D01*
X10120Y13062D01*
X10169Y13242D01*
Y13429D01*
X10120Y13610D01*
X10027Y13772D01*
X9895Y13904D01*
X9733Y13998D01*
X9552Y14046D01*
D02*
G37*
G36*
X-10186D02*
X-10373D01*
X-10553Y13998D01*
X-10715Y13904D01*
X-10847Y13772D01*
X-10941Y13610D01*
X-10989Y13429D01*
Y13242D01*
X-10941Y13062D01*
X-10847Y12900D01*
X-10715Y12768D01*
X-10553Y12674D01*
X-10373Y12626D01*
X-10186D01*
X-10005Y12674D01*
X-9843Y12768D01*
X-9711Y12900D01*
X-9618Y13062D01*
X-9569Y13242D01*
Y13429D01*
X-9618Y13610D01*
X-9711Y13772D01*
X-9843Y13904D01*
X-10005Y13998D01*
X-10186Y14046D01*
D02*
G37*
G36*
X-29583D02*
X-29769D01*
X-29950Y13998D01*
X-30112Y13904D01*
X-30244Y13772D01*
X-30338Y13610D01*
X-30386Y13429D01*
Y13242D01*
X-30338Y13062D01*
X-30244Y12900D01*
X-30112Y12768D01*
X-29950Y12674D01*
X-29769Y12626D01*
X-29583D01*
X-29402Y12674D01*
X-29240Y12768D01*
X-29108Y12900D01*
X-29014Y13062D01*
X-28966Y13242D01*
Y13429D01*
X-29014Y13610D01*
X-29108Y13772D01*
X-29240Y13904D01*
X-29402Y13998D01*
X-29583Y14046D01*
D02*
G37*
G36*
X-7932Y13414D02*
X-8119D01*
X-8299Y13366D01*
X-8461Y13272D01*
X-8593Y13140D01*
X-8687Y12978D01*
X-8735Y12797D01*
Y12611D01*
X-8687Y12430D01*
X-8593Y12268D01*
X-8461Y12136D01*
X-8299Y12042D01*
X-8119Y11994D01*
X-7932D01*
X-7751Y12042D01*
X-7589Y12136D01*
X-7457Y12268D01*
X-7364Y12430D01*
X-7315Y12611D01*
Y12797D01*
X-7364Y12978D01*
X-7457Y13140D01*
X-7589Y13272D01*
X-7751Y13366D01*
X-7932Y13414D01*
D02*
G37*
G36*
X-27373D02*
X-27559D01*
X-27740Y13366D01*
X-27902Y13272D01*
X-28034Y13140D01*
X-28128Y12978D01*
X-28176Y12797D01*
Y12611D01*
X-28128Y12430D01*
X-28034Y12268D01*
X-27902Y12136D01*
X-27740Y12042D01*
X-27559Y11994D01*
X-27373D01*
X-27192Y12042D01*
X-27030Y12136D01*
X-26898Y12268D01*
X-26804Y12430D01*
X-26756Y12611D01*
Y12797D01*
X-26804Y12978D01*
X-26898Y13140D01*
X-27030Y13272D01*
X-27192Y13366D01*
X-27373Y13414D01*
D02*
G37*
G36*
X31054Y13409D02*
X30867D01*
X30687Y13360D01*
X30525Y13267D01*
X30393Y13135D01*
X30299Y12973D01*
X30251Y12792D01*
Y12605D01*
X30299Y12425D01*
X30393Y12263D01*
X30525Y12131D01*
X30687Y12037D01*
X30867Y11989D01*
X31054D01*
X31235Y12037D01*
X31397Y12131D01*
X31529Y12263D01*
X31622Y12425D01*
X31671Y12605D01*
Y12792D01*
X31622Y12973D01*
X31529Y13135D01*
X31397Y13267D01*
X31235Y13360D01*
X31054Y13409D01*
D02*
G37*
G36*
X11562D02*
X11375D01*
X11195Y13360D01*
X11033Y13267D01*
X10901Y13135D01*
X10807Y12973D01*
X10759Y12792D01*
Y12605D01*
X10807Y12425D01*
X10901Y12263D01*
X11033Y12131D01*
X11195Y12037D01*
X11375Y11989D01*
X11562D01*
X11743Y12037D01*
X11905Y12131D01*
X12037Y12263D01*
X12130Y12425D01*
X12179Y12605D01*
Y12792D01*
X12130Y12973D01*
X12037Y13135D01*
X11905Y13267D01*
X11743Y13360D01*
X11562Y13409D01*
D02*
G37*
G36*
X-9584Y7225D02*
X-9771D01*
X-9951Y7176D01*
X-10113Y7083D01*
X-10245Y6951D01*
X-10339Y6789D01*
X-10387Y6608D01*
Y6421D01*
X-10339Y6241D01*
X-10245Y6079D01*
X-10113Y5946D01*
X-9951Y5853D01*
X-9771Y5805D01*
X-9584D01*
X-9403Y5853D01*
X-9241Y5946D01*
X-9109Y6079D01*
X-9016Y6241D01*
X-8967Y6421D01*
Y6608D01*
X-9016Y6789D01*
X-9109Y6951D01*
X-9241Y7083D01*
X-9403Y7176D01*
X-9584Y7225D01*
D02*
G37*
G36*
X9461Y6803D02*
X9275D01*
X9094Y6755D01*
X8932Y6661D01*
X8800Y6529D01*
X8706Y6367D01*
X8658Y6187D01*
Y6000D01*
X8706Y5819D01*
X8800Y5657D01*
X8932Y5525D01*
X9094Y5431D01*
X9275Y5383D01*
X9461D01*
X9642Y5431D01*
X9804Y5525D01*
X9936Y5657D01*
X10030Y5819D01*
X10078Y6000D01*
Y6187D01*
X10030Y6367D01*
X9936Y6529D01*
X9804Y6661D01*
X9642Y6755D01*
X9461Y6803D01*
D02*
G37*
G36*
X28844Y6720D02*
X28657D01*
X28477Y6672D01*
X28315Y6579D01*
X28183Y6446D01*
X28089Y6284D01*
X28041Y6104D01*
Y5917D01*
X28089Y5736D01*
X28183Y5574D01*
X28315Y5442D01*
X28477Y5349D01*
X28657Y5300D01*
X28844D01*
X29025Y5349D01*
X29187Y5442D01*
X29319Y5574D01*
X29412Y5736D01*
X29461Y5917D01*
Y6104D01*
X29412Y6284D01*
X29319Y6446D01*
X29187Y6579D01*
X29025Y6672D01*
X28844Y6720D01*
D02*
G37*
G36*
X-29583D02*
X-29769D01*
X-29950Y6672D01*
X-30112Y6579D01*
X-30244Y6446D01*
X-30338Y6284D01*
X-30386Y6104D01*
Y5917D01*
X-30338Y5736D01*
X-30244Y5574D01*
X-30112Y5442D01*
X-29950Y5349D01*
X-29769Y5300D01*
X-29583D01*
X-29402Y5349D01*
X-29240Y5442D01*
X-29108Y5574D01*
X-29014Y5736D01*
X-28966Y5917D01*
Y6104D01*
X-29014Y6284D01*
X-29108Y6446D01*
X-29240Y6579D01*
X-29402Y6672D01*
X-29583Y6720D01*
D02*
G37*
G36*
X33290Y3692D02*
X33067D01*
X32861Y3607D01*
X32704Y3450D01*
X32618Y3244D01*
Y3021D01*
X32704Y2815D01*
X32861Y2658D01*
X33067Y2572D01*
X33290D01*
X33495Y2658D01*
X33653Y2815D01*
X33738Y3021D01*
Y3244D01*
X33653Y3450D01*
X33495Y3607D01*
X33290Y3692D01*
D02*
G37*
G36*
X-5735Y3690D02*
X-5958D01*
X-6164Y3605D01*
X-6321Y3448D01*
X-6407Y3242D01*
Y3019D01*
X-6321Y2813D01*
X-6164Y2656D01*
X-5958Y2570D01*
X-5735D01*
X-5529Y2656D01*
X-5372Y2813D01*
X-5287Y3019D01*
Y3242D01*
X-5372Y3448D01*
X-5529Y3605D01*
X-5735Y3690D01*
D02*
G37*
G36*
X-24159Y3616D02*
X-24381D01*
X-24587Y3530D01*
X-24745Y3373D01*
X-24830Y3167D01*
Y2944D01*
X-24745Y2738D01*
X-24587Y2581D01*
X-24381Y2496D01*
X-24159D01*
X-23953Y2581D01*
X-23795Y2738D01*
X-23710Y2944D01*
Y3167D01*
X-23795Y3373D01*
X-23953Y3530D01*
X-24159Y3616D01*
D02*
G37*
G36*
X14162Y3478D02*
X13939D01*
X13734Y3392D01*
X13576Y3235D01*
X13491Y3029D01*
Y2806D01*
X13576Y2600D01*
X13734Y2443D01*
X13939Y2358D01*
X14162D01*
X14368Y2443D01*
X14526Y2600D01*
X14611Y2806D01*
Y3029D01*
X14526Y3235D01*
X14368Y3392D01*
X14162Y3478D01*
D02*
G37*
G36*
X-8041Y-7139D02*
X-8264D01*
X-8469Y-7224D01*
X-8545Y-7300D01*
X-8628Y-7381D01*
X-8711Y-7300D01*
X-8786Y-7224D01*
X-8992Y-7139D01*
X-9215D01*
X-9421Y-7224D01*
X-9578Y-7382D01*
X-9664Y-7588D01*
Y-7810D01*
X-9578Y-8016D01*
X-9421Y-8174D01*
X-9215Y-8259D01*
X-8992D01*
X-8786Y-8174D01*
X-8711Y-8098D01*
X-8628Y-8017D01*
X-8545Y-8098D01*
X-8469Y-8174D01*
X-8264Y-8259D01*
X-8041D01*
X-7835Y-8174D01*
X-7677Y-8016D01*
X-7592Y-7810D01*
Y-7588D01*
X-7677Y-7382D01*
X-7835Y-7224D01*
X-8041Y-7139D01*
D02*
G37*
G36*
X-22370Y-6503D02*
X-22592D01*
X-22798Y-6589D01*
X-22956Y-6746D01*
X-23041Y-6952D01*
Y-7175D01*
X-22956Y-7381D01*
X-22798Y-7538D01*
X-22592Y-7623D01*
X-22370D01*
X-22164Y-7538D01*
X-22006Y-7381D01*
X-21921Y-7175D01*
Y-6952D01*
X-22006Y-6746D01*
X-22164Y-6589D01*
X-22370Y-6503D01*
D02*
G37*
G36*
X-6181Y-6707D02*
X-6404D01*
X-6610Y-6793D01*
X-6767Y-6950D01*
X-6853Y-7156D01*
Y-7379D01*
X-6767Y-7585D01*
X-6610Y-7742D01*
X-6404Y-7827D01*
X-6181D01*
X-5975Y-7742D01*
X-5818Y-7585D01*
X-5733Y-7379D01*
Y-7156D01*
X-5818Y-6950D01*
X-5975Y-6793D01*
X-6181Y-6707D01*
D02*
G37*
G36*
X1815Y-6892D02*
X1592D01*
X1386Y-6978D01*
X1229Y-7135D01*
X1144Y-7341D01*
Y-7564D01*
X1229Y-7769D01*
X1386Y-7927D01*
X1592Y-8012D01*
X1815D01*
X2021Y-7927D01*
X2178Y-7769D01*
X2264Y-7564D01*
Y-7341D01*
X2178Y-7135D01*
X2021Y-6978D01*
X1815Y-6892D01*
D02*
G37*
G36*
X12054Y-6607D02*
X11831D01*
X11625Y-6693D01*
X11468Y-6850D01*
X11382Y-7056D01*
Y-7279D01*
X11468Y-7485D01*
X11567Y-7584D01*
X11612Y-7667D01*
X11567Y-7750D01*
X11468Y-7850D01*
X11382Y-8056D01*
Y-8279D01*
X11468Y-8485D01*
X11625Y-8642D01*
X11831Y-8727D01*
X12054D01*
X12259Y-8642D01*
X12417Y-8485D01*
X12502Y-8279D01*
Y-8056D01*
X12417Y-7850D01*
X12317Y-7750D01*
X12273Y-7667D01*
X12317Y-7584D01*
X12417Y-7485D01*
X12502Y-7279D01*
Y-7056D01*
X12417Y-6850D01*
X12259Y-6693D01*
X12054Y-6607D01*
D02*
G37*
G36*
X604Y-7694D02*
X382D01*
X176Y-7779D01*
X18Y-7937D01*
X-67Y-8143D01*
Y-8365D01*
X18Y-8571D01*
X176Y-8729D01*
X382Y-8814D01*
X604D01*
X810Y-8729D01*
X968Y-8571D01*
X1053Y-8365D01*
Y-8143D01*
X968Y-7937D01*
X810Y-7779D01*
X604Y-7694D01*
D02*
G37*
G36*
X-12561Y-9778D02*
X-12748D01*
X-12826Y-9799D01*
X-13783D01*
X-13861Y-9778D01*
X-14048D01*
X-14126Y-9799D01*
X-15083Y-9799D01*
X-15161Y-9778D01*
X-15348D01*
X-15426Y-9799D01*
X-17320Y-9799D01*
X-17401Y-9815D01*
X-17471Y-9862D01*
X-17607Y-9998D01*
X-17965Y-10237D01*
X-18363Y-10402D01*
X-18785Y-10486D01*
X-19216D01*
X-19425Y-10444D01*
X-19436D01*
X-19446Y-10441D01*
X-19477Y-10444D01*
X-19509D01*
X-19519Y-10448D01*
X-19529Y-10449D01*
X-19557Y-10464D01*
X-19586Y-10476D01*
X-19594Y-10484D01*
X-19603Y-10489D01*
X-19613Y-10502D01*
X-19646Y-10535D01*
X-19721Y-10544D01*
X-19789Y-10533D01*
X-19803Y-10524D01*
X-19924Y-10500D01*
X-20735D01*
X-20856Y-10524D01*
X-20959Y-10592D01*
X-21724Y-11358D01*
X-21793Y-11460D01*
X-21817Y-11581D01*
Y-26029D01*
X-21793Y-26150D01*
X-21724Y-26252D01*
X-20378Y-27598D01*
X-20433Y-27653D01*
X-20518Y-27859D01*
Y-28081D01*
X-20510Y-28101D01*
X-20605Y-28203D01*
X-20794D01*
X-21000Y-28288D01*
X-21158Y-28445D01*
X-21243Y-28651D01*
Y-28874D01*
X-21158Y-29080D01*
X-21000Y-29237D01*
X-20794Y-29323D01*
X-20571D01*
X-20366Y-29237D01*
X-20208Y-29080D01*
X-20208Y-29079D01*
X-19712D01*
X-19591Y-29055D01*
X-19488Y-28986D01*
X-19048Y-28546D01*
X-18979Y-28443D01*
X-18955Y-28323D01*
Y-27654D01*
X-18979Y-27533D01*
X-19048Y-27431D01*
X-19292Y-27187D01*
X-19229Y-27070D01*
X-18912Y-27133D01*
X-18891D01*
X-18870Y-27137D01*
X-18668Y-27137D01*
X-9000Y-27137D01*
X-2961Y-27137D01*
X-2936Y-27264D01*
X-2957Y-27273D01*
X-3115Y-27430D01*
X-3200Y-27636D01*
Y-27859D01*
X-3115Y-28065D01*
X-2957Y-28222D01*
X-2752Y-28308D01*
X-2529D01*
X-2323Y-28222D01*
X-2166Y-28065D01*
X-2080Y-27859D01*
Y-27636D01*
X-2166Y-27430D01*
X-2323Y-27273D01*
X-2345Y-27264D01*
X-2320Y-27137D01*
X-1612D01*
X-1605Y-27135D01*
X-1597Y-27136D01*
X-1474Y-27128D01*
X-1461Y-27124D01*
X-1447Y-27124D01*
X-1338Y-27102D01*
X-1318Y-27094D01*
X-1298Y-27090D01*
X-1152Y-27030D01*
X-1135Y-27018D01*
X-1115Y-27010D01*
X-984Y-26923D01*
X-969Y-26908D01*
X-952Y-26896D01*
X-840Y-26785D01*
X-829Y-26767D01*
X-814Y-26752D01*
X-726Y-26622D01*
X-718Y-26602D01*
X-707Y-26584D01*
X-646Y-26439D01*
X-642Y-26418D01*
X-634Y-26399D01*
X-604Y-26245D01*
X-604Y-26223D01*
X-599Y-26203D01*
X-600Y-26124D01*
Y-25803D01*
X-525Y-25753D01*
X-247Y-25475D01*
X-28Y-25147D01*
X123Y-24783D01*
X200Y-24397D01*
Y-24003D01*
X123Y-23617D01*
X-28Y-23253D01*
X-247Y-22925D01*
X-525Y-22646D01*
X-600Y-22597D01*
X-600Y-10772D01*
X-600Y-10772D01*
Y-10772D01*
X-601Y-10764D01*
X-600Y-10757D01*
X-609Y-10640D01*
X-612Y-10627D01*
Y-10613D01*
X-633Y-10509D01*
X-641Y-10490D01*
X-645Y-10469D01*
X-702Y-10331D01*
X-714Y-10313D01*
X-722Y-10294D01*
X-805Y-10169D01*
X-820Y-10155D01*
X-832Y-10137D01*
X-937Y-10031D01*
X-955Y-10020D01*
X-970Y-10005D01*
X-1094Y-9922D01*
X-1114Y-9914D01*
X-1131Y-9902D01*
X-1269Y-9845D01*
X-1290Y-9841D01*
X-1309Y-9832D01*
X-1456Y-9803D01*
X-1477D01*
X-1498Y-9799D01*
X-1573Y-9799D01*
X-12483Y-9799D01*
X-12561Y-9778D01*
D02*
G37*
G36*
X3345Y-9799D02*
X3217D01*
X3135Y-9816D01*
X2900Y-9913D01*
X2831Y-9959D01*
X2651Y-10139D01*
X2604Y-10209D01*
X2507Y-10444D01*
X2491Y-10526D01*
Y-10653D01*
X2491Y-10653D01*
Y-10791D01*
X2364Y-10825D01*
X2357Y-10814D01*
X2225Y-10682D01*
X2063Y-10588D01*
X1883Y-10540D01*
X1696D01*
X1515Y-10588D01*
X1353Y-10682D01*
X1221Y-10814D01*
X1128Y-10976D01*
X1079Y-11156D01*
Y-11343D01*
X1128Y-11524D01*
X1221Y-11686D01*
X1353Y-11818D01*
X1515Y-11911D01*
X1696Y-11960D01*
X1883D01*
X2063Y-11911D01*
X2225Y-11818D01*
X2357Y-11686D01*
X2364Y-11675D01*
X2491Y-11709D01*
X2491Y-22644D01*
X2487Y-22646D01*
X2208Y-22925D01*
X1989Y-23253D01*
X1838Y-23617D01*
X1762Y-24003D01*
Y-24397D01*
X1838Y-24783D01*
X1989Y-25147D01*
X2208Y-25475D01*
X2487Y-25753D01*
X2491Y-25756D01*
Y-26028D01*
X2491Y-26127D01*
X2495Y-26148D01*
X2495Y-26169D01*
X2533Y-26364D01*
X2541Y-26383D01*
X2546Y-26404D01*
X2622Y-26588D01*
X2633Y-26605D01*
X2641Y-26625D01*
X2752Y-26790D01*
X2767Y-26805D01*
X2778Y-26823D01*
X2919Y-26964D01*
X2937Y-26975D01*
X2952Y-26990D01*
X3117Y-27101D01*
X3136Y-27109D01*
X3154Y-27121D01*
X3338Y-27197D01*
X3358Y-27201D01*
X3378Y-27209D01*
X3573Y-27248D01*
X3594Y-27248D01*
X3615Y-27252D01*
X3714Y-27252D01*
X12860Y-27252D01*
X13037Y-27256D01*
X13390Y-27291D01*
X13736Y-27360D01*
X14074Y-27462D01*
X14400Y-27597D01*
X14711Y-27764D01*
X15004Y-27960D01*
X15279Y-28185D01*
X15408Y-28309D01*
X15410Y-28310D01*
X17096Y-29995D01*
X17225Y-30125D01*
X17243Y-30137D01*
X17258Y-30151D01*
X17563Y-30355D01*
X17582Y-30363D01*
X17600Y-30375D01*
X17939Y-30515D01*
X17959Y-30520D01*
X17979Y-30528D01*
X18338Y-30599D01*
X18360D01*
X18380Y-30603D01*
X18564Y-30603D01*
X21240D01*
X21261Y-30599D01*
X21282D01*
X21445Y-30567D01*
X21464Y-30559D01*
X21485Y-30555D01*
X21638Y-30491D01*
X21656Y-30479D01*
X21675Y-30471D01*
X21813Y-30379D01*
X21828Y-30364D01*
X21846Y-30352D01*
X21963Y-30235D01*
X21975Y-30217D01*
X21990Y-30203D01*
X22082Y-30065D01*
X22090Y-30045D01*
X22102Y-30028D01*
X22165Y-29874D01*
X22170Y-29853D01*
X22178Y-29834D01*
X22210Y-29671D01*
Y-29650D01*
X22214Y-29629D01*
X22214Y-29546D01*
X22214Y-29546D01*
X22214Y-27289D01*
X22214Y-10698D01*
X22214Y-10631D01*
X22210Y-10610D01*
Y-10589D01*
X22184Y-10457D01*
X22176Y-10437D01*
X22171Y-10417D01*
X22120Y-10292D01*
X22108Y-10274D01*
X22100Y-10255D01*
X22025Y-10143D01*
X22010Y-10128D01*
X21998Y-10110D01*
X21903Y-10015D01*
X21885Y-10003D01*
X21871Y-9988D01*
X21758Y-9913D01*
X21739Y-9905D01*
X21721Y-9893D01*
X21597Y-9842D01*
X21576Y-9838D01*
X21556Y-9830D01*
X21474Y-9813D01*
X21462D01*
X21450Y-9810D01*
X21333Y-9800D01*
X21324Y-9801D01*
X21315Y-9799D01*
X21315D01*
X21315Y-9799D01*
X20681D01*
X20599Y-9816D01*
X20529Y-9862D01*
X20393Y-9998D01*
X20035Y-10237D01*
X19638Y-10402D01*
X19215Y-10486D01*
X18785D01*
X18362Y-10402D01*
X17965Y-10237D01*
X17607Y-9998D01*
X17471Y-9862D01*
X17401Y-9816D01*
X17319Y-9799D01*
X3345Y-9799D01*
D02*
G37*
G36*
X38464Y-21703D02*
X38277D01*
X38096Y-21752D01*
X37935Y-21845D01*
X37802Y-21977D01*
X37709Y-22139D01*
X37660Y-22320D01*
Y-22347D01*
X37548Y-22407D01*
X37380Y-22295D01*
X36989Y-22133D01*
X36573Y-22050D01*
X36150D01*
X35734Y-22133D01*
X35343Y-22295D01*
X34991Y-22530D01*
X34692Y-22829D01*
X34456Y-23182D01*
X34294Y-23573D01*
X34212Y-23988D01*
Y-24412D01*
X34294Y-24827D01*
X34456Y-25218D01*
X34692Y-25571D01*
X34991Y-25870D01*
X35343Y-26105D01*
X35734Y-26267D01*
X36150Y-26350D01*
X36573D01*
X36989Y-26267D01*
X37380Y-26105D01*
X37615Y-25948D01*
X37710Y-26038D01*
X37709Y-26039D01*
X37660Y-26220D01*
Y-26407D01*
X37709Y-26587D01*
X37802Y-26749D01*
X37935Y-26881D01*
X37966Y-26900D01*
Y-27027D01*
X37935Y-27045D01*
X37802Y-27177D01*
X37709Y-27339D01*
X37660Y-27520D01*
Y-27707D01*
X37709Y-27887D01*
X37802Y-28049D01*
X37935Y-28181D01*
X37966Y-28200D01*
Y-28327D01*
X37935Y-28345D01*
X37802Y-28477D01*
X37784Y-28509D01*
X37657D01*
X37639Y-28477D01*
X37506Y-28345D01*
X37345Y-28252D01*
X37164Y-28203D01*
X36977D01*
X36796Y-28252D01*
X36635Y-28345D01*
X36502Y-28477D01*
X36409Y-28639D01*
X36360Y-28820D01*
Y-29007D01*
X36409Y-29187D01*
X36502Y-29349D01*
X36511Y-29358D01*
X36462Y-29475D01*
X35229D01*
Y-31475D01*
X35707D01*
X35741Y-31602D01*
X35615Y-31675D01*
X35429Y-31861D01*
X35297Y-32089D01*
X35229Y-32343D01*
Y-32607D01*
X35297Y-32861D01*
X35429Y-33089D01*
X35615Y-33275D01*
X35843Y-33407D01*
X36098Y-33475D01*
X36361D01*
X36615Y-33407D01*
X36843Y-33275D01*
X37029Y-33089D01*
X37161Y-32861D01*
X37229Y-32607D01*
Y-32343D01*
X37161Y-32089D01*
X37029Y-31861D01*
X36843Y-31675D01*
X36717Y-31602D01*
X36751Y-31475D01*
X37229D01*
Y-29606D01*
X37345Y-29575D01*
X37506Y-29481D01*
X37639Y-29349D01*
X37657Y-29317D01*
X37784D01*
X37802Y-29349D01*
X37935Y-29481D01*
X37966Y-29500D01*
Y-29627D01*
X37935Y-29645D01*
X37802Y-29777D01*
X37709Y-29939D01*
X37660Y-30120D01*
Y-30307D01*
X37709Y-30487D01*
X37802Y-30649D01*
X37935Y-30781D01*
X38096Y-30875D01*
X38277Y-30923D01*
X38464D01*
X38645Y-30875D01*
X38806Y-30781D01*
X38939Y-30649D01*
X39032Y-30487D01*
X39080Y-30307D01*
Y-30120D01*
X39032Y-29939D01*
X38939Y-29777D01*
X38806Y-29645D01*
X38775Y-29627D01*
Y-29500D01*
X38806Y-29481D01*
X38939Y-29349D01*
X39032Y-29187D01*
X39080Y-29007D01*
Y-28820D01*
X39032Y-28639D01*
X38939Y-28477D01*
X38806Y-28345D01*
X38775Y-28327D01*
Y-28200D01*
X38806Y-28181D01*
X38939Y-28049D01*
X39032Y-27887D01*
X39080Y-27707D01*
Y-27520D01*
X39032Y-27339D01*
X38939Y-27177D01*
X38806Y-27045D01*
X38775Y-27027D01*
Y-26900D01*
X38806Y-26881D01*
X38939Y-26749D01*
X39032Y-26587D01*
X39080Y-26407D01*
Y-26220D01*
X39032Y-26039D01*
X38939Y-25877D01*
X38806Y-25745D01*
X38645Y-25652D01*
X38464Y-25603D01*
X38277D01*
X38137Y-25641D01*
X38055Y-25536D01*
X38267Y-25218D01*
X38429Y-24827D01*
X38512Y-24412D01*
Y-23988D01*
X38429Y-23573D01*
X38295Y-23250D01*
X38374Y-23124D01*
X38375Y-23123D01*
X38464D01*
X38645Y-23075D01*
X38806Y-22981D01*
X38939Y-22849D01*
X39032Y-22687D01*
X39080Y-22507D01*
Y-22320D01*
X39032Y-22139D01*
X38939Y-21977D01*
X38806Y-21845D01*
X38645Y-21752D01*
X38464Y-21703D01*
D02*
G37*
G36*
X28973Y-22050D02*
X28550D01*
X28134Y-22133D01*
X27743Y-22295D01*
X27391Y-22530D01*
X27092Y-22829D01*
X26856Y-23182D01*
X26694Y-23573D01*
X26612Y-23988D01*
Y-24412D01*
X26694Y-24827D01*
X26856Y-25218D01*
X27092Y-25571D01*
X27391Y-25870D01*
X27743Y-26105D01*
X28134Y-26267D01*
X28550Y-26350D01*
X28973D01*
X29389Y-26267D01*
X29780Y-26105D01*
X30132Y-25870D01*
X30432Y-25571D01*
X30667Y-25218D01*
X30829Y-24827D01*
X30912Y-24412D01*
Y-23988D01*
X30829Y-23573D01*
X30667Y-23182D01*
X30432Y-22829D01*
X30132Y-22530D01*
X29780Y-22295D01*
X29389Y-22133D01*
X28973Y-22050D01*
D02*
G37*
G36*
X-28588Y-22050D02*
X-29012D01*
X-29427Y-22133D01*
X-29818Y-22295D01*
X-30171Y-22530D01*
X-30470Y-22829D01*
X-30705Y-23182D01*
X-30867Y-23573D01*
X-30950Y-23988D01*
Y-24412D01*
X-30867Y-24827D01*
X-30705Y-25218D01*
X-30470Y-25571D01*
X-30171Y-25870D01*
X-29818Y-26105D01*
X-29427Y-26267D01*
X-29012Y-26350D01*
X-28588D01*
X-28173Y-26267D01*
X-27782Y-26105D01*
X-27429Y-25870D01*
X-27130Y-25571D01*
X-26895Y-25218D01*
X-26733Y-24827D01*
X-26650Y-24412D01*
Y-23988D01*
X-26733Y-23573D01*
X-26895Y-23182D01*
X-27130Y-22829D01*
X-27429Y-22530D01*
X-27782Y-22295D01*
X-28173Y-22133D01*
X-28588Y-22050D01*
D02*
G37*
G36*
X-36188D02*
X-36612D01*
X-37027Y-22133D01*
X-37418Y-22295D01*
X-37771Y-22530D01*
X-38070Y-22829D01*
X-38305Y-23182D01*
X-38467Y-23573D01*
X-38550Y-23988D01*
Y-24412D01*
X-38467Y-24827D01*
X-38305Y-25218D01*
X-38070Y-25571D01*
X-37771Y-25870D01*
X-37418Y-26105D01*
X-37027Y-26267D01*
X-36612Y-26350D01*
X-36188D01*
X-35773Y-26267D01*
X-35382Y-26105D01*
X-35029Y-25870D01*
X-34730Y-25571D01*
X-34495Y-25218D01*
X-34333Y-24827D01*
X-34250Y-24412D01*
Y-23988D01*
X-34333Y-23573D01*
X-34495Y-23182D01*
X-34730Y-22829D01*
X-35029Y-22530D01*
X-35382Y-22295D01*
X-35773Y-22133D01*
X-36188Y-22050D01*
D02*
G37*
G36*
X1128Y-26024D02*
X941D01*
X761Y-26072D01*
X599Y-26166D01*
X467Y-26298D01*
X373Y-26460D01*
X325Y-26640D01*
Y-26827D01*
X373Y-27008D01*
X467Y-27170D01*
X599Y-27302D01*
X761Y-27395D01*
X941Y-27444D01*
X1128D01*
X1309Y-27395D01*
X1471Y-27302D01*
X1603Y-27170D01*
X1696Y-27008D01*
X1745Y-26827D01*
Y-26640D01*
X1696Y-26460D01*
X1603Y-26298D01*
X1471Y-26166D01*
X1309Y-26072D01*
X1128Y-26024D01*
D02*
G37*
G36*
X5025Y-28759D02*
X4802D01*
X4596Y-28845D01*
X4438Y-29002D01*
X4353Y-29208D01*
Y-29431D01*
X4438Y-29637D01*
X4596Y-29794D01*
X4802Y-29879D01*
X5025D01*
X5230Y-29794D01*
X5388Y-29637D01*
X5473Y-29431D01*
Y-29208D01*
X5388Y-29002D01*
X5230Y-28845D01*
X5025Y-28759D01*
D02*
G37*
G36*
X-14836Y-30803D02*
X-15023D01*
X-15204Y-30852D01*
X-15365Y-30945D01*
X-15498Y-31077D01*
X-15591Y-31239D01*
X-15640Y-31420D01*
Y-31607D01*
X-15591Y-31787D01*
X-15498Y-31949D01*
X-15365Y-32081D01*
X-15334Y-32100D01*
Y-32227D01*
X-15365Y-32245D01*
X-15498Y-32377D01*
X-15591Y-32539D01*
X-15640Y-32720D01*
Y-32907D01*
X-15591Y-33087D01*
X-15498Y-33249D01*
X-15365Y-33381D01*
X-15334Y-33400D01*
Y-33527D01*
X-15365Y-33545D01*
X-15498Y-33677D01*
X-15516Y-33709D01*
X-15643D01*
X-15661Y-33677D01*
X-15794Y-33545D01*
X-15955Y-33452D01*
X-16136Y-33403D01*
X-16323D01*
X-16504Y-33452D01*
X-16665Y-33545D01*
X-16798Y-33677D01*
X-16816Y-33709D01*
X-16943D01*
X-16961Y-33677D01*
X-17094Y-33545D01*
X-17255Y-33452D01*
X-17436Y-33403D01*
X-17623D01*
X-17804Y-33452D01*
X-17965Y-33545D01*
X-18098Y-33677D01*
X-18116Y-33709D01*
X-18243D01*
X-18261Y-33677D01*
X-18394Y-33545D01*
X-18425Y-33527D01*
Y-33400D01*
X-18394Y-33381D01*
X-18261Y-33249D01*
X-18168Y-33087D01*
X-18120Y-32907D01*
Y-32720D01*
X-18168Y-32539D01*
X-18261Y-32377D01*
X-18394Y-32245D01*
X-18425Y-32227D01*
Y-32100D01*
X-18394Y-32081D01*
X-18261Y-31949D01*
X-18168Y-31787D01*
X-18120Y-31607D01*
Y-31420D01*
X-18168Y-31239D01*
X-18261Y-31077D01*
X-18394Y-30945D01*
X-18555Y-30852D01*
X-18736Y-30803D01*
X-18923D01*
X-19104Y-30852D01*
X-19265Y-30945D01*
X-19398Y-31077D01*
X-19491Y-31239D01*
X-19540Y-31420D01*
Y-31607D01*
X-19491Y-31787D01*
X-19398Y-31949D01*
X-19265Y-32081D01*
X-19234Y-32100D01*
Y-32227D01*
X-19265Y-32245D01*
X-19398Y-32377D01*
X-19491Y-32539D01*
X-19540Y-32720D01*
Y-32907D01*
X-19491Y-33087D01*
X-19398Y-33249D01*
X-19265Y-33381D01*
X-19234Y-33400D01*
Y-33527D01*
X-19265Y-33545D01*
X-19398Y-33677D01*
X-19491Y-33839D01*
X-19540Y-34020D01*
Y-34207D01*
X-19491Y-34387D01*
X-19398Y-34549D01*
X-19265Y-34681D01*
X-19104Y-34775D01*
X-18923Y-34823D01*
X-18736D01*
X-18555Y-34775D01*
X-18394Y-34681D01*
X-18261Y-34549D01*
X-18243Y-34517D01*
X-18116D01*
X-18098Y-34549D01*
X-17965Y-34681D01*
X-17804Y-34775D01*
X-17623Y-34823D01*
X-17436D01*
X-17255Y-34775D01*
X-17094Y-34681D01*
X-16961Y-34549D01*
X-16943Y-34517D01*
X-16816D01*
X-16798Y-34549D01*
X-16665Y-34681D01*
X-16504Y-34775D01*
X-16323Y-34823D01*
X-16136D01*
X-15955Y-34775D01*
X-15794Y-34681D01*
X-15661Y-34549D01*
X-15643Y-34517D01*
X-15516D01*
X-15498Y-34549D01*
X-15365Y-34681D01*
X-15204Y-34775D01*
X-15023Y-34823D01*
X-14836D01*
X-14655Y-34775D01*
X-14494Y-34681D01*
X-14361Y-34549D01*
X-14268Y-34387D01*
X-14220Y-34207D01*
Y-34020D01*
X-14268Y-33839D01*
X-14361Y-33677D01*
X-14494Y-33545D01*
X-14525Y-33527D01*
Y-33400D01*
X-14494Y-33381D01*
X-14361Y-33249D01*
X-14268Y-33087D01*
X-14220Y-32907D01*
Y-32720D01*
X-14268Y-32539D01*
X-14361Y-32377D01*
X-14494Y-32245D01*
X-14525Y-32227D01*
Y-32100D01*
X-14494Y-32081D01*
X-14361Y-31949D01*
X-14268Y-31787D01*
X-14220Y-31607D01*
Y-31420D01*
X-14268Y-31239D01*
X-14361Y-31077D01*
X-14494Y-30945D01*
X-14655Y-30852D01*
X-14836Y-30803D01*
D02*
G37*
G36*
X-35918Y-29475D02*
X-36182D01*
X-36436Y-29543D01*
X-36664Y-29675D01*
X-36850Y-29861D01*
X-36982Y-30089D01*
X-37050Y-30343D01*
Y-30607D01*
X-36982Y-30861D01*
X-36850Y-31089D01*
X-36664Y-31275D01*
X-36538Y-31348D01*
X-36572Y-31475D01*
X-37050D01*
Y-33403D01*
X-37123D01*
X-37304Y-33452D01*
X-37465Y-33545D01*
X-37598Y-33677D01*
X-37616Y-33709D01*
X-37743D01*
X-37761Y-33677D01*
X-37894Y-33545D01*
X-37925Y-33527D01*
Y-33400D01*
X-37894Y-33381D01*
X-37761Y-33249D01*
X-37668Y-33087D01*
X-37620Y-32907D01*
Y-32720D01*
X-37668Y-32539D01*
X-37761Y-32377D01*
X-37894Y-32245D01*
X-38055Y-32152D01*
X-38236Y-32103D01*
X-38423D01*
X-38604Y-32152D01*
X-38765Y-32245D01*
X-38898Y-32377D01*
X-38991Y-32539D01*
X-39040Y-32720D01*
Y-32907D01*
X-38991Y-33087D01*
X-38898Y-33249D01*
X-38765Y-33381D01*
X-38734Y-33400D01*
Y-33527D01*
X-38765Y-33545D01*
X-38898Y-33677D01*
X-38991Y-33839D01*
X-39040Y-34020D01*
Y-34207D01*
X-38991Y-34387D01*
X-38898Y-34549D01*
X-38765Y-34681D01*
X-38734Y-34700D01*
Y-34827D01*
X-38765Y-34845D01*
X-38898Y-34977D01*
X-38991Y-35139D01*
X-39040Y-35320D01*
Y-35507D01*
X-38991Y-35687D01*
X-38898Y-35849D01*
X-38765Y-35981D01*
X-38734Y-36000D01*
Y-36127D01*
X-38765Y-36145D01*
X-38898Y-36277D01*
X-38991Y-36439D01*
X-39040Y-36620D01*
Y-36807D01*
X-38991Y-36987D01*
X-38898Y-37149D01*
X-38765Y-37281D01*
X-38734Y-37300D01*
Y-37427D01*
X-38765Y-37445D01*
X-38898Y-37577D01*
X-38991Y-37739D01*
X-39040Y-37920D01*
Y-38107D01*
X-38991Y-38287D01*
X-38898Y-38449D01*
X-38765Y-38581D01*
X-38734Y-38600D01*
Y-38727D01*
X-38765Y-38745D01*
X-38898Y-38877D01*
X-38991Y-39039D01*
X-39040Y-39220D01*
Y-39407D01*
X-38991Y-39587D01*
X-38898Y-39749D01*
X-38765Y-39881D01*
X-38604Y-39975D01*
X-38423Y-40023D01*
X-38236D01*
X-38055Y-39975D01*
X-37894Y-39881D01*
X-37761Y-39749D01*
X-37668Y-39587D01*
X-37620Y-39407D01*
Y-39220D01*
X-37668Y-39039D01*
X-37761Y-38877D01*
X-37894Y-38745D01*
X-37925Y-38727D01*
Y-38600D01*
X-37894Y-38581D01*
X-37761Y-38449D01*
X-37668Y-38287D01*
X-37620Y-38107D01*
Y-37920D01*
X-37668Y-37739D01*
X-37761Y-37577D01*
X-37894Y-37445D01*
X-37925Y-37427D01*
Y-37300D01*
X-37894Y-37281D01*
X-37761Y-37149D01*
X-37668Y-36987D01*
X-37620Y-36807D01*
Y-36620D01*
X-37668Y-36439D01*
X-37761Y-36277D01*
X-37894Y-36145D01*
X-37925Y-36127D01*
Y-36000D01*
X-37894Y-35981D01*
X-37761Y-35849D01*
X-37743Y-35817D01*
X-37616D01*
X-37598Y-35849D01*
X-37465Y-35981D01*
X-37304Y-36075D01*
X-37123Y-36123D01*
X-36936D01*
X-36755Y-36075D01*
X-36696Y-36185D01*
X-36850Y-36339D01*
X-36982Y-36568D01*
X-37050Y-36822D01*
Y-37085D01*
X-36982Y-37339D01*
X-36850Y-37567D01*
X-36664Y-37754D01*
X-36538Y-37826D01*
X-36572Y-37953D01*
X-37050D01*
Y-39903D01*
X-37123D01*
X-37304Y-39952D01*
X-37465Y-40045D01*
X-37598Y-40177D01*
X-37691Y-40339D01*
X-37740Y-40520D01*
Y-40707D01*
X-37691Y-40887D01*
X-37598Y-41049D01*
X-37465Y-41181D01*
X-37304Y-41275D01*
X-37123Y-41323D01*
X-36936D01*
X-36755Y-41275D01*
X-36594Y-41181D01*
X-36461Y-41049D01*
X-36443Y-41017D01*
X-36316D01*
X-36298Y-41049D01*
X-36165Y-41181D01*
X-36004Y-41275D01*
X-35823Y-41323D01*
X-35636D01*
X-35455Y-41275D01*
X-35294Y-41181D01*
X-35161Y-41049D01*
X-35068Y-40887D01*
X-35020Y-40707D01*
Y-40520D01*
X-35068Y-40339D01*
X-35161Y-40177D01*
X-35258Y-40080D01*
X-35208Y-39953D01*
X-35050D01*
Y-37953D01*
X-35528D01*
X-35562Y-37826D01*
X-35436Y-37754D01*
X-35250Y-37567D01*
X-35118Y-37339D01*
X-35050Y-37085D01*
Y-36822D01*
X-35118Y-36568D01*
X-35250Y-36339D01*
X-35403Y-36186D01*
X-35399Y-36065D01*
X-35387Y-36035D01*
X-35294Y-35981D01*
X-35161Y-35849D01*
X-35068Y-35687D01*
X-35020Y-35507D01*
Y-35320D01*
X-35068Y-35139D01*
X-35161Y-34977D01*
X-35294Y-34845D01*
X-35325Y-34827D01*
Y-34700D01*
X-35294Y-34681D01*
X-35161Y-34549D01*
X-35068Y-34387D01*
X-35020Y-34207D01*
Y-34020D01*
X-35068Y-33839D01*
X-35161Y-33677D01*
X-35237Y-33602D01*
X-35184Y-33475D01*
X-35050D01*
Y-31475D01*
X-35528D01*
X-35562Y-31348D01*
X-35436Y-31275D01*
X-35250Y-31089D01*
X-35118Y-30861D01*
X-35050Y-30607D01*
Y-30343D01*
X-35118Y-30089D01*
X-35250Y-29861D01*
X-35436Y-29675D01*
X-35664Y-29543D01*
X-35918Y-29475D01*
D02*
G37*
G36*
X-3421Y-32717D02*
X-3644D01*
X-3849Y-32803D01*
X-4007Y-32960D01*
X-4092Y-33166D01*
Y-33389D01*
X-4007Y-33595D01*
X-3849Y-33752D01*
X-3644Y-33837D01*
X-3421D01*
X-3215Y-33752D01*
X-3057Y-33595D01*
X-2972Y-33389D01*
Y-33166D01*
X-3057Y-32960D01*
X-3215Y-32803D01*
X-3421Y-32717D01*
D02*
G37*
G36*
X-309Y-33553D02*
X-532D01*
X-737Y-33639D01*
X-895Y-33796D01*
X-980Y-34002D01*
Y-34225D01*
X-895Y-34431D01*
X-737Y-34588D01*
X-532Y-34673D01*
X-309D01*
X-103Y-34588D01*
X54Y-34431D01*
X140Y-34225D01*
Y-34002D01*
X54Y-33796D01*
X-103Y-33639D01*
X-309Y-33553D01*
D02*
G37*
G36*
X11258Y-33528D02*
X11036D01*
X10830Y-33614D01*
X10672Y-33771D01*
X10587Y-33977D01*
Y-34200D01*
X10672Y-34406D01*
X10830Y-34563D01*
X11036Y-34648D01*
X11258D01*
X11454Y-34567D01*
X11495Y-34559D01*
X11597Y-34580D01*
X11638Y-34679D01*
X11796Y-34836D01*
X12001Y-34922D01*
X12224D01*
X12430Y-34836D01*
X12588Y-34679D01*
X12673Y-34473D01*
Y-34250D01*
X12588Y-34044D01*
X12430Y-33887D01*
X12224Y-33802D01*
X12001D01*
X11805Y-33883D01*
X11765Y-33891D01*
X11663Y-33870D01*
X11622Y-33771D01*
X11464Y-33614D01*
X11258Y-33528D01*
D02*
G37*
G36*
X38464Y-33403D02*
X38277D01*
X38096Y-33452D01*
X37935Y-33545D01*
X37802Y-33677D01*
X37709Y-33839D01*
X37660Y-34020D01*
Y-34207D01*
X37709Y-34387D01*
X37802Y-34549D01*
X37935Y-34681D01*
X37966Y-34700D01*
Y-34827D01*
X37935Y-34845D01*
X37802Y-34977D01*
X37784Y-35009D01*
X37657D01*
X37639Y-34977D01*
X37506Y-34845D01*
X37345Y-34752D01*
X37164Y-34703D01*
X36977D01*
X36916Y-34720D01*
X36789Y-34622D01*
Y-34589D01*
X36704Y-34383D01*
X36546Y-34225D01*
X36341Y-34140D01*
X36118D01*
X35912Y-34225D01*
X35754Y-34383D01*
X35669Y-34589D01*
Y-34811D01*
X35754Y-35017D01*
X35912Y-35175D01*
X36118Y-35260D01*
X36245D01*
X36350Y-35314D01*
X36360Y-35377D01*
Y-35507D01*
X36409Y-35687D01*
X36489Y-35826D01*
X36445Y-35953D01*
X35229D01*
Y-37953D01*
X35707D01*
X35741Y-38080D01*
X35615Y-38153D01*
X35429Y-38339D01*
X35297Y-38568D01*
X35229Y-38822D01*
Y-39085D01*
X35297Y-39339D01*
X35429Y-39567D01*
X35615Y-39754D01*
X35664Y-39782D01*
X35665Y-39793D01*
X35638Y-39914D01*
X35496Y-39952D01*
X35335Y-40045D01*
X35202Y-40177D01*
X35184Y-40209D01*
X35057D01*
X35039Y-40177D01*
X34906Y-40045D01*
X34745Y-39952D01*
X34564Y-39903D01*
X34377D01*
X34196Y-39952D01*
X34035Y-40045D01*
X33902Y-40177D01*
X33884Y-40209D01*
X33757D01*
X33739Y-40177D01*
X33606Y-40045D01*
X33445Y-39952D01*
X33264Y-39903D01*
X33077D01*
X32896Y-39952D01*
X32735Y-40045D01*
X32602Y-40177D01*
X32509Y-40339D01*
X32460Y-40520D01*
Y-40707D01*
X32509Y-40887D01*
X32602Y-41049D01*
X32735Y-41181D01*
X32896Y-41275D01*
X33077Y-41323D01*
X33264D01*
X33445Y-41275D01*
X33606Y-41181D01*
X33739Y-41049D01*
X33757Y-41017D01*
X33884D01*
X33902Y-41049D01*
X34035Y-41181D01*
X34196Y-41275D01*
X34377Y-41323D01*
X34564D01*
X34745Y-41275D01*
X34906Y-41181D01*
X35039Y-41049D01*
X35057Y-41017D01*
X35184D01*
X35202Y-41049D01*
X35335Y-41181D01*
X35496Y-41275D01*
X35677Y-41323D01*
X35864D01*
X36045Y-41275D01*
X36206Y-41181D01*
X36339Y-41049D01*
X36357Y-41017D01*
X36484D01*
X36502Y-41049D01*
X36635Y-41181D01*
X36796Y-41275D01*
X36977Y-41323D01*
X37164D01*
X37345Y-41275D01*
X37506Y-41181D01*
X37639Y-41049D01*
X37657Y-41017D01*
X37784D01*
X37802Y-41049D01*
X37935Y-41181D01*
X38096Y-41275D01*
X38277Y-41323D01*
X38464D01*
X38645Y-41275D01*
X38806Y-41181D01*
X38939Y-41049D01*
X39032Y-40887D01*
X39080Y-40707D01*
Y-40520D01*
X39032Y-40339D01*
X38939Y-40177D01*
X38806Y-40045D01*
X38775Y-40027D01*
Y-39900D01*
X38806Y-39881D01*
X38939Y-39749D01*
X39032Y-39587D01*
X39080Y-39407D01*
Y-39220D01*
X39032Y-39039D01*
X38939Y-38877D01*
X38806Y-38745D01*
X38775Y-38727D01*
Y-38600D01*
X38806Y-38581D01*
X38939Y-38449D01*
X39032Y-38287D01*
X39080Y-38107D01*
Y-37920D01*
X39032Y-37739D01*
X38939Y-37577D01*
X38806Y-37445D01*
X38775Y-37427D01*
Y-37300D01*
X38806Y-37281D01*
X38939Y-37149D01*
X39032Y-36987D01*
X39080Y-36807D01*
Y-36620D01*
X39032Y-36439D01*
X38939Y-36277D01*
X38806Y-36145D01*
X38775Y-36127D01*
Y-36000D01*
X38806Y-35981D01*
X38939Y-35849D01*
X39032Y-35687D01*
X39080Y-35507D01*
Y-35320D01*
X39032Y-35139D01*
X38939Y-34977D01*
X38806Y-34845D01*
X38775Y-34827D01*
Y-34700D01*
X38806Y-34681D01*
X38939Y-34549D01*
X39032Y-34387D01*
X39080Y-34207D01*
Y-34020D01*
X39032Y-33839D01*
X38939Y-33677D01*
X38806Y-33545D01*
X38645Y-33452D01*
X38464Y-33403D01*
D02*
G37*
G36*
X7582Y-35845D02*
X7359D01*
X7153Y-35930D01*
X6995Y-36088D01*
X6910Y-36293D01*
Y-36516D01*
X6995Y-36722D01*
X7153Y-36880D01*
X7359Y-36965D01*
X7582D01*
X7787Y-36880D01*
X7945Y-36722D01*
X8030Y-36516D01*
Y-36293D01*
X7945Y-36088D01*
X7787Y-35930D01*
X7582Y-35845D01*
D02*
G37*
G36*
X5793Y-35870D02*
X5570D01*
X5365Y-35955D01*
X5207Y-36113D01*
X5122Y-36318D01*
Y-36541D01*
X5207Y-36747D01*
X5365Y-36905D01*
X5570Y-36990D01*
X5793D01*
X5999Y-36905D01*
X6157Y-36747D01*
X6242Y-36541D01*
Y-36318D01*
X6157Y-36113D01*
X5999Y-35955D01*
X5793Y-35870D01*
D02*
G37*
G36*
X33264Y-37303D02*
X33077D01*
X32896Y-37352D01*
X32735Y-37445D01*
X32602Y-37577D01*
X32584Y-37609D01*
X32457D01*
X32439Y-37577D01*
X32306Y-37445D01*
X32145Y-37352D01*
X31964Y-37303D01*
X31777D01*
X31596Y-37352D01*
X31435Y-37445D01*
X31302Y-37577D01*
X31209Y-37739D01*
X31160Y-37920D01*
Y-38107D01*
X31209Y-38287D01*
X31302Y-38449D01*
X31435Y-38581D01*
X31596Y-38675D01*
X31777Y-38723D01*
X31964D01*
X32145Y-38675D01*
X32306Y-38581D01*
X32439Y-38449D01*
X32457Y-38417D01*
X32584D01*
X32602Y-38449D01*
X32735Y-38581D01*
X32896Y-38675D01*
X33077Y-38723D01*
X33264D01*
X33445Y-38675D01*
X33606Y-38581D01*
X33739Y-38449D01*
X33832Y-38287D01*
X33880Y-38107D01*
Y-37920D01*
X33832Y-37739D01*
X33739Y-37577D01*
X33606Y-37445D01*
X33445Y-37352D01*
X33264Y-37303D01*
D02*
G37*
G36*
X13034Y-38833D02*
X12811D01*
X12605Y-38918D01*
X12448Y-39076D01*
X12363Y-39282D01*
Y-39505D01*
X12448Y-39710D01*
X12605Y-39868D01*
X12811Y-39953D01*
X13034D01*
X13240Y-39868D01*
X13397Y-39710D01*
X13483Y-39505D01*
Y-39282D01*
X13397Y-39076D01*
X13240Y-38918D01*
X13034Y-38833D01*
D02*
G37*
G36*
X339D02*
X117D01*
X-89Y-38918D01*
X-247Y-39076D01*
X-332Y-39282D01*
Y-39505D01*
X-247Y-39710D01*
X-89Y-39868D01*
X117Y-39953D01*
X339D01*
X545Y-39868D01*
X703Y-39710D01*
X788Y-39505D01*
Y-39282D01*
X703Y-39076D01*
X545Y-38918D01*
X339Y-38833D01*
D02*
G37*
G36*
X-2473Y-40872D02*
X-2696D01*
X-2901Y-40957D01*
X-3059Y-41115D01*
X-3144Y-41321D01*
Y-41543D01*
X-3059Y-41749D01*
X-2901Y-41907D01*
X-2696Y-41992D01*
X-2473D01*
X-2267Y-41907D01*
X-2109Y-41749D01*
X-2024Y-41543D01*
Y-41321D01*
X-2109Y-41115D01*
X-2267Y-40957D01*
X-2473Y-40872D01*
D02*
G37*
G36*
X31964Y-41203D02*
X31777D01*
X31596Y-41252D01*
X31435Y-41345D01*
X31302Y-41477D01*
X31209Y-41639D01*
X31160Y-41820D01*
Y-42007D01*
X31209Y-42187D01*
X31302Y-42349D01*
X31435Y-42481D01*
X31596Y-42575D01*
X31777Y-42623D01*
X31964D01*
X32145Y-42575D01*
X32306Y-42481D01*
X32439Y-42349D01*
X32532Y-42187D01*
X32580Y-42007D01*
Y-41820D01*
X32532Y-41639D01*
X32439Y-41477D01*
X32306Y-41345D01*
X32145Y-41252D01*
X31964Y-41203D01*
D02*
G37*
G36*
X-6665Y-42255D02*
X-6887D01*
X-7093Y-42340D01*
X-7251Y-42498D01*
X-7336Y-42704D01*
Y-42927D01*
X-7251Y-43132D01*
X-7093Y-43290D01*
X-6887Y-43375D01*
X-6665D01*
X-6459Y-43290D01*
X-6301Y-43132D01*
X-6216Y-42927D01*
Y-42704D01*
X-6301Y-42498D01*
X-6459Y-42340D01*
X-6665Y-42255D01*
D02*
G37*
G36*
X25685Y-41350D02*
X25111D01*
X24543Y-41440D01*
X23997Y-41617D01*
X23485Y-41878D01*
X23020Y-42216D01*
X22614Y-42622D01*
X22276Y-43087D01*
X22015Y-43599D01*
X21865Y-44062D01*
X21731D01*
X21581Y-43599D01*
X21320Y-43087D01*
X20982Y-42622D01*
X20576Y-42216D01*
X20111Y-41878D01*
X19599Y-41617D01*
X19053Y-41440D01*
X18485Y-41350D01*
X17911D01*
X17343Y-41440D01*
X16797Y-41617D01*
X16285Y-41878D01*
X15820Y-42216D01*
X15414Y-42622D01*
X15076Y-43087D01*
X14815Y-43599D01*
X14638Y-44145D01*
X14548Y-44713D01*
Y-45287D01*
X14638Y-45855D01*
X14815Y-46401D01*
X15076Y-46913D01*
X15414Y-47378D01*
X15820Y-47784D01*
X16285Y-48122D01*
X16797Y-48383D01*
X17343Y-48560D01*
X17911Y-48650D01*
X18485D01*
X19053Y-48560D01*
X19599Y-48383D01*
X20111Y-48122D01*
X20576Y-47784D01*
X20982Y-47378D01*
X21320Y-46913D01*
X21581Y-46401D01*
X21731Y-45937D01*
X21865D01*
X22015Y-46401D01*
X22276Y-46913D01*
X22614Y-47378D01*
X23020Y-47784D01*
X23485Y-48122D01*
X23997Y-48383D01*
X24543Y-48560D01*
X25111Y-48650D01*
X25685D01*
X26253Y-48560D01*
X26799Y-48383D01*
X27311Y-48122D01*
X27776Y-47784D01*
X28182Y-47378D01*
X28520Y-46913D01*
X28781Y-46401D01*
X28958Y-45855D01*
X29048Y-45287D01*
Y-44713D01*
X28958Y-44145D01*
X28781Y-43599D01*
X28520Y-43087D01*
X28182Y-42622D01*
X27776Y-42216D01*
X27311Y-41878D01*
X26799Y-41617D01*
X26253Y-41440D01*
X25685Y-41350D01*
D02*
G37*
G36*
X-18008D02*
X-18582D01*
X-19150Y-41440D01*
X-19696Y-41617D01*
X-20208Y-41878D01*
X-20673Y-42216D01*
X-21079Y-42622D01*
X-21417Y-43087D01*
X-21677Y-43599D01*
X-21828Y-44062D01*
X-21962D01*
X-22112Y-43599D01*
X-22373Y-43087D01*
X-22711Y-42622D01*
X-23117Y-42216D01*
X-23582Y-41878D01*
X-24094Y-41617D01*
X-24640Y-41440D01*
X-25208Y-41350D01*
X-25782D01*
X-26350Y-41440D01*
X-26896Y-41617D01*
X-27408Y-41878D01*
X-27873Y-42216D01*
X-28279Y-42622D01*
X-28617Y-43087D01*
X-28878Y-43599D01*
X-29055Y-44145D01*
X-29145Y-44713D01*
Y-45287D01*
X-29055Y-45855D01*
X-28878Y-46401D01*
X-28617Y-46913D01*
X-28279Y-47378D01*
X-28072Y-47585D01*
X-28110Y-47727D01*
X-28204Y-47752D01*
X-28365Y-47845D01*
X-28498Y-47977D01*
X-28516Y-48009D01*
X-28643D01*
X-28661Y-47977D01*
X-28794Y-47845D01*
X-28955Y-47752D01*
X-29136Y-47703D01*
X-29323D01*
X-29504Y-47752D01*
X-29665Y-47845D01*
X-29798Y-47977D01*
X-29816Y-48009D01*
X-29943D01*
X-29961Y-47977D01*
X-30094Y-47845D01*
X-30255Y-47752D01*
X-30436Y-47703D01*
X-30623D01*
X-30804Y-47752D01*
X-30965Y-47845D01*
X-31098Y-47977D01*
X-31191Y-48139D01*
X-31240Y-48320D01*
Y-48507D01*
X-31191Y-48687D01*
X-31098Y-48849D01*
X-30965Y-48981D01*
X-30804Y-49075D01*
X-30623Y-49123D01*
X-30436D01*
X-30255Y-49075D01*
X-30094Y-48981D01*
X-29961Y-48849D01*
X-29943Y-48817D01*
X-29816D01*
X-29798Y-48849D01*
X-29665Y-48981D01*
X-29504Y-49075D01*
X-29323Y-49123D01*
X-29136D01*
X-28955Y-49075D01*
X-28794Y-48981D01*
X-28661Y-48849D01*
X-28643Y-48817D01*
X-28516D01*
X-28498Y-48849D01*
X-28365Y-48981D01*
X-28204Y-49075D01*
X-28023Y-49123D01*
X-27836D01*
X-27655Y-49075D01*
X-27494Y-48981D01*
X-27361Y-48849D01*
X-27268Y-48687D01*
X-27220Y-48507D01*
Y-48360D01*
X-27112Y-48272D01*
X-26896Y-48383D01*
X-26350Y-48560D01*
X-25782Y-48650D01*
X-25208D01*
X-24640Y-48560D01*
X-24094Y-48383D01*
X-23582Y-48122D01*
X-23117Y-47784D01*
X-22711Y-47378D01*
X-22373Y-46913D01*
X-22112Y-46401D01*
X-21962Y-45937D01*
X-21828D01*
X-21677Y-46401D01*
X-21417Y-46913D01*
X-21079Y-47378D01*
X-20673Y-47784D01*
X-20208Y-48122D01*
X-19696Y-48383D01*
X-19150Y-48560D01*
X-18582Y-48650D01*
X-18008D01*
X-17440Y-48560D01*
X-16894Y-48383D01*
X-16382Y-48122D01*
X-15917Y-47784D01*
X-15511Y-47378D01*
X-15173Y-46913D01*
X-14912Y-46401D01*
X-14735Y-45855D01*
X-14645Y-45287D01*
Y-44713D01*
X-14735Y-44145D01*
X-14912Y-43599D01*
X-15173Y-43087D01*
X-15511Y-42622D01*
X-15917Y-42216D01*
X-16382Y-41878D01*
X-16894Y-41617D01*
X-17440Y-41440D01*
X-18008Y-41350D01*
D02*
G37*
G36*
X11891Y-45100D02*
X9891D01*
Y-45578D01*
X9764Y-45612D01*
X9692Y-45486D01*
X9505Y-45300D01*
X9277Y-45168D01*
X9023Y-45100D01*
X8760D01*
X8505Y-45168D01*
X8277Y-45300D01*
X8091Y-45486D01*
X7960Y-45714D01*
X7891Y-45968D01*
Y-46232D01*
X7960Y-46486D01*
X8091Y-46714D01*
X8277Y-46900D01*
X8505Y-47032D01*
X8760Y-47100D01*
X9023D01*
X9277Y-47032D01*
X9505Y-46900D01*
X9692Y-46714D01*
X9764Y-46588D01*
X9891Y-46622D01*
Y-47100D01*
X11891D01*
Y-45100D01*
D02*
G37*
G36*
X5261D02*
X3261D01*
Y-45578D01*
X3134Y-45612D01*
X3061Y-45486D01*
X2875Y-45300D01*
X2647Y-45168D01*
X2393Y-45100D01*
X2129D01*
X1875Y-45168D01*
X1647Y-45300D01*
X1461Y-45486D01*
X1329Y-45714D01*
X1261Y-45968D01*
Y-46232D01*
X1329Y-46486D01*
X1461Y-46714D01*
X1647Y-46900D01*
X1875Y-47032D01*
X2129Y-47100D01*
X2393D01*
X2647Y-47032D01*
X2875Y-46900D01*
X3061Y-46714D01*
X3134Y-46588D01*
X3261Y-46622D01*
Y-47100D01*
X5261D01*
Y-45100D01*
D02*
G37*
G36*
X-1370D02*
X-3369D01*
Y-45578D01*
X-3497Y-45612D01*
X-3569Y-45486D01*
X-3755Y-45300D01*
X-3984Y-45168D01*
X-4238Y-45100D01*
X-4501D01*
X-4755Y-45168D01*
X-4984Y-45300D01*
X-5170Y-45486D01*
X-5301Y-45714D01*
X-5370Y-45968D01*
Y-46232D01*
X-5301Y-46486D01*
X-5170Y-46714D01*
X-4984Y-46900D01*
X-4755Y-47032D01*
X-4501Y-47100D01*
X-4238D01*
X-3984Y-47032D01*
X-3755Y-46900D01*
X-3569Y-46714D01*
X-3497Y-46588D01*
X-3369Y-46622D01*
Y-47100D01*
X-1370D01*
Y-45100D01*
D02*
G37*
G36*
X-8000D02*
X-10000D01*
Y-45578D01*
X-10127Y-45612D01*
X-10200Y-45486D01*
X-10386Y-45300D01*
X-10614Y-45168D01*
X-10868Y-45100D01*
X-11132D01*
X-11386Y-45168D01*
X-11614Y-45300D01*
X-11800Y-45486D01*
X-11932Y-45714D01*
X-12000Y-45968D01*
Y-46232D01*
X-11932Y-46486D01*
X-11800Y-46714D01*
X-11614Y-46900D01*
X-11386Y-47032D01*
X-11132Y-47100D01*
X-10868D01*
X-10614Y-47032D01*
X-10386Y-46900D01*
X-10200Y-46714D01*
X-10127Y-46588D01*
X-10000Y-46622D01*
Y-47100D01*
X-8000D01*
Y-45100D01*
D02*
G37*
%LPD*%
G36*
X-1573Y-10013D02*
X-1498Y-10013D01*
X-1351Y-10042D01*
X-1213Y-10100D01*
X-1089Y-10183D01*
X-983Y-10288D01*
X-900Y-10413D01*
X-843Y-10551D01*
X-822Y-10655D01*
X-814Y-10772D01*
Y-10772D01*
X-814Y-10772D01*
X-814Y-10772D01*
X-814Y-26124D01*
X-814Y-26203D01*
X-844Y-26357D01*
X-904Y-26503D01*
X-992Y-26633D01*
X-1103Y-26745D01*
X-1234Y-26832D01*
X-1379Y-26892D01*
X-1489Y-26914D01*
X-1612Y-26923D01*
Y-26923D01*
X-9000Y-26923D01*
X-18668Y-26923D01*
X-18870Y-26923D01*
X-19267Y-26844D01*
X-19641Y-26689D01*
X-19977Y-26464D01*
X-20263Y-26178D01*
X-20488Y-25842D01*
X-20643Y-25468D01*
X-20722Y-25072D01*
X-20722Y-24869D01*
Y-21387D01*
X-20722Y-11995D01*
X-20615Y-11888D01*
X-20524Y-11979D01*
X-20318Y-12065D01*
X-20095D01*
X-19889Y-11979D01*
X-19732Y-11822D01*
X-19677Y-11690D01*
X-19529Y-11658D01*
X-19459Y-11728D01*
X-19356Y-11797D01*
X-19236Y-11821D01*
X-18525D01*
X-18525Y-11822D01*
X-18367Y-11979D01*
X-18162Y-12065D01*
X-17939D01*
X-17733Y-11979D01*
X-17576Y-11822D01*
X-17490Y-11616D01*
Y-11393D01*
X-17576Y-11187D01*
X-17733Y-11030D01*
X-17939Y-10945D01*
X-18162D01*
X-18367Y-11030D01*
X-18525Y-11187D01*
X-18525Y-11189D01*
X-19105D01*
X-19527Y-10766D01*
X-19467Y-10654D01*
X-19237Y-10700D01*
X-18764D01*
X-18300Y-10608D01*
X-17864Y-10427D01*
X-17471Y-10164D01*
X-17320Y-10013D01*
X-1573Y-10013D01*
D02*
G37*
%LPC*%
G36*
X-14574Y-13237D02*
X-14797D01*
X-15003Y-13322D01*
X-15160Y-13479D01*
X-15246Y-13685D01*
Y-13908D01*
X-15160Y-14114D01*
X-15060Y-14214D01*
X-15016Y-14297D01*
X-15060Y-14380D01*
X-15160Y-14479D01*
X-15246Y-14685D01*
Y-14908D01*
X-15160Y-15114D01*
X-15003Y-15271D01*
X-14974Y-15283D01*
Y-15410D01*
X-15003Y-15422D01*
X-15160Y-15579D01*
X-15246Y-15785D01*
Y-16008D01*
X-15160Y-16214D01*
X-15003Y-16371D01*
X-14797Y-16457D01*
X-14574D01*
X-14368Y-16371D01*
X-14211Y-16214D01*
X-14126Y-16008D01*
Y-15785D01*
X-14211Y-15579D01*
X-14368Y-15422D01*
X-14397Y-15410D01*
Y-15283D01*
X-14368Y-15271D01*
X-14211Y-15114D01*
X-14126Y-14908D01*
Y-14685D01*
X-14211Y-14479D01*
X-14311Y-14380D01*
X-14355Y-14297D01*
X-14311Y-14214D01*
X-14211Y-14114D01*
X-14126Y-13908D01*
Y-13685D01*
X-14211Y-13479D01*
X-14368Y-13322D01*
X-14574Y-13237D01*
D02*
G37*
%LPD*%
G36*
X17319Y-10013D02*
X17470Y-10164D01*
X17863Y-10427D01*
X18300Y-10608D01*
X18764Y-10700D01*
X19236D01*
X19700Y-10608D01*
X20137Y-10427D01*
X20530Y-10164D01*
X20681Y-10013D01*
X21315D01*
X21315Y-10013D01*
X21315Y-10013D01*
X21315D01*
X21432Y-10023D01*
X21515Y-10040D01*
X21639Y-10091D01*
X21752Y-10166D01*
X21847Y-10262D01*
X21922Y-10374D01*
X21974Y-10499D01*
X22000Y-10631D01*
X22000Y-10698D01*
X22000Y-27289D01*
X22000Y-29546D01*
X22000Y-29546D01*
X22000Y-29629D01*
X21968Y-29792D01*
X21904Y-29946D01*
X21812Y-30084D01*
X21694Y-30201D01*
X21556Y-30293D01*
X21403Y-30357D01*
X21240Y-30389D01*
X18564D01*
X18380Y-30389D01*
X18020Y-30318D01*
X17682Y-30177D01*
X17377Y-29973D01*
X17247Y-29844D01*
X15557Y-28154D01*
X15557Y-28153D01*
X15556Y-28154D01*
X15421Y-28025D01*
X15132Y-27788D01*
X14821Y-27580D01*
X14492Y-27404D01*
X14146Y-27260D01*
X13789Y-27152D01*
X13422Y-27079D01*
X13050Y-27042D01*
X12863Y-27038D01*
X3714Y-27038D01*
X3615Y-27038D01*
X3420Y-26999D01*
X3236Y-26923D01*
X3070Y-26812D01*
X2930Y-26671D01*
X2819Y-26506D01*
X2743Y-26322D01*
X2705Y-26127D01*
X2705Y-26028D01*
X2705Y-10653D01*
X2705D01*
Y-10526D01*
X2802Y-10291D01*
X2982Y-10111D01*
X3217Y-10013D01*
X3345D01*
X17319Y-10013D01*
D02*
G37*
%LPC*%
G36*
X16030Y-13281D02*
X15807D01*
X15601Y-13366D01*
X15444Y-13523D01*
X15359Y-13729D01*
Y-13952D01*
X15444Y-14158D01*
X15581Y-14295D01*
X15580Y-14392D01*
X15567Y-14439D01*
X15501Y-14466D01*
X15344Y-14623D01*
X15259Y-14829D01*
Y-15052D01*
X15344Y-15258D01*
X15444Y-15358D01*
X15488Y-15441D01*
X15444Y-15524D01*
X15344Y-15623D01*
X15259Y-15829D01*
Y-16052D01*
X15344Y-16258D01*
X15501Y-16415D01*
X15707Y-16501D01*
X15930D01*
X16136Y-16415D01*
X16293Y-16258D01*
X16379Y-16052D01*
Y-15829D01*
X16293Y-15623D01*
X16194Y-15524D01*
X16149Y-15441D01*
X16194Y-15358D01*
X16293Y-15258D01*
X16379Y-15052D01*
Y-14829D01*
X16293Y-14623D01*
X16156Y-14486D01*
X16157Y-14390D01*
X16170Y-14343D01*
X16236Y-14315D01*
X16393Y-14158D01*
X16479Y-13952D01*
Y-13729D01*
X16393Y-13523D01*
X16236Y-13366D01*
X16030Y-13281D01*
D02*
G37*
%LPD*%
D11*
X-20702Y-11529D02*
X-20231D01*
X-21058Y-25868D02*
Y-11884D01*
X-20231Y-11529D02*
X-20207Y-11505D01*
X-21058Y-11884D02*
X-20702Y-11529D01*
X-21501Y-26029D02*
Y-11581D01*
X-20735Y-10816D02*
X-19924D01*
X-21501Y-11581D02*
X-20735Y-10816D01*
X-19924D02*
X-19236Y-11505D01*
X-18050D01*
X-20018Y-27910D02*
Y-27511D01*
Y-27910D02*
X-19958Y-27970D01*
X-21501Y-26029D02*
X-20018Y-27511D01*
X-19271Y-28323D02*
Y-27654D01*
X-21058Y-25868D02*
X-19271Y-27654D01*
X-19712Y-28763D02*
X-19271Y-28323D01*
X-20683Y-28763D02*
X-19712D01*
X-28901Y-5016D02*
X-4370D01*
D66*
X25398Y-45000D02*
D03*
X18198D02*
D03*
X34262Y-8150D02*
D03*
Y-15350D02*
D03*
X-35000Y-45000D02*
D03*
X-18295Y-45000D02*
D03*
X-25495D02*
D03*
X-34300Y-8400D02*
D03*
Y-15600D02*
D03*
X35000Y-45000D02*
D03*
D67*
X36229Y-30475D02*
D03*
X-36050Y-32475D02*
D03*
X36229Y-36953D02*
D03*
X-36050Y-38953D02*
D03*
D68*
X36229Y-32475D02*
D03*
X-36050Y-30475D02*
D03*
X2261Y-46100D02*
D03*
X36229Y-38953D02*
D03*
X8891Y-46100D02*
D03*
X-36050Y-36953D02*
D03*
X-11000Y-46100D02*
D03*
X-4370D02*
D03*
D69*
X-28800Y-24200D02*
D03*
X-36400D02*
D03*
X28762Y-24200D02*
D03*
X36362D02*
D03*
D70*
X-9400D02*
D03*
X-1800D02*
D03*
X11362Y-24200D02*
D03*
X3762D02*
D03*
D71*
X-18863Y45248D02*
D03*
X-23863D02*
D03*
X-21363D02*
D03*
X-26363D02*
D03*
X18817D02*
D03*
X23817D02*
D03*
X21317D02*
D03*
X26317D02*
D03*
X3857D02*
D03*
X8857D02*
D03*
X6357D02*
D03*
X11357D02*
D03*
X-3803D02*
D03*
X-8803D02*
D03*
X-6303D02*
D03*
X-11303D02*
D03*
D72*
X4261Y-46100D02*
D03*
X10891D02*
D03*
X-9000D02*
D03*
X-2370D02*
D03*
D73*
X-19000Y-8300D02*
D03*
X19000D02*
D03*
D74*
X-25772Y7891D02*
D03*
X-13630Y-14613D02*
D03*
X38370Y7487D02*
D03*
X18870D02*
D03*
X20170Y6187D02*
D03*
X1035Y-26734D02*
D03*
X-27930Y-10713D02*
D03*
X38564Y-13313D02*
D03*
Y-14613D02*
D03*
Y-15913D02*
D03*
Y-17213D02*
D03*
Y-18513D02*
D03*
X35770Y-19813D02*
D03*
X38564D02*
D03*
X29270Y-17213D02*
D03*
Y-13313D02*
D03*
X34470Y-19813D02*
D03*
X29270Y-12013D02*
D03*
Y-15913D02*
D03*
X33170Y-19813D02*
D03*
X30570Y-18513D02*
D03*
X29270Y-19813D02*
D03*
X30570D02*
D03*
Y-13313D02*
D03*
X31870Y-18513D02*
D03*
Y-19813D02*
D03*
X29270Y-14613D02*
D03*
Y-18513D02*
D03*
X30570Y-17213D02*
D03*
X-18980Y-17813D02*
D03*
X-20130D02*
D03*
X-17830D02*
D03*
X-1930Y-10713D02*
D03*
Y-12013D02*
D03*
Y-13313D02*
D03*
Y-14613D02*
D03*
Y-15913D02*
D03*
Y-17213D02*
D03*
Y-18513D02*
D03*
Y-19813D02*
D03*
Y-21113D02*
D03*
X-3230Y-10713D02*
D03*
Y-12013D02*
D03*
Y-13313D02*
D03*
Y-14613D02*
D03*
Y-15913D02*
D03*
Y-17213D02*
D03*
Y-18513D02*
D03*
Y-19813D02*
D03*
Y-21113D02*
D03*
Y-22413D02*
D03*
Y-26313D02*
D03*
X-4530Y-10713D02*
D03*
Y-12013D02*
D03*
Y-13313D02*
D03*
Y-14613D02*
D03*
Y-15913D02*
D03*
Y-17213D02*
D03*
Y-18513D02*
D03*
Y-19813D02*
D03*
Y-21113D02*
D03*
Y-22413D02*
D03*
Y-23713D02*
D03*
Y-25013D02*
D03*
Y-26313D02*
D03*
X-5830Y-10713D02*
D03*
Y-12013D02*
D03*
Y-13313D02*
D03*
Y-14613D02*
D03*
Y-15913D02*
D03*
Y-17213D02*
D03*
Y-18513D02*
D03*
Y-19813D02*
D03*
Y-21113D02*
D03*
Y-22413D02*
D03*
Y-23713D02*
D03*
Y-25013D02*
D03*
Y-26313D02*
D03*
X-7130Y-10713D02*
D03*
Y-12013D02*
D03*
Y-13313D02*
D03*
Y-14613D02*
D03*
Y-15913D02*
D03*
Y-17213D02*
D03*
Y-18513D02*
D03*
Y-19813D02*
D03*
Y-21113D02*
D03*
Y-22413D02*
D03*
Y-23713D02*
D03*
Y-25013D02*
D03*
Y-26313D02*
D03*
X-8430Y-10713D02*
D03*
Y-12013D02*
D03*
Y-13313D02*
D03*
Y-14613D02*
D03*
Y-15913D02*
D03*
Y-17213D02*
D03*
Y-18513D02*
D03*
Y-19813D02*
D03*
Y-21113D02*
D03*
Y-26313D02*
D03*
X-9730Y-12013D02*
D03*
Y-13313D02*
D03*
Y-14613D02*
D03*
Y-15913D02*
D03*
Y-17213D02*
D03*
Y-18513D02*
D03*
Y-19813D02*
D03*
Y-21113D02*
D03*
X-11030Y-13313D02*
D03*
Y-14613D02*
D03*
Y-15913D02*
D03*
Y-17213D02*
D03*
Y-18513D02*
D03*
Y-19813D02*
D03*
Y-21113D02*
D03*
Y-22413D02*
D03*
Y-26313D02*
D03*
X-12655Y-10488D02*
D03*
X-12330Y-14613D02*
D03*
Y-15913D02*
D03*
Y-17213D02*
D03*
Y-18513D02*
D03*
Y-19813D02*
D03*
Y-21113D02*
D03*
Y-22413D02*
D03*
Y-23713D02*
D03*
Y-25013D02*
D03*
Y-26313D02*
D03*
X-13955Y-10488D02*
D03*
Y-11638D02*
D03*
X-13630Y-17213D02*
D03*
Y-18513D02*
D03*
Y-19813D02*
D03*
Y-21113D02*
D03*
Y-22413D02*
D03*
Y-23713D02*
D03*
Y-25013D02*
D03*
Y-26313D02*
D03*
X-15255Y-10488D02*
D03*
Y-11638D02*
D03*
X-14930Y-18513D02*
D03*
Y-19813D02*
D03*
Y-21113D02*
D03*
Y-22413D02*
D03*
Y-23713D02*
D03*
Y-25013D02*
D03*
Y-26313D02*
D03*
X-16230Y-18513D02*
D03*
X-16230Y-19813D02*
D03*
Y-21113D02*
D03*
Y-22413D02*
D03*
Y-23713D02*
D03*
Y-25013D02*
D03*
Y-26313D02*
D03*
X-17530Y-18963D02*
D03*
Y-20263D02*
D03*
Y-21563D02*
D03*
Y-22863D02*
D03*
Y-24163D02*
D03*
Y-25463D02*
D03*
X-18830Y-18963D02*
D03*
Y-20263D02*
D03*
Y-21563D02*
D03*
Y-22863D02*
D03*
Y-24163D02*
D03*
X-20130Y-18963D02*
D03*
Y-20263D02*
D03*
Y-21563D02*
D03*
Y-22863D02*
D03*
X-14930Y23087D02*
D03*
X-38330Y-313D02*
D03*
X-20130Y15287D02*
D03*
X24070Y2287D02*
D03*
X-38330Y13987D02*
D03*
X38370Y-27613D02*
D03*
X-34430Y-1613D02*
D03*
X38370Y-5513D02*
D03*
X33170Y21787D02*
D03*
X-31830Y20487D02*
D03*
X-630Y46487D02*
D03*
X38370Y29587D02*
D03*
X34470Y21787D02*
D03*
X-18830Y29587D02*
D03*
X-37030Y2287D02*
D03*
X-35730Y4887D02*
D03*
X-7130Y20487D02*
D03*
X-4530Y29587D02*
D03*
Y33487D02*
D03*
X21470Y23087D02*
D03*
X-4530Y26987D02*
D03*
X7170Y23087D02*
D03*
X20170Y29587D02*
D03*
X-24030Y26987D02*
D03*
X14970Y32187D02*
D03*
X4570Y987D02*
D03*
X34470Y33487D02*
D03*
X37070Y-40613D02*
D03*
X-37030Y20487D02*
D03*
X670Y34787D02*
D03*
X-17530Y24387D02*
D03*
X21470Y987D02*
D03*
X-33130D02*
D03*
X-8430Y20487D02*
D03*
X-35730Y-40613D02*
D03*
X-4530Y19187D02*
D03*
X-34430Y20487D02*
D03*
X22770Y23087D02*
D03*
X-38330Y32187D02*
D03*
X33170Y20487D02*
D03*
X38370Y-40613D02*
D03*
X-24030Y24387D02*
D03*
X1970Y19187D02*
D03*
X3270Y21787D02*
D03*
X-37030Y-40613D02*
D03*
X-38330Y20487D02*
D03*
X13670Y26987D02*
D03*
X14970Y46487D02*
D03*
X-34430Y987D02*
D03*
X-16230Y46487D02*
D03*
X-18830Y30887D02*
D03*
X24070Y4887D02*
D03*
X26670Y7487D02*
D03*
X-38330Y-36713D02*
D03*
X-24030Y28287D02*
D03*
X-38330Y23087D02*
D03*
X-4530Y38687D02*
D03*
X14970Y36087D02*
D03*
X-38330Y26987D02*
D03*
X14970Y23087D02*
D03*
X-37030Y15287D02*
D03*
X38370Y-30213D02*
D03*
X-11030Y23087D02*
D03*
X-31830D02*
D03*
X-5830Y20487D02*
D03*
X26670Y23087D02*
D03*
X1970D02*
D03*
X12370Y47787D02*
D03*
X-24030Y34787D02*
D03*
X-630Y15287D02*
D03*
X-24030Y20487D02*
D03*
X-5830Y16587D02*
D03*
X21470Y25687D02*
D03*
X-34430Y21787D02*
D03*
X-3230Y47787D02*
D03*
X-16230Y43887D02*
D03*
X-18830Y37387D02*
D03*
X14970Y21787D02*
D03*
X21470Y4887D02*
D03*
X-27930Y-48413D02*
D03*
X-37030Y25687D02*
D03*
X-5830Y21787D02*
D03*
X38370Y32187D02*
D03*
X4570Y20487D02*
D03*
X14970Y28287D02*
D03*
X-4530D02*
D03*
X-29230Y21787D02*
D03*
X22770Y8787D02*
D03*
X38370Y-313D02*
D03*
X21470Y28287D02*
D03*
X34470Y15287D02*
D03*
X-38330Y39987D02*
D03*
X25370Y3587D02*
D03*
X-7130Y23087D02*
D03*
X14970Y17887D02*
D03*
X24070Y987D02*
D03*
X-34430Y23087D02*
D03*
X34470Y38687D02*
D03*
X38370D02*
D03*
X-14930Y-32813D02*
D03*
X-26630Y21787D02*
D03*
X-31830D02*
D03*
X12370D02*
D03*
X34470Y-4213D02*
D03*
X-4530Y23087D02*
D03*
X37070Y-35413D02*
D03*
X22770Y21787D02*
D03*
X-1930Y42587D02*
D03*
X-14930Y20487D02*
D03*
X-17530Y26987D02*
D03*
X-37030Y3587D02*
D03*
X27970Y23087D02*
D03*
X670Y33487D02*
D03*
X34470Y23087D02*
D03*
X-33130Y21787D02*
D03*
X-38330Y28287D02*
D03*
X-24030Y32187D02*
D03*
X34470Y16587D02*
D03*
X-24030Y29587D02*
D03*
X7170Y21787D02*
D03*
X34470Y32187D02*
D03*
X-17530Y21787D02*
D03*
X-5830Y17887D02*
D03*
X33170Y23087D02*
D03*
X-9730Y21787D02*
D03*
X21470Y20487D02*
D03*
X14970Y39987D02*
D03*
X-35730Y-35413D02*
D03*
X-25330Y23087D02*
D03*
X-14930Y-31513D02*
D03*
X20170Y34787D02*
D03*
X12370Y20487D02*
D03*
X14970Y16587D02*
D03*
X38370Y39987D02*
D03*
X-24030Y30887D02*
D03*
X-16230Y21787D02*
D03*
X-17530Y20487D02*
D03*
X3270Y8787D02*
D03*
X-33130Y-313D02*
D03*
X1970Y20487D02*
D03*
X-16230Y23087D02*
D03*
X20170Y7487D02*
D03*
X-37030Y6187D02*
D03*
X38370Y-9413D02*
D03*
X-29230Y20487D02*
D03*
X3270Y23087D02*
D03*
X-25330Y24387D02*
D03*
X-24030Y37387D02*
D03*
X31870Y23087D02*
D03*
X14970Y34787D02*
D03*
X-18830Y-34113D02*
D03*
X-29230Y-48413D02*
D03*
X26670Y21787D02*
D03*
X-38330Y36087D02*
D03*
Y-35413D02*
D03*
X-630Y13987D02*
D03*
X38370Y15287D02*
D03*
Y-8113D02*
D03*
X24070Y23087D02*
D03*
X12370Y19187D02*
D03*
X38370Y37387D02*
D03*
X670Y36087D02*
D03*
X-38330Y-2913D02*
D03*
X-25330Y21787D02*
D03*
X38370Y-26313D02*
D03*
X1970Y26987D02*
D03*
X14970Y38687D02*
D03*
X34470Y36087D02*
D03*
X-5830Y25687D02*
D03*
X-35730Y-34113D02*
D03*
X-33130Y23087D02*
D03*
X34470Y19187D02*
D03*
X-38330Y29587D02*
D03*
Y987D02*
D03*
X35770Y-40613D02*
D03*
X-17530Y23087D02*
D03*
X31870Y20487D02*
D03*
X38370Y4887D02*
D03*
X18870Y28287D02*
D03*
X-5830Y47787D02*
D03*
X-24030Y25687D02*
D03*
X18870Y4887D02*
D03*
X13670Y24387D02*
D03*
X-35730Y987D02*
D03*
X18870Y3587D02*
D03*
X38370Y-34113D02*
D03*
X-24030Y36087D02*
D03*
X-8430Y23087D02*
D03*
X-38330Y-32813D02*
D03*
X-17530Y46487D02*
D03*
Y47787D02*
D03*
X18870Y12687D02*
D03*
X38370Y-1613D02*
D03*
X-24030Y23087D02*
D03*
X24070Y6187D02*
D03*
X-13630Y21787D02*
D03*
X-38330D02*
D03*
Y-1613D02*
D03*
X-630Y28287D02*
D03*
X13670Y25687D02*
D03*
X-38330Y7487D02*
D03*
X21470Y26987D02*
D03*
X8470Y21787D02*
D03*
X-35730Y-1613D02*
D03*
X-33130Y20487D02*
D03*
X31870Y19187D02*
D03*
X-16230Y20487D02*
D03*
X-38330Y30887D02*
D03*
X38370Y987D02*
D03*
X-29230Y23087D02*
D03*
X-24030Y19187D02*
D03*
X38370Y-6813D02*
D03*
X21470Y17887D02*
D03*
X-17530D02*
D03*
X-38330Y-38013D02*
D03*
X-35730Y21787D02*
D03*
X-17530Y28287D02*
D03*
X12370Y23087D02*
D03*
X-4530Y36087D02*
D03*
X24070Y21787D02*
D03*
X-8430D02*
D03*
X-30530Y23087D02*
D03*
X1970Y17887D02*
D03*
X21470Y19187D02*
D03*
X-34430Y2287D02*
D03*
X29270Y20487D02*
D03*
X-24030Y21787D02*
D03*
X25370Y987D02*
D03*
X-37030Y-12013D02*
D03*
X38370Y-39313D02*
D03*
X-34430Y3587D02*
D03*
X-17530Y15287D02*
D03*
X-24030Y16587D02*
D03*
X-35730Y6187D02*
D03*
X11070Y23087D02*
D03*
X-13630D02*
D03*
X14970Y45187D02*
D03*
X25370Y-1613D02*
D03*
X-35730Y3587D02*
D03*
X-18830Y-32813D02*
D03*
X670Y29587D02*
D03*
X13670Y23087D02*
D03*
X33170Y25687D02*
D03*
X-34430Y4887D02*
D03*
X13670Y21787D02*
D03*
X-37030Y-5513D02*
D03*
Y7487D02*
D03*
X-33130Y2287D02*
D03*
Y4887D02*
D03*
X-24030Y17887D02*
D03*
X-13630Y2287D02*
D03*
X-7130Y19187D02*
D03*
X-4530Y34787D02*
D03*
X-630Y47787D02*
D03*
X14970Y37387D02*
D03*
X22770Y19187D02*
D03*
X38370Y-28913D02*
D03*
X-37030Y23087D02*
D03*
X-16230Y24387D02*
D03*
X1970Y21787D02*
D03*
X34470Y20487D02*
D03*
X-21430Y47787D02*
D03*
X670Y32187D02*
D03*
X31870Y21787D02*
D03*
X-37030Y16587D02*
D03*
X-24030Y33487D02*
D03*
X21470Y2287D02*
D03*
X34470Y39987D02*
D03*
X-5830Y24387D02*
D03*
X13670Y15287D02*
D03*
X-30530Y-48413D02*
D03*
X-4530Y25687D02*
D03*
X14970Y19187D02*
D03*
Y26987D02*
D03*
X-20130Y12687D02*
D03*
X-18830Y-31513D02*
D03*
X38370Y-2913D02*
D03*
Y-22413D02*
D03*
X-20130Y28287D02*
D03*
X-25330Y26987D02*
D03*
X8470Y20487D02*
D03*
X3270Y19187D02*
D03*
X11070Y20487D02*
D03*
X33170Y-40613D02*
D03*
X-34430Y-313D02*
D03*
X-16230Y19187D02*
D03*
X30570Y23087D02*
D03*
X-30530Y20487D02*
D03*
X-38330Y33487D02*
D03*
X-25330Y28287D02*
D03*
X-4530Y32187D02*
D03*
Y16587D02*
D03*
X-25330Y25687D02*
D03*
X11070Y21787D02*
D03*
X13670Y47787D02*
D03*
X24070Y3587D02*
D03*
X26670Y20487D02*
D03*
X33170Y24387D02*
D03*
X38370Y13987D02*
D03*
X-27930Y20487D02*
D03*
X24070Y-313D02*
D03*
X34470Y29587D02*
D03*
X670Y37387D02*
D03*
X-38330Y19187D02*
D03*
X-35730D02*
D03*
Y24387D02*
D03*
X-11030Y20487D02*
D03*
X38370Y28287D02*
D03*
X33170Y15287D02*
D03*
X-5830D02*
D03*
X-1930Y45187D02*
D03*
X9770Y23087D02*
D03*
X-37030Y21787D02*
D03*
X-35730Y2287D02*
D03*
X-20130Y46487D02*
D03*
X-9730Y23087D02*
D03*
X-37030Y26987D02*
D03*
X7170Y20487D02*
D03*
X14970Y43887D02*
D03*
X27970Y21787D02*
D03*
X31870Y-41913D02*
D03*
X-25330Y19187D02*
D03*
X-26630Y23087D02*
D03*
X-34430Y6187D02*
D03*
X34470Y25687D02*
D03*
X-7130Y21787D02*
D03*
X34470Y24387D02*
D03*
X-14930Y21787D02*
D03*
X-13630Y987D02*
D03*
X33170Y16587D02*
D03*
X38370Y-36713D02*
D03*
X-38330Y-39313D02*
D03*
X-18830Y34787D02*
D03*
X-24030Y15287D02*
D03*
X-17530Y-34113D02*
D03*
X25370Y21787D02*
D03*
X24070Y-1613D02*
D03*
X20170Y37387D02*
D03*
X33170Y-38013D02*
D03*
X-38330Y25687D02*
D03*
X8470Y47787D02*
D03*
X38370Y8787D02*
D03*
X-4530Y15287D02*
D03*
X21470Y6187D02*
D03*
X-25330Y16587D02*
D03*
X-16230Y-34113D02*
D03*
X-38330Y38687D02*
D03*
X-17530Y43887D02*
D03*
X21470Y-1613D02*
D03*
X31870Y-38013D02*
D03*
X37070Y-28913D02*
D03*
X670Y38687D02*
D03*
X-630Y42587D02*
D03*
X20170Y32187D02*
D03*
X38370Y30887D02*
D03*
X18870Y-313D02*
D03*
X-37030Y987D02*
D03*
X-13630Y20487D02*
D03*
X-33130Y6187D02*
D03*
X-18830Y38687D02*
D03*
X18870Y8787D02*
D03*
X34470Y34787D02*
D03*
X-25330Y20487D02*
D03*
X5870Y-313D02*
D03*
X-630Y12687D02*
D03*
X-5830Y19187D02*
D03*
X-4530Y47787D02*
D03*
X4570Y23087D02*
D03*
X-26630Y20487D02*
D03*
X34470Y17887D02*
D03*
X-35730Y23087D02*
D03*
X9770Y47787D02*
D03*
X34470Y30887D02*
D03*
X-37030Y-34113D02*
D03*
X3270Y24387D02*
D03*
X-25330Y17887D02*
D03*
X-5830Y23087D02*
D03*
X-16230Y42587D02*
D03*
X21470Y15287D02*
D03*
X-1930Y43887D02*
D03*
X33170Y28287D02*
D03*
X-37030Y19187D02*
D03*
X670Y30887D02*
D03*
X1970Y16587D02*
D03*
X13670Y45187D02*
D03*
X-12330Y20487D02*
D03*
X34470Y37387D02*
D03*
X14970Y25687D02*
D03*
X-17530D02*
D03*
X-18830Y33487D02*
D03*
X18870Y-1613D02*
D03*
X-17530Y16587D02*
D03*
X14970Y29587D02*
D03*
X-20130Y47787D02*
D03*
X-38330Y15287D02*
D03*
Y34787D02*
D03*
X8470Y23087D02*
D03*
X33170Y19187D02*
D03*
X-17530D02*
D03*
X14970Y15287D02*
D03*
X-20130Y13987D02*
D03*
X18870D02*
D03*
X-12330Y23087D02*
D03*
X-37030Y24387D02*
D03*
X-38330Y16587D02*
D03*
X18870Y15287D02*
D03*
X-37030Y28287D02*
D03*
X-16230Y45187D02*
D03*
Y8787D02*
D03*
X21470Y-313D02*
D03*
X33170Y26987D02*
D03*
X38370Y34787D02*
D03*
X-1930Y47787D02*
D03*
X5870Y21787D02*
D03*
X-37030Y-1613D02*
D03*
X20170Y30887D02*
D03*
X1970Y25687D02*
D03*
Y15287D02*
D03*
X4570Y21787D02*
D03*
X25370Y20487D02*
D03*
Y4887D02*
D03*
X-4530Y30887D02*
D03*
X24070Y20487D02*
D03*
X-37030Y-35413D02*
D03*
X30570Y-6813D02*
D03*
X-630Y41287D02*
D03*
X3270Y20487D02*
D03*
X5870Y23087D02*
D03*
X30570Y20487D02*
D03*
X-18830Y39987D02*
D03*
X-4530Y37387D02*
D03*
X21470Y21787D02*
D03*
X5870Y3587D02*
D03*
X-37030Y17887D02*
D03*
X-11030Y21787D02*
D03*
X-9730Y20487D02*
D03*
X-1930Y46487D02*
D03*
X-37030Y4887D02*
D03*
X14970Y24387D02*
D03*
X-35730Y7487D02*
D03*
Y20487D02*
D03*
X-630Y45187D02*
D03*
X34470Y-40613D02*
D03*
X-4530Y21787D02*
D03*
X29270Y23087D02*
D03*
X38370Y-35413D02*
D03*
X1970Y24387D02*
D03*
X13670Y46487D02*
D03*
X34470Y26987D02*
D03*
Y28287D02*
D03*
X-12330Y21787D02*
D03*
X-14930Y-34113D02*
D03*
X25370Y2287D02*
D03*
X-38330Y-34113D02*
D03*
Y2287D02*
D03*
X24070Y7487D02*
D03*
X20170Y33487D02*
D03*
X-33130Y3587D02*
D03*
Y7487D02*
D03*
X-18830Y32187D02*
D03*
X25370Y6187D02*
D03*
X14970Y47787D02*
D03*
X-38330Y3587D02*
D03*
Y4887D02*
D03*
X27970Y20487D02*
D03*
X-18830Y47787D02*
D03*
X14970Y33487D02*
D03*
X25370Y-313D02*
D03*
X38370Y33487D02*
D03*
X-37030Y13987D02*
D03*
X22770Y7487D02*
D03*
X-38330Y24387D02*
D03*
X-35730Y-313D02*
D03*
X-630Y43887D02*
D03*
X-4530Y20487D02*
D03*
X29270Y21787D02*
D03*
X-38330Y6187D02*
D03*
X5870Y20487D02*
D03*
X21470Y24387D02*
D03*
X-630Y8787D02*
D03*
X-26630Y19187D02*
D03*
X1970Y28287D02*
D03*
X-30530Y21787D02*
D03*
X9770D02*
D03*
X38370Y-38013D02*
D03*
X13670Y43887D02*
D03*
Y20487D02*
D03*
X30570Y21787D02*
D03*
X22770Y20487D02*
D03*
X25370Y23087D02*
D03*
X13670Y17887D02*
D03*
X21470Y3587D02*
D03*
X-27930Y21787D02*
D03*
X-34430Y7487D02*
D03*
X18870Y987D02*
D03*
X-16230Y47787D02*
D03*
X-25330Y15287D02*
D03*
X14970Y20487D02*
D03*
X9770D02*
D03*
X14970Y30887D02*
D03*
X38370Y3587D02*
D03*
X-5830Y28287D02*
D03*
X38370Y12687D02*
D03*
X-38330Y37387D02*
D03*
X-37030Y-313D02*
D03*
X18870Y2287D02*
D03*
X33170Y17887D02*
D03*
X-18830Y36087D02*
D03*
X-17530Y42587D02*
D03*
X13670Y19187D02*
D03*
X-5830Y26987D02*
D03*
X21470Y16587D02*
D03*
X13670Y28287D02*
D03*
X22770Y24387D02*
D03*
X38370Y2287D02*
D03*
X-4530Y24387D02*
D03*
X13670Y16587D02*
D03*
X-38330Y17887D02*
D03*
X20170Y36087D02*
D03*
X-4530Y17887D02*
D03*
X25370Y7487D02*
D03*
X38370Y36087D02*
D03*
X-35730Y8787D02*
D03*
X-33130Y-1613D02*
D03*
X-31830Y7487D02*
D03*
X-18830Y42587D02*
D03*
X11070Y47787D02*
D03*
X-27930Y23087D02*
D03*
X1789Y-11250D02*
D03*
X3270Y-10713D02*
D03*
X-27930Y-12013D02*
D03*
Y-13313D02*
D03*
Y-14613D02*
D03*
Y-15913D02*
D03*
Y-17213D02*
D03*
Y-18513D02*
D03*
X-29230Y-12013D02*
D03*
Y-13313D02*
D03*
Y-14613D02*
D03*
Y-15913D02*
D03*
Y-17213D02*
D03*
Y-18513D02*
D03*
X-30530Y-13313D02*
D03*
Y-14613D02*
D03*
Y-17213D02*
D03*
Y-18513D02*
D03*
X21470Y-27613D02*
D03*
Y-26313D02*
D03*
Y-25013D02*
D03*
Y-23713D02*
D03*
Y-22413D02*
D03*
Y-21113D02*
D03*
Y-19813D02*
D03*
Y-18513D02*
D03*
X13670Y-14613D02*
D03*
Y-13313D02*
D03*
X20170Y-18513D02*
D03*
Y-19813D02*
D03*
Y-21113D02*
D03*
Y-22413D02*
D03*
Y-23713D02*
D03*
Y-25013D02*
D03*
Y-26313D02*
D03*
Y-27613D02*
D03*
X18870Y-18513D02*
D03*
Y-19813D02*
D03*
Y-21113D02*
D03*
Y-22413D02*
D03*
Y-23713D02*
D03*
Y-25013D02*
D03*
Y-26313D02*
D03*
Y-27613D02*
D03*
X17570Y-18513D02*
D03*
Y-19813D02*
D03*
Y-21113D02*
D03*
Y-22413D02*
D03*
Y-23713D02*
D03*
Y-27613D02*
D03*
Y-28913D02*
D03*
X16270Y-18513D02*
D03*
Y-19813D02*
D03*
Y-21113D02*
D03*
Y-22413D02*
D03*
Y-23713D02*
D03*
Y-27613D02*
D03*
X14970Y-17213D02*
D03*
Y-18513D02*
D03*
Y-19813D02*
D03*
Y-21113D02*
D03*
Y-22413D02*
D03*
Y-23713D02*
D03*
X13670Y-10713D02*
D03*
Y-12013D02*
D03*
Y-15913D02*
D03*
Y-17213D02*
D03*
Y-18513D02*
D03*
Y-19813D02*
D03*
Y-21113D02*
D03*
Y-22413D02*
D03*
Y-23713D02*
D03*
Y-25013D02*
D03*
Y-26313D02*
D03*
X12370Y-10713D02*
D03*
Y-12013D02*
D03*
Y-13313D02*
D03*
Y-14613D02*
D03*
Y-15913D02*
D03*
Y-17213D02*
D03*
Y-18513D02*
D03*
Y-19813D02*
D03*
Y-21113D02*
D03*
Y-26313D02*
D03*
X11070Y-10713D02*
D03*
Y-12013D02*
D03*
Y-13313D02*
D03*
Y-14613D02*
D03*
Y-15913D02*
D03*
Y-17213D02*
D03*
Y-18513D02*
D03*
Y-19813D02*
D03*
Y-21113D02*
D03*
X9770Y-10713D02*
D03*
Y-12013D02*
D03*
Y-13313D02*
D03*
Y-14613D02*
D03*
Y-15913D02*
D03*
Y-17213D02*
D03*
Y-18513D02*
D03*
Y-19813D02*
D03*
Y-21113D02*
D03*
Y-22413D02*
D03*
Y-26313D02*
D03*
X8470Y-10713D02*
D03*
Y-12013D02*
D03*
Y-13313D02*
D03*
Y-14613D02*
D03*
Y-15913D02*
D03*
Y-17213D02*
D03*
Y-18513D02*
D03*
Y-19813D02*
D03*
Y-21113D02*
D03*
Y-22413D02*
D03*
Y-23713D02*
D03*
Y-25013D02*
D03*
Y-26313D02*
D03*
X7170Y-10713D02*
D03*
Y-12013D02*
D03*
Y-13313D02*
D03*
Y-14613D02*
D03*
Y-15913D02*
D03*
Y-17213D02*
D03*
Y-18513D02*
D03*
Y-19813D02*
D03*
Y-21113D02*
D03*
Y-22413D02*
D03*
Y-23713D02*
D03*
Y-25013D02*
D03*
Y-26313D02*
D03*
X5870Y-10713D02*
D03*
Y-12013D02*
D03*
Y-13313D02*
D03*
Y-14613D02*
D03*
Y-15913D02*
D03*
Y-17213D02*
D03*
Y-18513D02*
D03*
Y-19813D02*
D03*
Y-21113D02*
D03*
Y-22413D02*
D03*
Y-26313D02*
D03*
X4570Y-10713D02*
D03*
Y-12013D02*
D03*
Y-13313D02*
D03*
Y-14613D02*
D03*
Y-15913D02*
D03*
Y-17213D02*
D03*
Y-18513D02*
D03*
Y-19813D02*
D03*
Y-21113D02*
D03*
X3270Y-12013D02*
D03*
Y-13313D02*
D03*
Y-14613D02*
D03*
Y-15913D02*
D03*
Y-17213D02*
D03*
Y-18513D02*
D03*
Y-19813D02*
D03*
Y-21113D02*
D03*
X9368Y6093D02*
D03*
X38141Y10660D02*
D03*
X18684Y10649D02*
D03*
X-895Y10678D02*
D03*
X-20275D02*
D03*
X7676Y8138D02*
D03*
X5426D02*
D03*
X-12419Y7910D02*
D03*
X-14635D02*
D03*
X-9677Y6515D02*
D03*
X4291Y-49114D02*
D03*
X30961Y12699D02*
D03*
X11469D02*
D03*
X-8025Y12704D02*
D03*
X-27466D02*
D03*
X28751Y13336D02*
D03*
X9459D02*
D03*
X30768Y7914D02*
D03*
X34614D02*
D03*
X31740Y7010D02*
D03*
X32655Y7892D02*
D03*
X21043Y13319D02*
D03*
X22355D02*
D03*
X-10279Y13336D02*
D03*
X-29676D02*
D03*
X2863Y13318D02*
D03*
X1552D02*
D03*
X13163Y7891D02*
D03*
X12249Y7009D02*
D03*
X15122Y7913D02*
D03*
X11276D02*
D03*
X-27431Y7894D02*
D03*
X-8262Y7913D02*
D03*
X-7289Y7009D02*
D03*
X-6375Y7891D02*
D03*
X-17987Y13318D02*
D03*
X-16675D02*
D03*
X-29676Y6010D02*
D03*
X28751D02*
D03*
X-26686Y7009D02*
D03*
X-24129Y8078D02*
D03*
X-31373Y-5060D02*
D03*
D75*
X-14686Y-13797D02*
D03*
X-20799Y7690D02*
D03*
X-22481Y-7063D02*
D03*
X-20207Y-11505D02*
D03*
X-20683Y-28763D02*
D03*
X-14630Y-17525D02*
D03*
X-15580D02*
D03*
X-13586Y-15897D02*
D03*
X-16780Y-17525D02*
D03*
X-19958Y-27970D02*
D03*
X-18050Y-11505D02*
D03*
X-28901Y-5016D02*
D03*
X-4385D02*
D03*
X-6293Y-7267D02*
D03*
X11942Y-7167D02*
D03*
Y-8167D02*
D03*
X1704Y-7452D02*
D03*
X-14686Y-15897D02*
D03*
Y-14797D02*
D03*
X-2640Y-27748D02*
D03*
X-420Y-34113D02*
D03*
X12922Y-39393D02*
D03*
X7470Y-36405D02*
D03*
X5682Y-36430D02*
D03*
X-2584Y-41432D02*
D03*
X228Y-39393D02*
D03*
X-6776Y-42815D02*
D03*
X-9104Y-7699D02*
D03*
X-8152D02*
D03*
X4913Y-29319D02*
D03*
X-3532Y-33277D02*
D03*
X15919Y-13841D02*
D03*
X493Y-8254D02*
D03*
X-4327Y3790D02*
D03*
X14051Y2918D02*
D03*
X6360Y-1275D02*
D03*
X15819Y-15941D02*
D03*
X-24270Y3056D02*
D03*
X15819Y-14941D02*
D03*
X36229Y-34700D02*
D03*
X5020Y-1250D02*
D03*
X-817D02*
D03*
X-16030Y768D02*
D03*
X-13193Y-1100D02*
D03*
X-19509D02*
D03*
X33178Y3132D02*
D03*
X-5847Y3130D02*
D03*
X12113Y-34362D02*
D03*
X11147Y-34088D02*
D03*
D76*
X27325Y-15263D02*
D03*
Y-13963D02*
D03*
Y-12663D02*
D03*
Y-16563D02*
D03*
Y-17863D02*
D03*
Y-11363D02*
D03*
Y-19163D02*
D03*
X-25984D02*
D03*
Y-11363D02*
D03*
Y-17863D02*
D03*
Y-16563D02*
D03*
Y-12663D02*
D03*
Y-13963D02*
D03*
Y-15263D02*
D03*
D77*
X-26630Y-10713D02*
D03*
X26670Y-14613D02*
D03*
X27970Y-12013D02*
D03*
X26670Y-15913D02*
D03*
X27970Y-18513D02*
D03*
X26670D02*
D03*
Y-19813D02*
D03*
Y-13313D02*
D03*
X27970D02*
D03*
X26670Y-12013D02*
D03*
Y-17213D02*
D03*
X27970Y-10713D02*
D03*
Y-17213D02*
D03*
Y-19813D02*
D03*
Y-14613D02*
D03*
Y-15913D02*
D03*
X-25330Y-12013D02*
D03*
Y-13313D02*
D03*
Y-14613D02*
D03*
Y-15913D02*
D03*
Y-17213D02*
D03*
Y-18513D02*
D03*
X-26630Y-12013D02*
D03*
Y-13313D02*
D03*
Y-14613D02*
D03*
Y-15913D02*
D03*
Y-17213D02*
D03*
Y-18513D02*
D03*
D78*
X-20230Y-12738D02*
D03*
X-17805Y-16638D02*
D03*
Y-14038D02*
D03*
Y-12738D02*
D03*
Y-15338D02*
D03*
X-19017D02*
D03*
X-20230Y-14038D02*
D03*
Y-15338D02*
D03*
Y-16638D02*
D03*
X-19017Y-12738D02*
D03*
Y-14038D02*
D03*
Y-16638D02*
D03*
X21470Y-16988D02*
D03*
Y-15688D02*
D03*
Y-11913D02*
D03*
Y-13088D02*
D03*
Y-14388D02*
D03*
X20220Y-11913D02*
D03*
X18970D02*
D03*
Y-16988D02*
D03*
X20220D02*
D03*
X18970Y-15688D02*
D03*
Y-13088D02*
D03*
Y-14388D02*
D03*
X20220Y-13088D02*
D03*
Y-14388D02*
D03*
Y-15688D02*
D03*
M02*
