G04*
G04 #@! TF.GenerationSoftware,Altium Limited,Altium Designer,22.10.1 (41)*
G04*
G04 Layer_Color=16711935*
%FSLAX43Y43*%
%MOMM*%
G71*
G04*
G04 #@! TF.SameCoordinates,8BFF45E1-3A9E-4B14-93B6-BC7C2D9919BF*
G04*
G04*
G04 #@! TF.FilePolarity,Negative*
G04*
G01*
G75*
G04:AMPARAMS|DCode=24|XSize=1.51mm|YSize=1.76mm|CornerRadius=0.301mm|HoleSize=0mm|Usage=FLASHONLY|Rotation=180.000|XOffset=0mm|YOffset=0mm|HoleType=Round|Shape=RoundedRectangle|*
%AMROUNDEDRECTD24*
21,1,1.510,1.158,0,0,180.0*
21,1,0.907,1.760,0,0,180.0*
1,1,0.603,-0.454,0.579*
1,1,0.603,0.454,0.579*
1,1,0.603,0.454,-0.579*
1,1,0.603,-0.454,-0.579*
%
%ADD24ROUNDEDRECTD24*%
G04:AMPARAMS|DCode=28|XSize=3.44mm|YSize=1.84mm|CornerRadius=0.343mm|HoleSize=0mm|Usage=FLASHONLY|Rotation=0.000|XOffset=0mm|YOffset=0mm|HoleType=Round|Shape=RoundedRectangle|*
%AMROUNDEDRECTD28*
21,1,3.440,1.155,0,0,0.0*
21,1,2.755,1.840,0,0,0.0*
1,1,0.685,1.378,-0.578*
1,1,0.685,-1.378,-0.578*
1,1,0.685,-1.378,0.578*
1,1,0.685,1.378,0.578*
%
%ADD28ROUNDEDRECTD28*%
G04:AMPARAMS|DCode=29|XSize=1.83mm|YSize=1.32mm|CornerRadius=0.278mm|HoleSize=0mm|Usage=FLASHONLY|Rotation=270.000|XOffset=0mm|YOffset=0mm|HoleType=Round|Shape=RoundedRectangle|*
%AMROUNDEDRECTD29*
21,1,1.830,0.765,0,0,270.0*
21,1,1.275,1.320,0,0,270.0*
1,1,0.555,-0.383,-0.638*
1,1,0.555,-0.383,0.638*
1,1,0.555,0.383,0.638*
1,1,0.555,0.383,-0.638*
%
%ADD29ROUNDEDRECTD29*%
G04:AMPARAMS|DCode=33|XSize=2.04mm|YSize=2.47mm|CornerRadius=0.368mm|HoleSize=0mm|Usage=FLASHONLY|Rotation=0.000|XOffset=0mm|YOffset=0mm|HoleType=Round|Shape=RoundedRectangle|*
%AMROUNDEDRECTD33*
21,1,2.040,1.735,0,0,0.0*
21,1,1.305,2.470,0,0,0.0*
1,1,0.735,0.653,-0.868*
1,1,0.735,-0.653,-0.868*
1,1,0.735,-0.653,0.868*
1,1,0.735,0.653,0.868*
%
%ADD33ROUNDEDRECTD33*%
G04:AMPARAMS|DCode=34|XSize=1.51mm|YSize=1.76mm|CornerRadius=0.301mm|HoleSize=0mm|Usage=FLASHONLY|Rotation=90.000|XOffset=0mm|YOffset=0mm|HoleType=Round|Shape=RoundedRectangle|*
%AMROUNDEDRECTD34*
21,1,1.510,1.158,0,0,90.0*
21,1,0.907,1.760,0,0,90.0*
1,1,0.603,0.579,0.454*
1,1,0.603,0.579,-0.454*
1,1,0.603,-0.579,-0.454*
1,1,0.603,-0.579,0.454*
%
%ADD34ROUNDEDRECTD34*%
%ADD36C,6.800*%
%ADD37C,2.300*%
%ADD38C,1.500*%
%ADD39R,1.500X1.500*%
%ADD40C,3.500*%
%ADD41C,3.800*%
%ADD42R,1.500X1.500*%
%ADD43C,3.800*%
G04:AMPARAMS|DCode=85|XSize=1.56mm|YSize=0.88mm|CornerRadius=0.223mm|HoleSize=0mm|Usage=FLASHONLY|Rotation=90.000|XOffset=0mm|YOffset=0mm|HoleType=Round|Shape=RoundedRectangle|*
%AMROUNDEDRECTD85*
21,1,1.560,0.435,0,0,90.0*
21,1,1.115,0.880,0,0,90.0*
1,1,0.445,0.217,0.558*
1,1,0.445,0.217,-0.558*
1,1,0.445,-0.217,-0.558*
1,1,0.445,-0.217,0.558*
%
%ADD85ROUNDEDRECTD85*%
G04:AMPARAMS|DCode=86|XSize=1.51mm|YSize=0.78mm|CornerRadius=0.21mm|HoleSize=0mm|Usage=FLASHONLY|Rotation=180.000|XOffset=0mm|YOffset=0mm|HoleType=Round|Shape=RoundedRectangle|*
%AMROUNDEDRECTD86*
21,1,1.510,0.360,0,0,180.0*
21,1,1.090,0.780,0,0,180.0*
1,1,0.420,-0.545,0.180*
1,1,0.420,0.545,0.180*
1,1,0.420,0.545,-0.180*
1,1,0.420,-0.545,-0.180*
%
%ADD86ROUNDEDRECTD86*%
G04:AMPARAMS|DCode=87|XSize=1.3mm|YSize=1.7mm|CornerRadius=0.275mm|HoleSize=0mm|Usage=FLASHONLY|Rotation=270.000|XOffset=0mm|YOffset=0mm|HoleType=Round|Shape=RoundedRectangle|*
%AMROUNDEDRECTD87*
21,1,1.300,1.150,0,0,270.0*
21,1,0.750,1.700,0,0,270.0*
1,1,0.550,-0.575,-0.375*
1,1,0.550,-0.575,0.375*
1,1,0.550,0.575,0.375*
1,1,0.550,0.575,-0.375*
%
%ADD87ROUNDEDRECTD87*%
G04:AMPARAMS|DCode=88|XSize=0.98mm|YSize=2.47mm|CornerRadius=0.235mm|HoleSize=0mm|Usage=FLASHONLY|Rotation=0.000|XOffset=0mm|YOffset=0mm|HoleType=Round|Shape=RoundedRectangle|*
%AMROUNDEDRECTD88*
21,1,0.980,2.000,0,0,0.0*
21,1,0.510,2.470,0,0,0.0*
1,1,0.470,0.255,-1.000*
1,1,0.470,-0.255,-1.000*
1,1,0.470,-0.255,1.000*
1,1,0.470,0.255,1.000*
%
%ADD88ROUNDEDRECTD88*%
G04:AMPARAMS|DCode=89|XSize=3.043mm|YSize=2.459mm|CornerRadius=0.42mm|HoleSize=0mm|Usage=FLASHONLY|Rotation=270.000|XOffset=0mm|YOffset=0mm|HoleType=Round|Shape=RoundedRectangle|*
%AMROUNDEDRECTD89*
21,1,3.043,1.619,0,0,270.0*
21,1,2.203,2.459,0,0,270.0*
1,1,0.840,-0.810,-1.102*
1,1,0.840,-0.810,1.102*
1,1,0.840,0.810,1.102*
1,1,0.840,0.810,-1.102*
%
%ADD89ROUNDEDRECTD89*%
G04:AMPARAMS|DCode=90|XSize=2.25mm|YSize=3.7mm|CornerRadius=0.394mm|HoleSize=0mm|Usage=FLASHONLY|Rotation=270.000|XOffset=0mm|YOffset=0mm|HoleType=Round|Shape=RoundedRectangle|*
%AMROUNDEDRECTD90*
21,1,2.250,2.913,0,0,270.0*
21,1,1.463,3.700,0,0,270.0*
1,1,0.788,-1.456,-0.731*
1,1,0.788,-1.456,0.731*
1,1,0.788,1.456,0.731*
1,1,0.788,1.456,-0.731*
%
%ADD90ROUNDEDRECTD90*%
G04:AMPARAMS|DCode=91|XSize=1.3mm|YSize=1.7mm|CornerRadius=0.275mm|HoleSize=0mm|Usage=FLASHONLY|Rotation=180.000|XOffset=0mm|YOffset=0mm|HoleType=Round|Shape=RoundedRectangle|*
%AMROUNDEDRECTD91*
21,1,1.300,1.150,0,0,180.0*
21,1,0.750,1.700,0,0,180.0*
1,1,0.550,-0.375,0.575*
1,1,0.550,0.375,0.575*
1,1,0.550,0.375,-0.575*
1,1,0.550,-0.375,-0.575*
%
%ADD91ROUNDEDRECTD91*%
D24*
X-7114Y-8214D02*
D03*
X-8804D02*
D03*
X-7114Y-14005D02*
D03*
X-8804D02*
D03*
X34915Y10660D02*
D03*
X36605D02*
D03*
X15458Y10649D02*
D03*
X17148D02*
D03*
X-2613Y-14035D02*
D03*
X-923D02*
D03*
X-4121Y10678D02*
D03*
X-2431D02*
D03*
X-23501D02*
D03*
X-21811D02*
D03*
D28*
X16520Y-31992D02*
D03*
Y-25342D02*
D03*
D29*
X30965Y1337D02*
D03*
X32980D02*
D03*
X11471Y1307D02*
D03*
X13486D02*
D03*
X-8060Y1335D02*
D03*
X-6045D02*
D03*
X-27466Y1315D02*
D03*
X-25451D02*
D03*
X-5144Y-8202D02*
D03*
X-3129D02*
D03*
X-6989Y-16280D02*
D03*
X-9004D02*
D03*
X-5144Y-5900D02*
D03*
X-3129D02*
D03*
X3475Y-20950D02*
D03*
X5490D02*
D03*
X9302Y-20925D02*
D03*
X11317D02*
D03*
X14480Y-16305D02*
D03*
X16495D02*
D03*
X-13022Y-14010D02*
D03*
X-15037D02*
D03*
X-9004Y-18569D02*
D03*
X-6989D02*
D03*
X-2895Y-16280D02*
D03*
X-880D02*
D03*
X-805Y-18574D02*
D03*
X-2820D02*
D03*
X14405Y-14010D02*
D03*
X16420D02*
D03*
X16495Y-18594D02*
D03*
X14480D02*
D03*
X30961Y10648D02*
D03*
X32976D02*
D03*
X11469D02*
D03*
X13484D02*
D03*
X-8025Y10653D02*
D03*
X-6010D02*
D03*
X-13022Y-16280D02*
D03*
X-15037D02*
D03*
X-13022Y-18569D02*
D03*
X-15037D02*
D03*
X-27466Y10653D02*
D03*
X-25451D02*
D03*
D33*
X-33429Y-32426D02*
D03*
Y-36186D02*
D03*
X33556D02*
D03*
Y-32426D02*
D03*
D34*
X-1038Y-8087D02*
D03*
Y-9777D02*
D03*
X1179Y-8087D02*
D03*
Y-9777D02*
D03*
X14013Y-9887D02*
D03*
Y-11576D02*
D03*
X16263Y-9887D02*
D03*
Y-11576D02*
D03*
D36*
X18198Y-45000D02*
D03*
X25398D02*
D03*
X34262Y-15350D02*
D03*
Y-8150D02*
D03*
X-18295Y-45000D02*
D03*
X-25495D02*
D03*
X-34300Y-15600D02*
D03*
Y-8400D02*
D03*
D37*
X-26363Y45248D02*
D03*
X-21363D02*
D03*
X-23863D02*
D03*
X-18863D02*
D03*
X-11303D02*
D03*
X-6303D02*
D03*
X-8803D02*
D03*
X-3803D02*
D03*
X11357D02*
D03*
X6357D02*
D03*
X8857D02*
D03*
X3857D02*
D03*
X26317D02*
D03*
X21317D02*
D03*
X23817D02*
D03*
X18817D02*
D03*
D38*
X-4370Y-46100D02*
D03*
X36229Y-32475D02*
D03*
X-36050Y-30475D02*
D03*
X36229Y-38953D02*
D03*
X-36050Y-36953D02*
D03*
X-11000Y-46100D02*
D03*
X2261D02*
D03*
X8891D02*
D03*
D39*
X-2370D02*
D03*
X-9000D02*
D03*
X4261D02*
D03*
X10891D02*
D03*
D40*
X3762Y-24200D02*
D03*
X11362D02*
D03*
X-1800Y-24200D02*
D03*
X-9400D02*
D03*
D41*
X36362D02*
D03*
X28762D02*
D03*
X-36400Y-24200D02*
D03*
X-28800D02*
D03*
D42*
X36229Y-30475D02*
D03*
X-36050Y-32475D02*
D03*
X36229Y-36953D02*
D03*
X-36050Y-38953D02*
D03*
D43*
X-35000Y-45000D02*
D03*
Y45000D02*
D03*
X35000Y-45000D02*
D03*
X35000Y45000D02*
D03*
D85*
X74Y-45300D02*
D03*
Y-47360D02*
D03*
X-6525D02*
D03*
Y-45300D02*
D03*
D86*
X-3652Y-10307D02*
D03*
Y-10957D02*
D03*
Y-11607D02*
D03*
Y-12257D02*
D03*
X-6162D02*
D03*
Y-11607D02*
D03*
Y-10957D02*
D03*
Y-10307D02*
D03*
D87*
X3700Y-18735D02*
D03*
X3700Y-16835D02*
D03*
X5900Y-17785D02*
D03*
D88*
X10836Y-13578D02*
D03*
X9566D02*
D03*
X8296D02*
D03*
X7026D02*
D03*
X5756D02*
D03*
X4486D02*
D03*
X3216D02*
D03*
X10836Y-8728D02*
D03*
X9566D02*
D03*
X8296D02*
D03*
X7026D02*
D03*
X5756D02*
D03*
X4486D02*
D03*
X3216D02*
D03*
D89*
X-24493Y41922D02*
D03*
X-20733D02*
D03*
X-5673D02*
D03*
X-9433D02*
D03*
X24190D02*
D03*
X20430D02*
D03*
X9130D02*
D03*
X5370D02*
D03*
D90*
X-29700Y-37428D02*
D03*
Y-33228D02*
D03*
X29862D02*
D03*
Y-37428D02*
D03*
D91*
X9307Y-16380D02*
D03*
X11207Y-16380D02*
D03*
X10257Y-18580D02*
D03*
M02*
