G04*
G04 #@! TF.GenerationSoftware,Altium Limited,Altium Designer,22.10.1 (41)*
G04*
G04 Layer_Physical_Order=2*
G04 Layer_Color=16711680*
%FSLAX43Y43*%
%MOMM*%
G71*
G04*
G04 #@! TF.SameCoordinates,8BFF45E1-3A9E-4B14-93B6-BC7C2D9919BF*
G04*
G04*
G04 #@! TF.FilePolarity,Positive*
G04*
G01*
G75*
%ADD12C,0.200*%
%ADD14C,0.400*%
%ADD40C,3.500*%
%ADD44C,0.300*%
%ADD47C,0.500*%
G04:AMPARAMS|DCode=57|XSize=1.21mm|YSize=1.46mm|CornerRadius=0.151mm|HoleSize=0mm|Usage=FLASHONLY|Rotation=180.000|XOffset=0mm|YOffset=0mm|HoleType=Round|Shape=RoundedRectangle|*
%AMROUNDEDRECTD57*
21,1,1.210,1.158,0,0,180.0*
21,1,0.907,1.460,0,0,180.0*
1,1,0.303,-0.454,0.579*
1,1,0.303,0.454,0.579*
1,1,0.303,0.454,-0.579*
1,1,0.303,-0.454,-0.579*
%
%ADD57ROUNDEDRECTD57*%
G04:AMPARAMS|DCode=61|XSize=3.14mm|YSize=1.54mm|CornerRadius=0.193mm|HoleSize=0mm|Usage=FLASHONLY|Rotation=0.000|XOffset=0mm|YOffset=0mm|HoleType=Round|Shape=RoundedRectangle|*
%AMROUNDEDRECTD61*
21,1,3.140,1.155,0,0,0.0*
21,1,2.755,1.540,0,0,0.0*
1,1,0.385,1.378,-0.578*
1,1,0.385,-1.378,-0.578*
1,1,0.385,-1.378,0.578*
1,1,0.385,1.378,0.578*
%
%ADD61ROUNDEDRECTD61*%
G04:AMPARAMS|DCode=62|XSize=1.53mm|YSize=1.02mm|CornerRadius=0.127mm|HoleSize=0mm|Usage=FLASHONLY|Rotation=270.000|XOffset=0mm|YOffset=0mm|HoleType=Round|Shape=RoundedRectangle|*
%AMROUNDEDRECTD62*
21,1,1.530,0.765,0,0,270.0*
21,1,1.275,1.020,0,0,270.0*
1,1,0.255,-0.383,-0.638*
1,1,0.255,-0.383,0.638*
1,1,0.255,0.383,0.638*
1,1,0.255,0.383,-0.638*
%
%ADD62ROUNDEDRECTD62*%
G04:AMPARAMS|DCode=66|XSize=1.74mm|YSize=2.17mm|CornerRadius=0.217mm|HoleSize=0mm|Usage=FLASHONLY|Rotation=0.000|XOffset=0mm|YOffset=0mm|HoleType=Round|Shape=RoundedRectangle|*
%AMROUNDEDRECTD66*
21,1,1.740,1.735,0,0,0.0*
21,1,1.305,2.170,0,0,0.0*
1,1,0.435,0.653,-0.868*
1,1,0.435,-0.653,-0.868*
1,1,0.435,-0.653,0.868*
1,1,0.435,0.653,0.868*
%
%ADD66ROUNDEDRECTD66*%
G04:AMPARAMS|DCode=67|XSize=1.21mm|YSize=1.46mm|CornerRadius=0.151mm|HoleSize=0mm|Usage=FLASHONLY|Rotation=90.000|XOffset=0mm|YOffset=0mm|HoleType=Round|Shape=RoundedRectangle|*
%AMROUNDEDRECTD67*
21,1,1.210,1.158,0,0,90.0*
21,1,0.907,1.460,0,0,90.0*
1,1,0.303,0.579,0.454*
1,1,0.303,0.579,-0.454*
1,1,0.303,-0.579,-0.454*
1,1,0.303,-0.579,0.454*
%
%ADD67ROUNDEDRECTD67*%
%ADD69C,6.500*%
%ADD70C,2.000*%
%ADD71C,1.200*%
%ADD72R,1.200X1.200*%
%ADD73C,3.200*%
%ADD74R,1.200X1.200*%
%ADD75C,3.500*%
%ADD76C,0.700*%
%ADD77C,1.000*%
G04:AMPARAMS|DCode=78|XSize=1.26mm|YSize=0.58mm|CornerRadius=0.072mm|HoleSize=0mm|Usage=FLASHONLY|Rotation=90.000|XOffset=0mm|YOffset=0mm|HoleType=Round|Shape=RoundedRectangle|*
%AMROUNDEDRECTD78*
21,1,1.260,0.435,0,0,90.0*
21,1,1.115,0.580,0,0,90.0*
1,1,0.145,0.217,0.558*
1,1,0.145,0.217,-0.558*
1,1,0.145,-0.217,-0.558*
1,1,0.145,-0.217,0.558*
%
%ADD78ROUNDEDRECTD78*%
G04:AMPARAMS|DCode=79|XSize=1.21mm|YSize=0.48mm|CornerRadius=0.06mm|HoleSize=0mm|Usage=FLASHONLY|Rotation=180.000|XOffset=0mm|YOffset=0mm|HoleType=Round|Shape=RoundedRectangle|*
%AMROUNDEDRECTD79*
21,1,1.210,0.360,0,0,180.0*
21,1,1.090,0.480,0,0,180.0*
1,1,0.120,-0.545,0.180*
1,1,0.120,0.545,0.180*
1,1,0.120,0.545,-0.180*
1,1,0.120,-0.545,-0.180*
%
%ADD79ROUNDEDRECTD79*%
G04:AMPARAMS|DCode=80|XSize=1mm|YSize=1.4mm|CornerRadius=0.125mm|HoleSize=0mm|Usage=FLASHONLY|Rotation=270.000|XOffset=0mm|YOffset=0mm|HoleType=Round|Shape=RoundedRectangle|*
%AMROUNDEDRECTD80*
21,1,1.000,1.150,0,0,270.0*
21,1,0.750,1.400,0,0,270.0*
1,1,0.250,-0.575,-0.375*
1,1,0.250,-0.575,0.375*
1,1,0.250,0.575,0.375*
1,1,0.250,0.575,-0.375*
%
%ADD80ROUNDEDRECTD80*%
G04:AMPARAMS|DCode=81|XSize=0.68mm|YSize=2.17mm|CornerRadius=0.085mm|HoleSize=0mm|Usage=FLASHONLY|Rotation=0.000|XOffset=0mm|YOffset=0mm|HoleType=Round|Shape=RoundedRectangle|*
%AMROUNDEDRECTD81*
21,1,0.680,2.000,0,0,0.0*
21,1,0.510,2.170,0,0,0.0*
1,1,0.170,0.255,-1.000*
1,1,0.170,-0.255,-1.000*
1,1,0.170,-0.255,1.000*
1,1,0.170,0.255,1.000*
%
%ADD81ROUNDEDRECTD81*%
G04:AMPARAMS|DCode=82|XSize=2.743mm|YSize=2.159mm|CornerRadius=0.27mm|HoleSize=0mm|Usage=FLASHONLY|Rotation=270.000|XOffset=0mm|YOffset=0mm|HoleType=Round|Shape=RoundedRectangle|*
%AMROUNDEDRECTD82*
21,1,2.743,1.619,0,0,270.0*
21,1,2.203,2.159,0,0,270.0*
1,1,0.540,-0.810,-1.102*
1,1,0.540,-0.810,1.102*
1,1,0.540,0.810,1.102*
1,1,0.540,0.810,-1.102*
%
%ADD82ROUNDEDRECTD82*%
G04:AMPARAMS|DCode=83|XSize=1.95mm|YSize=3.4mm|CornerRadius=0.244mm|HoleSize=0mm|Usage=FLASHONLY|Rotation=270.000|XOffset=0mm|YOffset=0mm|HoleType=Round|Shape=RoundedRectangle|*
%AMROUNDEDRECTD83*
21,1,1.950,2.913,0,0,270.0*
21,1,1.463,3.400,0,0,270.0*
1,1,0.488,-1.456,-0.731*
1,1,0.488,-1.456,0.731*
1,1,0.488,1.456,0.731*
1,1,0.488,1.456,-0.731*
%
%ADD83ROUNDEDRECTD83*%
G04:AMPARAMS|DCode=84|XSize=1mm|YSize=1.4mm|CornerRadius=0.125mm|HoleSize=0mm|Usage=FLASHONLY|Rotation=180.000|XOffset=0mm|YOffset=0mm|HoleType=Round|Shape=RoundedRectangle|*
%AMROUNDEDRECTD84*
21,1,1.000,1.150,0,0,180.0*
21,1,0.750,1.400,0,0,180.0*
1,1,0.250,-0.375,0.575*
1,1,0.250,0.375,0.575*
1,1,0.250,0.375,-0.575*
1,1,0.250,-0.375,-0.575*
%
%ADD84ROUNDEDRECTD84*%
G36*
X30233Y49548D02*
X30480Y49446D01*
X30703Y49297D01*
X30892Y49108D01*
X31041Y48885D01*
X31143Y48638D01*
X31195Y48375D01*
X31195Y48241D01*
X31195D01*
X31195Y48241D01*
X31195Y44769D01*
X31203Y44535D01*
X31264Y44073D01*
X31385Y43622D01*
X31563Y43190D01*
X31797Y42786D01*
X32081Y42416D01*
X32411Y42086D01*
X32781Y41801D01*
X33186Y41568D01*
X33617Y41389D01*
X34068Y41269D01*
X34531Y41208D01*
X34764Y41200D01*
X38237Y41200D01*
X38381Y41200D01*
X38663Y41144D01*
X38930Y41034D01*
X39170Y40873D01*
X39373Y40670D01*
X39534Y40430D01*
X39644Y40164D01*
X39700Y39881D01*
X39700Y39737D01*
X39700Y39737D01*
X39700Y39737D01*
Y-4500D01*
X39700Y-40000D01*
X39700Y-40118D01*
X39654Y-40350D01*
X39564Y-40569D01*
X39432Y-40765D01*
X39265Y-40932D01*
X39068Y-41064D01*
X38850Y-41154D01*
X38626Y-41198D01*
X38500Y-41200D01*
Y-41200D01*
X35100Y-41200D01*
X34845Y-41208D01*
X34338Y-41275D01*
X33845Y-41407D01*
X33373Y-41603D01*
X32931Y-41858D01*
X32525Y-42169D01*
X32164Y-42530D01*
X31853Y-42935D01*
X31598Y-43378D01*
X31402Y-43850D01*
X31270Y-44343D01*
X31204Y-44849D01*
X31195Y-45105D01*
X31195Y-45105D01*
X31195Y-45105D01*
X31195Y-48505D01*
X31195Y-48622D01*
X31149Y-48853D01*
X31059Y-49071D01*
X30928Y-49267D01*
X30762Y-49433D01*
X30566Y-49564D01*
X30349Y-49654D01*
X30118Y-49700D01*
X30000Y-49700D01*
X5000D01*
X4950Y-49573D01*
X5036Y-49423D01*
X5091Y-49219D01*
Y-49009D01*
X5036Y-48805D01*
X4931Y-48623D01*
X4822Y-48513D01*
Y-47000D01*
X5161D01*
Y-45200D01*
X3361D01*
Y-47000D01*
X3700D01*
Y-48573D01*
X3651Y-48623D01*
X3546Y-48805D01*
X3491Y-49009D01*
Y-49219D01*
X3546Y-49423D01*
X3632Y-49573D01*
X3582Y-49700D01*
X-22711D01*
X-22739Y-49641D01*
X-22750Y-49573D01*
X-22655Y-49478D01*
X-15471D01*
Y-49480D01*
X-15018Y-49444D01*
X-14575Y-49338D01*
X-14155Y-49164D01*
X-13767Y-48927D01*
X-13421Y-48631D01*
X-13423Y-48630D01*
X-12328Y-47535D01*
X-12173D01*
X-11971Y-47451D01*
X-11817Y-47296D01*
X-11733Y-47094D01*
Y-46876D01*
X-11817Y-46673D01*
X-11971Y-46519D01*
X-12173Y-46435D01*
X-12392D01*
X-12594Y-46519D01*
X-12749Y-46673D01*
X-12833Y-46876D01*
Y-47030D01*
X-13928Y-48125D01*
X-13937Y-48138D01*
X-14256Y-48400D01*
X-14634Y-48603D01*
X-15044Y-48727D01*
X-15456Y-48768D01*
X-15471Y-48764D01*
X-22655D01*
X-22764Y-48655D01*
X-22966Y-48571D01*
X-23185D01*
X-23387Y-48655D01*
X-23542Y-48810D01*
X-23626Y-49012D01*
Y-49231D01*
X-23542Y-49433D01*
X-23402Y-49573D01*
X-23413Y-49641D01*
X-23441Y-49700D01*
X-30028D01*
X-30279Y-49650D01*
X-30516Y-49552D01*
X-30729Y-49410D01*
X-30910Y-49229D01*
X-31052Y-49016D01*
X-31150Y-48779D01*
X-31200Y-48528D01*
X-31200Y-48400D01*
X-31200Y-45000D01*
X-31208Y-44751D01*
X-31273Y-44259D01*
X-31402Y-43779D01*
X-31592Y-43319D01*
X-31840Y-42889D01*
X-32143Y-42494D01*
X-32495Y-42143D01*
X-32889Y-41840D01*
X-33319Y-41592D01*
X-33779Y-41402D01*
X-34259Y-41273D01*
X-34752Y-41208D01*
X-35000Y-41200D01*
X-35000Y-41200D01*
X-35000Y-41200D01*
X-37800Y-41200D01*
X-37989D01*
X-38359Y-41126D01*
X-38707Y-40982D01*
X-39021Y-40773D01*
X-39287Y-40506D01*
X-39497Y-40192D01*
X-39641Y-39844D01*
X-39715Y-39474D01*
X-39715Y-39285D01*
X-39715Y39901D01*
Y40029D01*
X-39665Y40280D01*
X-39567Y40517D01*
X-39425Y40729D01*
X-39244Y40910D01*
X-39031Y41052D01*
X-38795Y41150D01*
X-38544Y41200D01*
X-38416Y41200D01*
X-38416Y41200D01*
X-34800Y41200D01*
X-34562Y41208D01*
X-34089Y41270D01*
X-33628Y41393D01*
X-33188Y41576D01*
X-32775Y41814D01*
X-32397Y42105D01*
X-32059Y42442D01*
X-31769Y42820D01*
X-31531Y43233D01*
X-31348Y43674D01*
X-31225Y44134D01*
X-31163Y44607D01*
X-31155Y44845D01*
X-31155Y44845D01*
Y48245D01*
X-31155Y48379D01*
X-31103Y48640D01*
X-31001Y48887D01*
X-30852Y49109D01*
X-30664Y49298D01*
X-30442Y49446D01*
X-30195Y49548D01*
X-29933Y49600D01*
X-29800Y49600D01*
X-29800Y49600D01*
X29837Y49600D01*
X29970Y49600D01*
X30233Y49548D01*
D02*
G37*
%LPC*%
G36*
X26817Y46345D02*
Y45858D01*
Y45748D01*
X27414D01*
X27277Y45985D01*
X27054Y46208D01*
X26817Y46345D01*
D02*
G37*
G36*
X11857Y46345D02*
Y45748D01*
X12454D01*
X12317Y45985D01*
X12094Y46208D01*
X11857Y46345D01*
D02*
G37*
G36*
X-18363D02*
Y45748D01*
X-17766D01*
X-17903Y45985D01*
X-18126Y46208D01*
X-18363Y46345D01*
D02*
G37*
G36*
X-3303Y46345D02*
Y45748D01*
X-2706D01*
X-2843Y45985D01*
X-3066Y46208D01*
X-3303Y46345D01*
D02*
G37*
G36*
X25817Y46345D02*
X25580Y46208D01*
X25357Y45985D01*
X25199Y45711D01*
X25133Y45464D01*
X25001D01*
D01*
D01*
X24935Y45711D01*
X24777Y45985D01*
X24554Y46208D01*
X24317Y46345D01*
Y45248D01*
Y44151D01*
X24554Y44287D01*
X24777Y44511D01*
X24935Y44785D01*
X24979Y44948D01*
X25001Y45031D01*
X25133D01*
D01*
D01*
X25155Y44948D01*
X25199Y44785D01*
X25357Y44511D01*
X25580Y44287D01*
X25817Y44151D01*
Y45248D01*
Y46345D01*
D02*
G37*
G36*
X10857Y46345D02*
X10620Y46208D01*
X10397Y45985D01*
X10239Y45711D01*
X10173Y45464D01*
X10041D01*
X9975Y45711D01*
X9817Y45985D01*
X9594Y46208D01*
X9357Y46345D01*
Y45248D01*
Y44151D01*
X9594Y44287D01*
X9817Y44511D01*
X9975Y44785D01*
X10041Y45031D01*
X10173D01*
X10239Y44785D01*
X10397Y44511D01*
X10620Y44287D01*
X10857Y44151D01*
Y45248D01*
Y46345D01*
D02*
G37*
G36*
X-4303D02*
X-4540Y46208D01*
X-4763Y45985D01*
X-4921Y45711D01*
X-4987Y45464D01*
X-5119D01*
X-5185Y45711D01*
X-5343Y45985D01*
X-5566Y46208D01*
X-5803Y46345D01*
Y45248D01*
Y44151D01*
X-5566Y44287D01*
X-5343Y44511D01*
X-5185Y44785D01*
X-5119Y45031D01*
X-4987D01*
X-4921Y44785D01*
X-4763Y44511D01*
X-4540Y44287D01*
X-4303Y44151D01*
Y45248D01*
Y46345D01*
D02*
G37*
G36*
X-19363D02*
X-19600Y46208D01*
X-19823Y45985D01*
X-19981Y45711D01*
X-20047Y45464D01*
X-20179D01*
X-20245Y45711D01*
X-20403Y45985D01*
X-20626Y46208D01*
X-20863Y46345D01*
Y45248D01*
Y44151D01*
X-20626Y44287D01*
X-20403Y44511D01*
X-20245Y44785D01*
X-20179Y45031D01*
X-20047D01*
X-19981Y44785D01*
X-19823Y44511D01*
X-19600Y44287D01*
X-19363Y44151D01*
Y45248D01*
Y46345D01*
D02*
G37*
G36*
X27414Y44748D02*
X26817D01*
Y44151D01*
X27054Y44287D01*
X27277Y44511D01*
X27333Y44607D01*
X27414Y44748D01*
D02*
G37*
G36*
X12454Y44748D02*
X11857D01*
Y44151D01*
X12094Y44287D01*
X12317Y44511D01*
X12454Y44748D01*
D02*
G37*
G36*
X-17766D02*
X-18363D01*
Y44151D01*
X-18126Y44287D01*
X-17903Y44511D01*
X-17766Y44748D01*
D02*
G37*
G36*
X-2706Y44748D02*
X-3303D01*
Y44151D01*
X-3066Y44287D01*
X-2843Y44511D01*
X-2706Y44748D01*
D02*
G37*
G36*
X17313Y48406D02*
X17313Y48406D01*
X17190D01*
X17160Y48400D01*
X17130D01*
X16889Y48352D01*
X16861Y48340D01*
X16831Y48335D01*
X16604Y48240D01*
X16579Y48224D01*
X16551Y48212D01*
X16346Y48075D01*
X16325Y48054D01*
X16300Y48037D01*
X16126Y47863D01*
X16109Y47838D01*
X16088Y47817D01*
X15951Y47612D01*
X15939Y47584D01*
X15923Y47559D01*
X15828Y47332D01*
X15823Y47302D01*
X15811Y47274D01*
X15763Y47033D01*
Y47003D01*
X15757Y46973D01*
Y46850D01*
Y40100D01*
X15757Y40100D01*
X15757Y39977D01*
X15763Y39947D01*
Y39917D01*
X15811Y39676D01*
X15823Y39648D01*
X15828Y39618D01*
X15923Y39391D01*
X15939Y39366D01*
X15951Y39338D01*
X16088Y39133D01*
X16109Y39112D01*
X16126Y39087D01*
X16300Y38913D01*
X16325Y38896D01*
X16346Y38875D01*
X16551Y38738D01*
X16579Y38726D01*
X16604Y38710D01*
X16831Y38615D01*
X16861Y38610D01*
X16889Y38598D01*
X17130Y38550D01*
X17160D01*
X17190Y38544D01*
X17313Y38544D01*
X20825D01*
X20825Y38544D01*
X20947Y38544D01*
X20976Y38550D01*
X21006D01*
X21246Y38598D01*
X21273Y38609D01*
X21303Y38615D01*
X21528Y38708D01*
X21553Y38725D01*
X21581Y38737D01*
X21784Y38872D01*
X21805Y38893D01*
X21830Y38910D01*
X22003Y39083D01*
X22020Y39108D01*
X22041Y39129D01*
X22176Y39332D01*
X22188Y39360D01*
X22205Y39385D01*
X22298Y39610D01*
X22304Y39640D01*
X22315Y39667D01*
X22363Y39907D01*
Y39937D01*
X22369Y39966D01*
X22369Y40088D01*
X22369Y44146D01*
X22361Y44185D01*
X22358Y44225D01*
X22350Y44243D01*
X22346Y44263D01*
X22323Y44296D01*
X22306Y44332D01*
X22355Y44447D01*
X22357Y44449D01*
X22529Y44746D01*
X22553Y44838D01*
X22685D01*
X22699Y44785D01*
X22857Y44511D01*
X22998Y44370D01*
X23080Y44287D01*
X23317Y44151D01*
Y45248D01*
Y46345D01*
X23080Y46208D01*
X22857Y45985D01*
X22699Y45711D01*
X22685Y45658D01*
X22553D01*
X22529Y45749D01*
X22357Y46046D01*
X22355Y46048D01*
X22306Y46163D01*
X22323Y46199D01*
X22346Y46232D01*
X22350Y46252D01*
X22358Y46270D01*
X22361Y46310D01*
X22369Y46349D01*
Y47100D01*
X22369Y47100D01*
Y47100D01*
X22368Y47105D01*
X22369Y47110D01*
X22365Y47228D01*
X22359Y47252D01*
Y47278D01*
X22325Y47451D01*
X22313Y47479D01*
X22307Y47509D01*
X22232Y47691D01*
X22215Y47716D01*
X22203Y47744D01*
X22094Y47907D01*
X22073Y47929D01*
X22056Y47954D01*
X21917Y48093D01*
X21892Y48110D01*
X21870Y48131D01*
X21707Y48241D01*
X21679Y48252D01*
X21654Y48269D01*
X21472Y48344D01*
X21442Y48350D01*
X21414Y48362D01*
X21221Y48400D01*
X21191D01*
X21161Y48406D01*
X21063Y48406D01*
X17313Y48406D01*
D02*
G37*
G36*
X-12550D02*
X-12550Y48406D01*
X-12673D01*
X-12703Y48400D01*
X-12733D01*
X-12974Y48352D01*
X-13002Y48340D01*
X-13032Y48335D01*
X-13259Y48240D01*
X-13284Y48224D01*
X-13312Y48212D01*
X-13517Y48075D01*
X-13538Y48054D01*
X-13563Y48037D01*
X-13737Y47863D01*
X-13754Y47838D01*
X-13775Y47817D01*
X-13912Y47612D01*
X-13924Y47584D01*
X-13940Y47559D01*
X-14035Y47332D01*
X-14040Y47302D01*
X-14052Y47274D01*
X-14100Y47033D01*
Y47003D01*
X-14106Y46973D01*
Y46850D01*
Y40100D01*
X-14106Y40100D01*
X-14106Y39977D01*
X-14100Y39947D01*
Y39917D01*
X-14052Y39676D01*
X-14040Y39648D01*
X-14035Y39618D01*
X-13940Y39391D01*
X-13924Y39366D01*
X-13912Y39338D01*
X-13775Y39133D01*
X-13754Y39112D01*
X-13737Y39087D01*
X-13563Y38913D01*
X-13538Y38896D01*
X-13517Y38875D01*
X-13312Y38738D01*
X-13284Y38726D01*
X-13259Y38710D01*
X-13032Y38615D01*
X-13002Y38610D01*
X-12974Y38598D01*
X-12733Y38550D01*
X-12703D01*
X-12673Y38544D01*
X-12550Y38544D01*
X-9038D01*
X-9038Y38544D01*
X-8916Y38544D01*
X-8887Y38550D01*
X-8857D01*
X-8617Y38598D01*
X-8590Y38609D01*
X-8560Y38615D01*
X-8335Y38708D01*
X-8310Y38725D01*
X-8282Y38737D01*
X-8079Y38872D01*
X-8058Y38893D01*
X-8033Y38910D01*
X-7860Y39083D01*
X-7843Y39108D01*
X-7822Y39129D01*
X-7687Y39332D01*
X-7675Y39360D01*
X-7658Y39385D01*
X-7565Y39610D01*
X-7559Y39640D01*
X-7548Y39667D01*
X-7500Y39907D01*
Y39937D01*
X-7494Y39966D01*
X-7494Y40088D01*
X-7494Y44374D01*
X-7517Y44491D01*
X-7584Y44591D01*
X-7654Y44638D01*
X-7592Y44746D01*
X-7567Y44838D01*
X-7436D01*
X-7421Y44785D01*
X-7263Y44511D01*
X-7040Y44287D01*
X-6803Y44151D01*
Y45248D01*
Y46345D01*
X-7040Y46208D01*
X-7263Y45985D01*
X-7421Y45711D01*
X-7436Y45658D01*
X-7567D01*
X-7592Y45749D01*
X-7654Y45858D01*
X-7584Y45905D01*
X-7559Y45942D01*
X-7517Y46004D01*
X-7494Y46121D01*
Y47100D01*
X-7494Y47100D01*
Y47100D01*
X-7495Y47105D01*
X-7494Y47110D01*
X-7498Y47228D01*
X-7504Y47252D01*
Y47278D01*
X-7538Y47451D01*
X-7550Y47479D01*
X-7556Y47509D01*
X-7631Y47691D01*
X-7648Y47716D01*
X-7659Y47744D01*
X-7769Y47907D01*
X-7790Y47929D01*
X-7807Y47954D01*
X-7946Y48093D01*
X-7971Y48110D01*
X-7993Y48131D01*
X-8156Y48241D01*
X-8184Y48252D01*
X-8209Y48269D01*
X-8391Y48344D01*
X-8421Y48350D01*
X-8449Y48362D01*
X-8642Y48400D01*
X-8672D01*
X-8702Y48406D01*
X-8800Y48406D01*
X-12550Y48406D01*
D02*
G37*
G36*
X-27610D02*
X-27610Y48406D01*
X-27733D01*
X-27763Y48400D01*
X-27793D01*
X-28034Y48352D01*
X-28062Y48340D01*
X-28092Y48335D01*
X-28319Y48240D01*
X-28344Y48224D01*
X-28372Y48212D01*
X-28577Y48075D01*
X-28598Y48054D01*
X-28623Y48037D01*
X-28797Y47863D01*
X-28814Y47838D01*
X-28835Y47817D01*
X-28972Y47612D01*
X-28984Y47584D01*
X-29000Y47559D01*
X-29095Y47332D01*
X-29100Y47302D01*
X-29112Y47274D01*
X-29160Y47033D01*
Y47003D01*
X-29166Y46973D01*
Y46850D01*
Y40100D01*
X-29166Y40100D01*
X-29166Y39977D01*
X-29160Y39947D01*
Y39917D01*
X-29112Y39676D01*
X-29100Y39648D01*
X-29095Y39618D01*
X-29000Y39391D01*
X-28984Y39366D01*
X-28972Y39338D01*
X-28835Y39133D01*
X-28814Y39112D01*
X-28797Y39087D01*
X-28623Y38913D01*
X-28598Y38896D01*
X-28577Y38875D01*
X-28372Y38738D01*
X-28344Y38726D01*
X-28319Y38710D01*
X-28092Y38615D01*
X-28062Y38610D01*
X-28034Y38598D01*
X-27793Y38550D01*
X-27763D01*
X-27733Y38544D01*
X-27610Y38544D01*
X-24098D01*
X-24098Y38544D01*
X-23976Y38544D01*
X-23947Y38550D01*
X-23917D01*
X-23677Y38598D01*
X-23650Y38609D01*
X-23620Y38615D01*
X-23395Y38708D01*
X-23370Y38725D01*
X-23342Y38737D01*
X-23139Y38872D01*
X-23118Y38893D01*
X-23093Y38910D01*
X-22920Y39083D01*
X-22903Y39108D01*
X-22882Y39129D01*
X-22747Y39332D01*
X-22735Y39360D01*
X-22718Y39385D01*
X-22625Y39610D01*
X-22619Y39640D01*
X-22608Y39667D01*
X-22560Y39907D01*
Y39937D01*
X-22554Y39966D01*
X-22554Y40088D01*
X-22554Y44374D01*
X-22577Y44491D01*
X-22644Y44590D01*
X-22714Y44637D01*
X-22652Y44746D01*
X-22627Y44838D01*
X-22496D01*
X-22481Y44785D01*
X-22323Y44511D01*
X-22100Y44287D01*
X-21863Y44151D01*
Y45248D01*
Y46345D01*
X-22100Y46208D01*
X-22323Y45985D01*
X-22481Y45711D01*
X-22496Y45658D01*
X-22627D01*
X-22652Y45749D01*
X-22714Y45858D01*
X-22644Y45905D01*
X-22619Y45942D01*
X-22577Y46004D01*
X-22554Y46121D01*
Y47100D01*
X-22554Y47100D01*
Y47100D01*
X-22555Y47105D01*
X-22554Y47110D01*
X-22558Y47228D01*
X-22564Y47252D01*
Y47278D01*
X-22598Y47451D01*
X-22610Y47479D01*
X-22616Y47509D01*
X-22691Y47691D01*
X-22708Y47716D01*
X-22719Y47744D01*
X-22829Y47907D01*
X-22850Y47929D01*
X-22867Y47954D01*
X-23006Y48093D01*
X-23031Y48110D01*
X-23053Y48131D01*
X-23216Y48241D01*
X-23244Y48252D01*
X-23269Y48269D01*
X-23451Y48344D01*
X-23481Y48350D01*
X-23509Y48362D01*
X-23702Y48400D01*
X-23732D01*
X-23762Y48406D01*
X-23860Y48406D01*
X-27610Y48406D01*
D02*
G37*
G36*
X2253D02*
X2253Y48406D01*
X2130D01*
X2100Y48400D01*
X2070D01*
X1828Y48352D01*
X1801Y48340D01*
X1771Y48335D01*
X1544Y48240D01*
X1519Y48224D01*
X1491Y48212D01*
X1286Y48075D01*
X1265Y48054D01*
X1240Y48037D01*
X1066Y47863D01*
X1049Y47838D01*
X1027Y47817D01*
X891Y47612D01*
X879Y47584D01*
X862Y47559D01*
X768Y47332D01*
X762Y47302D01*
X751Y47274D01*
X703Y47033D01*
Y47003D01*
X697Y46973D01*
Y46850D01*
Y40100D01*
X697Y40100D01*
X697Y39977D01*
X703Y39947D01*
Y39917D01*
X751Y39676D01*
X762Y39648D01*
X768Y39618D01*
X862Y39391D01*
X879Y39366D01*
X891Y39338D01*
X1027Y39133D01*
X1049Y39112D01*
X1066Y39087D01*
X1240Y38913D01*
X1265Y38896D01*
X1286Y38875D01*
X1491Y38738D01*
X1519Y38726D01*
X1544Y38710D01*
X1771Y38615D01*
X1801Y38610D01*
X1828Y38598D01*
X2070Y38550D01*
X2100D01*
X2130Y38544D01*
X2253Y38544D01*
X5765D01*
X5765Y38544D01*
X5886Y38544D01*
X5916Y38550D01*
X5946D01*
X6185Y38598D01*
X6213Y38609D01*
X6243Y38615D01*
X6468Y38708D01*
X6493Y38725D01*
X6521Y38737D01*
X6724Y38872D01*
X6745Y38893D01*
X6770Y38910D01*
X6943Y39083D01*
X6959Y39108D01*
X6981Y39129D01*
X7116Y39332D01*
X7128Y39360D01*
X7144Y39385D01*
X7238Y39610D01*
X7244Y39640D01*
X7255Y39667D01*
X7303Y39907D01*
Y39937D01*
X7309Y39966D01*
X7309Y40088D01*
X7309Y44108D01*
X7301Y44147D01*
X7298Y44187D01*
X7289Y44205D01*
X7285Y44225D01*
X7263Y44258D01*
X7245Y44294D01*
X7245Y44298D01*
X7397Y44449D01*
X7568Y44746D01*
X7593Y44838D01*
X7725D01*
X7739Y44785D01*
X7897Y44511D01*
X8120Y44287D01*
X8357Y44151D01*
Y45248D01*
Y46345D01*
X8120Y46208D01*
X7897Y45985D01*
X7739Y45711D01*
X7725Y45658D01*
X7593D01*
X7568Y45749D01*
X7397Y46046D01*
X7245Y46198D01*
X7245Y46201D01*
X7263Y46237D01*
X7285Y46270D01*
X7289Y46290D01*
X7298Y46308D01*
X7301Y46348D01*
X7309Y46388D01*
Y47100D01*
X7309Y47100D01*
Y47100D01*
X7308Y47105D01*
X7308Y47110D01*
X7305Y47228D01*
X7299Y47252D01*
Y47278D01*
X7264Y47451D01*
X7253Y47479D01*
X7247Y47509D01*
X7172Y47691D01*
X7155Y47716D01*
X7143Y47744D01*
X7034Y47907D01*
X7013Y47929D01*
X6996Y47954D01*
X6856Y48093D01*
X6831Y48110D01*
X6810Y48131D01*
X6646Y48241D01*
X6619Y48252D01*
X6593Y48269D01*
X6411Y48344D01*
X6382Y48350D01*
X6354Y48362D01*
X6161Y48400D01*
X6131D01*
X6101Y48406D01*
X6003Y48406D01*
X2253Y48406D01*
D02*
G37*
G36*
X9939Y43502D02*
X9630D01*
Y42422D01*
X10418D01*
Y43023D01*
X10382Y43207D01*
X10278Y43362D01*
X10123Y43466D01*
X9939Y43502D01*
D02*
G37*
G36*
X8630D02*
X8320D01*
X8137Y43466D01*
X7981Y43362D01*
X7878Y43207D01*
X7841Y43023D01*
Y42422D01*
X8630D01*
Y43502D01*
D02*
G37*
G36*
X-4863D02*
X-5173D01*
Y42422D01*
X-4384D01*
Y43023D01*
X-4421Y43207D01*
X-4525Y43362D01*
X-4680Y43466D01*
X-4863Y43502D01*
D02*
G37*
G36*
X-6173D02*
X-6483D01*
X-6666Y43466D01*
X-6821Y43362D01*
X-6925Y43207D01*
X-6962Y43023D01*
Y42422D01*
X-6173D01*
Y43502D01*
D02*
G37*
G36*
X-19923D02*
X-20233D01*
Y42422D01*
X-19444D01*
Y43023D01*
X-19481Y43207D01*
X-19585Y43362D01*
X-19740Y43466D01*
X-19923Y43502D01*
D02*
G37*
G36*
X-21233D02*
X-21543D01*
X-21726Y43466D01*
X-21881Y43362D01*
X-21985Y43207D01*
X-22022Y43023D01*
Y42422D01*
X-21233D01*
Y43502D01*
D02*
G37*
G36*
X25000D02*
X24690D01*
Y42422D01*
X25479D01*
Y43023D01*
X25442Y43207D01*
X25338Y43362D01*
X25183Y43466D01*
X25000Y43502D01*
D02*
G37*
G36*
X23690D02*
X23380D01*
X23197Y43466D01*
X23042Y43362D01*
X22938Y43207D01*
X22901Y43023D01*
Y42422D01*
X23690D01*
Y43502D01*
D02*
G37*
G36*
X25479Y41422D02*
X24690D01*
Y40341D01*
X25000D01*
X25183Y40377D01*
X25338Y40481D01*
X25442Y40637D01*
X25479Y40820D01*
Y41422D01*
D02*
G37*
G36*
X23690D02*
X22901D01*
Y40820D01*
X22938Y40637D01*
X23008Y40532D01*
X23042Y40481D01*
X23197Y40377D01*
X23380Y40341D01*
X23690D01*
Y41422D01*
D02*
G37*
G36*
X10418Y41422D02*
X9630D01*
Y40341D01*
X9939D01*
X10123Y40377D01*
X10278Y40481D01*
X10382Y40637D01*
X10418Y40820D01*
Y41422D01*
D02*
G37*
G36*
X8630D02*
X7841D01*
Y40820D01*
X7878Y40637D01*
X7981Y40481D01*
X8137Y40377D01*
X8320Y40341D01*
X8630D01*
Y41422D01*
D02*
G37*
G36*
X-4384Y41422D02*
X-5173D01*
Y40341D01*
X-4863D01*
X-4680Y40377D01*
X-4525Y40481D01*
X-4421Y40637D01*
X-4384Y40820D01*
Y41422D01*
D02*
G37*
G36*
X-6173D02*
X-6962D01*
Y40820D01*
X-6925Y40637D01*
X-6821Y40481D01*
X-6666Y40377D01*
X-6483Y40341D01*
X-6173D01*
Y41422D01*
D02*
G37*
G36*
X-19444Y41422D02*
X-20233D01*
Y40341D01*
X-19923D01*
X-19740Y40377D01*
X-19585Y40481D01*
X-19481Y40637D01*
X-19444Y40820D01*
Y41422D01*
D02*
G37*
G36*
X-21233D02*
X-22022D01*
Y40820D01*
X-21985Y40637D01*
X-21881Y40481D01*
X-21726Y40377D01*
X-21543Y40341D01*
X-21233D01*
Y41422D01*
D02*
G37*
G36*
X-21311Y11606D02*
Y11178D01*
X-21000D01*
Y11257D01*
X-21027Y11394D01*
X-21104Y11510D01*
X-21221Y11588D01*
X-21311Y11606D01*
D02*
G37*
G36*
X-1931Y11606D02*
Y11178D01*
X-1619D01*
Y11257D01*
X-1646Y11394D01*
X-1724Y11510D01*
X-1840Y11588D01*
X-1931Y11606D01*
D02*
G37*
G36*
X37105Y11588D02*
Y11160D01*
X37417D01*
Y11239D01*
X37389Y11376D01*
X37312Y11492D01*
X37196Y11570D01*
X37105Y11588D01*
D02*
G37*
G36*
X17648Y11577D02*
Y11149D01*
X17960D01*
Y11228D01*
X17933Y11365D01*
X17855Y11481D01*
X17739Y11559D01*
X17648Y11577D01*
D02*
G37*
G36*
X-5628Y11624D02*
X-6393D01*
X-6521Y11599D01*
X-6629Y11527D01*
X-6701Y11418D01*
X-6727Y11290D01*
Y10015D01*
X-6701Y9888D01*
X-6629Y9779D01*
X-6521Y9707D01*
X-6393Y9682D01*
X-5628D01*
X-5500Y9707D01*
X-5392Y9779D01*
X-5319Y9888D01*
X-5294Y10015D01*
Y10194D01*
X-4933D01*
Y10099D01*
X-4906Y9962D01*
X-4828Y9846D01*
X-4712Y9768D01*
X-4575Y9741D01*
X-3667D01*
X-3530Y9768D01*
X-3414Y9846D01*
X-3343Y9952D01*
X-3276Y9959D01*
X-3209Y9952D01*
X-3138Y9846D01*
X-3022Y9768D01*
X-2931Y9750D01*
Y10678D01*
Y11606D01*
X-3022Y11588D01*
X-3138Y11510D01*
X-3209Y11404D01*
X-3276Y11397D01*
X-3343Y11404D01*
X-3414Y11510D01*
X-3530Y11588D01*
X-3667Y11615D01*
X-4575D01*
X-4712Y11588D01*
X-4828Y11510D01*
X-4906Y11394D01*
X-4933Y11257D01*
Y11112D01*
X-5294D01*
Y11290D01*
X-5319Y11418D01*
X-5392Y11527D01*
X-5500Y11599D01*
X-5628Y11624D01*
D02*
G37*
G36*
X-21000Y10178D02*
X-21311D01*
Y9750D01*
X-21221Y9768D01*
X-21104Y9846D01*
X-21027Y9962D01*
X-21000Y10099D01*
Y10178D01*
D02*
G37*
G36*
X-25069Y11624D02*
X-25833D01*
X-25961Y11599D01*
X-26070Y11527D01*
X-26142Y11418D01*
X-26167Y11290D01*
Y10015D01*
X-26142Y9888D01*
X-26070Y9779D01*
X-25961Y9707D01*
X-25833Y9682D01*
X-25069D01*
X-24941Y9707D01*
X-24832Y9779D01*
X-24760Y9888D01*
X-24735Y10015D01*
Y10194D01*
X-24313D01*
Y10099D01*
X-24286Y9962D01*
X-24208Y9846D01*
X-24092Y9768D01*
X-23955Y9741D01*
X-23048D01*
X-22911Y9768D01*
X-22794Y9846D01*
X-22723Y9952D01*
X-22656Y9959D01*
X-22589Y9952D01*
X-22518Y9846D01*
X-22402Y9768D01*
X-22311Y9750D01*
Y10678D01*
Y11606D01*
X-22402Y11588D01*
X-22518Y11510D01*
X-22589Y11404D01*
X-22656Y11397D01*
X-22723Y11404D01*
X-22794Y11510D01*
X-22911Y11588D01*
X-23048Y11615D01*
X-23955D01*
X-24092Y11588D01*
X-24208Y11510D01*
X-24286Y11394D01*
X-24313Y11257D01*
Y11112D01*
X-24735D01*
Y11290D01*
X-24760Y11418D01*
X-24832Y11527D01*
X-24941Y11599D01*
X-25069Y11624D01*
D02*
G37*
G36*
X-1619Y10178D02*
X-1931D01*
Y9750D01*
X-1840Y9768D01*
X-1724Y9846D01*
X-1646Y9962D01*
X-1619Y10099D01*
Y10178D01*
D02*
G37*
G36*
X37417Y10160D02*
X37105D01*
Y9733D01*
X37196Y9751D01*
X37312Y9828D01*
X37389Y9945D01*
X37417Y10082D01*
Y10160D01*
D02*
G37*
G36*
X33358Y11619D02*
X32593D01*
X32465Y11594D01*
X32357Y11521D01*
X32285Y11413D01*
X32259Y11285D01*
Y10010D01*
X32285Y9883D01*
X32357Y9774D01*
X32465Y9702D01*
X32593Y9676D01*
X33358D01*
X33486Y9702D01*
X33594Y9774D01*
X33667Y9883D01*
X33692Y10010D01*
Y10189D01*
X34103D01*
Y10082D01*
X34130Y9945D01*
X34208Y9828D01*
X34324Y9751D01*
X34461Y9723D01*
X35368D01*
X35506Y9751D01*
X35622Y9828D01*
X35693Y9934D01*
X35760Y9941D01*
X35827Y9934D01*
X35898Y9828D01*
X36014Y9751D01*
X36105Y9733D01*
Y10660D01*
Y11588D01*
X36014Y11570D01*
X35898Y11492D01*
X35827Y11386D01*
X35760Y11379D01*
X35693Y11386D01*
X35622Y11492D01*
X35506Y11570D01*
X35368Y11597D01*
X34461D01*
X34324Y11570D01*
X34208Y11492D01*
X34130Y11376D01*
X34103Y11239D01*
Y11107D01*
X33692D01*
Y11285D01*
X33667Y11413D01*
X33594Y11521D01*
X33486Y11594D01*
X33358Y11619D01*
D02*
G37*
G36*
X17960Y10149D02*
X17648D01*
Y9721D01*
X17739Y9739D01*
X17855Y9817D01*
X17933Y9933D01*
X17960Y10070D01*
Y10149D01*
D02*
G37*
G36*
X13866Y11619D02*
X13101D01*
X12974Y11594D01*
X12865Y11521D01*
X12793Y11413D01*
X12767Y11285D01*
Y10010D01*
X12793Y9883D01*
X12865Y9774D01*
X12974Y9702D01*
X13101Y9676D01*
X13866D01*
X13994Y9702D01*
X14102Y9774D01*
X14175Y9883D01*
X14200Y10010D01*
Y10189D01*
X14646D01*
Y10070D01*
X14674Y9933D01*
X14751Y9817D01*
X14868Y9739D01*
X15005Y9712D01*
X15912D01*
X16049Y9739D01*
X16165Y9817D01*
X16236Y9923D01*
X16303Y9930D01*
X16370Y9923D01*
X16441Y9817D01*
X16558Y9739D01*
X16648Y9721D01*
Y10649D01*
Y11577D01*
X16558Y11559D01*
X16441Y11481D01*
X16370Y11375D01*
X16303Y11368D01*
X16236Y11375D01*
X16165Y11481D01*
X16049Y11559D01*
X15912Y11586D01*
X15005D01*
X14868Y11559D01*
X14751Y11481D01*
X14674Y11365D01*
X14646Y11228D01*
Y11107D01*
X14200D01*
Y11285D01*
X14175Y11413D01*
X14102Y11521D01*
X13994Y11594D01*
X13866Y11619D01*
D02*
G37*
G36*
X-7933Y13404D02*
X-8117D01*
X-8295Y13356D01*
X-8455Y13264D01*
X-8585Y13134D01*
X-8678Y12974D01*
X-8725Y12796D01*
Y12612D01*
X-8678Y12434D01*
X-8585Y12274D01*
X-8484Y12173D01*
Y11609D01*
X-8535Y11599D01*
X-8644Y11527D01*
X-8716Y11418D01*
X-8742Y11290D01*
Y10015D01*
X-8716Y9888D01*
X-8644Y9779D01*
X-8535Y9707D01*
X-8408Y9682D01*
X-7643D01*
X-7515Y9707D01*
X-7407Y9779D01*
X-7334Y9888D01*
X-7309Y10015D01*
Y11290D01*
X-7334Y11418D01*
X-7407Y11527D01*
X-7515Y11599D01*
X-7566Y11609D01*
Y12173D01*
X-7465Y12274D01*
X-7373Y12434D01*
X-7325Y12612D01*
Y12796D01*
X-7373Y12974D01*
X-7465Y13134D01*
X-7595Y13264D01*
X-7755Y13356D01*
X-7933Y13404D01*
D02*
G37*
G36*
X-27374D02*
X-27558D01*
X-27736Y13356D01*
X-27896Y13264D01*
X-28026Y13134D01*
X-28118Y12974D01*
X-28166Y12796D01*
Y12612D01*
X-28118Y12434D01*
X-28026Y12274D01*
X-27925Y12173D01*
Y11609D01*
X-27976Y11599D01*
X-28085Y11527D01*
X-28157Y11418D01*
X-28182Y11290D01*
Y10015D01*
X-28157Y9888D01*
X-28085Y9779D01*
X-27976Y9707D01*
X-27848Y9682D01*
X-27083D01*
X-26956Y9707D01*
X-26847Y9779D01*
X-26775Y9888D01*
X-26750Y10015D01*
Y11290D01*
X-26775Y11418D01*
X-26847Y11527D01*
X-26956Y11599D01*
X-27007Y11609D01*
Y12173D01*
X-26906Y12274D01*
X-26814Y12434D01*
X-26766Y12612D01*
Y12796D01*
X-26814Y12974D01*
X-26906Y13134D01*
X-27036Y13264D01*
X-27196Y13356D01*
X-27374Y13404D01*
D02*
G37*
G36*
X31053Y13399D02*
X30869D01*
X30691Y13351D01*
X30531Y13259D01*
X30401Y13129D01*
X30308Y12969D01*
X30261Y12791D01*
Y12607D01*
X30308Y12429D01*
X30401Y12269D01*
X30502Y12168D01*
Y11604D01*
X30450Y11594D01*
X30342Y11521D01*
X30270Y11413D01*
X30244Y11285D01*
Y10010D01*
X30270Y9883D01*
X30342Y9774D01*
X30450Y9702D01*
X30578Y9676D01*
X31343D01*
X31471Y9702D01*
X31579Y9774D01*
X31652Y9883D01*
X31677Y10010D01*
Y11285D01*
X31652Y11413D01*
X31579Y11521D01*
X31471Y11594D01*
X31420Y11604D01*
Y12168D01*
X31521Y12269D01*
X31613Y12429D01*
X31661Y12607D01*
Y12791D01*
X31613Y12969D01*
X31521Y13129D01*
X31391Y13259D01*
X31231Y13351D01*
X31053Y13399D01*
D02*
G37*
G36*
X11561D02*
X11377D01*
X11199Y13351D01*
X11039Y13259D01*
X10909Y13129D01*
X10817Y12969D01*
X10769Y12791D01*
Y12607D01*
X10817Y12429D01*
X10909Y12269D01*
X11010Y12168D01*
Y11604D01*
X10959Y11594D01*
X10850Y11521D01*
X10778Y11413D01*
X10752Y11285D01*
Y10010D01*
X10778Y9883D01*
X10850Y9774D01*
X10959Y9702D01*
X11086Y9676D01*
X11851D01*
X11979Y9702D01*
X12087Y9774D01*
X12160Y9883D01*
X12185Y10010D01*
Y11285D01*
X12160Y11413D01*
X12087Y11521D01*
X11979Y11594D01*
X11928Y11604D01*
Y12168D01*
X12029Y12269D01*
X12121Y12429D01*
X12169Y12607D01*
Y12791D01*
X12121Y12969D01*
X12029Y13129D01*
X11899Y13259D01*
X11739Y13351D01*
X11561Y13399D01*
D02*
G37*
G36*
X28843Y14036D02*
X28659D01*
X28481Y13988D01*
X28321Y13896D01*
X28191Y13766D01*
X28098Y13606D01*
X28051Y13428D01*
Y13244D01*
X28098Y13066D01*
X28191Y12906D01*
X28292Y12805D01*
Y6542D01*
X28191Y6440D01*
X28098Y6281D01*
X28051Y6103D01*
Y5918D01*
X28098Y5740D01*
X28191Y5581D01*
X28321Y5450D01*
X28481Y5358D01*
X28659Y5310D01*
X28843D01*
X29021Y5358D01*
X29181Y5450D01*
X29311Y5581D01*
X29403Y5740D01*
X29451Y5918D01*
Y6103D01*
X29403Y6281D01*
X29311Y6440D01*
X29210Y6542D01*
Y12805D01*
X29311Y12906D01*
X29403Y13066D01*
X29451Y13244D01*
Y13428D01*
X29403Y13606D01*
X29311Y13766D01*
X29181Y13896D01*
X29021Y13988D01*
X28843Y14036D01*
D02*
G37*
G36*
X9351D02*
X9167D01*
X8989Y13988D01*
X8829Y13896D01*
X8699Y13766D01*
X8607Y13606D01*
X8559Y13428D01*
Y13244D01*
X8607Y13066D01*
X8699Y12906D01*
X8800Y12805D01*
Y6542D01*
X8699Y6440D01*
X8607Y6281D01*
X8559Y6103D01*
Y5918D01*
X8607Y5740D01*
X8699Y5581D01*
X8829Y5450D01*
X8989Y5358D01*
X9167Y5310D01*
X9351D01*
X9529Y5358D01*
X9689Y5450D01*
X9819Y5581D01*
X9911Y5740D01*
X9959Y5918D01*
Y6103D01*
X9911Y6281D01*
X9819Y6440D01*
X9718Y6542D01*
Y12805D01*
X9819Y12906D01*
X9911Y13066D01*
X9959Y13244D01*
Y13428D01*
X9911Y13606D01*
X9819Y13766D01*
X9689Y13896D01*
X9529Y13988D01*
X9351Y14036D01*
D02*
G37*
G36*
X-10187D02*
X-10371D01*
X-10549Y13988D01*
X-10709Y13896D01*
X-10839Y13766D01*
X-10931Y13606D01*
X-10979Y13428D01*
Y13244D01*
X-10931Y13066D01*
X-10839Y12906D01*
X-10738Y12805D01*
Y6542D01*
X-10839Y6440D01*
X-10931Y6281D01*
X-10979Y6103D01*
Y5918D01*
X-10931Y5740D01*
X-10839Y5581D01*
X-10709Y5450D01*
X-10549Y5358D01*
X-10371Y5310D01*
X-10187D01*
X-10009Y5358D01*
X-9849Y5450D01*
X-9719Y5581D01*
X-9627Y5740D01*
X-9579Y5918D01*
Y6103D01*
X-9627Y6281D01*
X-9719Y6440D01*
X-9820Y6542D01*
Y12805D01*
X-9719Y12906D01*
X-9627Y13066D01*
X-9579Y13244D01*
Y13428D01*
X-9627Y13606D01*
X-9719Y13766D01*
X-9849Y13896D01*
X-10009Y13988D01*
X-10187Y14036D01*
D02*
G37*
G36*
X-29584D02*
X-29768D01*
X-29946Y13988D01*
X-30106Y13896D01*
X-30236Y13766D01*
X-30328Y13606D01*
X-30376Y13428D01*
Y13244D01*
X-30328Y13066D01*
X-30236Y12906D01*
X-30135Y12805D01*
Y6542D01*
X-30236Y6440D01*
X-30328Y6281D01*
X-30376Y6103D01*
Y5918D01*
X-30328Y5740D01*
X-30236Y5581D01*
X-30106Y5450D01*
X-29946Y5358D01*
X-29768Y5310D01*
X-29584D01*
X-29406Y5358D01*
X-29246Y5450D01*
X-29116Y5581D01*
X-29024Y5740D01*
X-28976Y5918D01*
Y6103D01*
X-29024Y6281D01*
X-29116Y6440D01*
X-29217Y6542D01*
Y12805D01*
X-29116Y12906D01*
X-29024Y13066D01*
X-28976Y13244D01*
Y13428D01*
X-29024Y13606D01*
X-29116Y13766D01*
X-29246Y13896D01*
X-29406Y13988D01*
X-29584Y14036D01*
D02*
G37*
G36*
X33288Y3682D02*
X33069D01*
X32867Y3599D01*
X32712Y3444D01*
X32628Y3242D01*
Y3023D01*
X32712Y2821D01*
X32821Y2711D01*
Y2308D01*
X32598D01*
X32470Y2283D01*
X32362Y2210D01*
X32289Y2102D01*
X32264Y1974D01*
Y699D01*
X32289Y571D01*
X32362Y463D01*
X32470Y391D01*
X32598Y365D01*
X33363D01*
X33491Y391D01*
X33599Y463D01*
X33671Y571D01*
X33697Y699D01*
Y1974D01*
X33671Y2102D01*
X33599Y2210D01*
X33535Y2253D01*
Y2711D01*
X33645Y2821D01*
X33728Y3023D01*
Y3242D01*
X33645Y3444D01*
X33490Y3599D01*
X33288Y3682D01*
D02*
G37*
G36*
X31275Y3692D02*
X31056D01*
X30854Y3608D01*
X30699Y3454D01*
X30615Y3251D01*
Y3033D01*
X30699Y2830D01*
X30808Y2721D01*
Y2308D01*
X30583D01*
X30455Y2283D01*
X30347Y2210D01*
X30274Y2102D01*
X30249Y1974D01*
Y699D01*
X30274Y571D01*
X30347Y463D01*
X30455Y391D01*
X30583Y365D01*
X31348D01*
X31476Y391D01*
X31584Y463D01*
X31656Y571D01*
X31682Y699D01*
Y1974D01*
X31656Y2102D01*
X31584Y2210D01*
X31522Y2252D01*
Y2721D01*
X31632Y2830D01*
X31715Y3033D01*
Y3251D01*
X31632Y3454D01*
X31477Y3608D01*
X31275Y3692D01*
D02*
G37*
G36*
X-5737Y3680D02*
X-5956D01*
X-6158Y3597D01*
X-6313Y3442D01*
X-6397Y3240D01*
Y3021D01*
X-6313Y2819D01*
X-6203Y2710D01*
Y2306D01*
X-6427D01*
X-6555Y2281D01*
X-6663Y2208D01*
X-6736Y2100D01*
X-6761Y1972D01*
Y697D01*
X-6736Y569D01*
X-6663Y461D01*
X-6555Y389D01*
X-6427Y363D01*
X-5662D01*
X-5534Y389D01*
X-5426Y461D01*
X-5354Y569D01*
X-5328Y697D01*
Y1972D01*
X-5354Y2100D01*
X-5426Y2208D01*
X-5490Y2251D01*
Y2710D01*
X-5380Y2819D01*
X-5297Y3021D01*
Y3240D01*
X-5380Y3442D01*
X-5535Y3597D01*
X-5737Y3680D01*
D02*
G37*
G36*
X-7750Y3690D02*
X-7969D01*
X-8171Y3606D01*
X-8326Y3452D01*
X-8410Y3249D01*
Y3031D01*
X-8326Y2828D01*
X-8216Y2719D01*
Y2306D01*
X-8442D01*
X-8570Y2281D01*
X-8678Y2208D01*
X-8751Y2100D01*
X-8776Y1972D01*
Y697D01*
X-8751Y569D01*
X-8678Y461D01*
X-8570Y389D01*
X-8442Y363D01*
X-7677D01*
X-7549Y389D01*
X-7441Y461D01*
X-7369Y569D01*
X-7343Y697D01*
Y1972D01*
X-7369Y2100D01*
X-7441Y2208D01*
X-7503Y2250D01*
Y2719D01*
X-7393Y2828D01*
X-7310Y3031D01*
Y3249D01*
X-7393Y3452D01*
X-7548Y3606D01*
X-7750Y3690D01*
D02*
G37*
G36*
X-25144Y3661D02*
X-25362D01*
X-25565Y3577D01*
X-25719Y3423D01*
X-25803Y3220D01*
Y3002D01*
X-25719Y2799D01*
X-25610Y2690D01*
Y2287D01*
X-25833D01*
X-25961Y2261D01*
X-26070Y2189D01*
X-26142Y2081D01*
X-26167Y1953D01*
Y678D01*
X-26142Y550D01*
X-26070Y442D01*
X-25961Y369D01*
X-25833Y344D01*
X-25069D01*
X-24941Y369D01*
X-24832Y442D01*
X-24760Y550D01*
X-24735Y678D01*
Y1953D01*
X-24760Y2081D01*
X-24832Y2189D01*
X-24896Y2232D01*
Y2690D01*
X-24787Y2799D01*
X-24703Y3002D01*
Y3220D01*
X-24787Y3423D01*
X-24941Y3577D01*
X-25144Y3661D01*
D02*
G37*
G36*
X-27157Y3671D02*
X-27375D01*
X-27578Y3587D01*
X-27732Y3432D01*
X-27816Y3230D01*
Y3011D01*
X-27732Y2809D01*
X-27623Y2700D01*
Y2287D01*
X-27848D01*
X-27976Y2261D01*
X-28085Y2189D01*
X-28157Y2081D01*
X-28182Y1953D01*
Y678D01*
X-28157Y550D01*
X-28085Y442D01*
X-27976Y369D01*
X-27848Y344D01*
X-27083D01*
X-26956Y369D01*
X-26847Y442D01*
X-26775Y550D01*
X-26750Y678D01*
Y1953D01*
X-26775Y2081D01*
X-26847Y2189D01*
X-26909Y2230D01*
Y2700D01*
X-26800Y2809D01*
X-26716Y3011D01*
Y3230D01*
X-26800Y3432D01*
X-26954Y3587D01*
X-27157Y3671D01*
D02*
G37*
G36*
X13793Y3652D02*
X13575D01*
X13372Y3569D01*
X13218Y3414D01*
X13134Y3212D01*
Y2993D01*
X13218Y2791D01*
X13327Y2682D01*
Y2278D01*
X13103D01*
X12976Y2253D01*
X12867Y2180D01*
X12795Y2072D01*
X12769Y1944D01*
Y669D01*
X12795Y541D01*
X12867Y433D01*
X12976Y361D01*
X13103Y335D01*
X13868D01*
X13996Y361D01*
X14105Y433D01*
X14177Y541D01*
X14202Y669D01*
Y1944D01*
X14177Y2072D01*
X14105Y2180D01*
X14041Y2223D01*
Y2682D01*
X14150Y2791D01*
X14234Y2993D01*
Y3212D01*
X14150Y3414D01*
X13995Y3569D01*
X13793Y3652D01*
D02*
G37*
G36*
X11780Y3662D02*
X11562D01*
X11359Y3578D01*
X11205Y3424D01*
X11121Y3221D01*
Y3003D01*
X11205Y2800D01*
X11314Y2691D01*
Y2278D01*
X11088D01*
X10961Y2253D01*
X10852Y2180D01*
X10780Y2072D01*
X10754Y1944D01*
Y669D01*
X10780Y541D01*
X10852Y433D01*
X10961Y361D01*
X11088Y335D01*
X11853D01*
X11981Y361D01*
X12090Y433D01*
X12162Y541D01*
X12187Y669D01*
Y1944D01*
X12162Y2072D01*
X12090Y2180D01*
X12028Y2222D01*
Y2691D01*
X12137Y2800D01*
X12221Y3003D01*
Y3221D01*
X12137Y3424D01*
X11982Y3578D01*
X11780Y3662D01*
D02*
G37*
G36*
X36012Y-5170D02*
Y-6400D01*
X37242D01*
X37212Y-6342D01*
X36893Y-5902D01*
X36509Y-5518D01*
X36070Y-5199D01*
X36012Y-5170D01*
D02*
G37*
G36*
X32512Y-5170D02*
X32453Y-5199D01*
X32014Y-5518D01*
X31630Y-5902D01*
X31311Y-6342D01*
X31281Y-6400D01*
X32512D01*
Y-5170D01*
D02*
G37*
G36*
X-32550Y-5420D02*
Y-6650D01*
X-31320D01*
X-31349Y-6592D01*
X-31669Y-6152D01*
X-32052Y-5768D01*
X-32492Y-5449D01*
X-32550Y-5420D01*
D02*
G37*
G36*
X-36050Y-5420D02*
X-36108Y-5449D01*
X-36548Y-5768D01*
X-36932Y-6152D01*
X-37251Y-6592D01*
X-37280Y-6650D01*
X-36050D01*
Y-5420D01*
D02*
G37*
G36*
X-2747Y-4929D02*
X-3512D01*
X-3640Y-4954D01*
X-3748Y-5026D01*
X-3820Y-5135D01*
X-3846Y-5263D01*
Y-6538D01*
X-3820Y-6665D01*
X-3748Y-6774D01*
X-3640Y-6846D01*
X-3537Y-6866D01*
Y-7235D01*
X-3640Y-7256D01*
X-3748Y-7328D01*
X-3820Y-7436D01*
X-3846Y-7564D01*
Y-8839D01*
X-3820Y-8967D01*
X-3748Y-9075D01*
X-3696Y-9110D01*
X-3652Y-9206D01*
X-3665Y-9267D01*
X-3724Y-9343D01*
X-3724Y-9343D01*
X-3935Y-9618D01*
X-4057Y-9913D01*
X-4197D01*
X-4279Y-9929D01*
X-4287Y-9935D01*
X-4389Y-9850D01*
X-4372Y-9809D01*
Y-9590D01*
X-4456Y-9388D01*
X-4561Y-9283D01*
Y-9099D01*
X-4526Y-9075D01*
X-4453Y-8967D01*
X-4428Y-8839D01*
Y-7564D01*
X-4453Y-7436D01*
X-4526Y-7328D01*
X-4634Y-7256D01*
X-4762Y-7230D01*
X-5527D01*
X-5655Y-7256D01*
X-5763Y-7328D01*
X-5835Y-7436D01*
X-5861Y-7564D01*
Y-8839D01*
X-5835Y-8967D01*
X-5763Y-9075D01*
X-5655Y-9148D01*
X-5527Y-9173D01*
X-5337D01*
X-5300Y-9300D01*
X-5389Y-9388D01*
X-5472Y-9590D01*
Y-9809D01*
X-5467Y-9823D01*
X-5494Y-9866D01*
X-5562Y-9924D01*
X-5617Y-9913D01*
X-6707D01*
X-6757Y-9871D01*
Y-9151D01*
X-6660D01*
X-6523Y-9124D01*
X-6407Y-9046D01*
X-6329Y-8930D01*
X-6302Y-8793D01*
Y-7635D01*
X-6329Y-7498D01*
X-6407Y-7382D01*
X-6523Y-7304D01*
X-6660Y-7277D01*
X-6749D01*
Y-6871D01*
X-6752Y-6856D01*
X-6708Y-6634D01*
X-6573Y-6433D01*
X-6372Y-6298D01*
X-6150Y-6254D01*
X-6134Y-6257D01*
X-5861D01*
Y-6538D01*
X-5835Y-6665D01*
X-5763Y-6774D01*
X-5655Y-6846D01*
X-5527Y-6871D01*
X-4762D01*
X-4634Y-6846D01*
X-4526Y-6774D01*
X-4453Y-6665D01*
X-4428Y-6538D01*
Y-5263D01*
X-4453Y-5135D01*
X-4526Y-5026D01*
X-4634Y-4954D01*
X-4762Y-4929D01*
X-5527D01*
X-5655Y-4954D01*
X-5763Y-5026D01*
X-5835Y-5135D01*
X-5861Y-5263D01*
Y-5543D01*
X-6134D01*
Y-5539D01*
X-6479Y-5584D01*
X-6801Y-5717D01*
X-7077Y-5929D01*
X-7289Y-6205D01*
X-7422Y-6527D01*
X-7467Y-6871D01*
X-7463D01*
Y-7277D01*
X-7568D01*
X-7705Y-7304D01*
X-7821Y-7382D01*
X-7892Y-7488D01*
X-7959Y-7495D01*
X-8026Y-7488D01*
X-8097Y-7382D01*
X-8213Y-7304D01*
X-8304Y-7286D01*
Y-8214D01*
Y-9142D01*
X-8213Y-9124D01*
X-8097Y-9046D01*
X-8026Y-8940D01*
X-7959Y-8933D01*
X-7892Y-8940D01*
X-7821Y-9046D01*
X-7705Y-9124D01*
X-7568Y-9151D01*
X-7471D01*
Y-9988D01*
X-7468Y-10004D01*
X-7447Y-10163D01*
X-7379Y-10326D01*
X-7272Y-10466D01*
X-7132Y-10573D01*
X-7010Y-10624D01*
X-6964Y-10655D01*
X-6920Y-10775D01*
X-6921Y-10777D01*
Y-11137D01*
X-7006Y-11273D01*
X-7012Y-11277D01*
X-7191Y-11351D01*
X-7347Y-11470D01*
X-7466Y-11626D01*
X-7541Y-11807D01*
X-7566Y-11995D01*
X-7567Y-12001D01*
Y-13068D01*
X-7568D01*
X-7705Y-13095D01*
X-7821Y-13173D01*
X-7892Y-13279D01*
X-7959Y-13286D01*
X-8026Y-13279D01*
X-8097Y-13173D01*
X-8213Y-13095D01*
X-8304Y-13077D01*
Y-14005D01*
X-8804D01*
Y-14505D01*
X-9616D01*
Y-14584D01*
X-9589Y-14721D01*
X-9511Y-14837D01*
X-9395Y-14914D01*
X-9258Y-14942D01*
X-9240D01*
X-9181Y-15069D01*
X-9262Y-15175D01*
X-9318Y-15308D01*
X-9387D01*
X-9503Y-15331D01*
X-9521Y-15330D01*
X-9636Y-15262D01*
X-9646Y-15129D01*
X-9754Y-14679D01*
X-9931Y-14252D01*
X-10173Y-13857D01*
X-10474Y-13505D01*
X-10474Y-13506D01*
X-11539Y-12441D01*
X-11536Y-12438D01*
X-11841Y-12203D01*
X-12197Y-12056D01*
X-12579Y-12006D01*
Y-12011D01*
X-12579Y-12011D01*
X-13424D01*
Y-12009D01*
X-13820Y-12048D01*
X-14201Y-12163D01*
X-14552Y-12351D01*
X-14771Y-12530D01*
X-14774Y-12533D01*
X-14774Y-12533D01*
X-14860Y-12603D01*
X-14860Y-12603D01*
X-14868Y-12612D01*
X-14868Y-12612D01*
X-15114Y-12911D01*
X-15182Y-13039D01*
X-15420D01*
X-15548Y-13064D01*
X-15656Y-13136D01*
X-15728Y-13245D01*
X-15754Y-13373D01*
Y-14648D01*
X-15728Y-14775D01*
X-15656Y-14884D01*
X-15548Y-14956D01*
X-15420Y-14981D01*
X-14655D01*
X-14527Y-14956D01*
X-14419Y-14884D01*
X-14346Y-14775D01*
X-14321Y-14648D01*
Y-13373D01*
X-14336Y-13298D01*
X-14290Y-13190D01*
X-14281Y-13181D01*
X-14187Y-13102D01*
X-14033Y-12984D01*
X-13739Y-12862D01*
X-13441Y-12823D01*
X-13424Y-12826D01*
X-12579D01*
X-12576Y-12826D01*
X-12409Y-12848D01*
X-12251Y-12913D01*
X-12117Y-13016D01*
X-12116Y-13018D01*
X-11051Y-14083D01*
X-11036Y-14093D01*
X-10782Y-14403D01*
X-10584Y-14772D01*
X-10462Y-15173D01*
X-10430Y-15504D01*
X-10552Y-15561D01*
X-10667Y-15446D01*
X-10869Y-15362D01*
X-11025D01*
X-11284Y-15103D01*
Y-14582D01*
X-11311Y-14446D01*
X-11389Y-14330D01*
X-11961Y-13758D01*
X-12077Y-13680D01*
X-12213Y-13653D01*
X-12306D01*
Y-13373D01*
X-12331Y-13245D01*
X-12404Y-13136D01*
X-12512Y-13064D01*
X-12640Y-13039D01*
X-13405D01*
X-13533Y-13064D01*
X-13641Y-13136D01*
X-13713Y-13245D01*
X-13739Y-13373D01*
Y-14648D01*
X-13713Y-14775D01*
X-13641Y-14884D01*
X-13533Y-14956D01*
X-13405Y-14981D01*
X-12640D01*
X-12512Y-14956D01*
X-12404Y-14884D01*
X-12331Y-14775D01*
X-12306Y-14648D01*
Y-14588D01*
X-12189Y-14539D01*
X-11998Y-14730D01*
Y-15251D01*
X-11971Y-15388D01*
X-11893Y-15503D01*
X-11529Y-15868D01*
Y-16022D01*
X-11463Y-16179D01*
X-11512Y-16318D01*
X-11613Y-16419D01*
X-12306D01*
Y-15642D01*
X-12331Y-15514D01*
X-12404Y-15406D01*
X-12512Y-15334D01*
X-12640Y-15308D01*
X-13405D01*
X-13533Y-15334D01*
X-13641Y-15406D01*
X-13713Y-15514D01*
X-13739Y-15642D01*
Y-16917D01*
X-13713Y-17045D01*
X-13641Y-17153D01*
X-13533Y-17226D01*
X-13481Y-17236D01*
Y-17613D01*
X-13533Y-17623D01*
X-13641Y-17695D01*
X-13713Y-17804D01*
X-13739Y-17931D01*
Y-19206D01*
X-13713Y-19334D01*
X-13641Y-19443D01*
X-13533Y-19515D01*
X-13405Y-19540D01*
X-12640D01*
X-12512Y-19515D01*
X-12404Y-19443D01*
X-12331Y-19334D01*
X-12306Y-19206D01*
Y-17931D01*
X-12331Y-17804D01*
X-12404Y-17695D01*
X-12512Y-17623D01*
X-12564Y-17613D01*
Y-17236D01*
X-12512Y-17226D01*
X-12404Y-17153D01*
X-12390Y-17133D01*
X-11630D01*
X-11512Y-17251D01*
X-11310Y-17335D01*
X-11091D01*
X-10889Y-17251D01*
X-10734Y-17096D01*
X-10650Y-16894D01*
Y-16675D01*
X-10716Y-16518D01*
X-10667Y-16379D01*
X-10554Y-16265D01*
X-10427Y-16318D01*
Y-19629D01*
X-10427D01*
X-10394Y-19963D01*
X-10297Y-20283D01*
X-10139Y-20578D01*
X-9927Y-20837D01*
X-9668Y-21049D01*
X-9373Y-21207D01*
X-9053Y-21304D01*
X-8720Y-21337D01*
Y-21337D01*
X-5887D01*
Y-21337D01*
X-5884Y-21337D01*
X-37D01*
X-37Y-21337D01*
X279Y-21305D01*
X584Y-21213D01*
X865Y-21063D01*
X1111Y-20861D01*
X1313Y-20615D01*
X1463Y-20334D01*
X1555Y-20029D01*
X1587Y-19713D01*
X1587Y-19713D01*
Y-15369D01*
X1591Y-15339D01*
X1587D01*
Y-10588D01*
X1758D01*
X1895Y-10561D01*
X2007Y-10486D01*
X2240Y-10677D01*
X2602Y-10870D01*
X2994Y-10989D01*
X3401Y-11029D01*
Y-11027D01*
X4384D01*
X4425Y-11147D01*
X4400Y-11166D01*
X4251Y-11361D01*
X4156Y-11588D01*
X4124Y-11832D01*
X4126D01*
Y-12308D01*
X4120Y-12309D01*
X4026Y-12372D01*
X3963Y-12467D01*
X3941Y-12578D01*
Y-14578D01*
X3963Y-14689D01*
X4026Y-14783D01*
X4120Y-14846D01*
X4231Y-14868D01*
X4741D01*
X4853Y-14846D01*
X4947Y-14783D01*
X5010Y-14689D01*
X5032Y-14578D01*
Y-12578D01*
X5010Y-12467D01*
X4947Y-12372D01*
X4853Y-12309D01*
X4839Y-12307D01*
Y-11832D01*
X4841D01*
X4858Y-11746D01*
X4907Y-11672D01*
X4980Y-11623D01*
X5067Y-11606D01*
Y-11605D01*
X7149D01*
X7191Y-11719D01*
X7190Y-11732D01*
X6975Y-11897D01*
X6806Y-12117D01*
X6732Y-12295D01*
X6660Y-12309D01*
X6566Y-12372D01*
X6503Y-12467D01*
X6481Y-12578D01*
Y-14578D01*
X6503Y-14689D01*
X6566Y-14783D01*
X6660Y-14846D01*
X6666Y-14847D01*
Y-17005D01*
X6539Y-17091D01*
X6475Y-17078D01*
X5501D01*
X5453Y-16961D01*
X6009Y-16405D01*
X6086Y-16289D01*
X6113Y-16153D01*
Y-14848D01*
X6123Y-14846D01*
X6217Y-14783D01*
X6280Y-14689D01*
X6302Y-14578D01*
Y-12578D01*
X6280Y-12467D01*
X6217Y-12372D01*
X6123Y-12309D01*
X6011Y-12287D01*
X5501D01*
X5390Y-12309D01*
X5296Y-12372D01*
X5233Y-12467D01*
X5211Y-12578D01*
Y-14578D01*
X5233Y-14689D01*
X5296Y-14783D01*
X5390Y-14846D01*
X5399Y-14848D01*
Y-16005D01*
X4723Y-16681D01*
X4606Y-16632D01*
Y-16460D01*
X4581Y-16333D01*
X4509Y-16225D01*
X4402Y-16154D01*
X4275Y-16128D01*
X4200D01*
Y-16835D01*
X3700D01*
Y-17335D01*
X2818D01*
X2819Y-17337D01*
X2890Y-17444D01*
X2998Y-17516D01*
X3125Y-17541D01*
X3918D01*
X3967Y-17658D01*
X3877Y-17749D01*
X3799Y-17864D01*
X3772Y-18001D01*
Y-18028D01*
X3125D01*
X2998Y-18054D01*
X2890Y-18125D01*
X2819Y-18233D01*
X2793Y-18360D01*
Y-19110D01*
X2819Y-19237D01*
X2890Y-19344D01*
X2998Y-19416D01*
X3125Y-19441D01*
X4275D01*
X4402Y-19416D01*
X4509Y-19344D01*
X4554Y-19277D01*
X4699Y-19243D01*
X5133Y-19676D01*
Y-19979D01*
X5107D01*
X4980Y-20004D01*
X4871Y-20077D01*
X4799Y-20185D01*
X4774Y-20313D01*
Y-21588D01*
X4799Y-21715D01*
X4871Y-21824D01*
X4980Y-21896D01*
X5107Y-21922D01*
X5133D01*
Y-22110D01*
X5131D01*
X5167Y-22387D01*
X5274Y-22646D01*
X5445Y-22868D01*
X5445Y-22868D01*
X5523Y-22963D01*
X5591Y-23051D01*
X5681Y-23268D01*
X5710Y-23496D01*
X5709Y-23501D01*
Y-27906D01*
X5707D01*
X5743Y-28359D01*
X5849Y-28801D01*
X6023Y-29222D01*
X6261Y-29610D01*
X6556Y-29955D01*
X6558Y-29954D01*
X6790Y-30186D01*
X6779Y-30290D01*
X6660Y-30343D01*
X6482Y-30197D01*
X6473Y-30183D01*
X4397Y-28107D01*
X4397Y-28107D01*
X3117Y-26828D01*
X3117Y-26828D01*
X2140Y-25850D01*
X2050Y-25760D01*
X1973Y-25665D01*
X1889Y-25554D01*
X1788Y-25312D01*
X1770Y-25176D01*
X1762Y-25053D01*
X1762D01*
X1713Y-24553D01*
X1567Y-24073D01*
X1331Y-23630D01*
X1012Y-23242D01*
X1008Y-23246D01*
X1008Y-23246D01*
X179Y-22417D01*
X181Y-22415D01*
X-165Y-22120D01*
X-553Y-21882D01*
X-973Y-21708D01*
X-1415Y-21602D01*
X-1869Y-21566D01*
Y-21568D01*
X-11992D01*
X-12007Y-21571D01*
X-12418Y-21531D01*
X-12829Y-21406D01*
X-13207Y-21204D01*
X-13526Y-20942D01*
X-13535Y-20929D01*
X-14116Y-20348D01*
X-14126Y-20341D01*
X-14359Y-20058D01*
X-14537Y-19724D01*
X-14576Y-19596D01*
X-14527Y-19515D01*
X-14419Y-19443D01*
X-14346Y-19334D01*
X-14321Y-19206D01*
Y-17931D01*
X-14346Y-17804D01*
X-14419Y-17695D01*
X-14527Y-17623D01*
X-14655Y-17598D01*
X-15420D01*
X-15548Y-17623D01*
X-15656Y-17695D01*
X-15728Y-17804D01*
X-15754Y-17931D01*
Y-19206D01*
X-15728Y-19334D01*
X-15656Y-19443D01*
X-15548Y-19515D01*
X-15420Y-19540D01*
X-15329D01*
X-15266Y-19802D01*
X-15108Y-20185D01*
X-14891Y-20538D01*
X-14622Y-20853D01*
X-14621Y-20852D01*
X-14040Y-21434D01*
X-14041Y-21435D01*
X-13696Y-21730D01*
X-13308Y-21968D01*
X-12887Y-22142D01*
X-12445Y-22248D01*
X-11992Y-22284D01*
Y-22282D01*
X-9635D01*
X-9623Y-22409D01*
X-9925Y-22469D01*
X-10253Y-22605D01*
X-10547Y-22802D01*
X-10798Y-23053D01*
X-10995Y-23347D01*
X-11131Y-23675D01*
X-11200Y-24023D01*
Y-24377D01*
X-11131Y-24725D01*
X-10995Y-25053D01*
X-10798Y-25347D01*
X-10547Y-25598D01*
X-10253Y-25795D01*
X-9925Y-25931D01*
X-9577Y-26000D01*
X-9223D01*
X-8875Y-25931D01*
X-8547Y-25795D01*
X-8253Y-25598D01*
X-8002Y-25347D01*
X-7805Y-25053D01*
X-7669Y-24725D01*
X-7600Y-24377D01*
Y-24023D01*
X-7669Y-23675D01*
X-7805Y-23347D01*
X-8002Y-23053D01*
X-8253Y-22802D01*
X-8547Y-22605D01*
X-8875Y-22469D01*
X-9177Y-22409D01*
X-9165Y-22282D01*
X-6513D01*
X-6461Y-22409D01*
X-6564Y-22512D01*
X-6648Y-22715D01*
Y-22933D01*
X-6564Y-23136D01*
X-6409Y-23290D01*
X-6207Y-23374D01*
X-6115D01*
X-5983Y-23622D01*
X-5887Y-23938D01*
X-5855Y-24260D01*
X-5857Y-24267D01*
Y-42552D01*
X-5853Y-42570D01*
X-5898Y-42908D01*
X-6035Y-43240D01*
X-6178Y-43426D01*
X-6261Y-43519D01*
X-6261Y-43519D01*
X-6526Y-43842D01*
X-6723Y-44210D01*
X-6804Y-44477D01*
X-6849Y-44486D01*
X-6939Y-44546D01*
X-6999Y-44636D01*
X-7020Y-44742D01*
Y-45060D01*
X-7108Y-45096D01*
X-7349Y-45281D01*
X-7347Y-45284D01*
X-7602Y-45539D01*
X-7602Y-45539D01*
X-7747Y-45650D01*
X-7915Y-45719D01*
X-8073Y-45740D01*
X-8200Y-45682D01*
Y-45300D01*
X-9800D01*
Y-46900D01*
X-8200D01*
Y-46516D01*
X-8095Y-46462D01*
Y-46462D01*
X-7729Y-46414D01*
X-7387Y-46272D01*
X-7095Y-46048D01*
X-7089Y-46044D01*
X-6939Y-46054D01*
X-6849Y-46114D01*
X-6742Y-46135D01*
X-6307D01*
X-6201Y-46114D01*
X-6111Y-46054D01*
X-6051Y-45964D01*
X-6030Y-45857D01*
Y-44742D01*
X-6051Y-44636D01*
X-6091Y-44575D01*
X-5984Y-44316D01*
X-5834Y-44121D01*
X-5751Y-44028D01*
X-5751Y-44028D01*
X-5492Y-43712D01*
X-5299Y-43351D01*
X-5180Y-42959D01*
X-5140Y-42552D01*
X-5143D01*
Y-41845D01*
X-5016Y-41820D01*
X-4865Y-42186D01*
X-4627Y-42573D01*
X-4332Y-42919D01*
X-4330Y-42918D01*
X-2440Y-44808D01*
X-2441Y-44810D01*
X-2095Y-45105D01*
X-1977Y-45178D01*
X-2011Y-45300D01*
X-3170D01*
Y-46900D01*
X-1570D01*
Y-46457D01*
X-810D01*
Y-46458D01*
X-482Y-46426D01*
X-167Y-46330D01*
X124Y-46175D01*
X172Y-46135D01*
X291D01*
X398Y-46114D01*
X488Y-46054D01*
X548Y-45964D01*
X569Y-45857D01*
Y-44742D01*
X548Y-44636D01*
X488Y-44546D01*
X398Y-44486D01*
X291Y-44465D01*
X-144D01*
X-250Y-44486D01*
X-340Y-44546D01*
X-400Y-44636D01*
X-421Y-44742D01*
Y-44850D01*
X-516Y-44936D01*
X-818Y-44906D01*
X-1229Y-44781D01*
X-1607Y-44579D01*
X-1926Y-44317D01*
X-1935Y-44304D01*
X-3826Y-42413D01*
X-3839Y-42404D01*
X-4101Y-42085D01*
X-4303Y-41707D01*
X-4428Y-41296D01*
X-4468Y-40885D01*
X-4465Y-40869D01*
Y-28503D01*
X-4465Y-28501D01*
X-4440Y-28310D01*
X-4366Y-28130D01*
X-4247Y-27975D01*
X-4092Y-27856D01*
X-3912Y-27782D01*
X-3721Y-27757D01*
X-3719Y-27757D01*
X-213D01*
X-104Y-27866D01*
X99Y-27950D01*
X317D01*
X520Y-27866D01*
X674Y-27712D01*
X758Y-27509D01*
Y-27291D01*
X678Y-27099D01*
X697Y-27060D01*
X754Y-26989D01*
X1074Y-27086D01*
X1453Y-27288D01*
X1772Y-27550D01*
X1781Y-27564D01*
X2101Y-27883D01*
Y-28038D01*
X2184Y-28240D01*
X2339Y-28395D01*
X2541Y-28479D01*
X2760D01*
X2962Y-28395D01*
X3117Y-28240D01*
X3183Y-28082D01*
X3318Y-28037D01*
X3892Y-28612D01*
X3892Y-28612D01*
X5968Y-30688D01*
X5967Y-30689D01*
X6313Y-30985D01*
X6701Y-31222D01*
X7121Y-31397D01*
X7152Y-31404D01*
X7137Y-31531D01*
X6000D01*
X5984Y-31534D01*
X5573Y-31494D01*
X5163Y-31369D01*
X4784Y-31167D01*
X4465Y-30905D01*
X4456Y-30892D01*
X2737Y-29172D01*
X2738Y-29171D01*
X2392Y-28875D01*
X2004Y-28638D01*
X1584Y-28464D01*
X1142Y-28357D01*
X904Y-28339D01*
X779Y-28214D01*
X577Y-28131D01*
X359D01*
X156Y-28214D01*
X2Y-28369D01*
X-82Y-28571D01*
Y-28790D01*
X2Y-28992D01*
X156Y-29147D01*
X359Y-29231D01*
X577D01*
X779Y-29147D01*
X875Y-29051D01*
X1115Y-29075D01*
X1526Y-29199D01*
X1904Y-29401D01*
X2169Y-29619D01*
X2103Y-29729D01*
X1820Y-29612D01*
X1472Y-29566D01*
Y-29566D01*
X1345Y-29567D01*
X1239Y-29461D01*
X1037Y-29378D01*
X818D01*
X616Y-29461D01*
X461Y-29616D01*
X378Y-29818D01*
Y-30037D01*
X461Y-30239D01*
X616Y-30394D01*
X818Y-30478D01*
X1037D01*
X1239Y-30394D01*
X1349Y-30284D01*
X1472D01*
X1488Y-30281D01*
X1714Y-30326D01*
X1905Y-30454D01*
X1914Y-30468D01*
X3594Y-32148D01*
X3593Y-32149D01*
X3939Y-32445D01*
X4327Y-32682D01*
X4747Y-32857D01*
X5189Y-32963D01*
X5643Y-32998D01*
Y-32996D01*
X8919D01*
Y-32998D01*
X9332Y-32965D01*
X9734Y-32868D01*
X10117Y-32710D01*
X10470Y-32494D01*
X10779Y-32230D01*
X10785Y-32225D01*
X10870Y-32142D01*
D01*
X10875Y-32136D01*
X11126Y-31830D01*
X11316Y-31474D01*
X11433Y-31087D01*
X11463Y-30789D01*
X11473Y-30685D01*
X11473D01*
X11474Y-30667D01*
D01*
X11464Y-30562D01*
X11464Y-30562D01*
X11464Y-30559D01*
X11430Y-30215D01*
X11298Y-29781D01*
X11084Y-29380D01*
X10796Y-29030D01*
X10793Y-29033D01*
X10793Y-29033D01*
X10292Y-28531D01*
X10278Y-28522D01*
X10016Y-28203D01*
X9814Y-27825D01*
X9689Y-27414D01*
X9649Y-27003D01*
X9652Y-26987D01*
Y-26318D01*
X9659Y-26282D01*
Y-25116D01*
X9786Y-25082D01*
X9963Y-25347D01*
X10198Y-25582D01*
X10199Y-25583D01*
X10220Y-25639D01*
X10231Y-25720D01*
X10216Y-25746D01*
X10200Y-25771D01*
X10198Y-25781D01*
X10193Y-25790D01*
X10190Y-25820D01*
X10184Y-25849D01*
X10184Y-26377D01*
X10184Y-26477D01*
X10188Y-26497D01*
Y-26517D01*
X10227Y-26715D01*
X10235Y-26733D01*
X10239Y-26753D01*
X10316Y-26939D01*
X10327Y-26956D01*
X10335Y-26975D01*
X10447Y-27142D01*
X10461Y-27156D01*
X10472Y-27173D01*
X10615Y-27316D01*
X10632Y-27327D01*
X10646Y-27341D01*
X10814Y-27453D01*
X10832Y-27461D01*
X10849Y-27472D01*
X11035Y-27549D01*
X11055Y-27553D01*
X11073Y-27561D01*
X11271Y-27600D01*
X11291D01*
X11311Y-27604D01*
X11412Y-27604D01*
X11412Y-27604D01*
X11412Y-27604D01*
X16290Y-27604D01*
X16310Y-27600D01*
X16330D01*
X16484Y-27569D01*
X16502Y-27562D01*
X16522Y-27558D01*
X16667Y-27498D01*
X16683Y-27487D01*
X16702Y-27479D01*
X16832Y-27392D01*
X16847Y-27378D01*
X16863Y-27367D01*
X16974Y-27256D01*
X16985Y-27239D01*
X16999Y-27225D01*
X17087Y-27094D01*
X17094Y-27076D01*
X17105Y-27059D01*
X17165Y-26914D01*
X17169Y-26895D01*
X17177Y-26876D01*
X17208Y-26722D01*
Y-26702D01*
X17212Y-26682D01*
X17212Y-26604D01*
X17212Y-26604D01*
Y-26320D01*
X17898D01*
X18051Y-26290D01*
X18181Y-26203D01*
X18268Y-26073D01*
X18298Y-25920D01*
Y-24765D01*
X18268Y-24612D01*
X18181Y-24482D01*
X18051Y-24395D01*
X17898Y-24365D01*
X17212D01*
Y-23745D01*
X17212Y-23673D01*
X17208Y-23653D01*
Y-23633D01*
X17179Y-23491D01*
X17172Y-23473D01*
X17168Y-23453D01*
X17113Y-23319D01*
X17101Y-23303D01*
X17094Y-23284D01*
X17013Y-23164D01*
X16999Y-23150D01*
X16988Y-23133D01*
X16886Y-23031D01*
X16869Y-23020D01*
X16855Y-23006D01*
X16735Y-22925D01*
X16716Y-22918D01*
X16700Y-22906D01*
X16566Y-22851D01*
X16546Y-22847D01*
X16528Y-22840D01*
X16431Y-22820D01*
X16419D01*
X16407Y-22817D01*
X16290Y-22808D01*
X16282Y-22809D01*
X16274Y-22807D01*
X16274D01*
X16274Y-22807D01*
X12885D01*
X12856Y-22813D01*
X12826Y-22816D01*
X12817Y-22821D01*
X12807Y-22823D01*
X12782Y-22840D01*
X12756Y-22854D01*
X12749Y-22862D01*
X12741Y-22867D01*
X12645Y-22888D01*
X12592Y-22885D01*
X12509Y-22802D01*
X12361Y-22703D01*
X12400Y-22576D01*
X17019D01*
X17035Y-22573D01*
X17446Y-22614D01*
X17856Y-22738D01*
X18235Y-22940D01*
X18437Y-23106D01*
Y-23245D01*
X18521Y-23447D01*
X18676Y-23601D01*
X18878Y-23685D01*
X19096D01*
X19299Y-23601D01*
X19453Y-23447D01*
X19537Y-23245D01*
Y-23026D01*
X19453Y-22824D01*
X19299Y-22669D01*
X19096Y-22585D01*
X18923D01*
X18723Y-22414D01*
X18335Y-22176D01*
X17915Y-22002D01*
X17473Y-21896D01*
X17019Y-21860D01*
Y-21862D01*
X12046D01*
X11978Y-21735D01*
X12008Y-21690D01*
X12034Y-21563D01*
Y-21425D01*
X11317D01*
Y-20925D01*
X10817D01*
Y-19975D01*
X10792Y-19969D01*
X10695Y-19902D01*
Y-19474D01*
X10759Y-19461D01*
X10867Y-19389D01*
X10939Y-19282D01*
X10964Y-19155D01*
Y-18005D01*
X10939Y-17878D01*
X10867Y-17770D01*
X10759Y-17699D01*
X10632Y-17673D01*
X9882D01*
X9756Y-17699D01*
X9648Y-17770D01*
X9576Y-17878D01*
X9551Y-18005D01*
Y-19155D01*
X9576Y-19282D01*
X9648Y-19389D01*
X9756Y-19461D01*
X9882Y-19486D01*
X9981D01*
Y-19939D01*
X9854Y-20007D01*
X9813Y-19979D01*
X9685Y-19954D01*
X9048D01*
X9029Y-19918D01*
X8905Y-19508D01*
X8864Y-19097D01*
X8867Y-19081D01*
Y-17546D01*
X8864Y-17528D01*
X8892Y-17315D01*
X8932Y-17286D01*
X9682D01*
X9809Y-17261D01*
X9917Y-17189D01*
X9989Y-17082D01*
X10014Y-16955D01*
Y-15805D01*
X9989Y-15678D01*
X9917Y-15570D01*
X9904Y-15562D01*
X9923Y-15414D01*
X9919D01*
Y-14849D01*
X9933Y-14846D01*
X10027Y-14783D01*
X10090Y-14689D01*
X10112Y-14578D01*
Y-12578D01*
X10091Y-12474D01*
X10098Y-12454D01*
X10161Y-12352D01*
X10252Y-12343D01*
X10294Y-12371D01*
X10313Y-12467D01*
X10291Y-12578D01*
Y-14578D01*
X10313Y-14689D01*
X10376Y-14783D01*
X10470Y-14846D01*
X10581Y-14868D01*
X11091D01*
X11203Y-14846D01*
X11297Y-14783D01*
X11360Y-14689D01*
X11382Y-14578D01*
Y-12663D01*
X11509Y-12578D01*
X11571Y-12604D01*
X11790D01*
X11896Y-12560D01*
X12005Y-12652D01*
X11952Y-12873D01*
X11916Y-13323D01*
X11918D01*
Y-15169D01*
X11809Y-15279D01*
X11763Y-15390D01*
X11718Y-15481D01*
X11707Y-15480D01*
Y-16380D01*
Y-17261D01*
X11709Y-17261D01*
X11817Y-17189D01*
X11889Y-17082D01*
X11914Y-16955D01*
Y-16173D01*
X12041Y-16089D01*
X12166Y-16140D01*
X12385D01*
X12587Y-16057D01*
X12741Y-15902D01*
X12825Y-15700D01*
Y-15481D01*
X12741Y-15279D01*
X12632Y-15169D01*
Y-13323D01*
X12659Y-13291D01*
X12803Y-13309D01*
X12807Y-13312D01*
X12958Y-13463D01*
X13009Y-13485D01*
X13092Y-13684D01*
X13311Y-13969D01*
X13595Y-14188D01*
X13689Y-14226D01*
Y-14648D01*
X13714Y-14775D01*
X13787Y-14884D01*
X13895Y-14956D01*
X14023Y-14981D01*
X14141D01*
X14206Y-15108D01*
X14170Y-15287D01*
X14065Y-15340D01*
X13970Y-15359D01*
X13862Y-15431D01*
X13789Y-15539D01*
X13764Y-15667D01*
Y-16771D01*
X13517Y-17018D01*
X13335Y-16943D01*
X13116D01*
X12914Y-17026D01*
X12759Y-17181D01*
X12675Y-17383D01*
Y-17602D01*
X12759Y-17804D01*
X12873Y-17918D01*
X12871Y-17925D01*
X12717Y-18080D01*
X12633Y-18282D01*
Y-18501D01*
X12717Y-18703D01*
X12767Y-18753D01*
X12714Y-18880D01*
X12684D01*
X12481Y-18964D01*
X12327Y-19119D01*
X12243Y-19321D01*
Y-19540D01*
X12327Y-19742D01*
X12481Y-19897D01*
X12684Y-19980D01*
X12838D01*
X13060Y-20202D01*
X13176Y-20279D01*
X13312Y-20306D01*
X15987D01*
Y-20307D01*
X16211Y-20277D01*
X16420Y-20191D01*
X16599Y-20053D01*
X16737Y-19874D01*
X16823Y-19665D01*
X16837Y-19565D01*
X16878D01*
X17006Y-19540D01*
X17114Y-19468D01*
X17186Y-19359D01*
X17212Y-19231D01*
Y-17956D01*
X17186Y-17829D01*
X17114Y-17720D01*
X17006Y-17648D01*
X16878Y-17623D01*
X16113D01*
X15985Y-17648D01*
X15877Y-17720D01*
X15804Y-17829D01*
X15779Y-17956D01*
Y-19231D01*
X15804Y-19359D01*
X15877Y-19468D01*
X15836Y-19593D01*
X15140D01*
X15099Y-19468D01*
X15171Y-19359D01*
X15197Y-19231D01*
Y-17956D01*
X15171Y-17829D01*
X15099Y-17720D01*
X14991Y-17648D01*
X14863Y-17623D01*
X14102D01*
X14094Y-17614D01*
X14040Y-17504D01*
X14269Y-17276D01*
X14863D01*
X14991Y-17251D01*
X15099Y-17178D01*
X15171Y-17070D01*
X15197Y-16942D01*
Y-15667D01*
X15171Y-15539D01*
X15150Y-15508D01*
X15218Y-15381D01*
X15758D01*
X15826Y-15508D01*
X15804Y-15539D01*
X15779Y-15667D01*
Y-15805D01*
X16495D01*
X17212D01*
Y-15667D01*
X17186Y-15539D01*
X17114Y-15431D01*
X17006Y-15359D01*
X16878Y-15333D01*
X16646D01*
X16599Y-15206D01*
X16691Y-15069D01*
X16708Y-14981D01*
X16803D01*
X16931Y-14956D01*
X17039Y-14884D01*
X17111Y-14775D01*
X17137Y-14648D01*
Y-13373D01*
X17123Y-13303D01*
X17207Y-13176D01*
X19983Y-13176D01*
X19996Y-13173D01*
X20009Y-13174D01*
X20130Y-13158D01*
X20155Y-13150D01*
X20181Y-13145D01*
X20293Y-13098D01*
X20360Y-13054D01*
X20475Y-12938D01*
X20519Y-12872D01*
X20582Y-12721D01*
X20582Y-12721D01*
X20582Y-12721D01*
X20597Y-12643D01*
X20597Y-12561D01*
X20597Y-11410D01*
X20596Y-11403D01*
X20597Y-11396D01*
X20588Y-11272D01*
X20580Y-11241D01*
X20573Y-11209D01*
X20503Y-11040D01*
X20459Y-10974D01*
X20314Y-10829D01*
X20248Y-10785D01*
X20058Y-10706D01*
X19980Y-10691D01*
X17253Y-10691D01*
X17227Y-10696D01*
X17200Y-10698D01*
X17188Y-10704D01*
X17175Y-10706D01*
X17161Y-10715D01*
X17108Y-10704D01*
X17094Y-10698D01*
X17091Y-10596D01*
X17095Y-10593D01*
X17173Y-10477D01*
X17191Y-10387D01*
X16263D01*
X15335D01*
X15353Y-10477D01*
X15431Y-10593D01*
X15537Y-10664D01*
X15544Y-10732D01*
X15537Y-10799D01*
X15431Y-10870D01*
X15353Y-10986D01*
X15327Y-11118D01*
X14949D01*
X14923Y-10986D01*
X14845Y-10870D01*
X14739Y-10799D01*
X14732Y-10732D01*
X14739Y-10664D01*
X14845Y-10593D01*
X14923Y-10477D01*
X14941Y-10387D01*
X14013D01*
X13085D01*
X13103Y-10477D01*
X13181Y-10593D01*
X13287Y-10664D01*
X13294Y-10732D01*
X13287Y-10799D01*
X13181Y-10870D01*
X13103Y-10986D01*
X13102Y-10995D01*
X12958Y-11063D01*
X12634Y-10965D01*
X12273Y-10772D01*
X11973Y-10526D01*
X11961Y-10508D01*
X11389Y-9937D01*
X11360Y-9839D01*
X11382Y-9728D01*
Y-7728D01*
X11360Y-7617D01*
X11297Y-7522D01*
X11203Y-7459D01*
X11091Y-7437D01*
X10581D01*
X10470Y-7459D01*
X10376Y-7522D01*
X10313Y-7617D01*
X10291Y-7728D01*
Y-9728D01*
X10313Y-9839D01*
X10376Y-9933D01*
X10405Y-9953D01*
X10414Y-10024D01*
X10448Y-10106D01*
X10377Y-10211D01*
X3401D01*
X3383Y-10215D01*
X3120Y-10180D01*
X3089Y-10145D01*
X3145Y-10018D01*
X3471D01*
X3583Y-9996D01*
X3677Y-9933D01*
X3740Y-9839D01*
X3762Y-9728D01*
Y-7728D01*
X3740Y-7617D01*
X3677Y-7522D01*
X3583Y-7459D01*
X3471Y-7437D01*
X2961D01*
X2850Y-7459D01*
X2756Y-7522D01*
X2693Y-7617D01*
X2671Y-7728D01*
Y-9728D01*
X2678Y-9762D01*
X2569Y-9859D01*
X2502Y-9839D01*
X2501Y-9838D01*
X2259Y-9639D01*
X2116Y-9563D01*
Y-9323D01*
X2088Y-9186D01*
X2011Y-9070D01*
X1905Y-8999D01*
X1898Y-8932D01*
X1905Y-8864D01*
X2011Y-8793D01*
X2088Y-8677D01*
X2106Y-8587D01*
X1179D01*
X251D01*
X269Y-8677D01*
X347Y-8793D01*
X453Y-8864D01*
X460Y-8932D01*
X453Y-8999D01*
X347Y-9070D01*
X269Y-9186D01*
X242Y-9323D01*
Y-9369D01*
X-101D01*
Y-9323D01*
X-128Y-9186D01*
X-206Y-9070D01*
X-312Y-8999D01*
X-319Y-8932D01*
X-312Y-8864D01*
X-206Y-8793D01*
X-128Y-8677D01*
X-110Y-8586D01*
X-1038D01*
X-1965D01*
X-1947Y-8677D01*
X-1870Y-8793D01*
X-1764Y-8864D01*
X-1757Y-8932D01*
X-1764Y-8999D01*
X-1870Y-9070D01*
X-1947Y-9186D01*
X-1975Y-9323D01*
Y-9369D01*
X-2431D01*
X-2435Y-9369D01*
X-2619Y-9345D01*
X-2705Y-9310D01*
X-2686Y-9161D01*
X-2619Y-9148D01*
X-2511Y-9075D01*
X-2438Y-8967D01*
X-2413Y-8839D01*
Y-7564D01*
X-2438Y-7436D01*
X-2511Y-7328D01*
X-2619Y-7256D01*
X-2722Y-7235D01*
Y-6866D01*
X-2619Y-6846D01*
X-2511Y-6774D01*
X-2438Y-6665D01*
X-2413Y-6538D01*
Y-5263D01*
X-2438Y-5135D01*
X-2511Y-5026D01*
X-2619Y-4954D01*
X-2747Y-4929D01*
D02*
G37*
G36*
X-459Y-7275D02*
X-538D01*
Y-7586D01*
X-110D01*
X-128Y-7496D01*
X-206Y-7380D01*
X-322Y-7302D01*
X-459Y-7275D01*
D02*
G37*
G36*
X-1538D02*
X-1616D01*
X-1754Y-7302D01*
X-1870Y-7380D01*
X-1947Y-7496D01*
X-1965Y-7586D01*
X-1538D01*
Y-7275D01*
D02*
G37*
G36*
X1758D02*
X1679D01*
Y-7587D01*
X2106D01*
X2088Y-7496D01*
X2011Y-7380D01*
X1895Y-7302D01*
X1758Y-7275D01*
D02*
G37*
G36*
X679D02*
X600D01*
X463Y-7302D01*
X347Y-7380D01*
X269Y-7496D01*
X251Y-7587D01*
X679D01*
Y-7275D01*
D02*
G37*
G36*
X-9304Y-7286D02*
X-9395Y-7304D01*
X-9511Y-7382D01*
X-9589Y-7498D01*
X-9616Y-7635D01*
Y-7714D01*
X-9304D01*
Y-7286D01*
D02*
G37*
G36*
Y-8714D02*
X-9616D01*
Y-8793D01*
X-9589Y-8930D01*
X-9511Y-9046D01*
X-9395Y-9124D01*
X-9304Y-9142D01*
Y-8714D01*
D02*
G37*
G36*
X14592Y-9075D02*
X14513D01*
Y-9387D01*
X14941D01*
X14923Y-9296D01*
X14845Y-9180D01*
X14729Y-9102D01*
X14592Y-9075D01*
D02*
G37*
G36*
X13513D02*
X13434D01*
X13297Y-9102D01*
X13181Y-9180D01*
X13103Y-9296D01*
X13085Y-9387D01*
X13513D01*
Y-9075D01*
D02*
G37*
G36*
X16842D02*
X16763D01*
Y-9387D01*
X17191D01*
X17173Y-9296D01*
X17095Y-9180D01*
X16979Y-9102D01*
X16842Y-9075D01*
D02*
G37*
G36*
X15763D02*
X15684D01*
X15547Y-9102D01*
X15431Y-9180D01*
X15353Y-9296D01*
X15335Y-9387D01*
X15763D01*
Y-9075D01*
D02*
G37*
G36*
X9821Y-7437D02*
X9311D01*
X9200Y-7459D01*
X9106Y-7522D01*
X9043Y-7617D01*
X9021Y-7728D01*
Y-9728D01*
X9043Y-9839D01*
X9106Y-9933D01*
X9200Y-9996D01*
X9311Y-10018D01*
X9821D01*
X9933Y-9996D01*
X10027Y-9933D01*
X10090Y-9839D01*
X10112Y-9728D01*
Y-7728D01*
X10090Y-7617D01*
X10027Y-7522D01*
X9933Y-7459D01*
X9821Y-7437D01*
D02*
G37*
G36*
X8551D02*
X8041D01*
X7930Y-7459D01*
X7836Y-7522D01*
X7773Y-7617D01*
X7751Y-7728D01*
Y-9728D01*
X7773Y-9839D01*
X7836Y-9933D01*
X7930Y-9996D01*
X8041Y-10018D01*
X8551D01*
X8663Y-9996D01*
X8757Y-9933D01*
X8820Y-9839D01*
X8842Y-9728D01*
Y-7728D01*
X8820Y-7617D01*
X8757Y-7522D01*
X8663Y-7459D01*
X8551Y-7437D01*
D02*
G37*
G36*
X7281D02*
X6771D01*
X6660Y-7459D01*
X6566Y-7522D01*
X6503Y-7617D01*
X6481Y-7728D01*
Y-9728D01*
X6503Y-9839D01*
X6566Y-9933D01*
X6660Y-9996D01*
X6771Y-10018D01*
X7281D01*
X7393Y-9996D01*
X7487Y-9933D01*
X7550Y-9839D01*
X7572Y-9728D01*
Y-7728D01*
X7550Y-7617D01*
X7487Y-7522D01*
X7393Y-7459D01*
X7281Y-7437D01*
D02*
G37*
G36*
X6011D02*
X5501D01*
X5390Y-7459D01*
X5296Y-7522D01*
X5233Y-7617D01*
X5211Y-7728D01*
Y-9728D01*
X5233Y-9839D01*
X5296Y-9933D01*
X5390Y-9996D01*
X5501Y-10018D01*
X6011D01*
X6123Y-9996D01*
X6217Y-9933D01*
X6280Y-9839D01*
X6302Y-9728D01*
Y-7728D01*
X6280Y-7617D01*
X6217Y-7522D01*
X6123Y-7459D01*
X6011Y-7437D01*
D02*
G37*
G36*
X4741D02*
X4231D01*
X4120Y-7459D01*
X4026Y-7522D01*
X3963Y-7617D01*
X3941Y-7728D01*
Y-9728D01*
X3963Y-9839D01*
X4026Y-9933D01*
X4120Y-9996D01*
X4231Y-10018D01*
X4741D01*
X4853Y-9996D01*
X4947Y-9933D01*
X5010Y-9839D01*
X5032Y-9728D01*
Y-7728D01*
X5010Y-7617D01*
X4947Y-7522D01*
X4853Y-7459D01*
X4741Y-7437D01*
D02*
G37*
G36*
X32512Y-9900D02*
X31281D01*
X31311Y-9958D01*
X31630Y-10397D01*
X32014Y-10781D01*
X32453Y-11101D01*
X32512Y-11130D01*
Y-9900D01*
D02*
G37*
G36*
X37242D02*
X36012D01*
Y-11130D01*
X36070Y-11101D01*
X36509Y-10781D01*
X36893Y-10397D01*
X37212Y-9958D01*
X37242Y-9900D01*
D02*
G37*
G36*
X-31320Y-10150D02*
X-32550D01*
Y-11380D01*
X-32492Y-11351D01*
X-32052Y-11031D01*
X-31669Y-10647D01*
X-31349Y-10208D01*
X-31320Y-10150D01*
D02*
G37*
G36*
X-36050D02*
X-37280D01*
X-37251Y-10208D01*
X-36932Y-10647D01*
X-36548Y-11031D01*
X-36108Y-11351D01*
X-36050Y-11380D01*
Y-10150D01*
D02*
G37*
G36*
X-8542Y-9689D02*
X-8761D01*
X-8963Y-9773D01*
X-9118Y-9928D01*
X-9201Y-10130D01*
Y-10349D01*
X-9118Y-10551D01*
X-9008Y-10660D01*
Y-11853D01*
X-9144Y-11989D01*
X-9228Y-12191D01*
Y-12410D01*
X-9144Y-12612D01*
X-8990Y-12767D01*
X-8788Y-12851D01*
X-8569D01*
X-8367Y-12767D01*
X-8212Y-12612D01*
X-8128Y-12410D01*
Y-12191D01*
X-8212Y-11989D01*
X-8294Y-11907D01*
Y-10660D01*
X-8185Y-10551D01*
X-8101Y-10349D01*
Y-10130D01*
X-8185Y-9928D01*
X-8340Y-9773D01*
X-8542Y-9689D01*
D02*
G37*
G36*
X3716Y-12431D02*
Y-13078D01*
X3762D01*
Y-12578D01*
X3740Y-12467D01*
X3716Y-12431D01*
D02*
G37*
G36*
X2716D02*
X2693Y-12467D01*
X2671Y-12578D01*
Y-13078D01*
X2716D01*
Y-12431D01*
D02*
G37*
G36*
X-9304Y-13077D02*
X-9395Y-13095D01*
X-9511Y-13173D01*
X-9589Y-13289D01*
X-9616Y-13426D01*
Y-13505D01*
X-9304D01*
Y-13077D01*
D02*
G37*
G36*
X3762Y-14078D02*
X3716D01*
Y-14724D01*
X3740Y-14689D01*
X3762Y-14578D01*
Y-14078D01*
D02*
G37*
G36*
X2716D02*
X2671D01*
Y-14578D01*
X2693Y-14689D01*
X2716Y-14724D01*
Y-14078D01*
D02*
G37*
G36*
X-14537Y-15332D02*
Y-15780D01*
X-14321D01*
Y-15642D01*
X-14346Y-15514D01*
X-14419Y-15406D01*
X-14527Y-15334D01*
X-14537Y-15332D01*
D02*
G37*
G36*
X-15537Y-15332D02*
X-15548Y-15334D01*
X-15656Y-15406D01*
X-15728Y-15514D01*
X-15754Y-15642D01*
Y-15780D01*
X-15537D01*
Y-15332D01*
D02*
G37*
G36*
X10707Y-15498D02*
X10706Y-15499D01*
X10598Y-15570D01*
X10526Y-15678D01*
X10501Y-15805D01*
Y-15880D01*
X10707D01*
Y-15498D01*
D02*
G37*
G36*
X3200Y-16128D02*
X3125D01*
X2998Y-16154D01*
X2890Y-16225D01*
X2819Y-16333D01*
X2818Y-16335D01*
X3200D01*
Y-16128D01*
D02*
G37*
G36*
X-14321Y-16780D02*
X-14537D01*
Y-17228D01*
X-14527Y-17226D01*
X-14419Y-17153D01*
X-14346Y-17045D01*
X-14321Y-16917D01*
Y-16780D01*
D02*
G37*
G36*
X-15537D02*
X-15754D01*
Y-16917D01*
X-15728Y-17045D01*
X-15656Y-17153D01*
X-15548Y-17226D01*
X-15537Y-17228D01*
Y-16780D01*
D02*
G37*
G36*
X17212Y-16805D02*
X16995D01*
Y-17253D01*
X17006Y-17251D01*
X17114Y-17178D01*
X17186Y-17070D01*
X17212Y-16942D01*
Y-16805D01*
D02*
G37*
G36*
X15995D02*
X15779D01*
Y-16942D01*
X15804Y-17070D01*
X15877Y-17178D01*
X15985Y-17251D01*
X15995Y-17253D01*
Y-16805D01*
D02*
G37*
G36*
X10707Y-16880D02*
X10501D01*
Y-16955D01*
X10526Y-17082D01*
X10598Y-17189D01*
X10706Y-17261D01*
X10707Y-17261D01*
Y-16880D01*
D02*
G37*
G36*
X34541Y-11800D02*
X33982D01*
X33430Y-11887D01*
X32899Y-12060D01*
X32401Y-12314D01*
X31949Y-12642D01*
X31554Y-13037D01*
X31225Y-13489D01*
X30972Y-13987D01*
X30799Y-14519D01*
X30712Y-15071D01*
Y-15629D01*
X30799Y-16181D01*
X30972Y-16713D01*
X31225Y-17211D01*
X31554Y-17663D01*
X31949Y-18058D01*
X32401Y-18386D01*
X32899Y-18640D01*
X33430Y-18813D01*
X33982Y-18900D01*
X34541D01*
X35093Y-18813D01*
X35624Y-18640D01*
X36122Y-18386D01*
X36574Y-18058D01*
X36969Y-17663D01*
X37298Y-17211D01*
X37551Y-16713D01*
X37724Y-16181D01*
X37812Y-15629D01*
Y-15071D01*
X37724Y-14519D01*
X37551Y-13987D01*
X37298Y-13489D01*
X36969Y-13037D01*
X36574Y-12642D01*
X36122Y-12314D01*
X35624Y-12060D01*
X35093Y-11887D01*
X34541Y-11800D01*
D02*
G37*
G36*
X-34028Y-12150D02*
X-34572D01*
X-35108Y-12235D01*
X-35624Y-12403D01*
X-36108Y-12649D01*
X-36548Y-12968D01*
X-36932Y-13352D01*
X-37251Y-13792D01*
X-37497Y-14276D01*
X-37665Y-14792D01*
X-37750Y-15328D01*
Y-15871D01*
X-37665Y-16408D01*
X-37497Y-16924D01*
X-37251Y-17408D01*
X-36932Y-17847D01*
X-36548Y-18231D01*
X-36108Y-18551D01*
X-35624Y-18797D01*
X-35108Y-18965D01*
X-34572Y-19050D01*
X-34028D01*
X-33492Y-18965D01*
X-32976Y-18797D01*
X-32492Y-18551D01*
X-32052Y-18231D01*
X-31669Y-17847D01*
X-31349Y-17408D01*
X-31103Y-16924D01*
X-30935Y-16408D01*
X-30850Y-15871D01*
Y-15328D01*
X-30935Y-14792D01*
X-31103Y-14276D01*
X-31349Y-13792D01*
X-31669Y-13352D01*
X-32052Y-12968D01*
X-32492Y-12649D01*
X-32976Y-12403D01*
X-33492Y-12235D01*
X-34028Y-12150D01*
D02*
G37*
G36*
X11817Y-19977D02*
Y-20425D01*
X12034D01*
Y-20288D01*
X12008Y-20160D01*
X11936Y-20052D01*
X11828Y-19979D01*
X11817Y-19977D01*
D02*
G37*
G36*
X3975Y-20002D02*
Y-20450D01*
X4191D01*
Y-20313D01*
X4166Y-20185D01*
X4094Y-20077D01*
X3985Y-20004D01*
X3975Y-20002D01*
D02*
G37*
G36*
X2975Y-20002D02*
X2965Y-20004D01*
X2856Y-20077D01*
X2784Y-20185D01*
X2759Y-20313D01*
Y-20450D01*
X2975D01*
Y-20002D01*
D02*
G37*
G36*
Y-21450D02*
X2759D01*
Y-21588D01*
X2784Y-21715D01*
X2856Y-21824D01*
X2965Y-21896D01*
X2975Y-21898D01*
Y-21450D01*
D02*
G37*
G36*
X4191D02*
X3975D01*
Y-21898D01*
X3985Y-21896D01*
X4094Y-21824D01*
X4166Y-21715D01*
X4191Y-21588D01*
Y-21450D01*
D02*
G37*
G36*
X-23589Y-20596D02*
X-23807D01*
X-24010Y-20680D01*
X-24164Y-20834D01*
X-24248Y-21037D01*
Y-21255D01*
X-24164Y-21458D01*
X-24010Y-21612D01*
X-23807Y-21696D01*
X-23589D01*
X-23386Y-21612D01*
X-23277Y-21503D01*
X-22740D01*
X-22724Y-21500D01*
X-22313Y-21540D01*
X-21902Y-21665D01*
X-21524Y-21867D01*
X-21317Y-22037D01*
Y-22176D01*
X-21234Y-22378D01*
X-21079Y-22532D01*
X-20877Y-22616D01*
X-20658D01*
X-20456Y-22532D01*
X-20301Y-22378D01*
X-20217Y-22176D01*
Y-21957D01*
X-20301Y-21755D01*
X-20456Y-21600D01*
X-20658Y-21516D01*
X-20830D01*
X-21036Y-21341D01*
X-21423Y-21103D01*
X-21844Y-20929D01*
X-22286Y-20823D01*
X-22740Y-20787D01*
Y-20789D01*
X-23277D01*
X-23386Y-20680D01*
X-23589Y-20596D01*
D02*
G37*
G36*
X3939Y-22400D02*
X3584D01*
X3236Y-22469D01*
X2909Y-22605D01*
X2614Y-22802D01*
X2363Y-23053D01*
X2166Y-23347D01*
X2031Y-23675D01*
X1962Y-24023D01*
Y-24377D01*
X2031Y-24725D01*
X2166Y-25053D01*
X2363Y-25347D01*
X2614Y-25598D01*
X2909Y-25795D01*
X3236Y-25931D01*
X3584Y-26000D01*
X3939D01*
X4287Y-25931D01*
X4614Y-25795D01*
X4909Y-25598D01*
X5160Y-25347D01*
X5357Y-25053D01*
X5492Y-24725D01*
X5562Y-24377D01*
Y-24023D01*
X5492Y-23675D01*
X5357Y-23347D01*
X5160Y-23053D01*
X4909Y-22802D01*
X4614Y-22605D01*
X4287Y-22469D01*
X3939Y-22400D01*
D02*
G37*
G36*
X36563Y-22150D02*
X36160D01*
X35764Y-22229D01*
X35390Y-22383D01*
X35055Y-22608D01*
X34769Y-22893D01*
X34545Y-23229D01*
X34390Y-23602D01*
X34312Y-23998D01*
Y-24402D01*
X34390Y-24798D01*
X34545Y-25171D01*
X34769Y-25507D01*
X35055Y-25792D01*
X35390Y-26017D01*
X35764Y-26171D01*
X36160Y-26250D01*
X36563D01*
X36959Y-26171D01*
X37333Y-26017D01*
X37668Y-25792D01*
X37954Y-25507D01*
X38178Y-25171D01*
X38333Y-24798D01*
X38412Y-24402D01*
Y-23998D01*
X38333Y-23602D01*
X38178Y-23229D01*
X37954Y-22893D01*
X37668Y-22608D01*
X37333Y-22383D01*
X36959Y-22229D01*
X36563Y-22150D01*
D02*
G37*
G36*
X28963D02*
X28560D01*
X28164Y-22229D01*
X27791Y-22383D01*
X27455Y-22608D01*
X27169Y-22893D01*
X26945Y-23229D01*
X26790Y-23602D01*
X26712Y-23998D01*
Y-24402D01*
X26790Y-24798D01*
X26945Y-25171D01*
X27169Y-25507D01*
X27455Y-25792D01*
X27791Y-26017D01*
X28164Y-26171D01*
X28560Y-26250D01*
X28963D01*
X29360Y-26171D01*
X29733Y-26017D01*
X30068Y-25792D01*
X30354Y-25507D01*
X30578Y-25171D01*
X30733Y-24798D01*
X30812Y-24402D01*
Y-23998D01*
X30733Y-23602D01*
X30578Y-23229D01*
X30354Y-22893D01*
X30068Y-22608D01*
X29733Y-22383D01*
X29360Y-22229D01*
X28963Y-22150D01*
D02*
G37*
G36*
X-28598Y-22150D02*
X-29002D01*
X-29398Y-22229D01*
X-29771Y-22383D01*
X-30107Y-22608D01*
X-30392Y-22893D01*
X-30617Y-23229D01*
X-30771Y-23602D01*
X-30850Y-23998D01*
Y-24402D01*
X-30771Y-24798D01*
X-30617Y-25171D01*
X-30392Y-25507D01*
X-30107Y-25792D01*
X-29771Y-26017D01*
X-29398Y-26171D01*
X-29002Y-26250D01*
X-28598D01*
X-28202Y-26171D01*
X-27829Y-26017D01*
X-27493Y-25792D01*
X-27208Y-25507D01*
X-26983Y-25171D01*
X-26829Y-24798D01*
X-26750Y-24402D01*
Y-23998D01*
X-26829Y-23602D01*
X-26983Y-23229D01*
X-27208Y-22893D01*
X-27493Y-22608D01*
X-27829Y-22383D01*
X-28202Y-22229D01*
X-28598Y-22150D01*
D02*
G37*
G36*
X-36198D02*
X-36602D01*
X-36998Y-22229D01*
X-37371Y-22383D01*
X-37707Y-22608D01*
X-37992Y-22893D01*
X-38217Y-23229D01*
X-38371Y-23602D01*
X-38450Y-23998D01*
Y-24402D01*
X-38371Y-24798D01*
X-38217Y-25171D01*
X-37992Y-25507D01*
X-37707Y-25792D01*
X-37371Y-26017D01*
X-36998Y-26171D01*
X-36602Y-26250D01*
X-36198D01*
X-35802Y-26171D01*
X-35429Y-26017D01*
X-35093Y-25792D01*
X-34808Y-25507D01*
X-34583Y-25171D01*
X-34429Y-24798D01*
X-34350Y-24402D01*
Y-23998D01*
X-34429Y-23602D01*
X-34583Y-23229D01*
X-34808Y-22893D01*
X-35093Y-22608D01*
X-35429Y-22383D01*
X-35802Y-22229D01*
X-36198Y-22150D01*
D02*
G37*
G36*
X-35550Y-29844D02*
Y-29975D01*
X-35419D01*
X-35550Y-29844D01*
D02*
G37*
G36*
X-36550Y-29844D02*
X-36681Y-29975D01*
X-36550D01*
Y-29844D01*
D02*
G37*
G36*
X-35419Y-30975D02*
X-35550D01*
Y-31106D01*
X-35419Y-30975D01*
D02*
G37*
G36*
X-36550D02*
X-36681D01*
X-36550Y-31106D01*
Y-30975D01*
D02*
G37*
G36*
X37029Y-29675D02*
X35429D01*
Y-31275D01*
X37029D01*
Y-29675D01*
D02*
G37*
G36*
X17898Y-31015D02*
X17020D01*
Y-31492D01*
X18298D01*
Y-31415D01*
X18268Y-31262D01*
X18181Y-31132D01*
X18051Y-31045D01*
X17898Y-31015D01*
D02*
G37*
G36*
X16020D02*
X15143D01*
X14990Y-31045D01*
X14860Y-31132D01*
X14773Y-31262D01*
X14743Y-31415D01*
Y-31492D01*
X16020D01*
Y-31015D01*
D02*
G37*
G36*
X34208Y-31133D02*
X34056D01*
Y-31926D01*
X34634D01*
Y-31558D01*
X34602Y-31395D01*
X34509Y-31257D01*
X34371Y-31165D01*
X34208Y-31133D01*
D02*
G37*
G36*
X33056D02*
X32903D01*
X32741Y-31165D01*
X32602Y-31257D01*
X32510Y-31395D01*
X32478Y-31558D01*
Y-31926D01*
X33056D01*
Y-31133D01*
D02*
G37*
G36*
X-32777D02*
X-32929D01*
Y-31926D01*
X-32351D01*
Y-31558D01*
X-32383Y-31395D01*
X-32476Y-31257D01*
X-32614Y-31165D01*
X-32777Y-31133D01*
D02*
G37*
G36*
X-33929D02*
X-34082D01*
X-34244Y-31165D01*
X-34383Y-31257D01*
X-34475Y-31395D01*
X-34507Y-31558D01*
Y-31926D01*
X-33929D01*
Y-31133D01*
D02*
G37*
G36*
X36729Y-31844D02*
Y-31975D01*
X36861D01*
X36729Y-31844D01*
D02*
G37*
G36*
X35729D02*
X35598Y-31975D01*
X35729D01*
Y-31844D01*
D02*
G37*
G36*
X18298Y-32492D02*
X17020D01*
Y-32970D01*
X17898D01*
X18051Y-32940D01*
X18181Y-32853D01*
X18268Y-32723D01*
X18298Y-32570D01*
Y-32492D01*
D02*
G37*
G36*
X16020D02*
X14743D01*
Y-32570D01*
X14773Y-32723D01*
X14860Y-32853D01*
X14990Y-32940D01*
X15143Y-32970D01*
X16020D01*
Y-32492D01*
D02*
G37*
G36*
X36861Y-32975D02*
X36729D01*
Y-33106D01*
X36861Y-32975D01*
D02*
G37*
G36*
X35729D02*
X35598D01*
X35729Y-33106D01*
Y-32975D01*
D02*
G37*
G36*
X-28244Y-32045D02*
X-31156D01*
X-31329Y-32079D01*
X-31476Y-32177D01*
X-31574Y-32324D01*
X-31609Y-32497D01*
Y-32849D01*
X-31620Y-32851D01*
X-31793Y-32874D01*
X-31964Y-32945D01*
X-32111Y-33058D01*
X-32224Y-33205D01*
X-32351Y-33179D01*
Y-32926D01*
X-32929D01*
Y-33719D01*
X-32777D01*
X-32614Y-33687D01*
X-32476Y-33594D01*
X-32443Y-33546D01*
X-32414Y-33549D01*
X-32320Y-33591D01*
Y-35021D01*
X-32447Y-35059D01*
X-32476Y-35017D01*
X-32614Y-34925D01*
X-32777Y-34893D01*
X-34082D01*
X-34244Y-34925D01*
X-34383Y-35017D01*
X-34475Y-35155D01*
X-34507Y-35318D01*
Y-35723D01*
X-34583Y-35785D01*
X-34634Y-35795D01*
X-34769Y-35705D01*
X-34777Y-35694D01*
X-34700Y-35509D01*
Y-35291D01*
X-34784Y-35088D01*
X-34938Y-34934D01*
X-35141Y-34850D01*
X-35359D01*
X-35562Y-34934D01*
X-35716Y-35088D01*
X-35800Y-35291D01*
Y-35509D01*
X-35716Y-35712D01*
X-35562Y-35866D01*
X-35488Y-35897D01*
X-35456Y-35973D01*
X-35274Y-36210D01*
X-35037Y-36392D01*
X-34761Y-36507D01*
X-34507Y-36540D01*
Y-37053D01*
X-34475Y-37216D01*
X-34383Y-37354D01*
X-34244Y-37447D01*
X-34082Y-37479D01*
X-32777D01*
X-32614Y-37447D01*
X-32476Y-37354D01*
X-32383Y-37216D01*
X-32351Y-37053D01*
Y-36530D01*
X-32231Y-36514D01*
X-32028Y-36430D01*
X-31853Y-36296D01*
X-31719Y-36122D01*
X-31635Y-35918D01*
X-31606Y-35700D01*
X-31607D01*
Y-34313D01*
X-31480Y-34274D01*
X-31476Y-34280D01*
X-31329Y-34378D01*
X-31156Y-34412D01*
X-28244D01*
X-28071Y-34378D01*
X-27924Y-34280D01*
X-27826Y-34133D01*
X-27791Y-33960D01*
Y-32497D01*
X-27826Y-32324D01*
X-27924Y-32177D01*
X-28071Y-32079D01*
X-28244Y-32045D01*
D02*
G37*
G36*
X-35250Y-31675D02*
X-36850D01*
Y-33275D01*
X-35250D01*
Y-31675D01*
D02*
G37*
G36*
X34634Y-32926D02*
X34056D01*
Y-33719D01*
X34208D01*
X34371Y-33687D01*
X34509Y-33594D01*
X34602Y-33456D01*
X34634Y-33293D01*
Y-32926D01*
D02*
G37*
G36*
X31318Y-32045D02*
X28405D01*
X28232Y-32079D01*
X28085Y-32177D01*
X27987Y-32324D01*
X27953Y-32497D01*
Y-33960D01*
X27987Y-34133D01*
X28085Y-34280D01*
X28232Y-34378D01*
X28405Y-34412D01*
X31318D01*
X31491Y-34378D01*
X31612Y-34297D01*
X31703Y-34327D01*
X31739Y-34353D01*
Y-35881D01*
X31743Y-35899D01*
X31763Y-36052D01*
X31829Y-36211D01*
X31934Y-36348D01*
X32071Y-36453D01*
X32230Y-36519D01*
X32383Y-36539D01*
X32401Y-36543D01*
X32478D01*
Y-37053D01*
X32510Y-37216D01*
X32602Y-37354D01*
X32701Y-37420D01*
X32662Y-37547D01*
X31770D01*
Y-36697D01*
X31736Y-36524D01*
X31638Y-36377D01*
X31491Y-36279D01*
X31318Y-36245D01*
X28405D01*
X28232Y-36279D01*
X28085Y-36377D01*
X27987Y-36524D01*
X27953Y-36697D01*
Y-38160D01*
X27987Y-38333D01*
X28085Y-38480D01*
X28232Y-38578D01*
X28405Y-38612D01*
X31318D01*
X31491Y-38578D01*
X31638Y-38480D01*
X31736Y-38333D01*
X31750Y-38261D01*
X34227D01*
Y-38263D01*
X34680Y-38227D01*
X35123Y-38121D01*
X35543Y-37947D01*
X35858Y-37753D01*
X37029D01*
Y-36153D01*
X35429D01*
Y-37190D01*
X35064Y-37385D01*
X34654Y-37510D01*
X34480Y-37527D01*
X34436Y-37403D01*
X34509Y-37354D01*
X34602Y-37216D01*
X34634Y-37053D01*
Y-35870D01*
X35003Y-35758D01*
X35414Y-35717D01*
X35430Y-35721D01*
X35808D01*
X35918Y-35830D01*
X36120Y-35914D01*
X36339D01*
X36541Y-35830D01*
X36695Y-35675D01*
X36779Y-35473D01*
Y-35254D01*
X36695Y-35052D01*
X36541Y-34897D01*
X36339Y-34814D01*
X36120D01*
X35918Y-34897D01*
X35808Y-35007D01*
X35430D01*
Y-35005D01*
X34977Y-35040D01*
X34587Y-35134D01*
X34509Y-35017D01*
X34371Y-34925D01*
X34208Y-34893D01*
X32903D01*
X32741Y-34925D01*
X32602Y-35017D01*
X32580Y-35051D01*
X32453Y-35013D01*
Y-33719D01*
X32453D01*
X32434Y-33570D01*
X32556Y-33524D01*
X32602Y-33594D01*
X32741Y-33687D01*
X32903Y-33719D01*
X33056D01*
Y-32926D01*
X32478D01*
Y-33293D01*
X32479Y-33300D01*
X32357Y-33337D01*
X32340Y-33295D01*
X32205Y-33120D01*
X32029Y-32985D01*
X31825Y-32900D01*
X31770Y-32893D01*
Y-32497D01*
X31736Y-32324D01*
X31638Y-32177D01*
X31491Y-32079D01*
X31318Y-32045D01*
D02*
G37*
G36*
X-33929Y-32926D02*
X-34507D01*
Y-33293D01*
X-34475Y-33456D01*
X-34383Y-33594D01*
X-34244Y-33687D01*
X-34082Y-33719D01*
X-33929D01*
Y-32926D01*
D02*
G37*
G36*
X-35550Y-36322D02*
Y-36453D01*
X-35419D01*
X-35550Y-36322D01*
D02*
G37*
G36*
X-36550Y-36322D02*
X-36681Y-36453D01*
X-36550D01*
Y-36322D01*
D02*
G37*
G36*
X-35419Y-37453D02*
X-35550D01*
Y-37585D01*
X-35419Y-37453D01*
D02*
G37*
G36*
X-36550D02*
X-36681D01*
X-36550Y-37585D01*
Y-37453D01*
D02*
G37*
G36*
X-28244Y-36245D02*
X-31156D01*
X-31329Y-36279D01*
X-31476Y-36377D01*
X-31574Y-36524D01*
X-31609Y-36697D01*
Y-37283D01*
X-31844Y-37381D01*
X-32226Y-37615D01*
X-32567Y-37906D01*
X-32567Y-37906D01*
X-32656Y-37997D01*
X-32943Y-38233D01*
X-33322Y-38435D01*
X-33732Y-38559D01*
X-34143Y-38600D01*
X-34159Y-38597D01*
X-35250D01*
Y-38153D01*
X-36850D01*
Y-39753D01*
X-35250D01*
Y-39310D01*
X-34159D01*
Y-39312D01*
X-33705Y-39277D01*
X-33263Y-39171D01*
X-32843Y-38996D01*
X-32455Y-38759D01*
X-32109Y-38463D01*
X-32109Y-38463D01*
X-32020Y-38373D01*
X-31739Y-38142D01*
X-31723Y-38134D01*
X-31598Y-38211D01*
X-31574Y-38333D01*
X-31476Y-38480D01*
X-31329Y-38578D01*
X-31156Y-38612D01*
X-28244D01*
X-28071Y-38578D01*
X-27924Y-38480D01*
X-27826Y-38333D01*
X-27791Y-38160D01*
Y-36697D01*
X-27826Y-36524D01*
X-27924Y-36377D01*
X-28071Y-36279D01*
X-28244Y-36245D01*
D02*
G37*
G36*
X36729Y-38322D02*
Y-38453D01*
X36861D01*
X36729Y-38322D01*
D02*
G37*
G36*
X35729Y-38322D02*
X35598Y-38453D01*
X35729D01*
Y-38322D01*
D02*
G37*
G36*
Y-39453D02*
X35598D01*
X35729Y-39585D01*
Y-39453D01*
D02*
G37*
G36*
X36861D02*
X36729D01*
Y-39585D01*
X36861Y-39453D01*
D02*
G37*
G36*
X-16545Y-42020D02*
Y-43250D01*
X-15315D01*
X-15344Y-43192D01*
X-15663Y-42752D01*
X-16047Y-42368D01*
X-16487Y-42049D01*
X-16545Y-42020D01*
D02*
G37*
G36*
X-20045Y-42020D02*
X-20103Y-42049D01*
X-20542Y-42368D01*
X-20926Y-42752D01*
X-21246Y-43192D01*
X-21275Y-43250D01*
X-20045D01*
Y-42020D01*
D02*
G37*
G36*
X19948Y-42020D02*
Y-43250D01*
X21178D01*
X21149Y-43192D01*
X20829Y-42752D01*
X20445Y-42368D01*
X20006Y-42049D01*
X19948Y-42020D01*
D02*
G37*
G36*
X16448D02*
X16390Y-42049D01*
X15950Y-42368D01*
X15566Y-42752D01*
X15247Y-43192D01*
X15218Y-43250D01*
X16448D01*
Y-42020D01*
D02*
G37*
G36*
X-3870Y-45469D02*
Y-45600D01*
X-3738D01*
X-3870Y-45469D01*
D02*
G37*
G36*
X-10500D02*
Y-45600D01*
X-10369D01*
X-10500Y-45469D01*
D02*
G37*
G36*
X-4870Y-45469D02*
X-5001Y-45600D01*
X-4870D01*
Y-45469D01*
D02*
G37*
G36*
X-11500D02*
X-11631Y-45600D01*
X-11500D01*
Y-45469D01*
D02*
G37*
G36*
X-4870Y-46600D02*
X-5001D01*
X-4870Y-46731D01*
Y-46600D01*
D02*
G37*
G36*
X-11500D02*
X-11631D01*
X-11500Y-46731D01*
Y-46600D01*
D02*
G37*
G36*
X-3738D02*
X-3870D01*
Y-46731D01*
X-3738Y-46600D01*
D02*
G37*
G36*
X-10369D02*
X-10500D01*
Y-46731D01*
X-10369Y-46600D01*
D02*
G37*
G36*
X11691Y-45300D02*
X10091D01*
Y-46900D01*
X11691D01*
Y-45300D01*
D02*
G37*
G36*
X8997D02*
X8786D01*
X8583Y-45354D01*
X8400Y-45460D01*
X8251Y-45609D01*
X8146Y-45791D01*
X8091Y-45995D01*
Y-46205D01*
X8146Y-46409D01*
X8251Y-46591D01*
X8400Y-46740D01*
X8583Y-46845D01*
X8786Y-46900D01*
X8997D01*
X9200Y-46845D01*
X9383Y-46740D01*
X9532Y-46591D01*
X9637Y-46409D01*
X9691Y-46205D01*
Y-45995D01*
X9637Y-45791D01*
X9532Y-45609D01*
X9383Y-45460D01*
X9200Y-45354D01*
X8997Y-45300D01*
D02*
G37*
G36*
X2366D02*
X2156D01*
X1952Y-45354D01*
X1770Y-45460D01*
X1621Y-45609D01*
X1516Y-45791D01*
X1461Y-45995D01*
Y-46205D01*
X1516Y-46409D01*
X1621Y-46591D01*
X1770Y-46740D01*
X1952Y-46845D01*
X2156Y-46900D01*
X2366D01*
X2570Y-46845D01*
X2752Y-46740D01*
X2901Y-46591D01*
X3006Y-46409D01*
X3061Y-46205D01*
Y-45995D01*
X3006Y-45791D01*
X2901Y-45609D01*
X2752Y-45460D01*
X2570Y-45354D01*
X2366Y-45300D01*
D02*
G37*
G36*
X-15315Y-46750D02*
X-16545D01*
Y-47980D01*
X-16487Y-47951D01*
X-16047Y-47631D01*
X-15663Y-47247D01*
X-15344Y-46808D01*
X-15315Y-46750D01*
D02*
G37*
G36*
X21178Y-46750D02*
X19948D01*
Y-47980D01*
X20006Y-47951D01*
X20445Y-47631D01*
X20829Y-47247D01*
X21149Y-46808D01*
X21178Y-46750D01*
D02*
G37*
G36*
X16448D02*
X15218D01*
X15247Y-46808D01*
X15566Y-47247D01*
X15950Y-47631D01*
X16390Y-47951D01*
X16448Y-47980D01*
Y-46750D01*
D02*
G37*
G36*
X-20045Y-46750D02*
X-21275D01*
X-21246Y-46808D01*
X-20926Y-47247D01*
X-20542Y-47631D01*
X-20103Y-47951D01*
X-20045Y-47980D01*
Y-46750D01*
D02*
G37*
G36*
X25677Y-41450D02*
X25119D01*
X24567Y-41537D01*
X24035Y-41710D01*
X23537Y-41964D01*
X23085Y-42292D01*
X22690Y-42687D01*
X22362Y-43139D01*
X22108Y-43637D01*
X21935Y-44169D01*
X21848Y-44721D01*
Y-45279D01*
X21935Y-45831D01*
X22108Y-46363D01*
X22362Y-46861D01*
X22690Y-47313D01*
X23085Y-47708D01*
X23537Y-48036D01*
X24035Y-48290D01*
X24567Y-48463D01*
X25119Y-48550D01*
X25677D01*
X26229Y-48463D01*
X26761Y-48290D01*
X27259Y-48036D01*
X27711Y-47708D01*
X28106Y-47313D01*
X28434Y-46861D01*
X28688Y-46363D01*
X28861Y-45831D01*
X28948Y-45279D01*
Y-44721D01*
X28861Y-44169D01*
X28688Y-43637D01*
X28434Y-43139D01*
X28106Y-42687D01*
X27711Y-42292D01*
X27259Y-41964D01*
X26761Y-41710D01*
X26229Y-41537D01*
X25677Y-41450D01*
D02*
G37*
G36*
X-25216D02*
X-25774D01*
X-26326Y-41537D01*
X-26858Y-41710D01*
X-27356Y-41964D01*
X-27808Y-42292D01*
X-28203Y-42687D01*
X-28531Y-43139D01*
X-28785Y-43637D01*
X-28958Y-44169D01*
X-29045Y-44721D01*
Y-45279D01*
X-28958Y-45831D01*
X-28785Y-46363D01*
X-28531Y-46861D01*
X-28203Y-47313D01*
X-27808Y-47708D01*
X-27356Y-48036D01*
X-26858Y-48290D01*
X-26326Y-48463D01*
X-25774Y-48550D01*
X-25216D01*
X-24664Y-48463D01*
X-24132Y-48290D01*
X-23634Y-48036D01*
X-23182Y-47708D01*
X-22787Y-47313D01*
X-22459Y-46861D01*
X-22205Y-46363D01*
X-22032Y-45831D01*
X-21945Y-45279D01*
Y-44721D01*
X-22032Y-44169D01*
X-22205Y-43637D01*
X-22459Y-43139D01*
X-22787Y-42687D01*
X-23182Y-42292D01*
X-23634Y-41964D01*
X-24132Y-41710D01*
X-24664Y-41537D01*
X-25216Y-41450D01*
D02*
G37*
%LPD*%
G36*
X21063Y48100D02*
X21161Y48100D01*
X21355Y48062D01*
X21537Y47986D01*
X21700Y47877D01*
X21840Y47737D01*
X21949Y47574D01*
X22025Y47392D01*
X22059Y47218D01*
X22063Y47100D01*
Y47100D01*
X22063D01*
X22063Y47100D01*
Y46349D01*
X21936Y46276D01*
X21780Y46366D01*
X21617Y46410D01*
Y45248D01*
Y44086D01*
X21780Y44129D01*
X21936Y44219D01*
X22063Y44146D01*
X22063Y40088D01*
X22063Y39966D01*
X22015Y39727D01*
X21922Y39502D01*
X21787Y39299D01*
X21614Y39126D01*
X21411Y38991D01*
X21186Y38898D01*
X20947Y38850D01*
X20825Y38850D01*
X20825Y38850D01*
Y38850D01*
X17313D01*
X17190Y38850D01*
X16948Y38898D01*
X16721Y38992D01*
X16516Y39129D01*
X16342Y39303D01*
X16205Y39508D01*
X16111Y39735D01*
X16063Y39977D01*
X16063Y40100D01*
X16063Y40100D01*
Y46850D01*
Y46973D01*
X16111Y47215D01*
X16205Y47442D01*
X16342Y47647D01*
X16516Y47821D01*
X16721Y47958D01*
X16948Y48052D01*
X17190Y48100D01*
X17313D01*
X17313Y48100D01*
X21063Y48100D01*
D02*
G37*
%LPC*%
G36*
X18517Y46410D02*
X18354Y46366D01*
X18080Y46208D01*
X17857Y45985D01*
X17699Y45711D01*
X17655Y45548D01*
X18517D01*
Y46410D01*
D02*
G37*
G36*
X21017Y46410D02*
X20854Y46366D01*
X20580Y46208D01*
X20357Y45985D01*
X20199Y45711D01*
X20133Y45464D01*
X20001D01*
X19935Y45711D01*
X19777Y45985D01*
X19554Y46208D01*
X19280Y46366D01*
X19117Y46410D01*
Y45248D01*
Y44086D01*
X19280Y44129D01*
X19554Y44287D01*
X19777Y44511D01*
X19935Y44785D01*
X20001Y45031D01*
X20133D01*
X20199Y44785D01*
X20357Y44511D01*
X20580Y44287D01*
X20854Y44129D01*
X21017Y44086D01*
Y45248D01*
Y46410D01*
D02*
G37*
G36*
X18517Y44948D02*
X17655D01*
X17699Y44785D01*
X17857Y44511D01*
X18080Y44287D01*
X18354Y44129D01*
X18517Y44086D01*
Y44948D01*
D02*
G37*
G36*
X21240Y43502D02*
X20730D01*
Y42222D01*
X21719D01*
Y43023D01*
X21682Y43207D01*
X21578Y43362D01*
X21423Y43466D01*
X21240Y43502D01*
D02*
G37*
G36*
X20130D02*
X19620D01*
X19437Y43466D01*
X19282Y43362D01*
X19178Y43207D01*
X19141Y43023D01*
Y42222D01*
X20130D01*
Y43502D01*
D02*
G37*
G36*
X21719Y41622D02*
X20730D01*
Y40341D01*
X21240D01*
X21423Y40377D01*
X21578Y40481D01*
X21682Y40637D01*
X21719Y40820D01*
Y41622D01*
D02*
G37*
G36*
X20130D02*
X19141D01*
Y40820D01*
X19178Y40637D01*
X19282Y40481D01*
X19437Y40377D01*
X19620Y40341D01*
X20130D01*
Y41622D01*
D02*
G37*
%LPD*%
G36*
X-8800Y48100D02*
X-8702Y48100D01*
X-8508Y48062D01*
X-8326Y47986D01*
X-8163Y47877D01*
X-8023Y47737D01*
X-7914Y47574D01*
X-7838Y47392D01*
X-7804Y47218D01*
X-7800Y47100D01*
Y47100D01*
X-7800D01*
X-7800Y47100D01*
Y46121D01*
X-7927Y46069D01*
X-8066Y46208D01*
X-8340Y46366D01*
X-8503Y46410D01*
Y45248D01*
Y44086D01*
X-8340Y44129D01*
X-8066Y44287D01*
X-7927Y44427D01*
X-7800Y44374D01*
X-7800Y40088D01*
X-7800Y39966D01*
X-7848Y39727D01*
X-7941Y39502D01*
X-8076Y39299D01*
X-8249Y39126D01*
X-8452Y38991D01*
X-8677Y38898D01*
X-8916Y38850D01*
X-9038Y38850D01*
X-9038Y38850D01*
Y38850D01*
X-12550D01*
X-12673Y38850D01*
X-12915Y38898D01*
X-13142Y38992D01*
X-13347Y39129D01*
X-13521Y39303D01*
X-13658Y39508D01*
X-13752Y39735D01*
X-13800Y39977D01*
X-13800Y40100D01*
X-13800Y40100D01*
Y46850D01*
Y46973D01*
X-13752Y47215D01*
X-13658Y47442D01*
X-13521Y47647D01*
X-13347Y47821D01*
X-13142Y47958D01*
X-12915Y48052D01*
X-12673Y48100D01*
X-12550D01*
X-12550Y48100D01*
X-8800Y48100D01*
D02*
G37*
%LPC*%
G36*
X-11603Y46410D02*
X-11766Y46366D01*
X-12040Y46208D01*
X-12263Y45985D01*
X-12421Y45711D01*
X-12465Y45548D01*
X-11603D01*
Y46410D01*
D02*
G37*
G36*
X-9103Y46410D02*
X-9266Y46366D01*
X-9540Y46208D01*
X-9763Y45985D01*
X-9921Y45711D01*
X-9987Y45464D01*
X-10119D01*
X-10185Y45711D01*
X-10343Y45985D01*
X-10566Y46208D01*
X-10840Y46366D01*
X-11003Y46410D01*
Y45248D01*
Y44086D01*
X-10840Y44129D01*
X-10566Y44287D01*
X-10343Y44511D01*
X-10185Y44785D01*
X-10119Y45031D01*
X-9987D01*
X-9921Y44785D01*
X-9763Y44511D01*
X-9540Y44287D01*
X-9266Y44129D01*
X-9103Y44086D01*
Y45248D01*
Y46410D01*
D02*
G37*
G36*
X-11603Y44948D02*
X-12465D01*
X-12421Y44785D01*
X-12263Y44511D01*
X-12040Y44287D01*
X-11766Y44129D01*
X-11603Y44086D01*
Y44948D01*
D02*
G37*
G36*
X-8623Y43502D02*
X-9133D01*
Y42222D01*
X-8144D01*
Y43023D01*
X-8181Y43207D01*
X-8285Y43362D01*
X-8440Y43466D01*
X-8623Y43502D01*
D02*
G37*
G36*
X-9733D02*
X-10243D01*
X-10426Y43466D01*
X-10581Y43362D01*
X-10685Y43207D01*
X-10722Y43023D01*
Y42222D01*
X-9733D01*
Y43502D01*
D02*
G37*
G36*
X-8144Y41622D02*
X-9133D01*
Y40341D01*
X-8623D01*
X-8440Y40377D01*
X-8285Y40481D01*
X-8181Y40637D01*
X-8144Y40820D01*
Y41622D01*
D02*
G37*
G36*
X-9733D02*
X-10722D01*
Y40820D01*
X-10685Y40637D01*
X-10581Y40481D01*
X-10426Y40377D01*
X-10243Y40341D01*
X-9733D01*
Y41622D01*
D02*
G37*
%LPD*%
G36*
X-23860Y48100D02*
X-23762Y48100D01*
X-23568Y48062D01*
X-23386Y47986D01*
X-23223Y47877D01*
X-23083Y47737D01*
X-22974Y47574D01*
X-22898Y47392D01*
X-22864Y47218D01*
X-22860Y47100D01*
Y47100D01*
X-22860D01*
X-22860Y47100D01*
Y46121D01*
X-22987Y46069D01*
X-23126Y46208D01*
X-23400Y46366D01*
X-23563Y46410D01*
Y45248D01*
Y44086D01*
X-23400Y44129D01*
X-23126Y44287D01*
X-22987Y44427D01*
X-22860Y44374D01*
X-22860Y40088D01*
X-22860Y39966D01*
X-22908Y39727D01*
X-23001Y39502D01*
X-23136Y39299D01*
X-23309Y39126D01*
X-23512Y38991D01*
X-23737Y38898D01*
X-23976Y38850D01*
X-24098Y38850D01*
X-24098Y38850D01*
Y38850D01*
X-27610D01*
X-27733Y38850D01*
X-27975Y38898D01*
X-28202Y38992D01*
X-28407Y39129D01*
X-28581Y39303D01*
X-28718Y39508D01*
X-28812Y39735D01*
X-28860Y39977D01*
X-28860Y40100D01*
X-28860Y40100D01*
Y46850D01*
Y46973D01*
X-28812Y47215D01*
X-28718Y47442D01*
X-28581Y47647D01*
X-28407Y47821D01*
X-28202Y47958D01*
X-27975Y48052D01*
X-27733Y48100D01*
X-27610D01*
X-27610Y48100D01*
X-23860Y48100D01*
D02*
G37*
%LPC*%
G36*
X-26663Y46410D02*
X-26826Y46366D01*
X-27100Y46208D01*
X-27323Y45985D01*
X-27481Y45711D01*
X-27525Y45548D01*
X-26663D01*
Y46410D01*
D02*
G37*
G36*
X-24163Y46410D02*
X-24326Y46366D01*
X-24600Y46208D01*
X-24823Y45985D01*
X-24981Y45711D01*
X-25047Y45464D01*
X-25179D01*
X-25245Y45711D01*
X-25403Y45985D01*
X-25626Y46208D01*
X-25900Y46366D01*
X-26063Y46410D01*
Y45248D01*
Y44086D01*
X-25900Y44129D01*
X-25626Y44287D01*
X-25403Y44511D01*
X-25245Y44785D01*
X-25179Y45031D01*
X-25047D01*
X-24981Y44785D01*
X-24823Y44511D01*
X-24600Y44287D01*
X-24326Y44129D01*
X-24163Y44086D01*
Y45248D01*
Y46410D01*
D02*
G37*
G36*
X-26663Y44948D02*
X-27525D01*
X-27481Y44785D01*
X-27323Y44511D01*
X-27100Y44287D01*
X-26826Y44129D01*
X-26663Y44086D01*
Y44948D01*
D02*
G37*
G36*
X-23683Y43502D02*
X-24193D01*
Y42222D01*
X-23204D01*
Y43023D01*
X-23241Y43207D01*
X-23345Y43362D01*
X-23500Y43466D01*
X-23683Y43502D01*
D02*
G37*
G36*
X-24793D02*
X-25303D01*
X-25486Y43466D01*
X-25641Y43362D01*
X-25745Y43207D01*
X-25782Y43023D01*
Y42222D01*
X-24793D01*
Y43502D01*
D02*
G37*
G36*
X-23204Y41622D02*
X-24193D01*
Y40341D01*
X-23683D01*
X-23500Y40377D01*
X-23345Y40481D01*
X-23241Y40637D01*
X-23204Y40820D01*
Y41622D01*
D02*
G37*
G36*
X-24793D02*
X-25782D01*
Y40820D01*
X-25745Y40637D01*
X-25641Y40481D01*
X-25486Y40377D01*
X-25303Y40341D01*
X-24793D01*
Y41622D01*
D02*
G37*
%LPD*%
G36*
X6003Y48100D02*
X6101Y48100D01*
X6294Y48062D01*
X6476Y47986D01*
X6640Y47877D01*
X6779Y47737D01*
X6889Y47574D01*
X6964Y47392D01*
X6999Y47218D01*
X7003Y47100D01*
Y47100D01*
X7003D01*
X7003Y47100D01*
Y46388D01*
X6893Y46324D01*
X6820Y46366D01*
X6657Y46410D01*
Y45248D01*
Y44086D01*
X6820Y44129D01*
X6893Y44171D01*
X7003Y44108D01*
X7003Y40088D01*
X7003Y39966D01*
X6955Y39727D01*
X6862Y39502D01*
X6726Y39299D01*
X6554Y39126D01*
X6351Y38991D01*
X6126Y38898D01*
X5886Y38850D01*
X5765Y38850D01*
X5765Y38850D01*
Y38850D01*
X2253D01*
X2130Y38850D01*
X1888Y38898D01*
X1661Y38992D01*
X1456Y39129D01*
X1282Y39303D01*
X1145Y39508D01*
X1051Y39735D01*
X1003Y39977D01*
X1003Y40100D01*
X1003Y40100D01*
Y46850D01*
Y46973D01*
X1051Y47215D01*
X1145Y47442D01*
X1282Y47647D01*
X1456Y47821D01*
X1661Y47958D01*
X1888Y48052D01*
X2130Y48100D01*
X2253D01*
X2253Y48100D01*
X6003Y48100D01*
D02*
G37*
%LPC*%
G36*
X3557Y46410D02*
X3394Y46366D01*
X3120Y46208D01*
X2897Y45985D01*
X2739Y45711D01*
X2695Y45548D01*
X3557D01*
Y46410D01*
D02*
G37*
G36*
X6057Y46410D02*
X5894Y46366D01*
X5620Y46208D01*
X5397Y45985D01*
X5239Y45711D01*
X5173Y45464D01*
X5041D01*
X4975Y45711D01*
X4817Y45985D01*
X4594Y46208D01*
X4320Y46366D01*
X4157Y46410D01*
Y45248D01*
Y44086D01*
X4320Y44129D01*
X4594Y44287D01*
X4817Y44511D01*
X4975Y44785D01*
X5041Y45031D01*
X5173D01*
X5239Y44785D01*
X5397Y44511D01*
X5620Y44287D01*
X5894Y44129D01*
X6057Y44086D01*
Y45248D01*
Y46410D01*
D02*
G37*
G36*
X3557Y44948D02*
X2695D01*
X2739Y44785D01*
X2897Y44511D01*
X3120Y44287D01*
X3394Y44129D01*
X3557Y44086D01*
Y44948D01*
D02*
G37*
G36*
X6179Y43502D02*
X5670D01*
Y42222D01*
X6658D01*
Y43023D01*
X6622Y43207D01*
X6518Y43362D01*
X6363Y43466D01*
X6179Y43502D01*
D02*
G37*
G36*
X5070D02*
X4560D01*
X4377Y43466D01*
X4221Y43362D01*
X4118Y43207D01*
X4081Y43023D01*
Y42222D01*
X5070D01*
Y43502D01*
D02*
G37*
G36*
X6658Y41622D02*
X5670D01*
Y40341D01*
X6179D01*
X6363Y40377D01*
X6518Y40481D01*
X6622Y40637D01*
X6658Y40820D01*
Y41622D01*
D02*
G37*
G36*
X5070D02*
X4081D01*
Y40820D01*
X4118Y40637D01*
X4221Y40481D01*
X4377Y40377D01*
X4560Y40341D01*
X5070D01*
Y41622D01*
D02*
G37*
%LPD*%
G36*
X19980Y-10895D02*
X20170Y-10973D01*
X20315Y-11118D01*
X20385Y-11287D01*
X20393Y-11410D01*
X20393Y-11410D01*
X20393Y-11410D01*
X20393Y-12561D01*
X20393Y-12643D01*
X20331Y-12794D01*
X20215Y-12910D01*
X20103Y-12956D01*
X19983Y-12972D01*
X16281Y-12972D01*
X16190Y-12972D01*
X16023Y-12903D01*
X15895Y-12775D01*
X15826Y-12607D01*
X15827Y-12517D01*
X15827Y-12388D01*
X15963D01*
Y-11577D01*
X16263D01*
Y-11277D01*
X17200D01*
Y-11123D01*
X17180Y-11022D01*
X17253Y-10895D01*
X19980Y-10895D01*
D02*
G37*
G36*
X-2732Y-10154D02*
X-2435Y-10184D01*
X-2431Y-10184D01*
X-1975D01*
Y-10230D01*
X-1947Y-10367D01*
X-1870Y-10483D01*
X-1754Y-10561D01*
X-1616Y-10588D01*
X-459D01*
X-322Y-10561D01*
X-206Y-10483D01*
X-128Y-10367D01*
X-101Y-10230D01*
Y-10184D01*
X242D01*
Y-10230D01*
X269Y-10367D01*
X347Y-10483D01*
X463Y-10561D01*
X600Y-10588D01*
X771D01*
Y-15369D01*
X734Y-15555D01*
X611Y-15739D01*
X428Y-15862D01*
X226Y-15902D01*
X211Y-15899D01*
X-164D01*
Y-15642D01*
X-189Y-15514D01*
X-262Y-15406D01*
X-370Y-15334D01*
X-498Y-15308D01*
X-1263D01*
X-1391Y-15334D01*
X-1499Y-15406D01*
X-1571Y-15514D01*
X-1597Y-15642D01*
Y-16917D01*
X-1571Y-17045D01*
X-1499Y-17153D01*
X-1391Y-17226D01*
X-1263Y-17251D01*
X-498D01*
X-370Y-17226D01*
X-262Y-17153D01*
X-189Y-17045D01*
X-164Y-16917D01*
Y-16714D01*
X211D01*
Y-16718D01*
X568Y-16671D01*
X665Y-16631D01*
X771Y-16701D01*
Y-19713D01*
X772Y-19719D01*
X745Y-19922D01*
X664Y-20118D01*
X536Y-20286D01*
X368Y-20415D01*
X172Y-20495D01*
X135Y-20500D01*
X46Y-20384D01*
X97Y-20261D01*
Y-20042D01*
X13Y-19840D01*
X-142Y-19685D01*
X-258Y-19637D01*
X-265Y-19616D01*
X-262Y-19498D01*
X-187Y-19448D01*
X-114Y-19340D01*
X-89Y-19212D01*
Y-17937D01*
X-114Y-17809D01*
X-187Y-17701D01*
X-295Y-17628D01*
X-423Y-17603D01*
X-1188D01*
X-1316Y-17628D01*
X-1424Y-17701D01*
X-1496Y-17809D01*
X-1522Y-17937D01*
Y-19212D01*
X-1496Y-19340D01*
X-1424Y-19448D01*
X-1316Y-19520D01*
X-1188Y-19546D01*
X-1139D01*
X-1133Y-19606D01*
X-1044Y-19899D01*
X-988Y-20004D01*
X-1003Y-20042D01*
Y-20261D01*
X-948Y-20394D01*
X-1028Y-20521D01*
X-5449D01*
Y-17349D01*
X-5444D01*
X-5495Y-16965D01*
X-5643Y-16608D01*
X-5878Y-16301D01*
X-6185Y-16066D01*
X-6273Y-16029D01*
Y-15642D01*
X-6298Y-15514D01*
X-6370Y-15406D01*
X-6479Y-15334D01*
X-6607Y-15308D01*
X-6793D01*
X-6849Y-15194D01*
X-6840Y-15183D01*
X-6773Y-15021D01*
X-6763Y-14942D01*
X-6660D01*
X-6523Y-14914D01*
X-6407Y-14837D01*
X-6329Y-14721D01*
X-6302Y-14584D01*
Y-13426D01*
X-6329Y-13289D01*
X-6407Y-13173D01*
X-6523Y-13095D01*
X-6660Y-13068D01*
X-6854D01*
Y-12732D01*
X-6727Y-12647D01*
X-6707Y-12651D01*
X-5617D01*
X-5535Y-12635D01*
X-5503Y-12614D01*
X-5323D01*
X-5318Y-12613D01*
X-5126Y-12587D01*
X-4942Y-12511D01*
X-4784Y-12390D01*
X-4663Y-12233D01*
X-4587Y-12049D01*
X-4562Y-11857D01*
X-4561Y-11852D01*
Y-10212D01*
X-4538Y-10190D01*
X-4420Y-10241D01*
X-4411Y-10254D01*
Y-10487D01*
X-4394Y-10569D01*
X-4352Y-10632D01*
X-4394Y-10695D01*
X-4411Y-10777D01*
Y-11137D01*
X-4394Y-11219D01*
X-4352Y-11282D01*
X-4394Y-11345D01*
X-4411Y-11427D01*
Y-11787D01*
X-4394Y-11869D01*
X-4382Y-11888D01*
X-4382Y-11888D01*
X-4348Y-11938D01*
X-4279Y-11985D01*
X-4197Y-12001D01*
X-3652D01*
Y-12257D01*
X-3152D01*
Y-12702D01*
X-3107D01*
X-3005Y-12682D01*
X-2919Y-12624D01*
X-2915Y-12618D01*
X-2788Y-12656D01*
Y-13098D01*
X-3066D01*
X-3204Y-13125D01*
X-3320Y-13203D01*
X-3397Y-13319D01*
X-3425Y-13456D01*
Y-14614D01*
X-3397Y-14751D01*
X-3320Y-14867D01*
X-3252Y-14912D01*
Y-15308D01*
X-3278D01*
X-3406Y-15334D01*
X-3514Y-15406D01*
X-3586Y-15514D01*
X-3612Y-15642D01*
Y-16917D01*
X-3586Y-17045D01*
X-3514Y-17153D01*
X-3406Y-17226D01*
X-3278Y-17251D01*
X-3177D01*
Y-17603D01*
X-3203D01*
X-3331Y-17628D01*
X-3439Y-17701D01*
X-3511Y-17809D01*
X-3537Y-17937D01*
Y-19212D01*
X-3511Y-19340D01*
X-3439Y-19448D01*
X-3331Y-19520D01*
X-3203Y-19546D01*
X-2438D01*
X-2310Y-19520D01*
X-2202Y-19448D01*
X-2129Y-19340D01*
X-2104Y-19212D01*
Y-17937D01*
X-2129Y-17809D01*
X-2202Y-17701D01*
X-2310Y-17628D01*
X-2438Y-17603D01*
X-2463D01*
Y-17241D01*
X-2385Y-17226D01*
X-2277Y-17153D01*
X-2204Y-17045D01*
X-2179Y-16917D01*
Y-15642D01*
X-2204Y-15514D01*
X-2277Y-15406D01*
X-2385Y-15334D01*
X-2513Y-15308D01*
X-2538D01*
Y-14972D01*
X-2159D01*
X-2022Y-14945D01*
X-1906Y-14867D01*
X-1835Y-14761D01*
X-1768Y-14754D01*
X-1701Y-14761D01*
X-1630Y-14867D01*
X-1514Y-14945D01*
X-1423Y-14963D01*
Y-14035D01*
Y-13107D01*
X-1514Y-13125D01*
X-1630Y-13203D01*
X-1701Y-13309D01*
X-1768Y-13316D01*
X-1835Y-13309D01*
X-1906Y-13203D01*
X-2022Y-13125D01*
X-2074Y-13115D01*
Y-11361D01*
X-2075Y-11356D01*
X-2100Y-11164D01*
X-2176Y-10981D01*
X-2297Y-10823D01*
X-2455Y-10702D01*
X-2638Y-10626D01*
X-2792Y-10606D01*
X-2879Y-10513D01*
X-2892Y-10487D01*
Y-10238D01*
X-2765Y-10144D01*
X-2732Y-10154D01*
D02*
G37*
G36*
X16274Y-23011D02*
X16274Y-23011D01*
X16274D01*
X16391Y-23020D01*
X16488Y-23040D01*
X16622Y-23095D01*
X16742Y-23175D01*
X16844Y-23277D01*
X16924Y-23397D01*
X16979Y-23531D01*
X17008Y-23673D01*
X17008Y-23745D01*
Y-24365D01*
X16820D01*
Y-25342D01*
Y-26320D01*
X17008D01*
Y-26604D01*
X17008Y-26604D01*
X17008Y-26682D01*
X16977Y-26836D01*
X16917Y-26981D01*
X16830Y-27111D01*
X16719Y-27222D01*
X16589Y-27309D01*
X16444Y-27369D01*
X16290Y-27400D01*
X11412Y-27400D01*
X11412Y-27400D01*
X11311Y-27400D01*
X11113Y-27361D01*
X10927Y-27284D01*
X10759Y-27172D01*
X10617Y-27029D01*
X10505Y-26861D01*
X10427Y-26675D01*
X10388Y-26477D01*
X10388Y-26377D01*
X10388Y-25849D01*
X10500Y-25789D01*
X10509Y-25795D01*
X10612Y-25838D01*
Y-24200D01*
X11362D01*
Y-23450D01*
X12999D01*
X12957Y-23347D01*
X12817Y-23138D01*
X12885Y-23011D01*
X16274D01*
X16274Y-23011D01*
D02*
G37*
%LPC*%
G36*
X17200Y-11877D02*
X16563D01*
Y-12388D01*
X16842D01*
X16979Y-12361D01*
X17095Y-12283D01*
X17173Y-12167D01*
X17200Y-12030D01*
Y-11877D01*
D02*
G37*
G36*
X-423Y-13107D02*
Y-13535D01*
X-111D01*
Y-13456D01*
X-138Y-13319D01*
X-216Y-13203D01*
X-332Y-13125D01*
X-423Y-13107D01*
D02*
G37*
G36*
X-111Y-14535D02*
X-423D01*
Y-14963D01*
X-332Y-14945D01*
X-216Y-14867D01*
X-138Y-14751D01*
X-111Y-14614D01*
Y-14535D01*
D02*
G37*
G36*
X16220Y-24365D02*
X15143D01*
X14990Y-24395D01*
X14860Y-24482D01*
X14773Y-24612D01*
X14743Y-24765D01*
Y-25042D01*
X16220D01*
Y-24365D01*
D02*
G37*
G36*
X12999Y-24950D02*
X12112D01*
Y-25838D01*
X12214Y-25795D01*
X12509Y-25598D01*
X12760Y-25347D01*
X12957Y-25053D01*
X12999Y-24950D01*
D02*
G37*
G36*
X16220Y-25642D02*
X14743D01*
Y-25920D01*
X14773Y-26073D01*
X14860Y-26203D01*
X14990Y-26290D01*
X15143Y-26320D01*
X16220D01*
Y-25642D01*
D02*
G37*
%LPD*%
D12*
X14692Y-15075D02*
G03*
X14480Y-15287I0J-212D01*
G01*
X16209Y-15080D02*
G03*
X16420Y-14869I0J211D01*
G01*
X14692Y-15075D02*
X14693Y-15075D01*
X14480Y-16305D02*
Y-15287D01*
X14693Y-15075D02*
X16209D01*
Y-15080D02*
Y-15075D01*
X16420Y-14869D02*
Y-14010D01*
D14*
X-37Y-20929D02*
G03*
X1179Y-19713I0J1216D01*
G01*
X-3233Y-9445D02*
G03*
X-2431Y-9777I801J801D01*
G01*
X2214Y-10127D02*
G03*
X1367Y-9777I-846J-846D01*
G01*
X2214Y-10127D02*
G03*
X3401Y-10619I1187J1187D01*
G01*
X-10019Y-15590D02*
G03*
X-10763Y-13794I-2540J0D01*
G01*
X11701Y-10895D02*
G03*
X10808Y-10619I-893J-1308D01*
G01*
X-11828Y-12729D02*
G03*
X-12579Y-12418I-751J-751D01*
G01*
X-13424Y-12418D02*
G03*
X-14570Y-12893I0J-1620D01*
G01*
X211Y-16306D02*
G03*
X1179Y-15339I0J968D01*
G01*
X-5857Y-17349D02*
G03*
X-6926Y-16280I-1069J0D01*
G01*
X-5887Y-20929D02*
G03*
X-5857Y-20899I0J30D01*
G01*
X-10019Y-19629D02*
G03*
X-8720Y-20929I1299J0D01*
G01*
X-14578Y-12901D02*
G03*
X-15037Y-14010I1109J-1109D01*
G01*
X-3129Y-8202D02*
Y-5900D01*
X-2431Y-9777D02*
X-1038D01*
X1179D01*
X1367D01*
X3401Y-10619D02*
X10808D01*
X-10019Y-19629D02*
Y-15590D01*
X-12579Y-12418D02*
Y-12418D01*
X-13424Y-12418D02*
X-12579D01*
X-11828Y-12729D02*
X-10763Y-13794D01*
X-854Y-16306D02*
X211D01*
X-5887Y-20929D02*
X-37D01*
X-6989Y-16280D02*
X-6926D01*
X-5857Y-20899D02*
Y-17349D01*
X-8720Y-20929D02*
X-5887D01*
X1179Y-19713D02*
Y-15339D01*
Y-10177D01*
D40*
X36362Y-24200D02*
D03*
X28762D02*
D03*
X-36400Y-24200D02*
D03*
X-28800D02*
D03*
D44*
X30965Y1337D02*
G03*
X31165Y1820I-483J483D01*
G01*
X11471Y1307D02*
G03*
X11671Y1790I-483J483D01*
G01*
X-8060Y1335D02*
G03*
X-7860Y1818I-483J483D01*
G01*
X-27466Y1315D02*
G03*
X-27266Y1798I-483J483D01*
G01*
X5490Y-21300D02*
G03*
X5681Y-21109I0J191D01*
G01*
X6895Y-23159D02*
G03*
X6666Y-22605I-783J0D01*
G01*
X6453Y-22092D02*
G03*
X6666Y-22605I725J0D01*
G01*
X6895Y-27518D02*
G03*
X7592Y-29200I2379J0D01*
G01*
X2484Y-29425D02*
G03*
X688Y-28681I-1796J-1796D01*
G01*
X10117Y-31140D02*
G03*
X10267Y-30558I-1057J583D01*
G01*
X8626Y-31888D02*
G03*
X9895Y-31362I0J1795D01*
G01*
X4204Y-31144D02*
G03*
X6000Y-31888I1796J1796D01*
G01*
X-29700Y-33228D02*
G03*
X-29723Y-33206I-23J0D01*
G01*
X-31609D02*
G03*
X-31964Y-33561I0J-355D01*
G01*
X-32449Y-36186D02*
G03*
X-31964Y-35700I0J486D01*
G01*
X-35250Y-35400D02*
G03*
X-34464Y-36186I786J0D01*
G01*
X-15471Y-49121D02*
G03*
X-13675Y-48377I0J2540D01*
G01*
X14480Y-18594D02*
G03*
X13992Y-18392I-488J-488D01*
G01*
X-8678Y-12301D02*
G03*
X-8651Y-12235I-65J65D01*
G01*
X-7114Y-9988D02*
G03*
X-6794Y-10308I320J0D01*
G01*
X-6134Y-5900D02*
G03*
X-7106Y-6871I0J-971D01*
G01*
X-6006Y-43773D02*
G03*
X-6525Y-45026I1253J-1253D01*
G01*
Y-45300D02*
G03*
X-7095Y-45536I0J-806D01*
G01*
X-8095Y-46100D02*
G03*
X-7350Y-45791I0J1054D01*
G01*
X-6006Y-43773D02*
G03*
X-5500Y-42552I-1222J1222D01*
G01*
X-810Y-46100D02*
G03*
X125Y-45713I0J1323D01*
G01*
X-2187Y-44556D02*
G03*
X-391Y-45300I1796J1796D01*
G01*
X-5323Y-12257D02*
G03*
X-4918Y-11852I0J405D01*
G01*
Y-8428D02*
G03*
X-5144Y-8202I-227J0D01*
G01*
X-20943Y-21890D02*
G03*
X-22740Y-21146I-1796J-1796D01*
G01*
X-7210Y-13909D02*
G03*
X-7114Y-14005I96J0D01*
G01*
X-6816Y-11607D02*
G03*
X-7210Y-12001I0J-394D01*
G01*
X-9004Y-16683D02*
G03*
X-8747Y-17305I879J0D01*
G01*
X-7425Y-15165D02*
G03*
X-7106Y-14846I0J319D01*
G01*
X-8629Y-15165D02*
G03*
X-9004Y-15540I0J-375D01*
G01*
X-805Y-19302D02*
G03*
X-453Y-20152I1202J0D01*
G01*
X208Y-27400D02*
G03*
X163Y-27355I-45J0D01*
G01*
X-2778Y-14035D02*
G03*
X-2895Y-14319I284J-284D01*
G01*
X-2613Y-14035D02*
G03*
X-2431Y-13853I0J182D01*
G01*
Y-11361D02*
G03*
X-2835Y-10957I-404J0D01*
G01*
X11334Y-11708D02*
G03*
X10224Y-11248I-1110J-1110D01*
G01*
X13270Y-12997D02*
G03*
X14283Y-14010I1013J0D01*
G01*
X13013Y-11542D02*
G03*
X12275Y-13323I1781J-1781D01*
G01*
X15987Y-19950D02*
G03*
X16495Y-19441I0J508D01*
G01*
X18815Y-22963D02*
G03*
X17019Y-22219I-1796J-1796D01*
G01*
X32096Y-33719D02*
G03*
X31605Y-33228I-491J0D01*
G01*
X35430Y-35364D02*
G03*
X33634Y-36108I0J-2540D01*
G01*
X32096Y-35881D02*
G03*
X32401Y-36186I305J0D01*
G01*
X10338Y-21297D02*
G03*
X11260Y-22219I923J0D01*
G01*
X29862Y-37428D02*
G03*
X31009Y-37904I1147J1147D01*
G01*
X34227D02*
G03*
X36023Y-37160I0J2540D01*
G01*
X2033Y-27311D02*
G03*
X237Y-26567I-1796J-1796D01*
G01*
X-4683Y-24628D02*
G03*
X-2743Y-26567I1939J0D01*
G01*
X7926Y-21050D02*
G03*
X8292Y-21934I1250J0D01*
G01*
X8067Y-16417D02*
G03*
X8230Y-16176I-545J545D01*
G01*
X8067Y-16417D02*
G03*
X7926Y-16993I1110J-576D01*
G01*
X8659Y-28239D02*
G03*
X9057Y-29200I1359J0D01*
G01*
X8637Y-31179D02*
G03*
X9573Y-30244I0J936D01*
G01*
X8659Y-22818D02*
G03*
X8292Y-21934I-1250J0D01*
G01*
X-13788Y-21181D02*
G03*
X-11992Y-21925I1796J1796D01*
G01*
X-73Y-22669D02*
G03*
X-1869Y-21925I-1796J-1796D01*
G01*
X-15037Y-18986D02*
G03*
X-14369Y-20600I2283J0D01*
G01*
X6221Y-30436D02*
G03*
X8017Y-31179I1796J1796D01*
G01*
X1400Y-25053D02*
G03*
X756Y-23498I-2198J0D01*
G01*
X1400Y-25053D02*
G03*
X1798Y-26012I1357J0D01*
G01*
X10831Y-12651D02*
G03*
X10079Y-11944I-752J-47D01*
G01*
X7727D02*
G03*
X7022Y-12649I0J-705D01*
G01*
Y-20714D02*
G03*
X7673Y-22284I2220J0D01*
G01*
X7822Y-22645D02*
G03*
X7673Y-22284I-511J0D01*
G01*
X-4683Y-23790D02*
G03*
X-5083Y-22824I-1366J0D01*
G01*
X-7210Y-17558D02*
G03*
X-7434Y-17466I-223J-223D01*
G01*
X-6989Y-18093D02*
G03*
X-7210Y-17558I-756J0D01*
G01*
X-8747Y-17305D02*
G03*
X-8358Y-17466I389J389D01*
G01*
X-6989Y-19559D02*
G03*
X-6735Y-20173I868J0D01*
G01*
X-30548Y-37428D02*
G03*
X-32313Y-38160I0J-2497D01*
G01*
X-34159Y-38953D02*
G03*
X-32363Y-38210I0J2540D01*
G01*
X11928Y-11083D02*
G03*
X11701Y-10895I-1120J-1120D01*
G01*
X5067Y-11248D02*
G03*
X4482Y-11832I0J-585D01*
G01*
X3847Y-31896D02*
G03*
X5643Y-32640I1796J1796D01*
G01*
X2166Y-30215D02*
G03*
X1472Y-29928I-694J-694D01*
G01*
X11113Y-30667D02*
G03*
X10541Y-29285I-1954J0D01*
G01*
X10615Y-31888D02*
G03*
X11113Y-30685I-1202J1202D01*
G01*
X8919Y-32640D02*
G03*
X10531Y-31972I0J2281D01*
G01*
X9295Y-26987D02*
G03*
X10039Y-28783I2540J0D01*
G01*
X9573Y-30244D02*
G03*
X9200Y-29343I-1274J0D01*
G01*
X8510Y-19081D02*
G03*
X9254Y-20877I2540J0D01*
G01*
X8230Y-16176D02*
G03*
X8292Y-15872I-708J304D01*
G01*
X9307Y-16030D02*
G03*
X9562Y-15414I-616J616D01*
G01*
X9019Y-16318D02*
G03*
X8510Y-17546I1229J-1229D01*
G01*
X6066Y-27906D02*
G03*
X6810Y-29702I2540J0D01*
G01*
X6066Y-23501D02*
G03*
X5699Y-22614I-1255J0D01*
G01*
X5490Y-22110D02*
G03*
X5699Y-22614I713J0D01*
G01*
X-9004Y-18569D02*
G03*
X-8474Y-19848I1810J0D01*
G01*
X-5500Y-24267D02*
G03*
X-6098Y-22824I-2041J0D01*
G01*
X-3719Y-27400D02*
G03*
X-4822Y-28503I0J-1103D01*
G01*
Y-40869D02*
G03*
X-4078Y-42666I2540J0D01*
G01*
X-9012Y-16588D02*
G03*
X-9129Y-16305I-401J0D01*
G01*
X-2820Y-16461D02*
G03*
X-2895Y-16280I-256J0D01*
G01*
X31165Y1820D02*
Y3142D01*
X32980Y1337D02*
X33178Y1535D01*
Y3132D01*
X11671Y1790D02*
Y3112D01*
X13486Y1307D02*
X13684Y1505D01*
Y3102D01*
X-7860Y1818D02*
Y3140D01*
X-6045Y1335D02*
X-5847Y1533D01*
Y3130D01*
X-25253Y1513D02*
Y3111D01*
X-25451Y1315D02*
X-25253Y1513D01*
X-27266Y1798D02*
Y3121D01*
X10338Y-21297D02*
Y-18660D01*
X10257Y-18580D02*
X10338Y-18660D01*
X3700Y-18735D02*
X3779D01*
X4471Y-17685D02*
X4750Y-17407D01*
X4445Y-17685D02*
X4471D01*
X3779Y-18735D02*
X4129Y-18385D01*
Y-18001D01*
X4445Y-17685D01*
X4750Y-17407D02*
Y-17159D01*
X5490Y-20950D02*
Y-19528D01*
X3700Y-18735D02*
X3900D01*
X4696D02*
X5490Y-19528D01*
X3900Y-18735D02*
X4696D01*
X5490Y-22110D02*
Y-21300D01*
X4750Y-17159D02*
X5756Y-16153D01*
Y-13578D01*
X6895Y-27518D02*
Y-23159D01*
X6453Y-22092D02*
Y-18338D01*
X468Y-28681D02*
X688D01*
X9895Y-31362D02*
X10117Y-31140D01*
X6000Y-31888D02*
X8626D01*
X2484Y-29425D02*
X4204Y-31144D01*
X-31609Y-33206D02*
X-29723D01*
X-31964Y-35700D02*
Y-33561D01*
X-33429Y-36186D02*
X-32449D01*
X-34464D02*
X-33429D01*
X-13675Y-48377D02*
X-12283Y-46985D01*
X-23076Y-49121D02*
X-15471D01*
X5900Y-17785D02*
X6453Y-18338D01*
X12275Y-15590D02*
Y-13323D01*
X13312Y-19950D02*
X15987D01*
X12793Y-19430D02*
X13312Y-19950D01*
X13624Y-17416D02*
X14480Y-16560D01*
X13302Y-17416D02*
X13624D01*
X13225Y-17493D02*
X13302Y-17416D01*
X13183Y-18392D02*
X13992D01*
X12275Y-15590D02*
X12277Y-15592D01*
X14480Y-16560D02*
Y-16305D01*
X-11641Y-15251D02*
X-10980Y-15912D01*
X-13022Y-16416D02*
X-12662Y-16776D01*
X-13022Y-16416D02*
Y-16280D01*
X-10980Y-15912D02*
X-10979D01*
X-11209Y-16776D02*
X-11200Y-16785D01*
X-12662Y-16776D02*
X-11209D01*
X-11641Y-15251D02*
Y-14582D01*
X-12213Y-14010D02*
X-11641Y-14582D01*
X-13022Y-14010D02*
X-12213D01*
X-8651Y-12235D02*
Y-10239D01*
X-4918Y-11852D02*
Y-8428D01*
X-6794Y-10308D02*
X-6162D01*
X-7106Y-8214D02*
Y-6871D01*
X-7114Y-9988D02*
Y-8214D01*
X-6162Y-10308D02*
Y-10307D01*
X-6134Y-5900D02*
X-5144D01*
X-7114Y-8214D02*
X-7106D01*
X-6525Y-45300D02*
Y-45026D01*
X-7350Y-45791D02*
X-7095Y-45536D01*
X-9000Y-46100D02*
X-8095D01*
X-5500Y-42552D02*
Y-24267D01*
X-4078Y-42666D02*
X-2187Y-44556D01*
X-391Y-45300D02*
X74D01*
X-2370Y-46100D02*
X-810D01*
X-6162Y-12257D02*
X-5323D01*
X-23698Y-21146D02*
X-22740D01*
X-20943Y-21890D02*
X-20767Y-22066D01*
X-7114Y-14846D02*
Y-14005D01*
X-7210Y-13909D02*
Y-12001D01*
X-6816Y-11607D02*
X-6162D01*
X-7114Y-14846D02*
X-7106D01*
X-8629Y-15165D02*
X-7425D01*
X-9004Y-16683D02*
Y-16280D01*
Y-15540D01*
X-453Y-20152D02*
Y-20141D01*
X-3719Y-27400D02*
X208D01*
X-2895Y-16280D02*
Y-14319D01*
X-2431Y-13853D02*
Y-11361D01*
X-3652Y-10957D02*
X-2835D01*
X5067Y-11248D02*
X10224D01*
X11334Y-11708D02*
X11680Y-12054D01*
X14283Y-14010D02*
X14405D01*
X16495Y-19441D02*
Y-18594D01*
X18815Y-22963D02*
X18987Y-23135D01*
X11260Y-22219D02*
X17019D01*
X29862Y-33228D02*
X31605D01*
X35430Y-35364D02*
X36229D01*
X32096Y-35881D02*
Y-33719D01*
X33556Y-36186D02*
X33634Y-36108D01*
X32401Y-36186D02*
X33556D01*
X31009Y-37904D02*
X34227D01*
X36023Y-37160D02*
X36229Y-36953D01*
X7822Y-27800D02*
Y-22645D01*
X2033Y-27311D02*
X2651Y-27929D01*
X-2743Y-26567D02*
X237D01*
X7926Y-21050D02*
Y-16993D01*
X9057Y-29200D02*
X9200Y-29343D01*
X8659Y-28239D02*
Y-22818D01*
X8017Y-31179D02*
X8637D01*
X-14369Y-20600D02*
X-13788Y-21181D01*
X-11992Y-21925D02*
X-1869D01*
X-15037Y-18986D02*
Y-18569D01*
X1798Y-26012D02*
X2865Y-27080D01*
X4145Y-28360D02*
X6221Y-30436D01*
X-73Y-22669D02*
X756Y-23498D01*
X2865Y-27080D02*
X4145Y-28360D01*
X7727Y-11944D02*
X10079D01*
X10831Y-12651D02*
Y-12651D01*
Y-12651D02*
X10832Y-13586D01*
X7022Y-20714D02*
Y-12649D01*
X-4683Y-24628D02*
Y-23790D01*
X-8358Y-17466D02*
X-7434D01*
X-6989Y-19559D02*
Y-18569D01*
Y-18093D01*
X-30548Y-37428D02*
X-29700D01*
X-32363Y-38210D02*
X-32313Y-38160D01*
X-36050Y-38953D02*
X-34159D01*
X4482Y-13586D02*
Y-11832D01*
X5643Y-32640D02*
X8919D01*
X2166Y-30215D02*
X3847Y-31896D01*
X928Y-29928D02*
X1472D01*
X11113Y-30685D02*
Y-30667D01*
X10531Y-31972D02*
X10615Y-31888D01*
X10039Y-28783D02*
X10541Y-29285D01*
X7592Y-29200D02*
X8590Y-30199D01*
X9295Y-26987D02*
Y-26290D01*
X9254Y-20877D02*
X9302Y-20925D01*
X9295Y-26290D02*
X9302Y-26282D01*
Y-20925D01*
X8292Y-15872D02*
Y-13586D01*
X8510Y-19081D02*
Y-17546D01*
X9019Y-16318D02*
X9307Y-16030D01*
X6810Y-29702D02*
X7361Y-30253D01*
X6066Y-27906D02*
Y-23501D01*
X-8474Y-19848D02*
X-8150Y-20173D01*
X-805Y-19302D02*
Y-18574D01*
X-4822Y-40869D02*
Y-28503D01*
X9562Y-15414D02*
Y-13586D01*
X-2820Y-18574D02*
Y-16461D01*
D47*
X-3397Y-9669D02*
G03*
X-3652Y-10283I614J-614D01*
G01*
X-3233Y-9445D02*
G03*
X-3129Y-9022I-812J422D01*
G01*
X-3397Y-9669D02*
G03*
X-3233Y-9445I-647J647D01*
G01*
X13013Y-11542D02*
G03*
X13433Y-11576I420J2505D01*
G01*
X11928Y-11083D02*
G03*
X13013Y-11542I1505J2046D01*
G01*
X4261Y-49041D02*
G03*
X4291Y-49114I102J0D01*
G01*
X11636Y-10833D02*
G03*
X11701Y-10895I1796J1796D01*
G01*
D02*
G03*
X11928Y-11083I1732J1858D01*
G01*
X10832Y-9700D02*
G03*
X11065Y-10261I794J0D01*
G01*
X19114Y-12419D02*
G03*
X18852Y-12157I-262J0D01*
G01*
X-880Y-16280D02*
G03*
X-854Y-16306I27J0D01*
G01*
X-15568Y-16500D02*
G03*
X-15037Y-16280I0J751D01*
G01*
X16818Y-15982D02*
G03*
X16495Y-16305I0J-323D01*
G01*
X-23562Y10653D02*
G03*
X-23501Y10678I0J85D01*
G01*
X-13022Y-18569D02*
Y-16280D01*
X-3652Y-10307D02*
Y-10283D01*
X-3129Y-9022D02*
Y-8202D01*
X13433Y-11576D02*
X14013D01*
X4261Y-49041D02*
Y-46100D01*
X32976Y10648D02*
X34865D01*
X30961D02*
Y12699D01*
X13484Y10648D02*
X15373D01*
X11469D02*
Y12699D01*
X-8025Y10653D02*
Y12704D01*
X-27466Y10653D02*
Y12704D01*
X10832Y-9700D02*
Y-8736D01*
X11065Y-10261D02*
X11636Y-10833D01*
X-16636Y-16500D02*
X-15568D01*
X16818Y-15982D02*
X17865D01*
X14013Y-11576D02*
X16263D01*
X28751Y6010D02*
Y13336D01*
X9259Y6010D02*
Y13336D01*
X-6010Y10653D02*
X-4121D01*
X-25451D02*
X-23562D01*
X-10279Y6010D02*
Y13336D01*
X-29676Y6010D02*
Y13336D01*
D57*
X-7114Y-8214D02*
D03*
X-8804D02*
D03*
X-7114Y-14005D02*
D03*
X-8804D02*
D03*
X34915Y10660D02*
D03*
X36605D02*
D03*
X15458Y10649D02*
D03*
X17148D02*
D03*
X-2613Y-14035D02*
D03*
X-923D02*
D03*
X-4121Y10678D02*
D03*
X-2431D02*
D03*
X-23501D02*
D03*
X-21811D02*
D03*
D61*
X16520Y-31992D02*
D03*
Y-25342D02*
D03*
D62*
X30965Y1337D02*
D03*
X32980D02*
D03*
X11471Y1307D02*
D03*
X13486D02*
D03*
X-8060Y1335D02*
D03*
X-6045D02*
D03*
X-27466Y1315D02*
D03*
X-25451D02*
D03*
X-5144Y-8202D02*
D03*
X-3129D02*
D03*
X-6989Y-16280D02*
D03*
X-9004D02*
D03*
X-5144Y-5900D02*
D03*
X-3129D02*
D03*
X3475Y-20950D02*
D03*
X5490D02*
D03*
X9302Y-20925D02*
D03*
X11317D02*
D03*
X14480Y-16305D02*
D03*
X16495D02*
D03*
X-13022Y-14010D02*
D03*
X-15037D02*
D03*
X-9004Y-18569D02*
D03*
X-6989D02*
D03*
X-2895Y-16280D02*
D03*
X-880D02*
D03*
X-805Y-18574D02*
D03*
X-2820D02*
D03*
X14405Y-14010D02*
D03*
X16420D02*
D03*
X16495Y-18594D02*
D03*
X14480D02*
D03*
X30961Y10648D02*
D03*
X32976D02*
D03*
X11469D02*
D03*
X13484D02*
D03*
X-8025Y10653D02*
D03*
X-6010D02*
D03*
X-13022Y-16280D02*
D03*
X-15037D02*
D03*
X-13022Y-18569D02*
D03*
X-15037D02*
D03*
X-27466Y10653D02*
D03*
X-25451D02*
D03*
D66*
X-33429Y-32426D02*
D03*
Y-36186D02*
D03*
X33556D02*
D03*
Y-32426D02*
D03*
D67*
X-1038Y-8087D02*
D03*
Y-9777D02*
D03*
X1179Y-8087D02*
D03*
Y-9777D02*
D03*
X14013Y-9887D02*
D03*
Y-11576D02*
D03*
X16263Y-9887D02*
D03*
Y-11576D02*
D03*
D69*
X18198Y-45000D02*
D03*
X25398D02*
D03*
X34262Y-15350D02*
D03*
Y-8150D02*
D03*
X-18295Y-45000D02*
D03*
X-25495D02*
D03*
X-34300Y-15600D02*
D03*
Y-8400D02*
D03*
D70*
X-26363Y45248D02*
D03*
X-21363D02*
D03*
X-23863D02*
D03*
X-18863D02*
D03*
X-11303D02*
D03*
X-6303D02*
D03*
X-8803D02*
D03*
X-3803D02*
D03*
X11357D02*
D03*
X6357D02*
D03*
X8857D02*
D03*
X3857D02*
D03*
X26317D02*
D03*
X21317D02*
D03*
X23817D02*
D03*
X18817D02*
D03*
D71*
X-4370Y-46100D02*
D03*
X36229Y-32475D02*
D03*
X-36050Y-30475D02*
D03*
X36229Y-38953D02*
D03*
X-36050Y-36953D02*
D03*
X-11000Y-46100D02*
D03*
X2261D02*
D03*
X8891D02*
D03*
D72*
X-2370D02*
D03*
X-9000D02*
D03*
X4261D02*
D03*
X10891D02*
D03*
D73*
X3762Y-24200D02*
D03*
X11362D02*
D03*
X-1800Y-24200D02*
D03*
X-9400D02*
D03*
D74*
X36229Y-30475D02*
D03*
X-36050Y-32475D02*
D03*
X36229Y-36953D02*
D03*
X-36050Y-38953D02*
D03*
D75*
X-35000Y-45000D02*
D03*
Y45000D02*
D03*
X35000Y-45000D02*
D03*
X35000Y45000D02*
D03*
D76*
X31165Y3142D02*
D03*
X11671Y3112D02*
D03*
X-7860Y3140D02*
D03*
X-27266Y3121D02*
D03*
X33178Y3132D02*
D03*
X13684Y3102D02*
D03*
X-5847Y3130D02*
D03*
X-25253Y3111D02*
D03*
X17672Y-13827D02*
D03*
X12793Y-19430D02*
D03*
X13152Y-16282D02*
D03*
X13183Y-18392D02*
D03*
X13225Y-17493D02*
D03*
X12275Y-15590D02*
D03*
X-11200Y-16785D02*
D03*
X-10979Y-15912D02*
D03*
X-11005Y-18280D02*
D03*
X-8651Y-10239D02*
D03*
X-8678Y-12301D02*
D03*
X-4922Y-9700D02*
D03*
X13270Y-12997D02*
D03*
X11680Y-12054D02*
D03*
X-23076Y-49121D02*
D03*
X18987Y-23135D02*
D03*
X12013Y-34162D02*
D03*
X11147Y-34088D02*
D03*
X36229Y-35364D02*
D03*
X2651Y-27929D02*
D03*
X-23698Y-21146D02*
D03*
X-20767Y-22066D02*
D03*
X-12283Y-46985D02*
D03*
X-35250Y-35400D02*
D03*
X10267Y-30558D02*
D03*
X8590Y-30199D02*
D03*
X468Y-28681D02*
D03*
X-453Y-20152D02*
D03*
X7822Y-27800D02*
D03*
X-5083Y-22824D02*
D03*
X-6935Y-20173D02*
D03*
X928Y-29928D02*
D03*
X208Y-27400D02*
D03*
X-6098Y-22824D02*
D03*
X-8150Y-20173D02*
D03*
X7361Y-30253D02*
D03*
D77*
X-11134Y-9625D02*
D03*
Y-10973D02*
D03*
X-12482Y-9625D02*
D03*
Y-10973D02*
D03*
X-16526D02*
D03*
X-15178D02*
D03*
X-13830D02*
D03*
X-15178Y-9625D02*
D03*
X-13830D02*
D03*
X-16526D02*
D03*
X-5195Y-14235D02*
D03*
X-5192Y-15481D02*
D03*
X20Y-12657D02*
D03*
X52Y-13891D02*
D03*
X12268Y-9564D02*
D03*
X18020Y-9477D02*
D03*
X19143D02*
D03*
X20266D02*
D03*
X21388D02*
D03*
X21472Y-24047D02*
D03*
X20749Y-23003D02*
D03*
X21472Y-22029D02*
D03*
X20058Y-22036D02*
D03*
X-4188Y-16344D02*
D03*
X2140Y-14650D02*
D03*
Y-15854D02*
D03*
X2240Y-17001D02*
D03*
X-2236Y-29781D02*
D03*
X-3602D02*
D03*
X-2003Y-42251D02*
D03*
X728Y-39521D02*
D03*
X-638D02*
D03*
X728Y-40886D02*
D03*
X-638D02*
D03*
Y-43617D02*
D03*
Y-42251D02*
D03*
X728D02*
D03*
Y-43617D02*
D03*
X-7647Y-40474D02*
D03*
X-9012Y-41839D02*
D03*
X-7647D02*
D03*
Y-44570D02*
D03*
Y-43204D02*
D03*
X-10378Y-44570D02*
D03*
Y-43204D02*
D03*
X-9012D02*
D03*
Y-44570D02*
D03*
X17887Y-40974D02*
D03*
Y-39608D02*
D03*
Y-38243D02*
D03*
X8555Y-42651D02*
D03*
Y-34459D02*
D03*
X-1002D02*
D03*
X363D02*
D03*
X1729D02*
D03*
X3094D02*
D03*
X4459D02*
D03*
X7190D02*
D03*
X5825D02*
D03*
X7190Y-35825D02*
D03*
X5825D02*
D03*
X7190Y-37190D02*
D03*
X5825D02*
D03*
X3494Y-44017D02*
D03*
Y-42651D02*
D03*
X4659D02*
D03*
Y-44017D02*
D03*
X5825D02*
D03*
Y-42651D02*
D03*
Y-41286D02*
D03*
Y-39921D02*
D03*
Y-38555D02*
D03*
X7190Y-41286D02*
D03*
Y-39921D02*
D03*
Y-38555D02*
D03*
Y-42651D02*
D03*
Y-44017D02*
D03*
X17887Y-37127D02*
D03*
Y-35761D02*
D03*
Y-34396D02*
D03*
X20618Y-34296D02*
D03*
X19253D02*
D03*
Y-32931D02*
D03*
X20618D02*
D03*
Y-38243D02*
D03*
X19253D02*
D03*
Y-39608D02*
D03*
X20618D02*
D03*
Y-40974D02*
D03*
X19253D02*
D03*
X16987D02*
D03*
X15622D02*
D03*
X14257Y-46435D02*
D03*
Y-45070D02*
D03*
X12891Y-39608D02*
D03*
X14257Y-40974D02*
D03*
Y-42339D02*
D03*
Y-43704D02*
D03*
X11526D02*
D03*
X12891Y-40974D02*
D03*
Y-42339D02*
D03*
Y-43704D02*
D03*
Y-45070D02*
D03*
Y-46435D02*
D03*
X-16510Y-34471D02*
D03*
X-17858D02*
D03*
X-15162Y-37167D02*
D03*
Y-35819D02*
D03*
X-19206Y-37167D02*
D03*
Y-35819D02*
D03*
X-15162Y-34471D02*
D03*
X-19206D02*
D03*
Y-33123D02*
D03*
X-15162D02*
D03*
Y-31775D02*
D03*
X-19206D02*
D03*
X-15162Y-30427D02*
D03*
X-19206D02*
D03*
X-15162Y-29079D02*
D03*
X-19206D02*
D03*
X-15162Y-27730D02*
D03*
X-16510D02*
D03*
X-17858D02*
D03*
X-19206D02*
D03*
X-15162Y-26382D02*
D03*
X-16510D02*
D03*
X-17858D02*
D03*
X-19206D02*
D03*
X-17858Y-22338D02*
D03*
X-15162D02*
D03*
X-16510D02*
D03*
X-15162Y-25034D02*
D03*
X-16510D02*
D03*
X-17858D02*
D03*
X-19206D02*
D03*
X-15162Y-23686D02*
D03*
X-16510D02*
D03*
X-17858D02*
D03*
X-19206D02*
D03*
X4291Y-49114D02*
D03*
X-23466Y-9445D02*
D03*
X-22166D02*
D03*
X30961Y12699D02*
D03*
X11469D02*
D03*
X-8025Y12704D02*
D03*
X-27466D02*
D03*
X-4188Y-14808D02*
D03*
X19585Y-11435D02*
D03*
X22511Y-9477D02*
D03*
X23634D02*
D03*
X24757D02*
D03*
X25879D02*
D03*
X27002D02*
D03*
X28125D02*
D03*
X30470Y-10600D02*
D03*
Y-7232D02*
D03*
X29247Y-8354D02*
D03*
Y-9477D02*
D03*
X30470D02*
D03*
Y-8354D02*
D03*
X18752Y-12157D02*
D03*
X17875Y-11439D02*
D03*
X28751Y13336D02*
D03*
X9259D02*
D03*
X38566Y-9354D02*
D03*
Y-5523D02*
D03*
Y-7439D02*
D03*
X25200Y5991D02*
D03*
Y4069D02*
D03*
Y2146D02*
D03*
Y223D02*
D03*
Y-1692D02*
D03*
Y7914D02*
D03*
X26823D02*
D03*
X38566Y-3608D02*
D03*
Y-1692D02*
D03*
Y223D02*
D03*
Y2146D02*
D03*
Y4069D02*
D03*
Y5491D02*
D03*
X36513Y-3608D02*
D03*
X30768Y7914D02*
D03*
X34614D02*
D03*
X31740Y7010D02*
D03*
X23577Y7914D02*
D03*
Y-1692D02*
D03*
Y223D02*
D03*
Y2146D02*
D03*
Y4069D02*
D03*
Y5991D02*
D03*
Y-3608D02*
D03*
X25200D02*
D03*
X32655Y7892D02*
D03*
X34527Y21656D02*
D03*
X32842D02*
D03*
X31156D02*
D03*
X29471D02*
D03*
X27785D02*
D03*
X26100D02*
D03*
X24414D02*
D03*
X22729D02*
D03*
X21043D02*
D03*
Y25427D02*
D03*
Y14931D02*
D03*
Y16707D02*
D03*
Y18451D02*
D03*
Y20095D02*
D03*
Y23391D02*
D03*
Y13319D02*
D03*
X19732Y34340D02*
D03*
Y32417D02*
D03*
Y30495D02*
D03*
X21043Y28915D02*
D03*
Y27171D02*
D03*
X19732Y36263D02*
D03*
X22355Y13319D02*
D03*
X22729Y23391D02*
D03*
Y20095D02*
D03*
X22355Y18451D02*
D03*
Y16707D02*
D03*
Y14931D02*
D03*
Y25436D02*
D03*
Y28927D02*
D03*
Y27181D02*
D03*
X24414Y23391D02*
D03*
X26100D02*
D03*
X27785D02*
D03*
X24414Y20095D02*
D03*
X26100D02*
D03*
X27785D02*
D03*
X29471Y23391D02*
D03*
X31156D02*
D03*
X32842D02*
D03*
X29471Y20095D02*
D03*
X31156D02*
D03*
X32842D02*
D03*
X32941Y24741D02*
D03*
Y26664D02*
D03*
Y28586D02*
D03*
Y18451D02*
D03*
Y16707D02*
D03*
Y14931D02*
D03*
X34527Y40083D02*
D03*
Y38160D02*
D03*
Y36238D02*
D03*
Y30470D02*
D03*
Y32392D02*
D03*
Y34315D02*
D03*
Y24702D02*
D03*
X34527Y23391D02*
D03*
X34527Y26624D02*
D03*
Y28547D02*
D03*
Y16707D02*
D03*
Y14931D02*
D03*
Y18451D02*
D03*
X34527Y20095D02*
D03*
X21955Y7914D02*
D03*
X-10279Y13336D02*
D03*
X-29676D02*
D03*
X-17075Y7913D02*
D03*
X2463D02*
D03*
X15036Y20094D02*
D03*
X15036Y18450D02*
D03*
Y14930D02*
D03*
Y16706D02*
D03*
Y28546D02*
D03*
Y26623D02*
D03*
X15036Y23390D02*
D03*
X15036Y24701D02*
D03*
Y34314D02*
D03*
Y32392D02*
D03*
Y30469D02*
D03*
Y36237D02*
D03*
Y38160D02*
D03*
Y40082D02*
D03*
X13449Y14930D02*
D03*
Y16706D02*
D03*
Y18450D02*
D03*
Y28586D02*
D03*
Y26663D02*
D03*
Y24740D02*
D03*
X13350Y20094D02*
D03*
X11665D02*
D03*
X9979D02*
D03*
X13350Y23390D02*
D03*
X11665D02*
D03*
X9979D02*
D03*
X8294Y20094D02*
D03*
X6608D02*
D03*
X4923D02*
D03*
X8294Y23390D02*
D03*
X6608D02*
D03*
X4923D02*
D03*
X2863Y27181D02*
D03*
Y28926D02*
D03*
Y25435D02*
D03*
Y14930D02*
D03*
Y16706D02*
D03*
Y18450D02*
D03*
X3237Y20094D02*
D03*
Y23390D02*
D03*
X2863Y13318D02*
D03*
X240Y38185D02*
D03*
Y36262D02*
D03*
X1552Y27170D02*
D03*
Y28914D02*
D03*
X240Y30494D02*
D03*
Y32417D02*
D03*
Y34339D02*
D03*
X1552Y13318D02*
D03*
Y23390D02*
D03*
Y20094D02*
D03*
Y18450D02*
D03*
Y16706D02*
D03*
Y14930D02*
D03*
Y25426D02*
D03*
Y21655D02*
D03*
X3237D02*
D03*
X4923D02*
D03*
X6608D02*
D03*
X8294D02*
D03*
X9979D02*
D03*
X11665D02*
D03*
X13350D02*
D03*
X15036D02*
D03*
X13163Y7891D02*
D03*
X5708Y-3608D02*
D03*
X4085D02*
D03*
Y5991D02*
D03*
Y4068D02*
D03*
Y2145D02*
D03*
Y223D02*
D03*
Y-1693D02*
D03*
Y7913D02*
D03*
X12249Y7009D02*
D03*
X15122Y7913D02*
D03*
X11276D02*
D03*
X17021Y-3608D02*
D03*
X19075Y5491D02*
D03*
Y4068D02*
D03*
Y2145D02*
D03*
Y223D02*
D03*
Y-1693D02*
D03*
Y-3608D02*
D03*
X7331Y7913D02*
D03*
X5708D02*
D03*
X7262Y-3608D02*
D03*
X5708Y-1693D02*
D03*
Y223D02*
D03*
Y2145D02*
D03*
Y4068D02*
D03*
Y5991D02*
D03*
X-27431Y7894D02*
D03*
X-13830Y5991D02*
D03*
Y4068D02*
D03*
Y2145D02*
D03*
Y223D02*
D03*
Y-1693D02*
D03*
X-12276Y-3608D02*
D03*
X-13830Y7913D02*
D03*
X-12207D02*
D03*
X-463Y-3608D02*
D03*
Y-1693D02*
D03*
Y223D02*
D03*
Y2145D02*
D03*
Y4068D02*
D03*
Y5491D02*
D03*
X-2517Y-3608D02*
D03*
X-8262Y7913D02*
D03*
X-4416D02*
D03*
X-7289Y7009D02*
D03*
X-15453Y7913D02*
D03*
Y-1693D02*
D03*
Y223D02*
D03*
Y2145D02*
D03*
Y4068D02*
D03*
Y5991D02*
D03*
Y-3608D02*
D03*
X-13830D02*
D03*
X-6375Y7891D02*
D03*
X-25467Y7845D02*
D03*
X-38695Y16448D02*
D03*
X-36772Y18525D02*
D03*
X-34996Y20172D02*
D03*
X-33147D02*
D03*
X-31297D02*
D03*
X-29448D02*
D03*
X-27598D02*
D03*
X-25749D02*
D03*
X-23899D02*
D03*
X-4502Y21655D02*
D03*
X-6188D02*
D03*
X-7873D02*
D03*
X-9559D02*
D03*
X-11244D02*
D03*
X-12930D02*
D03*
X-14616D02*
D03*
X-16301D02*
D03*
X-17987D02*
D03*
Y25426D02*
D03*
Y14930D02*
D03*
Y16706D02*
D03*
Y18450D02*
D03*
Y20094D02*
D03*
Y23390D02*
D03*
Y13318D02*
D03*
X-19298Y34339D02*
D03*
Y32417D02*
D03*
Y30494D02*
D03*
X-17987Y28914D02*
D03*
Y27170D02*
D03*
X-19298Y36262D02*
D03*
Y38185D02*
D03*
X-16675Y13318D02*
D03*
X-16301Y23390D02*
D03*
Y20094D02*
D03*
X-16675Y18450D02*
D03*
Y16706D02*
D03*
Y14930D02*
D03*
Y25435D02*
D03*
Y28926D02*
D03*
Y27181D02*
D03*
X-14616Y23390D02*
D03*
X-12930D02*
D03*
X-11244D02*
D03*
X-14616Y20094D02*
D03*
X-12930D02*
D03*
X-11244D02*
D03*
X-9559Y23390D02*
D03*
X-7873D02*
D03*
X-6188D02*
D03*
X-9559Y20094D02*
D03*
X-7873D02*
D03*
X-6188D02*
D03*
X-6089Y24740D02*
D03*
Y26663D02*
D03*
Y28586D02*
D03*
Y18450D02*
D03*
Y16706D02*
D03*
Y14930D02*
D03*
X-4502Y38160D02*
D03*
Y36237D02*
D03*
Y30469D02*
D03*
Y32392D02*
D03*
Y34314D02*
D03*
Y24701D02*
D03*
X-4502Y23390D02*
D03*
X-4502Y26623D02*
D03*
Y28546D02*
D03*
Y16706D02*
D03*
Y14930D02*
D03*
Y18450D02*
D03*
X-4502Y20094D02*
D03*
X-38695Y-9362D02*
D03*
Y-5060D02*
D03*
Y-7211D02*
D03*
X-29676Y6010D02*
D03*
X-23899Y21695D02*
D03*
Y18658D02*
D03*
Y15087D02*
D03*
Y16873D02*
D03*
Y29370D02*
D03*
Y27585D02*
D03*
X-23899Y23149D02*
D03*
X-23899Y25800D02*
D03*
Y34726D02*
D03*
Y32941D02*
D03*
Y31156D02*
D03*
Y36512D02*
D03*
X-25486Y15127D02*
D03*
Y16809D02*
D03*
Y18491D02*
D03*
Y28586D02*
D03*
Y26903D02*
D03*
Y25221D02*
D03*
X-26013Y21695D02*
D03*
X-28127D02*
D03*
X-30240D02*
D03*
X-25749Y23149D02*
D03*
X-27598D02*
D03*
X-29448D02*
D03*
X-32354Y21695D02*
D03*
X-34468D02*
D03*
X-36581D02*
D03*
X-31297Y23149D02*
D03*
X-33147D02*
D03*
X-34996D02*
D03*
X-36772Y26574D02*
D03*
Y28586D02*
D03*
Y24561D02*
D03*
Y14501D02*
D03*
Y16513D02*
D03*
X-36845Y20172D02*
D03*
Y23149D02*
D03*
X-38695Y40107D02*
D03*
Y37957D02*
D03*
Y35806D02*
D03*
Y25052D02*
D03*
Y27202D02*
D03*
Y29353D02*
D03*
Y31504D02*
D03*
Y33655D02*
D03*
Y20750D02*
D03*
Y18599D02*
D03*
Y14297D02*
D03*
Y22901D02*
D03*
Y-759D02*
D03*
Y1392D02*
D03*
Y3543D02*
D03*
Y5694D02*
D03*
Y7845D02*
D03*
Y-2909D02*
D03*
X-36772Y-5060D02*
D03*
Y5694D02*
D03*
Y3543D02*
D03*
Y1392D02*
D03*
Y-759D02*
D03*
Y-2909D02*
D03*
X-37041Y7845D02*
D03*
X-34849Y5694D02*
D03*
Y3543D02*
D03*
Y1392D02*
D03*
Y-759D02*
D03*
Y-2909D02*
D03*
X-35388Y7845D02*
D03*
X28751Y6010D02*
D03*
X9259D02*
D03*
X-10279D02*
D03*
X-26686Y7009D02*
D03*
X-23813Y7845D02*
D03*
X-19860Y5491D02*
D03*
Y4068D02*
D03*
Y2145D02*
D03*
Y223D02*
D03*
Y-1693D02*
D03*
Y-3608D02*
D03*
X-32081Y7845D02*
D03*
X-33734D02*
D03*
X-31373Y-5060D02*
D03*
X-32927Y-2909D02*
D03*
Y-759D02*
D03*
Y1392D02*
D03*
Y3543D02*
D03*
Y5694D02*
D03*
D78*
X74Y-45300D02*
D03*
Y-47360D02*
D03*
X-6525D02*
D03*
Y-45300D02*
D03*
D79*
X-3652Y-10307D02*
D03*
Y-10957D02*
D03*
Y-11607D02*
D03*
Y-12257D02*
D03*
X-6162D02*
D03*
Y-11607D02*
D03*
Y-10957D02*
D03*
Y-10307D02*
D03*
D80*
X3700Y-18735D02*
D03*
X3700Y-16835D02*
D03*
X5900Y-17785D02*
D03*
D81*
X10836Y-13578D02*
D03*
X9566D02*
D03*
X8296D02*
D03*
X7026D02*
D03*
X5756D02*
D03*
X4486D02*
D03*
X3216D02*
D03*
X10836Y-8728D02*
D03*
X9566D02*
D03*
X8296D02*
D03*
X7026D02*
D03*
X5756D02*
D03*
X4486D02*
D03*
X3216D02*
D03*
D82*
X-24493Y41922D02*
D03*
X-20733D02*
D03*
X-5673D02*
D03*
X-9433D02*
D03*
X24190D02*
D03*
X20430D02*
D03*
X9130D02*
D03*
X5370D02*
D03*
D83*
X-29700Y-37428D02*
D03*
Y-33228D02*
D03*
X29862D02*
D03*
Y-37428D02*
D03*
D84*
X9307Y-16380D02*
D03*
X11207Y-16380D02*
D03*
X10257Y-18580D02*
D03*
M02*
