G04*
G04 #@! TF.GenerationSoftware,Altium Limited,Altium Designer,23.3.1 (30)*
G04*
G04 Layer_Color=8388736*
%FSLAX43Y43*%
%MOMM*%
G71*
G04*
G04 #@! TF.SameCoordinates,78DDFD1D-995E-4759-9E5F-92B015DE0EB1*
G04*
G04*
G04 #@! TF.FilePolarity,Negative*
G04*
G01*
G75*
G04:AMPARAMS|DCode=15|XSize=3.2mm|YSize=2.51mm|CornerRadius=0.351mm|HoleSize=0mm|Usage=FLASHONLY|Rotation=0.000|XOffset=0mm|YOffset=0mm|HoleType=Round|Shape=RoundedRectangle|*
%AMROUNDEDRECTD15*
21,1,3.200,1.808,0,0,0.0*
21,1,2.498,2.510,0,0,0.0*
1,1,0.703,1.249,-0.904*
1,1,0.703,-1.249,-0.904*
1,1,0.703,-1.249,0.904*
1,1,0.703,1.249,0.904*
%
%ADD15ROUNDEDRECTD15*%
G04:AMPARAMS|DCode=16|XSize=0.71mm|YSize=2.01mm|CornerRadius=0.126mm|HoleSize=0mm|Usage=FLASHONLY|Rotation=0.000|XOffset=0mm|YOffset=0mm|HoleType=Round|Shape=RoundedRectangle|*
%AMROUNDEDRECTD16*
21,1,0.710,1.758,0,0,0.0*
21,1,0.458,2.010,0,0,0.0*
1,1,0.253,0.229,-0.879*
1,1,0.253,-0.229,-0.879*
1,1,0.253,-0.229,0.879*
1,1,0.253,0.229,0.879*
%
%ADD16ROUNDEDRECTD16*%
G04:AMPARAMS|DCode=17|XSize=3.24mm|YSize=1.64mm|CornerRadius=0.242mm|HoleSize=0mm|Usage=FLASHONLY|Rotation=0.000|XOffset=0mm|YOffset=0mm|HoleType=Round|Shape=RoundedRectangle|*
%AMROUNDEDRECTD17*
21,1,3.240,1.155,0,0,0.0*
21,1,2.755,1.640,0,0,0.0*
1,1,0.485,1.378,-0.578*
1,1,0.485,-1.378,-0.578*
1,1,0.485,-1.378,0.578*
1,1,0.485,1.378,0.578*
%
%ADD17ROUNDEDRECTD17*%
G04:AMPARAMS|DCode=18|XSize=0.65mm|YSize=1.65mm|CornerRadius=0.119mm|HoleSize=0mm|Usage=FLASHONLY|Rotation=90.000|XOffset=0mm|YOffset=0mm|HoleType=Round|Shape=RoundedRectangle|*
%AMROUNDEDRECTD18*
21,1,0.650,1.413,0,0,90.0*
21,1,0.413,1.650,0,0,90.0*
1,1,0.238,0.706,0.206*
1,1,0.238,0.706,-0.206*
1,1,0.238,-0.706,-0.206*
1,1,0.238,-0.706,0.206*
%
%ADD18ROUNDEDRECTD18*%
G04:AMPARAMS|DCode=19|XSize=3.2mm|YSize=4.5mm|CornerRadius=0.438mm|HoleSize=0mm|Usage=FLASHONLY|Rotation=0.000|XOffset=0mm|YOffset=0mm|HoleType=Round|Shape=RoundedRectangle|*
%AMROUNDEDRECTD19*
21,1,3.200,3.625,0,0,0.0*
21,1,2.325,4.500,0,0,0.0*
1,1,0.875,1.163,-1.813*
1,1,0.875,-1.163,-1.813*
1,1,0.875,-1.163,1.813*
1,1,0.875,1.163,1.813*
%
%ADD19ROUNDEDRECTD19*%
G04:AMPARAMS|DCode=20|XSize=0.48mm|YSize=1.14mm|CornerRadius=0.098mm|HoleSize=0mm|Usage=FLASHONLY|Rotation=270.000|XOffset=0mm|YOffset=0mm|HoleType=Round|Shape=RoundedRectangle|*
%AMROUNDEDRECTD20*
21,1,0.480,0.945,0,0,270.0*
21,1,0.285,1.140,0,0,270.0*
1,1,0.195,-0.472,-0.142*
1,1,0.195,-0.472,0.142*
1,1,0.195,0.472,0.142*
1,1,0.195,0.472,-0.142*
%
%ADD20ROUNDEDRECTD20*%
G04:AMPARAMS|DCode=21|XSize=1.1mm|YSize=1.2mm|CornerRadius=0.175mm|HoleSize=0mm|Usage=FLASHONLY|Rotation=90.000|XOffset=0mm|YOffset=0mm|HoleType=Round|Shape=RoundedRectangle|*
%AMROUNDEDRECTD21*
21,1,1.100,0.850,0,0,90.0*
21,1,0.750,1.200,0,0,90.0*
1,1,0.350,0.425,0.375*
1,1,0.350,0.425,-0.375*
1,1,0.350,-0.425,-0.375*
1,1,0.350,-0.425,0.375*
%
%ADD21ROUNDEDRECTD21*%
G04:AMPARAMS|DCode=22|XSize=3.2mm|YSize=5.7mm|CornerRadius=0.438mm|HoleSize=0mm|Usage=FLASHONLY|Rotation=90.000|XOffset=0mm|YOffset=0mm|HoleType=Round|Shape=RoundedRectangle|*
%AMROUNDEDRECTD22*
21,1,3.200,4.825,0,0,90.0*
21,1,2.325,5.700,0,0,90.0*
1,1,0.875,2.413,1.163*
1,1,0.875,2.413,-1.163*
1,1,0.875,-2.413,-1.163*
1,1,0.875,-2.413,1.163*
%
%ADD22ROUNDEDRECTD22*%
G04:AMPARAMS|DCode=23|XSize=1.86mm|YSize=2.92mm|CornerRadius=0.27mm|HoleSize=0mm|Usage=FLASHONLY|Rotation=0.000|XOffset=0mm|YOffset=0mm|HoleType=Round|Shape=RoundedRectangle|*
%AMROUNDEDRECTD23*
21,1,1.860,2.380,0,0,0.0*
21,1,1.320,2.920,0,0,0.0*
1,1,0.540,0.660,-1.190*
1,1,0.540,-0.660,-1.190*
1,1,0.540,-0.660,1.190*
1,1,0.540,0.660,1.190*
%
%ADD23ROUNDEDRECTD23*%
G04:AMPARAMS|DCode=24|XSize=1.38mm|YSize=1.97mm|CornerRadius=0.21mm|HoleSize=0mm|Usage=FLASHONLY|Rotation=180.000|XOffset=0mm|YOffset=0mm|HoleType=Round|Shape=RoundedRectangle|*
%AMROUNDEDRECTD24*
21,1,1.380,1.550,0,0,180.0*
21,1,0.960,1.970,0,0,180.0*
1,1,0.420,-0.480,0.775*
1,1,0.420,0.480,0.775*
1,1,0.420,0.480,-0.775*
1,1,0.420,-0.480,-0.775*
%
%ADD24ROUNDEDRECTD24*%
G04:AMPARAMS|DCode=25|XSize=1.31mm|YSize=1.56mm|CornerRadius=0.201mm|HoleSize=0mm|Usage=FLASHONLY|Rotation=90.000|XOffset=0mm|YOffset=0mm|HoleType=Round|Shape=RoundedRectangle|*
%AMROUNDEDRECTD25*
21,1,1.310,1.158,0,0,90.0*
21,1,0.907,1.560,0,0,90.0*
1,1,0.403,0.579,0.454*
1,1,0.403,0.579,-0.454*
1,1,0.403,-0.579,-0.454*
1,1,0.403,-0.579,0.454*
%
%ADD25ROUNDEDRECTD25*%
G04:AMPARAMS|DCode=26|XSize=1.31mm|YSize=1.56mm|CornerRadius=0.201mm|HoleSize=0mm|Usage=FLASHONLY|Rotation=180.000|XOffset=0mm|YOffset=0mm|HoleType=Round|Shape=RoundedRectangle|*
%AMROUNDEDRECTD26*
21,1,1.310,1.158,0,0,180.0*
21,1,0.907,1.560,0,0,180.0*
1,1,0.403,-0.454,0.579*
1,1,0.403,0.454,0.579*
1,1,0.403,0.454,-0.579*
1,1,0.403,-0.454,-0.579*
%
%ADD26ROUNDEDRECTD26*%
G04:AMPARAMS|DCode=27|XSize=1.63mm|YSize=1.12mm|CornerRadius=0.178mm|HoleSize=0mm|Usage=FLASHONLY|Rotation=270.000|XOffset=0mm|YOffset=0mm|HoleType=Round|Shape=RoundedRectangle|*
%AMROUNDEDRECTD27*
21,1,1.630,0.765,0,0,270.0*
21,1,1.275,1.120,0,0,270.0*
1,1,0.355,-0.383,-0.638*
1,1,0.355,-0.383,0.638*
1,1,0.355,0.383,0.638*
1,1,0.355,0.383,-0.638*
%
%ADD27ROUNDEDRECTD27*%
G04:AMPARAMS|DCode=28|XSize=1.63mm|YSize=1.12mm|CornerRadius=0.178mm|HoleSize=0mm|Usage=FLASHONLY|Rotation=0.000|XOffset=0mm|YOffset=0mm|HoleType=Round|Shape=RoundedRectangle|*
%AMROUNDEDRECTD28*
21,1,1.630,0.765,0,0,0.0*
21,1,1.275,1.120,0,0,0.0*
1,1,0.355,0.638,-0.383*
1,1,0.355,-0.638,-0.383*
1,1,0.355,-0.638,0.383*
1,1,0.355,0.638,0.383*
%
%ADD28ROUNDEDRECTD28*%
G04:AMPARAMS|DCode=29|XSize=3.24mm|YSize=1.64mm|CornerRadius=0.242mm|HoleSize=0mm|Usage=FLASHONLY|Rotation=270.000|XOffset=0mm|YOffset=0mm|HoleType=Round|Shape=RoundedRectangle|*
%AMROUNDEDRECTD29*
21,1,3.240,1.155,0,0,270.0*
21,1,2.755,1.640,0,0,270.0*
1,1,0.485,-0.578,-1.378*
1,1,0.485,-0.578,1.378*
1,1,0.485,0.578,1.378*
1,1,0.485,0.578,-1.378*
%
%ADD29ROUNDEDRECTD29*%
G04:AMPARAMS|DCode=30|XSize=1.1mm|YSize=1.2mm|CornerRadius=0.175mm|HoleSize=0mm|Usage=FLASHONLY|Rotation=180.000|XOffset=0mm|YOffset=0mm|HoleType=Round|Shape=RoundedRectangle|*
%AMROUNDEDRECTD30*
21,1,1.100,0.850,0,0,180.0*
21,1,0.750,1.200,0,0,180.0*
1,1,0.350,-0.375,0.425*
1,1,0.350,0.375,0.425*
1,1,0.350,0.375,-0.425*
1,1,0.350,-0.375,-0.425*
%
%ADD30ROUNDEDRECTD30*%
G04:AMPARAMS|DCode=31|XSize=1.84mm|YSize=2.27mm|CornerRadius=0.268mm|HoleSize=0mm|Usage=FLASHONLY|Rotation=0.000|XOffset=0mm|YOffset=0mm|HoleType=Round|Shape=RoundedRectangle|*
%AMROUNDEDRECTD31*
21,1,1.840,1.735,0,0,0.0*
21,1,1.305,2.270,0,0,0.0*
1,1,0.535,0.653,-0.868*
1,1,0.535,-0.653,-0.868*
1,1,0.535,-0.653,0.868*
1,1,0.535,0.653,0.868*
%
%ADD31ROUNDEDRECTD31*%
G04:AMPARAMS|DCode=32|XSize=1.36mm|YSize=0.68mm|CornerRadius=0.123mm|HoleSize=0mm|Usage=FLASHONLY|Rotation=180.000|XOffset=0mm|YOffset=0mm|HoleType=Round|Shape=RoundedRectangle|*
%AMROUNDEDRECTD32*
21,1,1.360,0.435,0,0,180.0*
21,1,1.115,0.680,0,0,180.0*
1,1,0.245,-0.558,0.217*
1,1,0.245,0.558,0.217*
1,1,0.245,0.558,-0.217*
1,1,0.245,-0.558,-0.217*
%
%ADD32ROUNDEDRECTD32*%
%ADD33C,6.600*%
%ADD34R,1.300X1.300*%
%ADD35C,1.300*%
%ADD36C,3.600*%
%ADD37C,3.300*%
%ADD38C,2.100*%
%ADD39R,1.300X1.300*%
%ADD40C,4.100*%
%ADD41C,3.700*%
%ADD42C,1.050*%
%ADD43C,1.100*%
G36*
X-21587Y-12094D02*
X-21542Y-12094D01*
X-21460Y-12129D01*
X-21396Y-12192D01*
X-21362Y-12275D01*
X-21362Y-12319D01*
X-21362Y-12319D01*
X-21362Y-17103D01*
X-21362Y-17144D01*
X-21394Y-17221D01*
X-21453Y-17280D01*
X-21530Y-17311D01*
X-21571Y-17311D01*
X-22807D01*
X-22847Y-17311D01*
X-22923Y-17280D01*
X-22980Y-17223D01*
X-23011Y-17147D01*
X-23011Y-17107D01*
Y-17107D01*
Y-12335D01*
Y-12287D01*
X-22975Y-12199D01*
X-22907Y-12131D01*
X-22818Y-12094D01*
X-22770Y-12094D01*
X-22770Y-12094D01*
X-21587Y-12094D01*
D02*
G37*
G36*
X-16171Y-13020D02*
X-17242D01*
Y-16374D01*
X-16171D01*
Y-17020D01*
X-20697D01*
X-20713Y-17020D01*
X-20743Y-17007D01*
X-20752D01*
Y-16998D01*
X-20766Y-16984D01*
X-20778Y-16954D01*
X-20778Y-16938D01*
Y-16938D01*
Y-16374D01*
X-20752D01*
Y-13020D01*
X-20778D01*
X-20778Y-12537D01*
Y-12505D01*
X-20754Y-12445D01*
X-20752Y-12444D01*
Y-12374D01*
X-16171D01*
Y-13020D01*
D02*
G37*
G36*
X22009Y-17351D02*
X21876D01*
X21846Y-17364D01*
X21830Y-17364D01*
X17304D01*
Y-16718D01*
X18400D01*
Y-13364D01*
X17304D01*
Y-12718D01*
X22009D01*
Y-17351D01*
D02*
G37*
G36*
X22704Y-12426D02*
X22704Y-12426D01*
X23940Y-12426D01*
X23980Y-12426D01*
X24056Y-12457D01*
X24113Y-12515D01*
X24144Y-12590D01*
X24144Y-12631D01*
X24144Y-12631D01*
X24144Y-17402D01*
Y-17450D01*
X24108Y-17539D01*
X24040Y-17606D01*
X23951Y-17643D01*
X23904Y-17643D01*
X23904Y-17643D01*
X22720Y-17643D01*
X22675Y-17643D01*
X22593Y-17609D01*
X22530Y-17545D01*
X22495Y-17463D01*
X22495Y-17418D01*
X22495D01*
Y-12635D01*
X22495Y-12593D01*
X22527Y-12517D01*
X22586Y-12458D01*
X22663Y-12426D01*
X22704Y-12426D01*
D02*
G37*
D15*
X-26660Y7525D02*
D03*
X31772Y7547D02*
D03*
X12277Y7517D02*
D03*
X-7253Y7545D02*
D03*
D16*
X-28565Y4745D02*
D03*
X-27295D02*
D03*
X-26025D02*
D03*
X-24755D02*
D03*
Y10305D02*
D03*
X-26025D02*
D03*
X-27295D02*
D03*
X-28565D02*
D03*
X29867Y4767D02*
D03*
X31137D02*
D03*
X32407D02*
D03*
X33677D02*
D03*
Y10327D02*
D03*
X32407D02*
D03*
X31137D02*
D03*
X29867D02*
D03*
X10372Y4737D02*
D03*
X11642D02*
D03*
X12912D02*
D03*
X14182D02*
D03*
Y10297D02*
D03*
X12912D02*
D03*
X11642D02*
D03*
X10372D02*
D03*
X-9158Y4765D02*
D03*
X-7888D02*
D03*
X-6618D02*
D03*
X-5348D02*
D03*
Y10325D02*
D03*
X-6618D02*
D03*
X-7888D02*
D03*
X-9158D02*
D03*
D17*
X20482Y-36291D02*
D03*
Y-29641D02*
D03*
D18*
X17304Y-13041D02*
D03*
Y-13841D02*
D03*
Y-14641D02*
D03*
Y-15441D02*
D03*
Y-16241D02*
D03*
Y-17041D02*
D03*
X23319Y-13041D02*
D03*
Y-13841D02*
D03*
Y-14641D02*
D03*
Y-15441D02*
D03*
Y-16241D02*
D03*
Y-17041D02*
D03*
X-22186Y-12697D02*
D03*
Y-13497D02*
D03*
Y-14297D02*
D03*
Y-15097D02*
D03*
Y-15897D02*
D03*
Y-16697D02*
D03*
X-16171Y-12697D02*
D03*
Y-13497D02*
D03*
Y-14297D02*
D03*
Y-15097D02*
D03*
Y-15897D02*
D03*
Y-16697D02*
D03*
D19*
X20312Y-15041D02*
D03*
X-19178Y-14697D02*
D03*
D20*
X7365Y-31168D02*
D03*
Y-31818D02*
D03*
Y-32468D02*
D03*
Y-33118D02*
D03*
X11615Y-31168D02*
D03*
Y-31818D02*
D03*
Y-32468D02*
D03*
Y-33118D02*
D03*
X-420D02*
D03*
Y-32468D02*
D03*
Y-31818D02*
D03*
Y-31168D02*
D03*
X-4670Y-33118D02*
D03*
Y-32468D02*
D03*
Y-31818D02*
D03*
Y-31168D02*
D03*
D21*
X-6776Y-41681D02*
D03*
Y-40081D02*
D03*
X36457Y18826D02*
D03*
Y20426D02*
D03*
X16931Y18826D02*
D03*
Y20426D02*
D03*
X-22016Y18826D02*
D03*
Y20426D02*
D03*
X-2575Y18826D02*
D03*
Y20426D02*
D03*
D22*
X-31047Y27099D02*
D03*
Y15999D02*
D03*
X27380Y27095D02*
D03*
Y15995D02*
D03*
X7888Y15994D02*
D03*
Y27094D02*
D03*
X-11650Y15999D02*
D03*
Y27099D02*
D03*
D23*
X5163Y38410D02*
D03*
X2573D02*
D03*
X22065Y30968D02*
D03*
X24655D02*
D03*
X32695Y30943D02*
D03*
X30105D02*
D03*
X24655Y34712D02*
D03*
X22065D02*
D03*
X32695Y34687D02*
D03*
X30105D02*
D03*
X24655Y38410D02*
D03*
X22065D02*
D03*
X30105Y38385D02*
D03*
X32695D02*
D03*
X2573Y30968D02*
D03*
X5163D02*
D03*
X10613Y30943D02*
D03*
X13203D02*
D03*
X2573Y34712D02*
D03*
X5163D02*
D03*
X13203Y34687D02*
D03*
X10613D02*
D03*
Y38385D02*
D03*
X13203D02*
D03*
X-16965Y30968D02*
D03*
X-14375D02*
D03*
X-6335Y30943D02*
D03*
X-8925D02*
D03*
X-16965Y34712D02*
D03*
X-14375D02*
D03*
X-6335Y34687D02*
D03*
X-8925D02*
D03*
X-14375Y38410D02*
D03*
X-16965D02*
D03*
X-6335Y38385D02*
D03*
X-8925D02*
D03*
X-36362Y30968D02*
D03*
X-33772D02*
D03*
X-28322Y30943D02*
D03*
X-25732D02*
D03*
X-33772Y34712D02*
D03*
X-36362D02*
D03*
X-25732Y34687D02*
D03*
X-28322D02*
D03*
X-36362Y38410D02*
D03*
X-33772D02*
D03*
X-25732Y38385D02*
D03*
X-28322D02*
D03*
D24*
X-24953Y1339D02*
D03*
X-21953D02*
D03*
X30099Y-1386D02*
D03*
X27099D02*
D03*
X30099Y1339D02*
D03*
X27099D02*
D03*
X33474D02*
D03*
X36474D02*
D03*
X10653Y1464D02*
D03*
X7653D02*
D03*
X10607Y-1411D02*
D03*
X7607D02*
D03*
X-2556Y1339D02*
D03*
X-5556D02*
D03*
X-28328Y-1411D02*
D03*
X-31328D02*
D03*
X16982Y1339D02*
D03*
X13982D02*
D03*
X-8931Y1364D02*
D03*
X-11931D02*
D03*
X33474Y-1386D02*
D03*
X36474D02*
D03*
X13982D02*
D03*
X16982D02*
D03*
X-11931Y-1411D02*
D03*
X-8931D02*
D03*
X-5556Y-1386D02*
D03*
X-2556D02*
D03*
X-31328Y1363D02*
D03*
X-28328D02*
D03*
X-21953Y-1406D02*
D03*
X-24953D02*
D03*
D25*
X228Y-37980D02*
D03*
Y-36290D02*
D03*
X12922Y-37980D02*
D03*
Y-36290D02*
D03*
X-11859Y4320D02*
D03*
Y6010D02*
D03*
X-31256Y6010D02*
D03*
Y4320D02*
D03*
X7679Y4315D02*
D03*
Y6005D02*
D03*
X27171Y4316D02*
D03*
Y6006D02*
D03*
D26*
X34109Y12693D02*
D03*
X32419D02*
D03*
X14567Y12692D02*
D03*
X12877D02*
D03*
X-5093D02*
D03*
X-6783D02*
D03*
X-26017D02*
D03*
X-24327D02*
D03*
D27*
X-5938Y-29286D02*
D03*
X-7953D02*
D03*
X9545Y-29319D02*
D03*
X11560D02*
D03*
X2253Y-38700D02*
D03*
X4268D02*
D03*
Y-36430D02*
D03*
X2253D02*
D03*
X8884Y-38675D02*
D03*
X10899D02*
D03*
Y-36405D02*
D03*
X8884D02*
D03*
D28*
X1801Y-31136D02*
D03*
Y-33151D02*
D03*
X36396Y14476D02*
D03*
Y12461D02*
D03*
Y6288D02*
D03*
Y4273D02*
D03*
X36423Y22363D02*
D03*
Y24378D02*
D03*
X36396Y10524D02*
D03*
Y8509D02*
D03*
X16904Y12460D02*
D03*
Y14475D02*
D03*
Y4273D02*
D03*
Y6288D02*
D03*
X16931Y24377D02*
D03*
Y22362D02*
D03*
X16904Y8508D02*
D03*
Y10523D02*
D03*
X-2634Y4273D02*
D03*
Y6288D02*
D03*
X-2607Y24382D02*
D03*
Y22367D02*
D03*
X-2634Y8513D02*
D03*
Y10528D02*
D03*
X-22006Y14480D02*
D03*
Y12465D02*
D03*
X-22031Y6293D02*
D03*
Y4278D02*
D03*
X-22004Y22367D02*
D03*
Y24382D02*
D03*
X-22006Y10528D02*
D03*
Y8513D02*
D03*
X-6776Y-38262D02*
D03*
Y-36247D02*
D03*
X-2634Y14475D02*
D03*
Y12460D02*
D03*
X4060Y-33151D02*
D03*
Y-31136D02*
D03*
X13693D02*
D03*
Y-33151D02*
D03*
X15964D02*
D03*
Y-31136D02*
D03*
D29*
X-17127Y-37398D02*
D03*
X-10477D02*
D03*
X20960Y10861D02*
D03*
X27610D02*
D03*
X-11420Y10865D02*
D03*
X-18070D02*
D03*
X-37467Y10865D02*
D03*
X-30817D02*
D03*
X1468Y10860D02*
D03*
X8118D02*
D03*
X-10477Y-31204D02*
D03*
X-17127D02*
D03*
D30*
X-2479Y-29286D02*
D03*
X-4079D02*
D03*
X6149Y-29319D02*
D03*
X7749D02*
D03*
D31*
X-2584Y-39575D02*
D03*
Y-35815D02*
D03*
X15721Y-39209D02*
D03*
Y-35449D02*
D03*
D32*
X10921Y-40789D02*
D03*
X8861D02*
D03*
X4291Y-40789D02*
D03*
X2231D02*
D03*
D33*
X25398Y-45000D02*
D03*
X18198D02*
D03*
X34262Y-8150D02*
D03*
Y-15350D02*
D03*
X-35000Y-45000D02*
D03*
X-18295Y-45000D02*
D03*
X-25495D02*
D03*
X-34300Y-8400D02*
D03*
Y-15600D02*
D03*
X35000Y-45000D02*
D03*
D34*
X36229Y-30475D02*
D03*
X-36050Y-32475D02*
D03*
X36229Y-36953D02*
D03*
X-36050Y-38953D02*
D03*
D35*
X36229Y-32475D02*
D03*
X-36050Y-30475D02*
D03*
X2261Y-46100D02*
D03*
X36229Y-38953D02*
D03*
X8891Y-46100D02*
D03*
X-36050Y-36953D02*
D03*
X-11000Y-46100D02*
D03*
X-4370D02*
D03*
D36*
X-28800Y-24200D02*
D03*
X-36400D02*
D03*
X28762Y-24200D02*
D03*
X36362D02*
D03*
D37*
X-9400D02*
D03*
X-1800D02*
D03*
X11362Y-24200D02*
D03*
X3762D02*
D03*
D38*
X-18863Y45248D02*
D03*
X-23863D02*
D03*
X-21363D02*
D03*
X-26363D02*
D03*
X18817D02*
D03*
X23817D02*
D03*
X21317D02*
D03*
X26317D02*
D03*
X3857D02*
D03*
X8857D02*
D03*
X6357D02*
D03*
X11357D02*
D03*
X-3803D02*
D03*
X-8803D02*
D03*
X-6303D02*
D03*
X-11303D02*
D03*
D39*
X4261Y-46100D02*
D03*
X10891D02*
D03*
X-9000D02*
D03*
X-2370D02*
D03*
D40*
X-19000Y-8300D02*
D03*
X19000D02*
D03*
D41*
X-35000Y45000D02*
D03*
X35000Y45000D02*
D03*
D42*
X-20230Y-12738D02*
D03*
X-17805Y-16638D02*
D03*
Y-14038D02*
D03*
Y-12738D02*
D03*
Y-15338D02*
D03*
X-19017D02*
D03*
X-20230Y-14038D02*
D03*
Y-15338D02*
D03*
Y-16638D02*
D03*
X-19017Y-12738D02*
D03*
Y-14038D02*
D03*
Y-16638D02*
D03*
D43*
X21470Y-16988D02*
D03*
Y-15688D02*
D03*
Y-13088D02*
D03*
Y-14388D02*
D03*
X18970Y-16988D02*
D03*
X20220D02*
D03*
X18970Y-15688D02*
D03*
Y-13088D02*
D03*
Y-14388D02*
D03*
X20220Y-13088D02*
D03*
Y-14388D02*
D03*
Y-15688D02*
D03*
M02*
