G04*
G04 #@! TF.GenerationSoftware,Altium Limited,Altium Designer,23.3.1 (30)*
G04*
G04 Layer_Physical_Order=1*
G04 Layer_Color=16776960*
%FSLAX43Y43*%
%MOMM*%
G71*
G04*
G04 #@! TF.SameCoordinates,24EB4D33-B09A-4438-942F-29D14A2A9395*
G04*
G04*
G04 #@! TF.FilePolarity,Positive*
G04*
G01*
G75*
%ADD10C,0.200*%
%ADD40C,0.900*%
%ADD41C,1.200*%
%ADD43C,1.000*%
%ADD45C,0.750*%
%ADD46C,0.500*%
%ADD47C,0.300*%
G04:AMPARAMS|DCode=48|XSize=3.1mm|YSize=4.4mm|CornerRadius=0.388mm|HoleSize=0mm|Usage=FLASHONLY|Rotation=180.000|XOffset=0mm|YOffset=0mm|HoleType=Round|Shape=RoundedRectangle|*
%AMROUNDEDRECTD48*
21,1,3.100,3.625,0,0,180.0*
21,1,2.325,4.400,0,0,180.0*
1,1,0.775,-1.163,1.813*
1,1,0.775,1.163,1.813*
1,1,0.775,1.163,-1.813*
1,1,0.775,-1.163,-1.813*
%
%ADD48ROUNDEDRECTD48*%
G04:AMPARAMS|DCode=49|XSize=0.55mm|YSize=1.55mm|CornerRadius=0.069mm|HoleSize=0mm|Usage=FLASHONLY|Rotation=270.000|XOffset=0mm|YOffset=0mm|HoleType=Round|Shape=RoundedRectangle|*
%AMROUNDEDRECTD49*
21,1,0.550,1.413,0,0,270.0*
21,1,0.413,1.550,0,0,270.0*
1,1,0.138,-0.706,-0.206*
1,1,0.138,-0.706,0.206*
1,1,0.138,0.706,0.206*
1,1,0.138,0.706,-0.206*
%
%ADD49ROUNDEDRECTD49*%
G04:AMPARAMS|DCode=50|XSize=0.61mm|YSize=1.91mm|CornerRadius=0.076mm|HoleSize=0mm|Usage=FLASHONLY|Rotation=0.000|XOffset=0mm|YOffset=0mm|HoleType=Round|Shape=RoundedRectangle|*
%AMROUNDEDRECTD50*
21,1,0.610,1.758,0,0,0.0*
21,1,0.458,1.910,0,0,0.0*
1,1,0.153,0.229,-0.879*
1,1,0.153,-0.229,-0.879*
1,1,0.153,-0.229,0.879*
1,1,0.153,0.229,0.879*
%
%ADD50ROUNDEDRECTD50*%
G04:AMPARAMS|DCode=51|XSize=3.1mm|YSize=2.41mm|CornerRadius=0.301mm|HoleSize=0mm|Usage=FLASHONLY|Rotation=0.000|XOffset=0mm|YOffset=0mm|HoleType=Round|Shape=RoundedRectangle|*
%AMROUNDEDRECTD51*
21,1,3.100,1.808,0,0,0.0*
21,1,2.498,2.410,0,0,0.0*
1,1,0.603,1.249,-0.904*
1,1,0.603,-1.249,-0.904*
1,1,0.603,-1.249,0.904*
1,1,0.603,1.249,0.904*
%
%ADD51ROUNDEDRECTD51*%
G04:AMPARAMS|DCode=52|XSize=3.14mm|YSize=1.54mm|CornerRadius=0.193mm|HoleSize=0mm|Usage=FLASHONLY|Rotation=0.000|XOffset=0mm|YOffset=0mm|HoleType=Round|Shape=RoundedRectangle|*
%AMROUNDEDRECTD52*
21,1,3.140,1.155,0,0,0.0*
21,1,2.755,1.540,0,0,0.0*
1,1,0.385,1.378,-0.578*
1,1,0.385,-1.378,-0.578*
1,1,0.385,-1.378,0.578*
1,1,0.385,1.378,0.578*
%
%ADD52ROUNDEDRECTD52*%
G04:AMPARAMS|DCode=53|XSize=0.38mm|YSize=1.04mm|CornerRadius=0.048mm|HoleSize=0mm|Usage=FLASHONLY|Rotation=270.000|XOffset=0mm|YOffset=0mm|HoleType=Round|Shape=RoundedRectangle|*
%AMROUNDEDRECTD53*
21,1,0.380,0.945,0,0,270.0*
21,1,0.285,1.040,0,0,270.0*
1,1,0.095,-0.472,-0.142*
1,1,0.095,-0.472,0.142*
1,1,0.095,0.472,0.142*
1,1,0.095,0.472,-0.142*
%
%ADD53ROUNDEDRECTD53*%
G04:AMPARAMS|DCode=54|XSize=1mm|YSize=1.1mm|CornerRadius=0.125mm|HoleSize=0mm|Usage=FLASHONLY|Rotation=90.000|XOffset=0mm|YOffset=0mm|HoleType=Round|Shape=RoundedRectangle|*
%AMROUNDEDRECTD54*
21,1,1.000,0.850,0,0,90.0*
21,1,0.750,1.100,0,0,90.0*
1,1,0.250,0.425,0.375*
1,1,0.250,0.425,-0.375*
1,1,0.250,-0.425,-0.375*
1,1,0.250,-0.425,0.375*
%
%ADD54ROUNDEDRECTD54*%
G04:AMPARAMS|DCode=55|XSize=3.1mm|YSize=5.6mm|CornerRadius=0.388mm|HoleSize=0mm|Usage=FLASHONLY|Rotation=90.000|XOffset=0mm|YOffset=0mm|HoleType=Round|Shape=RoundedRectangle|*
%AMROUNDEDRECTD55*
21,1,3.100,4.825,0,0,90.0*
21,1,2.325,5.600,0,0,90.0*
1,1,0.775,2.413,1.163*
1,1,0.775,2.413,-1.163*
1,1,0.775,-2.413,-1.163*
1,1,0.775,-2.413,1.163*
%
%ADD55ROUNDEDRECTD55*%
G04:AMPARAMS|DCode=56|XSize=1.76mm|YSize=2.82mm|CornerRadius=0.22mm|HoleSize=0mm|Usage=FLASHONLY|Rotation=0.000|XOffset=0mm|YOffset=0mm|HoleType=Round|Shape=RoundedRectangle|*
%AMROUNDEDRECTD56*
21,1,1.760,2.380,0,0,0.0*
21,1,1.320,2.820,0,0,0.0*
1,1,0.440,0.660,-1.190*
1,1,0.440,-0.660,-1.190*
1,1,0.440,-0.660,1.190*
1,1,0.440,0.660,1.190*
%
%ADD56ROUNDEDRECTD56*%
G04:AMPARAMS|DCode=57|XSize=1.28mm|YSize=1.87mm|CornerRadius=0.16mm|HoleSize=0mm|Usage=FLASHONLY|Rotation=180.000|XOffset=0mm|YOffset=0mm|HoleType=Round|Shape=RoundedRectangle|*
%AMROUNDEDRECTD57*
21,1,1.280,1.550,0,0,180.0*
21,1,0.960,1.870,0,0,180.0*
1,1,0.320,-0.480,0.775*
1,1,0.320,0.480,0.775*
1,1,0.320,0.480,-0.775*
1,1,0.320,-0.480,-0.775*
%
%ADD57ROUNDEDRECTD57*%
G04:AMPARAMS|DCode=58|XSize=1.21mm|YSize=1.46mm|CornerRadius=0.151mm|HoleSize=0mm|Usage=FLASHONLY|Rotation=90.000|XOffset=0mm|YOffset=0mm|HoleType=Round|Shape=RoundedRectangle|*
%AMROUNDEDRECTD58*
21,1,1.210,1.158,0,0,90.0*
21,1,0.907,1.460,0,0,90.0*
1,1,0.303,0.579,0.454*
1,1,0.303,0.579,-0.454*
1,1,0.303,-0.579,-0.454*
1,1,0.303,-0.579,0.454*
%
%ADD58ROUNDEDRECTD58*%
G04:AMPARAMS|DCode=59|XSize=1.21mm|YSize=1.46mm|CornerRadius=0.151mm|HoleSize=0mm|Usage=FLASHONLY|Rotation=180.000|XOffset=0mm|YOffset=0mm|HoleType=Round|Shape=RoundedRectangle|*
%AMROUNDEDRECTD59*
21,1,1.210,1.158,0,0,180.0*
21,1,0.907,1.460,0,0,180.0*
1,1,0.303,-0.454,0.579*
1,1,0.303,0.454,0.579*
1,1,0.303,0.454,-0.579*
1,1,0.303,-0.454,-0.579*
%
%ADD59ROUNDEDRECTD59*%
G04:AMPARAMS|DCode=60|XSize=1.53mm|YSize=1.02mm|CornerRadius=0.127mm|HoleSize=0mm|Usage=FLASHONLY|Rotation=270.000|XOffset=0mm|YOffset=0mm|HoleType=Round|Shape=RoundedRectangle|*
%AMROUNDEDRECTD60*
21,1,1.530,0.765,0,0,270.0*
21,1,1.275,1.020,0,0,270.0*
1,1,0.255,-0.383,-0.638*
1,1,0.255,-0.383,0.638*
1,1,0.255,0.383,0.638*
1,1,0.255,0.383,-0.638*
%
%ADD60ROUNDEDRECTD60*%
G04:AMPARAMS|DCode=61|XSize=1.53mm|YSize=1.02mm|CornerRadius=0.127mm|HoleSize=0mm|Usage=FLASHONLY|Rotation=0.000|XOffset=0mm|YOffset=0mm|HoleType=Round|Shape=RoundedRectangle|*
%AMROUNDEDRECTD61*
21,1,1.530,0.765,0,0,0.0*
21,1,1.275,1.020,0,0,0.0*
1,1,0.255,0.638,-0.383*
1,1,0.255,-0.638,-0.383*
1,1,0.255,-0.638,0.383*
1,1,0.255,0.638,0.383*
%
%ADD61ROUNDEDRECTD61*%
G04:AMPARAMS|DCode=62|XSize=3.14mm|YSize=1.54mm|CornerRadius=0.193mm|HoleSize=0mm|Usage=FLASHONLY|Rotation=270.000|XOffset=0mm|YOffset=0mm|HoleType=Round|Shape=RoundedRectangle|*
%AMROUNDEDRECTD62*
21,1,3.140,1.155,0,0,270.0*
21,1,2.755,1.540,0,0,270.0*
1,1,0.385,-0.578,-1.378*
1,1,0.385,-0.578,1.378*
1,1,0.385,0.578,1.378*
1,1,0.385,0.578,-1.378*
%
%ADD62ROUNDEDRECTD62*%
G04:AMPARAMS|DCode=63|XSize=1mm|YSize=1.1mm|CornerRadius=0.125mm|HoleSize=0mm|Usage=FLASHONLY|Rotation=180.000|XOffset=0mm|YOffset=0mm|HoleType=Round|Shape=RoundedRectangle|*
%AMROUNDEDRECTD63*
21,1,1.000,0.850,0,0,180.0*
21,1,0.750,1.100,0,0,180.0*
1,1,0.250,-0.375,0.425*
1,1,0.250,0.375,0.425*
1,1,0.250,0.375,-0.425*
1,1,0.250,-0.375,-0.425*
%
%ADD63ROUNDEDRECTD63*%
G04:AMPARAMS|DCode=64|XSize=1.74mm|YSize=2.17mm|CornerRadius=0.217mm|HoleSize=0mm|Usage=FLASHONLY|Rotation=0.000|XOffset=0mm|YOffset=0mm|HoleType=Round|Shape=RoundedRectangle|*
%AMROUNDEDRECTD64*
21,1,1.740,1.735,0,0,0.0*
21,1,1.305,2.170,0,0,0.0*
1,1,0.435,0.653,-0.868*
1,1,0.435,-0.653,-0.868*
1,1,0.435,-0.653,0.868*
1,1,0.435,0.653,0.868*
%
%ADD64ROUNDEDRECTD64*%
G04:AMPARAMS|DCode=65|XSize=1.26mm|YSize=0.58mm|CornerRadius=0.072mm|HoleSize=0mm|Usage=FLASHONLY|Rotation=180.000|XOffset=0mm|YOffset=0mm|HoleType=Round|Shape=RoundedRectangle|*
%AMROUNDEDRECTD65*
21,1,1.260,0.435,0,0,180.0*
21,1,1.115,0.580,0,0,180.0*
1,1,0.145,-0.558,0.217*
1,1,0.145,0.558,0.217*
1,1,0.145,0.558,-0.217*
1,1,0.145,-0.558,-0.217*
%
%ADD65ROUNDEDRECTD65*%
%ADD66C,1.000*%
%ADD67C,6.500*%
%ADD68R,1.200X1.200*%
%ADD69C,3.200*%
%ADD70C,3.500*%
%ADD71C,2.000*%
%ADD72R,1.200X1.200*%
%ADD73C,4.000*%
%ADD74C,0.700*%
%ADD75C,0.600*%
%ADD76C,0.800*%
G36*
X-8865Y48682D02*
X-8652Y48594D01*
X-8460Y48466D01*
X-8298Y48303D01*
X-8170Y48112D01*
X-8082Y47899D01*
X-8037Y47673D01*
Y46375D01*
X-8147Y46312D01*
X-8321Y46413D01*
X-8503Y46461D01*
Y45248D01*
Y44034D01*
X-8321Y44083D01*
X-8147Y44183D01*
X-8037Y44120D01*
X-8037Y40129D01*
X-8164Y40034D01*
X-8265Y40054D01*
X-8275D01*
Y38385D01*
Y36716D01*
X-8265D01*
X-8164Y36736D01*
X-8037Y36642D01*
Y36431D01*
X-8164Y36336D01*
X-8265Y36356D01*
X-8275D01*
Y34687D01*
Y33018D01*
X-8265D01*
X-8164Y33038D01*
X-8037Y32943D01*
Y32687D01*
X-8164Y32592D01*
X-8265Y32612D01*
X-8275D01*
Y30943D01*
Y29274D01*
X-8265D01*
X-8164Y29294D01*
X-8037Y29199D01*
Y25667D01*
X-8037Y25564D01*
X-8077Y25362D01*
X-8156Y25172D01*
X-8270Y25000D01*
X-8416Y24854D01*
X-8588Y24740D01*
X-8778Y24661D01*
X-8981Y24620D01*
X-9084Y24620D01*
X-14274D01*
X-14380Y24620D01*
X-14587Y24662D01*
X-14783Y24743D01*
X-14959Y24860D01*
X-15109Y25010D01*
X-15226Y25186D01*
X-15307Y25381D01*
X-15348Y25589D01*
X-15348Y25695D01*
Y29287D01*
X-15236Y29347D01*
X-15219Y29335D01*
X-15035Y29299D01*
X-15025D01*
Y30968D01*
Y32637D01*
X-15035D01*
X-15219Y32601D01*
X-15236Y32589D01*
X-15348Y32648D01*
Y33032D01*
X-15236Y33091D01*
X-15219Y33079D01*
X-15035Y33043D01*
X-15025D01*
Y34712D01*
Y36381D01*
X-15035D01*
X-15219Y36345D01*
X-15236Y36333D01*
X-15348Y36393D01*
X-15348Y36730D01*
X-15236Y36789D01*
X-15219Y36778D01*
X-15035Y36741D01*
X-15025D01*
Y38410D01*
Y40079D01*
X-15035D01*
X-15219Y40043D01*
X-15236Y40031D01*
X-15348Y40091D01*
X-15348Y47615D01*
Y47724D01*
X-15306Y47939D01*
X-15222Y48142D01*
X-15100Y48324D01*
X-14945Y48479D01*
X-14763Y48600D01*
X-14561Y48684D01*
X-14346Y48727D01*
X-14236Y48727D01*
X-14236Y48727D01*
X-9090D01*
X-8865Y48682D01*
D02*
G37*
G36*
X6283Y48727D02*
X6405Y48727D01*
X6645Y48679D01*
X6870Y48586D01*
X7073Y48451D01*
X7245Y48278D01*
X7381Y48075D01*
X7474Y47850D01*
X7522Y47610D01*
X7522Y47488D01*
X7522Y47488D01*
X7522Y47488D01*
X7522Y45984D01*
X7395Y45950D01*
X7357Y46015D01*
X7125Y46248D01*
X6839Y46413D01*
X6657Y46461D01*
Y45248D01*
Y44034D01*
X6839Y44083D01*
X7125Y44247D01*
X7357Y44480D01*
X7447Y44636D01*
X7594D01*
X7737Y44388D01*
X7997Y44127D01*
X8317Y43943D01*
X8673Y43848D01*
X9041D01*
X9397Y43943D01*
X9669Y44100D01*
X10200Y44100D01*
X10328Y44100D01*
X10580Y44050D01*
X10763Y43974D01*
X10817Y43943D01*
X10838Y43937D01*
X11030Y43810D01*
X11211Y43628D01*
X11353Y43415D01*
X11451Y43178D01*
X11501Y42927D01*
X11501Y42799D01*
X11501Y42799D01*
X11501Y42799D01*
X11501Y41592D01*
Y40129D01*
X11374Y40034D01*
X11273Y40054D01*
X11263D01*
Y38385D01*
Y36716D01*
X11273D01*
X11374Y36736D01*
X11501Y36642D01*
Y36431D01*
X11374Y36336D01*
X11273Y36356D01*
X11263D01*
Y34687D01*
Y33018D01*
X11273D01*
X11374Y33038D01*
X11501Y32943D01*
Y32687D01*
X11374Y32592D01*
X11273Y32612D01*
X11263D01*
Y30943D01*
Y29274D01*
X11273D01*
X11374Y29294D01*
X11501Y29199D01*
Y25667D01*
X11501Y25564D01*
X11461Y25362D01*
X11382Y25171D01*
X11268Y25000D01*
X11122Y24854D01*
X10950Y24740D01*
X10760Y24661D01*
X10557Y24620D01*
X10454Y24620D01*
X5264D01*
X5158Y24620D01*
X4951Y24662D01*
X4755Y24743D01*
X4579Y24860D01*
X4429Y25010D01*
X4312Y25186D01*
X4231Y25381D01*
X4190Y25589D01*
X4190Y25695D01*
X4190Y29287D01*
X4302Y29347D01*
X4319Y29335D01*
X4503Y29299D01*
X4513D01*
Y30968D01*
Y32637D01*
X4503D01*
X4319Y32601D01*
X4302Y32589D01*
X4190Y32648D01*
Y33032D01*
X4302Y33091D01*
X4319Y33079D01*
X4503Y33043D01*
X4513D01*
Y34712D01*
Y36381D01*
X4503D01*
X4319Y36345D01*
X4302Y36333D01*
X4190Y36393D01*
Y36730D01*
X4302Y36789D01*
X4319Y36778D01*
X4503Y36741D01*
X4513D01*
Y38410D01*
Y40079D01*
X4503D01*
X4319Y40043D01*
X4282Y40018D01*
X4168Y40073D01*
X4159Y40164D01*
X4104Y40439D01*
X4023Y40707D01*
X3915Y40966D01*
X3783Y41213D01*
X3628Y41446D01*
X3450Y41663D01*
X3353Y41764D01*
X3353Y41764D01*
X3353Y41764D01*
X2085Y43033D01*
X1871Y43293D01*
X1684Y43573D01*
X1525Y43870D01*
X1396Y44181D01*
X1299Y44503D01*
X1233Y44833D01*
X1200Y45168D01*
Y45337D01*
X1200Y45337D01*
Y47744D01*
X1242Y47955D01*
X1324Y48153D01*
X1443Y48332D01*
X1595Y48484D01*
X1774Y48603D01*
X1972Y48685D01*
X2183Y48727D01*
X2290Y48727D01*
X2290Y48727D01*
X6283Y48727D01*
D02*
G37*
G36*
X-23227Y48688D02*
X-23040Y48610D01*
X-22871Y48497D01*
X-22728Y48354D01*
X-22615Y48186D01*
X-22538Y47998D01*
X-22498Y47800D01*
Y46082D01*
X-22626Y45860D01*
X-22773D01*
X-22863Y46015D01*
X-23095Y46248D01*
X-23381Y46413D01*
X-23563Y46461D01*
Y45248D01*
Y44034D01*
X-23381Y44083D01*
X-23095Y44247D01*
X-22863Y44480D01*
X-22773Y44636D01*
X-22626D01*
X-22498Y44414D01*
Y44025D01*
X-22498Y42525D01*
X-22498Y42408D01*
X-22543Y42181D01*
X-22632Y41966D01*
X-22761Y41773D01*
X-22926Y41609D01*
X-23119Y41480D01*
X-23333Y41391D01*
X-23551Y41347D01*
X-23677Y41345D01*
X-23677Y41345D01*
X-23677Y41345D01*
X-26297D01*
X-26408Y41340D01*
X-26627Y41296D01*
X-26833Y41211D01*
X-27018Y41087D01*
X-27175Y40930D01*
X-27299Y40745D01*
X-27385Y40539D01*
X-27428Y40320D01*
X-27434Y40209D01*
Y40129D01*
X-27561Y40034D01*
X-27662Y40054D01*
X-27672D01*
Y38385D01*
Y36716D01*
X-27662D01*
X-27561Y36736D01*
X-27434Y36642D01*
X-27434Y36431D01*
X-27561Y36336D01*
X-27662Y36356D01*
X-27672D01*
Y34687D01*
Y33018D01*
X-27662D01*
X-27561Y33038D01*
X-27434Y32944D01*
Y32686D01*
X-27561Y32592D01*
X-27662Y32612D01*
X-27672D01*
Y30943D01*
Y29274D01*
X-27662D01*
X-27561Y29294D01*
X-27434Y29199D01*
Y25667D01*
X-27433Y25564D01*
X-27473Y25362D01*
X-27552Y25171D01*
X-27667Y25000D01*
X-27813Y24854D01*
X-27984Y24739D01*
X-28175Y24660D01*
X-28377Y24620D01*
X-28481Y24620D01*
X-33671D01*
X-33777Y24620D01*
X-33984Y24662D01*
X-34180Y24742D01*
X-34356Y24860D01*
X-34505Y25009D01*
X-34623Y25185D01*
X-34704Y25381D01*
X-34745Y25588D01*
X-34745Y25694D01*
Y29287D01*
X-34633Y29347D01*
X-34616Y29335D01*
X-34432Y29299D01*
X-34422D01*
Y30968D01*
Y32637D01*
X-34432D01*
X-34616Y32601D01*
X-34633Y32589D01*
X-34745Y32649D01*
Y33031D01*
X-34633Y33091D01*
X-34616Y33079D01*
X-34432Y33043D01*
X-34422D01*
Y34712D01*
Y36381D01*
X-34432D01*
X-34616Y36345D01*
X-34633Y36333D01*
X-34745Y36393D01*
Y36730D01*
X-34633Y36789D01*
X-34616Y36778D01*
X-34432Y36741D01*
X-34422D01*
Y38410D01*
Y40079D01*
X-34432D01*
X-34616Y40043D01*
X-34633Y40031D01*
X-34745Y40091D01*
Y40533D01*
X-34720Y40695D01*
X-34670Y40850D01*
X-34597Y40996D01*
X-34502Y41128D01*
X-34388Y41245D01*
X-34257Y41342D01*
X-34113Y41418D01*
X-34036Y41445D01*
X-34036Y41445D01*
X-33660Y41574D01*
X-33407Y41671D01*
X-32929Y41924D01*
X-32495Y42247D01*
X-32117Y42633D01*
X-31802Y43073D01*
X-31559Y43557D01*
X-31394Y44072D01*
X-31311Y44606D01*
X-31300Y44877D01*
X-31300Y44877D01*
Y47801D01*
X-31261Y48000D01*
X-31183Y48187D01*
X-31071Y48355D01*
X-30928Y48498D01*
X-30759Y48610D01*
X-30573Y48688D01*
X-30374Y48727D01*
X-30273D01*
X-30273Y48727D01*
X-23426D01*
X-23227Y48688D01*
D02*
G37*
G36*
X29453Y48727D02*
X29604D01*
X29902Y48668D01*
X30182Y48552D01*
X30435Y48383D01*
X30649Y48169D01*
X30818Y47916D01*
X30934Y47636D01*
X30993Y47338D01*
X30993Y47187D01*
X30993Y47187D01*
X30993Y47187D01*
Y43500D01*
Y40129D01*
X30866Y40034D01*
X30765Y40054D01*
X30755D01*
Y38385D01*
Y36716D01*
X30765D01*
X30866Y36736D01*
X30993Y36642D01*
Y36431D01*
X30866Y36336D01*
X30765Y36356D01*
X30755D01*
Y34687D01*
Y33018D01*
X30765D01*
X30866Y33038D01*
X30993Y32943D01*
Y32687D01*
X30866Y32592D01*
X30765Y32612D01*
X30755D01*
Y30943D01*
Y29274D01*
X30765D01*
X30866Y29294D01*
X30993Y29199D01*
Y25667D01*
X30993Y25564D01*
X30953Y25362D01*
X30874Y25171D01*
X30760Y25000D01*
X30614Y24854D01*
X30442Y24740D01*
X30252Y24661D01*
X30049Y24620D01*
X29946Y24620D01*
X24756D01*
X24650Y24620D01*
X24442Y24662D01*
X24247Y24743D01*
X24071Y24860D01*
X23921Y25010D01*
X23804Y25186D01*
X23723Y25381D01*
X23681Y25589D01*
X23681Y25695D01*
X23681Y29287D01*
X23793Y29347D01*
X23811Y29335D01*
X23995Y29299D01*
X24005D01*
Y30968D01*
Y32637D01*
X23995D01*
X23811Y32601D01*
X23793Y32589D01*
X23681Y32648D01*
Y33032D01*
X23793Y33091D01*
X23811Y33079D01*
X23995Y33043D01*
X24005D01*
Y34712D01*
Y36381D01*
X23995D01*
X23811Y36345D01*
X23793Y36333D01*
X23681Y36393D01*
Y36730D01*
X23793Y36790D01*
X23811Y36778D01*
X23995Y36741D01*
X24005D01*
Y38410D01*
Y40079D01*
X23995D01*
X23811Y40043D01*
X23793Y40031D01*
X23681Y40091D01*
Y40659D01*
X23674Y40803D01*
X23618Y41085D01*
X23508Y41351D01*
X23348Y41590D01*
X23145Y41794D01*
X22905Y41954D01*
X22639Y42064D01*
X22357Y42120D01*
X22213Y42127D01*
X22213Y42127D01*
X22213Y42127D01*
X18031D01*
X17890Y42127D01*
X17613Y42182D01*
X17353Y42290D01*
X17119Y42446D01*
X16919Y42646D01*
X16763Y42880D01*
X16655Y43140D01*
X16600Y43417D01*
X16600Y43558D01*
X16600Y43558D01*
Y47253D01*
Y47398D01*
X16657Y47683D01*
X16768Y47951D01*
X16929Y48193D01*
X17134Y48398D01*
X17376Y48559D01*
X17644Y48670D01*
X17929Y48727D01*
X18074D01*
X18074Y48727D01*
X29453Y48727D01*
D02*
G37*
G36*
X20136Y41365D02*
X22229Y41365D01*
X22422Y41327D01*
X22603Y41252D01*
X22766Y41143D01*
X22905Y41005D01*
X23014Y40841D01*
X23089Y40660D01*
X23127Y40468D01*
Y40050D01*
X23000Y39982D01*
X22908Y40043D01*
X22725Y40079D01*
X22715D01*
Y38410D01*
Y36741D01*
X22725D01*
X22908Y36778D01*
X23000Y36839D01*
X23127Y36771D01*
Y36351D01*
X23000Y36284D01*
X22908Y36345D01*
X22725Y36381D01*
X22715D01*
Y34712D01*
Y33043D01*
X22725D01*
X22908Y33079D01*
X23000Y33141D01*
X23127Y33073D01*
Y32607D01*
X23000Y32539D01*
X22908Y32601D01*
X22725Y32637D01*
X22715D01*
Y30968D01*
Y29299D01*
X22725D01*
X22908Y29335D01*
X23000Y29396D01*
X23127Y29329D01*
Y25536D01*
X23134Y25396D01*
X23189Y25120D01*
X23296Y24860D01*
X23452Y24626D01*
X23651Y24427D01*
X23885Y24271D01*
X24145Y24164D01*
X24420Y24109D01*
X24561Y24102D01*
X30365D01*
X30513Y24109D01*
X30804Y24167D01*
X31078Y24280D01*
X31324Y24445D01*
X31534Y24655D01*
X31699Y24901D01*
X31812Y25175D01*
X31870Y25466D01*
X31877Y25614D01*
X31877Y29205D01*
X31975Y29285D01*
X32035Y29274D01*
X32045D01*
Y30943D01*
Y32612D01*
X32035D01*
X31975Y32600D01*
X31877Y32681D01*
Y32949D01*
X31975Y33030D01*
X32035Y33018D01*
X32045D01*
Y34687D01*
Y36356D01*
X32035D01*
X31975Y36344D01*
X31877Y36425D01*
Y36647D01*
X31975Y36728D01*
X32035Y36716D01*
X32045D01*
Y38385D01*
X32695D01*
Y39035D01*
X33834D01*
Y39200D01*
X34156D01*
X34156Y39200D01*
Y39200D01*
X34156D01*
X34274Y39196D01*
X34453Y39161D01*
X34638Y39084D01*
X34804Y38973D01*
X34946Y38831D01*
X35057Y38665D01*
X35134Y38480D01*
X35173Y38283D01*
X35173Y38183D01*
X35173Y19838D01*
X35182Y19747D01*
X35252Y19578D01*
X35381Y19449D01*
X35550Y19379D01*
X35558Y19378D01*
X35656Y19258D01*
X35658Y19243D01*
X35649Y19201D01*
Y19126D01*
X36457D01*
Y18826D01*
X36757D01*
Y18069D01*
X36780D01*
X36860Y17971D01*
X36837Y17854D01*
X36729Y17593D01*
X36572Y17358D01*
X36472Y17258D01*
X35696Y16482D01*
X35696Y16482D01*
X35578Y16352D01*
X35384Y16061D01*
X35250Y15737D01*
X35181Y15394D01*
X35173Y15219D01*
Y14121D01*
Y12028D01*
X35043D01*
X34972Y12114D01*
Y12393D01*
X34109D01*
Y12693D01*
X33809D01*
Y13681D01*
X33789D01*
X33676Y13721D01*
X33669Y13786D01*
X33666Y13826D01*
X33660Y13838D01*
X33660Y13838D01*
X33660Y13839D01*
X33585Y14019D01*
X33437Y14167D01*
X33244Y14247D01*
X33139Y14258D01*
X32290Y14258D01*
X32225Y14258D01*
X32097Y14283D01*
X31978Y14333D01*
X31870Y14405D01*
X31778Y14496D01*
X31706Y14604D01*
X31656Y14724D01*
X31631Y14851D01*
X31631Y14916D01*
Y18005D01*
X31631Y18005D01*
X31631Y18005D01*
X31631Y18010D01*
X31626Y18114D01*
X31624Y18124D01*
X31583Y18329D01*
X31500Y18531D01*
X31378Y18712D01*
X31224Y18867D01*
X31042Y18988D01*
X30840Y19072D01*
X30625Y19115D01*
X30516Y19120D01*
X24601Y19120D01*
X24601Y19120D01*
X24456Y19113D01*
X24173Y19056D01*
X23906Y18946D01*
X23666Y18785D01*
X23461Y18581D01*
X23301Y18341D01*
X23190Y18074D01*
X23134Y17791D01*
X23127Y17646D01*
X23127Y10570D01*
X23135Y10400D01*
X23202Y10066D01*
X23332Y9751D01*
X23521Y9468D01*
X23762Y9227D01*
X24045Y9038D01*
X24360Y8908D01*
X24694Y8841D01*
X24864Y8833D01*
X29981D01*
X30041Y8721D01*
X30004Y8666D01*
X29961Y8451D01*
Y7847D01*
X33582D01*
Y8451D01*
X33540Y8666D01*
X33503Y8721D01*
X33563Y8833D01*
X35373D01*
Y8809D01*
X36396D01*
Y8509D01*
X36696D01*
Y7741D01*
X36984D01*
X38897Y5828D01*
X38897Y5827D01*
Y5827D01*
X39011Y5714D01*
X39191Y5445D01*
X39314Y5148D01*
X39377Y4831D01*
X39377Y4670D01*
X39377Y-3320D01*
X39377Y-3422D01*
X39337Y-3623D01*
X39258Y-3812D01*
X39145Y-3983D01*
X39000Y-4127D01*
X38830Y-4241D01*
X38640Y-4320D01*
X38439Y-4360D01*
X36117D01*
X36011Y-4360D01*
X35803Y-4318D01*
X35607Y-4237D01*
X35431Y-4120D01*
X35281Y-3970D01*
X35163Y-3793D01*
X35082Y-3598D01*
X35041Y-3390D01*
X35041Y-3284D01*
Y2410D01*
X35041Y2410D01*
X35051Y2533D01*
X35068Y2624D01*
X35123Y2757D01*
X35203Y2876D01*
X35305Y2978D01*
X35425Y3058D01*
X35558Y3113D01*
X35699Y3141D01*
X35771Y3140D01*
X37171Y3140D01*
X37288Y3152D01*
X37504Y3241D01*
X37670Y3407D01*
X37759Y3623D01*
X37771Y3740D01*
Y4918D01*
X37771D01*
X37771Y4918D01*
X37771Y4918D01*
X37768Y4985D01*
X37758Y5036D01*
X37742Y5118D01*
X37690Y5243D01*
X37615Y5355D01*
X37519Y5451D01*
X37407Y5526D01*
X37382Y5536D01*
X37374Y5546D01*
X37343Y5690D01*
X37389Y5758D01*
X37418Y5905D01*
Y5988D01*
X35373D01*
Y5905D01*
X35403Y5758D01*
X35419Y5734D01*
X35409Y5695D01*
X35346Y5615D01*
X35175Y5649D01*
X34976Y5731D01*
X34797Y5851D01*
X34721Y5927D01*
X34521Y6126D01*
X34521Y6126D01*
X34475Y6169D01*
X34371Y6238D01*
X34256Y6286D01*
X34133Y6310D01*
X34071Y6313D01*
X33597D01*
X33547Y6406D01*
X33542Y6440D01*
X33582Y6643D01*
Y7247D01*
X29961D01*
Y6643D01*
X30001Y6440D01*
X29996Y6406D01*
X29946Y6313D01*
X29396D01*
X29319Y6446D01*
X29187Y6579D01*
X29025Y6672D01*
X28844Y6720D01*
X28657D01*
X28477Y6672D01*
X28315Y6579D01*
X28238Y6502D01*
X28106Y6521D01*
X28090Y6601D01*
X28010Y6720D01*
X27890Y6800D01*
X27749Y6828D01*
X26592D01*
X26451Y6800D01*
X26332Y6720D01*
X26252Y6601D01*
X26224Y6460D01*
Y5552D01*
X26242Y5460D01*
Y4862D01*
X26224Y4770D01*
Y3862D01*
X26242Y3770D01*
Y3769D01*
X26254Y3646D01*
X26348Y3420D01*
X26521Y3246D01*
X26748Y3152D01*
X26871Y3140D01*
X27671D01*
X27671Y3140D01*
Y3140D01*
X27671D01*
X27789Y3131D01*
X27875Y3114D01*
X28003Y3061D01*
X28118Y2985D01*
X28215Y2887D01*
X28292Y2772D01*
X28344Y2645D01*
X28371Y2509D01*
X28371Y2440D01*
Y-1896D01*
X28371Y-1896D01*
X28371Y-1982D01*
X28305Y-2140D01*
X28185Y-2261D01*
X28099Y-2296D01*
X27992Y-2208D01*
X27989Y-2199D01*
X27997Y-2161D01*
Y-1686D01*
X27099D01*
X26201D01*
Y-2161D01*
X26208Y-2199D01*
X26104Y-2326D01*
X22884Y-2326D01*
X22774Y-2326D01*
X22570Y-2242D01*
X22414Y-2086D01*
X22330Y-1882D01*
X22330Y-1772D01*
Y6101D01*
X22330Y6101D01*
X22330Y6101D01*
X22323Y6238D01*
X22270Y6505D01*
X22166Y6757D01*
X22014Y6984D01*
X21923Y7085D01*
X20615Y8392D01*
X20615Y8392D01*
X20500Y8507D01*
X20318Y8779D01*
X20257Y8928D01*
X20348Y9039D01*
X20382Y9032D01*
X20660D01*
Y10861D01*
X20960D01*
D01*
X20660D01*
Y12690D01*
X20382D01*
X20257Y12665D01*
X20130Y12743D01*
Y12973D01*
X20130Y27846D01*
X20130D01*
X20130Y27846D01*
X20130Y27846D01*
X20125Y27949D01*
X20122Y27965D01*
X20085Y28151D01*
X20006Y28342D01*
X19891Y28514D01*
X19821Y28590D01*
X19511Y28901D01*
X19511Y28901D01*
Y28901D01*
X19424Y28991D01*
X19302Y29173D01*
X19214Y29385D01*
X19170Y29610D01*
X19170Y29725D01*
Y40399D01*
X19170Y40494D01*
X19207Y40681D01*
X19279Y40857D01*
X19385Y41015D01*
X19520Y41150D01*
X19678Y41255D01*
X19854Y41328D01*
X20041Y41365D01*
X20136Y41365D01*
D02*
G37*
G36*
X2824Y41005D02*
X2904Y41005D01*
X3061Y40973D01*
X3208Y40912D01*
X3341Y40824D01*
X3454Y40711D01*
X3543Y40578D01*
X3604Y40430D01*
X3635Y40274D01*
X3635Y40194D01*
Y40050D01*
X3508Y39982D01*
X3416Y40043D01*
X3233Y40079D01*
X3223D01*
Y38410D01*
Y36741D01*
X3233D01*
X3416Y36778D01*
X3508Y36839D01*
X3635Y36771D01*
X3635Y36351D01*
X3508Y36284D01*
X3416Y36345D01*
X3233Y36381D01*
X3223D01*
Y34712D01*
Y33043D01*
X3233D01*
X3416Y33079D01*
X3508Y33141D01*
X3635Y33073D01*
Y32607D01*
X3508Y32539D01*
X3416Y32601D01*
X3233Y32637D01*
X3223D01*
Y30968D01*
Y29299D01*
X3233D01*
X3416Y29335D01*
X3508Y29396D01*
X3635Y29329D01*
X3635Y25511D01*
X3642Y25371D01*
X3697Y25095D01*
X3804Y24835D01*
X3960Y24601D01*
X4159Y24402D01*
X4393Y24246D01*
X4653Y24139D01*
X4929Y24084D01*
X5069Y24077D01*
X10873D01*
X10873Y24077D01*
X10873Y24077D01*
X11021Y24084D01*
X11312Y24142D01*
X11586Y24255D01*
X11832Y24420D01*
X12042Y24630D01*
X12207Y24876D01*
X12320Y25150D01*
X12378Y25441D01*
X12385Y25589D01*
X12385Y29205D01*
X12483Y29285D01*
X12543Y29274D01*
X12553D01*
Y30943D01*
Y32612D01*
X12543D01*
X12483Y32600D01*
X12385Y32681D01*
X12385Y32949D01*
X12483Y33030D01*
X12543Y33018D01*
X12553D01*
Y34687D01*
Y36356D01*
X12543D01*
X12483Y36344D01*
X12385Y36425D01*
Y36647D01*
X12483Y36728D01*
X12543Y36716D01*
X12553D01*
Y38385D01*
Y40054D01*
X12543D01*
X12515Y40049D01*
X12407Y40157D01*
X12418Y40210D01*
X12482Y40366D01*
X12576Y40506D01*
X12695Y40625D01*
X12835Y40718D01*
X12990Y40783D01*
X13156Y40815D01*
X13240Y40815D01*
X14915Y40815D01*
X14915Y40815D01*
X14915Y40815D01*
X14915D01*
X15034Y40807D01*
X15138Y40786D01*
X15278Y40728D01*
X15403Y40644D01*
X15510Y40538D01*
X15594Y40412D01*
X15652Y40273D01*
X15681Y40124D01*
X15681Y40049D01*
X15681Y19813D01*
X15690Y19722D01*
X15760Y19553D01*
X15889Y19424D01*
X16058Y19354D01*
X16127Y19220D01*
X16124Y19201D01*
Y19126D01*
X16931D01*
Y18826D01*
X17231D01*
Y18069D01*
X17263D01*
X17369Y17947D01*
X17345Y17829D01*
X17237Y17568D01*
X17080Y17333D01*
X16980Y17233D01*
X16204Y16457D01*
X16204Y16457D01*
X16087Y16327D01*
X15892Y16036D01*
X15758Y15712D01*
X15690Y15369D01*
X15681Y15194D01*
Y14096D01*
Y12003D01*
X15508D01*
X15427Y12101D01*
X15430Y12114D01*
Y12392D01*
X14567D01*
Y12692D01*
X14267D01*
Y13685D01*
X14184Y13696D01*
X14178Y13759D01*
X14174Y13801D01*
X14169Y13813D01*
X14169Y13813D01*
X14168Y13814D01*
X14094Y13994D01*
X13946Y14142D01*
X13752Y14222D01*
X13647Y14233D01*
X12798Y14233D01*
X12733Y14233D01*
X12606Y14258D01*
X12486Y14308D01*
X12378Y14380D01*
X12286Y14471D01*
X12214Y14579D01*
X12165Y14699D01*
X12139Y14826D01*
X12139Y14891D01*
Y17980D01*
X12139Y17980D01*
X12139Y17980D01*
X12139Y17982D01*
X12134Y18089D01*
X12132Y18099D01*
X12091Y18304D01*
X12008Y18506D01*
X11886Y18687D01*
X11732Y18842D01*
X11550Y18963D01*
X11348Y19047D01*
X11133Y19090D01*
X11024Y19095D01*
X5109Y19095D01*
X5109Y19095D01*
X4964Y19088D01*
X4681Y19031D01*
X4414Y18921D01*
X4174Y18760D01*
X3970Y18556D01*
X3809Y18316D01*
X3698Y18049D01*
X3642Y17766D01*
X3635Y17621D01*
X3635Y10545D01*
X3643Y10375D01*
X3710Y10041D01*
X3840Y9726D01*
X4029Y9443D01*
X4270Y9202D01*
X4553Y9013D01*
X4868Y8883D01*
X5202Y8816D01*
X5372Y8808D01*
X10490D01*
X10550Y8696D01*
X10509Y8636D01*
X10466Y8421D01*
Y7817D01*
X14088D01*
Y8421D01*
X14045Y8636D01*
X14005Y8696D01*
X14065Y8808D01*
X15881D01*
Y8808D01*
X16904D01*
Y8508D01*
X17204D01*
Y7740D01*
X17458D01*
X19200Y5998D01*
X19200Y5998D01*
X19200Y5998D01*
X19363Y5835D01*
X19619Y5452D01*
X19795Y5027D01*
X19885Y4575D01*
X19885Y4345D01*
X19885Y-1751D01*
X19885Y-1751D01*
Y-1861D01*
X19801Y-2065D01*
X19645Y-2221D01*
X19441Y-2305D01*
X17951D01*
X17871Y-2207D01*
X17880Y-2161D01*
Y-1686D01*
X16982D01*
X16084D01*
Y-2161D01*
X16093Y-2207D01*
X16012Y-2305D01*
X15954D01*
X15768Y-2228D01*
X15626Y-2086D01*
X15549Y-1900D01*
Y-1799D01*
Y2385D01*
X15549Y2457D01*
X15576Y2599D01*
X15631Y2732D01*
X15711Y2851D01*
X15813Y2953D01*
X15933Y3033D01*
X16066Y3088D01*
X16207Y3116D01*
X16279Y3115D01*
X17679Y3115D01*
X17796Y3127D01*
X18012Y3217D01*
X18178Y3382D01*
X18267Y3598D01*
X18279Y3715D01*
Y4893D01*
X18279Y4893D01*
X18279Y4893D01*
X18279Y4893D01*
X18276Y4960D01*
X18266Y5012D01*
X18250Y5093D01*
X18198Y5218D01*
X18123Y5330D01*
X18028Y5426D01*
X17915Y5501D01*
X17871Y5519D01*
X17857Y5548D01*
X17838Y5670D01*
X17897Y5758D01*
X17926Y5905D01*
Y5988D01*
X15881D01*
Y5905D01*
X15911Y5758D01*
X15944Y5709D01*
X15909Y5620D01*
X15873Y5586D01*
X15683Y5624D01*
X15484Y5706D01*
X15305Y5826D01*
X15229Y5902D01*
X15029Y6101D01*
X15029Y6101D01*
X15029Y6101D01*
X15029Y6101D01*
X14983Y6144D01*
X14937Y6175D01*
X14880Y6213D01*
X14764Y6261D01*
X14641Y6285D01*
X14579Y6288D01*
X14104D01*
X14072Y6348D01*
X14049Y6415D01*
X14088Y6613D01*
Y7217D01*
X10466D01*
Y6613D01*
X10506Y6415D01*
X10482Y6348D01*
X10450Y6288D01*
X10051D01*
X10030Y6367D01*
X9936Y6529D01*
X9804Y6661D01*
X9642Y6755D01*
X9461Y6803D01*
X9275D01*
X9094Y6755D01*
X8932Y6661D01*
X8800Y6529D01*
X8794Y6518D01*
X8614D01*
X8598Y6600D01*
X8518Y6720D01*
X8399Y6799D01*
X8258Y6827D01*
X7100D01*
X6959Y6799D01*
X6840Y6720D01*
X6760Y6600D01*
X6732Y6459D01*
Y5552D01*
X6750Y5459D01*
Y4862D01*
X6732Y4769D01*
Y3862D01*
X6750Y3769D01*
Y3744D01*
X6762Y3621D01*
X6856Y3395D01*
X7029Y3221D01*
X7256Y3127D01*
X7379Y3115D01*
X8179D01*
X8179Y3115D01*
Y3115D01*
X8179D01*
X8301Y3105D01*
X8383Y3089D01*
X8511Y3036D01*
X8626Y2960D01*
X8723Y2862D01*
X8800Y2747D01*
X8852Y2620D01*
X8879Y2484D01*
X8879Y2415D01*
X8879Y-1892D01*
X8879Y-1892D01*
X8879Y-1985D01*
X8808Y-2156D01*
X8677Y-2288D01*
X8608Y-2316D01*
X8497Y-2225D01*
X8505Y-2186D01*
Y-1711D01*
X7607D01*
X6709D01*
Y-2186D01*
X6718Y-2232D01*
X6614Y-2359D01*
X3320Y-2359D01*
X3224Y-2359D01*
X3047Y-2285D01*
X2911Y-2150D01*
X2838Y-1972D01*
Y-1876D01*
Y5340D01*
X2838Y5340D01*
X2838Y5340D01*
X2826Y5591D01*
X2728Y6082D01*
X2537Y6545D01*
X2258Y6961D01*
X2090Y7146D01*
X1134Y8103D01*
X1134Y8103D01*
X1016Y8221D01*
X831Y8498D01*
X703Y8806D01*
X673Y8954D01*
X783Y9053D01*
X890Y9032D01*
X1168D01*
Y10860D01*
X1468D01*
D01*
X1168D01*
Y12689D01*
X890D01*
X765Y12664D01*
X638Y12743D01*
Y12948D01*
X638Y27821D01*
X638Y27821D01*
X638Y27821D01*
X638Y27821D01*
X633Y27924D01*
X630Y27938D01*
X593Y28126D01*
X514Y28317D01*
X399Y28489D01*
X329Y28565D01*
X19Y28876D01*
X19Y28876D01*
X-62Y28957D01*
X-190Y29148D01*
X-277Y29360D01*
X-322Y29585D01*
X-322Y29700D01*
Y40287D01*
Y40358D01*
X-295Y40496D01*
X-241Y40627D01*
X-162Y40744D01*
X-62Y40844D01*
X55Y40923D01*
X186Y40977D01*
X324Y41005D01*
X2824D01*
Y41005D01*
D02*
G37*
G36*
X-18894Y41345D02*
X-16800Y41345D01*
X-16608Y41307D01*
X-16427Y41232D01*
X-16264Y41123D01*
X-16125Y40984D01*
X-16016Y40821D01*
X-15941Y40640D01*
X-15903Y40448D01*
Y40050D01*
X-16030Y39982D01*
X-16122Y40043D01*
X-16305Y40079D01*
X-16315D01*
Y38410D01*
Y36741D01*
X-16305D01*
X-16122Y36778D01*
X-16030Y36839D01*
X-15903Y36771D01*
Y36351D01*
X-16030Y36284D01*
X-16122Y36345D01*
X-16305Y36381D01*
X-16315D01*
Y34712D01*
Y33043D01*
X-16305D01*
X-16122Y33079D01*
X-16030Y33141D01*
X-15903Y33073D01*
Y32607D01*
X-16030Y32539D01*
X-16122Y32601D01*
X-16305Y32637D01*
X-16315D01*
Y30968D01*
Y29299D01*
X-16305D01*
X-16122Y29335D01*
X-16030Y29396D01*
X-15903Y29329D01*
Y25516D01*
X-15896Y25376D01*
X-15841Y25100D01*
X-15734Y24840D01*
X-15578Y24606D01*
X-15379Y24407D01*
X-15145Y24251D01*
X-14885Y24144D01*
X-14609Y24089D01*
X-14469Y24082D01*
X-8665D01*
X-8665Y24082D01*
X-8665Y24082D01*
X-8517Y24089D01*
X-8226Y24147D01*
X-7952Y24260D01*
X-7706Y24425D01*
X-7496Y24635D01*
X-7331Y24881D01*
X-7218Y25155D01*
X-7160Y25446D01*
X-7153Y25594D01*
X-7153Y29205D01*
X-7055Y29285D01*
X-6995Y29274D01*
X-6985D01*
Y30943D01*
Y32612D01*
X-6995D01*
X-7055Y32600D01*
X-7153Y32681D01*
X-7153Y32949D01*
X-7055Y33030D01*
X-6995Y33018D01*
X-6985D01*
Y34687D01*
Y36356D01*
X-6995D01*
X-7055Y36344D01*
X-7153Y36425D01*
Y36647D01*
X-7055Y36728D01*
X-6995Y36716D01*
X-6985D01*
Y38385D01*
Y40054D01*
X-6995D01*
X-7024Y40049D01*
X-7132Y40157D01*
X-7120Y40215D01*
X-7056Y40371D01*
X-6962Y40511D01*
X-6843Y40630D01*
X-6703Y40723D01*
X-6548Y40788D01*
X-6382Y40820D01*
X-6298Y40820D01*
X-4623Y40820D01*
X-4623Y40820D01*
X-4623Y40820D01*
X-4623D01*
X-4505Y40812D01*
X-4400Y40791D01*
X-4260Y40733D01*
X-4135Y40649D01*
X-4028Y40543D01*
X-3944Y40417D01*
X-3886Y40278D01*
X-3857Y40129D01*
X-3857Y40054D01*
X-3857Y19818D01*
X-3848Y19727D01*
X-3778Y19558D01*
X-3649Y19429D01*
X-3480Y19359D01*
X-3379Y19234D01*
X-3378Y19223D01*
X-3383Y19201D01*
Y19126D01*
X-2575D01*
Y18826D01*
X-2275D01*
Y18068D01*
X-2171Y17942D01*
X-2193Y17834D01*
X-2301Y17573D01*
X-2458Y17338D01*
X-2558Y17238D01*
X-3334Y16462D01*
X-3334Y16462D01*
X-3451Y16332D01*
X-3646Y16041D01*
X-3780Y15717D01*
X-3848Y15374D01*
X-3857Y15199D01*
Y14101D01*
Y11978D01*
X-4157D01*
X-4237Y12076D01*
X-4230Y12114D01*
Y12392D01*
X-5093D01*
Y12692D01*
X-5393D01*
Y13875D01*
X-5444Y13999D01*
X-5593Y14147D01*
X-5786Y14227D01*
X-5891Y14238D01*
X-6740Y14238D01*
X-6805Y14238D01*
X-6932Y14263D01*
X-7052Y14313D01*
X-7160Y14385D01*
X-7252Y14476D01*
X-7324Y14584D01*
X-7373Y14704D01*
X-7399Y14831D01*
X-7399Y14896D01*
Y17985D01*
X-7399Y17985D01*
X-7399Y17985D01*
X-7399Y17986D01*
X-7404Y18094D01*
X-7406Y18103D01*
X-7447Y18309D01*
X-7530Y18511D01*
X-7652Y18692D01*
X-7806Y18847D01*
X-7988Y18968D01*
X-8190Y19052D01*
X-8405Y19095D01*
X-8514Y19100D01*
X-14429Y19100D01*
X-14429Y19100D01*
X-14574Y19093D01*
X-14857Y19036D01*
X-15124Y18926D01*
X-15364Y18765D01*
X-15568Y18561D01*
X-15729Y18321D01*
X-15840Y18054D01*
X-15896Y17771D01*
X-15903Y17626D01*
X-15903Y10550D01*
X-15895Y10380D01*
X-15828Y10046D01*
X-15698Y9731D01*
X-15509Y9448D01*
X-15268Y9207D01*
X-14985Y9018D01*
X-14670Y8888D01*
X-14336Y8821D01*
X-14166Y8813D01*
X-9056D01*
X-8996Y8701D01*
X-9021Y8664D01*
X-9064Y8449D01*
Y7845D01*
X-5442D01*
Y8449D01*
X-5485Y8664D01*
X-5510Y8701D01*
X-5450Y8813D01*
X-3657D01*
Y8813D01*
X-2634D01*
Y8513D01*
X-2334D01*
Y7745D01*
X-1997D01*
X-1849Y7775D01*
X-1820Y7794D01*
X-176Y6151D01*
X-176Y6151D01*
X-52Y6027D01*
X144Y5734D01*
X279Y5409D01*
X347Y5063D01*
X347Y4887D01*
X347Y-1829D01*
X347Y-1829D01*
Y-1928D01*
X271Y-2111D01*
X132Y-2250D01*
X-51Y-2326D01*
X-1562D01*
X-1666Y-2199D01*
X-1658Y-2161D01*
Y-1686D01*
X-2556D01*
X-3454D01*
Y-2161D01*
X-3447Y-2199D01*
X-3466Y-2245D01*
X-3551Y-2326D01*
X-3596D01*
X-3777Y-2252D01*
X-3914Y-2114D01*
X-3989Y-1934D01*
Y-1836D01*
Y2390D01*
X-3989Y2390D01*
X-3980Y2509D01*
X-3962Y2604D01*
X-3907Y2737D01*
X-3827Y2856D01*
X-3725Y2958D01*
X-3605Y3038D01*
X-3472Y3093D01*
X-3331Y3121D01*
X-3259Y3120D01*
X-1859Y3120D01*
X-1742Y3132D01*
X-1526Y3221D01*
X-1360Y3387D01*
X-1271Y3603D01*
X-1259Y3720D01*
Y4898D01*
X-1259Y4898D01*
X-1259Y4898D01*
X-1259Y4898D01*
X-1262Y4965D01*
X-1272Y5015D01*
X-1288Y5098D01*
X-1340Y5223D01*
X-1415Y5335D01*
X-1510Y5431D01*
X-1623Y5506D01*
X-1662Y5522D01*
X-1676Y5547D01*
X-1697Y5674D01*
X-1641Y5758D01*
X-1612Y5905D01*
Y5988D01*
X-3657D01*
Y5905D01*
X-3627Y5758D01*
X-3598Y5714D01*
X-3627Y5634D01*
X-3669Y5592D01*
X-3855Y5629D01*
X-4054Y5711D01*
X-4233Y5831D01*
X-4309Y5907D01*
X-4509Y6106D01*
X-4509Y6106D01*
X-4555Y6149D01*
X-4658Y6218D01*
X-4774Y6266D01*
X-4897Y6290D01*
X-4959Y6293D01*
X-5439D01*
X-5499Y6405D01*
X-5485Y6426D01*
X-5442Y6641D01*
Y7245D01*
X-9064D01*
Y7085D01*
X-9191Y7032D01*
X-9241Y7083D01*
X-9403Y7176D01*
X-9584Y7225D01*
X-9771D01*
X-9951Y7176D01*
X-10113Y7083D01*
X-10245Y6951D01*
X-10339Y6789D01*
X-10387Y6608D01*
Y6507D01*
X-10414Y6479D01*
X-10915D01*
X-10940Y6605D01*
X-11020Y6725D01*
X-11139Y6804D01*
X-11280Y6832D01*
X-12438D01*
X-12579Y6804D01*
X-12698Y6725D01*
X-12778Y6605D01*
X-12806Y6464D01*
Y5557D01*
X-12788Y5464D01*
Y4867D01*
X-12806Y4774D01*
Y3867D01*
X-12788Y3774D01*
Y3749D01*
X-12788Y3749D01*
X-12776Y3626D01*
X-12682Y3400D01*
X-12509Y3226D01*
X-12282Y3132D01*
X-12159Y3120D01*
X-11359D01*
X-11359Y3120D01*
X-11359Y3120D01*
X-11359D01*
X-11241Y3111D01*
X-11155Y3094D01*
X-11027Y3041D01*
X-10912Y2965D01*
X-10815Y2867D01*
X-10738Y2752D01*
X-10686Y2625D01*
X-10659Y2489D01*
X-10659Y2420D01*
X-10659Y-1906D01*
X-10659Y-1906D01*
X-10659Y-1989D01*
X-10723Y-2144D01*
X-10841Y-2262D01*
X-10926Y-2297D01*
X-11037Y-2206D01*
X-11033Y-2186D01*
Y-1711D01*
X-11931D01*
X-12829D01*
Y-2186D01*
X-12821Y-2228D01*
X-12901Y-2326D01*
X-16331Y-2326D01*
X-16404Y-2326D01*
X-16540Y-2270D01*
X-16644Y-2166D01*
X-16700Y-2031D01*
X-16700Y-1957D01*
Y5345D01*
X-16700Y5345D01*
X-16700Y5345D01*
X-16712Y5596D01*
X-16810Y6087D01*
X-17001Y6549D01*
X-17280Y6966D01*
X-17448Y7151D01*
X-18404Y8108D01*
X-18404Y8108D01*
X-18522Y8226D01*
X-18707Y8503D01*
X-18835Y8811D01*
X-18865Y8959D01*
X-18755Y9058D01*
X-18648Y9037D01*
X-18370D01*
Y10865D01*
X-18070D01*
D01*
X-18370D01*
Y12694D01*
X-18648D01*
X-18773Y12669D01*
X-18900Y12747D01*
Y12953D01*
X-18900Y27826D01*
X-18900Y27826D01*
X-18900Y27826D01*
X-18900Y27826D01*
X-18905Y27929D01*
X-18908Y27944D01*
X-18945Y28131D01*
X-19024Y28322D01*
X-19139Y28494D01*
X-19209Y28570D01*
X-19519Y28881D01*
X-19519Y28881D01*
X-19600Y28962D01*
X-19728Y29153D01*
X-19815Y29365D01*
X-19860Y29590D01*
X-19860Y29705D01*
Y40379D01*
X-19860Y40474D01*
X-19823Y40661D01*
X-19750Y40837D01*
X-19645Y40995D01*
X-19510Y41130D01*
X-19352Y41235D01*
X-19176Y41308D01*
X-18989Y41345D01*
X-18894Y41345D01*
D02*
G37*
G36*
X-38305Y41345D02*
X-36197Y41345D01*
X-36005Y41307D01*
X-35824Y41232D01*
X-35661Y41123D01*
X-35522Y40985D01*
X-35413Y40822D01*
X-35338Y40640D01*
X-35300Y40448D01*
Y40050D01*
X-35427Y39982D01*
X-35519Y40043D01*
X-35702Y40079D01*
X-35712D01*
Y38410D01*
Y36741D01*
X-35702D01*
X-35519Y36778D01*
X-35427Y36839D01*
X-35300Y36771D01*
Y36351D01*
X-35427Y36284D01*
X-35519Y36345D01*
X-35702Y36381D01*
X-35712D01*
Y34712D01*
Y33043D01*
X-35702D01*
X-35519Y33079D01*
X-35427Y33141D01*
X-35300Y33073D01*
Y32607D01*
X-35427Y32539D01*
X-35519Y32601D01*
X-35702Y32637D01*
X-35712D01*
Y30968D01*
Y29299D01*
X-35702D01*
X-35519Y29335D01*
X-35427Y29396D01*
X-35300Y29329D01*
Y25516D01*
X-35293Y25376D01*
X-35238Y25100D01*
X-35131Y24840D01*
X-34974Y24606D01*
X-34776Y24408D01*
X-34542Y24251D01*
X-34282Y24144D01*
X-34006Y24089D01*
X-33866Y24082D01*
X-28062D01*
X-27914Y24089D01*
X-27623Y24147D01*
X-27349Y24260D01*
X-27103Y24425D01*
X-26893Y24635D01*
X-26728Y24881D01*
X-26615Y25155D01*
X-26557Y25446D01*
X-26550Y25594D01*
X-26550Y29205D01*
X-26452Y29285D01*
X-26392Y29274D01*
X-26382D01*
Y30943D01*
Y32612D01*
X-26392D01*
X-26452Y32600D01*
X-26550Y32681D01*
X-26550Y32949D01*
X-26452Y33030D01*
X-26392Y33018D01*
X-26382D01*
Y34687D01*
Y36356D01*
X-26392D01*
X-26452Y36344D01*
X-26550Y36425D01*
Y36647D01*
X-26452Y36728D01*
X-26392Y36716D01*
X-26382D01*
Y38385D01*
Y40054D01*
X-26392D01*
X-26421Y40049D01*
X-26529Y40157D01*
X-26517Y40215D01*
X-26453Y40371D01*
X-26359Y40511D01*
X-26240Y40630D01*
X-26100Y40723D01*
X-25945Y40788D01*
X-25779Y40820D01*
X-25695Y40820D01*
X-24020Y40820D01*
X-24020Y40820D01*
X-24020Y40820D01*
X-24020D01*
X-23903Y40812D01*
X-23797Y40791D01*
X-23657Y40733D01*
X-23532Y40649D01*
X-23425Y40543D01*
X-23341Y40417D01*
X-23283Y40278D01*
X-23254Y40130D01*
X-23254Y40054D01*
X-23254Y19819D01*
X-23245Y19727D01*
X-23175Y19558D01*
X-23046Y19429D01*
X-22909Y19372D01*
X-22877Y19359D01*
X-22819Y19226D01*
X-22823Y19201D01*
Y19126D01*
X-22016D01*
Y18826D01*
X-21716D01*
Y18069D01*
X-21673D01*
X-21566Y17952D01*
X-21590Y17834D01*
X-21698Y17573D01*
X-21855Y17338D01*
X-21955Y17238D01*
X-22731Y16462D01*
X-22731Y16462D01*
X-22848Y16332D01*
X-23043Y16041D01*
X-23177Y15717D01*
X-23245Y15374D01*
X-23254Y15199D01*
Y14102D01*
Y11870D01*
X-23413D01*
X-23488Y11997D01*
X-23464Y12114D01*
Y12392D01*
X-24327D01*
Y12692D01*
X-24627D01*
Y13680D01*
X-24631D01*
X-24751Y13701D01*
X-24757Y13765D01*
X-24761Y13806D01*
X-24766Y13818D01*
Y13818D01*
X-24766Y13818D01*
X-24841Y13999D01*
X-24990Y14147D01*
X-25183Y14227D01*
X-25288Y14238D01*
X-26137Y14238D01*
X-26202Y14238D01*
X-26329Y14263D01*
X-26449Y14313D01*
X-26557Y14385D01*
X-26649Y14476D01*
X-26721Y14584D01*
X-26770Y14704D01*
X-26796Y14831D01*
X-26796Y14896D01*
Y17985D01*
X-26796Y17985D01*
X-26796Y17985D01*
X-26796Y17986D01*
X-26801Y18094D01*
X-26803Y18102D01*
X-26844Y18309D01*
X-26927Y18511D01*
X-27049Y18692D01*
X-27203Y18847D01*
X-27385Y18968D01*
X-27587Y19052D01*
X-27802Y19095D01*
X-27911Y19100D01*
X-33826Y19100D01*
X-33826Y19100D01*
X-33971Y19093D01*
X-34254Y19037D01*
X-34521Y18926D01*
X-34761Y18765D01*
X-34965Y18561D01*
X-35126Y18321D01*
X-35237Y18054D01*
X-35293Y17771D01*
X-35300Y17626D01*
X-35300Y10608D01*
X-35291Y10434D01*
X-35223Y10092D01*
X-35090Y9770D01*
X-34897Y9480D01*
X-34650Y9234D01*
X-34360Y9041D01*
X-34039Y8907D01*
X-33697Y8839D01*
X-33523Y8831D01*
X-28456D01*
X-28388Y8704D01*
X-28428Y8644D01*
X-28470Y8429D01*
Y7825D01*
X-24849D01*
Y8429D01*
X-24892Y8644D01*
X-24931Y8704D01*
X-24863Y8831D01*
X-23028D01*
Y8813D01*
X-22006D01*
Y8513D01*
X-21706D01*
Y7746D01*
X-21368D01*
X-21221Y7775D01*
X-21096Y7858D01*
X-21013Y7983D01*
X-20984Y8130D01*
Y8308D01*
X-20866Y8357D01*
X-19563Y7054D01*
X-19563Y7054D01*
X-19563Y7054D01*
X-19441Y6932D01*
X-19249Y6645D01*
X-19117Y6326D01*
X-19050Y5987D01*
X-19050Y5815D01*
X-19050Y-1754D01*
X-19050Y-1754D01*
X-19050Y-1867D01*
X-19136Y-2075D01*
X-19296Y-2235D01*
X-19505Y-2321D01*
X-20983D01*
X-21063Y-2223D01*
X-21055Y-2181D01*
Y-1706D01*
X-21953D01*
X-22851D01*
Y-2181D01*
X-22848Y-2195D01*
Y-2196D01*
X-22953Y-2321D01*
X-22957D01*
X-23154Y-2240D01*
X-23305Y-2089D01*
X-23386Y-1893D01*
X-23386Y-1786D01*
Y2390D01*
X-23386Y2390D01*
X-23377Y2507D01*
X-23358Y2604D01*
X-23304Y2737D01*
X-23224Y2856D01*
X-23122Y2958D01*
X-23002Y3038D01*
X-22869Y3093D01*
X-22728Y3121D01*
X-22656Y3120D01*
X-21256Y3120D01*
X-21139Y3132D01*
X-20923Y3222D01*
X-20757Y3387D01*
X-20668Y3603D01*
X-20656Y3720D01*
Y4898D01*
X-20656Y4898D01*
X-20656Y4898D01*
X-20656Y4898D01*
X-20659Y4965D01*
X-20669Y5015D01*
X-20685Y5098D01*
X-20737Y5223D01*
X-20812Y5335D01*
X-20908Y5431D01*
X-21020Y5506D01*
X-21064Y5524D01*
X-21078Y5553D01*
X-21097Y5675D01*
X-21038Y5763D01*
X-21009Y5910D01*
Y5993D01*
X-23053D01*
Y5910D01*
X-23024Y5763D01*
X-22991Y5714D01*
X-23026Y5624D01*
X-23062Y5591D01*
X-23252Y5629D01*
X-23451Y5711D01*
X-23630Y5831D01*
X-23706Y5907D01*
X-23906Y6106D01*
X-23906Y6106D01*
X-23952Y6149D01*
X-24003Y6183D01*
X-24056Y6218D01*
X-24171Y6266D01*
X-24294Y6290D01*
X-24356Y6293D01*
X-24833D01*
X-24881Y6383D01*
X-24889Y6420D01*
X-24849Y6622D01*
Y7225D01*
X-28470D01*
Y6622D01*
X-28430Y6420D01*
X-28438Y6383D01*
X-28486Y6293D01*
X-29019D01*
X-29108Y6446D01*
X-29240Y6579D01*
X-29402Y6672D01*
X-29583Y6720D01*
X-29769D01*
X-29950Y6672D01*
X-30112Y6579D01*
X-30188Y6503D01*
X-30320Y6522D01*
X-30337Y6605D01*
X-30417Y6725D01*
X-30536Y6804D01*
X-30677Y6833D01*
X-31835D01*
X-31976Y6804D01*
X-32095Y6725D01*
X-32175Y6605D01*
X-32203Y6464D01*
Y5557D01*
X-32185Y5465D01*
Y4866D01*
X-32203Y4774D01*
Y3867D01*
X-32185Y3775D01*
Y3749D01*
X-32173Y3627D01*
X-32079Y3400D01*
X-31905Y3226D01*
X-31679Y3132D01*
X-31556Y3120D01*
X-30756D01*
X-30756Y3120D01*
X-30756Y3120D01*
X-30756D01*
X-30639Y3111D01*
X-30552Y3094D01*
X-30424Y3041D01*
X-30309Y2964D01*
X-30212Y2867D01*
X-30135Y2752D01*
X-30083Y2625D01*
X-30056Y2489D01*
X-30056Y2420D01*
X-30056Y-8924D01*
X-30056Y-8924D01*
X-30056Y-9079D01*
X-30117Y-9384D01*
X-30235Y-9671D01*
X-30408Y-9929D01*
X-30627Y-10148D01*
X-30885Y-10321D01*
X-31172Y-10439D01*
X-31477Y-10500D01*
X-31632Y-10500D01*
X-37700Y-10500D01*
X-37858Y-10500D01*
X-38167Y-10438D01*
X-38458Y-10318D01*
X-38720Y-10143D01*
X-38943Y-9920D01*
X-39118Y-9658D01*
X-39239Y-9367D01*
X-39300Y-9058D01*
X-39300Y-8900D01*
Y8831D01*
X-39300Y40350D01*
X-39300Y40350D01*
X-39295Y40475D01*
X-39262Y40640D01*
X-39187Y40822D01*
X-39078Y40985D01*
X-38939Y41123D01*
X-38776Y41232D01*
X-38595Y41307D01*
X-38403Y41345D01*
X-38305Y41345D01*
D02*
G37*
G36*
X-14492Y18628D02*
X-8698Y18628D01*
X-8698Y18628D01*
X-8698Y18628D01*
X-8698D01*
X-8581Y18623D01*
X-8425Y18592D01*
X-8255Y18521D01*
X-8102Y18419D01*
X-7971Y18289D01*
X-7869Y18135D01*
X-7799Y17965D01*
X-7763Y17785D01*
X-7763Y17692D01*
X-7763Y15547D01*
X-7763Y15547D01*
X-7763Y15335D01*
X-7819Y14915D01*
X-7932Y14505D01*
X-8098Y14115D01*
X-8560Y13336D01*
Y13336D01*
X-8611Y13242D01*
X-8695Y13045D01*
X-8752Y12839D01*
X-8780Y12627D01*
X-8784Y12520D01*
Y11637D01*
X-8858Y11576D01*
Y10325D01*
X-9158D01*
Y10025D01*
X-9720D01*
Y9820D01*
X-10391D01*
Y10565D01*
X-11420D01*
X-12449D01*
Y9820D01*
X-14486D01*
X-14582Y9820D01*
X-14770Y9858D01*
X-14947Y9931D01*
X-15107Y10038D01*
X-15242Y10173D01*
X-15348Y10332D01*
X-15422Y10509D01*
X-15459Y10697D01*
X-15459Y10793D01*
Y17660D01*
X-15459Y17756D01*
X-15422Y17943D01*
X-15349Y18119D01*
X-15243Y18277D01*
X-15108Y18412D01*
X-14950Y18518D01*
X-14774Y18591D01*
X-14587Y18628D01*
X-14492Y18628D01*
D02*
G37*
G36*
X-33889Y18628D02*
X-28095Y18628D01*
X-28095Y18628D01*
X-28095Y18628D01*
X-28095D01*
X-27978Y18623D01*
X-27822Y18592D01*
X-27652Y18521D01*
X-27499Y18419D01*
X-27368Y18289D01*
X-27266Y18135D01*
X-27195Y17965D01*
X-27160Y17785D01*
X-27160Y17692D01*
X-27160Y15547D01*
X-27160Y15547D01*
X-27160Y15335D01*
X-27216Y14915D01*
X-27329Y14505D01*
X-27495Y14115D01*
X-27957Y13336D01*
Y13336D01*
X-28008Y13242D01*
X-28092Y13045D01*
X-28095Y13035D01*
X-28128Y12978D01*
X-28176Y12797D01*
Y12634D01*
X-28177Y12627D01*
X-28181Y12520D01*
Y11614D01*
X-28265Y11546D01*
Y10305D01*
X-28565D01*
Y10005D01*
X-29126D01*
Y9820D01*
X-29788D01*
Y10565D01*
X-30817D01*
X-31846D01*
Y9820D01*
X-33883D01*
X-33979Y9820D01*
X-34167Y9858D01*
X-34344Y9931D01*
X-34503Y10038D01*
X-34639Y10173D01*
X-34745Y10332D01*
X-34819Y10509D01*
X-34856Y10697D01*
X-34856Y10793D01*
Y17660D01*
X-34856Y17756D01*
X-34819Y17943D01*
X-34746Y18119D01*
X-34640Y18277D01*
X-34505Y18412D01*
X-34347Y18518D01*
X-34171Y18591D01*
X-33984Y18628D01*
X-33889Y18628D01*
D02*
G37*
G36*
X24538Y18623D02*
X30332Y18623D01*
X30332Y18623D01*
X30332Y18623D01*
X30332D01*
X30449Y18618D01*
X30605Y18588D01*
X30775Y18517D01*
X30928Y18415D01*
X31058Y18284D01*
X31161Y18131D01*
X31231Y17961D01*
X31267Y17780D01*
X31267Y17688D01*
X31267Y15543D01*
X31267Y15543D01*
X31267Y15331D01*
X31211Y14910D01*
X31098Y14501D01*
X30932Y14110D01*
X30470Y13332D01*
Y13332D01*
X30419Y13238D01*
X30335Y13041D01*
X30332Y13029D01*
X30299Y12973D01*
X30251Y12792D01*
Y12630D01*
X30250Y12623D01*
X30246Y12516D01*
Y11638D01*
X30167Y11572D01*
Y10327D01*
X29867D01*
Y10027D01*
X29305D01*
Y9816D01*
X28638D01*
Y10561D01*
X27610D01*
X26581D01*
Y9816D01*
X24543D01*
X24448Y9816D01*
X24260Y9854D01*
X24083Y9927D01*
X23923Y10033D01*
X23788Y10169D01*
X23681Y10328D01*
X23608Y10505D01*
X23571Y10693D01*
X23571Y10789D01*
Y17656D01*
X23571Y17751D01*
X23608Y17938D01*
X23681Y18114D01*
X23787Y18273D01*
X23921Y18408D01*
X24080Y18513D01*
X24256Y18586D01*
X24443Y18623D01*
X24538Y18623D01*
D02*
G37*
G36*
X5000Y18628D02*
X10794Y18628D01*
X10794Y18628D01*
X10794Y18628D01*
X10794D01*
X10911Y18623D01*
X10930Y18619D01*
X10957Y18618D01*
X11113Y18587D01*
X11283Y18516D01*
X11436Y18414D01*
X11567Y18284D01*
X11669Y18130D01*
X11739Y17960D01*
X11775Y17780D01*
X11775Y17687D01*
X11775Y15542D01*
X11775Y15542D01*
X11775Y15330D01*
X11719Y14910D01*
X11606Y14500D01*
X11440Y14110D01*
X10978Y13331D01*
Y13331D01*
X10927Y13237D01*
X10843Y13040D01*
X10840Y13030D01*
X10807Y12973D01*
X10759Y12792D01*
Y12629D01*
X10758Y12622D01*
X10754Y12515D01*
Y11607D01*
X10672Y11540D01*
Y10297D01*
X10372D01*
Y9997D01*
X9811D01*
Y9820D01*
Y9815D01*
X9147D01*
Y9820D01*
Y10560D01*
X8118D01*
X7089D01*
Y9820D01*
Y9815D01*
X5052D01*
X4956Y9815D01*
X4931Y9820D01*
X4910D01*
X4722Y9858D01*
X4545Y9931D01*
X4385Y10038D01*
X4250Y10173D01*
X4143Y10332D01*
X4070Y10509D01*
X4033Y10697D01*
X4033Y10793D01*
Y17660D01*
X4033Y17756D01*
X4070Y17943D01*
X4143Y18119D01*
X4249Y18277D01*
X4383Y18412D01*
X4542Y18518D01*
X4718Y18591D01*
X4905Y18628D01*
X5000Y18628D01*
D02*
G37*
G36*
X31886Y5588D02*
Y3888D01*
X31898Y3829D01*
Y3158D01*
X31910Y3035D01*
X32004Y2809D01*
X32177Y2635D01*
X32404Y2541D01*
X32526Y2529D01*
X32648D01*
X32684Y2443D01*
X32693Y2402D01*
X32608Y2274D01*
X32576Y2114D01*
Y1639D01*
X33474D01*
Y1339D01*
X33774D01*
Y146D01*
X33944D01*
X33987Y138D01*
X34071Y69D01*
Y-116D01*
X33973Y-196D01*
X33954Y-193D01*
X33774D01*
Y-1386D01*
Y-2579D01*
X33844D01*
X33934Y-2706D01*
X33917Y-2755D01*
X33815Y-2963D01*
X33692Y-3158D01*
X33546Y-3338D01*
X33384Y-3498D01*
X33295Y-3568D01*
X33291Y-3571D01*
X33291Y-3571D01*
X33291Y-3571D01*
X30215Y-5988D01*
X30001Y-6157D01*
X29523Y-6417D01*
X29009Y-6595D01*
X28472Y-6686D01*
X28200Y-6686D01*
X21992Y-6686D01*
X20686Y-5380D01*
X20583Y-5311D01*
X20462Y-5287D01*
X17916D01*
X17795Y-5311D01*
X17692Y-5380D01*
X16386Y-6686D01*
X12242Y-6686D01*
X12054Y-6607D01*
X11831D01*
X11642Y-6686D01*
X-17221Y-6686D01*
X-17471Y-6436D01*
X-17864Y-6173D01*
X-18300Y-5992D01*
X-18764Y-5900D01*
X-19237D01*
X-19700Y-5992D01*
X-20137Y-6173D01*
X-20530Y-6436D01*
X-20865Y-6770D01*
X-20876Y-6788D01*
X-20889Y-6793D01*
X-21037Y-6892D01*
X-21162Y-7018D01*
X-21261Y-7166D01*
X-21329Y-7330D01*
X-21359Y-7477D01*
X-21364Y-7505D01*
X-21368Y-7594D01*
X-21369Y-7594D01*
X-21368Y-7594D01*
Y-7903D01*
X-21400Y-8064D01*
Y-8536D01*
X-21368Y-8697D01*
Y-39195D01*
X-21363Y-39300D01*
X-21322Y-39507D01*
X-21242Y-39701D01*
X-21125Y-39876D01*
X-20976Y-40025D01*
X-20801Y-40142D01*
X-20606Y-40222D01*
X-20400Y-40263D01*
X-20295Y-40269D01*
X-14028Y-40269D01*
X-13914Y-40269D01*
X-13689Y-40313D01*
X-13477Y-40401D01*
X-13287Y-40528D01*
X-13125Y-40690D01*
X-12997Y-40881D01*
X-12910Y-41093D01*
X-12866Y-41314D01*
X-12865Y-41431D01*
Y-41432D01*
X-12865Y-41432D01*
X-12865Y-41432D01*
Y-47235D01*
X-12857Y-47312D01*
X-12798Y-47455D01*
X-12689Y-47565D01*
X-12546Y-47624D01*
X-12469Y-47631D01*
X-5639D01*
X8919Y-47631D01*
X8993Y-47628D01*
X9138Y-47599D01*
X9275Y-47542D01*
X9398Y-47460D01*
X9502Y-47356D01*
X9584Y-47233D01*
X9641Y-47096D01*
X9670Y-46951D01*
X9674Y-46877D01*
X9674Y-46877D01*
Y-46732D01*
X9692Y-46714D01*
X9823Y-46486D01*
X9891Y-46232D01*
Y-45968D01*
X9823Y-45714D01*
X9715Y-45526D01*
X9735Y-45476D01*
X9849Y-45362D01*
X9914Y-45335D01*
X10041Y-45420D01*
Y-45800D01*
X10892D01*
Y-46100D01*
X11191D01*
Y-46950D01*
X11589D01*
Y-47377D01*
X11590Y-47476D01*
X11551Y-47669D01*
X11476Y-47851D01*
X11366Y-48015D01*
X11227Y-48154D01*
X11063Y-48264D01*
X10881Y-48339D01*
X10688Y-48377D01*
X10589Y-48377D01*
X-13516D01*
X-13613Y-48377D01*
X-13803Y-48340D01*
X-13982Y-48265D01*
X-14144Y-48158D01*
X-14281Y-48020D01*
X-14389Y-47859D01*
X-14463Y-47680D01*
X-14501Y-47490D01*
X-14501Y-47393D01*
X-14501Y-43401D01*
X-14511Y-43193D01*
X-14592Y-42784D01*
X-14751Y-42400D01*
X-14982Y-42054D01*
X-15277Y-41759D01*
X-15623Y-41528D01*
X-16007Y-41369D01*
X-16416Y-41288D01*
X-16624Y-41278D01*
X-16624Y-41278D01*
X-16624Y-41278D01*
X-21622D01*
X-21758Y-41278D01*
X-22023Y-41225D01*
X-22273Y-41121D01*
X-22498Y-40971D01*
X-22689Y-40780D01*
X-22840Y-40555D01*
X-22943Y-40305D01*
X-22996Y-40039D01*
X-22996Y-39904D01*
X-22996Y-22889D01*
X-23003Y-22742D01*
X-23061Y-22454D01*
X-23173Y-22182D01*
X-23336Y-21937D01*
X-23544Y-21729D01*
X-23789Y-21566D01*
X-24060Y-21454D01*
X-24349Y-21396D01*
X-24496Y-21389D01*
X-24496Y-21389D01*
X-24496Y-21389D01*
X-36737D01*
X-36832Y-21389D01*
X-37018Y-21352D01*
X-37193Y-21279D01*
X-37351Y-21174D01*
X-37485Y-21040D01*
X-37590Y-20882D01*
X-37663Y-20707D01*
X-37700Y-20521D01*
X-37700Y-20426D01*
X-37700Y-13333D01*
X-37700Y-13228D01*
X-37659Y-13021D01*
X-37578Y-12826D01*
X-37461Y-12650D01*
X-37312Y-12501D01*
X-37136Y-12384D01*
X-36942Y-12303D01*
X-36735Y-12262D01*
X-36629Y-12262D01*
X-36629Y-12262D01*
X-33364D01*
X-33211Y-12258D01*
X-32908Y-12229D01*
X-32610Y-12169D01*
X-32318Y-12081D01*
X-32037Y-11964D01*
X-31768Y-11821D01*
X-31515Y-11652D01*
X-31280Y-11458D01*
X-31170Y-11353D01*
X-31170Y-11353D01*
X-30228Y-10412D01*
X-30081Y-10257D01*
X-29811Y-9928D01*
X-29574Y-9574D01*
X-29373Y-9198D01*
X-29210Y-8804D01*
X-29086Y-8396D01*
X-29003Y-7978D01*
X-28961Y-7554D01*
X-28956Y-7341D01*
X-28956Y-7341D01*
Y-5576D01*
X-28790D01*
X-28584Y-5491D01*
X-28426Y-5334D01*
X-28341Y-5128D01*
Y-4905D01*
X-28426Y-4699D01*
X-28584Y-4542D01*
X-28790Y-4456D01*
X-28956D01*
Y-2674D01*
X-28858Y-2594D01*
X-28808Y-2604D01*
X-28628D01*
Y-1411D01*
Y-218D01*
X-28808D01*
X-28858Y-228D01*
X-28956Y-147D01*
Y99D01*
X-28858Y180D01*
X-28808Y170D01*
X-28628D01*
Y1363D01*
Y2556D01*
X-28689D01*
X-28741Y2683D01*
X-27790Y3635D01*
X-27759Y3631D01*
X-27651Y3559D01*
X-27595Y3548D01*
Y4745D01*
X-27295D01*
Y5045D01*
X-26733D01*
Y5220D01*
X-26573D01*
Y3131D01*
X-26569Y3064D01*
X-26543Y2933D01*
X-26492Y2810D01*
X-26418Y2699D01*
X-26324Y2604D01*
X-26212Y2530D01*
X-26089Y2479D01*
X-25958Y2453D01*
X-25891Y2449D01*
X-25855D01*
X-25787Y2322D01*
X-25819Y2274D01*
X-25851Y2114D01*
Y1639D01*
X-24953D01*
Y1339D01*
X-24653D01*
Y146D01*
X-24483D01*
X-24440Y138D01*
X-24356Y69D01*
Y-136D01*
X-24454Y-217D01*
X-24473Y-213D01*
X-24653D01*
Y-1406D01*
Y-2599D01*
X-24473D01*
X-24313Y-2567D01*
X-24177Y-2476D01*
X-24060Y-2465D01*
X-24041Y-2483D01*
X-23901Y-2577D01*
X-23745Y-2642D01*
X-23579Y-2675D01*
X-23495Y-2679D01*
X-10227Y-2679D01*
X-10162Y-2676D01*
X-10033Y-2650D01*
X-9912Y-2600D01*
X-9803Y-2527D01*
X-9753Y-2477D01*
X-9707Y-2481D01*
X-9571Y-2572D01*
X-9411Y-2604D01*
X-9231D01*
Y-1411D01*
Y-218D01*
X-9411D01*
X-9461Y-228D01*
X-9559Y-147D01*
Y101D01*
X-9461Y181D01*
X-9411Y171D01*
X-9231D01*
Y1364D01*
Y2557D01*
X-9411D01*
X-9461Y2547D01*
X-9559Y2628D01*
Y2811D01*
X-9480Y3001D01*
X-9334Y3147D01*
X-9144Y3226D01*
X-9041D01*
X-9040Y3226D01*
X-8752D01*
X-8673Y3234D01*
X-8525Y3295D01*
X-8412Y3408D01*
X-8370Y3510D01*
X-8264Y3568D01*
X-8222Y3574D01*
X-8188Y3568D01*
Y4765D01*
X-7888D01*
Y5065D01*
X-7327D01*
Y5501D01*
X-7153D01*
Y3120D01*
X-7142Y3004D01*
X-7054Y2792D01*
X-6891Y2629D01*
X-6678Y2541D01*
X-6563Y2529D01*
X-6382D01*
X-6346Y2443D01*
X-6337Y2402D01*
X-6422Y2274D01*
X-6454Y2114D01*
Y1639D01*
X-5556D01*
Y1339D01*
X-5256D01*
Y146D01*
X-5076D01*
X-5010Y159D01*
X-4883Y59D01*
Y-106D01*
X-5010Y-206D01*
X-5076Y-193D01*
X-5256D01*
Y-1386D01*
Y-2579D01*
X-5076D01*
X-4916Y-2547D01*
X-4828Y-2488D01*
X-4779Y-2457D01*
X-4651Y-2490D01*
X-4623Y-2518D01*
X-4508Y-2595D01*
X-4379Y-2648D01*
X-4242Y-2675D01*
X-4173Y-2679D01*
X9237Y-2679D01*
X9310Y-2675D01*
X9452Y-2647D01*
X9587Y-2591D01*
X9701Y-2515D01*
X9783Y-2476D01*
X9831Y-2481D01*
X9967Y-2572D01*
X10127Y-2604D01*
X10307D01*
Y-1411D01*
Y-218D01*
X10127D01*
X10077Y-228D01*
X9979Y-147D01*
Y184D01*
X10106Y284D01*
X10173Y271D01*
X10353D01*
Y1464D01*
Y2657D01*
X10173D01*
X10106Y2643D01*
X9979Y2743D01*
X9979Y2883D01*
X10044Y3040D01*
X10165Y3161D01*
X10322Y3226D01*
X10408Y3226D01*
X10408Y3226D01*
X10702D01*
X10798Y3236D01*
X10976Y3309D01*
X11112Y3445D01*
X11146Y3527D01*
X11267Y3564D01*
X11286Y3551D01*
X11342Y3540D01*
Y4737D01*
X11642D01*
Y5037D01*
X12204D01*
Y5330D01*
X12378D01*
Y3070D01*
X12388Y2964D01*
X12469Y2769D01*
X12618Y2620D01*
X12813Y2540D01*
X12918Y2529D01*
X13156D01*
X13192Y2443D01*
X13201Y2402D01*
X13116Y2274D01*
X13084Y2114D01*
Y1639D01*
X13982D01*
Y1339D01*
X14282D01*
Y146D01*
X14462D01*
X14481Y150D01*
X14579Y69D01*
Y-116D01*
X14481Y-196D01*
X14462Y-193D01*
X14282D01*
Y-1386D01*
Y-2579D01*
X14462D01*
X14622Y-2547D01*
X14757Y-2456D01*
X14865Y-2446D01*
X14899Y-2480D01*
X15042Y-2575D01*
X15201Y-2641D01*
X15369Y-2675D01*
X15455Y-2679D01*
X15455Y-2679D01*
X28548Y-2679D01*
X28629Y-2675D01*
X28788Y-2643D01*
X28938Y-2581D01*
X29074Y-2491D01*
X29145Y-2419D01*
X29281Y-2418D01*
X29305Y-2430D01*
X29323Y-2456D01*
X29459Y-2547D01*
X29619Y-2579D01*
X29799D01*
Y-1386D01*
Y-193D01*
X29619D01*
X29504Y-216D01*
X29377Y-138D01*
X29377Y92D01*
X29504Y169D01*
X29619Y146D01*
X29799D01*
Y1339D01*
Y2532D01*
X29619D01*
X29504Y2509D01*
X29377Y2587D01*
Y2739D01*
X29377Y2794D01*
X29419Y2895D01*
X29497Y2973D01*
X29598Y3015D01*
X29653Y3014D01*
X29653Y3014D01*
X30310Y3011D01*
X30384Y3018D01*
X30519Y3074D01*
X30623Y3177D01*
X30679Y3312D01*
X30687Y3386D01*
X30687Y3386D01*
Y3502D01*
X30814Y3574D01*
X30837Y3570D01*
Y4767D01*
X31137D01*
Y5067D01*
X31698D01*
Y5607D01*
X31762Y5652D01*
X31886Y5588D01*
D02*
G37*
G36*
X29149Y-9438D02*
X29617Y-9632D01*
X30038Y-9913D01*
X30217Y-10092D01*
X30217Y-10092D01*
X30217Y-10092D01*
X31690Y-11565D01*
X31813Y-11676D01*
X32086Y-11859D01*
X32390Y-11985D01*
X32713Y-12049D01*
X32878Y-12057D01*
X33615D01*
X33684Y-12063D01*
Y-12060D01*
X36836D01*
X37012Y-12095D01*
X37192Y-12169D01*
X37353Y-12277D01*
X37490Y-12414D01*
X37598Y-12576D01*
X37672Y-12755D01*
X37705Y-12924D01*
X37710Y-13041D01*
Y-13042D01*
X37710Y-13042D01*
X37710Y-13042D01*
X37710Y-19904D01*
X37710Y-19991D01*
X37676Y-20162D01*
X37609Y-20323D01*
X37512Y-20468D01*
X37389Y-20591D01*
X37244Y-20688D01*
X37083Y-20755D01*
X36948Y-20782D01*
X36824Y-20789D01*
Y-20789D01*
X23164Y-20789D01*
X23097Y-20789D01*
X22965Y-20763D01*
X22842Y-20712D01*
X22730Y-20637D01*
X22635Y-20542D01*
X22561Y-20431D01*
X22510Y-20307D01*
X22483Y-20176D01*
X22483Y-20108D01*
Y-10103D01*
Y-10028D01*
X22513Y-9880D01*
X22570Y-9741D01*
X22654Y-9616D01*
X22760Y-9510D01*
X22885Y-9426D01*
X23024Y-9369D01*
X23172Y-9339D01*
X23247Y-9339D01*
X23247Y-9339D01*
X28400Y-9339D01*
X28653Y-9339D01*
X29149Y-9438D01*
D02*
G37*
G36*
X-13523Y-8948D02*
X-2065Y-8948D01*
X-1942Y-8948D01*
X-1700Y-8997D01*
X-1472Y-9091D01*
X-1267Y-9228D01*
X-1093Y-9402D01*
X-956Y-9607D01*
X-862Y-9835D01*
X-814Y-10077D01*
X-814Y-10200D01*
X-814Y-10200D01*
X-814Y-10200D01*
X-814Y-26124D01*
X-814Y-26203D01*
X-844Y-26357D01*
X-904Y-26503D01*
X-992Y-26633D01*
X-1103Y-26745D01*
X-1234Y-26832D01*
X-1379Y-26892D01*
X-1489Y-26914D01*
X-1612Y-26923D01*
Y-26923D01*
X-8256Y-26923D01*
X-8329Y-26926D01*
X-8472Y-26955D01*
X-8607Y-27010D01*
X-8728Y-27091D01*
X-8831Y-27195D01*
X-8912Y-27316D01*
X-8968Y-27451D01*
X-8987Y-27545D01*
X-8996Y-27594D01*
X-9000Y-27666D01*
X-9000Y-27666D01*
X-9000D01*
X-9000Y-27667D01*
X-9000Y-27792D01*
X-9000Y-37401D01*
X-9000Y-37526D01*
X-9095Y-37757D01*
X-9272Y-37933D01*
X-9343Y-37962D01*
X-9448Y-37892D01*
Y-37698D01*
X-10477D01*
X-11506D01*
Y-38028D01*
X-12923D01*
X-13042Y-38028D01*
X-13263Y-37937D01*
X-13431Y-37769D01*
X-13523Y-37548D01*
X-13523Y-37429D01*
X-13523Y-31562D01*
X-13532Y-31374D01*
X-13605Y-31005D01*
X-13749Y-30657D01*
X-13959Y-30344D01*
X-14085Y-30204D01*
X-14085Y-30204D01*
Y-30204D01*
X-20061Y-24228D01*
X-20233Y-24056D01*
X-20504Y-23650D01*
X-20691Y-23200D01*
X-20786Y-22722D01*
X-20786Y-22478D01*
Y-11883D01*
X-20764Y-11870D01*
X-20659Y-11844D01*
X-20524Y-11979D01*
X-20318Y-12065D01*
X-20095D01*
X-19889Y-11979D01*
X-19732Y-11822D01*
X-19647Y-11616D01*
Y-11393D01*
X-19732Y-11187D01*
X-19889Y-11030D01*
X-20095Y-10945D01*
X-20318D01*
X-20524Y-11030D01*
X-20659Y-11165D01*
X-20764Y-11139D01*
X-20786Y-11126D01*
Y-10074D01*
X-20669Y-10026D01*
X-20530Y-10164D01*
X-20137Y-10427D01*
X-19700Y-10608D01*
X-19237Y-10700D01*
X-18764D01*
X-18300Y-10608D01*
X-17864Y-10427D01*
X-17471Y-10164D01*
X-17136Y-9830D01*
X-16874Y-9437D01*
X-16693Y-9000D01*
X-16682Y-8948D01*
X-13523Y-8948D01*
D02*
G37*
G36*
X36842Y-21800D02*
X36906Y-21800D01*
X37032Y-21825D01*
X37151Y-21874D01*
X37258Y-21946D01*
X37349Y-22036D01*
X37420Y-22143D01*
X37469Y-22262D01*
X37483Y-22334D01*
X37494Y-22451D01*
Y-22452D01*
X37494Y-22452D01*
X37494Y-22452D01*
X37494Y-25785D01*
X37494Y-25978D01*
X37418Y-26358D01*
X37270Y-26716D01*
X37055Y-27039D01*
X36918Y-27176D01*
X36918Y-27176D01*
X36918Y-27176D01*
X35618Y-28475D01*
X31006Y-33087D01*
X30901Y-33197D01*
X30708Y-33433D01*
X30539Y-33686D01*
X30396Y-33954D01*
X30279Y-34235D01*
X30191Y-34527D01*
X30132Y-34825D01*
X30102Y-35128D01*
X30098Y-35280D01*
X30098Y-35280D01*
X30098Y-35280D01*
X30098Y-46163D01*
X30098Y-46274D01*
X30055Y-46492D01*
X29969Y-46698D01*
X29846Y-46883D01*
X29688Y-47041D01*
X29503Y-47164D01*
X29298Y-47249D01*
X29079Y-47293D01*
X28968Y-47293D01*
X23107D01*
Y-23140D01*
X23107Y-23008D01*
X23159Y-22749D01*
X23260Y-22505D01*
X23406Y-22286D01*
X23593Y-22099D01*
X23812Y-21953D01*
X24056Y-21852D01*
X24315Y-21800D01*
X24447Y-21800D01*
X24447Y-21800D01*
X36842Y-21800D01*
D02*
G37*
G36*
X16828Y-9327D02*
X16873Y-9437D01*
X17136Y-9830D01*
X17470Y-10164D01*
X17863Y-10427D01*
X18300Y-10608D01*
X18764Y-10700D01*
X19236D01*
X19700Y-10608D01*
X20137Y-10427D01*
X20530Y-10164D01*
X20864Y-9830D01*
X21127Y-9437D01*
X21160Y-9358D01*
X21219Y-9369D01*
X21420Y-9453D01*
X21600Y-9573D01*
X21754Y-9727D01*
X21874Y-9907D01*
X21958Y-10108D01*
X22000Y-10321D01*
X22000Y-10430D01*
X22000Y-27289D01*
X22000Y-28540D01*
X21902Y-28620D01*
X21860Y-28612D01*
X20782D01*
Y-29641D01*
X20482D01*
Y-29941D01*
X18654D01*
Y-30218D01*
X18667Y-30286D01*
X18590Y-30386D01*
X18558Y-30389D01*
X18380Y-30389D01*
X18020Y-30318D01*
X17682Y-30177D01*
X17377Y-29973D01*
X17247Y-29844D01*
X15557Y-28154D01*
X15557Y-28153D01*
X15556Y-28154D01*
X15421Y-28025D01*
X15132Y-27788D01*
X14821Y-27580D01*
X14492Y-27404D01*
X14146Y-27260D01*
X13789Y-27152D01*
X13422Y-27079D01*
X13050Y-27042D01*
X12863Y-27038D01*
X3714Y-27038D01*
X3615Y-27038D01*
X3420Y-26999D01*
X3236Y-26923D01*
X3071Y-26812D01*
X2930Y-26671D01*
X2819Y-26506D01*
X2743Y-26322D01*
X2705Y-26127D01*
X2705Y-26028D01*
X2705Y-10490D01*
Y-10375D01*
X2750Y-10151D01*
X2837Y-9939D01*
X2965Y-9749D01*
X3126Y-9587D01*
X3317Y-9459D01*
X3529Y-9372D01*
X3753Y-9327D01*
X3868D01*
X16828Y-9327D01*
D02*
G37*
G36*
X-14720Y-30559D02*
X-14720Y-30559D01*
X-14720D01*
X-14603Y-30569D01*
X-14527Y-30584D01*
X-14407Y-30634D01*
X-14298Y-30706D01*
X-14206Y-30798D01*
X-14134Y-30907D01*
X-14084Y-31027D01*
X-14059Y-31155D01*
X-14059Y-31220D01*
X-14059Y-37189D01*
X-14059Y-37189D01*
X-14059Y-37271D01*
X-14091Y-37434D01*
X-14154Y-37586D01*
X-14246Y-37724D01*
X-14363Y-37841D01*
X-14501Y-37933D01*
X-14653Y-37996D01*
X-14816Y-38028D01*
X-14898Y-38028D01*
X-16098D01*
Y-37698D01*
X-17127D01*
X-18156D01*
Y-38028D01*
X-18907D01*
X-19027Y-38028D01*
X-19248Y-37937D01*
X-19418Y-37767D01*
X-19509Y-37546D01*
X-19509Y-37426D01*
X-19509Y-31206D01*
X-19509Y-31206D01*
X-19509Y-31206D01*
X-19509Y-31078D01*
X-19411Y-30839D01*
X-19229Y-30657D01*
X-18990Y-30559D01*
X-18861Y-30559D01*
X-18156Y-30559D01*
Y-30904D01*
X-17127D01*
X-16098D01*
Y-30559D01*
X-14720Y-30559D01*
X-14720Y-30559D01*
D02*
G37*
G36*
X-36604Y-21800D02*
X-24640Y-21800D01*
X-24640Y-21800D01*
X-24640Y-21800D01*
X-24508Y-21800D01*
X-24249Y-21851D01*
X-24005Y-21952D01*
X-23786Y-22099D01*
X-23599Y-22286D01*
X-23452Y-22505D01*
X-23351Y-22749D01*
X-23300Y-23008D01*
X-23300Y-23140D01*
Y-46366D01*
X-23417Y-46414D01*
X-25163Y-44668D01*
X-25315Y-44567D01*
X-25495Y-44531D01*
X-25674Y-44567D01*
X-25827Y-44668D01*
X-25928Y-44820D01*
X-25964Y-45000D01*
X-25928Y-45179D01*
X-25827Y-45332D01*
X-24059Y-47100D01*
X-24107Y-47217D01*
X-29623Y-47217D01*
X-29779Y-47217D01*
X-30083Y-47156D01*
X-30370Y-47038D01*
X-30628Y-46865D01*
X-30848Y-46645D01*
X-31021Y-46387D01*
X-31139Y-46100D01*
X-31200Y-45796D01*
Y-44666D01*
X-31200Y-44666D01*
X-31200Y-44666D01*
X-31204Y-44524D01*
X-31231Y-44241D01*
X-31287Y-43962D01*
X-31369Y-43690D01*
X-31478Y-43428D01*
X-31612Y-43177D01*
X-31770Y-42941D01*
X-31950Y-42722D01*
X-32048Y-42619D01*
X-33389Y-41278D01*
X-33497Y-41170D01*
X-33691Y-40933D01*
X-33861Y-40679D01*
X-34005Y-40410D01*
X-34122Y-40127D01*
X-34210Y-39835D01*
X-34270Y-39535D01*
X-34300Y-39231D01*
Y-39078D01*
Y-29400D01*
X-34300Y-29400D01*
X-34300Y-29400D01*
X-34300Y-29400D01*
X-34304Y-29309D01*
X-34310Y-29281D01*
X-34340Y-29132D01*
X-34409Y-28964D01*
X-34510Y-28813D01*
X-34638Y-28685D01*
X-34789Y-28584D01*
X-34956Y-28515D01*
X-35134Y-28479D01*
X-35225Y-28475D01*
X-36611Y-28475D01*
X-36818Y-28434D01*
X-37012Y-28353D01*
X-37187Y-28236D01*
X-37336Y-28087D01*
X-37453Y-27912D01*
X-37534Y-27718D01*
X-37575Y-27511D01*
Y-27406D01*
Y-22771D01*
X-37575Y-22675D01*
X-37538Y-22488D01*
X-37465Y-22311D01*
X-37358Y-22152D01*
X-37223Y-22017D01*
X-37064Y-21910D01*
X-36887Y-21837D01*
X-36700Y-21800D01*
X-36604Y-21800D01*
D02*
G37*
%LPC*%
G36*
X-9103Y46461D02*
X-9286Y46413D01*
X-9571Y46248D01*
X-9803Y46015D01*
X-9968Y45730D01*
X-9990Y45649D01*
X-10117D01*
X-10138Y45730D01*
X-10303Y46015D01*
X-10536Y46248D01*
X-10821Y46413D01*
X-11003Y46461D01*
Y45248D01*
Y44034D01*
X-10821Y44083D01*
X-10536Y44247D01*
X-10303Y44480D01*
X-10138Y44765D01*
X-10117Y44846D01*
X-9990D01*
X-9968Y44765D01*
X-9803Y44480D01*
X-9571Y44247D01*
X-9286Y44083D01*
X-9103Y44034D01*
Y45248D01*
Y46461D01*
D02*
G37*
G36*
X-11603Y46461D02*
X-11786Y46413D01*
X-12071Y46248D01*
X-12303Y46015D01*
X-12468Y45730D01*
X-12517Y45548D01*
X-11603D01*
Y46461D01*
D02*
G37*
G36*
Y44948D02*
X-12517D01*
X-12468Y44765D01*
X-12303Y44480D01*
X-12071Y44247D01*
X-11786Y44083D01*
X-11603Y44034D01*
Y44948D01*
D02*
G37*
G36*
X-13715Y40079D02*
X-13725D01*
Y39060D01*
X-13236D01*
Y39600D01*
X-13272Y39784D01*
X-13376Y39939D01*
X-13532Y40043D01*
X-13715Y40079D01*
D02*
G37*
G36*
X-9575Y40054D02*
X-9585D01*
X-9769Y40018D01*
X-9924Y39914D01*
X-10028Y39759D01*
X-10064Y39575D01*
Y39035D01*
X-9575D01*
Y40054D01*
D02*
G37*
G36*
X-13236Y37760D02*
X-13725D01*
Y36741D01*
X-13715D01*
X-13532Y36778D01*
X-13376Y36881D01*
X-13272Y37037D01*
X-13236Y37220D01*
Y37760D01*
D02*
G37*
G36*
X-9575Y37735D02*
X-10064D01*
Y37195D01*
X-10028Y37012D01*
X-9924Y36856D01*
X-9769Y36753D01*
X-9585Y36716D01*
X-9575D01*
Y37735D01*
D02*
G37*
G36*
X-13715Y36381D02*
X-13725D01*
Y35362D01*
X-13236D01*
Y35902D01*
X-13272Y36086D01*
X-13376Y36241D01*
X-13532Y36345D01*
X-13715Y36381D01*
D02*
G37*
G36*
X-9575Y36356D02*
X-9585D01*
X-9769Y36320D01*
X-9924Y36216D01*
X-10028Y36061D01*
X-10064Y35877D01*
Y35337D01*
X-9575D01*
Y36356D01*
D02*
G37*
G36*
X-13236Y34062D02*
X-13725D01*
Y33043D01*
X-13715D01*
X-13532Y33079D01*
X-13376Y33183D01*
X-13272Y33339D01*
X-13236Y33522D01*
Y34062D01*
D02*
G37*
G36*
X-9575Y34037D02*
X-10064D01*
Y33497D01*
X-10028Y33314D01*
X-9924Y33158D01*
X-9769Y33054D01*
X-9585Y33018D01*
X-9575D01*
Y34037D01*
D02*
G37*
G36*
X-13715Y32637D02*
X-13725D01*
Y31618D01*
X-13236D01*
Y32158D01*
X-13272Y32341D01*
X-13376Y32497D01*
X-13532Y32601D01*
X-13715Y32637D01*
D02*
G37*
G36*
X-9575Y32612D02*
X-9585D01*
X-9769Y32576D01*
X-9924Y32472D01*
X-10028Y32316D01*
X-10064Y32133D01*
Y31593D01*
X-9575D01*
Y32612D01*
D02*
G37*
G36*
X-13236Y30318D02*
X-13725D01*
Y29299D01*
X-13715D01*
X-13532Y29335D01*
X-13376Y29439D01*
X-13272Y29594D01*
X-13236Y29778D01*
Y30318D01*
D02*
G37*
G36*
X-9575Y30293D02*
X-10064D01*
Y29753D01*
X-10028Y29569D01*
X-9924Y29414D01*
X-9769Y29310D01*
X-9585Y29274D01*
X-9575D01*
Y30293D01*
D02*
G37*
G36*
X-9238Y28912D02*
X-10650D01*
Y28099D01*
X-8588D01*
Y28262D01*
X-8637Y28511D01*
X-8778Y28721D01*
X-8989Y28862D01*
X-9238Y28912D01*
D02*
G37*
G36*
X-12650D02*
X-14063D01*
X-14311Y28862D01*
X-14522Y28721D01*
X-14663Y28511D01*
X-14713Y28262D01*
Y28099D01*
X-12650D01*
Y28912D01*
D02*
G37*
G36*
X-8588Y26099D02*
X-10650D01*
Y25287D01*
X-9238D01*
X-8989Y25336D01*
X-8778Y25477D01*
X-8637Y25688D01*
X-8588Y25937D01*
Y26099D01*
D02*
G37*
G36*
X-12650D02*
X-14713D01*
Y25937D01*
X-14663Y25688D01*
X-14522Y25477D01*
X-14311Y25336D01*
X-14063Y25287D01*
X-12650D01*
Y26099D01*
D02*
G37*
G36*
X6057Y46461D02*
X5875Y46413D01*
X5589Y46248D01*
X5357Y46015D01*
X5192Y45730D01*
X5170Y45649D01*
X5043D01*
X5022Y45730D01*
X4857Y46015D01*
X4625Y46248D01*
X4339Y46413D01*
X4157Y46461D01*
Y45248D01*
Y44034D01*
X4339Y44083D01*
X4625Y44247D01*
X4857Y44480D01*
X5022Y44765D01*
X5043Y44846D01*
X5170D01*
X5192Y44765D01*
X5357Y44480D01*
X5589Y44247D01*
X5875Y44083D01*
X6057Y44034D01*
Y45248D01*
Y46461D01*
D02*
G37*
G36*
X3557Y46461D02*
X3375Y46413D01*
X3089Y46248D01*
X2857Y46015D01*
X2692Y45730D01*
X2643Y45548D01*
X3557D01*
Y46461D01*
D02*
G37*
G36*
Y44948D02*
X2643D01*
X2692Y44765D01*
X2857Y44480D01*
X3089Y44247D01*
X3375Y44083D01*
X3557Y44034D01*
Y44948D01*
D02*
G37*
G36*
X5823Y40079D02*
X5813D01*
Y39060D01*
X6302D01*
Y39600D01*
X6266Y39784D01*
X6162Y39939D01*
X6006Y40043D01*
X5823Y40079D01*
D02*
G37*
G36*
X9963Y40054D02*
X9953D01*
X9769Y40018D01*
X9614Y39914D01*
X9510Y39759D01*
X9474Y39575D01*
Y39035D01*
X9963D01*
Y40054D01*
D02*
G37*
G36*
X6302Y37760D02*
X5813D01*
Y36741D01*
X5823D01*
X6006Y36778D01*
X6162Y36881D01*
X6266Y37037D01*
X6302Y37220D01*
Y37760D01*
D02*
G37*
G36*
X9963Y37735D02*
X9474D01*
Y37195D01*
X9510Y37012D01*
X9614Y36856D01*
X9769Y36753D01*
X9953Y36716D01*
X9963D01*
Y37735D01*
D02*
G37*
G36*
X5823Y36381D02*
X5813D01*
Y35362D01*
X6302D01*
Y35902D01*
X6266Y36086D01*
X6162Y36241D01*
X6006Y36345D01*
X5823Y36381D01*
D02*
G37*
G36*
X9963Y36356D02*
X9953D01*
X9769Y36320D01*
X9614Y36216D01*
X9510Y36061D01*
X9474Y35877D01*
Y35337D01*
X9963D01*
Y36356D01*
D02*
G37*
G36*
X6302Y34062D02*
X5813D01*
Y33043D01*
X5823D01*
X6006Y33079D01*
X6162Y33183D01*
X6266Y33339D01*
X6302Y33522D01*
Y34062D01*
D02*
G37*
G36*
X9963Y34037D02*
X9474D01*
Y33497D01*
X9510Y33314D01*
X9614Y33158D01*
X9769Y33054D01*
X9953Y33018D01*
X9963D01*
Y34037D01*
D02*
G37*
G36*
X5823Y32637D02*
X5813D01*
Y31618D01*
X6302D01*
Y32158D01*
X6266Y32341D01*
X6162Y32497D01*
X6006Y32601D01*
X5823Y32637D01*
D02*
G37*
G36*
X9963Y32612D02*
X9953D01*
X9769Y32576D01*
X9614Y32472D01*
X9510Y32316D01*
X9474Y32133D01*
Y31593D01*
X9963D01*
Y32612D01*
D02*
G37*
G36*
X6302Y30318D02*
X5813D01*
Y29299D01*
X5823D01*
X6006Y29335D01*
X6162Y29439D01*
X6266Y29594D01*
X6302Y29778D01*
Y30318D01*
D02*
G37*
G36*
X9963Y30293D02*
X9474D01*
Y29753D01*
X9510Y29569D01*
X9614Y29414D01*
X9769Y29310D01*
X9953Y29274D01*
X9963D01*
Y30293D01*
D02*
G37*
G36*
X10300Y28907D02*
X8888D01*
Y28094D01*
X10950D01*
Y28257D01*
X10901Y28506D01*
X10760Y28716D01*
X10549Y28857D01*
X10300Y28907D01*
D02*
G37*
G36*
X6888D02*
X5475D01*
X5227Y28857D01*
X5016Y28716D01*
X4875Y28506D01*
X4825Y28257D01*
Y28094D01*
X6888D01*
Y28907D01*
D02*
G37*
G36*
X10950Y26094D02*
X8888D01*
Y25282D01*
X10300D01*
X10549Y25331D01*
X10760Y25472D01*
X10901Y25683D01*
X10950Y25932D01*
Y26094D01*
D02*
G37*
G36*
X6888D02*
X4825D01*
Y25932D01*
X4875Y25683D01*
X5016Y25472D01*
X5227Y25331D01*
X5475Y25282D01*
X6888D01*
Y26094D01*
D02*
G37*
G36*
X-24163Y46461D02*
X-24346Y46413D01*
X-24631Y46248D01*
X-24863Y46015D01*
X-25028Y45730D01*
X-25050Y45649D01*
X-25177D01*
X-25198Y45730D01*
X-25363Y46015D01*
X-25595Y46248D01*
X-25881Y46413D01*
X-26063Y46461D01*
Y45248D01*
Y44034D01*
X-25881Y44083D01*
X-25595Y44247D01*
X-25363Y44480D01*
X-25198Y44765D01*
X-25177Y44846D01*
X-25050D01*
X-25028Y44765D01*
X-24863Y44480D01*
X-24631Y44247D01*
X-24346Y44083D01*
X-24163Y44034D01*
Y45248D01*
Y46461D01*
D02*
G37*
G36*
X-26663Y46461D02*
X-26846Y46413D01*
X-27131Y46248D01*
X-27363Y46015D01*
X-27528Y45730D01*
X-27577Y45548D01*
X-26663D01*
Y46461D01*
D02*
G37*
G36*
Y44948D02*
X-27577D01*
X-27528Y44765D01*
X-27363Y44480D01*
X-27131Y44247D01*
X-26846Y44083D01*
X-26663Y44034D01*
Y44948D01*
D02*
G37*
G36*
X-33112Y40079D02*
X-33122D01*
Y39060D01*
X-32633D01*
Y39600D01*
X-32669Y39784D01*
X-32773Y39939D01*
X-32929Y40043D01*
X-33112Y40079D01*
D02*
G37*
G36*
X-28972Y40054D02*
X-28982D01*
X-29166Y40018D01*
X-29321Y39914D01*
X-29425Y39759D01*
X-29461Y39575D01*
Y39035D01*
X-28972D01*
Y40054D01*
D02*
G37*
G36*
X-32633Y37760D02*
X-33122D01*
Y36741D01*
X-33112D01*
X-32929Y36778D01*
X-32773Y36881D01*
X-32669Y37037D01*
X-32633Y37220D01*
Y37760D01*
D02*
G37*
G36*
X-28972Y37735D02*
X-29461D01*
Y37195D01*
X-29425Y37012D01*
X-29321Y36856D01*
X-29166Y36753D01*
X-28982Y36716D01*
X-28972D01*
Y37735D01*
D02*
G37*
G36*
X-33112Y36381D02*
X-33122D01*
Y35362D01*
X-32633D01*
Y35902D01*
X-32669Y36086D01*
X-32773Y36241D01*
X-32929Y36345D01*
X-33112Y36381D01*
D02*
G37*
G36*
X-28972Y36356D02*
X-28982D01*
X-29166Y36320D01*
X-29321Y36216D01*
X-29425Y36061D01*
X-29461Y35877D01*
Y35337D01*
X-28972D01*
Y36356D01*
D02*
G37*
G36*
X-32633Y34062D02*
X-33122D01*
Y33043D01*
X-33112D01*
X-32929Y33079D01*
X-32773Y33183D01*
X-32669Y33339D01*
X-32633Y33522D01*
Y34062D01*
D02*
G37*
G36*
X-28972Y34037D02*
X-29461D01*
Y33497D01*
X-29425Y33314D01*
X-29321Y33158D01*
X-29166Y33054D01*
X-28982Y33018D01*
X-28972D01*
Y34037D01*
D02*
G37*
G36*
X-33112Y32637D02*
X-33122D01*
Y31618D01*
X-32633D01*
Y32158D01*
X-32669Y32341D01*
X-32773Y32497D01*
X-32929Y32601D01*
X-33112Y32637D01*
D02*
G37*
G36*
X-28972Y32612D02*
X-28982D01*
X-29166Y32576D01*
X-29321Y32472D01*
X-29425Y32316D01*
X-29461Y32133D01*
Y31593D01*
X-28972D01*
Y32612D01*
D02*
G37*
G36*
X-32633Y30318D02*
X-33122D01*
Y29299D01*
X-33112D01*
X-32929Y29335D01*
X-32773Y29439D01*
X-32669Y29594D01*
X-32633Y29778D01*
Y30318D01*
D02*
G37*
G36*
X-28972Y30293D02*
X-29461D01*
Y29753D01*
X-29425Y29569D01*
X-29321Y29414D01*
X-29166Y29310D01*
X-28982Y29274D01*
X-28972D01*
Y30293D01*
D02*
G37*
G36*
X-28635Y28912D02*
X-30047D01*
Y28099D01*
X-27985D01*
Y28262D01*
X-28034Y28511D01*
X-28175Y28721D01*
X-28386Y28862D01*
X-28635Y28912D01*
D02*
G37*
G36*
X-32047D02*
X-33460D01*
X-33708Y28862D01*
X-33919Y28721D01*
X-34060Y28511D01*
X-34110Y28262D01*
Y28099D01*
X-32047D01*
Y28912D01*
D02*
G37*
G36*
X-27985Y26099D02*
X-30047D01*
Y25287D01*
X-28635D01*
X-28386Y25336D01*
X-28175Y25477D01*
X-28034Y25688D01*
X-27985Y25937D01*
Y26099D01*
D02*
G37*
G36*
X-32047D02*
X-34110D01*
Y25937D01*
X-34060Y25688D01*
X-33919Y25477D01*
X-33708Y25336D01*
X-33460Y25287D01*
X-32047D01*
Y26099D01*
D02*
G37*
G36*
X26502Y46648D02*
X26133D01*
X25777Y46552D01*
X25458Y46368D01*
X25197Y46107D01*
X25131Y45993D01*
X25004D01*
X24937Y46107D01*
X24677Y46368D01*
X24358Y46552D01*
X24002Y46648D01*
X23633D01*
X23277Y46552D01*
X22958Y46368D01*
X22697Y46107D01*
X22554Y45860D01*
X22407D01*
X22317Y46015D01*
X22085Y46248D01*
X21800Y46413D01*
X21617Y46461D01*
Y45248D01*
Y44034D01*
X21800Y44083D01*
X22085Y44247D01*
X22317Y44480D01*
X22407Y44636D01*
X22554D01*
X22697Y44388D01*
X22958Y44127D01*
X23277Y43943D01*
X23633Y43848D01*
X24002D01*
X24358Y43943D01*
X24677Y44127D01*
X24937Y44388D01*
X25004Y44503D01*
X25131D01*
X25197Y44388D01*
X25458Y44127D01*
X25777Y43943D01*
X26133Y43848D01*
X26502D01*
X26858Y43943D01*
X27177Y44127D01*
X27437Y44388D01*
X27622Y44707D01*
X27717Y45063D01*
Y45432D01*
X27622Y45788D01*
X27437Y46107D01*
X27177Y46368D01*
X26858Y46552D01*
X26502Y46648D01*
D02*
G37*
G36*
X21017Y46461D02*
X20835Y46413D01*
X20550Y46248D01*
X20317Y46015D01*
X20152Y45730D01*
X20131Y45649D01*
X20004D01*
X19982Y45730D01*
X19817Y46015D01*
X19585Y46248D01*
X19300Y46413D01*
X19117Y46461D01*
Y45248D01*
Y44034D01*
X19300Y44083D01*
X19585Y44247D01*
X19817Y44480D01*
X19982Y44765D01*
X20004Y44846D01*
X20131D01*
X20152Y44765D01*
X20317Y44480D01*
X20550Y44247D01*
X20835Y44083D01*
X21017Y44034D01*
Y45248D01*
Y46461D01*
D02*
G37*
G36*
X18517Y46461D02*
X18335Y46413D01*
X18050Y46248D01*
X17817Y46015D01*
X17652Y45730D01*
X17604Y45548D01*
X18517D01*
Y46461D01*
D02*
G37*
G36*
Y44948D02*
X17604D01*
X17652Y44765D01*
X17817Y44480D01*
X18050Y44247D01*
X18335Y44083D01*
X18517Y44034D01*
Y44948D01*
D02*
G37*
G36*
X25315Y40079D02*
X25305D01*
Y39060D01*
X25794D01*
Y39600D01*
X25757Y39784D01*
X25654Y39939D01*
X25498Y40043D01*
X25315Y40079D01*
D02*
G37*
G36*
X29455Y40054D02*
X29445D01*
X29261Y40018D01*
X29106Y39914D01*
X29002Y39759D01*
X28966Y39575D01*
Y39035D01*
X29455D01*
Y40054D01*
D02*
G37*
G36*
X25794Y37760D02*
X25305D01*
Y36741D01*
X25315D01*
X25498Y36778D01*
X25654Y36881D01*
X25757Y37037D01*
X25794Y37220D01*
Y37760D01*
D02*
G37*
G36*
X29455Y37735D02*
X28966D01*
Y37195D01*
X29002Y37012D01*
X29106Y36856D01*
X29261Y36753D01*
X29445Y36716D01*
X29455D01*
Y37735D01*
D02*
G37*
G36*
X25315Y36381D02*
X25305D01*
Y35362D01*
X25794D01*
Y35902D01*
X25757Y36086D01*
X25654Y36241D01*
X25498Y36345D01*
X25315Y36381D01*
D02*
G37*
G36*
X29455Y36356D02*
X29445D01*
X29261Y36320D01*
X29106Y36216D01*
X29002Y36061D01*
X28966Y35877D01*
Y35337D01*
X29455D01*
Y36356D01*
D02*
G37*
G36*
X25794Y34062D02*
X25305D01*
Y33043D01*
X25315D01*
X25498Y33079D01*
X25654Y33183D01*
X25757Y33339D01*
X25794Y33522D01*
Y34062D01*
D02*
G37*
G36*
X29455Y34037D02*
X28966D01*
Y33497D01*
X29002Y33314D01*
X29106Y33158D01*
X29261Y33054D01*
X29445Y33018D01*
X29455D01*
Y34037D01*
D02*
G37*
G36*
X25315Y32637D02*
X25305D01*
Y31618D01*
X25794D01*
Y32158D01*
X25757Y32341D01*
X25654Y32497D01*
X25498Y32601D01*
X25315Y32637D01*
D02*
G37*
G36*
X29455Y32612D02*
X29445D01*
X29261Y32576D01*
X29106Y32472D01*
X29002Y32316D01*
X28966Y32133D01*
Y31593D01*
X29455D01*
Y32612D01*
D02*
G37*
G36*
X25794Y30318D02*
X25305D01*
Y29299D01*
X25315D01*
X25498Y29335D01*
X25654Y29439D01*
X25757Y29594D01*
X25794Y29778D01*
Y30318D01*
D02*
G37*
G36*
X29455Y30293D02*
X28966D01*
Y29753D01*
X29002Y29569D01*
X29106Y29414D01*
X29261Y29310D01*
X29445Y29274D01*
X29455D01*
Y30293D01*
D02*
G37*
G36*
X29792Y28908D02*
X28380D01*
Y28095D01*
X30442D01*
Y28258D01*
X30393Y28506D01*
X30252Y28717D01*
X30041Y28858D01*
X29792Y28908D01*
D02*
G37*
G36*
X26380D02*
X24967D01*
X24718Y28858D01*
X24508Y28717D01*
X24367Y28506D01*
X24317Y28258D01*
Y28095D01*
X26380D01*
Y28908D01*
D02*
G37*
G36*
X30442Y26095D02*
X28380D01*
Y25283D01*
X29792D01*
X30041Y25332D01*
X30252Y25473D01*
X30393Y25684D01*
X30442Y25933D01*
Y26095D01*
D02*
G37*
G36*
X26380D02*
X24317D01*
Y25933D01*
X24367Y25684D01*
X24508Y25473D01*
X24718Y25332D01*
X24967Y25283D01*
X26380D01*
Y26095D01*
D02*
G37*
G36*
X21415Y40079D02*
X21405D01*
X21221Y40043D01*
X21066Y39939D01*
X20962Y39784D01*
X20926Y39600D01*
Y39060D01*
X21415D01*
Y40079D01*
D02*
G37*
G36*
Y37760D02*
X20926D01*
Y37220D01*
X20962Y37037D01*
X21066Y36881D01*
X21221Y36778D01*
X21405Y36741D01*
X21415D01*
Y37760D01*
D02*
G37*
G36*
X33834Y37735D02*
X33345D01*
Y36716D01*
X33355D01*
X33538Y36753D01*
X33694Y36856D01*
X33797Y37012D01*
X33834Y37195D01*
Y37735D01*
D02*
G37*
G36*
X21415Y36381D02*
X21405D01*
X21221Y36345D01*
X21066Y36241D01*
X20962Y36086D01*
X20926Y35902D01*
Y35362D01*
X21415D01*
Y36381D01*
D02*
G37*
G36*
X33355Y36356D02*
X33345D01*
Y35337D01*
X33834D01*
Y35877D01*
X33797Y36061D01*
X33694Y36216D01*
X33538Y36320D01*
X33355Y36356D01*
D02*
G37*
G36*
X21415Y34062D02*
X20926D01*
Y33522D01*
X20962Y33339D01*
X21066Y33183D01*
X21221Y33079D01*
X21405Y33043D01*
X21415D01*
Y34062D01*
D02*
G37*
G36*
X33834Y34037D02*
X33345D01*
Y33018D01*
X33355D01*
X33538Y33054D01*
X33694Y33158D01*
X33797Y33314D01*
X33834Y33497D01*
Y34037D01*
D02*
G37*
G36*
X21415Y32637D02*
X21405D01*
X21221Y32601D01*
X21066Y32497D01*
X20962Y32341D01*
X20926Y32158D01*
Y31618D01*
X21415D01*
Y32637D01*
D02*
G37*
G36*
X33355Y32612D02*
X33345D01*
Y31593D01*
X33834D01*
Y32133D01*
X33797Y32316D01*
X33694Y32472D01*
X33538Y32576D01*
X33355Y32612D01*
D02*
G37*
G36*
X21415Y30318D02*
X20926D01*
Y29778D01*
X20962Y29594D01*
X21066Y29439D01*
X21221Y29335D01*
X21405Y29299D01*
X21415D01*
Y30318D01*
D02*
G37*
G36*
X33834Y30293D02*
X33345D01*
Y29274D01*
X33355D01*
X33538Y29310D01*
X33694Y29414D01*
X33797Y29569D01*
X33834Y29753D01*
Y30293D01*
D02*
G37*
G36*
X36157Y18526D02*
X35649D01*
Y18451D01*
X35678Y18305D01*
X35761Y18181D01*
X35885Y18098D01*
X36032Y18069D01*
X36157D01*
Y18526D01*
D02*
G37*
G36*
X34563Y13681D02*
X34409D01*
Y12993D01*
X34972D01*
Y13272D01*
X34941Y13428D01*
X34852Y13561D01*
X34719Y13650D01*
X34563Y13681D01*
D02*
G37*
G36*
X21537Y12690D02*
X21260D01*
Y11161D01*
X21988D01*
Y12239D01*
X21954Y12411D01*
X21856Y12558D01*
X21710Y12655D01*
X21537Y12690D01*
D02*
G37*
G36*
X21988Y10561D02*
X21260D01*
Y9032D01*
X21537D01*
X21710Y9067D01*
X21856Y9165D01*
X21954Y9311D01*
X21988Y9484D01*
Y10561D01*
D02*
G37*
G36*
X36096Y8209D02*
X35373D01*
Y8126D01*
X35403Y7979D01*
X35486Y7854D01*
X35611Y7770D01*
X35758Y7741D01*
X36096D01*
Y8209D01*
D02*
G37*
G36*
X37033Y7055D02*
X36696D01*
Y6588D01*
X37418D01*
Y6670D01*
X37389Y6818D01*
X37305Y6942D01*
X37181Y7026D01*
X37033Y7055D01*
D02*
G37*
G36*
X36096D02*
X35758D01*
X35611Y7026D01*
X35486Y6942D01*
X35403Y6818D01*
X35373Y6670D01*
Y6588D01*
X36096D01*
Y7055D01*
D02*
G37*
G36*
X36954Y2532D02*
X36774D01*
Y1639D01*
X37372D01*
Y2114D01*
X37340Y2274D01*
X37249Y2410D01*
X37114Y2501D01*
X36954Y2532D01*
D02*
G37*
G36*
X27579D02*
X27399D01*
Y1639D01*
X27997D01*
Y2114D01*
X27965Y2274D01*
X27874Y2410D01*
X27739Y2501D01*
X27579Y2532D01*
D02*
G37*
G36*
X36174D02*
X35994D01*
X35834Y2501D01*
X35698Y2410D01*
X35608Y2274D01*
X35576Y2114D01*
Y1639D01*
X36174D01*
Y2532D01*
D02*
G37*
G36*
X26799D02*
X26619D01*
X26459Y2501D01*
X26323Y2410D01*
X26233Y2274D01*
X26201Y2114D01*
Y1639D01*
X26799D01*
Y2532D01*
D02*
G37*
G36*
X37372Y1039D02*
X36774D01*
Y146D01*
X36954D01*
X37114Y178D01*
X37249Y269D01*
X37340Y404D01*
X37372Y564D01*
Y1039D01*
D02*
G37*
G36*
X36174D02*
X35576D01*
Y564D01*
X35608Y404D01*
X35698Y269D01*
X35834Y178D01*
X35994Y146D01*
X36174D01*
Y1039D01*
D02*
G37*
G36*
X27997D02*
X27399D01*
Y146D01*
X27579D01*
X27739Y178D01*
X27874Y269D01*
X27965Y404D01*
X27997Y564D01*
Y1039D01*
D02*
G37*
G36*
X26799D02*
X26201D01*
Y564D01*
X26233Y404D01*
X26323Y269D01*
X26459Y178D01*
X26619Y146D01*
X26799D01*
Y1039D01*
D02*
G37*
G36*
X36954Y-193D02*
X36774D01*
Y-1086D01*
X37372D01*
Y-611D01*
X37340Y-451D01*
X37249Y-315D01*
X37114Y-224D01*
X36954Y-193D01*
D02*
G37*
G36*
X27579D02*
X27399D01*
Y-1086D01*
X27997D01*
Y-611D01*
X27965Y-451D01*
X27874Y-315D01*
X27739Y-224D01*
X27579Y-193D01*
D02*
G37*
G36*
X36174D02*
X35994D01*
X35834Y-224D01*
X35698Y-315D01*
X35608Y-451D01*
X35576Y-611D01*
Y-1086D01*
X36174D01*
Y-193D01*
D02*
G37*
G36*
X26799D02*
X26619D01*
X26459Y-224D01*
X26323Y-315D01*
X26233Y-451D01*
X26201Y-611D01*
Y-1086D01*
X26799D01*
Y-193D01*
D02*
G37*
G36*
X37372Y-1686D02*
X36774D01*
Y-2579D01*
X36954D01*
X37114Y-2547D01*
X37249Y-2456D01*
X37340Y-2321D01*
X37372Y-2161D01*
Y-1686D01*
D02*
G37*
G36*
X36174D02*
X35576D01*
Y-2161D01*
X35608Y-2321D01*
X35698Y-2456D01*
X35834Y-2547D01*
X35994Y-2579D01*
X36174D01*
Y-1686D01*
D02*
G37*
G36*
X1923Y40079D02*
X1913D01*
X1729Y40043D01*
X1574Y39939D01*
X1470Y39784D01*
X1434Y39600D01*
Y39060D01*
X1923D01*
Y40079D01*
D02*
G37*
G36*
X13863Y40054D02*
X13853D01*
Y39035D01*
X14342D01*
Y39575D01*
X14306Y39759D01*
X14202Y39914D01*
X14046Y40018D01*
X13863Y40054D01*
D02*
G37*
G36*
X1923Y37760D02*
X1434D01*
Y37220D01*
X1470Y37037D01*
X1574Y36881D01*
X1729Y36778D01*
X1913Y36741D01*
X1923D01*
Y37760D01*
D02*
G37*
G36*
X14342Y37735D02*
X13853D01*
Y36716D01*
X13863D01*
X14046Y36753D01*
X14202Y36856D01*
X14306Y37012D01*
X14342Y37195D01*
Y37735D01*
D02*
G37*
G36*
X1923Y36381D02*
X1913D01*
X1729Y36345D01*
X1574Y36241D01*
X1470Y36086D01*
X1434Y35902D01*
Y35362D01*
X1923D01*
Y36381D01*
D02*
G37*
G36*
X13863Y36356D02*
X13853D01*
Y35337D01*
X14342D01*
Y35877D01*
X14306Y36061D01*
X14202Y36216D01*
X14046Y36320D01*
X13863Y36356D01*
D02*
G37*
G36*
X1923Y34062D02*
X1434D01*
Y33522D01*
X1470Y33339D01*
X1574Y33183D01*
X1729Y33079D01*
X1913Y33043D01*
X1923D01*
Y34062D01*
D02*
G37*
G36*
X14342Y34037D02*
X13853D01*
Y33018D01*
X13863D01*
X14046Y33054D01*
X14202Y33158D01*
X14306Y33314D01*
X14342Y33497D01*
Y34037D01*
D02*
G37*
G36*
X1923Y32637D02*
X1913D01*
X1729Y32601D01*
X1574Y32497D01*
X1470Y32341D01*
X1434Y32158D01*
Y31618D01*
X1923D01*
Y32637D01*
D02*
G37*
G36*
X13863Y32612D02*
X13853D01*
Y31593D01*
X14342D01*
Y32133D01*
X14306Y32316D01*
X14202Y32472D01*
X14046Y32576D01*
X13863Y32612D01*
D02*
G37*
G36*
X1923Y30318D02*
X1434D01*
Y29778D01*
X1470Y29594D01*
X1574Y29439D01*
X1729Y29335D01*
X1913Y29299D01*
X1923D01*
Y30318D01*
D02*
G37*
G36*
X14342Y30293D02*
X13853D01*
Y29274D01*
X13863D01*
X14046Y29310D01*
X14202Y29414D01*
X14306Y29569D01*
X14342Y29753D01*
Y30293D01*
D02*
G37*
G36*
X16631Y18526D02*
X16124D01*
Y18451D01*
X16153Y18305D01*
X16236Y18181D01*
X16360Y18098D01*
X16506Y18069D01*
X16631D01*
Y18526D01*
D02*
G37*
G36*
X15020Y13680D02*
X14867D01*
Y12992D01*
X15430D01*
Y13271D01*
X15398Y13428D01*
X15310Y13560D01*
X15177Y13649D01*
X15020Y13680D01*
D02*
G37*
G36*
X2045Y12689D02*
X1768D01*
Y11160D01*
X2497D01*
Y12238D01*
X2462Y12410D01*
X2364Y12557D01*
X2218Y12655D01*
X2045Y12689D01*
D02*
G37*
G36*
X2497Y10560D02*
X1768D01*
Y9032D01*
X2045D01*
X2218Y9066D01*
X2364Y9164D01*
X2462Y9310D01*
X2497Y9483D01*
Y10560D01*
D02*
G37*
G36*
X16604Y8208D02*
X15881D01*
Y8125D01*
X15911Y7978D01*
X15994Y7853D01*
X16119Y7770D01*
X16266Y7740D01*
X16604D01*
Y8208D01*
D02*
G37*
G36*
X17541Y7055D02*
X17204D01*
Y6588D01*
X17926D01*
Y6670D01*
X17897Y6818D01*
X17814Y6942D01*
X17689Y7026D01*
X17541Y7055D01*
D02*
G37*
G36*
X16604D02*
X16266D01*
X16119Y7026D01*
X15994Y6942D01*
X15911Y6818D01*
X15881Y6670D01*
Y6588D01*
X16604D01*
Y7055D01*
D02*
G37*
G36*
X8133Y2657D02*
X7953D01*
Y1764D01*
X8551D01*
Y2239D01*
X8519Y2399D01*
X8428Y2534D01*
X8293Y2625D01*
X8133Y2657D01*
D02*
G37*
G36*
X7353D02*
X7173D01*
X7013Y2625D01*
X6877Y2534D01*
X6787Y2399D01*
X6755Y2239D01*
Y1764D01*
X7353D01*
Y2657D01*
D02*
G37*
G36*
X17462Y2532D02*
X17282D01*
Y1639D01*
X17880D01*
Y2114D01*
X17848Y2274D01*
X17757Y2410D01*
X17622Y2501D01*
X17462Y2532D01*
D02*
G37*
G36*
X16682D02*
X16502D01*
X16342Y2501D01*
X16206Y2410D01*
X16116Y2274D01*
X16084Y2114D01*
Y1639D01*
X16682D01*
Y2532D01*
D02*
G37*
G36*
X8551Y1164D02*
X7953D01*
Y271D01*
X8133D01*
X8293Y302D01*
X8428Y393D01*
X8519Y529D01*
X8551Y689D01*
Y1164D01*
D02*
G37*
G36*
X7353D02*
X6755D01*
Y689D01*
X6787Y529D01*
X6877Y393D01*
X7013Y302D01*
X7173Y271D01*
X7353D01*
Y1164D01*
D02*
G37*
G36*
X17880Y1039D02*
X17282D01*
Y146D01*
X17462D01*
X17622Y178D01*
X17757Y269D01*
X17848Y404D01*
X17880Y564D01*
Y1039D01*
D02*
G37*
G36*
X16682D02*
X16084D01*
Y564D01*
X16116Y404D01*
X16206Y269D01*
X16342Y178D01*
X16502Y146D01*
X16682D01*
Y1039D01*
D02*
G37*
G36*
X17462Y-193D02*
X17282D01*
Y-1086D01*
X17880D01*
Y-611D01*
X17848Y-451D01*
X17757Y-315D01*
X17622Y-224D01*
X17462Y-193D01*
D02*
G37*
G36*
X16682D02*
X16502D01*
X16342Y-224D01*
X16206Y-315D01*
X16116Y-451D01*
X16084Y-611D01*
Y-1086D01*
X16682D01*
Y-193D01*
D02*
G37*
G36*
X8087Y-218D02*
X7907D01*
Y-1111D01*
X8505D01*
Y-636D01*
X8473Y-476D01*
X8382Y-340D01*
X8247Y-249D01*
X8087Y-218D01*
D02*
G37*
G36*
X7307D02*
X7127D01*
X6967Y-249D01*
X6831Y-340D01*
X6741Y-476D01*
X6709Y-636D01*
Y-1111D01*
X7307D01*
Y-218D01*
D02*
G37*
G36*
X-17615Y40079D02*
X-17625D01*
X-17809Y40043D01*
X-17964Y39939D01*
X-18068Y39784D01*
X-18104Y39600D01*
Y39060D01*
X-17615D01*
Y40079D01*
D02*
G37*
G36*
X-5675Y40054D02*
X-5685D01*
Y39035D01*
X-5196D01*
Y39575D01*
X-5232Y39759D01*
X-5336Y39914D01*
X-5492Y40018D01*
X-5675Y40054D01*
D02*
G37*
G36*
X-17615Y37760D02*
X-18104D01*
Y37220D01*
X-18068Y37037D01*
X-17964Y36881D01*
X-17809Y36778D01*
X-17625Y36741D01*
X-17615D01*
Y37760D01*
D02*
G37*
G36*
X-5196Y37735D02*
X-5685D01*
Y36716D01*
X-5675D01*
X-5492Y36753D01*
X-5336Y36856D01*
X-5232Y37012D01*
X-5196Y37195D01*
Y37735D01*
D02*
G37*
G36*
X-17615Y36381D02*
X-17625D01*
X-17809Y36345D01*
X-17964Y36241D01*
X-18068Y36086D01*
X-18104Y35902D01*
Y35362D01*
X-17615D01*
Y36381D01*
D02*
G37*
G36*
X-5675Y36356D02*
X-5685D01*
Y35337D01*
X-5196D01*
Y35877D01*
X-5232Y36061D01*
X-5336Y36216D01*
X-5492Y36320D01*
X-5675Y36356D01*
D02*
G37*
G36*
X-17615Y34062D02*
X-18104D01*
Y33522D01*
X-18068Y33339D01*
X-17964Y33183D01*
X-17809Y33079D01*
X-17625Y33043D01*
X-17615D01*
Y34062D01*
D02*
G37*
G36*
X-5196Y34037D02*
X-5685D01*
Y33018D01*
X-5675D01*
X-5492Y33054D01*
X-5336Y33158D01*
X-5232Y33314D01*
X-5196Y33497D01*
Y34037D01*
D02*
G37*
G36*
X-17615Y32637D02*
X-17625D01*
X-17809Y32601D01*
X-17964Y32497D01*
X-18068Y32341D01*
X-18104Y32158D01*
Y31618D01*
X-17615D01*
Y32637D01*
D02*
G37*
G36*
X-5675Y32612D02*
X-5685D01*
Y31593D01*
X-5196D01*
Y32133D01*
X-5232Y32316D01*
X-5336Y32472D01*
X-5492Y32576D01*
X-5675Y32612D01*
D02*
G37*
G36*
X-17615Y30318D02*
X-18104D01*
Y29778D01*
X-18068Y29594D01*
X-17964Y29439D01*
X-17809Y29335D01*
X-17625Y29299D01*
X-17615D01*
Y30318D01*
D02*
G37*
G36*
X-5196Y30293D02*
X-5685D01*
Y29274D01*
X-5675D01*
X-5492Y29310D01*
X-5336Y29414D01*
X-5232Y29569D01*
X-5196Y29753D01*
Y30293D01*
D02*
G37*
G36*
X-2875Y18526D02*
X-3383D01*
Y18451D01*
X-3353Y18305D01*
X-3271Y18181D01*
X-3147Y18098D01*
X-3000Y18069D01*
X-2875D01*
Y18526D01*
D02*
G37*
G36*
X-4639Y13680D02*
X-4793D01*
Y12992D01*
X-4230D01*
Y13271D01*
X-4261Y13428D01*
X-4350Y13560D01*
X-4483Y13649D01*
X-4639Y13680D01*
D02*
G37*
G36*
X-17493Y12694D02*
X-17770D01*
Y11165D01*
X-17041D01*
Y12243D01*
X-17076Y12415D01*
X-17174Y12562D01*
X-17320Y12660D01*
X-17493Y12694D01*
D02*
G37*
G36*
X-17041Y10565D02*
X-17770D01*
Y9037D01*
X-17493D01*
X-17320Y9071D01*
X-17174Y9169D01*
X-17076Y9315D01*
X-17041Y9488D01*
Y10565D01*
D02*
G37*
G36*
X-2934Y8213D02*
X-3657D01*
Y8130D01*
X-3627Y7983D01*
X-3544Y7858D01*
X-3419Y7775D01*
X-3272Y7745D01*
X-2934D01*
Y8213D01*
D02*
G37*
G36*
X-1997Y7055D02*
X-2334D01*
Y6588D01*
X-1612D01*
Y6670D01*
X-1641Y6818D01*
X-1724Y6942D01*
X-1849Y7026D01*
X-1997Y7055D01*
D02*
G37*
G36*
X-2934D02*
X-3272D01*
X-3419Y7026D01*
X-3544Y6942D01*
X-3627Y6818D01*
X-3657Y6670D01*
Y6588D01*
X-2934D01*
Y7055D01*
D02*
G37*
G36*
X-11451Y2557D02*
X-11631D01*
Y1664D01*
X-11033D01*
Y2139D01*
X-11065Y2299D01*
X-11156Y2435D01*
X-11291Y2526D01*
X-11451Y2557D01*
D02*
G37*
G36*
X-12231D02*
X-12411D01*
X-12571Y2526D01*
X-12707Y2435D01*
X-12797Y2299D01*
X-12829Y2139D01*
Y1664D01*
X-12231D01*
Y2557D01*
D02*
G37*
G36*
X-2076Y2532D02*
X-2256D01*
Y1639D01*
X-1658D01*
Y2114D01*
X-1690Y2274D01*
X-1781Y2410D01*
X-1916Y2501D01*
X-2076Y2532D01*
D02*
G37*
G36*
X-2856D02*
X-3036D01*
X-3196Y2501D01*
X-3332Y2410D01*
X-3422Y2274D01*
X-3454Y2114D01*
Y1639D01*
X-2856D01*
Y2532D01*
D02*
G37*
G36*
X-11033Y1064D02*
X-11631D01*
Y171D01*
X-11451D01*
X-11291Y203D01*
X-11156Y294D01*
X-11065Y429D01*
X-11033Y589D01*
Y1064D01*
D02*
G37*
G36*
X-12231D02*
X-12829D01*
Y589D01*
X-12797Y429D01*
X-12707Y294D01*
X-12571Y203D01*
X-12411Y171D01*
X-12231D01*
Y1064D01*
D02*
G37*
G36*
X-1658Y1039D02*
X-2256D01*
Y146D01*
X-2076D01*
X-1916Y178D01*
X-1781Y269D01*
X-1690Y404D01*
X-1658Y564D01*
Y1039D01*
D02*
G37*
G36*
X-2856D02*
X-3454D01*
Y564D01*
X-3422Y404D01*
X-3332Y269D01*
X-3196Y178D01*
X-3036Y146D01*
X-2856D01*
Y1039D01*
D02*
G37*
G36*
X-2076Y-193D02*
X-2256D01*
Y-1086D01*
X-1658D01*
Y-611D01*
X-1690Y-451D01*
X-1781Y-315D01*
X-1916Y-224D01*
X-2076Y-193D01*
D02*
G37*
G36*
X-2856D02*
X-3036D01*
X-3196Y-224D01*
X-3332Y-315D01*
X-3422Y-451D01*
X-3454Y-611D01*
Y-1086D01*
X-2856D01*
Y-193D01*
D02*
G37*
G36*
X-11451Y-218D02*
X-11631D01*
Y-1111D01*
X-11033D01*
Y-636D01*
X-11065Y-476D01*
X-11156Y-340D01*
X-11291Y-249D01*
X-11451Y-218D01*
D02*
G37*
G36*
X-12231D02*
X-12411D01*
X-12571Y-249D01*
X-12707Y-340D01*
X-12797Y-476D01*
X-12829Y-636D01*
Y-1111D01*
X-12231D01*
Y-218D01*
D02*
G37*
G36*
X-37012Y40079D02*
X-37022D01*
X-37206Y40043D01*
X-37361Y39939D01*
X-37465Y39784D01*
X-37501Y39600D01*
Y39060D01*
X-37012D01*
Y40079D01*
D02*
G37*
G36*
X-25072Y40054D02*
X-25082D01*
Y39035D01*
X-24593D01*
Y39575D01*
X-24629Y39759D01*
X-24733Y39914D01*
X-24889Y40018D01*
X-25072Y40054D01*
D02*
G37*
G36*
X-37012Y37760D02*
X-37501D01*
Y37220D01*
X-37465Y37037D01*
X-37361Y36881D01*
X-37206Y36778D01*
X-37022Y36741D01*
X-37012D01*
Y37760D01*
D02*
G37*
G36*
X-24593Y37735D02*
X-25082D01*
Y36716D01*
X-25072D01*
X-24889Y36753D01*
X-24733Y36856D01*
X-24629Y37012D01*
X-24593Y37195D01*
Y37735D01*
D02*
G37*
G36*
X-37012Y36381D02*
X-37022D01*
X-37206Y36345D01*
X-37361Y36241D01*
X-37465Y36086D01*
X-37501Y35902D01*
Y35362D01*
X-37012D01*
Y36381D01*
D02*
G37*
G36*
X-25072Y36356D02*
X-25082D01*
Y35337D01*
X-24593D01*
Y35877D01*
X-24629Y36061D01*
X-24733Y36216D01*
X-24889Y36320D01*
X-25072Y36356D01*
D02*
G37*
G36*
X-37012Y34062D02*
X-37501D01*
Y33522D01*
X-37465Y33339D01*
X-37361Y33183D01*
X-37206Y33079D01*
X-37022Y33043D01*
X-37012D01*
Y34062D01*
D02*
G37*
G36*
X-24593Y34037D02*
X-25082D01*
Y33018D01*
X-25072D01*
X-24889Y33054D01*
X-24733Y33158D01*
X-24629Y33314D01*
X-24593Y33497D01*
Y34037D01*
D02*
G37*
G36*
X-37012Y32637D02*
X-37022D01*
X-37206Y32601D01*
X-37361Y32497D01*
X-37465Y32341D01*
X-37501Y32158D01*
Y31618D01*
X-37012D01*
Y32637D01*
D02*
G37*
G36*
X-25072Y32612D02*
X-25082D01*
Y31593D01*
X-24593D01*
Y32133D01*
X-24629Y32316D01*
X-24733Y32472D01*
X-24889Y32576D01*
X-25072Y32612D01*
D02*
G37*
G36*
X-37012Y30318D02*
X-37501D01*
Y29778D01*
X-37465Y29594D01*
X-37361Y29439D01*
X-37206Y29335D01*
X-37022Y29299D01*
X-37012D01*
Y30318D01*
D02*
G37*
G36*
X-24593Y30293D02*
X-25082D01*
Y29274D01*
X-25072D01*
X-24889Y29310D01*
X-24733Y29414D01*
X-24629Y29569D01*
X-24593Y29753D01*
Y30293D01*
D02*
G37*
G36*
X-22316Y18526D02*
X-22823D01*
Y18451D01*
X-22794Y18305D01*
X-22711Y18181D01*
X-22587Y18098D01*
X-22441Y18069D01*
X-22316D01*
Y18526D01*
D02*
G37*
G36*
X-23873Y13680D02*
X-24027D01*
Y12992D01*
X-23464D01*
Y13271D01*
X-23495Y13428D01*
X-23584Y13560D01*
X-23717Y13649D01*
X-23873Y13680D01*
D02*
G37*
G36*
X-36890Y12694D02*
X-37167D01*
Y11165D01*
X-36438D01*
Y12243D01*
X-36473Y12415D01*
X-36570Y12562D01*
X-36717Y12660D01*
X-36890Y12694D01*
D02*
G37*
G36*
X-37767D02*
X-38045D01*
X-38217Y12660D01*
X-38364Y12562D01*
X-38461Y12415D01*
X-38496Y12243D01*
Y11165D01*
X-37767D01*
Y12694D01*
D02*
G37*
G36*
X-36438Y10565D02*
X-37167D01*
Y9037D01*
X-36890D01*
X-36717Y9071D01*
X-36570Y9169D01*
X-36473Y9315D01*
X-36438Y9488D01*
Y10565D01*
D02*
G37*
G36*
X-37767D02*
X-38496D01*
Y9488D01*
X-38461Y9315D01*
X-38364Y9169D01*
X-38217Y9071D01*
X-38045Y9037D01*
X-37767D01*
Y10565D01*
D02*
G37*
G36*
X-22306Y8213D02*
X-23028D01*
Y8130D01*
X-22999Y7983D01*
X-22916Y7858D01*
X-22791Y7775D01*
X-22643Y7746D01*
X-22306D01*
Y8213D01*
D02*
G37*
G36*
X-21393Y7060D02*
X-21731D01*
Y6593D01*
X-21009D01*
Y6675D01*
X-21038Y6823D01*
X-21121Y6948D01*
X-21246Y7031D01*
X-21393Y7060D01*
D02*
G37*
G36*
X-22331D02*
X-22669D01*
X-22816Y7031D01*
X-22941Y6948D01*
X-23024Y6823D01*
X-23053Y6675D01*
Y6593D01*
X-22331D01*
Y7060D01*
D02*
G37*
G36*
X-30848Y2556D02*
X-31028D01*
Y1663D01*
X-30430D01*
Y2138D01*
X-30462Y2298D01*
X-30552Y2434D01*
X-30688Y2524D01*
X-30848Y2556D01*
D02*
G37*
G36*
X-31628D02*
X-31808D01*
X-31968Y2524D01*
X-32104Y2434D01*
X-32194Y2298D01*
X-32226Y2138D01*
Y1663D01*
X-31628D01*
Y2556D01*
D02*
G37*
G36*
X-21473Y2532D02*
X-21653D01*
Y1639D01*
X-21055D01*
Y2114D01*
X-21087Y2274D01*
X-21177Y2410D01*
X-21313Y2501D01*
X-21473Y2532D01*
D02*
G37*
G36*
X-22253D02*
X-22433D01*
X-22593Y2501D01*
X-22729Y2410D01*
X-22819Y2274D01*
X-22851Y2114D01*
Y1639D01*
X-22253D01*
Y2532D01*
D02*
G37*
G36*
X-30430Y1063D02*
X-31028D01*
Y170D01*
X-30848D01*
X-30688Y202D01*
X-30552Y292D01*
X-30462Y428D01*
X-30430Y588D01*
Y1063D01*
D02*
G37*
G36*
X-31628D02*
X-32226D01*
Y588D01*
X-32194Y428D01*
X-32104Y292D01*
X-31968Y202D01*
X-31808Y170D01*
X-31628D01*
Y1063D01*
D02*
G37*
G36*
X-21055Y1039D02*
X-21653D01*
Y146D01*
X-21473D01*
X-21313Y178D01*
X-21177Y269D01*
X-21087Y404D01*
X-21055Y564D01*
Y1039D01*
D02*
G37*
G36*
X-22253D02*
X-22851D01*
Y564D01*
X-22819Y404D01*
X-22729Y269D01*
X-22593Y178D01*
X-22433Y146D01*
X-22253D01*
Y1039D01*
D02*
G37*
G36*
X-21473Y-213D02*
X-21653D01*
Y-1106D01*
X-21055D01*
Y-631D01*
X-21087Y-471D01*
X-21177Y-335D01*
X-21313Y-245D01*
X-21473Y-213D01*
D02*
G37*
G36*
X-22253D02*
X-22433D01*
X-22593Y-245D01*
X-22729Y-335D01*
X-22819Y-471D01*
X-22851Y-631D01*
Y-1106D01*
X-22253D01*
Y-213D01*
D02*
G37*
G36*
X-30848Y-218D02*
X-31028D01*
Y-1111D01*
X-30430D01*
Y-636D01*
X-30462Y-476D01*
X-30552Y-340D01*
X-30688Y-249D01*
X-30848Y-218D01*
D02*
G37*
G36*
X-31628D02*
X-31808D01*
X-31968Y-249D01*
X-32104Y-340D01*
X-32194Y-476D01*
X-32226Y-636D01*
Y-1111D01*
X-31628D01*
Y-218D01*
D02*
G37*
G36*
X-30430Y-1711D02*
X-31028D01*
Y-2604D01*
X-30848D01*
X-30688Y-2572D01*
X-30552Y-2481D01*
X-30462Y-2346D01*
X-30430Y-2186D01*
Y-1711D01*
D02*
G37*
G36*
X-31628D02*
X-32226D01*
Y-2186D01*
X-32194Y-2346D01*
X-32104Y-2481D01*
X-31968Y-2572D01*
X-31808Y-2604D01*
X-31628D01*
Y-1711D01*
D02*
G37*
G36*
X-9238Y17812D02*
X-10650D01*
Y16999D01*
X-8588D01*
Y17162D01*
X-8637Y17411D01*
X-8778Y17621D01*
X-8989Y17762D01*
X-9238Y17812D01*
D02*
G37*
G36*
X-12650D02*
X-14063D01*
X-14311Y17762D01*
X-14522Y17621D01*
X-14663Y17411D01*
X-14713Y17162D01*
Y16999D01*
X-12650D01*
Y17812D01*
D02*
G37*
G36*
X-8588Y14999D02*
X-10650D01*
Y14187D01*
X-9238D01*
X-8989Y14236D01*
X-8778Y14377D01*
X-8637Y14588D01*
X-8588Y14837D01*
Y14999D01*
D02*
G37*
G36*
X-12650D02*
X-14713D01*
Y14837D01*
X-14663Y14588D01*
X-14522Y14377D01*
X-14311Y14236D01*
X-14063Y14187D01*
X-12650D01*
Y14999D01*
D02*
G37*
G36*
X-10843Y12694D02*
X-11120D01*
Y11165D01*
X-10391D01*
Y12243D01*
X-10426Y12415D01*
X-10524Y12562D01*
X-10670Y12660D01*
X-10843Y12694D01*
D02*
G37*
G36*
X-11720D02*
X-11998D01*
X-12170Y12660D01*
X-12317Y12562D01*
X-12414Y12415D01*
X-12449Y12243D01*
Y11165D01*
X-11720D01*
Y12694D01*
D02*
G37*
G36*
X-9458Y11522D02*
X-9514Y11511D01*
X-9622Y11439D01*
X-9694Y11331D01*
X-9720Y11204D01*
Y10625D01*
X-9458D01*
Y11522D01*
D02*
G37*
G36*
X-28635Y17812D02*
X-30047D01*
Y16999D01*
X-27985D01*
Y17162D01*
X-28034Y17411D01*
X-28175Y17621D01*
X-28386Y17762D01*
X-28635Y17812D01*
D02*
G37*
G36*
X-32047D02*
X-33460D01*
X-33708Y17762D01*
X-33919Y17621D01*
X-34060Y17411D01*
X-34110Y17162D01*
Y16999D01*
X-32047D01*
Y17812D01*
D02*
G37*
G36*
X-27985Y14999D02*
X-30047D01*
Y14187D01*
X-28635D01*
X-28386Y14236D01*
X-28175Y14377D01*
X-28034Y14588D01*
X-27985Y14837D01*
Y14999D01*
D02*
G37*
G36*
X-32047D02*
X-34110D01*
Y14837D01*
X-34060Y14588D01*
X-33919Y14377D01*
X-33708Y14236D01*
X-33460Y14187D01*
X-32047D01*
Y14999D01*
D02*
G37*
G36*
X-30240Y12694D02*
X-30517D01*
Y11165D01*
X-29788D01*
Y12243D01*
X-29823Y12415D01*
X-29920Y12562D01*
X-30067Y12660D01*
X-30240Y12694D01*
D02*
G37*
G36*
X-31117D02*
X-31395D01*
X-31567Y12660D01*
X-31714Y12562D01*
X-31811Y12415D01*
X-31846Y12243D01*
Y11165D01*
X-31117D01*
Y12694D01*
D02*
G37*
G36*
X-28865Y11503D02*
X-28921Y11491D01*
X-29029Y11419D01*
X-29101Y11311D01*
X-29126Y11184D01*
Y10605D01*
X-28865D01*
Y11503D01*
D02*
G37*
G36*
X29792Y17808D02*
X28380D01*
Y16995D01*
X30442D01*
Y17158D01*
X30393Y17406D01*
X30252Y17617D01*
X30041Y17758D01*
X29792Y17808D01*
D02*
G37*
G36*
X26380D02*
X24967D01*
X24718Y17758D01*
X24508Y17617D01*
X24367Y17406D01*
X24317Y17158D01*
Y16995D01*
X26380D01*
Y17808D01*
D02*
G37*
G36*
X30442Y14995D02*
X28380D01*
Y14183D01*
X29792D01*
X30041Y14232D01*
X30252Y14373D01*
X30393Y14584D01*
X30442Y14833D01*
Y14995D01*
D02*
G37*
G36*
X26380D02*
X24317D01*
Y14833D01*
X24367Y14584D01*
X24508Y14373D01*
X24718Y14232D01*
X24967Y14183D01*
X26380D01*
Y14995D01*
D02*
G37*
G36*
X28187Y12690D02*
X27910D01*
Y11161D01*
X28638D01*
Y12239D01*
X28604Y12411D01*
X28506Y12558D01*
X28360Y12655D01*
X28187Y12690D01*
D02*
G37*
G36*
X27310D02*
X27032D01*
X26860Y12655D01*
X26713Y12558D01*
X26615Y12411D01*
X26581Y12239D01*
Y11161D01*
X27310D01*
Y12690D01*
D02*
G37*
G36*
X29567Y11524D02*
X29511Y11513D01*
X29403Y11441D01*
X29331Y11333D01*
X29305Y11206D01*
Y10627D01*
X29567D01*
Y11524D01*
D02*
G37*
G36*
X10300Y17807D02*
X8888D01*
Y16994D01*
X10950D01*
Y17157D01*
X10901Y17406D01*
X10760Y17616D01*
X10549Y17757D01*
X10300Y17807D01*
D02*
G37*
G36*
X6888D02*
X5475D01*
X5227Y17757D01*
X5016Y17616D01*
X4875Y17406D01*
X4825Y17157D01*
Y16994D01*
X6888D01*
Y17807D01*
D02*
G37*
G36*
X10950Y14994D02*
X8888D01*
Y14182D01*
X10300D01*
X10549Y14231D01*
X10760Y14372D01*
X10901Y14583D01*
X10950Y14832D01*
Y14994D01*
D02*
G37*
G36*
X6888D02*
X4825D01*
Y14832D01*
X4875Y14583D01*
X5016Y14372D01*
X5227Y14231D01*
X5475Y14182D01*
X6888D01*
Y14994D01*
D02*
G37*
G36*
X8695Y12689D02*
X8418D01*
Y11160D01*
X9147D01*
Y12238D01*
X9112Y12410D01*
X9014Y12557D01*
X8868Y12655D01*
X8695Y12689D01*
D02*
G37*
G36*
X7818D02*
X7540D01*
X7368Y12655D01*
X7221Y12557D01*
X7124Y12410D01*
X7089Y12238D01*
Y11160D01*
X7818D01*
Y12689D01*
D02*
G37*
G36*
X10072Y11494D02*
X10016Y11483D01*
X9908Y11411D01*
X9836Y11303D01*
X9811Y11176D01*
Y10597D01*
X10072D01*
Y11494D01*
D02*
G37*
G36*
X31698Y4467D02*
X31437D01*
Y3570D01*
X31493Y3581D01*
X31601Y3653D01*
X31673Y3761D01*
X31698Y3888D01*
Y4467D01*
D02*
G37*
G36*
X-7327Y4465D02*
X-7588D01*
Y3568D01*
X-7532Y3579D01*
X-7424Y3651D01*
X-7352Y3759D01*
X-7327Y3886D01*
Y4465D01*
D02*
G37*
G36*
X-26733Y4445D02*
X-26995D01*
Y3548D01*
X-26939Y3559D01*
X-26831Y3631D01*
X-26759Y3739D01*
X-26733Y3867D01*
Y4445D01*
D02*
G37*
G36*
X12204Y4437D02*
X11942D01*
Y3540D01*
X11998Y3551D01*
X12106Y3623D01*
X12178Y3731D01*
X12204Y3858D01*
Y4437D01*
D02*
G37*
G36*
X11133Y2657D02*
X10953D01*
Y1764D01*
X11551D01*
Y2239D01*
X11519Y2399D01*
X11428Y2534D01*
X11293Y2625D01*
X11133Y2657D01*
D02*
G37*
G36*
X-8451Y2557D02*
X-8631D01*
Y1664D01*
X-8033D01*
Y2139D01*
X-8065Y2299D01*
X-8156Y2435D01*
X-8291Y2526D01*
X-8451Y2557D01*
D02*
G37*
G36*
X-27848Y2556D02*
X-28028D01*
Y1663D01*
X-27430D01*
Y2138D01*
X-27462Y2298D01*
X-27552Y2434D01*
X-27688Y2524D01*
X-27848Y2556D01*
D02*
G37*
G36*
X30579Y2532D02*
X30399D01*
Y1639D01*
X30997D01*
Y2114D01*
X30965Y2274D01*
X30874Y2410D01*
X30739Y2501D01*
X30579Y2532D01*
D02*
G37*
G36*
X11551Y1164D02*
X10953D01*
Y271D01*
X11133D01*
X11293Y302D01*
X11428Y393D01*
X11519Y529D01*
X11551Y689D01*
Y1164D01*
D02*
G37*
G36*
X-8033Y1064D02*
X-8631D01*
Y171D01*
X-8451D01*
X-8291Y203D01*
X-8156Y294D01*
X-8065Y429D01*
X-8033Y589D01*
Y1064D01*
D02*
G37*
G36*
X-27430Y1063D02*
X-28028D01*
Y170D01*
X-27848D01*
X-27688Y202D01*
X-27552Y292D01*
X-27462Y428D01*
X-27430Y588D01*
Y1063D01*
D02*
G37*
G36*
X33174Y1039D02*
X32576D01*
Y564D01*
X32608Y404D01*
X32698Y269D01*
X32834Y178D01*
X32994Y146D01*
X33174D01*
Y1039D01*
D02*
G37*
G36*
X30997D02*
X30399D01*
Y146D01*
X30579D01*
X30739Y178D01*
X30874Y269D01*
X30965Y404D01*
X30997Y564D01*
Y1039D01*
D02*
G37*
G36*
X13682D02*
X13084D01*
Y564D01*
X13116Y404D01*
X13206Y269D01*
X13342Y178D01*
X13502Y146D01*
X13682D01*
Y1039D01*
D02*
G37*
G36*
X-5856D02*
X-6454D01*
Y564D01*
X-6422Y404D01*
X-6332Y269D01*
X-6196Y178D01*
X-6036Y146D01*
X-5856D01*
Y1039D01*
D02*
G37*
G36*
X-25253D02*
X-25851D01*
Y564D01*
X-25819Y404D01*
X-25729Y269D01*
X-25593Y178D01*
X-25433Y146D01*
X-25253D01*
Y1039D01*
D02*
G37*
G36*
X30579Y-193D02*
X30399D01*
Y-1086D01*
X30997D01*
Y-611D01*
X30965Y-451D01*
X30874Y-315D01*
X30739Y-224D01*
X30579Y-193D01*
D02*
G37*
G36*
X-5856D02*
X-6036D01*
X-6196Y-224D01*
X-6332Y-315D01*
X-6422Y-451D01*
X-6454Y-611D01*
Y-1086D01*
X-5856D01*
Y-193D01*
D02*
G37*
G36*
X13682D02*
X13502D01*
X13342Y-224D01*
X13206Y-315D01*
X13116Y-451D01*
X13084Y-611D01*
Y-1086D01*
X13682D01*
Y-193D01*
D02*
G37*
G36*
X33174D02*
X32994D01*
X32834Y-224D01*
X32698Y-315D01*
X32608Y-451D01*
X32576Y-611D01*
Y-1086D01*
X33174D01*
Y-193D01*
D02*
G37*
G36*
X-25253Y-213D02*
X-25433D01*
X-25593Y-245D01*
X-25729Y-335D01*
X-25819Y-471D01*
X-25851Y-631D01*
Y-1106D01*
X-25253D01*
Y-213D01*
D02*
G37*
G36*
X11087Y-218D02*
X10907D01*
Y-1111D01*
X11505D01*
Y-636D01*
X11473Y-476D01*
X11382Y-340D01*
X11247Y-249D01*
X11087Y-218D01*
D02*
G37*
G36*
X-27848D02*
X-28028D01*
Y-1111D01*
X-27430D01*
Y-636D01*
X-27462Y-476D01*
X-27552Y-340D01*
X-27688Y-249D01*
X-27848Y-218D01*
D02*
G37*
G36*
X-8451D02*
X-8631D01*
Y-1111D01*
X-8033D01*
Y-636D01*
X-8065Y-476D01*
X-8156Y-340D01*
X-8291Y-249D01*
X-8451Y-218D01*
D02*
G37*
G36*
X33174Y-1686D02*
X32576D01*
Y-2161D01*
X32608Y-2321D01*
X32698Y-2456D01*
X32834Y-2547D01*
X32994Y-2579D01*
X33174D01*
Y-1686D01*
D02*
G37*
G36*
X30997D02*
X30399D01*
Y-2579D01*
X30579D01*
X30739Y-2547D01*
X30874Y-2456D01*
X30965Y-2321D01*
X30997Y-2161D01*
Y-1686D01*
D02*
G37*
G36*
X13682D02*
X13084D01*
Y-2161D01*
X13116Y-2321D01*
X13206Y-2456D01*
X13342Y-2547D01*
X13502Y-2579D01*
X13682D01*
Y-1686D01*
D02*
G37*
G36*
X-5856D02*
X-6454D01*
Y-2161D01*
X-6422Y-2321D01*
X-6332Y-2456D01*
X-6196Y-2547D01*
X-6036Y-2579D01*
X-5856D01*
Y-1686D01*
D02*
G37*
G36*
X-25253Y-1706D02*
X-25851D01*
Y-2181D01*
X-25819Y-2341D01*
X-25729Y-2476D01*
X-25593Y-2567D01*
X-25433Y-2599D01*
X-25253D01*
Y-1706D01*
D02*
G37*
G36*
X11505Y-1711D02*
X10907D01*
Y-2604D01*
X11087D01*
X11247Y-2572D01*
X11382Y-2481D01*
X11473Y-2346D01*
X11505Y-2186D01*
Y-1711D01*
D02*
G37*
G36*
X-8033D02*
X-8631D01*
Y-2604D01*
X-8451D01*
X-8291Y-2572D01*
X-8156Y-2481D01*
X-8065Y-2346D01*
X-8033Y-2186D01*
Y-1711D01*
D02*
G37*
G36*
X-27430D02*
X-28028D01*
Y-2604D01*
X-27848D01*
X-27688Y-2572D01*
X-27552Y-2481D01*
X-27462Y-2346D01*
X-27430Y-2186D01*
Y-1711D01*
D02*
G37*
G36*
X-4273Y-4456D02*
X-4496D01*
X-4702Y-4542D01*
X-4859Y-4699D01*
X-4945Y-4905D01*
Y-5128D01*
X-4859Y-5334D01*
X-4702Y-5491D01*
X-4496Y-5576D01*
X-4273D01*
X-4067Y-5491D01*
X-3910Y-5334D01*
X-3825Y-5128D01*
Y-4905D01*
X-3910Y-4699D01*
X-4067Y-4542D01*
X-4273Y-4456D01*
D02*
G37*
G36*
X-22370Y-6503D02*
X-22592D01*
X-22798Y-6589D01*
X-22956Y-6746D01*
X-23041Y-6952D01*
Y-7175D01*
X-22956Y-7381D01*
X-22798Y-7538D01*
X-22592Y-7623D01*
X-22370D01*
X-22164Y-7538D01*
X-22006Y-7381D01*
X-21921Y-7175D01*
Y-6952D01*
X-22006Y-6746D01*
X-22164Y-6589D01*
X-22370Y-6503D01*
D02*
G37*
G36*
X10592Y-46400D02*
X10041D01*
Y-46950D01*
X10592D01*
Y-46400D01*
D02*
G37*
G36*
X-17939Y-10945D02*
X-18162D01*
X-18367Y-11030D01*
X-18525Y-11187D01*
X-18610Y-11393D01*
Y-11616D01*
X-18525Y-11822D01*
X-18367Y-11979D01*
X-18162Y-12065D01*
X-17939D01*
X-17733Y-11979D01*
X-17576Y-11822D01*
X-17490Y-11616D01*
Y-11393D01*
X-17576Y-11187D01*
X-17733Y-11030D01*
X-17939Y-10945D01*
D02*
G37*
G36*
X-15465Y-13006D02*
X-16877D01*
X-16986Y-13028D01*
X-17078Y-13089D01*
X-17140Y-13182D01*
X-17161Y-13290D01*
Y-13703D01*
X-17140Y-13812D01*
X-17083Y-13897D01*
X-17140Y-13982D01*
X-17161Y-14090D01*
Y-14503D01*
X-17140Y-14612D01*
X-17083Y-14697D01*
X-17140Y-14782D01*
X-17161Y-14890D01*
Y-15303D01*
X-17140Y-15412D01*
X-17083Y-15497D01*
X-17140Y-15582D01*
X-17161Y-15690D01*
Y-16103D01*
X-17140Y-16212D01*
X-17078Y-16304D01*
X-16986Y-16366D01*
X-16877Y-16387D01*
X-15465D01*
X-15356Y-16366D01*
X-15264Y-16304D01*
X-15237Y-16264D01*
X-15110D01*
X-15003Y-16371D01*
X-14797Y-16457D01*
X-14574D01*
X-14368Y-16371D01*
X-14211Y-16214D01*
X-14126Y-16008D01*
Y-15785D01*
X-14211Y-15579D01*
X-14368Y-15422D01*
X-14397Y-15410D01*
Y-15283D01*
X-14368Y-15271D01*
X-14211Y-15114D01*
X-14126Y-14908D01*
Y-14685D01*
X-14211Y-14479D01*
X-14311Y-14380D01*
X-14355Y-14297D01*
X-14311Y-14214D01*
X-14211Y-14114D01*
X-14126Y-13908D01*
Y-13685D01*
X-14211Y-13479D01*
X-14368Y-13322D01*
X-14574Y-13237D01*
X-14797D01*
X-14798Y-13237D01*
X-14837Y-13198D01*
X-14940Y-13130D01*
X-15061Y-13106D01*
X-15253D01*
X-15264Y-13089D01*
X-15356Y-13028D01*
X-15465Y-13006D01*
D02*
G37*
G36*
X-9900Y-29375D02*
X-10177D01*
Y-30904D01*
X-9448D01*
Y-29827D01*
X-9483Y-29654D01*
X-9581Y-29508D01*
X-9727Y-29410D01*
X-9900Y-29375D01*
D02*
G37*
G36*
X-10777D02*
X-11055D01*
X-11227Y-29410D01*
X-11374Y-29508D01*
X-11471Y-29654D01*
X-11506Y-29827D01*
Y-30904D01*
X-10777D01*
Y-29375D01*
D02*
G37*
G36*
X-9448Y-31504D02*
X-10177D01*
Y-33033D01*
X-9900D01*
X-9727Y-32998D01*
X-9581Y-32901D01*
X-9483Y-32754D01*
X-9448Y-32582D01*
Y-31504D01*
D02*
G37*
G36*
X-10777D02*
X-11506D01*
Y-32582D01*
X-11471Y-32754D01*
X-11374Y-32901D01*
X-11227Y-32998D01*
X-11055Y-33033D01*
X-10777D01*
Y-31504D01*
D02*
G37*
G36*
X-9900Y-35569D02*
X-10177D01*
Y-37098D01*
X-9448D01*
Y-36020D01*
X-9483Y-35848D01*
X-9581Y-35701D01*
X-9727Y-35604D01*
X-9900Y-35569D01*
D02*
G37*
G36*
X-10777D02*
X-11055D01*
X-11227Y-35604D01*
X-11374Y-35701D01*
X-11471Y-35848D01*
X-11506Y-36020D01*
Y-37098D01*
X-10777D01*
Y-35569D01*
D02*
G37*
G36*
X16030Y-13281D02*
X15807D01*
X15601Y-13366D01*
X15444Y-13523D01*
X15359Y-13729D01*
Y-13952D01*
X15444Y-14158D01*
X15581Y-14295D01*
X15580Y-14392D01*
X15567Y-14439D01*
X15501Y-14466D01*
X15344Y-14623D01*
X15259Y-14829D01*
Y-15052D01*
X15344Y-15258D01*
X15444Y-15358D01*
X15488Y-15441D01*
X15444Y-15524D01*
X15344Y-15623D01*
X15259Y-15829D01*
Y-16052D01*
X15344Y-16258D01*
X15501Y-16415D01*
X15707Y-16501D01*
X15930D01*
X15931Y-16500D01*
X15970Y-16539D01*
X16073Y-16608D01*
X16194Y-16632D01*
X16386D01*
X16397Y-16648D01*
X16489Y-16710D01*
X16598Y-16731D01*
X18010D01*
X18119Y-16710D01*
X18211Y-16648D01*
X18273Y-16556D01*
X18294Y-16447D01*
Y-16034D01*
X18273Y-15926D01*
X18216Y-15841D01*
X18273Y-15756D01*
X18294Y-15647D01*
Y-15234D01*
X18273Y-15126D01*
X18216Y-15041D01*
X18273Y-14956D01*
X18294Y-14847D01*
Y-14434D01*
X18273Y-14326D01*
X18216Y-14241D01*
X18273Y-14156D01*
X18294Y-14047D01*
Y-13634D01*
X18273Y-13526D01*
X18211Y-13433D01*
X18119Y-13372D01*
X18010Y-13350D01*
X16598D01*
X16489Y-13372D01*
X16397Y-13433D01*
X16268Y-13398D01*
X16236Y-13366D01*
X16030Y-13281D01*
D02*
G37*
G36*
X20182Y-28612D02*
X19105D01*
X18932Y-28646D01*
X18786Y-28744D01*
X18688Y-28890D01*
X18654Y-29063D01*
Y-29341D01*
X20182D01*
Y-28612D01*
D02*
G37*
G36*
X-16098Y-31504D02*
X-16827D01*
Y-33033D01*
X-16550D01*
X-16377Y-32998D01*
X-16231Y-32901D01*
X-16133Y-32754D01*
X-16098Y-32582D01*
Y-31504D01*
D02*
G37*
G36*
X-17427D02*
X-18156D01*
Y-32582D01*
X-18121Y-32754D01*
X-18024Y-32901D01*
X-17877Y-32998D01*
X-17705Y-33033D01*
X-17427D01*
Y-31504D01*
D02*
G37*
G36*
X-16550Y-35569D02*
X-16827D01*
Y-37098D01*
X-16098D01*
Y-36020D01*
X-16133Y-35848D01*
X-16231Y-35701D01*
X-16377Y-35604D01*
X-16550Y-35569D01*
D02*
G37*
G36*
X-17427D02*
X-17705D01*
X-17877Y-35604D01*
X-18024Y-35701D01*
X-18121Y-35848D01*
X-18156Y-36020D01*
Y-37098D01*
X-17427D01*
Y-35569D01*
D02*
G37*
%LPD*%
D10*
X31888Y-11000D02*
G03*
X33684Y-11744I1796J1796D01*
G01*
X12520Y-32978D02*
X12693Y-33151D01*
X12344Y-31818D02*
X12520Y-31994D01*
Y-32978D02*
Y-31994D01*
X12693Y-33151D02*
X13693D01*
X11615Y-31818D02*
X12344D01*
X1509Y-9138D02*
Y-8248D01*
X615Y-25731D02*
Y-10032D01*
X1509Y-9138D01*
X529Y-7267D02*
X1509Y-8248D01*
X-2603Y-31818D02*
X-320Y-29535D01*
Y-26034D02*
X200Y-25513D01*
X-320Y-29535D02*
Y-26034D01*
X200Y-25513D02*
Y-9822D01*
X113Y-27596D02*
X2924Y-30406D01*
X113Y-27596D02*
Y-26233D01*
X615Y-25731D01*
X200Y-9822D02*
X493Y-9529D01*
X39585Y-31344D02*
Y-12677D01*
X38653Y-11744D02*
X39585Y-12677D01*
X36229Y-34700D02*
X39585Y-31344D01*
X33684Y-11744D02*
X38653D01*
X28948Y-8060D02*
X31888Y-11000D01*
X22919Y-8060D02*
X28948D01*
X493Y-9529D02*
Y-8254D01*
X-6293Y-7267D02*
X529D01*
X-20683Y-38698D02*
X-19475Y-39906D01*
X-20683Y-38698D02*
Y-28763D01*
X-19958Y-38513D02*
Y-27970D01*
Y-38513D02*
X-19051Y-39420D01*
X17916Y-5603D02*
X20462D01*
X14684Y-8835D02*
X17916Y-5603D01*
X20462D02*
X22919Y-8060D01*
X3087Y-8835D02*
X14684D01*
X1704Y-7452D02*
X3087Y-8835D01*
X-15053Y-15097D02*
X-14753Y-14797D01*
X-14686D01*
X-15061Y-13422D02*
X-14686Y-13797D01*
X-16096Y-13422D02*
X-15061D01*
X-16171Y-15097D02*
X-15053D01*
X-16171Y-13497D02*
X-16096Y-13422D01*
X-2379Y-46110D02*
X-2366Y-46123D01*
X-4670Y-31818D02*
X-2603D01*
X-4670Y-32468D02*
X-2519D01*
X-1219Y-31168D02*
X-420D01*
X-2519Y-32468D02*
X-1219Y-31168D01*
X-1481Y-32456D02*
X-432D01*
X-2584Y-35815D02*
Y-33558D01*
X-1481Y-32456D01*
X-4947Y-47262D02*
X-2692D01*
X-19051Y-39420D02*
X-12789D01*
X-4947Y-47262D01*
X2924Y-31850D02*
X3187Y-32113D01*
X5128D01*
X6074Y-31168D01*
X2924Y-31850D02*
Y-30406D01*
X6074Y-31168D02*
X7365D01*
X14818Y-31798D02*
Y-30425D01*
X13713Y-29319D02*
X14818Y-30425D01*
X11560Y-29319D02*
X13713D01*
X15165Y-32144D02*
X21137D01*
X22582Y-30699D01*
X14818Y-31798D02*
X15165Y-32144D01*
X22582Y-20764D02*
X23533Y-19813D01*
X22582Y-30699D02*
Y-20764D01*
X-4684Y-32454D02*
X-4670Y-32468D01*
X-5612Y-32454D02*
X-4684D01*
X-5757Y-32599D02*
X-5612Y-32454D01*
X-5757Y-32950D02*
Y-32599D01*
Y-32950D02*
X-5589Y-33118D01*
X-4670D01*
X15819Y-15941D02*
X16194Y-16316D01*
X17229D01*
X-2692Y-47262D02*
X-2366Y-46936D01*
Y-46123D01*
X-2379Y-46110D02*
X-2370Y-46100D01*
X-19475Y-39906D02*
X-13085D01*
X-12469Y-40522D01*
X-9117Y-47262D02*
X-9000Y-47145D01*
X-11894Y-47262D02*
X-9117D01*
X-9000Y-47145D02*
Y-46100D01*
X-12469Y-46688D02*
X-11894Y-47262D01*
X-12469Y-46688D02*
Y-40522D01*
X7749Y-29319D02*
X9545D01*
X11615Y-31168D02*
X13661D01*
X8914Y-32468D02*
X10214Y-31168D01*
X11615D01*
X7365Y-32468D02*
X8914D01*
X7365Y-31818D02*
X8284D01*
X8451Y-31650D01*
Y-31299D01*
X7365Y-31168D02*
X7378Y-31154D01*
X8307D02*
X8451Y-31299D01*
X7378Y-31154D02*
X8307D01*
X6446Y-33118D02*
X7365D01*
X6279Y-32950D02*
X6446Y-33118D01*
X6279Y-32950D02*
Y-32599D01*
X6423Y-32454D01*
X7352D01*
X388Y-31818D02*
X590Y-32020D01*
X-420Y-31818D02*
X388D01*
X590Y-32969D02*
X772Y-33151D01*
X590Y-32969D02*
Y-32020D01*
X772Y-33151D02*
X4060D01*
X-5589Y-31818D02*
X-4670D01*
X-5757Y-31650D02*
X-5589Y-31818D01*
X-5757Y-31650D02*
Y-31299D01*
X-5612Y-31154D01*
X-4684D01*
X-4670Y-31168D01*
X16186Y-14641D02*
X17304D01*
X15886Y-14941D02*
X16186Y-14641D01*
X15819Y-14941D02*
X15886D01*
X17229Y-16316D02*
X17304Y-16241D01*
D40*
X-20230Y-12738D02*
D03*
X-17805Y-16638D02*
D03*
Y-14038D02*
D03*
Y-12738D02*
D03*
Y-15338D02*
D03*
X-19017D02*
D03*
X-20230Y-14038D02*
D03*
Y-15338D02*
D03*
Y-16638D02*
D03*
X-19017Y-12738D02*
D03*
Y-14038D02*
D03*
Y-16638D02*
D03*
X21395Y-17163D02*
D03*
Y-15863D02*
D03*
Y-12088D02*
D03*
Y-13263D02*
D03*
Y-14563D02*
D03*
X20145Y-12088D02*
D03*
X18895D02*
D03*
Y-17163D02*
D03*
X20145D02*
D03*
X18895Y-15863D02*
D03*
Y-13263D02*
D03*
Y-14563D02*
D03*
X20145Y-13263D02*
D03*
Y-14563D02*
D03*
Y-15863D02*
D03*
D41*
X36229Y-32475D02*
D03*
X-36050Y-30475D02*
D03*
X2261Y-46100D02*
D03*
X36229Y-38953D02*
D03*
X8891Y-46100D02*
D03*
X-36050Y-36953D02*
D03*
X-11000Y-46100D02*
D03*
X-4370D02*
D03*
D43*
X-25772Y7891D02*
D03*
X-13630Y-14613D02*
D03*
X38370Y7487D02*
D03*
X18870D02*
D03*
X20170Y6187D02*
D03*
X1035Y-26734D02*
D03*
X-27930Y-10713D02*
D03*
X38564Y-13313D02*
D03*
Y-14613D02*
D03*
Y-15913D02*
D03*
Y-17213D02*
D03*
Y-18513D02*
D03*
X35770Y-19813D02*
D03*
X38564D02*
D03*
X29270Y-17213D02*
D03*
Y-13313D02*
D03*
X34470Y-19813D02*
D03*
X29270Y-12013D02*
D03*
Y-15913D02*
D03*
X33170Y-19813D02*
D03*
X30570Y-18513D02*
D03*
X29270Y-19813D02*
D03*
X30570D02*
D03*
Y-13313D02*
D03*
X31870Y-18513D02*
D03*
Y-19813D02*
D03*
X29270Y-14613D02*
D03*
Y-18513D02*
D03*
X30570Y-17213D02*
D03*
X-18980Y-17813D02*
D03*
X-20130D02*
D03*
X-17830D02*
D03*
X-1930Y-10713D02*
D03*
Y-12013D02*
D03*
Y-13313D02*
D03*
Y-14613D02*
D03*
Y-15913D02*
D03*
Y-17213D02*
D03*
Y-18513D02*
D03*
Y-19813D02*
D03*
Y-21113D02*
D03*
X-3230Y-10713D02*
D03*
Y-12013D02*
D03*
Y-13313D02*
D03*
Y-14613D02*
D03*
Y-15913D02*
D03*
Y-17213D02*
D03*
Y-18513D02*
D03*
Y-19813D02*
D03*
Y-21113D02*
D03*
Y-22413D02*
D03*
Y-26313D02*
D03*
X-4530Y-10713D02*
D03*
Y-12013D02*
D03*
Y-13313D02*
D03*
Y-14613D02*
D03*
Y-15913D02*
D03*
Y-17213D02*
D03*
Y-18513D02*
D03*
Y-19813D02*
D03*
Y-21113D02*
D03*
Y-22413D02*
D03*
Y-23713D02*
D03*
Y-25013D02*
D03*
Y-26313D02*
D03*
X-5830Y-10713D02*
D03*
Y-12013D02*
D03*
Y-13313D02*
D03*
Y-14613D02*
D03*
Y-15913D02*
D03*
Y-17213D02*
D03*
Y-18513D02*
D03*
Y-19813D02*
D03*
Y-21113D02*
D03*
Y-22413D02*
D03*
Y-23713D02*
D03*
Y-25013D02*
D03*
Y-26313D02*
D03*
X-7130Y-10713D02*
D03*
Y-12013D02*
D03*
Y-13313D02*
D03*
Y-14613D02*
D03*
Y-15913D02*
D03*
Y-17213D02*
D03*
Y-18513D02*
D03*
Y-19813D02*
D03*
Y-21113D02*
D03*
Y-22413D02*
D03*
Y-23713D02*
D03*
Y-25013D02*
D03*
Y-26313D02*
D03*
X-8430Y-10713D02*
D03*
Y-12013D02*
D03*
Y-13313D02*
D03*
Y-14613D02*
D03*
Y-15913D02*
D03*
Y-17213D02*
D03*
Y-18513D02*
D03*
Y-19813D02*
D03*
Y-21113D02*
D03*
Y-26313D02*
D03*
X-9730Y-12013D02*
D03*
Y-13313D02*
D03*
Y-14613D02*
D03*
Y-15913D02*
D03*
Y-17213D02*
D03*
Y-18513D02*
D03*
Y-19813D02*
D03*
Y-21113D02*
D03*
X-11030Y-13313D02*
D03*
Y-14613D02*
D03*
Y-15913D02*
D03*
Y-17213D02*
D03*
Y-18513D02*
D03*
Y-19813D02*
D03*
Y-21113D02*
D03*
Y-22413D02*
D03*
Y-26313D02*
D03*
X-12655Y-10488D02*
D03*
X-12330Y-14613D02*
D03*
Y-15913D02*
D03*
Y-17213D02*
D03*
Y-18513D02*
D03*
Y-19813D02*
D03*
Y-21113D02*
D03*
Y-22413D02*
D03*
Y-23713D02*
D03*
Y-25013D02*
D03*
Y-26313D02*
D03*
X-13955Y-10488D02*
D03*
Y-11638D02*
D03*
X-13630Y-17213D02*
D03*
Y-18513D02*
D03*
Y-19813D02*
D03*
Y-21113D02*
D03*
Y-22413D02*
D03*
Y-23713D02*
D03*
Y-25013D02*
D03*
Y-26313D02*
D03*
X-15255Y-10488D02*
D03*
Y-11638D02*
D03*
X-14930Y-18513D02*
D03*
Y-19813D02*
D03*
Y-21113D02*
D03*
Y-22413D02*
D03*
Y-23713D02*
D03*
Y-25013D02*
D03*
Y-26313D02*
D03*
X-16230Y-18513D02*
D03*
X-16230Y-19813D02*
D03*
Y-21113D02*
D03*
Y-22413D02*
D03*
Y-23713D02*
D03*
Y-25013D02*
D03*
Y-26313D02*
D03*
X-17530Y-18963D02*
D03*
Y-20263D02*
D03*
Y-21563D02*
D03*
Y-22863D02*
D03*
Y-24163D02*
D03*
Y-25463D02*
D03*
X-18830Y-18963D02*
D03*
Y-20263D02*
D03*
Y-21563D02*
D03*
Y-22863D02*
D03*
Y-24163D02*
D03*
X-20130Y-18963D02*
D03*
Y-20263D02*
D03*
Y-21563D02*
D03*
Y-22863D02*
D03*
X-14930Y23087D02*
D03*
X-38330Y-313D02*
D03*
X-20130Y15287D02*
D03*
X24070Y2287D02*
D03*
X-38330Y13987D02*
D03*
X38370Y-27613D02*
D03*
X-34430Y-1613D02*
D03*
X38370Y-5513D02*
D03*
X33170Y21787D02*
D03*
X-31830Y20487D02*
D03*
X-630Y46487D02*
D03*
X38370Y29587D02*
D03*
X34470Y21787D02*
D03*
X-18830Y29587D02*
D03*
X-37030Y2287D02*
D03*
X-35730Y4887D02*
D03*
X-7130Y20487D02*
D03*
X-4530Y29587D02*
D03*
Y33487D02*
D03*
X21470Y23087D02*
D03*
X-4530Y26987D02*
D03*
X7170Y23087D02*
D03*
X20170Y29587D02*
D03*
X-24030Y26987D02*
D03*
X14970Y32187D02*
D03*
X4570Y987D02*
D03*
X34470Y33487D02*
D03*
X37070Y-40613D02*
D03*
X-37030Y20487D02*
D03*
X670Y34787D02*
D03*
X-17530Y24387D02*
D03*
X21470Y987D02*
D03*
X-33130D02*
D03*
X-8430Y20487D02*
D03*
X-35730Y-40613D02*
D03*
X-4530Y19187D02*
D03*
X-34430Y20487D02*
D03*
X22770Y23087D02*
D03*
X-38330Y32187D02*
D03*
X33170Y20487D02*
D03*
X38370Y-40613D02*
D03*
X-24030Y24387D02*
D03*
X1970Y19187D02*
D03*
X3270Y21787D02*
D03*
X-37030Y-40613D02*
D03*
X-38330Y20487D02*
D03*
X13670Y26987D02*
D03*
X14970Y46487D02*
D03*
X-34430Y987D02*
D03*
X-16230Y46487D02*
D03*
X-18830Y30887D02*
D03*
X24070Y4887D02*
D03*
X26670Y7487D02*
D03*
X-38330Y-36713D02*
D03*
X-24030Y28287D02*
D03*
X-38330Y23087D02*
D03*
X-4530Y38687D02*
D03*
X14970Y36087D02*
D03*
X-38330Y26987D02*
D03*
X14970Y23087D02*
D03*
X-37030Y15287D02*
D03*
X38370Y-30213D02*
D03*
X-11030Y23087D02*
D03*
X-31830D02*
D03*
X-5830Y20487D02*
D03*
X26670Y23087D02*
D03*
X1970D02*
D03*
X12370Y47787D02*
D03*
X-24030Y34787D02*
D03*
X-630Y15287D02*
D03*
X-24030Y20487D02*
D03*
X-5830Y16587D02*
D03*
X21470Y25687D02*
D03*
X-34430Y21787D02*
D03*
X-3230Y47787D02*
D03*
X-16230Y43887D02*
D03*
X-18830Y37387D02*
D03*
X14970Y21787D02*
D03*
X21470Y4887D02*
D03*
X-27930Y-48413D02*
D03*
X-37030Y25687D02*
D03*
X-5830Y21787D02*
D03*
X38370Y32187D02*
D03*
X4570Y20487D02*
D03*
X14970Y28287D02*
D03*
X-4530D02*
D03*
X-29230Y21787D02*
D03*
X22770Y8787D02*
D03*
X38370Y-313D02*
D03*
X21470Y28287D02*
D03*
X34470Y15287D02*
D03*
X-38330Y39987D02*
D03*
X25370Y3587D02*
D03*
X-7130Y23087D02*
D03*
X14970Y17887D02*
D03*
X24070Y987D02*
D03*
X-34430Y23087D02*
D03*
X38370Y38687D02*
D03*
X-14930Y-32813D02*
D03*
X-26630Y21787D02*
D03*
X-31830D02*
D03*
X12370D02*
D03*
X34470Y-4213D02*
D03*
X-4530Y23087D02*
D03*
X37070Y-35413D02*
D03*
X22770Y21787D02*
D03*
X-1930Y42587D02*
D03*
X-14930Y20487D02*
D03*
X-17530Y26987D02*
D03*
X-37030Y3587D02*
D03*
X27970Y23087D02*
D03*
X670Y33487D02*
D03*
X34470Y23087D02*
D03*
X-33130Y21787D02*
D03*
X-38330Y28287D02*
D03*
X-24030Y32187D02*
D03*
X34470Y16587D02*
D03*
X-24030Y29587D02*
D03*
X7170Y21787D02*
D03*
X34470Y32187D02*
D03*
X-17530Y21787D02*
D03*
X-5830Y17887D02*
D03*
X33170Y23087D02*
D03*
X-9730Y21787D02*
D03*
X21470Y20487D02*
D03*
X14970Y39987D02*
D03*
X-35730Y-35413D02*
D03*
X-25330Y23087D02*
D03*
X-14930Y-31513D02*
D03*
X20170Y34787D02*
D03*
X12370Y20487D02*
D03*
X14970Y16587D02*
D03*
X38370Y39987D02*
D03*
X-24030Y30887D02*
D03*
X-16230Y21787D02*
D03*
X-17530Y20487D02*
D03*
X3270Y8787D02*
D03*
X-33130Y-313D02*
D03*
X1970Y20487D02*
D03*
X-16230Y23087D02*
D03*
X20170Y7487D02*
D03*
X-37030Y6187D02*
D03*
X38370Y-9413D02*
D03*
X-29230Y20487D02*
D03*
X3270Y23087D02*
D03*
X-25330Y24387D02*
D03*
X-24030Y37387D02*
D03*
X31870Y23087D02*
D03*
X14970Y34787D02*
D03*
X-18830Y-34113D02*
D03*
X-29230Y-48413D02*
D03*
X26670Y21787D02*
D03*
X-38330Y36087D02*
D03*
Y-35413D02*
D03*
X-630Y13987D02*
D03*
X38370Y15287D02*
D03*
Y-8113D02*
D03*
X24070Y23087D02*
D03*
X12370Y19187D02*
D03*
X38370Y37387D02*
D03*
X670Y36087D02*
D03*
X-38330Y-2913D02*
D03*
X-25330Y21787D02*
D03*
X38370Y-26313D02*
D03*
X1970Y26987D02*
D03*
X14970Y38687D02*
D03*
X34470Y36087D02*
D03*
X-5830Y25687D02*
D03*
X-35730Y-34113D02*
D03*
X-33130Y23087D02*
D03*
X34470Y19187D02*
D03*
X-38330Y29587D02*
D03*
Y987D02*
D03*
X35770Y-40613D02*
D03*
X-17530Y23087D02*
D03*
X31870Y20487D02*
D03*
X38370Y4887D02*
D03*
X18870Y28287D02*
D03*
X-5830Y47787D02*
D03*
X-24030Y25687D02*
D03*
X18870Y4887D02*
D03*
X13670Y24387D02*
D03*
X-35730Y987D02*
D03*
X18870Y3587D02*
D03*
X38370Y-34113D02*
D03*
X-24030Y36087D02*
D03*
X-8430Y23087D02*
D03*
X-38330Y-32813D02*
D03*
X-17530Y46487D02*
D03*
Y47787D02*
D03*
X18870Y12687D02*
D03*
X38370Y-1613D02*
D03*
X-24030Y23087D02*
D03*
X24070Y6187D02*
D03*
X-13630Y21787D02*
D03*
X-38330D02*
D03*
Y-1613D02*
D03*
X-630Y28287D02*
D03*
X13670Y25687D02*
D03*
X-38330Y7487D02*
D03*
X21470Y26987D02*
D03*
X8470Y21787D02*
D03*
X-35730Y-1613D02*
D03*
X-33130Y20487D02*
D03*
X31870Y19187D02*
D03*
X-16230Y20487D02*
D03*
X-38330Y30887D02*
D03*
X38370Y987D02*
D03*
X-29230Y23087D02*
D03*
X-24030Y19187D02*
D03*
X38370Y-6813D02*
D03*
X21470Y17887D02*
D03*
X-17530D02*
D03*
X-38330Y-38013D02*
D03*
X-35730Y21787D02*
D03*
X-17530Y28287D02*
D03*
X12370Y23087D02*
D03*
X-4530Y36087D02*
D03*
X24070Y21787D02*
D03*
X-8430D02*
D03*
X-30530Y23087D02*
D03*
X1970Y17887D02*
D03*
X21470Y19187D02*
D03*
X-34430Y2287D02*
D03*
X29270Y20487D02*
D03*
X-24030Y21787D02*
D03*
X25370Y987D02*
D03*
X38370Y-39313D02*
D03*
X-34430Y3587D02*
D03*
X-17530Y15287D02*
D03*
X-24030Y16587D02*
D03*
X-35730Y6187D02*
D03*
X11070Y23087D02*
D03*
X-13630D02*
D03*
X14970Y45187D02*
D03*
X25370Y-1613D02*
D03*
X-35730Y3587D02*
D03*
X-18830Y-32813D02*
D03*
X670Y29587D02*
D03*
X13670Y23087D02*
D03*
X33170Y25687D02*
D03*
X-34430Y4887D02*
D03*
X13670Y21787D02*
D03*
X-37030Y-5513D02*
D03*
Y7487D02*
D03*
X-33130Y2287D02*
D03*
Y4887D02*
D03*
X-24030Y17887D02*
D03*
X-13630Y2287D02*
D03*
X-7130Y19187D02*
D03*
X-4530Y34787D02*
D03*
X-630Y47787D02*
D03*
X14970Y37387D02*
D03*
X22770Y19187D02*
D03*
X38370Y-28913D02*
D03*
X-37030Y23087D02*
D03*
X-16230Y24387D02*
D03*
X1970Y21787D02*
D03*
X34470Y20487D02*
D03*
X-21430Y47787D02*
D03*
X670Y32187D02*
D03*
X31870Y21787D02*
D03*
X-37030Y16587D02*
D03*
X-24030Y33487D02*
D03*
X21470Y2287D02*
D03*
X-5830Y24387D02*
D03*
X13670Y15287D02*
D03*
X-30530Y-48413D02*
D03*
X-4530Y25687D02*
D03*
X14970Y19187D02*
D03*
Y26987D02*
D03*
X-20130Y12687D02*
D03*
X-18830Y-31513D02*
D03*
X38370Y-2913D02*
D03*
Y-22413D02*
D03*
X-20130Y28287D02*
D03*
X-25330Y26987D02*
D03*
X8470Y20487D02*
D03*
X3270Y19187D02*
D03*
X11070Y20487D02*
D03*
X33170Y-40613D02*
D03*
X-34430Y-313D02*
D03*
X-16230Y19187D02*
D03*
X30570Y23087D02*
D03*
X-30530Y20487D02*
D03*
X-38330Y33487D02*
D03*
X-25330Y28287D02*
D03*
X-4530Y32187D02*
D03*
Y16587D02*
D03*
X-25330Y25687D02*
D03*
X11070Y21787D02*
D03*
X13670Y47787D02*
D03*
X24070Y3587D02*
D03*
X26670Y20487D02*
D03*
X33170Y24387D02*
D03*
X38370Y13987D02*
D03*
X-27930Y20487D02*
D03*
X24070Y-313D02*
D03*
X34470Y29587D02*
D03*
X670Y37387D02*
D03*
X-38330Y19187D02*
D03*
X-35730D02*
D03*
Y24387D02*
D03*
X-11030Y20487D02*
D03*
X38370Y28287D02*
D03*
X33170Y15287D02*
D03*
X-5830D02*
D03*
X-1930Y45187D02*
D03*
X9770Y23087D02*
D03*
X-37030Y21787D02*
D03*
X-35730Y2287D02*
D03*
X-20130Y46487D02*
D03*
X-9730Y23087D02*
D03*
X-37030Y26987D02*
D03*
X7170Y20487D02*
D03*
X14970Y43887D02*
D03*
X27970Y21787D02*
D03*
X31870Y-41913D02*
D03*
X-25330Y19187D02*
D03*
X-26630Y23087D02*
D03*
X-34430Y6187D02*
D03*
X34470Y25687D02*
D03*
X-7130Y21787D02*
D03*
X34470Y24387D02*
D03*
X-14930Y21787D02*
D03*
X-13630Y987D02*
D03*
X33170Y16587D02*
D03*
X38370Y-36713D02*
D03*
X-38330Y-39313D02*
D03*
X-18830Y34787D02*
D03*
X-24030Y15287D02*
D03*
X-17530Y-34113D02*
D03*
X25370Y21787D02*
D03*
X24070Y-1613D02*
D03*
X20170Y37387D02*
D03*
X33170Y-38013D02*
D03*
X-38330Y25687D02*
D03*
X8470Y47787D02*
D03*
X38370Y8787D02*
D03*
X-4530Y15287D02*
D03*
X21470Y6187D02*
D03*
X-25330Y16587D02*
D03*
X-16230Y-34113D02*
D03*
X-38330Y38687D02*
D03*
X-17530Y43887D02*
D03*
X21470Y-1613D02*
D03*
X31870Y-38013D02*
D03*
X37070Y-28913D02*
D03*
X670Y38687D02*
D03*
X-630Y42587D02*
D03*
X20170Y32187D02*
D03*
X38370Y30887D02*
D03*
X18870Y-313D02*
D03*
X-37030Y987D02*
D03*
X-13630Y20487D02*
D03*
X-33130Y6187D02*
D03*
X-18830Y38687D02*
D03*
X18870Y8787D02*
D03*
X34470Y34787D02*
D03*
X-25330Y20487D02*
D03*
X5870Y-313D02*
D03*
X-630Y12687D02*
D03*
X-5830Y19187D02*
D03*
X-4530Y47787D02*
D03*
X4570Y23087D02*
D03*
X-26630Y20487D02*
D03*
X34470Y17887D02*
D03*
X-35730Y23087D02*
D03*
X9770Y47787D02*
D03*
X34470Y30887D02*
D03*
X-37030Y-34113D02*
D03*
X3270Y24387D02*
D03*
X-25330Y17887D02*
D03*
X-5830Y23087D02*
D03*
X-16230Y42587D02*
D03*
X21470Y15287D02*
D03*
X-1930Y43887D02*
D03*
X33170Y28287D02*
D03*
X-37030Y19187D02*
D03*
X670Y30887D02*
D03*
X1970Y16587D02*
D03*
X13670Y45187D02*
D03*
X-12330Y20487D02*
D03*
X34470Y37387D02*
D03*
X14970Y25687D02*
D03*
X-17530D02*
D03*
X-18830Y33487D02*
D03*
X18870Y-1613D02*
D03*
X-17530Y16587D02*
D03*
X14970Y29587D02*
D03*
X-20130Y47787D02*
D03*
X-38330Y15287D02*
D03*
Y34787D02*
D03*
X8470Y23087D02*
D03*
X33170Y19187D02*
D03*
X-17530D02*
D03*
X14970Y15287D02*
D03*
X-20130Y13987D02*
D03*
X18870D02*
D03*
X-12330Y23087D02*
D03*
X-37030Y24387D02*
D03*
X-38330Y16587D02*
D03*
X18870Y15287D02*
D03*
X-37030Y28287D02*
D03*
X-16230Y45187D02*
D03*
Y8787D02*
D03*
X21470Y-313D02*
D03*
X33170Y26987D02*
D03*
X38370Y34787D02*
D03*
X-1930Y47787D02*
D03*
X5870Y21787D02*
D03*
X-37030Y-1613D02*
D03*
X20170Y30887D02*
D03*
X1970Y25687D02*
D03*
Y15287D02*
D03*
X4570Y21787D02*
D03*
X25370Y20487D02*
D03*
Y4887D02*
D03*
X-4530Y30887D02*
D03*
X24070Y20487D02*
D03*
X-37030Y-35413D02*
D03*
X30570Y-6813D02*
D03*
X-630Y41287D02*
D03*
X3270Y20487D02*
D03*
X5870Y23087D02*
D03*
X30570Y20487D02*
D03*
X-18830Y39987D02*
D03*
X-4530Y37387D02*
D03*
X21470Y21787D02*
D03*
X5870Y3587D02*
D03*
X-37030Y17887D02*
D03*
X-11030Y21787D02*
D03*
X-9730Y20487D02*
D03*
X-1930Y46487D02*
D03*
X-37030Y4887D02*
D03*
X14970Y24387D02*
D03*
X-35730Y7487D02*
D03*
Y20487D02*
D03*
X-630Y45187D02*
D03*
X34470Y-40613D02*
D03*
X-4530Y21787D02*
D03*
X29270Y23087D02*
D03*
X38370Y-35413D02*
D03*
X1970Y24387D02*
D03*
X13670Y46487D02*
D03*
X34470Y26987D02*
D03*
Y28287D02*
D03*
X-12330Y21787D02*
D03*
X-14930Y-34113D02*
D03*
X25370Y2287D02*
D03*
X-38330Y-34113D02*
D03*
Y2287D02*
D03*
X24070Y7487D02*
D03*
X20170Y33487D02*
D03*
X-33130Y3587D02*
D03*
Y7487D02*
D03*
X-18830Y32187D02*
D03*
X25370Y6187D02*
D03*
X14970Y47787D02*
D03*
X-38330Y3587D02*
D03*
Y4887D02*
D03*
X27970Y20487D02*
D03*
X-18830Y47787D02*
D03*
X14970Y33487D02*
D03*
X25370Y-313D02*
D03*
X38370Y33487D02*
D03*
X-37030Y13987D02*
D03*
X22770Y7487D02*
D03*
X-38330Y24387D02*
D03*
X-35730Y-313D02*
D03*
X-630Y43887D02*
D03*
X-4530Y20487D02*
D03*
X29270Y21787D02*
D03*
X-38330Y6187D02*
D03*
X5870Y20487D02*
D03*
X21470Y24387D02*
D03*
X-630Y8787D02*
D03*
X-26630Y19187D02*
D03*
X1970Y28287D02*
D03*
X-30530Y21787D02*
D03*
X9770D02*
D03*
X38370Y-38013D02*
D03*
X13670Y43887D02*
D03*
Y20487D02*
D03*
X30570Y21787D02*
D03*
X22770Y20487D02*
D03*
X25370Y23087D02*
D03*
X13670Y17887D02*
D03*
X21470Y3587D02*
D03*
X-27930Y21787D02*
D03*
X-34430Y7487D02*
D03*
X18870Y987D02*
D03*
X-16230Y47787D02*
D03*
X-25330Y15287D02*
D03*
X14970Y20487D02*
D03*
X9770D02*
D03*
X14970Y30887D02*
D03*
X38370Y3587D02*
D03*
X-5830Y28287D02*
D03*
X38370Y12687D02*
D03*
X-38330Y37387D02*
D03*
X-37030Y-313D02*
D03*
X18870Y2287D02*
D03*
X33170Y17887D02*
D03*
X-18830Y36087D02*
D03*
X-17530Y42587D02*
D03*
X13670Y19187D02*
D03*
X-5830Y26987D02*
D03*
X21470Y16587D02*
D03*
X13670Y28287D02*
D03*
X22770Y24387D02*
D03*
X38370Y2287D02*
D03*
X-4530Y24387D02*
D03*
X13670Y16587D02*
D03*
X-38330Y17887D02*
D03*
X20170Y36087D02*
D03*
X-4530Y17887D02*
D03*
X25370Y7487D02*
D03*
X38370Y36087D02*
D03*
X-35730Y8787D02*
D03*
X-33130Y-1613D02*
D03*
X-31830Y7487D02*
D03*
X-18830Y42587D02*
D03*
X11070Y47787D02*
D03*
X-27930Y23087D02*
D03*
X1789Y-11250D02*
D03*
X3270Y-10713D02*
D03*
X-27930Y-12013D02*
D03*
Y-13313D02*
D03*
Y-14613D02*
D03*
Y-15913D02*
D03*
Y-17213D02*
D03*
Y-18513D02*
D03*
X-29230Y-12013D02*
D03*
Y-13313D02*
D03*
Y-14613D02*
D03*
Y-15913D02*
D03*
Y-17213D02*
D03*
Y-18513D02*
D03*
X-30530Y-13313D02*
D03*
Y-14613D02*
D03*
Y-17213D02*
D03*
Y-18513D02*
D03*
X21395Y-27613D02*
D03*
Y-26313D02*
D03*
Y-25013D02*
D03*
Y-23713D02*
D03*
Y-22413D02*
D03*
Y-21113D02*
D03*
Y-19813D02*
D03*
Y-18513D02*
D03*
X13670Y-14613D02*
D03*
Y-13313D02*
D03*
X20170Y-18513D02*
D03*
Y-19813D02*
D03*
Y-21113D02*
D03*
Y-22413D02*
D03*
Y-23713D02*
D03*
Y-25013D02*
D03*
Y-26313D02*
D03*
Y-27613D02*
D03*
X18870Y-18513D02*
D03*
Y-19813D02*
D03*
Y-21113D02*
D03*
Y-22413D02*
D03*
Y-23713D02*
D03*
Y-25013D02*
D03*
Y-26313D02*
D03*
Y-27613D02*
D03*
X17570Y-18513D02*
D03*
Y-19813D02*
D03*
Y-21113D02*
D03*
Y-22413D02*
D03*
Y-23713D02*
D03*
Y-27613D02*
D03*
Y-28913D02*
D03*
X16270Y-18513D02*
D03*
Y-19813D02*
D03*
Y-21113D02*
D03*
Y-22413D02*
D03*
Y-23713D02*
D03*
Y-27613D02*
D03*
X14970Y-17213D02*
D03*
Y-18513D02*
D03*
Y-19813D02*
D03*
Y-21113D02*
D03*
Y-22413D02*
D03*
Y-23713D02*
D03*
X13670Y-10713D02*
D03*
Y-12013D02*
D03*
Y-15913D02*
D03*
Y-17213D02*
D03*
Y-18513D02*
D03*
Y-19813D02*
D03*
Y-21113D02*
D03*
Y-22413D02*
D03*
Y-23713D02*
D03*
Y-25013D02*
D03*
Y-26313D02*
D03*
X12370Y-10713D02*
D03*
Y-12013D02*
D03*
Y-13313D02*
D03*
Y-14613D02*
D03*
Y-15913D02*
D03*
Y-17213D02*
D03*
Y-18513D02*
D03*
Y-19813D02*
D03*
Y-21113D02*
D03*
Y-26313D02*
D03*
X11070Y-10713D02*
D03*
Y-12013D02*
D03*
Y-13313D02*
D03*
Y-14613D02*
D03*
Y-15913D02*
D03*
Y-17213D02*
D03*
Y-18513D02*
D03*
Y-19813D02*
D03*
Y-21113D02*
D03*
X9770Y-10713D02*
D03*
Y-12013D02*
D03*
Y-13313D02*
D03*
Y-14613D02*
D03*
Y-15913D02*
D03*
Y-17213D02*
D03*
Y-18513D02*
D03*
Y-19813D02*
D03*
Y-21113D02*
D03*
Y-22413D02*
D03*
Y-26313D02*
D03*
X8470Y-10713D02*
D03*
Y-12013D02*
D03*
Y-13313D02*
D03*
Y-14613D02*
D03*
Y-15913D02*
D03*
Y-17213D02*
D03*
Y-18513D02*
D03*
Y-19813D02*
D03*
Y-21113D02*
D03*
Y-22413D02*
D03*
Y-23713D02*
D03*
Y-25013D02*
D03*
Y-26313D02*
D03*
X7170Y-10713D02*
D03*
Y-12013D02*
D03*
Y-13313D02*
D03*
Y-14613D02*
D03*
Y-15913D02*
D03*
Y-17213D02*
D03*
Y-18513D02*
D03*
Y-19813D02*
D03*
Y-21113D02*
D03*
Y-22413D02*
D03*
Y-23713D02*
D03*
Y-25013D02*
D03*
Y-26313D02*
D03*
X5870Y-10713D02*
D03*
Y-12013D02*
D03*
Y-13313D02*
D03*
Y-14613D02*
D03*
Y-15913D02*
D03*
Y-17213D02*
D03*
Y-18513D02*
D03*
Y-19813D02*
D03*
Y-21113D02*
D03*
Y-22413D02*
D03*
Y-26313D02*
D03*
X4570Y-10713D02*
D03*
Y-12013D02*
D03*
Y-13313D02*
D03*
Y-14613D02*
D03*
Y-15913D02*
D03*
Y-17213D02*
D03*
Y-18513D02*
D03*
Y-19813D02*
D03*
Y-21113D02*
D03*
X3270Y-12013D02*
D03*
Y-13313D02*
D03*
Y-14613D02*
D03*
Y-15913D02*
D03*
Y-17213D02*
D03*
Y-18513D02*
D03*
Y-19813D02*
D03*
Y-21113D02*
D03*
X9368Y6093D02*
D03*
X38141Y10660D02*
D03*
X18684Y10649D02*
D03*
X-895Y10678D02*
D03*
X-20275D02*
D03*
X7676Y8138D02*
D03*
X5426D02*
D03*
X-12419Y7910D02*
D03*
X-14635D02*
D03*
X-9677Y6515D02*
D03*
X4291Y-49114D02*
D03*
X30961Y12699D02*
D03*
X11469D02*
D03*
X-8025Y12704D02*
D03*
X-27466D02*
D03*
X28751Y13336D02*
D03*
X9459D02*
D03*
X30768Y7914D02*
D03*
X34614D02*
D03*
X31740Y7010D02*
D03*
X32655Y7892D02*
D03*
X21043Y13319D02*
D03*
X22355D02*
D03*
X-10279Y13336D02*
D03*
X-29676D02*
D03*
X2863Y13318D02*
D03*
X1552D02*
D03*
X13163Y7891D02*
D03*
X12249Y7009D02*
D03*
X15122Y7913D02*
D03*
X11276D02*
D03*
X-27431Y7894D02*
D03*
X-8262Y7913D02*
D03*
X-7289Y7009D02*
D03*
X-6375Y7891D02*
D03*
X-17987Y13318D02*
D03*
X-16675D02*
D03*
X-29676Y6010D02*
D03*
X28751D02*
D03*
X-26686Y7009D02*
D03*
X-24129Y8078D02*
D03*
X-31373Y-5060D02*
D03*
D45*
X36423Y28869D02*
G03*
X37167Y27073I2540J0D01*
G01*
X38330Y24858D02*
G03*
X37586Y26655I-2540J0D01*
G01*
Y16778D02*
G03*
X38330Y18574I-1796J1796D01*
G01*
X36973Y16165D02*
G03*
X36396Y14772I1393J-1393D01*
G01*
X-28544Y41929D02*
G03*
X-28520Y41905I24J0D01*
G01*
X-21979Y40484D02*
G03*
X-23400Y41905I-1421J0D01*
G01*
X-21429Y16170D02*
G03*
X-22006Y14777I1393J-1393D01*
G01*
X-20816Y16783D02*
G03*
X-20072Y18579I-1796J1796D01*
G01*
Y24863D02*
G03*
X-20816Y26659I-2540J0D01*
G01*
X-21979Y28874D02*
G03*
X-21235Y27078I2540J0D01*
G01*
X16931Y40479D02*
G03*
X15510Y41900I-1421J0D01*
G01*
X17481Y16164D02*
G03*
X16904Y14771I1393J-1393D01*
G01*
X18094Y16778D02*
G03*
X18838Y18574I-1796J1796D01*
G01*
Y24858D02*
G03*
X18094Y26654I-2540J0D01*
G01*
X16931Y28869D02*
G03*
X17675Y27073I2540J0D01*
G01*
X-2607Y28869D02*
G03*
X-1863Y27073I2540J0D01*
G01*
X-700Y24858D02*
G03*
X-1444Y26654I-2540J0D01*
G01*
Y16778D02*
G03*
X-700Y18574I-1796J1796D01*
G01*
X-2057Y16164D02*
G03*
X-2634Y14771I1393J-1393D01*
G01*
X-2607Y40479D02*
G03*
X-4028Y41900I-1421J0D01*
G01*
X-9172Y41924D02*
G03*
X-9149Y41900I24J0D01*
G01*
X36423Y28869D02*
Y39797D01*
Y24383D02*
Y28869D01*
X35444Y40776D02*
X36423Y39797D01*
X29860Y40776D02*
X35444D01*
X37167Y27073D02*
X37586Y26655D01*
X38330Y18574D02*
Y24858D01*
X36973Y16165D02*
X37586Y16778D01*
X36396Y14476D02*
Y14772D01*
X-28520Y41905D02*
X-23400D01*
X-21979Y24387D02*
X-21979D01*
X-20072Y18579D02*
Y24863D01*
X-21429Y16170D02*
X-20816Y16783D01*
X-21979Y28874D02*
Y40484D01*
Y24387D02*
Y28874D01*
X-21235Y27078D02*
X-20816Y26659D01*
X10389Y41900D02*
X15510D01*
X16931Y24382D02*
X16931D01*
X18838Y18574D02*
Y24858D01*
X16904Y14475D02*
Y14771D01*
X17481Y16164D02*
X18094Y16778D01*
X16931Y28869D02*
Y40479D01*
Y24382D02*
Y28869D01*
X17675Y27073D02*
X18094Y26654D01*
X-1863Y27073D02*
X-1444Y26654D01*
X-2607Y24382D02*
Y28869D01*
Y40479D01*
X-2057Y16164D02*
X-1444Y16778D01*
X-700Y18574D02*
Y24858D01*
X-2607Y24382D02*
X-2607D01*
X-9149Y41900D02*
X-4028D01*
D46*
X28969Y-49114D02*
G03*
X30855Y-47228I0J1886D01*
G01*
X11537Y-48370D02*
G03*
X13333Y-49114I1796J1796D01*
G01*
X31599Y-34088D02*
G03*
X30855Y-35884I1796J-1796D01*
G01*
X-22118Y-48377D02*
G03*
X-20322Y-49121I1796J1796D01*
G01*
X-6580Y12589D02*
G03*
X-6625Y12698I-154J0D01*
G01*
X-26025Y12594D02*
G03*
X-26070Y12703I-154J0D01*
G01*
X36229Y-30475D02*
G03*
X34493Y-31194I0J-2456D01*
G01*
X8884Y-38611D02*
G03*
X8861Y-38666I54J-54D01*
G01*
X10214Y-42752D02*
G03*
X10921Y-41046I-1707J1707D01*
G01*
X9635Y-43331D02*
G03*
X8891Y-45127I1796J-1796D01*
G01*
X-28694Y4320D02*
G03*
X-28561Y4375I0J188D01*
G01*
X-11734Y6010D02*
X-10220D01*
X-9716Y6515D02*
X-9677D01*
X-10220Y6010D02*
X-9716Y6515D01*
X1402Y-11772D02*
X1789Y-11385D01*
X987Y-26646D02*
X1402Y-26231D01*
Y-11772D01*
X1789Y-11385D02*
Y-11250D01*
X987Y-26734D02*
Y-26646D01*
X1035Y-26782D02*
X3663Y-29410D01*
X5117Y-27788D02*
X13672D01*
X3663Y-29410D02*
Y-29242D01*
X5117Y-27788D01*
X3923Y-31136D02*
X4060D01*
X3663Y-30875D02*
X3923Y-31136D01*
X3663Y-30875D02*
Y-29410D01*
X13672Y-27788D02*
X15964Y-30079D01*
Y-31136D02*
Y-30079D01*
X30768Y7914D02*
X31136Y8282D01*
X11276Y7913D02*
X11642Y8279D01*
X13333Y-49114D02*
X28969D01*
X11067Y-47900D02*
X11537Y-48370D01*
X30855Y-47228D02*
Y-35884D01*
X31599Y-34088D02*
X34493Y-31194D01*
X-2889Y4273D02*
X-2634D01*
X-5348Y4765D02*
X-3381D01*
X-2889Y4273D01*
X7723Y6049D02*
X9324D01*
X9368Y6093D01*
X-20322Y-49121D02*
X4284D01*
X7679Y5705D02*
X7723Y5749D01*
X31136Y8282D02*
Y10300D01*
Y8281D02*
Y8282D01*
X11642Y8279D02*
Y10297D01*
Y8278D02*
Y8279D01*
X11644Y8281D01*
X2246Y-46085D02*
Y-40789D01*
X-21979Y22372D02*
X-21963Y22356D01*
Y20561D02*
X-21947Y20545D01*
X-21963Y20561D02*
Y22356D01*
X-25495Y-45000D02*
X-22118Y-48377D01*
X32291Y12699D02*
X32406Y12584D01*
X30961Y12699D02*
X32291D01*
X32406Y10295D02*
Y12584D01*
X12914Y10295D02*
Y12584D01*
X11469Y12699D02*
X12799D01*
X12914Y12584D01*
X-7888Y8306D02*
Y10325D01*
X-6632Y12704D02*
X-6625Y12698D01*
X-6580Y10300D02*
Y12589D01*
X-8025Y12704D02*
X-6632D01*
X-27291Y8281D02*
Y10300D01*
X-26076Y12709D02*
X-26070Y12703D01*
X-27470Y12709D02*
X-26076D01*
X-26025Y10305D02*
Y12594D01*
X10899Y-36305D02*
X12654D01*
X-2584Y-35815D02*
X-2109Y-36290D01*
X228D01*
X8861Y-40689D02*
Y-38666D01*
X8827Y-38600D02*
X8838Y-38611D01*
X4280Y-40778D02*
X4291Y-40789D01*
X4280Y-40778D02*
Y-38711D01*
X4268Y-38700D02*
X4280Y-38711D01*
X2253Y-38700D02*
Y-36430D01*
X2183Y-36360D02*
X2253Y-36430D01*
X298Y-36360D02*
X2183D01*
X10899Y-38611D02*
Y-36305D01*
X-22004Y20426D02*
Y22367D01*
X-22016Y20426D02*
X-22004D01*
X9635Y-43331D02*
X10214Y-42752D01*
X8891Y-46100D02*
Y-45127D01*
X8876Y-46085D02*
X8891Y-46100D01*
X2246Y-46085D02*
X2261Y-46100D01*
X36421Y14481D02*
Y14782D01*
X-24751Y4278D02*
X-22031D01*
X-24751D02*
Y4740D01*
X-28561Y4375D02*
Y4740D01*
X-31256Y4320D02*
X-28694D01*
X16929Y14480D02*
Y14781D01*
X-31256Y6010D02*
X-29676D01*
X36440Y20443D02*
Y22346D01*
X36423Y22363D02*
X36440Y22346D01*
Y20443D02*
X36457Y20426D01*
X16931D02*
Y22362D01*
X-2591Y20555D02*
Y22351D01*
Y20555D02*
X-2575Y20539D01*
X-2607Y22367D02*
X-2591Y22351D01*
X29866Y4375D02*
Y4740D01*
X33676Y4333D02*
Y4740D01*
Y4333D02*
X33731Y4278D01*
X27171Y4320D02*
X29811D01*
X29866Y4375D01*
X27171Y6010D02*
X28751D01*
X33731Y4278D02*
X36396D01*
X33676Y10183D02*
Y10300D01*
Y10183D02*
X33731Y10128D01*
X36421Y10528D02*
Y12465D01*
X33676Y10300D02*
Y10528D01*
X36421D01*
X10374Y4375D02*
Y4740D01*
X14184Y4333D02*
Y4740D01*
Y4333D02*
X14239Y4278D01*
X7679Y4320D02*
X10319D01*
X10374Y4375D01*
X14239Y4278D02*
X16904D01*
X14184Y10183D02*
Y10300D01*
Y10183D02*
X14239Y10128D01*
X16929Y10528D02*
Y12465D01*
X14184Y10300D02*
Y10528D01*
X16929D01*
X-9164Y4375D02*
Y4740D01*
X-11859Y4320D02*
X-9219D01*
X-9164Y4375D01*
X-5354Y10183D02*
X-5299Y10128D01*
X-2609Y10528D02*
Y12465D01*
X-5354Y10528D02*
X-2609D01*
X-24751D02*
X-22006D01*
X-24751Y10300D02*
Y10528D01*
X-22006D02*
Y12465D01*
X-24751Y10183D02*
X-24696Y10128D01*
X-24751Y10183D02*
Y10300D01*
D47*
X10014Y-34000D02*
G03*
X10167Y-34437I700J0D01*
G01*
X10306Y-34569D02*
G03*
X11984Y-35203I1678J1907D01*
G01*
X10188Y-34459D02*
G03*
X10306Y-34569I1796J1796D01*
G01*
X13829Y-36290D02*
G03*
X15625Y-35546I0J2540D01*
G01*
X15721Y-35449D02*
G03*
X15125Y-35203I-596J-596D01*
G01*
X10636Y-32468D02*
G03*
X10014Y-33090I0J-622D01*
G01*
X13661Y-31168D02*
G03*
X13693Y-31136I0J32D01*
G01*
X1724Y-31168D02*
G03*
X1801Y-31136I0J109D01*
G01*
X15964Y-33151D02*
X16095D01*
X13836D02*
X15964D01*
X-16171Y-15897D02*
X-14686D01*
X-2640Y-29125D02*
X-2479Y-29286D01*
X-2640Y-29125D02*
Y-27748D01*
X11545Y-33158D02*
X11575D01*
X11545Y-33690D02*
Y-33158D01*
X11147Y-34088D02*
X11545Y-33690D01*
X11575Y-33158D02*
X11615Y-33118D01*
X-420Y-34113D02*
Y-33118D01*
X12922Y-39393D02*
Y-37980D01*
X7470Y-36405D02*
X8884D01*
X4268Y-36430D02*
X5682D01*
X-2584Y-41432D02*
Y-39575D01*
X228Y-39393D02*
Y-37980D01*
X-6776Y-42815D02*
Y-41681D01*
X-8300Y-42815D02*
Y-29633D01*
Y-42815D02*
X-6415Y-44700D01*
X-1549D01*
X4913Y-29319D02*
X6149D01*
X-6026Y-34104D02*
X-4362D01*
X-3535Y-33277D01*
X-6776Y-34854D02*
X-6026Y-34104D01*
X-6776Y-36247D02*
Y-34854D01*
X15919Y-13841D02*
X17304D01*
X-6776Y-40081D02*
Y-38262D01*
X-6776Y-38262D01*
X-8300Y-29633D02*
X-7953Y-29286D01*
X-1048Y-47900D02*
Y-45202D01*
X-1549Y-44700D02*
X-1048Y-45202D01*
X12912Y3441D02*
X13435Y2918D01*
X14051D01*
X12912Y3441D02*
Y4737D01*
X-5938Y-29286D02*
X-4079D01*
X-5938Y-29286D02*
X-5938Y-29286D01*
X-25663Y3072D02*
X-24287D01*
X-26025Y3434D02*
X-25663Y3072D01*
X-420Y-31168D02*
X1724D01*
X-26025Y3434D02*
Y4745D01*
X32407Y3464D02*
Y4767D01*
Y3464D02*
X32739Y3132D01*
X33178D01*
X-6618Y3463D02*
Y4765D01*
Y3463D02*
X-6286Y3130D01*
X-5847D01*
X10014Y-34000D02*
Y-33090D01*
X10167Y-34437D02*
X10188Y-34459D01*
X10167Y-34437D02*
X10167Y-34437D01*
X11984Y-35203D02*
X15125D01*
X15625Y-35546D02*
X15721Y-35449D01*
X12922Y-36290D02*
X13829D01*
X10636Y-32468D02*
X11615D01*
D48*
X-19178Y-14697D02*
D03*
X20312Y-15041D02*
D03*
D49*
X-22186Y-12697D02*
D03*
Y-13497D02*
D03*
Y-14297D02*
D03*
Y-15097D02*
D03*
Y-15897D02*
D03*
Y-16697D02*
D03*
X-16171Y-12697D02*
D03*
Y-13497D02*
D03*
Y-14297D02*
D03*
Y-15097D02*
D03*
Y-15897D02*
D03*
Y-16697D02*
D03*
X17304Y-13041D02*
D03*
Y-13841D02*
D03*
Y-14641D02*
D03*
Y-15441D02*
D03*
Y-16241D02*
D03*
Y-17041D02*
D03*
X23319Y-13041D02*
D03*
Y-13841D02*
D03*
Y-14641D02*
D03*
Y-15441D02*
D03*
Y-16241D02*
D03*
Y-17041D02*
D03*
D50*
X-28565Y10305D02*
D03*
X-27295D02*
D03*
X-26025D02*
D03*
X-24755D02*
D03*
Y4745D02*
D03*
X-26025D02*
D03*
X-27295D02*
D03*
X-28565D02*
D03*
X29867Y10327D02*
D03*
X31137D02*
D03*
X32407D02*
D03*
X33677D02*
D03*
Y4767D02*
D03*
X32407D02*
D03*
X31137D02*
D03*
X29867D02*
D03*
X10372Y10297D02*
D03*
X11642D02*
D03*
X12912D02*
D03*
X14182D02*
D03*
Y4737D02*
D03*
X12912D02*
D03*
X11642D02*
D03*
X10372D02*
D03*
X-9158Y10325D02*
D03*
X-7888D02*
D03*
X-6618D02*
D03*
X-5348D02*
D03*
Y4765D02*
D03*
X-6618D02*
D03*
X-7888D02*
D03*
X-9158D02*
D03*
D51*
X-26660Y7525D02*
D03*
X31772Y7547D02*
D03*
X12277Y7517D02*
D03*
X-7253Y7545D02*
D03*
D52*
X20482Y-36291D02*
D03*
Y-29641D02*
D03*
D53*
X11615Y-33118D02*
D03*
Y-32468D02*
D03*
Y-31818D02*
D03*
Y-31168D02*
D03*
X7365Y-33118D02*
D03*
Y-32468D02*
D03*
Y-31818D02*
D03*
Y-31168D02*
D03*
X-4670D02*
D03*
Y-31818D02*
D03*
Y-32468D02*
D03*
Y-33118D02*
D03*
X-420Y-31168D02*
D03*
Y-31818D02*
D03*
Y-32468D02*
D03*
Y-33118D02*
D03*
D54*
X-6776Y-40081D02*
D03*
Y-41681D02*
D03*
X36457Y20426D02*
D03*
Y18826D02*
D03*
X16931Y20426D02*
D03*
Y18826D02*
D03*
X-22016Y20426D02*
D03*
Y18826D02*
D03*
X-2575Y20426D02*
D03*
Y18826D02*
D03*
D55*
X-31047Y15999D02*
D03*
Y27099D02*
D03*
X27380Y15995D02*
D03*
Y27095D02*
D03*
X7888Y27094D02*
D03*
Y15994D02*
D03*
X-11650Y27099D02*
D03*
Y15999D02*
D03*
D56*
X2573Y38410D02*
D03*
X5163D02*
D03*
X24655Y30968D02*
D03*
X22065D02*
D03*
X30105Y30943D02*
D03*
X32695D02*
D03*
X22065Y34712D02*
D03*
X24655D02*
D03*
X30105Y34687D02*
D03*
X32695D02*
D03*
X22065Y38410D02*
D03*
X24655D02*
D03*
X32695Y38385D02*
D03*
X30105D02*
D03*
X5163Y30968D02*
D03*
X2573D02*
D03*
X13203Y30943D02*
D03*
X10613D02*
D03*
X5163Y34712D02*
D03*
X2573D02*
D03*
X10613Y34687D02*
D03*
X13203D02*
D03*
Y38385D02*
D03*
X10613D02*
D03*
X-14375Y30968D02*
D03*
X-16965D02*
D03*
X-8925Y30943D02*
D03*
X-6335D02*
D03*
X-14375Y34712D02*
D03*
X-16965D02*
D03*
X-8925Y34687D02*
D03*
X-6335D02*
D03*
X-16965Y38410D02*
D03*
X-14375D02*
D03*
X-8925Y38385D02*
D03*
X-6335D02*
D03*
X-33772Y30968D02*
D03*
X-36362D02*
D03*
X-25732Y30943D02*
D03*
X-28322D02*
D03*
X-36362Y34712D02*
D03*
X-33772D02*
D03*
X-28322Y34687D02*
D03*
X-25732D02*
D03*
X-33772Y38410D02*
D03*
X-36362D02*
D03*
X-28322Y38385D02*
D03*
X-25732D02*
D03*
D57*
X-21953Y1339D02*
D03*
X-24953D02*
D03*
X27099Y-1386D02*
D03*
X30099D02*
D03*
X27099Y1339D02*
D03*
X30099D02*
D03*
X36474D02*
D03*
X33474D02*
D03*
X7653Y1464D02*
D03*
X10653D02*
D03*
X7607Y-1411D02*
D03*
X10607D02*
D03*
X-5556Y1339D02*
D03*
X-2556D02*
D03*
X-31328Y-1411D02*
D03*
X-28328D02*
D03*
X13982Y1339D02*
D03*
X16982D02*
D03*
X-11931Y1364D02*
D03*
X-8931D02*
D03*
X36474Y-1386D02*
D03*
X33474D02*
D03*
X16982D02*
D03*
X13982D02*
D03*
X-8931Y-1411D02*
D03*
X-11931D02*
D03*
X-2556Y-1386D02*
D03*
X-5556D02*
D03*
X-28328Y1363D02*
D03*
X-31328D02*
D03*
X-24953Y-1406D02*
D03*
X-21953D02*
D03*
D58*
X228Y-36290D02*
D03*
Y-37980D02*
D03*
X12922Y-36290D02*
D03*
Y-37980D02*
D03*
X-11859Y6010D02*
D03*
Y4320D02*
D03*
X-31256Y4320D02*
D03*
Y6010D02*
D03*
X7679Y6005D02*
D03*
Y4315D02*
D03*
X27171Y6006D02*
D03*
Y4316D02*
D03*
D59*
X32419Y12693D02*
D03*
X34109D02*
D03*
X12877Y12692D02*
D03*
X14567D02*
D03*
X-6783D02*
D03*
X-5093D02*
D03*
X-24327D02*
D03*
X-26017D02*
D03*
D60*
X-7953Y-29286D02*
D03*
X-5938D02*
D03*
X11560Y-29319D02*
D03*
X9545D02*
D03*
X4268Y-38700D02*
D03*
X2253D02*
D03*
Y-36430D02*
D03*
X4268D02*
D03*
X10899Y-38675D02*
D03*
X8884D02*
D03*
Y-36405D02*
D03*
X10899D02*
D03*
D61*
X1801Y-33151D02*
D03*
Y-31136D02*
D03*
X36396Y12461D02*
D03*
Y14476D02*
D03*
Y4273D02*
D03*
Y6288D02*
D03*
X36423Y24378D02*
D03*
Y22363D02*
D03*
X36396Y8509D02*
D03*
Y10524D02*
D03*
X16904Y14475D02*
D03*
Y12460D02*
D03*
Y6288D02*
D03*
Y4273D02*
D03*
X16931Y22362D02*
D03*
Y24377D02*
D03*
X16904Y10523D02*
D03*
Y8508D02*
D03*
X-2634Y6288D02*
D03*
Y4273D02*
D03*
X-2607Y22367D02*
D03*
Y24382D02*
D03*
X-2634Y10528D02*
D03*
Y8513D02*
D03*
X-22006Y12465D02*
D03*
Y14480D02*
D03*
X-22031Y4278D02*
D03*
Y6293D02*
D03*
X-22004Y24382D02*
D03*
Y22367D02*
D03*
X-22006Y8513D02*
D03*
Y10528D02*
D03*
X-6776Y-36247D02*
D03*
Y-38262D02*
D03*
X-2634Y12460D02*
D03*
Y14475D02*
D03*
X4060Y-31136D02*
D03*
Y-33151D02*
D03*
X13693D02*
D03*
Y-31136D02*
D03*
X15964D02*
D03*
Y-33151D02*
D03*
D62*
X-10477Y-37398D02*
D03*
X-17127D02*
D03*
X27610Y10861D02*
D03*
X20960D02*
D03*
X-18070Y10865D02*
D03*
X-11420D02*
D03*
X-30817Y10865D02*
D03*
X-37467D02*
D03*
X1468Y10860D02*
D03*
X8118D02*
D03*
X-10477Y-31204D02*
D03*
X-17127D02*
D03*
D63*
X-4079Y-29286D02*
D03*
X-2479D02*
D03*
X7749Y-29319D02*
D03*
X6149D02*
D03*
D64*
X-2584Y-35815D02*
D03*
Y-39575D02*
D03*
X15721Y-35449D02*
D03*
Y-39209D02*
D03*
D65*
X8861Y-40789D02*
D03*
X10921D02*
D03*
X2231Y-40789D02*
D03*
X4291D02*
D03*
D66*
X15783Y-41097D02*
Y-39271D01*
X15721Y-39209D02*
X15783Y-39271D01*
Y-41097D02*
X18198Y-43512D01*
Y-45000D02*
Y-43512D01*
X20482Y-41227D02*
Y-36291D01*
X18198Y-43512D02*
X20482Y-41227D01*
D67*
X25398Y-45000D02*
D03*
X18198D02*
D03*
X34262Y-8150D02*
D03*
Y-15350D02*
D03*
X35000Y45000D02*
D03*
X-18295Y-45000D02*
D03*
X-25495D02*
D03*
X-34300Y-15600D02*
D03*
Y-8400D02*
D03*
X35000Y-45000D02*
D03*
X-35000D02*
D03*
Y45000D02*
D03*
D68*
X36229Y-30475D02*
D03*
X-36050Y-32475D02*
D03*
X36229Y-36953D02*
D03*
X-36050Y-38953D02*
D03*
D69*
X-1800Y-24200D02*
D03*
X-9400D02*
D03*
X11362Y-24200D02*
D03*
X3762D02*
D03*
D70*
X-36400D02*
D03*
X-28800D02*
D03*
X28762Y-24200D02*
D03*
X36362D02*
D03*
D71*
X-26363Y45248D02*
D03*
X-21363D02*
D03*
X-23863D02*
D03*
X-18863D02*
D03*
X26317D02*
D03*
X21317D02*
D03*
X23817D02*
D03*
X18817D02*
D03*
X11357D02*
D03*
X6357D02*
D03*
X8857D02*
D03*
X3857D02*
D03*
X-11303D02*
D03*
X-6303D02*
D03*
X-8803D02*
D03*
X-3803D02*
D03*
D72*
X4261Y-46100D02*
D03*
X10891D02*
D03*
X-9000D02*
D03*
X-2370D02*
D03*
D73*
X-19000Y-8300D02*
D03*
X19000D02*
D03*
D74*
X-14686Y-13797D02*
D03*
X-20799Y7690D02*
D03*
X-22481Y-7063D02*
D03*
X-20207Y-11505D02*
D03*
X-20683Y-28763D02*
D03*
X-14630Y-17525D02*
D03*
X-15580D02*
D03*
X-13586Y-15897D02*
D03*
X-16780Y-17525D02*
D03*
X-19958Y-27970D02*
D03*
X-18050Y-11505D02*
D03*
X-28901Y-5016D02*
D03*
X-4385D02*
D03*
X-6293Y-7267D02*
D03*
X11942Y-7167D02*
D03*
Y-8167D02*
D03*
X1704Y-7452D02*
D03*
X-14686Y-15897D02*
D03*
Y-14797D02*
D03*
X-2640Y-27748D02*
D03*
X-420Y-34113D02*
D03*
X12922Y-39393D02*
D03*
X7470Y-36405D02*
D03*
X5682Y-36430D02*
D03*
X-2584Y-41432D02*
D03*
X228Y-39393D02*
D03*
X-6776Y-42815D02*
D03*
X-9104Y-7699D02*
D03*
X-8152D02*
D03*
X4913Y-29319D02*
D03*
X-3532Y-33277D02*
D03*
X15919Y-13841D02*
D03*
X493Y-8254D02*
D03*
X-4327Y3790D02*
D03*
X14051Y2918D02*
D03*
X6360Y-1275D02*
D03*
X15819Y-15941D02*
D03*
X-24270Y3056D02*
D03*
X15819Y-14941D02*
D03*
X36229Y-34700D02*
D03*
X5020Y-1250D02*
D03*
X-817D02*
D03*
X-16030Y768D02*
D03*
X-13193Y-1100D02*
D03*
X-19509D02*
D03*
X33178Y3132D02*
D03*
X-5847Y3130D02*
D03*
X12113Y-34362D02*
D03*
X11147Y-34088D02*
D03*
D75*
X27325Y-15263D02*
D03*
Y-13963D02*
D03*
Y-12663D02*
D03*
Y-16563D02*
D03*
Y-17863D02*
D03*
Y-11363D02*
D03*
Y-19163D02*
D03*
X-25984D02*
D03*
Y-11363D02*
D03*
Y-17863D02*
D03*
Y-16563D02*
D03*
Y-12663D02*
D03*
Y-13963D02*
D03*
Y-15263D02*
D03*
D76*
X-26630Y-10713D02*
D03*
X26670Y-14613D02*
D03*
X27970Y-12013D02*
D03*
X26670Y-15913D02*
D03*
X27970Y-18513D02*
D03*
X26670D02*
D03*
Y-19813D02*
D03*
Y-13313D02*
D03*
X27970D02*
D03*
X26670Y-12013D02*
D03*
Y-17213D02*
D03*
X27970Y-10713D02*
D03*
Y-17213D02*
D03*
Y-19813D02*
D03*
Y-14613D02*
D03*
Y-15913D02*
D03*
X-25330Y-12013D02*
D03*
Y-13313D02*
D03*
Y-14613D02*
D03*
Y-15913D02*
D03*
Y-17213D02*
D03*
Y-18513D02*
D03*
X-26630Y-12013D02*
D03*
Y-13313D02*
D03*
Y-14613D02*
D03*
Y-15913D02*
D03*
Y-17213D02*
D03*
Y-18513D02*
D03*
M02*
