G04*
G04 #@! TF.GenerationSoftware,Altium Limited,Altium Designer,22.10.1 (41)*
G04*
G04 Layer_Color=128*
%FSLAX43Y43*%
%MOMM*%
G71*
G04*
G04 #@! TF.SameCoordinates,8BFF45E1-3A9E-4B14-93B6-BC7C2D9919BF*
G04*
G04*
G04 #@! TF.FilePolarity,Positive*
G04*
G01*
G75*
%ADD95C,0.051*%
D95*
X15948Y-45000D02*
X20448D01*
X18198Y-47250D02*
Y-42750D01*
X23148Y-45000D02*
X27648D01*
X25398Y-47250D02*
Y-42750D01*
X32012Y-15350D02*
X36512D01*
X34262Y-17600D02*
Y-13100D01*
X32012Y-8150D02*
X36512D01*
X34262Y-10400D02*
Y-5900D01*
X-26963Y45248D02*
X-25763D01*
X-26363Y44648D02*
Y45848D01*
X-21963Y45248D02*
X-20763D01*
X-21363Y44648D02*
Y45848D01*
X-24463Y45248D02*
X-23263D01*
X-23863Y44648D02*
Y45848D01*
X-19463Y45248D02*
X-18263D01*
X-18863Y44648D02*
Y45848D01*
X-4720Y-46100D02*
X-4020D01*
X-4370Y-46450D02*
Y-45750D01*
X-2720Y-46100D02*
X-2020D01*
X-2370Y-46450D02*
Y-45750D01*
X2862Y-24200D02*
X4662D01*
X3762Y-25100D02*
Y-23300D01*
X35362Y-24200D02*
X37362D01*
X36362Y-25200D02*
Y-23200D01*
X10462Y-24200D02*
X12262D01*
X11362Y-25100D02*
Y-23300D01*
X27762Y-24200D02*
X29762D01*
X28762Y-25200D02*
Y-23200D01*
X-2700Y-24200D02*
X-900D01*
X-1800Y-25100D02*
Y-23300D01*
X-37400Y-24200D02*
X-35400D01*
X-36400Y-25200D02*
Y-23200D01*
X-10300Y-24200D02*
X-8500D01*
X-9400Y-25100D02*
Y-23300D01*
X-29800Y-24200D02*
X-27800D01*
X-28800Y-25200D02*
Y-23200D01*
X35879Y-32475D02*
X36579D01*
X36229Y-32825D02*
Y-32125D01*
X35879Y-30475D02*
X36579D01*
X36229Y-30825D02*
Y-30125D01*
X-36400Y-32475D02*
X-35700D01*
X-36050Y-32825D02*
Y-32125D01*
X-36400Y-30475D02*
X-35700D01*
X-36050Y-30825D02*
Y-30125D01*
X-11903Y45248D02*
X-10703D01*
X-11303Y44648D02*
Y45848D01*
X-6903Y45248D02*
X-5703D01*
X-6303Y44648D02*
Y45848D01*
X-9403Y45248D02*
X-8203D01*
X-8803Y44648D02*
Y45848D01*
X-4403Y45248D02*
X-3203D01*
X-3803Y44648D02*
Y45848D01*
X35879Y-38953D02*
X36579D01*
X36229Y-39303D02*
Y-38603D01*
X35879Y-36953D02*
X36579D01*
X36229Y-37303D02*
Y-36603D01*
X10757Y45248D02*
X11957D01*
X11357Y44648D02*
Y45848D01*
X5757Y45248D02*
X6957D01*
X6357Y44648D02*
Y45848D01*
X8257Y45248D02*
X9457D01*
X8857Y44648D02*
Y45848D01*
X3257Y45248D02*
X4457D01*
X3857Y44648D02*
Y45848D01*
X25717Y45248D02*
X26917D01*
X26317Y44648D02*
Y45848D01*
X20717Y45248D02*
X21917D01*
X21317Y44648D02*
Y45848D01*
X23217Y45248D02*
X24417D01*
X23817Y44648D02*
Y45848D01*
X18217Y45248D02*
X19417D01*
X18817Y44648D02*
Y45848D01*
X-20545Y-45000D02*
X-16045D01*
X-18295Y-47250D02*
Y-42750D01*
X-27745Y-45000D02*
X-23245D01*
X-25495Y-47250D02*
Y-42750D01*
X-36400Y-38953D02*
X-35700D01*
X-36050Y-39303D02*
Y-38603D01*
X-36400Y-36953D02*
X-35700D01*
X-36050Y-37303D02*
Y-36603D01*
X-9350Y-46100D02*
X-8650D01*
X-9000Y-46450D02*
Y-45750D01*
X-11350Y-46100D02*
X-10650D01*
X-11000Y-46450D02*
Y-45750D01*
X3911Y-46100D02*
X4611D01*
X4261Y-46450D02*
Y-45750D01*
X1911Y-46100D02*
X2611D01*
X2261Y-46450D02*
Y-45750D01*
X10541Y-46100D02*
X11241D01*
X10891Y-46450D02*
Y-45750D01*
X8541Y-46100D02*
X9241D01*
X8891Y-46450D02*
Y-45750D01*
X-36550Y-15600D02*
X-32050D01*
X-34300Y-17850D02*
Y-13350D01*
X-36550Y-8400D02*
X-32050D01*
X-34300Y-10650D02*
Y-6150D01*
X-36750Y-45000D02*
X-33250D01*
X-35000Y-46750D02*
Y-43250D01*
X-36750Y45000D02*
X-33250D01*
X-35000Y43250D02*
Y46750D01*
X33250Y-45000D02*
X36750D01*
X35000Y-46750D02*
Y-43250D01*
X33250Y45000D02*
X36750D01*
X35000Y43250D02*
Y46750D01*
X31015Y3142D02*
X31315D01*
X31165Y2992D02*
Y3292D01*
X11521Y3112D02*
X11821D01*
X11671Y2962D02*
Y3262D01*
X-8010Y3140D02*
X-7710D01*
X-7860Y2990D02*
Y3290D01*
X-27416Y3121D02*
X-27116D01*
X-27266Y2971D02*
Y3271D01*
X33028Y3132D02*
X33328D01*
X33178Y2982D02*
Y3282D01*
X13534Y3102D02*
X13834D01*
X13684Y2952D02*
Y3252D01*
X-5997Y3130D02*
X-5697D01*
X-5847Y2980D02*
Y3280D01*
X-25403Y3111D02*
X-25103D01*
X-25253Y2961D02*
Y3261D01*
X17522Y-13827D02*
X17822D01*
X17672Y-13977D02*
Y-13677D01*
X12643Y-19430D02*
X12943D01*
X12793Y-19580D02*
Y-19280D01*
X13002Y-16282D02*
X13302D01*
X13152Y-16432D02*
Y-16132D01*
X13033Y-18392D02*
X13333D01*
X13183Y-18542D02*
Y-18242D01*
X13075Y-17493D02*
X13375D01*
X13225Y-17643D02*
Y-17343D01*
X12125Y-15590D02*
X12425D01*
X12275Y-15740D02*
Y-15440D01*
X-11350Y-16785D02*
X-11050D01*
X-11200Y-16935D02*
Y-16635D01*
X-11129Y-15912D02*
X-10829D01*
X-10979Y-16062D02*
Y-15762D01*
X-11155Y-18280D02*
X-10855D01*
X-11005Y-18430D02*
Y-18130D01*
X-11384Y-9625D02*
X-10884D01*
X-11134Y-9875D02*
Y-9375D01*
X-11384Y-10973D02*
X-10884D01*
X-11134Y-11223D02*
Y-10723D01*
X-12732Y-9625D02*
X-12232D01*
X-12482Y-9875D02*
Y-9375D01*
X-12732Y-10973D02*
X-12232D01*
X-12482Y-11223D02*
Y-10723D01*
X-16776Y-10973D02*
X-16276D01*
X-16526Y-11223D02*
Y-10723D01*
X-15428Y-10973D02*
X-14928D01*
X-15178Y-11223D02*
Y-10723D01*
X-14080Y-10973D02*
X-13580D01*
X-13830Y-11223D02*
Y-10723D01*
X-15428Y-9625D02*
X-14928D01*
X-15178Y-9875D02*
Y-9375D01*
X-14080Y-9625D02*
X-13580D01*
X-13830Y-9875D02*
Y-9375D01*
X-16776Y-9625D02*
X-16276D01*
X-16526Y-9875D02*
Y-9375D01*
X-8801Y-10239D02*
X-8501D01*
X-8651Y-10389D02*
Y-10089D01*
X-8828Y-12301D02*
X-8528D01*
X-8678Y-12451D02*
Y-12151D01*
X-5445Y-14235D02*
X-4945D01*
X-5195Y-14485D02*
Y-13985D01*
X-5072Y-9700D02*
X-4772D01*
X-4922Y-9850D02*
Y-9550D01*
X-5442Y-15481D02*
X-4942D01*
X-5192Y-15731D02*
Y-15231D01*
X-230Y-12657D02*
X270D01*
X20Y-12907D02*
Y-12407D01*
X-198Y-13891D02*
X302D01*
X52Y-14141D02*
Y-13641D01*
X12018Y-9564D02*
X12518D01*
X12268Y-9814D02*
Y-9314D01*
X17770Y-9477D02*
X18270D01*
X18020Y-9727D02*
Y-9227D01*
X18893Y-9477D02*
X19393D01*
X19143Y-9727D02*
Y-9227D01*
X20016Y-9477D02*
X20516D01*
X20266Y-9727D02*
Y-9227D01*
X21138Y-9477D02*
X21638D01*
X21388Y-9727D02*
Y-9227D01*
X13120Y-12997D02*
X13420D01*
X13270Y-13147D02*
Y-12847D01*
X11530Y-12054D02*
X11830D01*
X11680Y-12204D02*
Y-11904D01*
X21222Y-24047D02*
X21722D01*
X21472Y-24297D02*
Y-23797D01*
X20499Y-23003D02*
X20999D01*
X20749Y-23253D02*
Y-22753D01*
X21222Y-22029D02*
X21722D01*
X21472Y-22279D02*
Y-21779D01*
X19808Y-22036D02*
X20308D01*
X20058Y-22286D02*
Y-21786D01*
X-4438Y-16344D02*
X-3938D01*
X-4188Y-16594D02*
Y-16094D01*
X1890Y-14650D02*
X2390D01*
X2140Y-14900D02*
Y-14400D01*
X1890Y-15854D02*
X2390D01*
X2140Y-16104D02*
Y-15604D01*
X1990Y-17001D02*
X2490D01*
X2240Y-17251D02*
Y-16751D01*
X-2486Y-29781D02*
X-1986D01*
X-2236Y-30031D02*
Y-29531D01*
X-3852Y-29781D02*
X-3352D01*
X-3602Y-30031D02*
Y-29531D01*
X-2253Y-42251D02*
X-1753D01*
X-2003Y-42501D02*
Y-42001D01*
X478Y-39521D02*
X978D01*
X728Y-39771D02*
Y-39271D01*
X-888Y-39521D02*
X-388D01*
X-638Y-39771D02*
Y-39271D01*
X478Y-40886D02*
X978D01*
X728Y-41136D02*
Y-40636D01*
X-888Y-40886D02*
X-388D01*
X-638Y-41136D02*
Y-40636D01*
X-888Y-43617D02*
X-388D01*
X-638Y-43867D02*
Y-43367D01*
X-888Y-42251D02*
X-388D01*
X-638Y-42501D02*
Y-42001D01*
X478Y-42251D02*
X978D01*
X728Y-42501D02*
Y-42001D01*
X478Y-43617D02*
X978D01*
X728Y-43867D02*
Y-43367D01*
X-7897Y-40474D02*
X-7397D01*
X-7647Y-40724D02*
Y-40224D01*
X-9262Y-41839D02*
X-8762D01*
X-9012Y-42089D02*
Y-41589D01*
X-7897Y-41839D02*
X-7397D01*
X-7647Y-42089D02*
Y-41589D01*
X-7897Y-44570D02*
X-7397D01*
X-7647Y-44820D02*
Y-44320D01*
X-7897Y-43204D02*
X-7397D01*
X-7647Y-43454D02*
Y-42954D01*
X-10628Y-44570D02*
X-10128D01*
X-10378Y-44820D02*
Y-44320D01*
X-10628Y-43204D02*
X-10128D01*
X-10378Y-43454D02*
Y-42954D01*
X-9262Y-43204D02*
X-8762D01*
X-9012Y-43454D02*
Y-42954D01*
X-9262Y-44570D02*
X-8762D01*
X-9012Y-44820D02*
Y-44320D01*
X17637Y-40974D02*
X18137D01*
X17887Y-41224D02*
Y-40724D01*
X17637Y-39608D02*
X18137D01*
X17887Y-39858D02*
Y-39358D01*
X17637Y-38243D02*
X18137D01*
X17887Y-38493D02*
Y-37993D01*
X8305Y-42651D02*
X8805D01*
X8555Y-42901D02*
Y-42401D01*
X8305Y-34459D02*
X8805D01*
X8555Y-34709D02*
Y-34209D01*
X-1252Y-34459D02*
X-752D01*
X-1002Y-34709D02*
Y-34209D01*
X113Y-34459D02*
X613D01*
X363Y-34709D02*
Y-34209D01*
X1479Y-34459D02*
X1979D01*
X1729Y-34709D02*
Y-34209D01*
X2844Y-34459D02*
X3344D01*
X3094Y-34709D02*
Y-34209D01*
X4209Y-34459D02*
X4709D01*
X4459Y-34709D02*
Y-34209D01*
X6940Y-34459D02*
X7440D01*
X7190Y-34709D02*
Y-34209D01*
X5575Y-34459D02*
X6075D01*
X5825Y-34709D02*
Y-34209D01*
X6940Y-35825D02*
X7440D01*
X7190Y-36075D02*
Y-35575D01*
X5575Y-35825D02*
X6075D01*
X5825Y-36075D02*
Y-35575D01*
X6940Y-37190D02*
X7440D01*
X7190Y-37440D02*
Y-36940D01*
X5575Y-37190D02*
X6075D01*
X5825Y-37440D02*
Y-36940D01*
X3244Y-44017D02*
X3744D01*
X3494Y-44267D02*
Y-43767D01*
X3244Y-42651D02*
X3744D01*
X3494Y-42901D02*
Y-42401D01*
X4409Y-42651D02*
X4909D01*
X4659Y-42901D02*
Y-42401D01*
X4409Y-44017D02*
X4909D01*
X4659Y-44267D02*
Y-43767D01*
X5575Y-44017D02*
X6075D01*
X5825Y-44267D02*
Y-43767D01*
X5575Y-42651D02*
X6075D01*
X5825Y-42901D02*
Y-42401D01*
X5575Y-41286D02*
X6075D01*
X5825Y-41536D02*
Y-41036D01*
X5575Y-39921D02*
X6075D01*
X5825Y-40171D02*
Y-39671D01*
X5575Y-38555D02*
X6075D01*
X5825Y-38805D02*
Y-38305D01*
X6940Y-41286D02*
X7440D01*
X7190Y-41536D02*
Y-41036D01*
X6940Y-39921D02*
X7440D01*
X7190Y-40171D02*
Y-39671D01*
X6940Y-38555D02*
X7440D01*
X7190Y-38805D02*
Y-38305D01*
X6940Y-42651D02*
X7440D01*
X7190Y-42901D02*
Y-42401D01*
X6940Y-44017D02*
X7440D01*
X7190Y-44267D02*
Y-43767D01*
X17637Y-37127D02*
X18137D01*
X17887Y-37377D02*
Y-36877D01*
X17637Y-35761D02*
X18137D01*
X17887Y-36011D02*
Y-35511D01*
X17637Y-34396D02*
X18137D01*
X17887Y-34646D02*
Y-34146D01*
X20368Y-34296D02*
X20868D01*
X20618Y-34546D02*
Y-34046D01*
X19003Y-34296D02*
X19503D01*
X19253Y-34546D02*
Y-34046D01*
X19003Y-32931D02*
X19503D01*
X19253Y-33181D02*
Y-32681D01*
X20368Y-32931D02*
X20868D01*
X20618Y-33181D02*
Y-32681D01*
X20368Y-38243D02*
X20868D01*
X20618Y-38493D02*
Y-37993D01*
X19003Y-38243D02*
X19503D01*
X19253Y-38493D02*
Y-37993D01*
X19003Y-39608D02*
X19503D01*
X19253Y-39858D02*
Y-39358D01*
X20368Y-39608D02*
X20868D01*
X20618Y-39858D02*
Y-39358D01*
X20368Y-40974D02*
X20868D01*
X20618Y-41224D02*
Y-40724D01*
X19003Y-40974D02*
X19503D01*
X19253Y-41224D02*
Y-40724D01*
X16737Y-40974D02*
X17237D01*
X16987Y-41224D02*
Y-40724D01*
X15372Y-40974D02*
X15872D01*
X15622Y-41224D02*
Y-40724D01*
X14007Y-46435D02*
X14507D01*
X14257Y-46685D02*
Y-46185D01*
X14007Y-45070D02*
X14507D01*
X14257Y-45320D02*
Y-44820D01*
X12641Y-39608D02*
X13141D01*
X12891Y-39858D02*
Y-39358D01*
X14007Y-40974D02*
X14507D01*
X14257Y-41224D02*
Y-40724D01*
X14007Y-42339D02*
X14507D01*
X14257Y-42589D02*
Y-42089D01*
X14007Y-43704D02*
X14507D01*
X14257Y-43954D02*
Y-43454D01*
X11276Y-43704D02*
X11776D01*
X11526Y-43954D02*
Y-43454D01*
X12641Y-40974D02*
X13141D01*
X12891Y-41224D02*
Y-40724D01*
X12641Y-42339D02*
X13141D01*
X12891Y-42589D02*
Y-42089D01*
X12641Y-43704D02*
X13141D01*
X12891Y-43954D02*
Y-43454D01*
X12641Y-45070D02*
X13141D01*
X12891Y-45320D02*
Y-44820D01*
X12641Y-46435D02*
X13141D01*
X12891Y-46685D02*
Y-46185D01*
X-16760Y-34471D02*
X-16260D01*
X-16510Y-34721D02*
Y-34221D01*
X-18108Y-34471D02*
X-17608D01*
X-17858Y-34721D02*
Y-34221D01*
X-15412Y-37167D02*
X-14912D01*
X-15162Y-37417D02*
Y-36917D01*
X-15412Y-35819D02*
X-14912D01*
X-15162Y-36069D02*
Y-35569D01*
X-19456Y-37167D02*
X-18956D01*
X-19206Y-37417D02*
Y-36917D01*
X-19456Y-35819D02*
X-18956D01*
X-19206Y-36069D02*
Y-35569D01*
X-15412Y-34471D02*
X-14912D01*
X-15162Y-34721D02*
Y-34221D01*
X-19456Y-34471D02*
X-18956D01*
X-19206Y-34721D02*
Y-34221D01*
X-19456Y-33123D02*
X-18956D01*
X-19206Y-33373D02*
Y-32873D01*
X-15412Y-33123D02*
X-14912D01*
X-15162Y-33373D02*
Y-32873D01*
X-15412Y-31775D02*
X-14912D01*
X-15162Y-32025D02*
Y-31525D01*
X-19456Y-31775D02*
X-18956D01*
X-19206Y-32025D02*
Y-31525D01*
X-15412Y-30427D02*
X-14912D01*
X-15162Y-30677D02*
Y-30177D01*
X-19456Y-30427D02*
X-18956D01*
X-19206Y-30677D02*
Y-30177D01*
X-15412Y-29079D02*
X-14912D01*
X-15162Y-29329D02*
Y-28829D01*
X-19456Y-29079D02*
X-18956D01*
X-19206Y-29329D02*
Y-28829D01*
X-15412Y-27730D02*
X-14912D01*
X-15162Y-27980D02*
Y-27480D01*
X-16760Y-27730D02*
X-16260D01*
X-16510Y-27980D02*
Y-27480D01*
X-18108Y-27730D02*
X-17608D01*
X-17858Y-27980D02*
Y-27480D01*
X-19456Y-27730D02*
X-18956D01*
X-19206Y-27980D02*
Y-27480D01*
X-15412Y-26382D02*
X-14912D01*
X-15162Y-26632D02*
Y-26132D01*
X-16760Y-26382D02*
X-16260D01*
X-16510Y-26632D02*
Y-26132D01*
X-18108Y-26382D02*
X-17608D01*
X-17858Y-26632D02*
Y-26132D01*
X-19456Y-26382D02*
X-18956D01*
X-19206Y-26632D02*
Y-26132D01*
X-18108Y-22338D02*
X-17608D01*
X-17858Y-22588D02*
Y-22088D01*
X-15412Y-22338D02*
X-14912D01*
X-15162Y-22588D02*
Y-22088D01*
X-16760Y-22338D02*
X-16260D01*
X-16510Y-22588D02*
Y-22088D01*
X-15412Y-25034D02*
X-14912D01*
X-15162Y-25284D02*
Y-24784D01*
X-16760Y-25034D02*
X-16260D01*
X-16510Y-25284D02*
Y-24784D01*
X-18108Y-25034D02*
X-17608D01*
X-17858Y-25284D02*
Y-24784D01*
X-19456Y-25034D02*
X-18956D01*
X-19206Y-25284D02*
Y-24784D01*
X-15412Y-23686D02*
X-14912D01*
X-15162Y-23936D02*
Y-23436D01*
X-16760Y-23686D02*
X-16260D01*
X-16510Y-23936D02*
Y-23436D01*
X-18108Y-23686D02*
X-17608D01*
X-17858Y-23936D02*
Y-23436D01*
X-19456Y-23686D02*
X-18956D01*
X-19206Y-23936D02*
Y-23436D01*
X4041Y-49114D02*
X4541D01*
X4291Y-49364D02*
Y-48864D01*
X-23226Y-49121D02*
X-22926D01*
X-23076Y-49271D02*
Y-48971D01*
X-23716Y-9445D02*
X-23216D01*
X-23466Y-9695D02*
Y-9195D01*
X-22416Y-9445D02*
X-21916D01*
X-22166Y-9695D02*
Y-9195D01*
X30711Y12699D02*
X31211D01*
X30961Y12449D02*
Y12949D01*
X11219Y12699D02*
X11719D01*
X11469Y12449D02*
Y12949D01*
X-8275Y12704D02*
X-7775D01*
X-8025Y12454D02*
Y12954D01*
X-27716Y12704D02*
X-27216D01*
X-27466Y12454D02*
Y12954D01*
X18837Y-23135D02*
X19137D01*
X18987Y-23285D02*
Y-22985D01*
X11863Y-34162D02*
X12163D01*
X12013Y-34312D02*
Y-34012D01*
X10997Y-34088D02*
X11297D01*
X11147Y-34238D02*
Y-33938D01*
X36079Y-35364D02*
X36379D01*
X36229Y-35514D02*
Y-35214D01*
X2501Y-27929D02*
X2801D01*
X2651Y-28079D02*
Y-27779D01*
X-23848Y-21146D02*
X-23548D01*
X-23698Y-21296D02*
Y-20996D01*
X-20917Y-22066D02*
X-20617D01*
X-20767Y-22216D02*
Y-21916D01*
X-12433Y-46985D02*
X-12133D01*
X-12283Y-47135D02*
Y-46835D01*
X-35400Y-35400D02*
X-35100D01*
X-35250Y-35550D02*
Y-35250D01*
X10117Y-30558D02*
X10417D01*
X10267Y-30708D02*
Y-30408D01*
X8440Y-30199D02*
X8740D01*
X8590Y-30349D02*
Y-30049D01*
X318Y-28681D02*
X618D01*
X468Y-28831D02*
Y-28531D01*
X-4438Y-14808D02*
X-3938D01*
X-4188Y-15058D02*
Y-14558D01*
X-603Y-20152D02*
X-303D01*
X-453Y-20302D02*
Y-20002D01*
X7672Y-27800D02*
X7972D01*
X7822Y-27950D02*
Y-27650D01*
X-5233Y-22824D02*
X-4933D01*
X-5083Y-22974D02*
Y-22674D01*
X-7085Y-20173D02*
X-6785D01*
X-6935Y-20323D02*
Y-20023D01*
X778Y-29928D02*
X1078D01*
X928Y-30078D02*
Y-29778D01*
X58Y-27400D02*
X358D01*
X208Y-27550D02*
Y-27250D01*
X-6248Y-22824D02*
X-5948D01*
X-6098Y-22974D02*
Y-22674D01*
X-8300Y-20173D02*
X-8000D01*
X-8150Y-20323D02*
Y-20023D01*
X19335Y-11435D02*
X19835D01*
X19585Y-11685D02*
Y-11185D01*
X7211Y-30253D02*
X7511D01*
X7361Y-30403D02*
Y-30103D01*
X22261Y-9477D02*
X22761D01*
X22511Y-9727D02*
Y-9227D01*
X23384Y-9477D02*
X23884D01*
X23634Y-9727D02*
Y-9227D01*
X24507Y-9477D02*
X25007D01*
X24757Y-9727D02*
Y-9227D01*
X25629Y-9477D02*
X26129D01*
X25879Y-9727D02*
Y-9227D01*
X26752Y-9477D02*
X27252D01*
X27002Y-9727D02*
Y-9227D01*
X27875Y-9477D02*
X28375D01*
X28125Y-9727D02*
Y-9227D01*
X30220Y-10600D02*
X30720D01*
X30470Y-10850D02*
Y-10350D01*
X30220Y-7232D02*
X30720D01*
X30470Y-7482D02*
Y-6982D01*
X28997Y-8354D02*
X29497D01*
X29247Y-8604D02*
Y-8104D01*
X28997Y-9477D02*
X29497D01*
X29247Y-9727D02*
Y-9227D01*
X30220Y-9477D02*
X30720D01*
X30470Y-9727D02*
Y-9227D01*
X30220Y-8354D02*
X30720D01*
X30470Y-8604D02*
Y-8104D01*
X18502Y-12157D02*
X19002D01*
X18752Y-12407D02*
Y-11907D01*
X17625Y-11439D02*
X18125D01*
X17875Y-11689D02*
Y-11189D01*
X28501Y13336D02*
X29001D01*
X28751Y13086D02*
Y13586D01*
X9009Y13336D02*
X9509D01*
X9259Y13086D02*
Y13586D01*
X38316Y-9354D02*
X38816D01*
X38566Y-9604D02*
Y-9104D01*
X38316Y-5523D02*
X38816D01*
X38566Y-5773D02*
Y-5273D01*
X38316Y-7439D02*
X38816D01*
X38566Y-7689D02*
Y-7189D01*
X24950Y5991D02*
X25450D01*
X25200Y5741D02*
Y6241D01*
X24950Y4069D02*
X25450D01*
X25200Y3819D02*
Y4319D01*
X24950Y2146D02*
X25450D01*
X25200Y1896D02*
Y2396D01*
X24950Y223D02*
X25450D01*
X25200Y-27D02*
Y473D01*
X24950Y-1692D02*
X25450D01*
X25200Y-1942D02*
Y-1442D01*
X24950Y7914D02*
X25450D01*
X25200Y7664D02*
Y8164D01*
X26573Y7914D02*
X27073D01*
X26823Y7664D02*
Y8164D01*
X38316Y-3608D02*
X38816D01*
X38566Y-3858D02*
Y-3358D01*
X38316Y-1692D02*
X38816D01*
X38566Y-1942D02*
Y-1442D01*
X38316Y223D02*
X38816D01*
X38566Y-27D02*
Y473D01*
X38316Y2146D02*
X38816D01*
X38566Y1896D02*
Y2396D01*
X38316Y4069D02*
X38816D01*
X38566Y3819D02*
Y4319D01*
X38316Y5491D02*
X38816D01*
X38566Y5241D02*
Y5741D01*
X36263Y-3608D02*
X36763D01*
X36513Y-3858D02*
Y-3358D01*
X30518Y7914D02*
X31018D01*
X30768Y7664D02*
Y8164D01*
X34364Y7914D02*
X34864D01*
X34614Y7664D02*
Y8164D01*
X31490Y7010D02*
X31990D01*
X31740Y6760D02*
Y7260D01*
X23327Y7914D02*
X23827D01*
X23577Y7664D02*
Y8164D01*
X23327Y-1692D02*
X23827D01*
X23577Y-1942D02*
Y-1442D01*
X23327Y223D02*
X23827D01*
X23577Y-27D02*
Y473D01*
X23327Y2146D02*
X23827D01*
X23577Y1896D02*
Y2396D01*
X23327Y4069D02*
X23827D01*
X23577Y3819D02*
Y4319D01*
X23327Y5991D02*
X23827D01*
X23577Y5741D02*
Y6241D01*
X23327Y-3608D02*
X23827D01*
X23577Y-3858D02*
Y-3358D01*
X24950Y-3608D02*
X25450D01*
X25200Y-3858D02*
Y-3358D01*
X32405Y7892D02*
X32905D01*
X32655Y7642D02*
Y8142D01*
X34277Y21656D02*
X34777D01*
X34527Y21406D02*
Y21906D01*
X32592Y21656D02*
X33092D01*
X32842Y21406D02*
Y21906D01*
X30906Y21656D02*
X31406D01*
X31156Y21406D02*
Y21906D01*
X29221Y21656D02*
X29721D01*
X29471Y21406D02*
Y21906D01*
X27535Y21656D02*
X28035D01*
X27785Y21406D02*
Y21906D01*
X25850Y21656D02*
X26350D01*
X26100Y21406D02*
Y21906D01*
X24164Y21656D02*
X24664D01*
X24414Y21406D02*
Y21906D01*
X22479Y21656D02*
X22979D01*
X22729Y21406D02*
Y21906D01*
X20793Y21656D02*
X21293D01*
X21043Y21406D02*
Y21906D01*
X20793Y25427D02*
X21293D01*
X21043Y25177D02*
Y25677D01*
X20793Y14931D02*
X21293D01*
X21043Y14681D02*
Y15181D01*
X20793Y16707D02*
X21293D01*
X21043Y16457D02*
Y16957D01*
X20793Y18451D02*
X21293D01*
X21043Y18201D02*
Y18701D01*
X20793Y20095D02*
X21293D01*
X21043Y19845D02*
Y20345D01*
X20793Y23391D02*
X21293D01*
X21043Y23141D02*
Y23641D01*
X20793Y13319D02*
X21293D01*
X21043Y13069D02*
Y13569D01*
X19482Y34340D02*
X19982D01*
X19732Y34090D02*
Y34590D01*
X19482Y32417D02*
X19982D01*
X19732Y32167D02*
Y32667D01*
X19482Y30495D02*
X19982D01*
X19732Y30245D02*
Y30745D01*
X20793Y28915D02*
X21293D01*
X21043Y28665D02*
Y29165D01*
X20793Y27171D02*
X21293D01*
X21043Y26921D02*
Y27421D01*
X19482Y36263D02*
X19982D01*
X19732Y36013D02*
Y36513D01*
X22105Y13319D02*
X22605D01*
X22355Y13069D02*
Y13569D01*
X22479Y23391D02*
X22979D01*
X22729Y23141D02*
Y23641D01*
X22479Y20095D02*
X22979D01*
X22729Y19845D02*
Y20345D01*
X22105Y18451D02*
X22605D01*
X22355Y18201D02*
Y18701D01*
X22105Y16707D02*
X22605D01*
X22355Y16457D02*
Y16957D01*
X22105Y14931D02*
X22605D01*
X22355Y14681D02*
Y15181D01*
X22105Y25436D02*
X22605D01*
X22355Y25186D02*
Y25686D01*
X22105Y28927D02*
X22605D01*
X22355Y28677D02*
Y29177D01*
X22105Y27181D02*
X22605D01*
X22355Y26931D02*
Y27431D01*
X24164Y23391D02*
X24664D01*
X24414Y23141D02*
Y23641D01*
X25850Y23391D02*
X26350D01*
X26100Y23141D02*
Y23641D01*
X27535Y23391D02*
X28035D01*
X27785Y23141D02*
Y23641D01*
X24164Y20095D02*
X24664D01*
X24414Y19845D02*
Y20345D01*
X25850Y20095D02*
X26350D01*
X26100Y19845D02*
Y20345D01*
X27535Y20095D02*
X28035D01*
X27785Y19845D02*
Y20345D01*
X29221Y23391D02*
X29721D01*
X29471Y23141D02*
Y23641D01*
X30906Y23391D02*
X31406D01*
X31156Y23141D02*
Y23641D01*
X32592Y23391D02*
X33092D01*
X32842Y23141D02*
Y23641D01*
X29221Y20095D02*
X29721D01*
X29471Y19845D02*
Y20345D01*
X30906Y20095D02*
X31406D01*
X31156Y19845D02*
Y20345D01*
X32592Y20095D02*
X33092D01*
X32842Y19845D02*
Y20345D01*
X32691Y24741D02*
X33191D01*
X32941Y24491D02*
Y24991D01*
X32691Y26664D02*
X33191D01*
X32941Y26414D02*
Y26914D01*
X32691Y28586D02*
X33191D01*
X32941Y28336D02*
Y28836D01*
X32691Y18451D02*
X33191D01*
X32941Y18201D02*
Y18701D01*
X32691Y16707D02*
X33191D01*
X32941Y16457D02*
Y16957D01*
X32691Y14931D02*
X33191D01*
X32941Y14681D02*
Y15181D01*
X34277Y40083D02*
X34777D01*
X34527Y39833D02*
Y40333D01*
X34277Y38160D02*
X34777D01*
X34527Y37910D02*
Y38410D01*
X34277Y36238D02*
X34777D01*
X34527Y35988D02*
Y36488D01*
X34277Y30470D02*
X34777D01*
X34527Y30220D02*
Y30720D01*
X34277Y32392D02*
X34777D01*
X34527Y32142D02*
Y32642D01*
X34277Y34315D02*
X34777D01*
X34527Y34065D02*
Y34565D01*
X34277Y24702D02*
X34777D01*
X34527Y24452D02*
Y24952D01*
X34277Y23391D02*
X34777D01*
X34527Y23141D02*
Y23641D01*
X34277Y26624D02*
X34777D01*
X34527Y26374D02*
Y26874D01*
X34277Y28547D02*
X34777D01*
X34527Y28297D02*
Y28797D01*
X34277Y16707D02*
X34777D01*
X34527Y16457D02*
Y16957D01*
X34277Y14931D02*
X34777D01*
X34527Y14681D02*
Y15181D01*
X34277Y18451D02*
X34777D01*
X34527Y18201D02*
Y18701D01*
X34277Y20095D02*
X34777D01*
X34527Y19845D02*
Y20345D01*
X21705Y7914D02*
X22205D01*
X21955Y7664D02*
Y8164D01*
X-10529Y13336D02*
X-10029D01*
X-10279Y13086D02*
Y13586D01*
X-29926Y13336D02*
X-29426D01*
X-29676Y13086D02*
Y13586D01*
X-17325Y7913D02*
X-16825D01*
X-17075Y7663D02*
Y8163D01*
X2213Y7913D02*
X2713D01*
X2463Y7663D02*
Y8163D01*
X14786Y20094D02*
X15286D01*
X15036Y19844D02*
Y20344D01*
X14786Y18450D02*
X15286D01*
X15036Y18200D02*
Y18700D01*
X14786Y14930D02*
X15286D01*
X15036Y14680D02*
Y15180D01*
X14786Y16706D02*
X15286D01*
X15036Y16456D02*
Y16956D01*
X14786Y28546D02*
X15286D01*
X15036Y28296D02*
Y28796D01*
X14786Y26623D02*
X15286D01*
X15036Y26373D02*
Y26873D01*
X14786Y23390D02*
X15286D01*
X15036Y23140D02*
Y23640D01*
X14786Y24701D02*
X15286D01*
X15036Y24451D02*
Y24951D01*
X14786Y34314D02*
X15286D01*
X15036Y34064D02*
Y34564D01*
X14786Y32392D02*
X15286D01*
X15036Y32142D02*
Y32642D01*
X14786Y30469D02*
X15286D01*
X15036Y30219D02*
Y30719D01*
X14786Y36237D02*
X15286D01*
X15036Y35987D02*
Y36487D01*
X14786Y38160D02*
X15286D01*
X15036Y37910D02*
Y38410D01*
X14786Y40082D02*
X15286D01*
X15036Y39832D02*
Y40332D01*
X13199Y14930D02*
X13699D01*
X13449Y14680D02*
Y15180D01*
X13199Y16706D02*
X13699D01*
X13449Y16456D02*
Y16956D01*
X13199Y18450D02*
X13699D01*
X13449Y18200D02*
Y18700D01*
X13199Y28586D02*
X13699D01*
X13449Y28336D02*
Y28836D01*
X13199Y26663D02*
X13699D01*
X13449Y26413D02*
Y26913D01*
X13199Y24740D02*
X13699D01*
X13449Y24490D02*
Y24990D01*
X13100Y20094D02*
X13600D01*
X13350Y19844D02*
Y20344D01*
X11415Y20094D02*
X11915D01*
X11665Y19844D02*
Y20344D01*
X9729Y20094D02*
X10229D01*
X9979Y19844D02*
Y20344D01*
X13100Y23390D02*
X13600D01*
X13350Y23140D02*
Y23640D01*
X11415Y23390D02*
X11915D01*
X11665Y23140D02*
Y23640D01*
X9729Y23390D02*
X10229D01*
X9979Y23140D02*
Y23640D01*
X8044Y20094D02*
X8544D01*
X8294Y19844D02*
Y20344D01*
X6358Y20094D02*
X6858D01*
X6608Y19844D02*
Y20344D01*
X4673Y20094D02*
X5173D01*
X4923Y19844D02*
Y20344D01*
X8044Y23390D02*
X8544D01*
X8294Y23140D02*
Y23640D01*
X6358Y23390D02*
X6858D01*
X6608Y23140D02*
Y23640D01*
X4673Y23390D02*
X5173D01*
X4923Y23140D02*
Y23640D01*
X2613Y27181D02*
X3113D01*
X2863Y26931D02*
Y27431D01*
X2613Y28926D02*
X3113D01*
X2863Y28676D02*
Y29176D01*
X2613Y25435D02*
X3113D01*
X2863Y25185D02*
Y25685D01*
X2613Y14930D02*
X3113D01*
X2863Y14680D02*
Y15180D01*
X2613Y16706D02*
X3113D01*
X2863Y16456D02*
Y16956D01*
X2613Y18450D02*
X3113D01*
X2863Y18200D02*
Y18700D01*
X2987Y20094D02*
X3487D01*
X3237Y19844D02*
Y20344D01*
X2987Y23390D02*
X3487D01*
X3237Y23140D02*
Y23640D01*
X2613Y13318D02*
X3113D01*
X2863Y13068D02*
Y13568D01*
X-10Y38185D02*
X490D01*
X240Y37935D02*
Y38435D01*
X-10Y36262D02*
X490D01*
X240Y36012D02*
Y36512D01*
X1302Y27170D02*
X1802D01*
X1552Y26920D02*
Y27420D01*
X1302Y28914D02*
X1802D01*
X1552Y28664D02*
Y29164D01*
X-10Y30494D02*
X490D01*
X240Y30244D02*
Y30744D01*
X-10Y32417D02*
X490D01*
X240Y32167D02*
Y32667D01*
X-10Y34339D02*
X490D01*
X240Y34089D02*
Y34589D01*
X1302Y13318D02*
X1802D01*
X1552Y13068D02*
Y13568D01*
X1302Y23390D02*
X1802D01*
X1552Y23140D02*
Y23640D01*
X1302Y20094D02*
X1802D01*
X1552Y19844D02*
Y20344D01*
X1302Y18450D02*
X1802D01*
X1552Y18200D02*
Y18700D01*
X1302Y16706D02*
X1802D01*
X1552Y16456D02*
Y16956D01*
X1302Y14930D02*
X1802D01*
X1552Y14680D02*
Y15180D01*
X1302Y25426D02*
X1802D01*
X1552Y25176D02*
Y25676D01*
X1302Y21655D02*
X1802D01*
X1552Y21405D02*
Y21905D01*
X2987Y21655D02*
X3487D01*
X3237Y21405D02*
Y21905D01*
X4673Y21655D02*
X5173D01*
X4923Y21405D02*
Y21905D01*
X6358Y21655D02*
X6858D01*
X6608Y21405D02*
Y21905D01*
X8044Y21655D02*
X8544D01*
X8294Y21405D02*
Y21905D01*
X9729Y21655D02*
X10229D01*
X9979Y21405D02*
Y21905D01*
X11415Y21655D02*
X11915D01*
X11665Y21405D02*
Y21905D01*
X13100Y21655D02*
X13600D01*
X13350Y21405D02*
Y21905D01*
X14786Y21655D02*
X15286D01*
X15036Y21405D02*
Y21905D01*
X12913Y7891D02*
X13413D01*
X13163Y7641D02*
Y8141D01*
X5458Y-3608D02*
X5958D01*
X5708Y-3858D02*
Y-3358D01*
X3835Y-3608D02*
X4335D01*
X4085Y-3858D02*
Y-3358D01*
X3835Y5991D02*
X4335D01*
X4085Y5741D02*
Y6241D01*
X3835Y4068D02*
X4335D01*
X4085Y3818D02*
Y4318D01*
X3835Y2145D02*
X4335D01*
X4085Y1895D02*
Y2395D01*
X3835Y223D02*
X4335D01*
X4085Y-27D02*
Y473D01*
X3835Y-1693D02*
X4335D01*
X4085Y-1943D02*
Y-1443D01*
X3835Y7913D02*
X4335D01*
X4085Y7663D02*
Y8163D01*
X11999Y7009D02*
X12499D01*
X12249Y6759D02*
Y7259D01*
X14872Y7913D02*
X15372D01*
X15122Y7663D02*
Y8163D01*
X11026Y7913D02*
X11526D01*
X11276Y7663D02*
Y8163D01*
X16771Y-3608D02*
X17271D01*
X17021Y-3858D02*
Y-3358D01*
X18825Y5491D02*
X19325D01*
X19075Y5241D02*
Y5741D01*
X18825Y4068D02*
X19325D01*
X19075Y3818D02*
Y4318D01*
X18825Y2145D02*
X19325D01*
X19075Y1895D02*
Y2395D01*
X18825Y223D02*
X19325D01*
X19075Y-27D02*
Y473D01*
X18825Y-1693D02*
X19325D01*
X19075Y-1943D02*
Y-1443D01*
X18825Y-3608D02*
X19325D01*
X19075Y-3858D02*
Y-3358D01*
X7081Y7913D02*
X7581D01*
X7331Y7663D02*
Y8163D01*
X5458Y7913D02*
X5958D01*
X5708Y7663D02*
Y8163D01*
X7012Y-3608D02*
X7512D01*
X7262Y-3858D02*
Y-3358D01*
X5458Y-1693D02*
X5958D01*
X5708Y-1943D02*
Y-1443D01*
X5458Y223D02*
X5958D01*
X5708Y-27D02*
Y473D01*
X5458Y2145D02*
X5958D01*
X5708Y1895D02*
Y2395D01*
X5458Y4068D02*
X5958D01*
X5708Y3818D02*
Y4318D01*
X5458Y5991D02*
X5958D01*
X5708Y5741D02*
Y6241D01*
X-27681Y7894D02*
X-27181D01*
X-27431Y7644D02*
Y8144D01*
X-14080Y5991D02*
X-13580D01*
X-13830Y5741D02*
Y6241D01*
X-14080Y4068D02*
X-13580D01*
X-13830Y3818D02*
Y4318D01*
X-14080Y2145D02*
X-13580D01*
X-13830Y1895D02*
Y2395D01*
X-14080Y223D02*
X-13580D01*
X-13830Y-27D02*
Y473D01*
X-14080Y-1693D02*
X-13580D01*
X-13830Y-1943D02*
Y-1443D01*
X-12526Y-3608D02*
X-12026D01*
X-12276Y-3858D02*
Y-3358D01*
X-14080Y7913D02*
X-13580D01*
X-13830Y7663D02*
Y8163D01*
X-12457Y7913D02*
X-11957D01*
X-12207Y7663D02*
Y8163D01*
X-713Y-3608D02*
X-213D01*
X-463Y-3858D02*
Y-3358D01*
X-713Y-1693D02*
X-213D01*
X-463Y-1943D02*
Y-1443D01*
X-713Y223D02*
X-213D01*
X-463Y-27D02*
Y473D01*
X-713Y2145D02*
X-213D01*
X-463Y1895D02*
Y2395D01*
X-713Y4068D02*
X-213D01*
X-463Y3818D02*
Y4318D01*
X-713Y5491D02*
X-213D01*
X-463Y5241D02*
Y5741D01*
X-2767Y-3608D02*
X-2267D01*
X-2517Y-3858D02*
Y-3358D01*
X-8512Y7913D02*
X-8012D01*
X-8262Y7663D02*
Y8163D01*
X-4666Y7913D02*
X-4166D01*
X-4416Y7663D02*
Y8163D01*
X-7539Y7009D02*
X-7039D01*
X-7289Y6759D02*
Y7259D01*
X-15703Y7913D02*
X-15203D01*
X-15453Y7663D02*
Y8163D01*
X-15703Y-1693D02*
X-15203D01*
X-15453Y-1943D02*
Y-1443D01*
X-15703Y223D02*
X-15203D01*
X-15453Y-27D02*
Y473D01*
X-15703Y2145D02*
X-15203D01*
X-15453Y1895D02*
Y2395D01*
X-15703Y4068D02*
X-15203D01*
X-15453Y3818D02*
Y4318D01*
X-15703Y5991D02*
X-15203D01*
X-15453Y5741D02*
Y6241D01*
X-15703Y-3608D02*
X-15203D01*
X-15453Y-3858D02*
Y-3358D01*
X-14080Y-3608D02*
X-13580D01*
X-13830Y-3858D02*
Y-3358D01*
X-6625Y7891D02*
X-6125D01*
X-6375Y7641D02*
Y8141D01*
X-25717Y7845D02*
X-25217D01*
X-25467Y7595D02*
Y8095D01*
X-38945Y16448D02*
X-38445D01*
X-38695Y16198D02*
Y16698D01*
X-37022Y18525D02*
X-36522D01*
X-36772Y18275D02*
Y18775D01*
X-35246Y20172D02*
X-34746D01*
X-34996Y19922D02*
Y20422D01*
X-33397Y20172D02*
X-32897D01*
X-33147Y19922D02*
Y20422D01*
X-31547Y20172D02*
X-31047D01*
X-31297Y19922D02*
Y20422D01*
X-29698Y20172D02*
X-29198D01*
X-29448Y19922D02*
Y20422D01*
X-27848Y20172D02*
X-27348D01*
X-27598Y19922D02*
Y20422D01*
X-25999Y20172D02*
X-25499D01*
X-25749Y19922D02*
Y20422D01*
X-24149Y20172D02*
X-23649D01*
X-23899Y19922D02*
Y20422D01*
X-4752Y21655D02*
X-4252D01*
X-4502Y21405D02*
Y21905D01*
X-6438Y21655D02*
X-5938D01*
X-6188Y21405D02*
Y21905D01*
X-8123Y21655D02*
X-7623D01*
X-7873Y21405D02*
Y21905D01*
X-9809Y21655D02*
X-9309D01*
X-9559Y21405D02*
Y21905D01*
X-11494Y21655D02*
X-10994D01*
X-11244Y21405D02*
Y21905D01*
X-13180Y21655D02*
X-12680D01*
X-12930Y21405D02*
Y21905D01*
X-14866Y21655D02*
X-14366D01*
X-14616Y21405D02*
Y21905D01*
X-16551Y21655D02*
X-16051D01*
X-16301Y21405D02*
Y21905D01*
X-18237Y21655D02*
X-17737D01*
X-17987Y21405D02*
Y21905D01*
X-18237Y25426D02*
X-17737D01*
X-17987Y25176D02*
Y25676D01*
X-18237Y14930D02*
X-17737D01*
X-17987Y14680D02*
Y15180D01*
X-18237Y16706D02*
X-17737D01*
X-17987Y16456D02*
Y16956D01*
X-18237Y18450D02*
X-17737D01*
X-17987Y18200D02*
Y18700D01*
X-18237Y20094D02*
X-17737D01*
X-17987Y19844D02*
Y20344D01*
X-18237Y23390D02*
X-17737D01*
X-17987Y23140D02*
Y23640D01*
X-18237Y13318D02*
X-17737D01*
X-17987Y13068D02*
Y13568D01*
X-19548Y34339D02*
X-19048D01*
X-19298Y34089D02*
Y34589D01*
X-19548Y32417D02*
X-19048D01*
X-19298Y32167D02*
Y32667D01*
X-19548Y30494D02*
X-19048D01*
X-19298Y30244D02*
Y30744D01*
X-18237Y28914D02*
X-17737D01*
X-17987Y28664D02*
Y29164D01*
X-18237Y27170D02*
X-17737D01*
X-17987Y26920D02*
Y27420D01*
X-19548Y36262D02*
X-19048D01*
X-19298Y36012D02*
Y36512D01*
X-19548Y38185D02*
X-19048D01*
X-19298Y37935D02*
Y38435D01*
X-16925Y13318D02*
X-16425D01*
X-16675Y13068D02*
Y13568D01*
X-16551Y23390D02*
X-16051D01*
X-16301Y23140D02*
Y23640D01*
X-16551Y20094D02*
X-16051D01*
X-16301Y19844D02*
Y20344D01*
X-16925Y18450D02*
X-16425D01*
X-16675Y18200D02*
Y18700D01*
X-16925Y16706D02*
X-16425D01*
X-16675Y16456D02*
Y16956D01*
X-16925Y14930D02*
X-16425D01*
X-16675Y14680D02*
Y15180D01*
X-16925Y25435D02*
X-16425D01*
X-16675Y25185D02*
Y25685D01*
X-16925Y28926D02*
X-16425D01*
X-16675Y28676D02*
Y29176D01*
X-16925Y27181D02*
X-16425D01*
X-16675Y26931D02*
Y27431D01*
X-14866Y23390D02*
X-14366D01*
X-14616Y23140D02*
Y23640D01*
X-13180Y23390D02*
X-12680D01*
X-12930Y23140D02*
Y23640D01*
X-11494Y23390D02*
X-10994D01*
X-11244Y23140D02*
Y23640D01*
X-14866Y20094D02*
X-14366D01*
X-14616Y19844D02*
Y20344D01*
X-13180Y20094D02*
X-12680D01*
X-12930Y19844D02*
Y20344D01*
X-11494Y20094D02*
X-10994D01*
X-11244Y19844D02*
Y20344D01*
X-9809Y23390D02*
X-9309D01*
X-9559Y23140D02*
Y23640D01*
X-8123Y23390D02*
X-7623D01*
X-7873Y23140D02*
Y23640D01*
X-6438Y23390D02*
X-5938D01*
X-6188Y23140D02*
Y23640D01*
X-9809Y20094D02*
X-9309D01*
X-9559Y19844D02*
Y20344D01*
X-8123Y20094D02*
X-7623D01*
X-7873Y19844D02*
Y20344D01*
X-6438Y20094D02*
X-5938D01*
X-6188Y19844D02*
Y20344D01*
X-6339Y24740D02*
X-5839D01*
X-6089Y24490D02*
Y24990D01*
X-6339Y26663D02*
X-5839D01*
X-6089Y26413D02*
Y26913D01*
X-6339Y28586D02*
X-5839D01*
X-6089Y28336D02*
Y28836D01*
X-6339Y18450D02*
X-5839D01*
X-6089Y18200D02*
Y18700D01*
X-6339Y16706D02*
X-5839D01*
X-6089Y16456D02*
Y16956D01*
X-6339Y14930D02*
X-5839D01*
X-6089Y14680D02*
Y15180D01*
X-4752Y38160D02*
X-4252D01*
X-4502Y37910D02*
Y38410D01*
X-4752Y36237D02*
X-4252D01*
X-4502Y35987D02*
Y36487D01*
X-4752Y30469D02*
X-4252D01*
X-4502Y30219D02*
Y30719D01*
X-4752Y32392D02*
X-4252D01*
X-4502Y32142D02*
Y32642D01*
X-4752Y34314D02*
X-4252D01*
X-4502Y34064D02*
Y34564D01*
X-4752Y24701D02*
X-4252D01*
X-4502Y24451D02*
Y24951D01*
X-4752Y23390D02*
X-4252D01*
X-4502Y23140D02*
Y23640D01*
X-4752Y26623D02*
X-4252D01*
X-4502Y26373D02*
Y26873D01*
X-4752Y28546D02*
X-4252D01*
X-4502Y28296D02*
Y28796D01*
X-4752Y16706D02*
X-4252D01*
X-4502Y16456D02*
Y16956D01*
X-4752Y14930D02*
X-4252D01*
X-4502Y14680D02*
Y15180D01*
X-4752Y18450D02*
X-4252D01*
X-4502Y18200D02*
Y18700D01*
X-4752Y20094D02*
X-4252D01*
X-4502Y19844D02*
Y20344D01*
X-38945Y-9362D02*
X-38445D01*
X-38695Y-9612D02*
Y-9112D01*
X-38945Y-5060D02*
X-38445D01*
X-38695Y-5310D02*
Y-4810D01*
X-38945Y-7211D02*
X-38445D01*
X-38695Y-7461D02*
Y-6961D01*
X-29926Y6010D02*
X-29426D01*
X-29676Y5760D02*
Y6260D01*
X-24149Y21695D02*
X-23649D01*
X-23899Y21445D02*
Y21945D01*
X-24149Y18658D02*
X-23649D01*
X-23899Y18408D02*
Y18908D01*
X-24149Y15087D02*
X-23649D01*
X-23899Y14837D02*
Y15337D01*
X-24149Y16873D02*
X-23649D01*
X-23899Y16623D02*
Y17123D01*
X-24149Y29370D02*
X-23649D01*
X-23899Y29120D02*
Y29620D01*
X-24149Y27585D02*
X-23649D01*
X-23899Y27335D02*
Y27835D01*
X-24149Y23149D02*
X-23649D01*
X-23899Y22899D02*
Y23399D01*
X-24149Y25800D02*
X-23649D01*
X-23899Y25550D02*
Y26050D01*
X-24149Y34726D02*
X-23649D01*
X-23899Y34476D02*
Y34976D01*
X-24149Y32941D02*
X-23649D01*
X-23899Y32691D02*
Y33191D01*
X-24149Y31156D02*
X-23649D01*
X-23899Y30906D02*
Y31406D01*
X-24149Y36512D02*
X-23649D01*
X-23899Y36262D02*
Y36762D01*
X-25736Y15127D02*
X-25236D01*
X-25486Y14877D02*
Y15377D01*
X-25736Y16809D02*
X-25236D01*
X-25486Y16559D02*
Y17059D01*
X-25736Y18491D02*
X-25236D01*
X-25486Y18241D02*
Y18741D01*
X-25736Y28586D02*
X-25236D01*
X-25486Y28336D02*
Y28836D01*
X-25736Y26903D02*
X-25236D01*
X-25486Y26653D02*
Y27153D01*
X-25736Y25221D02*
X-25236D01*
X-25486Y24971D02*
Y25471D01*
X-26263Y21695D02*
X-25763D01*
X-26013Y21445D02*
Y21945D01*
X-28377Y21695D02*
X-27877D01*
X-28127Y21445D02*
Y21945D01*
X-30490Y21695D02*
X-29990D01*
X-30240Y21445D02*
Y21945D01*
X-25999Y23149D02*
X-25499D01*
X-25749Y22899D02*
Y23399D01*
X-27848Y23149D02*
X-27348D01*
X-27598Y22899D02*
Y23399D01*
X-29698Y23149D02*
X-29198D01*
X-29448Y22899D02*
Y23399D01*
X-32604Y21695D02*
X-32104D01*
X-32354Y21445D02*
Y21945D01*
X-34718Y21695D02*
X-34218D01*
X-34468Y21445D02*
Y21945D01*
X-36831Y21695D02*
X-36331D01*
X-36581Y21445D02*
Y21945D01*
X-31547Y23149D02*
X-31047D01*
X-31297Y22899D02*
Y23399D01*
X-33397Y23149D02*
X-32897D01*
X-33147Y22899D02*
Y23399D01*
X-35246Y23149D02*
X-34746D01*
X-34996Y22899D02*
Y23399D01*
X-37022Y26574D02*
X-36522D01*
X-36772Y26324D02*
Y26824D01*
X-37022Y28586D02*
X-36522D01*
X-36772Y28336D02*
Y28836D01*
X-37022Y24561D02*
X-36522D01*
X-36772Y24311D02*
Y24811D01*
X-37022Y14501D02*
X-36522D01*
X-36772Y14251D02*
Y14751D01*
X-37022Y16513D02*
X-36522D01*
X-36772Y16263D02*
Y16763D01*
X-37095Y20172D02*
X-36595D01*
X-36845Y19922D02*
Y20422D01*
X-37095Y23149D02*
X-36595D01*
X-36845Y22899D02*
Y23399D01*
X-38945Y40107D02*
X-38445D01*
X-38695Y39857D02*
Y40357D01*
X-38945Y37957D02*
X-38445D01*
X-38695Y37707D02*
Y38207D01*
X-38945Y35806D02*
X-38445D01*
X-38695Y35556D02*
Y36056D01*
X-38945Y25052D02*
X-38445D01*
X-38695Y24802D02*
Y25302D01*
X-38945Y27202D02*
X-38445D01*
X-38695Y26952D02*
Y27452D01*
X-38945Y29353D02*
X-38445D01*
X-38695Y29103D02*
Y29603D01*
X-38945Y31504D02*
X-38445D01*
X-38695Y31254D02*
Y31754D01*
X-38945Y33655D02*
X-38445D01*
X-38695Y33405D02*
Y33905D01*
X-38945Y20750D02*
X-38445D01*
X-38695Y20500D02*
Y21000D01*
X-38945Y18599D02*
X-38445D01*
X-38695Y18349D02*
Y18849D01*
X-38945Y14297D02*
X-38445D01*
X-38695Y14047D02*
Y14547D01*
X-38945Y22901D02*
X-38445D01*
X-38695Y22651D02*
Y23151D01*
X-38945Y-759D02*
X-38445D01*
X-38695Y-1009D02*
Y-509D01*
X-38945Y1392D02*
X-38445D01*
X-38695Y1142D02*
Y1642D01*
X-38945Y3543D02*
X-38445D01*
X-38695Y3293D02*
Y3793D01*
X-38945Y5694D02*
X-38445D01*
X-38695Y5444D02*
Y5944D01*
X-38945Y7845D02*
X-38445D01*
X-38695Y7595D02*
Y8095D01*
X-38945Y-2909D02*
X-38445D01*
X-38695Y-3159D02*
Y-2659D01*
X-37022Y-5060D02*
X-36522D01*
X-36772Y-5310D02*
Y-4810D01*
X-37022Y5694D02*
X-36522D01*
X-36772Y5444D02*
Y5944D01*
X-37022Y3543D02*
X-36522D01*
X-36772Y3293D02*
Y3793D01*
X-37022Y1392D02*
X-36522D01*
X-36772Y1142D02*
Y1642D01*
X-37022Y-759D02*
X-36522D01*
X-36772Y-1009D02*
Y-509D01*
X-37022Y-2909D02*
X-36522D01*
X-36772Y-3159D02*
Y-2659D01*
X-37291Y7845D02*
X-36791D01*
X-37041Y7595D02*
Y8095D01*
X-35099Y5694D02*
X-34599D01*
X-34849Y5444D02*
Y5944D01*
X-35099Y3543D02*
X-34599D01*
X-34849Y3293D02*
Y3793D01*
X-35099Y1392D02*
X-34599D01*
X-34849Y1142D02*
Y1642D01*
X-35099Y-759D02*
X-34599D01*
X-34849Y-1009D02*
Y-509D01*
X-35099Y-2909D02*
X-34599D01*
X-34849Y-3159D02*
Y-2659D01*
X-35638Y7845D02*
X-35138D01*
X-35388Y7595D02*
Y8095D01*
X28501Y6010D02*
X29001D01*
X28751Y5760D02*
Y6260D01*
X9009Y6010D02*
X9509D01*
X9259Y5760D02*
Y6260D01*
X-10529Y6010D02*
X-10029D01*
X-10279Y5760D02*
Y6260D01*
X-26936Y7009D02*
X-26436D01*
X-26686Y6759D02*
Y7259D01*
X-24063Y7845D02*
X-23563D01*
X-23813Y7595D02*
Y8095D01*
X-20110Y5491D02*
X-19610D01*
X-19860Y5241D02*
Y5741D01*
X-20110Y4068D02*
X-19610D01*
X-19860Y3818D02*
Y4318D01*
X-20110Y2145D02*
X-19610D01*
X-19860Y1895D02*
Y2395D01*
X-20110Y223D02*
X-19610D01*
X-19860Y-27D02*
Y473D01*
X-20110Y-1693D02*
X-19610D01*
X-19860Y-1943D02*
Y-1443D01*
X-20110Y-3608D02*
X-19610D01*
X-19860Y-3858D02*
Y-3358D01*
X-32331Y7845D02*
X-31831D01*
X-32081Y7595D02*
Y8095D01*
X-33984Y7845D02*
X-33484D01*
X-33734Y7595D02*
Y8095D01*
X-31623Y-5060D02*
X-31123D01*
X-31373Y-5310D02*
Y-4810D01*
X-33177Y-2909D02*
X-32677D01*
X-32927Y-3159D02*
Y-2659D01*
X-33177Y-759D02*
X-32677D01*
X-32927Y-1009D02*
Y-509D01*
X-33177Y1392D02*
X-32677D01*
X-32927Y1142D02*
Y1642D01*
X-33177Y3543D02*
X-32677D01*
X-32927Y3293D02*
Y3793D01*
X-33177Y5694D02*
X-32677D01*
X-32927Y5444D02*
Y5944D01*
M02*
